<svg width="46" height="32" viewBox="0 0 46 32" fill="none" xmlns="http://www.w3.org/2000/svg">
<path d="M0.172904 2.20901C0.092468 3.00988 0.435083 3.7951 1.07726 4.27984C1.53596 4.65941 2.03683 4.98419 2.5703 5.24767C3.379 5.6855 4.17287 6.13289 5.0208 6.50553C6.84086 7.28901 8.70076 7.97553 10.593 8.56244C11.0495 8.7081 11.5069 8.8507 11.9656 8.99028H11.966C11.0386 8.87897 10.1055 8.82202 9.17124 8.8194L9.11994 8.79201C7.74432 8.05765 6.15989 7.81157 4.62644 8.09462L4.54079 8.11418C4.66557 8.12679 4.60905 8.13505 4.36861 8.14201L4.11339 8.20897V8.20853C3.90642 8.26984 3.70382 8.34331 3.50599 8.42941C3.12295 8.60375 2.78077 8.8568 2.50208 9.17202C2.11381 9.61637 1.89729 10.1851 1.8912 10.775C1.38511 11.1768 0.954669 11.6659 0.62121 12.2194C-0.145315 13.5994 -0.205753 15.2625 0.458171 16.6947C0.642514 17.0986 0.855563 17.489 1.0947 17.8629C1.3434 18.2473 1.61514 18.6164 1.90862 18.9677C2.51384 19.6882 3.18863 20.3474 3.9238 20.9352C5.38212 22.0752 6.95686 23.0578 8.6221 23.8661C9.5095 24.3195 10.4147 24.743 11.3369 25.1365L11.1565 25.2361V25.2365C10.593 25.573 10.1361 26.0626 9.83821 26.6478C9.54081 27.2331 9.41472 27.8909 9.47473 28.5448C9.68951 29.6483 10.4517 30.567 11.4969 30.9814C12.5843 31.484 13.7513 31.7931 14.9452 31.8949C15.9486 32.0301 16.966 32.0349 17.9709 31.9092C19.3474 31.7014 20.6901 31.3088 21.9617 30.7431C23.1008 30.2765 24.1347 29.5861 25.0026 28.7135C25.7365 28.7631 26.4726 28.7531 27.2047 28.6844C28.7217 28.5692 30.1669 27.9909 31.3443 27.0279C32.0165 26.5596 32.4347 25.8069 32.4774 24.9887C32.52 24.1705 32.1822 23.3787 31.5617 22.8431C31.4121 22.6853 31.2574 22.5331 31.0974 22.3875C31.2721 21.6766 31.3452 20.9444 31.3147 20.2127C31.2078 18.627 30.7608 17.0831 30.0047 15.6848C29.6099 14.9 29.1599 14.1439 28.6586 13.4226C31.2525 14.4696 33.7612 15.6913 36.3273 16.7883C37.9599 17.54 39.6543 18.15 41.3916 18.6109C41.9512 18.743 42.4899 18.9196 43.0451 19.0604C43.6964 19.2257 44.7677 19.2583 45.0903 18.2944C45.2825 17.9113 45.1977 17.4478 44.8829 17.1574C43.3372 15.9426 41.5964 15.0004 39.7342 14.3704C37.8794 13.7013 35.9794 13.1299 34.0637 12.6017C31.909 12.0069 29.7381 11.4512 27.5663 10.8965C27.1937 10.7769 26.8189 10.6608 26.4423 10.5491C25.5897 9.5582 24.6541 8.64208 23.6458 7.81041C20.6845 5.3726 17.3579 3.41564 13.7884 2.01119C10.9392 0.868978 7.9205 0.205934 4.85482 0.0481035C3.66998 -0.095814 2.46866 0.0846239 1.37876 0.570279C0.742678 0.89854 0.297013 1.50463 0.172663 2.20902L0.172904 2.20901ZM5.00254 12.2634L4.98167 12.2412H4.98211C4.70601 11.9447 4.45819 11.6234 4.24079 11.2812C4.49819 11.1843 4.75558 11.0995 4.9921 11.0286V11.0291C5.77037 10.7925 6.57085 10.6365 7.38082 10.563C7.72039 10.5347 8.05865 10.5173 8.39474 10.5104C8.5617 10.6073 8.72431 10.7099 8.88084 10.8204V10.8199C9.10127 10.976 9.31171 11.1452 9.51128 11.3269L9.71694 11.5239L10.0069 11.8669H10.0065C10.3991 12.3608 10.693 12.9256 10.8722 13.5303C11.17 14.4251 11.373 15.3486 11.4778 16.2856C10.4648 15.8717 9.47956 15.3939 8.52734 14.8551C7.72994 14.3964 6.96473 13.8838 6.2369 13.3217C5.92646 13.0817 5.61777 12.8343 5.32559 12.5721L5.11037 12.3703L5.00254 12.2634ZM13.0608 16.8947C13.0656 16.1308 13.103 15.3677 13.043 14.6121C12.9821 13.7529 12.7721 12.9108 12.423 12.1234C12.1925 11.6103 11.896 11.1295 11.5412 10.6929C11.8095 10.7259 12.0769 10.7633 12.3434 10.8038C13.0512 10.9112 13.7595 11.0381 14.4682 11.1851L14.4687 11.1855C14.486 11.8238 14.6939 12.442 15.0652 12.9612C15.4104 13.5207 15.7939 14.0555 16.2134 14.5621C16.7538 15.1955 17.3513 15.7777 17.9986 16.3012C17.1108 16.0425 16.199 15.8734 15.2769 15.7964C14.9169 15.7942 14.5778 15.966 14.366 16.2573C14.1486 16.5403 14.0721 16.9064 14.1573 17.2525L14.1604 17.2682L13.5621 17.0703L13.0608 16.8947ZM26.0423 16.4217L26.2223 16.5995L26.4093 16.806V16.8065C26.5815 17.0047 26.7393 17.2152 26.8806 17.4365L27.0128 17.6678C26.9593 17.5712 27.0802 17.8278 27.1015 17.8904L27.1549 18.1169L27.158 18.1691L27.1593 18.193L27.1476 18.2552L27.1428 18.2678L27.1284 18.2986L27.0758 18.366L27.0706 18.3726L26.9371 18.4847L26.8154 18.5721L26.5441 18.7117L26.2697 18.826C26.4523 18.7556 26.1449 18.8578 26.138 18.8595L26.1384 18.8591C25.9715 18.9047 25.8019 18.9417 25.631 18.9699C24.4284 18.0521 23.1718 17.2073 21.8683 16.4391C20.3379 15.5573 18.9422 14.4595 17.7248 13.1795C17.3291 12.7156 16.9678 12.2234 16.6444 11.7073C18.72 12.2603 20.7291 13.0395 22.6357 14.0294C23.8744 14.6686 25.0205 15.4734 26.0422 16.4216L26.0423 16.4217ZM24.0432 21.1052L24.6997 21.0739L24.8888 21.2399C25.5201 21.8043 26.0753 22.4486 26.5397 23.1569C26.6519 23.3274 26.7606 23.5 26.8623 23.6774L26.9849 23.9148L26.991 23.9283V23.9287C26.2606 23.8591 25.5436 23.6839 24.8636 23.4078C24.021 23.1291 23.2045 22.7756 22.424 22.3517C21.6806 21.9182 20.9693 21.4326 20.2949 20.8979C21.5366 21.0687 22.7901 21.1383 24.0428 21.1053L24.0432 21.1052ZM25.7671 13.5382L25.6858 13.483C24.834 12.9186 23.9436 12.4151 23.0206 11.9769C23.6319 12.1304 24.2436 12.2826 24.8566 12.4326C25.1693 12.7921 25.4723 13.1608 25.7671 13.5387L25.7671 13.5382ZM9.21488 21.5405C8.59923 21.2218 7.73619 20.727 7.02184 20.2666C6.26618 19.7805 5.54571 19.2422 4.8653 18.6557C4.544 18.377 4.23617 18.0822 3.93965 17.7757L3.79834 17.63L3.61443 17.4278C3.45008 17.2444 3.29443 17.0539 3.14269 16.8596V16.8591C2.88747 16.5348 2.65313 16.1943 2.44181 15.8396L2.32703 15.64L2.23747 15.4591C2.15921 15.2891 2.08964 15.1148 2.02964 14.9374C1.82007 14.403 1.78703 13.8156 1.93486 13.2612L1.9492 13.1808L2.04181 12.9673L2.11921 12.816C2.08573 12.8804 2.18268 12.7138 2.19964 12.6886L2.35964 12.4769L2.51834 12.7543V12.7538C2.78356 13.1812 3.094 13.5791 3.444 13.9408C4.63875 15.133 6.01492 16.1277 7.52188 16.8878C10.2249 18.3004 13.0967 19.3644 16.0676 20.0543C16.2858 20.2622 16.5097 20.4648 16.7332 20.6652H16.7328C18.0197 21.8882 19.4167 22.99 20.9067 23.9553C21.825 24.5166 22.798 24.9823 23.8111 25.3453L23.5494 25.36L22.9015 25.3792C22.432 25.3874 21.9668 25.3735 21.5037 25.3487L21.5041 25.3483C20.6141 25.2974 19.728 25.1927 18.8506 25.0348L18.771 25.0209L18.6954 25.0057L18.3828 24.9435L17.7593 24.8066C17.3106 24.7026 16.8667 24.5857 16.4254 24.4609C15.5802 24.2226 14.751 23.9439 13.934 23.6413C12.3192 23.0383 10.7431 22.3369 9.21493 21.5409L9.21488 21.5405ZM20.7016 29.814C20.0011 30.0683 19.2811 30.2662 18.5494 30.4057C18.2946 30.4566 18.0381 30.4962 17.7842 30.5275L17.7294 30.5336L17.635 30.5414L17.2698 30.5592L17.2702 30.5597C16.195 30.5905 15.1203 30.4931 14.068 30.2705C13.5023 30.1501 12.9497 29.9749 12.4176 29.7479C12.2141 29.6675 12.0202 29.5649 11.8393 29.4418C11.6419 29.3162 11.4576 29.1709 11.2893 29.0079L11.2158 28.927L11.1162 28.7975L10.9584 28.544C11.0041 28.6231 10.8984 28.3788 10.8836 28.3301L10.851 28.2036C10.8736 28.2988 10.8415 28.1022 10.8393 28.0701C10.8354 28.0131 10.8362 27.9544 10.8371 27.897V27.8766L10.841 27.8422H10.8415C10.8589 27.714 10.8849 27.5875 10.9206 27.4631L10.928 27.434L10.9475 27.3831L11.0302 27.1835L11.1123 27.0248C11.058 27.1262 11.1862 26.9235 11.2075 26.8953L11.2971 26.7888C11.2436 26.8501 11.3554 26.7348 11.3776 26.7157L11.5297 26.594L11.5589 26.5714L11.5797 26.5596V26.5601C11.6936 26.4927 11.8115 26.4327 11.9332 26.3809L12.0545 26.3327L12.2671 26.2705C12.4032 26.2335 12.5415 26.207 12.6784 26.1831L12.891 26.1514L13.0319 26.1357V26.1361C13.3254 26.1144 13.6197 26.1096 13.9137 26.1214C15.4446 26.6427 17.0137 27.0444 18.6067 27.3231C19.0241 27.3953 19.4454 27.4553 19.8706 27.5036C20.7158 27.8305 21.5801 28.1057 22.4584 28.3283C22.7537 28.3979 23.0515 28.4592 23.3524 28.5127C22.528 29.0575 21.6372 29.4949 20.7016 29.814ZM30.579 24.247L30.5786 24.2474C30.6742 24.3735 30.7599 24.5065 30.8351 24.6452L30.8694 24.7278L30.9338 24.9248L30.9468 24.9783L30.9564 25.1648L30.9473 25.2218L30.9194 25.3265L30.866 25.4457L30.8529 25.4709L30.8225 25.5139L30.6651 25.7091L30.6633 25.7104L30.5981 25.7726L30.5986 25.7731C30.4438 25.9144 30.279 26.0435 30.1047 26.1596L29.9416 26.2592L29.6881 26.4005C29.5168 26.4905 29.3412 26.5687 29.1647 26.6418C28.8129 26.7796 28.4494 26.8848 28.079 26.957C27.4638 27.0809 26.8373 27.1378 26.2103 27.1274C27.3407 26.8109 28.3869 26.2474 29.2734 25.4774C29.7304 25.0683 30.1195 24.5892 30.4264 24.0583L30.579 24.247ZM29.0885 20.1756C29.1085 20.3483 29.1211 20.5239 29.1303 20.7L29.1368 20.95C28.6789 20.6748 28.2068 20.4209 27.7298 20.1791L27.7289 20.1796C28.0976 19.943 28.4119 19.6304 28.6515 19.2635L28.8228 18.9495C28.9015 19.2182 28.9707 19.493 29.0276 19.7717L29.0537 19.9161L29.0885 20.1756ZM3.05203 2.08412L3.36681 2.06325L3.77812 2.05456C4.06726 2.05282 4.35465 2.06238 4.64073 2.07847C5.06726 2.10195 5.48943 2.14325 5.90983 2.19064H5.9094C9.41551 2.65195 12.806 3.75804 15.9095 5.45366C16.5617 5.7954 17.4743 6.32845 18.2017 6.78754C19.0121 7.29972 19.7965 7.84929 20.5569 8.42974C20.8956 8.688 21.2308 8.95496 21.5621 9.23061C21.0882 9.11322 20.61 9.0106 20.1225 8.93887C17.0173 8.08625 13.9337 7.18715 10.8929 6.17717H10.8925C9.00805 5.57934 7.15894 4.87712 5.3528 4.07372C4.67627 3.76198 4.01146 3.4285 3.3463 3.09676L3.12108 2.9785L2.73282 2.73894C2.60803 2.6572 2.4889 2.56763 2.37586 2.47067L2.28369 2.38459L2.19152 2.26546L2.19326 2.26415L2.24804 2.24198L2.32543 2.21893L2.32586 2.21937C2.56369 2.15372 2.80638 2.10846 3.05203 2.08412Z" fill="#222222"/>
</svg>
