<svg width="37" height="22" viewBox="0 0 37 22" fill="none" xmlns="http://www.w3.org/2000/svg">
    <path d="M18.255 0C8.47786 0 0.795571 9.00144 0.407584 9.38957C-0.135861 10.0878 -0.135861 11.0194 0.407584 11.7176C0.717738 12.1057 8.40012 21.1072 18.255 21.1072C28.0321 21.1072 35.7144 12.1058 36.1024 11.7176C36.6459 11.0194 36.6459 10.0878 36.1024 9.38957C35.7143 8.92407 28.032 0 18.255 0ZM16.8585 4.57867C18.1002 4.57867 19.1086 5.5876 19.1086 6.82872C19.1086 8.0704 18.0996 9.07877 16.8585 9.07877C15.6168 9.07877 14.6085 8.06983 14.6085 6.82872C14.6079 5.50963 15.6169 4.57867 16.8585 4.57867ZM18.255 17.382C12.0471 17.382 6.53792 12.6485 4.28746 10.4758C5.76195 9.07932 8.47744 6.67338 11.8919 5.04411C11.5817 5.89771 11.3484 6.75126 11.3484 7.7603C11.3484 11.5627 14.452 14.6665 18.2546 14.6665C22.0571 14.6665 25.1608 11.5629 25.1608 7.7603C25.1608 6.8293 25.0054 5.89782 24.6173 5.04411C28.0317 6.59592 30.7472 9.00145 32.2217 10.4758C29.9722 12.7258 24.4631 17.382 18.2556 17.382H18.255Z" fill="#222222"/>
    <circle cx="17.5" cy="7.5" r="3.5" fill="#222222"/>
</svg>
