<svg width="96" height="110" viewBox="0 0 96 110" fill="none" xmlns="http://www.w3.org/2000/svg">
<circle cx="48" cy="48" r="48" fill="#FFE8BB"/>
<path d="M68.1893 54.9475V32.9869C68.1893 30.1764 65.8625 27.8366 63.039 27.8366H59.8233V25.7451C59.8233 23.1699 57.7318 21 55.0783 21H54.2678C52.9868 21 51.7711 21.5621 50.8953 22.451C50.0064 21.5621 48.8822 21 47.5228 21H46.7123C45.1045 21 43.6535 21.8105 42.8561 23.0131C42.0457 22.451 41.0914 22.0457 40.0457 22.0457H39.2352C37.3006 22.0457 35.6143 23.1699 34.8954 24.8562C34.1764 24.451 33.366 24.2157 32.4771 24.2157H31.6666C29.0915 24.2941 27 26.3856 27 29.0392V43.6796C27 44.4901 27.1569 45.209 27.5621 45.8495V58.4769C27.5621 58.7122 27.6405 58.8821 27.7189 59.039L33.3137 70.6991L29.3791 108.359C29.3137 109.117 29.8627 109.784 30.6209 109.849C30.6601 109.849 30.6993 109.849 30.7385 109.849C31.4444 109.849 32.0457 109.313 32.098 108.594L36.0588 70.6598C36.0718 70.4376 36.0457 70.2285 35.9673 70.0324C35.9542 69.9801 35.928 69.9278 35.9019 69.8755L30.268 58.0455V48.1502C30.7516 48.307 31.2353 48.3855 31.7189 48.3855H32.5294C34.1372 48.3855 35.5882 47.575 36.3856 46.3724C37.196 46.9345 38.1502 47.3397 39.196 47.3397H40.0065C41.6143 47.3397 43.0653 46.5293 43.8626 45.3267C44.6731 45.8887 45.6273 46.294 46.6731 46.294H47.4835C47.7188 46.294 47.9672 46.294 48.1241 46.2155C45.4705 48.3855 43.4574 52.8168 43.7842 62.3069C43.7842 63.0259 44.4247 63.6795 45.1568 63.588C45.8757 63.588 46.5293 62.9475 46.4378 62.2154C45.9541 47.9802 50.6208 47.2482 54.7253 46.6077C55.6142 46.4508 56.3332 46.3724 57.1436 46.124C58.4246 45.8887 60.6861 44.6731 60.7645 41.0522C60.8429 37.8365 58.2678 36.5424 56.9083 36.3071H56.673H50.3986C49.026 36.3071 47.9803 35.2614 47.9803 33.8888V32.9215C47.9803 31.549 49.026 30.5032 50.3986 30.5032H63.0259C64.3985 30.5032 65.4442 31.549 65.4442 32.9215V55.039C65.4442 55.2743 65.6795 61.1566 60.4508 62.8429C59.8887 62.9998 59.4835 63.5618 59.4835 64.1239L62.0978 108.385C62.0978 109.104 62.7383 109.758 63.4704 109.758C64.1893 109.758 64.8429 109.117 64.8429 108.385L62.2285 65.0128C67.222 62.9083 68.2677 57.6011 68.1893 54.9475ZM34.5555 43.6796C34.5555 44.8038 33.6666 45.6927 32.5425 45.6927H31.732C30.6078 45.6927 29.7189 44.8038 29.7189 43.6796V29.0392C29.7189 27.915 30.6078 27.0261 31.732 27.0261H32.5425C33.6666 27.0261 34.5555 27.915 34.5555 29.0392V43.6796ZM42.1241 42.6339C42.1241 43.758 41.2352 44.6469 40.111 44.6469H39.3006C38.1764 44.6469 37.2875 43.758 37.2875 42.6339V26.8692C37.2875 25.7451 38.1764 24.8562 39.3006 24.8562H40.111C41.2352 24.8562 42.1241 25.7451 42.1241 26.8692V42.6339ZM52.3332 39.013H56.673C56.8299 39.0914 57.0782 39.1698 57.2351 39.2483C57.2351 39.3267 57.1567 39.4836 57.1567 39.5751V41.5097C57.1567 42.6339 56.2678 43.5227 55.1436 43.5227H54.3332C53.209 43.5227 52.3201 42.6339 52.3201 41.5097V39.013H52.3332ZM49.6796 27.915C47.2613 28.3202 45.4182 30.4117 45.4182 32.9869V33.9542C45.4182 36.4509 47.2744 38.5424 49.6796 39.026V41.6012C49.6796 42.7254 48.7907 43.6142 47.6665 43.6142H46.8561C45.7319 43.6142 44.843 42.7254 44.843 41.6012V25.7581C44.843 24.634 45.7319 23.7451 46.8561 23.7451H47.6665C48.7907 23.7451 49.6796 24.634 49.6796 25.7581V27.915ZM57.1567 27.8366H52.3332V25.7451C52.4116 24.6993 53.3005 23.732 54.3462 23.732H55.1567C56.2809 23.732 57.1697 24.6209 57.1697 25.7451V27.8366H57.1567Z" fill="black"/>
</svg>
