<svg width="32" height="32" viewBox="0 0 32 32" fill="none" xmlns="http://www.w3.org/2000/svg">
    <path d="M17.6221 14.2325V1.62181C17.6221 1.04226 17.313 0.506861 16.8112 0.217226C16.3095 -0.0724087 15.6911 -0.0724087 15.1894 0.217226C14.6877 0.506861 14.3785 1.04232 14.3785 1.62181V14.2325C12.7386 14.6992 11.3846 15.8595 10.6721 17.4083C9.95957 18.9572 9.95957 20.74 10.6721 22.2888C11.3845 23.8377 12.7385 24.9979 14.3785 25.4645V29.5194C14.3785 30.099 14.6877 30.6344 15.1894 30.924C15.6912 31.2137 16.3095 31.2137 16.8112 30.924C17.313 30.6344 17.6221 30.0989 17.6221 29.5194V25.4645C19.2621 24.9979 20.6161 23.8376 21.3286 22.2888C22.0411 20.7399 22.0411 18.9571 21.3286 17.4083C20.6161 15.8594 19.2621 14.6992 17.6221 14.2325ZM16.3247 22.4234H15.6759C14.7942 22.3122 14.0308 21.7578 13.6524 20.954C13.274 20.1501 13.3331 19.2086 13.8091 18.4581C14.2851 17.7081 15.1119 17.2535 16.0003 17.2535C16.8888 17.2535 17.7156 17.708 18.1916 18.4581C18.6676 19.2085 18.7267 20.1501 18.3483 20.954C17.9698 21.7579 17.2064 22.3122 16.3248 22.4234H16.3247Z" fill="#222222"/>
    <path d="M4.24082 16.9087V29.5194C4.24082 30.099 4.54997 30.6344 5.05173 30.924C5.5535 31.2137 6.17182 31.2137 6.67354 30.924C7.17531 30.6344 7.48444 30.0989 7.48444 29.5194V16.9087C9.12435 16.442 10.4784 15.2818 11.1909 13.733C11.9034 12.1841 11.9034 10.4013 11.1909 8.85247C10.4784 7.30358 9.12443 6.14337 7.48444 5.6767V1.62181C7.48444 1.04226 7.17529 0.506861 6.67354 0.217226C6.17177 -0.0724087 5.55345 -0.0724087 5.05173 0.217226C4.54996 0.506861 4.24082 1.04232 4.24082 1.62181V5.6767C2.60091 6.14339 1.24687 7.30365 0.534365 8.85247C-0.178122 10.4014 -0.178122 12.1841 0.534365 13.733C1.24685 15.2819 2.60084 16.4421 4.24082 16.9087ZM5.53853 8.71786H6.18738H6.18709C7.06874 8.82902 7.83215 9.3834 8.21056 10.1873C8.58901 10.9911 8.52989 11.9327 8.05386 12.6831C7.57783 13.4332 6.75108 13.8878 5.86262 13.8878C4.97417 13.8878 4.14741 13.4332 3.67139 12.6831C3.19536 11.9327 3.13625 10.9911 3.51469 10.1873C3.89314 9.38337 4.65658 8.82901 5.53815 8.71786H5.53853Z" fill="#222222"/>
    <path d="M27.7593 5.6767V1.62181C27.7593 1.04226 27.4502 0.506861 26.9484 0.217226C26.4467 -0.0724087 25.8284 -0.0724087 25.3266 0.217226C24.8249 0.506861 24.5157 1.04232 24.5157 1.62181V5.6767C22.8758 6.14339 21.5218 7.30365 20.8093 8.85247C20.0968 10.4014 20.0968 12.1841 20.8093 13.733C21.5218 15.2819 22.8757 16.4421 24.5157 16.9087V29.5194C24.5157 30.099 24.8249 30.6344 25.3266 30.924C25.8284 31.2137 26.4467 31.2137 26.9484 30.924C27.4502 30.6344 27.7593 30.0989 27.7593 29.5194V16.9087C29.3993 16.442 30.7533 15.2818 31.4658 13.733C32.1783 12.1841 32.1783 10.4013 31.4658 8.85247C30.7533 7.30358 29.3993 6.14337 27.7593 5.6767ZM26.1375 13.8676C25.2103 13.9256 24.3228 13.4843 23.8089 12.7105C23.2952 11.9366 23.2333 10.9472 23.6468 10.1153C24.0603 9.28352 24.8859 8.73531 25.8131 8.67739H26.462C27.3892 8.73537 28.2148 9.28353 28.6283 10.1153C29.0418 10.9472 28.9799 11.9366 28.4662 12.7105C27.9523 13.4844 27.0647 13.9256 26.1375 13.8676Z" fill="#222222"/>
    <circle cx="5.5" cy="11.5" r="3.5" fill="#222222"/>
    <circle cx="15.5" cy="19.5" r="3.5" fill="#222222"/>
    <circle cx="26.5" cy="11.5" r="3.5" fill="#222222"/>
</svg>
