<svg width="128" height="113" viewBox="0 0 128 113" fill="none" xmlns="http://www.w3.org/2000/svg">
<mask id="path-1-inside-1_84_144" fill="white">
<path d="M127.586 26.7149C127.591 26.7064 127.592 26.6979 127.597 26.6882C127.666 26.5592 127.721 26.4217 127.771 26.2866C127.799 26.2209 127.832 26.1552 127.854 26.0883C127.887 25.9897 127.9 25.8851 127.92 25.7828C127.944 25.6758 127.972 25.5711 127.985 25.464C127.991 25.4069 127.985 25.3509 127.988 25.2937C127.996 25.1416 128.007 24.9883 127.994 24.8374C127.988 24.7632 127.963 24.6914 127.952 24.6172C127.93 24.4821 127.913 24.3446 127.876 24.212C127.859 24.1487 127.828 24.0903 127.806 24.0282C127.756 23.8871 127.707 23.7447 127.636 23.6096C127.631 23.6011 127.63 23.5926 127.625 23.5829C127.59 23.5196 127.545 23.4673 127.507 23.4064C127.438 23.2933 127.37 23.1777 127.282 23.0706C127.213 22.9818 127.13 22.9051 127.051 22.826C126.983 22.7566 126.918 22.6824 126.841 22.6167C126.726 22.5206 126.604 22.4403 126.478 22.3612C126.428 22.3283 126.386 22.2894 126.334 22.2614L126.287 22.2334C126.28 22.231 126.276 22.2286 126.271 22.2249L87.4481 0.414711C87.4262 0.401326 87.4019 0.397676 87.38 0.384291C87.2887 0.336837 87.1902 0.296681 87.0916 0.257743C86.9821 0.211504 86.8762 0.166482 86.7667 0.131195C86.7059 0.11416 86.6377 0.104429 86.5744 0.0898282C86.4309 0.056974 86.2848 0.0241162 86.1388 0.0107309C86.0914 0.00586369 86.0403 0.0107311 85.9953 0.00829731C85.8334 0.00221334 85.6752 -0.00265381 85.5134 0.0143813C85.4562 0.0192489 85.3954 0.0362837 85.3394 0.0472352C85.1909 0.0715713 85.0425 0.0946891 84.9014 0.138496C84.832 0.160398 84.7663 0.19082 84.6969 0.218805C84.5643 0.266259 84.4353 0.318583 84.3088 0.386725C84.2893 0.395242 84.2698 0.40011 84.2516 0.411061L64.0014 11.7482L43.7487 0.411061C43.7292 0.40011 43.7098 0.395243 43.6903 0.384291C43.5638 0.31615 43.4336 0.266259 43.3021 0.216372C43.234 0.189602 43.1695 0.159184 43.1014 0.137279C42.9529 0.0910395 42.7984 0.0630529 42.6451 0.0411511C42.5928 0.0350672 42.5404 0.0192488 42.4881 0.0131645C42.3153 -0.00387062 42.1437 -0.00265397 41.971 0.0070805C41.9357 0.0070805 41.9016 0.00464673 41.8663 0.0070805C41.7045 0.0204655 41.5463 0.0545349 41.3844 0.0946907C41.337 0.105642 41.2859 0.111726 41.2409 0.125111C41.1167 0.161616 40.9987 0.213941 40.877 0.266261C40.7919 0.301548 40.7067 0.334402 40.6239 0.37699C40.5996 0.390375 40.574 0.396459 40.5473 0.409844L1.72154 22.2272C1.71911 22.2272 1.71667 22.2296 1.71667 22.2296L1.66192 22.2601C1.60351 22.2929 1.55727 22.3367 1.50252 22.3708C1.38448 22.4474 1.26524 22.5217 1.15572 22.6129C1.07541 22.6823 1.00727 22.7589 0.933045 22.8356C0.85882 22.9123 0.780943 22.9841 0.710369 23.0668C0.622759 23.1763 0.555834 23.2931 0.484042 23.4087C0.447537 23.4671 0.403733 23.5182 0.370879 23.5815C0.366012 23.59 0.364795 23.5986 0.359928 23.6083C0.294219 23.7373 0.246769 23.8723 0.198097 24.0074C0.171327 24.0767 0.139689 24.1424 0.117788 24.2142C0.0873676 24.3189 0.0764162 24.4296 0.0569473 24.5367C0.0399121 24.6365 0.0107074 24.7375 0.0021909 24.8397C-0.00389307 24.9249 0.00462451 25.0125 0.00462451 25.0964C0.00462451 25.2206 -0.00389322 25.3447 0.00949175 25.4676C0.0180092 25.5552 0.0459964 25.6416 0.0618145 25.7267C0.0861504 25.8484 0.103184 25.9713 0.140907 26.0882C0.162809 26.1563 0.198097 26.2208 0.22365 26.2889C0.275973 26.424 0.325862 26.5591 0.397654 26.6856C0.402521 26.6941 0.403738 26.7026 0.408605 26.7136C0.424423 26.7403 0.447542 26.7598 0.460928 26.7829C0.578959 26.9788 0.716458 27.1601 0.873421 27.3281C0.928177 27.3865 0.982929 27.4412 1.04134 27.496C1.18127 27.6274 1.33824 27.7418 1.50373 27.8513C1.56214 27.8878 1.61933 27.934 1.68017 27.9669C1.69721 27.9778 1.71303 27.9912 1.73006 28.0022L19.1658 37.2146L4.02023 44.5277C3.95939 44.5581 3.90707 44.5995 3.84744 44.6324C3.74523 44.6895 3.64424 44.748 3.54811 44.8161C3.45928 44.8794 3.37775 44.9487 3.29745 45.0205C3.21835 45.0887 3.14291 45.1556 3.07112 45.2322C2.98838 45.3211 2.91415 45.416 2.84236 45.5109C2.80099 45.5632 2.75475 45.607 2.71824 45.6618C2.70121 45.6886 2.69147 45.7165 2.67444 45.7421C2.61117 45.8419 2.56128 45.9465 2.50895 46.0536C2.46515 46.1449 2.41769 46.2349 2.38241 46.3262C2.3459 46.4223 2.324 46.5221 2.2948 46.6231C2.26681 46.7277 2.23639 46.8323 2.21814 46.9394C2.2011 47.0392 2.19867 47.1426 2.19137 47.2424C2.18528 47.3495 2.17433 47.4566 2.17555 47.5624C2.17798 47.6646 2.19502 47.7668 2.2084 47.8703C2.22179 47.9773 2.23274 48.0857 2.25586 48.1927C2.27776 48.284 2.30818 48.3765 2.3386 48.4677C2.37511 48.5858 2.41526 48.6989 2.46515 48.8097C2.4761 48.8377 2.48218 48.8669 2.49557 48.8924C2.5126 48.9277 2.54181 48.9508 2.55884 48.9861C2.66835 49.1954 2.80098 49.3937 2.95794 49.5775C2.99444 49.6213 3.02608 49.6687 3.06502 49.7101C3.23294 49.889 3.41789 50.0545 3.62962 50.1968L23.2275 63.2192C23.1752 63.4504 23.1399 63.6925 23.1399 63.9408V83.277V83.2819V83.3013C23.1399 83.3561 23.1533 83.4084 23.1557 83.4607C23.1618 83.6177 23.1728 83.7771 23.2032 83.9292C23.2226 84.0314 23.2579 84.1275 23.2884 84.2261C23.3188 84.3307 23.3431 84.4378 23.3845 84.54C23.4234 84.6386 23.4782 84.725 23.5256 84.8187C23.5755 84.9148 23.6193 85.0109 23.6802 85.1022C23.7374 85.1898 23.8116 85.2677 23.8761 85.348C23.9442 85.4307 24.0051 85.5184 24.0793 85.5938C24.1839 85.7009 24.3044 85.7921 24.4236 85.8834C24.4711 85.9223 24.5113 85.9661 24.5611 86.0014L24.5782 86.0148L62.1423 111.702C62.1448 111.704 62.1472 111.704 62.1484 111.707C62.2165 111.753 62.292 111.786 62.3662 111.827C62.438 111.871 62.5074 111.91 62.5816 111.947C62.6972 112.002 62.8152 112.047 62.9393 112.087C63.0002 112.109 63.0598 112.131 63.1206 112.146C63.1681 112.159 63.2143 112.176 63.2618 112.187C63.493 112.239 63.7302 112.272 63.9773 112.272C63.9797 112.272 63.9833 112.275 63.9833 112.275H63.9858H63.9882C63.9906 112.275 63.9943 112.272 63.9943 112.272C64.2401 112.272 64.4786 112.239 64.7098 112.187C64.7572 112.176 64.8035 112.159 64.8509 112.146C64.9118 112.129 64.9714 112.107 65.0322 112.087C65.1539 112.044 65.2744 112 65.39 111.947C65.4642 111.911 65.5336 111.871 65.6054 111.829C65.6771 111.786 65.7538 111.755 65.8232 111.708C65.8256 111.705 65.8292 111.705 65.8317 111.703L103.408 86.0026C103.465 85.9637 103.508 85.915 103.56 85.8712C103.674 85.7836 103.787 85.6972 103.888 85.5938C103.964 85.5171 104.025 85.4307 104.095 85.3456C104.158 85.2652 104.23 85.1886 104.288 85.101C104.346 85.0121 104.393 84.9136 104.44 84.8175C104.488 84.7262 104.545 84.6361 104.581 84.5388C104.625 84.4366 104.647 84.332 104.68 84.2249C104.71 84.1263 104.746 84.0314 104.765 83.928C104.798 83.771 104.806 83.6092 104.812 83.451C104.815 83.4011 104.828 83.3512 104.828 83.3001L104.836 83.2879V83.2794V63.9444C104.836 63.6962 104.8 63.4565 104.75 63.2229L124.348 50.2005C124.562 50.0593 124.747 49.8926 124.915 49.7138C124.954 49.6724 124.983 49.6262 125.02 49.5848C125.177 49.3998 125.312 49.2015 125.424 48.9898C125.441 48.9569 125.47 48.9326 125.485 48.8985C125.498 48.8717 125.502 48.8437 125.515 48.8182C125.565 48.7026 125.604 48.587 125.644 48.4665C125.672 48.3777 125.703 48.2877 125.725 48.1988C125.751 48.0893 125.761 47.981 125.772 47.8691C125.785 47.7693 125.802 47.6683 125.805 47.5685C125.807 47.4614 125.796 47.3532 125.789 47.2461C125.781 47.1439 125.778 47.0429 125.761 46.9406C125.744 46.8384 125.715 46.7374 125.687 46.6352C125.659 46.5306 125.634 46.4259 125.596 46.3261C125.56 46.2373 125.519 46.1534 125.475 46.067C125.423 45.9562 125.368 45.8443 125.302 45.7396C125.285 45.7153 125.278 45.6898 125.261 45.663C125.226 45.6107 125.181 45.5693 125.143 45.5218C125.069 45.4221 124.992 45.3235 124.906 45.2322C124.836 45.1556 124.76 45.0911 124.681 45.0229C124.6 44.9512 124.519 44.8818 124.43 44.8185C124.334 44.7492 124.232 44.6895 124.127 44.6336C124.07 44.6007 124.017 44.5593 123.959 44.5314L108.813 37.2182L126.249 28.0058C126.269 27.9949 126.284 27.9815 126.301 27.9705C126.359 27.9377 126.409 27.8963 126.464 27.861C126.637 27.7515 126.794 27.6322 126.94 27.4972C126.995 27.4473 127.05 27.395 127.1 27.3378C127.261 27.165 127.403 26.98 127.521 26.7817C127.552 26.7561 127.573 26.7405 127.586 26.7149ZM85.8323 67.9517L70.3957 57.8777L101.661 41.0226L115.966 47.928L85.8323 67.9517ZM42.1658 67.9517L12.035 47.928L26.3374 41.0226L57.6029 57.8777L42.1658 67.9517ZM42.1524 7.0186L57.3989 15.5556L26.3436 33.6132L10.0969 25.0285L42.1524 7.0186ZM63.999 53.8936L33.1116 37.2428L63.999 19.284L94.8839 37.2428L63.999 53.8936ZM70.5979 15.5538L85.8444 7.01673L117.901 25.0232L101.654 33.6079L70.5979 15.5538ZM40.3407 74.5929C40.3796 74.6197 40.4234 74.6282 40.4624 74.6501C40.6437 74.7596 40.8335 74.8436 41.0294 74.9166C41.117 74.9494 41.2022 74.9908 41.291 75.0164C41.5587 75.0882 41.8361 75.132 42.1136 75.1368C42.1245 75.1368 42.1355 75.1417 42.1489 75.1417H42.1513H42.1537C42.1647 75.1417 42.1781 75.1368 42.189 75.1368C42.464 75.132 42.7366 75.0906 43.0019 75.0188C43.0907 74.9945 43.1722 74.9531 43.2586 74.9202C43.4521 74.8509 43.6407 74.7694 43.8208 74.6635C43.8597 74.6392 43.9011 74.6331 43.9388 74.6087L60.7307 63.6513V102.81L29.6935 81.5855V67.5192L40.3407 74.5929ZM98.3083 81.5834L67.2723 102.808L67.2735 63.6492L84.0629 74.6066C84.0994 74.631 84.1396 74.6371 84.1761 74.659C84.3598 74.7685 84.5508 74.8524 84.7516 74.923C84.8344 74.9534 84.9135 74.9924 84.9962 75.0167C85.2663 75.0885 85.5438 75.1323 85.8249 75.1347C85.8334 75.1347 85.8407 75.1396 85.8492 75.1396H85.8541C85.8626 75.1396 85.8699 75.1347 85.8784 75.1347C86.1619 75.1323 86.4406 75.0885 86.7156 75.0143C86.8032 74.9875 86.8859 74.9461 86.9711 74.9145C87.1694 74.8427 87.3617 74.7575 87.543 74.648C87.5844 74.6212 87.6257 74.6152 87.6647 74.5908L98.3143 67.515L98.3131 81.5837L98.3083 81.5834Z"/>
</mask>
<path d="M127.586 26.7149C127.591 26.7064 127.592 26.6979 127.597 26.6882C127.666 26.5592 127.721 26.4217 127.771 26.2866C127.799 26.2209 127.832 26.1552 127.854 26.0883C127.887 25.9897 127.9 25.8851 127.92 25.7828C127.944 25.6758 127.972 25.5711 127.985 25.464C127.991 25.4069 127.985 25.3509 127.988 25.2937C127.996 25.1416 128.007 24.9883 127.994 24.8374C127.988 24.7632 127.963 24.6914 127.952 24.6172C127.93 24.4821 127.913 24.3446 127.876 24.212C127.859 24.1487 127.828 24.0903 127.806 24.0282C127.756 23.8871 127.707 23.7447 127.636 23.6096C127.631 23.6011 127.63 23.5926 127.625 23.5829C127.59 23.5196 127.545 23.4673 127.507 23.4064C127.438 23.2933 127.37 23.1777 127.282 23.0706C127.213 22.9818 127.13 22.9051 127.051 22.826C126.983 22.7566 126.918 22.6824 126.841 22.6167C126.726 22.5206 126.604 22.4403 126.478 22.3612C126.428 22.3283 126.386 22.2894 126.334 22.2614L126.287 22.2334C126.28 22.231 126.276 22.2286 126.271 22.2249L87.4481 0.414711C87.4262 0.401326 87.4019 0.397676 87.38 0.384291C87.2887 0.336837 87.1902 0.296681 87.0916 0.257743C86.9821 0.211504 86.8762 0.166482 86.7667 0.131195C86.7059 0.11416 86.6377 0.104429 86.5744 0.0898282C86.4309 0.056974 86.2848 0.0241162 86.1388 0.0107309C86.0914 0.00586369 86.0403 0.0107311 85.9953 0.00829731C85.8334 0.00221334 85.6752 -0.00265381 85.5134 0.0143813C85.4562 0.0192489 85.3954 0.0362837 85.3394 0.0472352C85.1909 0.0715713 85.0425 0.0946891 84.9014 0.138496C84.832 0.160398 84.7663 0.19082 84.6969 0.218805C84.5643 0.266259 84.4353 0.318583 84.3088 0.386725C84.2893 0.395242 84.2698 0.40011 84.2516 0.411061L64.0014 11.7482L43.7487 0.411061C43.7292 0.40011 43.7098 0.395243 43.6903 0.384291C43.5638 0.31615 43.4336 0.266259 43.3021 0.216372C43.234 0.189602 43.1695 0.159184 43.1014 0.137279C42.9529 0.0910395 42.7984 0.0630529 42.6451 0.0411511C42.5928 0.0350672 42.5404 0.0192488 42.4881 0.0131645C42.3153 -0.00387062 42.1437 -0.00265397 41.971 0.0070805C41.9357 0.0070805 41.9016 0.00464673 41.8663 0.0070805C41.7045 0.0204655 41.5463 0.0545349 41.3844 0.0946907C41.337 0.105642 41.2859 0.111726 41.2409 0.125111C41.1167 0.161616 40.9987 0.213941 40.877 0.266261C40.7919 0.301548 40.7067 0.334402 40.6239 0.37699C40.5996 0.390375 40.574 0.396459 40.5473 0.409844L1.72154 22.2272C1.71911 22.2272 1.71667 22.2296 1.71667 22.2296L1.66192 22.2601C1.60351 22.2929 1.55727 22.3367 1.50252 22.3708C1.38448 22.4474 1.26524 22.5217 1.15572 22.6129C1.07541 22.6823 1.00727 22.7589 0.933045 22.8356C0.85882 22.9123 0.780943 22.9841 0.710369 23.0668C0.622759 23.1763 0.555834 23.2931 0.484042 23.4087C0.447537 23.4671 0.403733 23.5182 0.370879 23.5815C0.366012 23.59 0.364795 23.5986 0.359928 23.6083C0.294219 23.7373 0.246769 23.8723 0.198097 24.0074C0.171327 24.0767 0.139689 24.1424 0.117788 24.2142C0.0873676 24.3189 0.0764162 24.4296 0.0569473 24.5367C0.0399121 24.6365 0.0107074 24.7375 0.0021909 24.8397C-0.00389307 24.9249 0.00462451 25.0125 0.00462451 25.0964C0.00462451 25.2206 -0.00389322 25.3447 0.00949175 25.4676C0.0180092 25.5552 0.0459964 25.6416 0.0618145 25.7267C0.0861504 25.8484 0.103184 25.9713 0.140907 26.0882C0.162809 26.1563 0.198097 26.2208 0.22365 26.2889C0.275973 26.424 0.325862 26.5591 0.397654 26.6856C0.402521 26.6941 0.403738 26.7026 0.408605 26.7136C0.424423 26.7403 0.447542 26.7598 0.460928 26.7829C0.578959 26.9788 0.716458 27.1601 0.873421 27.3281C0.928177 27.3865 0.982929 27.4412 1.04134 27.496C1.18127 27.6274 1.33824 27.7418 1.50373 27.8513C1.56214 27.8878 1.61933 27.934 1.68017 27.9669C1.69721 27.9778 1.71303 27.9912 1.73006 28.0022L19.1658 37.2146L4.02023 44.5277C3.95939 44.5581 3.90707 44.5995 3.84744 44.6324C3.74523 44.6895 3.64424 44.748 3.54811 44.8161C3.45928 44.8794 3.37775 44.9487 3.29745 45.0205C3.21835 45.0887 3.14291 45.1556 3.07112 45.2322C2.98838 45.3211 2.91415 45.416 2.84236 45.5109C2.80099 45.5632 2.75475 45.607 2.71824 45.6618C2.70121 45.6886 2.69147 45.7165 2.67444 45.7421C2.61117 45.8419 2.56128 45.9465 2.50895 46.0536C2.46515 46.1449 2.41769 46.2349 2.38241 46.3262C2.3459 46.4223 2.324 46.5221 2.2948 46.6231C2.26681 46.7277 2.23639 46.8323 2.21814 46.9394C2.2011 47.0392 2.19867 47.1426 2.19137 47.2424C2.18528 47.3495 2.17433 47.4566 2.17555 47.5624C2.17798 47.6646 2.19502 47.7668 2.2084 47.8703C2.22179 47.9773 2.23274 48.0857 2.25586 48.1927C2.27776 48.284 2.30818 48.3765 2.3386 48.4677C2.37511 48.5858 2.41526 48.6989 2.46515 48.8097C2.4761 48.8377 2.48218 48.8669 2.49557 48.8924C2.5126 48.9277 2.54181 48.9508 2.55884 48.9861C2.66835 49.1954 2.80098 49.3937 2.95794 49.5775C2.99444 49.6213 3.02608 49.6687 3.06502 49.7101C3.23294 49.889 3.41789 50.0545 3.62962 50.1968L23.2275 63.2192C23.1752 63.4504 23.1399 63.6925 23.1399 63.9408V83.277V83.2819V83.3013C23.1399 83.3561 23.1533 83.4084 23.1557 83.4607C23.1618 83.6177 23.1728 83.7771 23.2032 83.9292C23.2226 84.0314 23.2579 84.1275 23.2884 84.2261C23.3188 84.3307 23.3431 84.4378 23.3845 84.54C23.4234 84.6386 23.4782 84.725 23.5256 84.8187C23.5755 84.9148 23.6193 85.0109 23.6802 85.1022C23.7374 85.1898 23.8116 85.2677 23.8761 85.348C23.9442 85.4307 24.0051 85.5184 24.0793 85.5938C24.1839 85.7009 24.3044 85.7921 24.4236 85.8834C24.4711 85.9223 24.5113 85.9661 24.5611 86.0014L24.5782 86.0148L62.1423 111.702C62.1448 111.704 62.1472 111.704 62.1484 111.707C62.2165 111.753 62.292 111.786 62.3662 111.827C62.438 111.871 62.5074 111.91 62.5816 111.947C62.6972 112.002 62.8152 112.047 62.9393 112.087C63.0002 112.109 63.0598 112.131 63.1206 112.146C63.1681 112.159 63.2143 112.176 63.2618 112.187C63.493 112.239 63.7302 112.272 63.9773 112.272C63.9797 112.272 63.9833 112.275 63.9833 112.275H63.9858H63.9882C63.9906 112.275 63.9943 112.272 63.9943 112.272C64.2401 112.272 64.4786 112.239 64.7098 112.187C64.7572 112.176 64.8035 112.159 64.8509 112.146C64.9118 112.129 64.9714 112.107 65.0322 112.087C65.1539 112.044 65.2744 112 65.39 111.947C65.4642 111.911 65.5336 111.871 65.6054 111.829C65.6771 111.786 65.7538 111.755 65.8232 111.708C65.8256 111.705 65.8292 111.705 65.8317 111.703L103.408 86.0026C103.465 85.9637 103.508 85.915 103.56 85.8712C103.674 85.7836 103.787 85.6972 103.888 85.5938C103.964 85.5171 104.025 85.4307 104.095 85.3456C104.158 85.2652 104.23 85.1886 104.288 85.101C104.346 85.0121 104.393 84.9136 104.44 84.8175C104.488 84.7262 104.545 84.6361 104.581 84.5388C104.625 84.4366 104.647 84.332 104.68 84.2249C104.71 84.1263 104.746 84.0314 104.765 83.928C104.798 83.771 104.806 83.6092 104.812 83.451C104.815 83.4011 104.828 83.3512 104.828 83.3001L104.836 83.2879V83.2794V63.9444C104.836 63.6962 104.8 63.4565 104.75 63.2229L124.348 50.2005C124.562 50.0593 124.747 49.8926 124.915 49.7138C124.954 49.6724 124.983 49.6262 125.02 49.5848C125.177 49.3998 125.312 49.2015 125.424 48.9898C125.441 48.9569 125.47 48.9326 125.485 48.8985C125.498 48.8717 125.502 48.8437 125.515 48.8182C125.565 48.7026 125.604 48.587 125.644 48.4665C125.672 48.3777 125.703 48.2877 125.725 48.1988C125.751 48.0893 125.761 47.981 125.772 47.8691C125.785 47.7693 125.802 47.6683 125.805 47.5685C125.807 47.4614 125.796 47.3532 125.789 47.2461C125.781 47.1439 125.778 47.0429 125.761 46.9406C125.744 46.8384 125.715 46.7374 125.687 46.6352C125.659 46.5306 125.634 46.4259 125.596 46.3261C125.56 46.2373 125.519 46.1534 125.475 46.067C125.423 45.9562 125.368 45.8443 125.302 45.7396C125.285 45.7153 125.278 45.6898 125.261 45.663C125.226 45.6107 125.181 45.5693 125.143 45.5218C125.069 45.4221 124.992 45.3235 124.906 45.2322C124.836 45.1556 124.76 45.0911 124.681 45.0229C124.6 44.9512 124.519 44.8818 124.43 44.8185C124.334 44.7492 124.232 44.6895 124.127 44.6336C124.07 44.6007 124.017 44.5593 123.959 44.5314L108.813 37.2182L126.249 28.0058C126.269 27.9949 126.284 27.9815 126.301 27.9705C126.359 27.9377 126.409 27.8963 126.464 27.861C126.637 27.7515 126.794 27.6322 126.94 27.4972C126.995 27.4473 127.05 27.395 127.1 27.3378C127.261 27.165 127.403 26.98 127.521 26.7817C127.552 26.7561 127.573 26.7405 127.586 26.7149ZM85.8323 67.9517L70.3957 57.8777L101.661 41.0226L115.966 47.928L85.8323 67.9517ZM42.1658 67.9517L12.035 47.928L26.3374 41.0226L57.6029 57.8777L42.1658 67.9517ZM42.1524 7.0186L57.3989 15.5556L26.3436 33.6132L10.0969 25.0285L42.1524 7.0186ZM63.999 53.8936L33.1116 37.2428L63.999 19.284L94.8839 37.2428L63.999 53.8936ZM70.5979 15.5538L85.8444 7.01673L117.901 25.0232L101.654 33.6079L70.5979 15.5538ZM40.3407 74.5929C40.3796 74.6197 40.4234 74.6282 40.4624 74.6501C40.6437 74.7596 40.8335 74.8436 41.0294 74.9166C41.117 74.9494 41.2022 74.9908 41.291 75.0164C41.5587 75.0882 41.8361 75.132 42.1136 75.1368C42.1245 75.1368 42.1355 75.1417 42.1489 75.1417H42.1513H42.1537C42.1647 75.1417 42.1781 75.1368 42.189 75.1368C42.464 75.132 42.7366 75.0906 43.0019 75.0188C43.0907 74.9945 43.1722 74.9531 43.2586 74.9202C43.4521 74.8509 43.6407 74.7694 43.8208 74.6635C43.8597 74.6392 43.9011 74.6331 43.9388 74.6087L60.7307 63.6513V102.81L29.6935 81.5855V67.5192L40.3407 74.5929ZM98.3083 81.5834L67.2723 102.808L67.2735 63.6492L84.0629 74.6066C84.0994 74.631 84.1396 74.6371 84.1761 74.659C84.3598 74.7685 84.5508 74.8524 84.7516 74.923C84.8344 74.9534 84.9135 74.9924 84.9962 75.0167C85.2663 75.0885 85.5438 75.1323 85.8249 75.1347C85.8334 75.1347 85.8407 75.1396 85.8492 75.1396H85.8541C85.8626 75.1396 85.8699 75.1347 85.8784 75.1347C86.1619 75.1323 86.4406 75.0885 86.7156 75.0143C86.8032 74.9875 86.8859 74.9461 86.9711 74.9145C87.1694 74.8427 87.3617 74.7575 87.543 74.648C87.5844 74.6212 87.6257 74.6152 87.6647 74.5908L98.3143 67.515L98.3131 81.5837L98.3083 81.5834Z" fill="#FFA184" stroke="#222222" stroke-width="2" mask="url(#path-1-inside-1_84_144)"/>
</svg>
