<svg width="48" height="48" viewBox="0 0 48 48" fill="none" xmlns="http://www.w3.org/2000/svg">
<path d="M24.255 13C14.4779 13 6.79557 22.0014 6.40758 22.3896C5.86414 23.0878 5.86414 24.0194 6.40758 24.7176C6.71774 25.1057 14.4001 34.1072 24.255 34.1072C34.0321 34.1072 41.7144 25.1058 42.1024 24.7176C42.6459 24.0194 42.6459 23.0878 42.1024 22.3896C41.7143 21.9241 34.032 13 24.255 13ZM22.8585 17.5787C24.1002 17.5787 25.1086 18.5876 25.1086 19.8287C25.1086 21.0704 24.0996 22.0788 22.8585 22.0788C21.6168 22.0788 20.6085 21.0698 20.6085 19.8287C20.6079 18.5096 21.6169 17.5787 22.8585 17.5787ZM24.255 30.382C18.0471 30.382 12.5379 25.6485 10.2875 23.4758C11.7619 22.0793 14.4774 19.6734 17.8919 18.0441C17.5817 18.8977 17.3484 19.7513 17.3484 20.7603C17.3484 24.5627 20.452 27.6665 24.2546 27.6665C28.0571 27.6665 31.1608 24.5629 31.1608 20.7603C31.1608 19.8293 31.0054 18.8978 30.6173 18.0441C34.0317 19.5959 36.7472 22.0014 38.2217 23.4758C35.9722 25.7258 30.4631 30.382 24.2556 30.382H24.255Z" fill="#222222"/>
<circle cx="23.5" cy="20.5" r="3.5" fill="#222222"/>
</svg>
