<svg width="126" height="96" viewBox="0 0 126 96" fill="none" xmlns="http://www.w3.org/2000/svg">
<circle cx="65" cy="48" r="48" fill="#FFA184"/>
<path d="M95.4513 29.1701H75.6998C73.1638 29.1701 71.0723 31.2747 71.0723 33.7975V36.6864H69.19C66.8763 36.6864 64.9155 38.5687 64.9155 40.9609V41.6798C64.9155 42.8432 65.4253 43.9282 66.2227 44.7256C65.4253 45.5229 64.9155 46.5295 64.9155 47.7713V48.4902C64.9155 49.9412 65.6345 51.2353 66.7194 51.9673C66.2096 52.6863 65.8567 53.5621 65.8567 54.5033V55.2222C65.8567 56.9608 66.8763 58.4771 68.3926 59.1307C68.0266 59.7843 67.8175 60.5032 67.8175 61.3006V62.0196C67.8959 64.3333 69.7652 66.2156 72.1573 66.2156H85.3337C86.0526 66.2156 86.7062 66.0718 87.2814 65.7058H98.6408C98.863 65.7058 99.0068 65.6274 99.1506 65.562L109.634 60.5294L124.601 62.8954C125.281 62.9607 125.882 62.4509 125.935 61.7712C125.935 61.732 125.935 61.6928 125.935 61.6536C125.935 61.0261 125.451 60.4771 124.811 60.4248L109.595 58.0457C109.399 58.0327 109.203 58.0588 109.033 58.1242C108.981 58.1372 108.941 58.1503 108.889 58.1765L98.2487 63.2483H89.3467C89.4905 62.8169 89.569 62.3856 89.569 61.9411V61.2222C89.569 59.7712 88.85 58.4771 87.7651 57.7451C88.2749 57.0261 88.6278 56.1503 88.6278 55.2091V54.4902C88.6278 53.0392 87.9088 51.7451 86.8239 51.0131C87.3337 50.2941 87.6866 49.4183 87.6866 48.4772V47.7582C87.6866 47.536 87.6866 47.3268 87.6082 47.183C89.5559 49.5752 93.5428 51.3791 102.079 51.0915C102.732 51.0915 103.307 50.5164 103.242 49.8628C103.242 49.2092 102.667 48.634 102.013 48.6994C89.203 49.1308 88.5494 44.9347 87.9742 41.2485C87.8304 40.4511 87.752 39.7975 87.5428 39.0785C87.3206 37.9151 86.2357 35.889 82.9808 35.8237C80.0919 35.7452 78.9285 38.072 78.7063 39.3008V39.523V45.17C78.7063 46.3988 77.7651 47.3399 76.5364 47.3399H75.6736C74.4449 47.3399 73.5037 46.3988 73.5037 45.17V33.8106C73.5037 32.5818 74.4449 31.6407 75.6736 31.6407H95.5951C95.8173 31.6407 101.098 31.4184 102.615 36.1243C102.758 36.6341 103.268 36.987 103.778 36.987L124.771 35.8106C125.425 35.8106 126 35.2354 126 34.5818C126 33.9282 125.425 33.3531 124.771 33.3531L104.562 34.5295C102.615 30.0459 97.8303 29.1047 95.4513 29.1701ZM85.3076 59.4183C86.3272 59.4183 87.1115 60.2157 87.1115 61.2222V61.9411C87.1115 62.9607 86.3141 63.745 85.3076 63.745H72.1312C71.1116 63.745 70.3272 62.9477 70.3272 61.9411V61.2222C70.3272 60.2026 71.1246 59.4183 72.1312 59.4183H85.3076ZM84.3794 52.6209C85.3991 52.6209 86.1834 53.4183 86.1834 54.4248V55.1438C86.1834 56.1634 85.386 56.9477 84.3794 56.9477H70.1965C69.1769 56.9477 68.3926 56.1503 68.3926 55.1438V54.4248C68.3926 53.4052 69.19 52.6209 70.1965 52.6209H84.3794ZM81.1115 43.4314V39.523C81.1899 39.3792 81.2553 39.157 81.3337 39.0132C81.4121 39.0132 81.556 39.0916 81.6213 39.0916H83.3598C84.3794 39.0916 85.1638 39.889 85.1638 40.8955V41.6145C85.1638 42.6341 84.3664 43.4184 83.3598 43.4184H81.1115V43.4314ZM71.1246 45.8105C71.4907 47.9804 73.373 49.6406 75.6867 49.6406H76.5494C78.7978 49.6406 80.6801 47.9804 81.1115 45.8105H83.4252C84.4448 45.8105 85.2291 46.6079 85.2291 47.6144V48.3334C85.2291 49.353 84.4317 50.1373 83.4252 50.1373H69.1639C68.1443 50.1373 67.36 49.3399 67.36 48.3334V47.6144C67.36 46.5948 68.1573 45.8105 69.1639 45.8105H71.1246ZM71.0593 39.0916V43.4314H69.1769C68.2357 43.353 67.373 42.5687 67.373 41.6275V40.9086C67.373 39.889 68.1704 39.1047 69.1769 39.1047H71.0593V39.0916Z" fill="black"/>
<path d="M22.745 34.5295L1.22877 33.3531C0.575179 33.3531 0 33.9282 0 34.5818C0 35.2354 0.575179 35.8106 1.22877 35.8106L23.5293 36.987C24.0391 36.987 24.5489 36.621 24.6927 36.1243C26.209 31.4184 31.49 31.6407 31.7122 31.6407H51.6075C52.8363 31.6407 53.7775 32.5818 53.7775 33.8106V45.17C53.7775 46.3988 52.8363 47.3399 51.6075 47.3399H50.7448C49.516 47.3399 48.5749 46.3988 48.5749 45.17V39.523V39.3008C48.3527 38.072 47.2024 35.7583 44.3004 35.8237C41.0455 35.9021 39.9605 37.9282 39.7383 39.0785C39.5161 39.7975 39.4507 40.4511 39.3069 41.2485C38.7318 44.9347 38.0782 49.1308 25.2678 48.6994C24.6142 48.621 24.0391 49.2092 24.0391 49.8628C23.9607 50.5164 24.5489 51.0915 25.2025 51.0915C33.7384 51.3791 37.7253 49.5752 39.673 47.183C39.5945 47.3268 39.5946 47.5491 39.5946 47.7582V48.4772C39.5946 49.4183 39.9605 50.2811 40.4573 51.0131C39.3723 51.732 38.6534 53.0392 38.6534 54.4902V55.2091C38.6534 56.1503 39.0194 57.0131 39.5161 57.7451C38.4311 58.464 37.7122 59.7712 37.7122 61.2222V61.9411C37.7122 62.3725 37.7906 62.8039 37.9344 63.2483H29.0325L18.392 58.1765C18.3398 58.1503 18.3006 58.1372 18.2483 58.1242C18.0783 58.0588 17.8823 58.0196 17.6862 58.0457L1.29413 60.4248C0.65361 60.4771 0.16994 61.0261 0.16994 61.6536C0.16994 61.6928 0.16994 61.732 0.16994 61.7712C0.235299 62.4509 0.836596 62.9477 1.50326 62.8954L17.647 60.5294L28.1305 65.562C28.2743 65.6405 28.4181 65.7058 28.6404 65.7058H39.9998C40.5749 66.0718 41.2285 66.2156 41.9475 66.2156H55.1238C57.516 66.2156 59.3984 64.3333 59.4637 62.0196V61.3006C59.4637 60.5032 59.2415 59.7843 58.8885 59.1307C60.4049 58.4771 61.4245 56.9608 61.4245 55.2222V54.5033C61.4245 53.5621 61.0585 52.6994 60.5617 51.9673C61.6467 51.2484 62.3657 49.9412 62.3657 48.4902V47.7713C62.3657 46.5425 61.8559 45.5229 61.0585 44.7256C61.8559 43.9282 62.3657 42.8432 62.3657 41.6798V40.9609C62.3657 38.5687 60.418 36.6864 58.0912 36.6864H56.248V33.7975C56.248 31.2616 54.1435 29.1701 51.6206 29.1701H31.8691C29.477 29.1047 24.6927 30.0459 22.745 34.5295ZM55.1631 59.4183C56.1696 59.4183 56.967 60.2157 56.967 61.2222V61.9411C56.967 62.9477 56.1696 63.745 55.1631 63.745H41.9998C40.9932 63.745 40.1958 62.9477 40.1958 61.9411V61.2222C40.1958 60.2157 40.9932 59.4183 41.9998 59.4183H55.1631ZM57.1238 52.6209C58.1304 52.6209 58.9278 53.4183 58.9278 54.4248V55.1438C58.9278 56.1503 58.1304 56.9477 57.1238 56.9477H42.9409C41.9344 56.9477 41.137 56.1503 41.137 55.1438V54.4248C41.137 53.4183 41.9344 52.6209 42.9409 52.6209H57.1238ZM43.9474 43.4314C42.9409 43.4314 42.1436 42.6341 42.1436 41.6275V40.9086C42.1436 39.902 42.9409 39.1047 43.9474 39.1047H45.686C45.7644 39.1047 45.9082 39.0262 45.9736 39.0262C46.052 39.17 46.1174 39.3922 46.1958 39.536V43.4445H43.9474V43.4314ZM58.1304 45.8105C59.1369 45.8105 59.9343 46.6079 59.9343 47.6144V48.3334C59.9343 49.3399 59.1369 50.1373 58.1304 50.1373H43.869C42.8625 50.1373 42.0651 49.3399 42.0651 48.3334V47.6144C42.0651 46.6079 42.8625 45.8105 43.869 45.8105H46.1827C46.6141 47.9804 48.4964 49.6406 50.7448 49.6406H51.6075C53.9213 49.6406 55.8036 47.9804 56.1696 45.8105H58.1304ZM58.1304 39.0916C59.1369 39.0916 59.9343 39.889 59.9343 40.8955V41.6145C59.9343 42.5556 59.0715 43.353 58.1304 43.4184H56.248V39.0785H58.1304V39.0916Z" fill="black"/>
<path d="M62.8752 25.7842C62.1562 25.7842 61.5811 25.2091 61.5811 24.4901V12.2941C61.5811 11.5752 62.1562 11 62.8752 11C63.5941 11 64.1693 11.5752 64.1693 12.2941V24.4901C64.1693 25.2091 63.5941 25.7842 62.8752 25.7842Z" fill="black"/>
<path d="M70.7968 25.7845C70.653 25.7845 70.4962 25.7583 70.3524 25.706C69.6857 25.4577 69.3328 24.7256 69.5811 24.0459L71.9602 17.4969C72.2086 16.8303 72.9406 16.4773 73.6203 16.7257C74.287 16.974 74.6399 17.7061 74.3916 18.3858L72.0125 24.9348C71.8164 25.4577 71.3197 25.7845 70.7968 25.7845Z" fill="black"/>
<path d="M54.9537 25.7845C54.4309 25.7845 53.9341 25.4577 53.738 24.9348L51.359 18.3858C51.1106 17.7191 51.4635 16.974 52.1302 16.7257C52.7969 16.4773 53.542 16.8303 53.7903 17.4969L56.1694 24.0459C56.4177 24.7126 56.0648 25.4577 55.3982 25.706C55.2544 25.7583 55.1106 25.7845 54.9537 25.7845Z" fill="black"/>
<path d="M62.8752 70.5293C62.1562 70.5293 61.5811 71.1044 61.5811 71.8234V84.0194C61.5811 84.7384 62.1562 85.3135 62.8752 85.3135C63.5941 85.3135 64.1693 84.7384 64.1693 84.0194V71.8234C64.1693 71.1175 63.5941 70.5293 62.8752 70.5293Z" fill="black"/>
<path d="M70.7968 70.5293C70.653 70.5293 70.4962 70.5554 70.3524 70.6077C69.6857 70.8561 69.3328 71.5881 69.5811 72.2678L71.9602 78.8168C72.2086 79.4835 72.9406 79.8364 73.6203 79.5881C74.287 79.3397 74.6399 78.6077 74.3916 77.9279L72.0125 71.379C71.8164 70.8561 71.3197 70.5293 70.7968 70.5293Z" fill="black"/>
<path d="M54.9537 70.5293C54.4309 70.5293 53.9341 70.8561 53.738 71.379L51.359 77.9279C51.1106 78.5946 51.4635 79.3397 52.1302 79.5881C52.7969 79.8364 53.542 79.4835 53.7903 78.8168L56.1694 72.2678C56.4177 71.6012 56.0648 70.8561 55.3982 70.6077C55.2544 70.5554 55.1106 70.5293 54.9537 70.5293Z" fill="black"/>
</svg>
