<svg width="48" height="48" viewBox="0 0 48 48" fill="none" xmlns="http://www.w3.org/2000/svg">
<path d="M46.9989 17.731L47.0483 17.9167H47.0484C49.1335 26.0446 46.4977 35.0193 40.1155 40.7532L40.1149 40.7537C33.2297 46.977 23.259 48.5803 14.6456 45.1102L14.5667 45.0784L14.4847 45.1014C12.8846 45.55 11.2614 45.9763 9.63574 46.4032L9.63474 46.4035C8.01061 46.83 6.38413 47.2571 4.78019 47.7068C4.3587 47.8191 3.81485 47.7075 3.39451 47.4258C2.9772 47.1461 2.73235 46.7372 2.80415 46.2794L2.80467 46.2757C3.03383 44.6566 3.24003 43.0377 3.44598 41.4209L3.44609 41.42C3.65215 39.8023 3.85796 38.1866 4.08659 36.5712L4.09974 36.4782L4.04846 36.3996C-1.75005 27.5085 -0.843232 15.7731 6.31265 7.95074L6.31348 7.94983C12.1099 1.55054 21.2637 -1.12015 29.6931 0.926259C38.12 2.97208 44.8251 9.55357 46.9989 17.731ZM40.5809 35.7807V35.8185L41.0373 35.1513C45.5786 28.5113 45.8583 19.7782 41.5923 12.9526L41.592 12.9521C37.4198 6.30933 29.3584 2.49151 21.2968 3.58179C13.5114 4.49225 6.65409 10.038 4.24258 17.4098C2.85111 21.5973 2.94464 26.2369 4.42751 30.4206L4.42738 30.4206L4.43038 30.4283C4.89119 31.604 5.44491 32.7823 6.0923 33.8724C6.23607 34.1534 6.40192 34.4085 6.56235 34.6447C6.60476 34.7071 6.64642 34.7677 6.68717 34.8269C6.80268 34.9949 6.91094 35.1524 7.00849 35.3113C7.16235 35.6178 7.20518 35.9505 7.19455 36.305C7.18649 36.5741 7.14915 36.8382 7.11088 37.109C7.09711 37.2063 7.08323 37.3045 7.07054 37.4042C6.93324 38.4821 6.79594 39.5375 6.65858 40.5934C6.52124 41.6492 6.38385 42.7053 6.24645 43.784L6.1988 44.1581L6.56194 44.0563C7.84157 43.6975 9.12151 43.3611 10.4037 43.024L10.405 43.0237C11.6816 42.6881 12.9605 42.3519 14.2397 41.9934C14.732 41.9156 15.1328 41.9977 15.4493 42.153L15.5014 42.1786H15.5594H15.598C24.3387 46.0426 34.9029 43.3004 40.5809 35.7807Z" fill="#5F5CF4" stroke="#222222" stroke-width="0.5"/>
<path d="M36.5579 26.7629L36.5577 26.7631L36.5681 26.7702C37.4208 27.356 37.9247 28.2698 37.9247 29.2598V29.2704L37.9255 29.281C38.0102 30.2778 37.5855 31.2849 36.9008 31.9568L33.3297 35.4612L33.3296 35.4611L33.3232 35.4678C32.1867 36.6689 30.5163 37.2766 28.9266 37.2766C27.951 37.2766 26.9863 37.1031 26.0229 36.5874L26.0224 36.5871C22.8366 34.89 19.8349 32.7472 17.2897 30.2495C14.7437 27.751 12.5621 24.8965 10.835 21.6858C9.60276 19.2647 10.0453 16.3297 11.9789 14.4322L15.55 10.9278C16.2348 10.2558 17.2636 9.83674 18.2846 9.92023L18.2948 9.92106H18.305C19.3196 9.92106 20.2524 10.4184 20.8484 11.2539L20.8482 11.2541L20.8544 11.262L24.0568 15.3923C24.9022 16.5567 24.8104 18.1225 23.8069 19.1073L22.6166 20.2754L22.4747 20.4147L22.5784 20.5843C23.1331 21.4915 23.7864 22.4093 24.5394 23.1483L24.5447 23.1534L24.5502 23.1583C25.3821 23.8839 26.2188 24.5231 27.1515 25.0723L27.3167 25.1695L27.4535 25.0353L28.6438 23.8671C29.6589 22.871 31.2593 22.7094 32.4365 23.6171L32.4375 23.6179L36.5579 26.7629ZM34.6871 29.7977L34.762 29.7242V29.6193V29.4395C34.762 29.3724 34.7441 29.3054 34.7045 29.2471C34.6661 29.1906 34.6171 29.1565 34.5764 29.1365C34.5594 29.1281 34.543 29.1218 34.5278 29.117L30.8183 26.2758L30.6461 26.1439L30.4912 26.2958L29.2093 27.5538C28.3653 28.3821 27.1086 28.6247 26.0217 28.0504L26.0217 28.0503L26.015 28.047C24.5792 27.3425 23.3187 26.3716 22.2343 25.3074C21.1498 24.2432 20.1608 23.0065 19.4434 21.5984L19.4435 21.5983L19.4398 21.5916C18.8573 20.5299 19.1031 19.2152 19.9416 18.3893L21.1282 17.3145L21.2999 17.1589L21.1578 16.9759L18.2758 13.2638C18.2708 13.2287 18.2551 13.1581 18.1939 13.0981C18.1262 13.0316 18.0461 13.0212 18.0188 13.0182C17.9916 13.0152 17.9612 13.0153 17.9433 13.0153C17.9417 13.0153 17.9401 13.0153 17.9387 13.0153H17.8472H17.745L17.672 13.0869L14.101 16.5913C13.1056 17.5682 12.9062 19.0347 13.504 20.2079L13.5039 20.208L13.5069 20.2135C15.0747 23.1096 17.0123 25.7357 19.4118 28.0904C21.8112 30.4451 24.487 32.3463 27.4375 33.8845L27.4375 33.8846L27.4429 33.8872C28.6332 34.4713 30.1218 34.2778 31.1161 33.3021L34.6871 29.7977Z" fill="#5F5CF4" stroke="#222222" stroke-width="0.5"/>
</svg>
