<svg width="50" height="43" viewBox="0 0 50 43" fill="none" xmlns="http://www.w3.org/2000/svg">
<path d="M46.8806 3.05554L3.63792 19.0633L11.5874 23.0021L11.5892 23.0012C11.8311 23.1213 11.9802 23.3543 12.003 23.6052L14.3592 36.5661L18.481 29.2158L18.4801 29.2154C18.6827 28.8542 19.1399 28.7257 19.501 28.9279C19.5787 28.9716 19.6461 29.027 19.701 29.0908L31.0361 40.2665L46.8804 3.05574L46.8806 3.05554ZM43.532 2.69796L47.952 1.06188C48.1342 0.983305 48.3467 0.976162 48.5435 1.06009C48.9248 1.22214 49.102 1.66275 48.94 2.044L48.9382 2.04311L32.0036 41.8139C31.9683 41.917 31.9099 42.0143 31.8282 42.0969C31.5375 42.392 31.0626 42.3951 30.7675 42.1045L30.7688 42.1031L19.3073 30.8033L14.6676 39.0769C14.5658 39.2823 14.3721 39.4385 14.1292 39.4823C13.7216 39.5564 13.3315 39.2858 13.2574 38.8787L13.26 38.8765L10.5877 24.1773L1.46424 19.6568C1.27763 19.58 1.12228 19.4282 1.04684 19.2238C0.903091 18.8354 1.1013 18.4037 1.48969 18.26H1.49237L43.5317 2.69793L43.532 2.69796Z" fill="#5F5CF4" stroke="#5F5CF4"/>
<path d="M10.8744 23.028C10.5186 23.2382 10.4003 23.6976 10.6105 24.0534C10.8208 24.4092 11.2802 24.5275 11.636 24.3173L48.6296 2.39534C48.9854 2.18508 49.1037 1.72571 48.8934 1.36991C48.6832 1.01411 48.2238 0.895812 47.868 1.10607L10.8744 23.028Z" fill="#5F5CF4" stroke="#5F5CF4"/>
<path d="M48.7651 2.2919C49.0642 2.00708 49.0762 1.53343 48.7914 1.23433C48.5066 0.935228 48.0329 0.923171 47.7338 1.20799L18.6178 29.0395C18.3187 29.3243 18.3066 29.798 18.5914 30.0971C18.8762 30.3962 19.3499 30.4083 19.649 30.1234L48.7651 2.2919Z" fill="#5F5CF4" stroke="#5F5CF4"/>
</svg>
