<svg width="48" height="48" viewBox="0 0 48 48" fill="none" xmlns="http://www.w3.org/2000/svg">
<path d="M1.1729 10.209C1.09247 11.0099 1.43508 11.7951 2.07726 12.2798C2.53596 12.6594 3.03683 12.9842 3.5703 13.2477C4.379 13.6855 5.17287 14.1329 6.0208 14.5055C7.84086 15.289 9.70076 15.9755 11.593 16.5624C12.0495 16.7081 12.5069 16.8507 12.9656 16.9903H12.966C12.0386 16.879 11.1055 16.822 10.1712 16.8194L10.1199 16.792C8.74432 16.0577 7.15989 15.8116 5.62644 16.0946L5.54079 16.1142C5.66557 16.1268 5.60905 16.1351 5.36861 16.142L5.11339 16.209V16.2085C4.90642 16.2698 4.70382 16.3433 4.50599 16.4294C4.12295 16.6038 3.78077 16.8568 3.50208 17.172C3.11381 17.6164 2.89729 18.1851 2.8912 18.775C2.38511 19.1768 1.95467 19.6659 1.62121 20.2194C0.854685 21.5994 0.794247 23.2625 1.45817 24.6947C1.64251 25.0986 1.85556 25.489 2.0947 25.8629C2.3434 26.2473 2.61514 26.6164 2.90862 26.9677C3.51384 27.6882 4.18863 28.3474 4.9238 28.9352C6.38212 30.0752 7.95686 31.0578 9.6221 31.8661C10.5095 32.3195 11.4147 32.743 12.3369 33.1365L12.1565 33.2361V33.2365C11.593 33.573 11.1361 34.0626 10.8382 34.6478C10.5408 35.2331 10.4147 35.8909 10.4747 36.5448C10.6895 37.6483 11.4517 38.567 12.4969 38.9814C13.5843 39.484 14.7513 39.7931 15.9452 39.8949C16.9486 40.0301 17.966 40.0349 18.9709 39.9092C20.3474 39.7014 21.6901 39.3088 22.9617 38.7431C24.1008 38.2765 25.1347 37.5861 26.0026 36.7135C26.7365 36.7631 27.4726 36.7531 28.2047 36.6844C29.7217 36.5692 31.1669 35.9909 32.3443 35.0279C33.0165 34.5596 33.4347 33.8069 33.4774 32.9887C33.52 32.1705 33.1822 31.3787 32.5617 30.8431C32.4121 30.6853 32.2574 30.5331 32.0974 30.3875C32.2721 29.6766 32.3452 28.9444 32.3147 28.2127C32.2078 26.627 31.7608 25.0831 31.0047 23.6848C30.6099 22.9 30.1599 22.1439 29.6586 21.4226C32.2525 22.4696 34.7612 23.6913 37.3273 24.7883C38.9599 25.54 40.6543 26.15 42.3916 26.6109C42.9512 26.743 43.4899 26.9196 44.0451 27.0604C44.6964 27.2257 45.7677 27.2583 46.0903 26.2944C46.2825 25.9113 46.1977 25.4478 45.8829 25.1574C44.3372 23.9426 42.5964 23.0004 40.7342 22.3704C38.8794 21.7013 36.9794 21.1299 35.0637 20.6017C32.909 20.0069 30.7381 19.4512 28.5663 18.8965C28.1937 18.7769 27.8189 18.6608 27.4423 18.5491C26.5897 17.5582 25.6541 16.6421 24.6458 15.8104C21.6845 13.3726 18.3579 11.4156 14.7884 10.0112C11.9392 8.86898 8.9205 8.20593 5.85482 8.0481C4.66998 7.90419 3.46866 8.08462 2.37876 8.57028C1.74268 8.89854 1.29701 9.50463 1.17266 10.209L1.1729 10.209ZM6.00254 20.2634L5.98167 20.2412H5.98211C5.70601 19.9447 5.45819 19.6234 5.24079 19.2812C5.49819 19.1843 5.75558 19.0995 5.9921 19.0286V19.0291C6.77037 18.7925 7.57085 18.6365 8.38082 18.563C8.72039 18.5347 9.05865 18.5173 9.39474 18.5104C9.5617 18.6073 9.72431 18.7099 9.88084 18.8204V18.8199C10.1013 18.976 10.3117 19.1452 10.5113 19.3269L10.7169 19.5239L11.0069 19.8669H11.0065C11.3991 20.3608 11.693 20.9256 11.8722 21.5303C12.17 22.4251 12.373 23.3486 12.4778 24.2856C11.4648 23.8717 10.4796 23.3939 9.52734 22.8551C8.72994 22.3964 7.96473 21.8838 7.2369 21.3217C6.92646 21.0817 6.61777 20.8343 6.32559 20.5721L6.11037 20.3703L6.00254 20.2634ZM14.0608 24.8947C14.0656 24.1308 14.103 23.3677 14.043 22.6121C13.9821 21.7529 13.7721 20.9108 13.423 20.1234C13.1925 19.6103 12.896 19.1295 12.5412 18.6929C12.8095 18.7259 13.0769 18.7633 13.3434 18.8038C14.0512 18.9112 14.7595 19.0381 15.4682 19.1851L15.4687 19.1855C15.486 19.8238 15.6939 20.442 16.0652 20.9612C16.4104 21.5207 16.7939 22.0555 17.2134 22.5621C17.7538 23.1955 18.3513 23.7777 18.9986 24.3012C18.1108 24.0425 17.199 23.8734 16.2769 23.7964C15.9169 23.7942 15.5778 23.966 15.366 24.2573C15.1486 24.5403 15.0721 24.9064 15.1573 25.2525L15.1604 25.2682L14.5621 25.0703L14.0608 24.8947ZM27.0423 24.4217L27.2223 24.5995L27.4093 24.806V24.8065C27.5815 25.0047 27.7393 25.2152 27.8806 25.4365L28.0128 25.6678C27.9593 25.5712 28.0802 25.8278 28.1015 25.8904L28.1549 26.1169L28.158 26.1691L28.1593 26.193L28.1476 26.2552L28.1428 26.2678L28.1284 26.2986L28.0758 26.366L28.0706 26.3726L27.9371 26.4847L27.8154 26.5721L27.5441 26.7117L27.2697 26.826C27.4523 26.7556 27.1449 26.8578 27.138 26.8595L27.1384 26.8591C26.9715 26.9047 26.8019 26.9417 26.631 26.9699C25.4284 26.0521 24.1718 25.2073 22.8683 24.4391C21.3379 23.5573 19.9423 22.4595 18.7248 21.1795C18.3291 20.7156 17.9678 20.2234 17.6444 19.7073C19.72 20.2603 21.7291 21.0395 23.6357 22.0294C24.8744 22.6686 26.0205 23.4734 27.0422 24.4216L27.0423 24.4217ZM25.0432 29.1052L25.6997 29.0739L25.8888 29.2399C26.5201 29.8043 27.0753 30.4486 27.5397 31.1569C27.6519 31.3274 27.7606 31.5 27.8623 31.6774L27.9849 31.9148L27.991 31.9283V31.9287C27.2606 31.8591 26.5436 31.6839 25.8636 31.4078C25.021 31.1291 24.2045 30.7756 23.424 30.3517C22.6806 29.9182 21.9693 29.4326 21.2949 28.8979C22.5366 29.0687 23.7901 29.1383 25.0428 29.1053L25.0432 29.1052ZM26.7671 21.5382L26.6858 21.483C25.834 20.9186 24.9436 20.4151 24.0206 19.9769C24.6319 20.1304 25.2436 20.2826 25.8566 20.4326C26.1693 20.7921 26.4723 21.1608 26.7671 21.5387L26.7671 21.5382ZM10.2149 29.5405C9.59923 29.2218 8.73619 28.727 8.02184 28.2666C7.26618 27.7805 6.54571 27.2422 5.8653 26.6557C5.544 26.377 5.23617 26.0822 4.93965 25.7757L4.79834 25.63L4.61443 25.4278C4.45008 25.2444 4.29443 25.0539 4.14269 24.8596V24.8591C3.88747 24.5348 3.65313 24.1943 3.44181 23.8396L3.32703 23.64L3.23747 23.4591C3.15921 23.2891 3.08964 23.1148 3.02964 22.9374C2.82007 22.403 2.78703 21.8156 2.93486 21.2612L2.9492 21.1808L3.04181 20.9673L3.11921 20.816C3.08573 20.8804 3.18268 20.7138 3.19964 20.6886L3.35964 20.4769L3.51834 20.7543V20.7538C3.78356 21.1812 4.094 21.5791 4.444 21.9408C5.63875 23.133 7.01492 24.1277 8.52188 24.8878C11.2249 26.3004 14.0967 27.3644 17.0676 28.0543C17.2858 28.2622 17.5097 28.4648 17.7332 28.6652H17.7328C19.0197 29.8882 20.4167 30.99 21.9067 31.9553C22.825 32.5166 23.798 32.9823 24.8111 33.3453L24.5494 33.36L23.9015 33.3792C23.432 33.3874 22.9668 33.3735 22.5037 33.3487L22.5041 33.3483C21.6141 33.2974 20.728 33.1927 19.8506 33.0348L19.771 33.0209L19.6954 33.0057L19.3828 32.9435L18.7593 32.8066C18.3106 32.7026 17.8667 32.5857 17.4254 32.4609C16.5802 32.2226 15.751 31.9439 14.934 31.6413C13.3192 31.0383 11.7431 30.3369 10.2149 29.5409L10.2149 29.5405ZM21.7016 37.814C21.0011 38.0683 20.2811 38.2662 19.5494 38.4057C19.2946 38.4566 19.0381 38.4962 18.7842 38.5275L18.7294 38.5336L18.635 38.5414L18.2698 38.5592L18.2702 38.5597C17.195 38.5905 16.1203 38.4931 15.068 38.2705C14.5023 38.1501 13.9497 37.9749 13.4176 37.7479C13.2141 37.6675 13.0202 37.5649 12.8393 37.4418C12.6419 37.3162 12.4576 37.1709 12.2893 37.0079L12.2158 36.927L12.1162 36.7975L11.9584 36.544C12.0041 36.6231 11.8984 36.3788 11.8836 36.3301L11.851 36.2036C11.8736 36.2988 11.8415 36.1022 11.8393 36.0701C11.8354 36.0131 11.8362 35.9544 11.8371 35.897V35.8766L11.841 35.8422H11.8415C11.8589 35.714 11.8849 35.5875 11.9206 35.4631L11.928 35.434L11.9475 35.3831L12.0302 35.1835L12.1123 35.0248C12.058 35.1262 12.1862 34.9235 12.2075 34.8953L12.2971 34.7888C12.2436 34.8501 12.3554 34.7348 12.3776 34.7157L12.5297 34.594L12.5589 34.5714L12.5797 34.5596V34.5601C12.6936 34.4927 12.8115 34.4327 12.9332 34.3809L13.0545 34.3327L13.2671 34.2705C13.4032 34.2335 13.5415 34.207 13.6784 34.1831L13.891 34.1514L14.0319 34.1357V34.1361C14.3254 34.1144 14.6197 34.1096 14.9137 34.1214C16.4446 34.6427 18.0137 35.0444 19.6067 35.3231C20.0241 35.3953 20.4454 35.4553 20.8706 35.5036C21.7158 35.8305 22.5801 36.1057 23.4584 36.3283C23.7537 36.3979 24.0515 36.4592 24.3524 36.5127C23.528 37.0575 22.6372 37.4949 21.7016 37.814ZM31.579 32.247L31.5786 32.2474C31.6742 32.3735 31.7599 32.5065 31.8351 32.6452L31.8694 32.7278L31.9338 32.9248L31.9468 32.9783L31.9564 33.1648L31.9473 33.2218L31.9194 33.3265L31.866 33.4457L31.8529 33.4709L31.8225 33.5139L31.6651 33.7091L31.6633 33.7104L31.5981 33.7726L31.5986 33.7731C31.4438 33.9144 31.279 34.0435 31.1046 34.1596L30.9416 34.2592L30.6881 34.4005C30.5168 34.4905 30.3412 34.5687 30.1647 34.6418C29.8129 34.7796 29.4494 34.8848 29.079 34.957C28.4638 35.0809 27.8373 35.1379 27.2103 35.1274C28.3407 34.8109 29.3869 34.2474 30.2734 33.4774C30.7304 33.0683 31.1195 32.5892 31.4264 32.0583L31.579 32.247ZM30.0885 28.1756C30.1085 28.3483 30.1211 28.5239 30.1303 28.7L30.1368 28.95C29.6789 28.6748 29.2068 28.4209 28.7298 28.1791L28.7289 28.1796C29.0976 27.943 29.4119 27.6304 29.6515 27.2635L29.8228 26.9495C29.9015 27.2182 29.9707 27.493 30.0276 27.7717L30.0537 27.9161L30.0885 28.1756ZM4.05203 10.0841L4.36681 10.0633L4.77812 10.0546C5.06726 10.0528 5.35465 10.0624 5.64073 10.0785C6.06726 10.1019 6.48943 10.1433 6.90983 10.1906H6.9094C10.4155 10.6519 13.806 11.758 16.9095 13.4537C17.5617 13.7954 18.4743 14.3285 19.2017 14.7875C20.0121 15.2997 20.7965 15.8493 21.5569 16.4297C21.8956 16.688 22.2308 16.955 22.5621 17.2306C22.0882 17.1132 21.61 17.0106 21.1225 16.9389C18.0173 16.0862 14.9337 15.1871 11.8929 14.1772H11.8925C10.0081 13.5793 8.15894 12.8771 6.3528 12.0737C5.67627 11.762 5.01146 11.4285 4.3463 11.0968L4.12108 10.9785L3.73282 10.7389C3.60803 10.6572 3.4889 10.5676 3.37586 10.4707L3.28369 10.3846L3.19152 10.2655L3.19326 10.2642L3.24804 10.242L3.32543 10.2189L3.32586 10.2194C3.56369 10.1537 3.80638 10.1085 4.05203 10.0841Z" fill="#222222"/>
</svg>
