<svg width="48" height="48" viewBox="0 0 48 48" fill="none" xmlns="http://www.w3.org/2000/svg">
<path d="M25.6221 22.2325V9.62181C25.6221 9.04226 25.313 8.50686 24.8112 8.21723C24.3095 7.92759 23.6911 7.92759 23.1894 8.21723C22.6877 8.50686 22.3785 9.04232 22.3785 9.62181V22.2325C20.7386 22.6992 19.3846 23.8595 18.6721 25.4083C17.9596 26.9572 17.9596 28.74 18.6721 30.2888C19.3845 31.8377 20.7385 32.9979 22.3785 33.4645V37.5194C22.3785 38.099 22.6877 38.6344 23.1894 38.924C23.6912 39.2137 24.3095 39.2137 24.8112 38.924C25.313 38.6344 25.6221 38.0989 25.6221 37.5194V33.4645C27.2621 32.9979 28.6161 31.8376 29.3286 30.2888C30.0411 28.7399 30.0411 26.9571 29.3286 25.4083C28.6161 23.8594 27.2621 22.6992 25.6221 22.2325ZM24.3247 30.4234H23.6759C22.7942 30.3122 22.0308 29.7578 21.6524 28.954C21.274 28.1501 21.3331 27.2086 21.8091 26.4581C22.2851 25.7081 23.1119 25.2535 24.0003 25.2535C24.8888 25.2535 25.7156 25.708 26.1916 26.4581C26.6676 27.2085 26.7267 28.1501 26.3483 28.954C25.9698 29.7579 25.2064 30.3122 24.3248 30.4234H24.3247Z" fill="#222222"/>
<path d="M12.2408 24.9087V37.5194C12.2408 38.099 12.55 38.6344 13.0517 38.924C13.5535 39.2137 14.1718 39.2137 14.6735 38.924C15.1753 38.6344 15.4844 38.0989 15.4844 37.5194V24.9087C17.1244 24.442 18.4784 23.2818 19.1909 21.733C19.9034 20.1841 19.9034 18.4013 19.1909 16.8525C18.4784 15.3036 17.1244 14.1434 15.4844 13.6767V9.62181C15.4844 9.04226 15.1753 8.50686 14.6735 8.21723C14.1718 7.92759 13.5534 7.92759 13.0517 8.21723C12.55 8.50686 12.2408 9.04232 12.2408 9.62181V13.6767C10.6009 14.1434 9.24687 15.3036 8.53437 16.8525C7.82188 18.4014 7.82188 20.1841 8.53437 21.733C9.24685 23.2819 10.6008 24.4421 12.2408 24.9087ZM13.5385 16.7179H14.1874H14.1871C15.0687 16.829 15.8321 17.3834 16.2106 18.1873C16.589 18.9911 16.5299 19.9327 16.0539 20.6831C15.5778 21.4332 14.7511 21.8878 13.8626 21.8878C12.9742 21.8878 12.1474 21.4332 11.6714 20.6831C11.1954 19.9327 11.1362 18.9911 11.5147 18.1873C11.8931 17.3834 12.6566 16.829 13.5382 16.7179H13.5385Z" fill="#222222"/>
<path d="M35.7593 13.6767V9.62181C35.7593 9.04226 35.4502 8.50686 34.9484 8.21723C34.4467 7.92759 33.8284 7.92759 33.3266 8.21723C32.8249 8.50686 32.5157 9.04232 32.5157 9.62181V13.6767C30.8758 14.1434 29.5218 15.3036 28.8093 16.8525C28.0968 18.4014 28.0968 20.1841 28.8093 21.733C29.5218 23.2819 30.8757 24.4421 32.5157 24.9087V37.5194C32.5157 38.099 32.8249 38.6344 33.3266 38.924C33.8284 39.2137 34.4467 39.2137 34.9484 38.924C35.4502 38.6344 35.7593 38.0989 35.7593 37.5194V24.9087C37.3993 24.442 38.7533 23.2818 39.4658 21.733C40.1783 20.1841 40.1783 18.4013 39.4658 16.8525C38.7533 15.3036 37.3993 14.1434 35.7593 13.6767ZM34.1375 21.8676C33.2103 21.9256 32.3228 21.4843 31.8089 20.7105C31.2952 19.9366 31.2333 18.9472 31.6468 18.1154C32.0603 17.2835 32.8859 16.7353 33.8131 16.6774H34.462C35.3892 16.7354 36.2148 17.2835 36.6283 18.1154C37.0418 18.9472 36.9799 19.9366 36.4662 20.7105C35.9523 21.4844 35.0647 21.9256 34.1375 21.8676Z" fill="#222222"/>
<circle cx="13.5" cy="19.5" r="3.5" fill="#222222"/>
<circle cx="23.5" cy="27.5" r="3.5" fill="#222222"/>
<circle cx="34.5" cy="19.5" r="3.5" fill="#222222"/>
</svg>
