<svg xmlns="http://www.w3.org/2000/svg" width="74" height="138" fill="#666" xmlns:v="https://vecta.io/nano"><path d="M5.899 0c3.178 0 5.754 2.488 5.754 5.556s-2.577 5.556-5.754 5.556S.144 8.624.144 5.556 2.721 0 5.899 0zm15.316 0c3.178 0 5.754 2.488 5.754 5.556s-2.577 5.556-5.754 5.556-5.754-2.488-5.754-5.556S18.037 0 21.215 0zm15.316 0c3.178 0 5.754 2.488 5.754 5.556s-2.576 5.556-5.754 5.556-5.754-2.488-5.754-5.556S33.353 0 36.531 0zm15.316 0c3.179 0 5.755 2.488 5.755 5.556s-2.577 5.556-5.755 5.556-5.754-2.488-5.754-5.556S48.669 0 51.847 0zm15.316 0c3.179 0 5.755 2.488 5.755 5.556s-2.577 5.556-5.755 5.556-5.754-2.488-5.754-5.556S63.986 0 67.163 0zM21.645 94.175c2.888 3.442 8.416 5.689 17.394 5.242-2.939-.858-5.706-2.899-7.976-5.589l-9.418.347zm-2.313-9.594c-.556 3.214-.037 6.42 1.87 9.03l9.406-.338c-1.704-2.149-3.097-4.667-4.025-7.305l-3.177-.558c-1.36-.255-2.719-.531-4.074-.828zm.986-3.409a16.8 16.8 0 0 0-.876 2.841l4.078.829 2.856.505c-.399-1.24-.695-2.502-.871-3.761a136.25 136.25 0 0 1-5.188-.415zm2.785-4.736c-1.036 1.301-1.896 2.715-2.549 4.181 1.658.162 3.283.29 4.878.388-.172-1.557-.159-3.102.072-4.589l-2.401.02zm3.315-3.292c-1.04.811-1.99 1.727-2.838 2.714l2.027-.022c.181-.927.448-1.829.811-2.693zM11.586 51.768c2.793-2.189 6.172-3.791 10.051-4.558 11.276-2.229 18.938 1.246 21.043 5.277a136.16 136.16 0 0 1-5.007.382 130.81 130.81 0 0 1-26.088-1.101zm-6.202 7.477a23.08 23.08 0 0 1 5.592-6.981 131.4 131.4 0 0 0 26.732 1.181 135.29 135.29 0 0 0 5.226-.402c.917 2.344-.039 4.795-3.239 6.369l-.44.076c-11.137 1.89-22.282 1.775-33.871-.243zm-2.398 15.2c-.844-5.122-.047-10.241 2.124-14.663 10.763 1.892 21.143 2.151 31.486.702-8.012 2.067-16.439 7.769-20.783 15.185a151.68 151.68 0 0 1-12.827-1.225zm.864 3.582a25.42 25.42 0 0 1-.758-2.983c4.176.57 8.302.968 12.403 1.187-.638 1.156-1.175 2.351-1.597 3.579A163.13 163.13 0 0 1 3.85 78.027zm.723 1.978c-.184-.447-.355-.896-.512-1.346a162.83 162.83 0 0 0 9.655 1.707 19.79 19.79 0 0 0-.54 2.138 177.82 177.82 0 0 1-8.602-2.498zm9.206 11.845c-4.189-3.292-7.112-7.127-8.906-11.144 2.724.855 5.457 1.648 8.2 2.368-.458 2.822-.282 5.773.707 8.776zm59.327-59.243V20.035c0-2.442-2.07-4.439-4.598-4.439h-8.736-3.764-38.911-3.764-8.735C2.069 15.596 0 17.594 0 20.035v4.148c11.773 5.183 23.754 8.46 35.939 9.856s24.573.911 37.167-1.432zM0 50.197v5.087a29.51 29.51 0 0 1 1.953-2.971 29.47 29.47 0 0 1 1.148-1.44L0 50.197zm0-7.5v6.907l3.536.768c1.749-1.969 3.741-3.679 5.929-5.105-3.117-.663-6.27-1.516-9.464-2.571zm73.106-7.84v-1.662c-12.614 2.336-25.028 2.816-37.236 1.418C23.708 33.22 11.751 29.962.001 24.818v11.877 3.634 1.76a88.69 88.69 0 0 0 10.167 2.737c3.059-1.873 6.476-3.206 10.131-3.928 6.653-1.316 14.087-1.251 20.328 1.596 1.329.606 2.612 1.363 3.778 2.252 9.823-1.981 19.351-5.482 28.702-9.887zM46.448 81.133c6.445 5.82 18.942 5.284 24.213-4.521-7.68 1.909-15.56 3.612-24.213 4.521zm-3.649-6.095c.526 2.199 1.625 4.069 3.101 5.571 8.998-.91 17.154-2.689 25.108-4.678 1.095-2.27 1.823-4.996 2.031-8.217-10.497 3.514-20.46 5.939-30.24 7.324zm6.761-17.27c-1.596 6.754-7.019 5.056-7.113 14.094a13.23 13.23 0 0 0 .231 2.61c9.824-1.389 19.838-3.833 30.397-7.381.018-.433.03-.874.03-1.324v-17.41c-8.003 4.129-15.804 7.255-23.545 9.412zm.091-5.536a10.55 10.55 0 0 1 .237 3.537c-.05.486-.115.938-.194 1.36 7.695-2.168 15.45-5.3 23.411-9.426v-.691c-7.768 2.293-15.555 4.079-23.454 5.22zm23.454-15.54v-1.194c-9.16 4.297-18.492 7.726-28.112 9.715 2.102 1.745 3.755 3.937 4.507 6.459 7.949-1.145 15.786-2.946 23.605-5.263v-6.082-3.634zM40.969 93.147c2.148 1.039 4.572 1.625 7.137 1.625 3.807 0 7.301-1.288 10.043-3.437a21.84 21.84 0 0 1-1.958.089 21.92 21.92 0 0 1-2.987-.204l.046.212c-3.62.744-7.759 1.3-12.281 1.716zm-6.733-6.169c1.382 2.345 3.384 4.305 5.79 5.673 4.457-.389 8.553-.906 12.161-1.599-3.16-.592-6.065-1.871-8.543-3.67l-.002.149a113.54 113.54 0 0 1-9.406-.554zm-1.878-5.157c.267 1.611.792 3.139 1.534 4.542a113.68 113.68 0 0 0 9.17.583 20.55 20.55 0 0 1-4.734-5.222 126.48 126.48 0 0 1-5.97.097zm.154-5.704c-.234 1.049-.356 2.137-.356 3.253a14.84 14.84 0 0 0 .118 1.872c1.946.015 3.848-.014 5.711-.084-.96-1.641-1.69-3.422-2.146-5.307l-3.326.265zm2.808-5.954a15.13 15.13 0 0 0-2.664 5.366l3.053-.245c-.275-1.306-.42-2.658-.42-4.044a19.16 19.16 0 0 1 .03-1.077zM.316 124.378h5.151c.756 0 1.432.105 2.026.315s1.098.507 1.513.892.732.844.955 1.378a4.57 4.57 0 0 1 .333 1.774v.036c0 .732-.132 1.375-.396 1.927a3.94 3.94 0 0 1-1.09 1.388 4.72 4.72 0 0 1-1.62.837c-.618.186-1.282.279-1.99.279H3.091v3.782H.317v-12.608H.316zm4.971 6.358c.697 0 1.237-.184 1.621-.55a1.8 1.8 0 0 0 .576-1.36v-.036c0-.624-.201-1.098-.603-1.422s-.951-.487-1.648-.487H3.09v3.854h2.197v.001zm5.721-6.358H20.5v2.468h-6.754v2.557h5.943v2.467h-5.943v2.648h6.843v2.467h-9.581v-12.607zm10.728 0h2.557l5.907 7.763v-7.763h2.737v12.607h-2.359l-6.105-8.014v8.014h-2.737v-12.607zm15.789 0h-2.774v12.607h2.774v-12.607zm7.721 12.824c-.925 0-1.782-.168-2.575-.504a6.31 6.31 0 0 1-2.053-1.378c-.576-.583-1.026-1.27-1.351-2.062a6.64 6.64 0 0 1-.487-2.539v-.036c0-.901.163-1.745.487-2.531a6.5 6.5 0 0 1 1.351-2.071c.577-.594 1.267-1.062 2.072-1.404s1.692-.514 2.665-.514c.588 0 1.126.047 1.613.144s.928.228 1.324.396a5.78 5.78 0 0 1 1.099.613 7.35 7.35 0 0 1 .936.792l-1.765 2.036c-.492-.445-.994-.793-1.504-1.045a3.83 3.83 0 0 0-1.72-.378 3.51 3.51 0 0 0-1.467.306 3.46 3.46 0 0 0-1.161.847 3.91 3.91 0 0 0-.757 1.252 4.23 4.23 0 0 0-.27 1.521v.037a4.32 4.32 0 0 0 .27 1.53 3.99 3.99 0 0 0 .747 1.261c.318.36.702.645 1.153.855s.946.315 1.485.315c.721 0 1.33-.132 1.828-.396s.994-.624 1.486-1.081l1.764 1.783a9.11 9.11 0 0 1-1.008.936c-.348.277-.73.514-1.144.712s-.867.348-1.359.45-1.044.153-1.657.153zm6.045-12.824h2.774v4.989h5.115v-4.989h2.773v12.607H59.18v-5.06h-5.114v5.06h-2.774v-12.607zm12.349 0h9.491v2.468h-6.754v2.557h5.943v2.467h-5.943v2.648h6.844v2.467H63.64v-12.607zM.316 121.936h.575v-6.994l3.186 4.636h.046l3.186-4.636v6.994h.598v-8.052h-.563l-3.233 4.762-3.232-4.762H.316v8.052zm12.306.127c1.955 0 3.301-1.231 3.301-3.543v-4.636h-.598v4.705c0 1.944-1.047 2.933-2.68 2.933-1.702 0-2.726-1.092-2.726-2.99v-4.648H9.32v4.705c-.001 2.255 1.368 3.474 3.301 3.474zm4.711-.127h.575v-7.154l5.671 7.154h.448v-8.052h-.575v7.005l-5.556-7.005h-.564v8.052zm8.911-8.052h-.598v8.053h.598v-8.053zm5.265 8.191c1.426 0 2.346-.564 3.198-1.404l-.403-.391c-.816.805-1.61 1.254-2.772 1.254-1.921 0-3.405-1.587-3.405-3.624v-.023c0-2.023 1.461-3.6 3.394-3.6 1.208 0 2.013.506 2.714 1.184l.425-.437c-.828-.759-1.691-1.288-3.128-1.288-2.323 0-4.026 1.887-4.026 4.164v.023c0 2.313 1.702 4.142 4.003 4.142zm4.148-8.939h.483l1.231-1.185-.702-.344-1.012 1.529zm-.08 8.8h.598v-8.053h-.598v8.053zm2.814-3.554v-3.946h2.278c1.45 0 2.439.667 2.439 1.944v.023c0 1.196-1.013 1.979-2.508 1.979h-2.209zm-.598 3.554h.598v-3.003h2.174c1.68 0 3.14-.874 3.14-2.565v-.023c0-1.553-1.219-2.462-2.99-2.462h-2.922v8.053zm7.507-8.052h-.598v8.053h.598v-8.053zm5.323 7.65c-1.991 0-3.44-1.633-3.44-3.624v-.023c0-1.989 1.426-3.6 3.416-3.6s3.44 1.633 3.44 3.623v.023c0 1.99-1.426 3.601-3.416 3.601zm-.024.541c2.439 0 4.061-1.967 4.061-4.165.011-.012.011-.012 0-.023 0-2.196-1.599-4.14-4.037-4.14s-4.061 1.966-4.061 4.164v.023c0 2.197 1.599 4.141 4.037 4.141zm9.29-.691v-6.948h2.082c2.243 0 3.658 1.565 3.658 3.474v.023c0 1.921-1.415 3.451-3.658 3.451h-2.082zm-.598.552h2.68c2.531 0 4.28-1.76 4.28-4.026v-.023c0-2.265-1.749-4.003-4.28-4.003h-2.68v8.052zm8.142 0h5.785v-.552H68.03v-3.232h4.612v-.552H68.03v-3.164h5.13v-.552h-5.728v8.052z"/></svg>