<svg xmlns="http://www.w3.org/2000/svg" xmlns:xlink="http://www.w3.org/1999/xlink" width="181" height="88" fill="none" xmlns:v="https://vecta.io/nano"><g fill="#666"><path d="M70.784 40.21v1.024l.019 20.958c0 .797-.209 1.024-1.005 1.024l-8.535-.019c-.303 0-.607-.038-1.005-.057V17.203h-5.216v-1.384c5.273-.114 10.621.474 15.704-1.992v3.585c.322-.152.474-.209.626-.303 5.216-3.149 10.602-3.281 16.103-.854l5.292 2.295c.322.133.891.038 1.157-.19 5.462-4.514 11.418-4.818 17.753-2.162 1.195.493 2.333 1.138 3.528 1.593 2.333.91 3.149.455 3.756-1.954h1.062v14.889c-.835.322-1.195.076-1.423-.835-.967-3.793-2.352-7.378-5.026-10.375-3.471-3.869-9.806-4.95-13.922-2.333-2.997 1.897-4.476 5.557-3.604 8.971.55 2.124 1.935 3.66 3.869 4.533 1.916.854 3.945 1.479 5.955 2.105 2.58.816 5.197 1.536 7.796 2.314 5.936 1.802 9.768 6.752 9.938 12.973.171 5.766-2.276 10.299-6.809 13.77-1.232.948-2.579 1.517-4.21 1.366-1.1-.114-2.2-.019-3.319-.095 1.688-.474 3.224-1.176 4.571-2.314 4.153-3.452 4.552-12.101-2.959-15.098-3.168-1.252-6.449-2.2-9.673-3.281L97.66 41.27c.512 1.631 1.176 3.148 1.46 4.723 1.195 6.771-2.162 13.504-8.137 16.729-.455.247-1.005.36-1.536.379-1.384.057-2.788.019-3.85.019 1.176-.664 2.712-1.309 3.945-2.314 4.438-3.547 4.343-12.139-2.523-14.984-3.186-1.328-6.543-2.276-9.825-3.395l-6.411-2.219zm20.332-4.552c0-.171.019-.247 0-.285-1.916-4.305-1.802-8.611-.095-12.954.095-.247.057-.626-.076-.854-2.617-4.647-8.668-6.999-13.637-5.33-5.861 1.954-6.885 8.459-4.78 11.721 1.214 1.878 2.997 2.997 5.045 3.642l13.542 4.059zM65.492 0a5.28 5.28 0 0 1 5.292 5.216c.038 2.864-2.466 5.349-5.33 5.311-2.902-.057-5.216-2.39-5.197-5.311C60.257 2.314 62.571 0 65.492 0zM1.081 77.518v7.15H0v-7.15h1.081zm1.669 7.15v-7.644l5.216 5.462v-4.969h1.081v7.587l-5.216-5.443v5.007H2.75zm11.987-6.088l-.873.512c-.171-.284-.322-.474-.474-.55-.152-.095-.36-.152-.588-.152-.303 0-.55.076-.74.246s-.304.379-.304.626c0 .341.266.626.778.835l.721.284c.588.228 1.005.512 1.271.853s.398.759.398 1.252a2.2 2.2 0 0 1-.664 1.631c-.436.436-.986.645-1.65.645-.626 0-1.138-.19-1.536-.55s-.645-.891-.74-1.555l1.1-.247c.057.417.133.702.266.873.228.303.55.455.967.455a1.12 1.12 0 0 0 .835-.341c.228-.227.341-.512.341-.853 0-.133-.019-.266-.057-.379s-.095-.228-.19-.322a1.16 1.16 0 0 0-.322-.266l-.455-.247-.683-.285c-.986-.417-1.46-1.024-1.46-1.821a1.76 1.76 0 0 1 .607-1.347c.417-.36.929-.55 1.536-.55.816.057 1.441.455 1.916 1.252z"/><use xlink:href="#B"/><path d="M21.888 77.518v7.15h-1.081v-7.15h1.081z"/><use xlink:href="#B" x="7.264"/><use xlink:href="#C"/><use xlink:href="#B" x="18.739"/><path d="M38.958 81.064c0-1.005.36-1.878 1.1-2.598a3.65 3.65 0 0 1 2.655-1.081 3.51 3.51 0 0 1 2.617 1.1 3.54 3.54 0 0 1 1.1 2.617 3.51 3.51 0 0 1-1.1 2.617 3.69 3.69 0 0 1-2.674 1.081c-.929 0-1.745-.322-2.485-.967-.816-.702-1.214-1.631-1.214-2.769zm1.081.019c0 .797.266 1.442.797 1.954a2.54 2.54 0 0 0 1.821.759c.759 0 1.385-.266 1.897-.778.512-.531.778-1.157.778-1.916s-.247-1.404-.759-1.916a2.56 2.56 0 0 0-1.878-.778 2.56 2.56 0 0 0-1.878.778c-.512.512-.778 1.138-.778 1.897zm10.564 3.585v-7.15h1.498c.721 0 1.29.076 1.707.209.455.133.853.379 1.214.702.74.664 1.1 1.555 1.1 2.655s-.379 1.992-1.157 2.674c-.379.341-.797.569-1.214.702-.398.133-.948.19-1.688.19h-1.46v.019zm1.081-1.005h.493c.493 0 .892-.057 1.214-.152a2.72 2.72 0 0 0 .873-.512c.531-.493.797-1.119.797-1.897s-.266-1.422-.797-1.916c-.474-.436-1.176-.645-2.086-.645h-.493v5.121zm9.598-.721h-3.054l-.797 1.745h-1.157l3.547-7.606 3.414 7.606h-1.176l-.778-1.745zm-.436-1.024l-1.062-2.428-1.119 2.428h2.181zm10.109-3.338l-.872.512c-.171-.284-.323-.474-.474-.55-.152-.095-.36-.152-.588-.152-.303 0-.55.076-.74.246s-.303.379-.303.626c0 .341.266.626.778.835l.721.284c.588.228 1.005.512 1.271.853s.398.759.398 1.252a2.2 2.2 0 0 1-.664 1.631c-.436.436-.986.645-1.65.645-.626 0-1.138-.19-1.536-.55s-.645-.891-.74-1.555l1.1-.247c.057.417.133.702.266.873.228.303.55.455.967.455a1.12 1.12 0 0 0 .835-.341c.228-.227.341-.512.341-.853 0-.133-.019-.266-.057-.379s-.095-.228-.19-.322a1.15 1.15 0 0 0-.322-.266l-.455-.247-.683-.285c-.986-.417-1.461-1.024-1.461-1.821a1.76 1.76 0 0 1 .607-1.347c.417-.36.929-.55 1.536-.55.816.057 1.46.455 1.916 1.252zm5.386-.038h-2.864v1.726h2.788v1.005h-2.788v2.39h2.864v1.005h-3.945v-7.15h3.945v1.024zm5.026 2.409h2.959v.228c0 .531-.057 1.005-.19 1.422a3.48 3.48 0 0 1-.626 1.081c-.664.74-1.517 1.119-2.541 1.119-1.005 0-1.859-.36-2.56-1.081-.721-.721-1.062-1.593-1.062-2.617 0-1.043.36-1.916 1.081-2.636a3.62 3.62 0 0 1 2.655-1.081 3.74 3.74 0 0 1 1.574.341c.455.228.91.607 1.366 1.119l-.778.74c-.588-.778-1.309-1.176-2.143-1.176a2.57 2.57 0 0 0-1.897.778c-.512.513-.778 1.157-.778 1.935 0 .797.285 1.46.854 1.973.531.474 1.119.721 1.745.721.531 0 1.005-.171 1.422-.531s.664-.797.702-1.29h-1.783v-1.043z"/><use xlink:href="#C" x="57.545"/><path d="M95.005 81.614l2.219 3.054h-1.328l-2.048-2.921h-.19v2.921h-1.081v-7.15h1.271c.948 0 1.631.171 2.048.531.455.398.702.91.702 1.574 0 .512-.152.948-.436 1.309-.303.36-.683.588-1.157.683zm-1.347-.816h.341c1.024 0 1.536-.398 1.536-1.176 0-.74-.493-1.1-1.498-1.1h-.379v2.276zm8.763 2.144h-3.054l-.797 1.745h-1.157l3.547-7.606 3.414 7.606h-1.176l-.777-1.745zm-.437-1.024l-1.062-2.428-1.119 2.428h2.181zm3.206 2.75v-7.644l5.216 5.462v-4.969h1.081v7.587l-5.216-5.443v5.007h-1.081zm13.296-6.771v1.271c-.626-.531-1.271-.778-1.935-.778-.74 0-1.347.266-1.859.797s-.759 1.176-.759 1.935.247 1.385.759 1.897a2.52 2.52 0 0 0 1.859.778c.379 0 .702-.057.967-.19.152-.057.304-.152.455-.247l.494-.379v1.309c-.626.341-1.271.531-1.954.531a3.62 3.62 0 0 1-2.617-1.062 3.55 3.55 0 0 1-1.082-2.599c0-.91.304-1.726.911-2.428.74-.872 1.707-1.309 2.883-1.309.664-.038 1.29.133 1.878.474zm-1.461 7.757l-1.214 1.422-.683-.36.968-1.479.929.417zm7.151-2.712h-3.054l-.797 1.745h-1.176l3.547-7.606 3.414 7.606h-1.176l-.758-1.745zm-.456-1.024l-1.062-2.428-1.119 2.428h2.181zm10.129-3.338l-.873.512c-.171-.284-.322-.474-.474-.55-.152-.095-.36-.152-.588-.152-.304 0-.55.076-.74.246s-.303.379-.303.626c0 .341.265.626.777.835l.721.284c.588.228 1.005.512 1.271.853s.398.759.398 1.252c0 .664-.227 1.195-.664 1.631s-.986.645-1.65.645c-.626 0-1.138-.19-1.536-.55s-.645-.891-.74-1.555l1.1-.247c.057.417.133.702.266.873.227.303.55.455.967.455.342 0 .607-.114.835-.341a1.16 1.16 0 0 0 .341-.853 1.22 1.22 0 0 0-.057-.379c-.038-.114-.095-.228-.189-.322-.076-.095-.19-.19-.323-.266l-.455-.247-.683-.285c-.986-.417-1.46-1.024-1.46-1.821 0-.531.208-.986.607-1.347.417-.36.929-.55 1.536-.55.815.057 1.441.455 1.916 1.252zm1.062 2.484c0-1.005.36-1.878 1.1-2.598a3.65 3.65 0 0 1 2.655-1.081c1.024 0 1.897.36 2.617 1.1a3.54 3.54 0 0 1 1.101 2.617 3.51 3.51 0 0 1-1.101 2.617 3.69 3.69 0 0 1-2.674 1.081c-.929 0-1.745-.322-2.484-.967-.797-.702-1.214-1.631-1.214-2.769zm1.1.019c0 .797.265 1.442.796 1.954a2.54 2.54 0 0 0 1.821.759c.759 0 1.385-.266 1.897-.778.512-.531.777-1.157.777-1.916s-.246-1.404-.758-1.916a2.56 2.56 0 0 0-1.878-.778 2.56 2.56 0 0 0-1.878.778c-.531.512-.777 1.138-.777 1.897zm12.973-3.186v1.271c-.626-.531-1.271-.778-1.935-.778-.739 0-1.346.266-1.858.797s-.759 1.176-.759 1.935.247 1.385.759 1.897a2.52 2.52 0 0 0 1.858.778c.38 0 .702-.057.968-.19.151-.057.303-.152.455-.247l.493-.379v1.309c-.626.341-1.271.531-1.953.531a3.62 3.62 0 0 1-2.618-1.062 3.55 3.55 0 0 1-1.081-2.599 3.61 3.61 0 0 1 .91-2.428c.74-.872 1.707-1.309 2.883-1.309.645-.038 1.271.133 1.878.474zm2.371-.379v7.15h-1.081v-7.15h1.081zm5.861 5.424h-3.054l-.797 1.745h-1.157l3.547-7.606 3.414 7.606h-1.176l-.777-1.745zm-.437-1.024l-1.062-2.428-1.1 2.428h2.162zm4.287-4.4v6.126h2.105v1.005h-3.186v-7.15h1.081v.019zm3.509 5.822l.929.36-1.328 2.636-.701-.285 1.1-2.712zm6.373-5.822v7.15h-1.082v-7.15h1.082zm1.631 6.638a.62.62 0 0 1 .189-.455c.133-.133.285-.19.455-.19a.62.62 0 0 1 .645.645.59.59 0 0 1-.645.645c-.189 0-.341-.057-.455-.19-.132-.114-.189-.266-.189-.455zm3.983-2.39v2.902h-1.081v-7.15h1.214c.607 0 1.043.038 1.365.133a1.79 1.79 0 0 1 .816.474c.417.398.607.91.607 1.517 0 .664-.228 1.176-.664 1.555s-1.024.569-1.783.569h-.474zm0-1.005h.398c.986 0 1.48-.379 1.48-1.138 0-.74-.513-1.1-1.537-1.1h-.36v2.238h.019zm3.148 3.395c0-.171.057-.322.19-.455s.284-.19.455-.19.323.057.455.19a.62.62 0 0 1 .19.455c0 .171-.057.341-.19.455-.132.133-.265.19-.455.19s-.341-.057-.455-.19c-.133-.114-.19-.266-.19-.455z"/></g><defs ><path id="B" d="M18.265 78.542v6.126h-1.081v-6.126h-1.65v-1.005h4.362v1.005h-1.631z"/><path id="C" d="M29.152 77.518v4.305c0 .607.095 1.062.303 1.347.303.417.721.607 1.271.607s.967-.209 1.271-.607c.209-.266.303-.721.303-1.347v-4.305h1.081v4.609c0 .759-.228 1.366-.702 1.859a2.59 2.59 0 0 1-1.954.816c-.778 0-1.422-.265-1.935-.816-.474-.493-.702-1.1-.702-1.859v-4.609h1.062z"/></defs></svg>