<svg xmlns="http://www.w3.org/2000/svg" width="163" height="126" fill="#666" xmlns:v="https://vecta.io/nano"><path d="M1.666 50.168h6.96c1.427 0 2.653.214 3.679.641 1.034.427 1.829 1.06 2.384 1.897s.833 1.867.833 3.089c0 1-.171 1.858-.513 2.576a4.83 4.83 0 0 1-1.423 1.782c-.607.47-1.32.846-2.14 1.128l-1.218.641h-6.05l-.026-2.999h4.499c.675 0 1.235-.12 1.679-.359a2.35 2.35 0 0 0 1-1c.231-.427.346-.923.346-1.487 0-.598-.111-1.115-.333-1.551a2.25 2.25 0 0 0-1.012-1c-.452-.231-1.021-.346-1.705-.346H5.511v15.65H1.666V50.168zM12.1 68.83l-4.255-8.318 4.063-.026 4.307 8.164v.18H12.1zm12.535.256c-1.077 0-2.042-.171-2.897-.513-.854-.35-1.581-.833-2.179-1.448-.59-.615-1.043-1.329-1.359-2.141a7.21 7.21 0 0 1-.474-2.615v-.513c0-1.051.15-2.012.449-2.884a6.77 6.77 0 0 1 1.282-2.269 5.63 5.63 0 0 1 2.051-1.474c.803-.35 1.709-.526 2.717-.526.983 0 1.854.162 2.615.487s1.397.786 1.91 1.384c.521.598.914 1.316 1.179 2.153.265.829.397 1.752.397 2.769v1.538H19.303v-2.461h7.396v-.282c0-.513-.094-.97-.282-1.371-.179-.41-.453-.735-.82-.974s-.837-.359-1.41-.359c-.487 0-.906.107-1.256.32s-.637.513-.859.897a4.88 4.88 0 0 0-.487 1.359c-.102.513-.154 1.077-.154 1.692v.513a4.92 4.92 0 0 0 .231 1.538c.162.47.389.876.679 1.218a3.1 3.1 0 0 0 1.077.795c.427.188.91.282 1.448.282.666 0 1.286-.128 1.858-.385.581-.265 1.081-.662 1.5-1.192l1.794 1.948c-.291.419-.688.82-1.192 1.205-.496.385-1.094.701-1.794.948-.701.239-1.5.359-2.397.359zm13.522-2.884c.453 0 .854-.085 1.205-.256a2.03 2.03 0 0 0 .82-.743 2.17 2.17 0 0 0 .32-1.141h3.474c-.009.974-.269 1.841-.782 2.602-.513.752-1.201 1.346-2.064 1.782-.863.427-1.829.641-2.897.641-1.077 0-2.017-.179-2.82-.538a5.51 5.51 0 0 1-1.987-1.487c-.53-.641-.927-1.384-1.192-2.23-.265-.855-.397-1.769-.397-2.743v-.372a9.13 9.13 0 0 1 .397-2.743 6.36 6.36 0 0 1 1.192-2.23 5.44 5.44 0 0 1 1.987-1.5c.795-.359 1.726-.538 2.794-.538 1.136 0 2.132.218 2.986.654a4.87 4.87 0 0 1 2.025 1.871c.496.803.748 1.756.756 2.858H40.5a2.89 2.89 0 0 0-.295-1.256c-.179-.376-.444-.675-.795-.897-.342-.231-.765-.346-1.269-.346-.538 0-.978.115-1.32.346a2.21 2.21 0 0 0-.795.923c-.188.385-.32.825-.397 1.32a11.06 11.06 0 0 0-.103 1.538v.372a11.34 11.34 0 0 0 .103 1.551c.068.496.197.936.384 1.32a2.32 2.32 0 0 0 .808.91c.342.222.786.333 1.333.333zm11.856-11.241V68.83h-3.704V54.961h3.704zm-3.935-3.614c0-.538.188-.983.564-1.333s.88-.526 1.512-.526c.624 0 1.124.175 1.5.526.385.35.577.795.577 1.333s-.192.983-.577 1.333c-.376.35-.876.525-1.5.525-.632 0-1.136-.175-1.512-.525s-.564-.795-.564-1.333zm12.715 14.855c.453 0 .855-.085 1.205-.256a2.03 2.03 0 0 0 .82-.743 2.17 2.17 0 0 0 .32-1.141h3.473c-.008.974-.269 1.841-.782 2.602-.513.752-1.201 1.346-2.064 1.782-.863.427-1.829.641-2.897.641-1.077 0-2.017-.179-2.82-.538a5.51 5.51 0 0 1-1.987-1.487c-.53-.641-.927-1.384-1.192-2.23-.265-.855-.397-1.769-.397-2.743v-.372a9.13 9.13 0 0 1 .397-2.743c.265-.854.662-1.598 1.192-2.23a5.44 5.44 0 0 1 1.987-1.5c.795-.359 1.726-.538 2.794-.538 1.136 0 2.132.218 2.986.654a4.87 4.87 0 0 1 2.025 1.871c.496.803.748 1.756.756 2.858h-3.473a2.89 2.89 0 0 0-.295-1.256c-.179-.376-.444-.675-.795-.897-.342-.231-.765-.346-1.269-.346-.538 0-.978.115-1.32.346a2.21 2.21 0 0 0-.795.923c-.188.385-.32.825-.397 1.32a11.06 11.06 0 0 0-.102 1.538v.372a11.34 11.34 0 0 0 .102 1.551 4.34 4.34 0 0 0 .384 1.32 2.32 2.32 0 0 0 .808.91c.342.222.786.333 1.333.333zm11.856-17.06V68.83h-3.704V49.142h3.704zm10.536 16.56v-6.178c0-.444-.073-.825-.218-1.141a1.62 1.62 0 0 0-.679-.756c-.299-.179-.688-.269-1.166-.269-.41 0-.765.073-1.064.218a1.54 1.54 0 0 0-.692.602c-.162.256-.243.56-.243.91H73.43a3.61 3.61 0 0 1 .41-1.679c.273-.53.671-.995 1.192-1.397.521-.41 1.141-.731 1.859-.961.726-.231 1.538-.346 2.435-.346 1.077 0 2.034.18 2.871.538s1.495.897 1.974 1.615c.487.718.731 1.615.731 2.692v5.934c0 .76.047 1.384.141 1.871a4.93 4.93 0 0 0 .41 1.256v.218h-3.73c-.179-.376-.316-.846-.41-1.41-.085-.573-.128-1.145-.128-1.718zm.487-5.319l.026 2.089h-2.064c-.487 0-.91.056-1.269.167s-.654.269-.884.474c-.231.197-.402.427-.513.692-.102.265-.154.555-.154.872a1.71 1.71 0 0 0 .218.859c.145.248.355.444.628.59.274.137.594.205.961.205.555 0 1.038-.111 1.448-.333s.726-.496.949-.82c.231-.325.35-.632.359-.923l.974 1.564c-.137.35-.325.714-.564 1.09-.231.376-.525.731-.884 1.064-.359.325-.79.594-1.294.808-.504.205-1.102.308-1.794.308-.88 0-1.679-.175-2.397-.525-.709-.359-1.273-.85-1.692-1.474-.41-.632-.615-1.35-.615-2.153 0-.726.137-1.371.41-1.935s.675-1.038 1.205-1.423c.538-.393 1.209-.688 2.012-.884.803-.205 1.735-.308 2.794-.308h2.14zm9.767-2.397V68.83h-3.691V54.961h3.474l.218 3.025zm4.178-3.115l-.064 3.422-.654-.064-.679-.038c-.521 0-.974.068-1.359.205a2.41 2.41 0 0 0-.948.577 2.52 2.52 0 0 0-.564.936c-.12.367-.188.786-.205 1.256l-.743-.231c0-.897.09-1.722.269-2.474.18-.761.44-1.423.782-1.987.35-.564.777-1 1.282-1.307s1.081-.461 1.73-.461a3.97 3.97 0 0 1 .628.051 2.35 2.35 0 0 1 .526.115zm11.971 2.756v16.534h-3.692v-19.2h3.423l.269 2.666zm8.78 4.114v.269c0 1.008-.12 1.944-.359 2.807-.231.863-.573 1.615-1.026 2.256a4.87 4.87 0 0 1-1.692 1.487c-.666.35-1.435.525-2.307.525-.846 0-1.58-.171-2.204-.513s-1.15-.82-1.577-1.436c-.418-.624-.756-1.346-1.012-2.166s-.453-1.7-.59-2.64v-.705a17.49 17.49 0 0 1 .59-2.769c.256-.846.594-1.576 1.012-2.192.427-.624.949-1.106 1.564-1.448.624-.342 1.354-.513 2.192-.513.88 0 1.653.167 2.32.5a4.55 4.55 0 0 1 1.691 1.435c.462.624.808 1.367 1.039 2.23.239.863.359 1.82.359 2.871zm-3.705.269v-.269c0-.59-.051-1.132-.153-1.628-.094-.504-.248-.944-.462-1.32a2.24 2.24 0 0 0-.82-.872c-.333-.214-.739-.32-1.218-.32-.504 0-.935.081-1.294.243a2.15 2.15 0 0 0-.859.705c-.222.308-.389.675-.5 1.102a7.15 7.15 0 0 0-.205 1.448v1.782c.043.632.162 1.2.359 1.705.196.496.5.889.91 1.179s.948.436 1.615.436c.487 0 .897-.107 1.23-.32.334-.222.603-.526.808-.91.213-.384.363-.829.448-1.333.094-.504.141-1.047.141-1.628zm13.484 3.691v-6.178c0-.444-.073-.825-.218-1.141a1.62 1.62 0 0 0-.679-.756c-.299-.179-.688-.269-1.166-.269-.411 0-.765.073-1.064.218-.299.137-.53.338-.692.602-.163.256-.244.56-.244.91h-3.691c0-.59.136-1.149.41-1.679s.671-.995 1.192-1.397c.521-.41 1.141-.731 1.858-.961.727-.231 1.538-.346 2.436-.346 1.076 0 2.033.18 2.871.538s1.495.897 1.974 1.615c.487.718.73 1.615.73 2.692v5.934c0 .76.047 1.384.141 1.871a4.94 4.94 0 0 0 .41 1.256v.218h-3.73c-.179-.376-.316-.846-.41-1.41a11.68 11.68 0 0 1-.128-1.718zm.487-5.319l.026 2.089h-2.064c-.487 0-.91.056-1.269.167s-.653.269-.884.474a1.83 1.83 0 0 0-.513.692c-.102.265-.154.555-.154.872s.073.602.218.859a1.56 1.56 0 0 0 .628.59c.274.137.594.205.962.205.555 0 1.038-.111 1.448-.333s.726-.496.948-.82c.231-.325.351-.632.359-.923l.974 1.564a6.23 6.23 0 0 1-.564 1.09 5.06 5.06 0 0 1-.884 1.064c-.359.325-.79.594-1.294.808-.505.205-1.103.308-1.795.308-.88 0-1.679-.175-2.397-.525-.709-.359-1.273-.85-1.692-1.474a3.87 3.87 0 0 1-.615-2.153c0-.726.137-1.371.41-1.935a3.78 3.78 0 0 1 1.205-1.423c.539-.393 1.209-.688 2.013-.884.803-.205 1.734-.308 2.794-.308h2.14zm9.767-2.397V68.83h-3.691V54.961h3.473l.218 3.025zm4.178-3.115l-.064 3.422-.653-.064-.68-.038c-.521 0-.974.068-1.358.205-.376.128-.693.32-.949.577-.248.256-.436.568-.564.936-.119.367-.188.786-.205 1.256l-.743-.231c0-.897.089-1.722.269-2.474.179-.761.44-1.423.782-1.987.35-.564.777-1 1.281-1.307s1.081-.461 1.731-.461c.205 0 .414.017.628.051a2.34 2.34 0 0 1 .525.115zm8.793 10.831v-6.178c0-.444-.073-.825-.218-1.141a1.62 1.62 0 0 0-.679-.756c-.299-.179-.688-.269-1.167-.269-.41 0-.764.073-1.064.218a1.55 1.55 0 0 0-.692.602c-.162.256-.243.56-.243.91h-3.692c0-.59.137-1.149.411-1.679s.67-.995 1.192-1.397c.521-.41 1.14-.731 1.858-.961.726-.231 1.538-.346 2.435-.346 1.077 0 2.034.18 2.871.538s1.496.897 1.974 1.615c.487.718.731 1.615.731 2.692v5.934c0 .76.047 1.384.141 1.871a4.94 4.94 0 0 0 .41 1.256v.218h-3.73c-.179-.376-.316-.846-.41-1.41a11.68 11.68 0 0 1-.128-1.718zm.487-5.319l.026 2.089h-2.064c-.487 0-.91.056-1.269.167s-.654.269-.884.474a1.83 1.83 0 0 0-.513.692c-.103.265-.154.555-.154.872s.073.602.218.859c.145.248.355.444.628.59.274.137.594.205.961.205.556 0 1.039-.111 1.449-.333s.726-.496.948-.82c.231-.325.351-.632.359-.923l.974 1.564a6.23 6.23 0 0 1-.564 1.09 5.06 5.06 0 0 1-.884 1.064c-.359.325-.79.594-1.295.808-.504.205-1.102.308-1.794.308-.88 0-1.679-.175-2.397-.525-.709-.359-1.273-.85-1.692-1.474a3.87 3.87 0 0 1-.615-2.153c0-.726.137-1.371.41-1.935a3.78 3.78 0 0 1 1.205-1.423c.538-.393 1.209-.688 2.012-.884.804-.205 1.735-.308 2.794-.308h2.141zM9.254 82.359L4.178 97.83H.09l6.934-18.662h2.602l-.372 3.192zm4.217 15.47l-5.088-15.47-.41-3.192H10.6l6.973 18.662h-4.101zm-.231-6.947v3.012H3.384v-3.012h9.856zm9.113-4.255v16.535h-3.691V83.961h3.422l.269 2.666zm8.78 4.114v.269c0 1.008-.12 1.944-.359 2.807-.231.863-.573 1.615-1.025 2.256a4.87 4.87 0 0 1-1.692 1.487c-.666.35-1.435.525-2.307.525-.846 0-1.581-.171-2.205-.513s-1.149-.82-1.577-1.436c-.419-.624-.756-1.346-1.012-2.166a17.09 17.09 0 0 1-.59-2.64v-.705a17.49 17.49 0 0 1 .59-2.769c.256-.846.594-1.576 1.012-2.192.427-.624.949-1.106 1.564-1.448.624-.342 1.354-.513 2.192-.513.88 0 1.653.167 2.32.5a4.56 4.56 0 0 1 1.692 1.436c.461.624.807 1.367 1.038 2.23.239.863.359 1.82.359 2.871zm-3.704.269v-.269a8.01 8.01 0 0 0-.154-1.628c-.094-.504-.248-.944-.461-1.32-.205-.376-.479-.666-.82-.872-.333-.214-.739-.32-1.218-.32-.504 0-.936.081-1.295.244-.35.162-.637.397-.859.705s-.389.675-.5 1.102a7.15 7.15 0 0 0-.205 1.448v1.782c.043.632.162 1.2.359 1.705.197.496.5.889.91 1.179s.948.436 1.615.436c.487 0 .897-.107 1.23-.32a2.46 2.46 0 0 0 .808-.91c.214-.384.363-.829.449-1.333.094-.504.141-1.047.141-1.628zm9.69-4.025V97.83h-3.691V83.961h3.473l.218 3.025zm4.178-3.115l-.064 3.422-.654-.064-.679-.038c-.521 0-.974.068-1.359.205a2.42 2.42 0 0 0-.949.577c-.248.256-.436.568-.564.936-.12.367-.188.786-.205 1.256l-.743-.231c0-.897.09-1.722.269-2.474.179-.76.44-1.423.782-1.987.35-.564.778-1 1.282-1.307s1.081-.461 1.73-.461a3.97 3.97 0 0 1 .628.051 2.35 2.35 0 0 1 .526.115zm7.87 14.214c-1.077 0-2.042-.171-2.897-.513a6.36 6.36 0 0 1-2.179-1.448 6.44 6.44 0 0 1-1.359-2.141 7.21 7.21 0 0 1-.474-2.615v-.513c0-1.051.149-2.012.449-2.884s.726-1.628 1.282-2.269a5.63 5.63 0 0 1 2.051-1.474c.803-.35 1.709-.526 2.717-.526.983 0 1.854.162 2.615.487s1.397.786 1.91 1.384c.521.598.914 1.316 1.179 2.153.265.829.397 1.752.397 2.768v1.538H43.835V89.57h7.396v-.282c0-.513-.094-.97-.282-1.371a2.18 2.18 0 0 0-.82-.974c-.367-.239-.837-.359-1.41-.359-.487 0-.906.107-1.256.32s-.637.513-.859.897a4.88 4.88 0 0 0-.487 1.359c-.103.513-.154 1.077-.154 1.692v.513a4.92 4.92 0 0 0 .231 1.538c.162.47.389.876.679 1.218a3.1 3.1 0 0 0 1.077.795c.427.188.91.282 1.448.282.667 0 1.286-.128 1.859-.385.581-.265 1.081-.662 1.5-1.192l1.794 1.948c-.291.419-.688.82-1.192 1.205-.496.385-1.094.701-1.794.948-.701.239-1.5.359-2.397.359zM60.574 86.92v10.91h-3.691V83.961h3.461l.231 2.961zm-.538 3.486h-1c0-1.025.133-1.948.397-2.769.265-.829.636-1.534 1.115-2.115.478-.59 1.047-1.038 1.705-1.346.666-.316 1.41-.474 2.23-.474a5.38 5.38 0 0 1 1.782.282 3.41 3.41 0 0 1 1.384.897c.393.41.692.953.897 1.628.214.675.32 1.5.32 2.474v8.844H65.15V88.97c0-.615-.085-1.094-.256-1.435a1.44 1.44 0 0 0-.756-.718c-.325-.145-.726-.218-1.205-.218-.496 0-.927.098-1.295.295-.359.197-.658.47-.897.82-.231.342-.406.743-.526 1.205a5.91 5.91 0 0 0-.179 1.487zm19.828 4.396v-16.66h3.717V97.83h-3.345l-.372-3.025zm-8.767-3.743v-.269c0-1.059.12-2.021.359-2.884.239-.872.59-1.619 1.051-2.243a4.79 4.79 0 0 1 1.705-1.448c.675-.342 1.444-.513 2.307-.513.812 0 1.521.171 2.128.513.615.342 1.136.829 1.564 1.461.436.624.786 1.363 1.051 2.217a15.39 15.39 0 0 1 .577 2.781v.59c-.12.965-.312 1.863-.577 2.692s-.615 1.555-1.051 2.179c-.427.615-.948 1.094-1.564 1.436s-1.333.513-2.153.513c-.863 0-1.632-.175-2.307-.525-.666-.35-1.23-.842-1.692-1.474-.453-.632-.799-1.376-1.038-2.23s-.359-1.786-.359-2.794zm3.691-.269v.269a9.43 9.43 0 0 0 .128 1.602 4.58 4.58 0 0 0 .449 1.32c.214.376.487.671.82.884.342.205.756.308 1.243.308.632 0 1.154-.141 1.564-.423.41-.291.722-.688.936-1.192.222-.504.35-1.085.385-1.743v-1.679c-.026-.538-.103-1.021-.231-1.448-.12-.436-.299-.808-.538-1.115a2.37 2.37 0 0 0-.872-.718c-.342-.171-.748-.256-1.218-.256-.478 0-.889.111-1.23.333-.342.214-.62.508-.833.884-.205.376-.359.82-.461 1.333a8.96 8.96 0 0 0-.141 1.641zm18.059 7.293c-1.077 0-2.042-.171-2.897-.513a6.36 6.36 0 0 1-2.179-1.448 6.44 6.44 0 0 1-1.359-2.141 7.21 7.21 0 0 1-.474-2.615v-.513c0-1.051.15-2.012.449-2.884a6.77 6.77 0 0 1 1.282-2.269 5.63 5.63 0 0 1 2.051-1.474c.803-.35 1.709-.526 2.717-.526.983 0 1.854.162 2.615.487s1.397.786 1.91 1.384c.521.598.914 1.316 1.179 2.153.265.829.397 1.752.397 2.768v1.538H87.516v-2.461h7.395v-.282c0-.513-.094-.97-.282-1.371-.179-.41-.453-.735-.82-.974s-.837-.359-1.41-.359c-.487 0-.906.107-1.256.32s-.637.513-.859.897c-.214.385-.376.837-.487 1.359-.102.513-.154 1.077-.154 1.692v.513c0 .555.077 1.068.231 1.538.162.47.389.876.679 1.218a3.1 3.1 0 0 0 1.077.795c.427.188.91.282 1.448.282a4.49 4.49 0 0 0 1.859-.385c.581-.265 1.081-.662 1.5-1.192l1.794 1.948c-.29.419-.688.82-1.192 1.205-.496.385-1.094.701-1.794.948-.701.239-1.5.359-2.397.359zm11.484-11.1V97.83h-3.691V83.961h3.473l.218 3.025zm4.179-3.115l-.064 3.422-.654-.064-.679-.038c-.522 0-.975.068-1.359.205a2.43 2.43 0 0 0-.949.577 2.54 2.54 0 0 0-.564.936c-.119.367-.188.786-.205 1.256l-.743-.231c0-.897.09-1.722.269-2.474.18-.76.44-1.423.782-1.987.35-.564.778-1 1.282-1.307s1.081-.461 1.73-.461c.205 0 .414.017.628.051a2.35 2.35 0 0 1 .526.115zM13.808 5.523c.009-.657-.247-1.237-.83-1.82-.601-.601-1.251-.902-2.005-.943a1.381 1.381 0 0 1 .149-2.758c1.448.078 2.736.674 3.809 1.748.765.765 1.273 1.626 1.501 2.56a6.93 6.93 0 0 1 1.519-.168c.522 0 1.03.058 1.519.168.228-.934.736-1.795 1.501-2.56C22.044.676 23.332.08 24.78.002a1.381 1.381 0 1 1 .149 2.758c-.754.041-1.404.342-2.005.943-.583.583-.839 1.163-.83 1.802 1.677 1.278 2.761 3.284 2.761 5.542a6.89 6.89 0 0 1-.27 1.917 12.48 12.48 0 0 1 3.026 2.692l5.291-2.814a1.381 1.381 0 0 1 1.297 2.438l-5.094 2.708a12.33 12.33 0 0 1 1.197 4.104h4.218a1.381 1.381 0 1 1 0 2.762h-4.218a12.34 12.34 0 0 1-1.197 4.104l5.094 2.709a1.381 1.381 0 1 1-1.297 2.438l-5.291-2.814a12.4 12.4 0 0 1-9.66 4.609 12.4 12.4 0 0 1-9.66-4.609L3 34.105a1.381 1.381 0 1 1-1.296-2.438l5.094-2.709a12.33 12.33 0 0 1-1.197-4.104h-4.22a1.381 1.381 0 1 1 0-2.762h4.218a12.33 12.33 0 0 1 1.197-4.104L1.702 15.28a1.381 1.381 0 0 1 1.296-2.438l5.291 2.814a12.52 12.52 0 0 1 3.026-2.692 6.91 6.91 0 0 1-.27-1.917c0-2.259 1.085-4.264 2.761-5.523zm.057 6.211a12.42 12.42 0 0 1 4.086-.687 12.42 12.42 0 0 1 4.086.687c.037-.225.056-.454.056-.687 0-2.288-1.855-4.142-4.142-4.142s-4.142 1.855-4.142 4.142a4.22 4.22 0 0 0 .056.687zm4.086 21.405a9.67 9.67 0 0 0 9.666-9.665 9.67 9.67 0 0 0-9.666-9.666 9.67 9.67 0 0 0-9.666 9.666 9.67 9.67 0 0 0 9.666 9.665z"/><path d="M1.611 122.065l1.77-9.614h1.083l-1.77 9.614H1.611zm2.575 0l1.77-9.614h1.083l-1.77 9.614H4.186zm3.751-5.843H1.07v-1.024h6.867v1.024zm-.495 3.136H.568v-1.023h6.874v1.023zm3.137-3.077v5.784H8.987v-7.144h1.519l.073 1.36zm2.186-1.406l-.013 1.479c-.097-.018-.202-.031-.317-.04l-.33-.013c-.273 0-.513.039-.72.119a1.35 1.35 0 0 0-.522.33 1.45 1.45 0 0 0-.317.515c-.075.202-.119.429-.132.68l-.363.026c0-.449.044-.865.132-1.248a3.41 3.41 0 0 1 .396-1.01c.181-.29.405-.517.673-.68s.588-.244.944-.244a1.92 1.92 0 0 1 .31.026 1.28 1.28 0 0 1 .258.06zm4.015 7.322c-.528 0-1.006-.085-1.433-.257s-.784-.42-1.083-.733a3.25 3.25 0 0 1-.68-1.103c-.159-.422-.238-.878-.238-1.367v-.264c0-.559.082-1.065.244-1.518s.39-.841.68-1.163.634-.574 1.03-.746.825-.257 1.288-.257c.511 0 .957.086 1.341.257a2.52 2.52 0 0 1 .951.727 3.01 3.01 0 0 1 .568 1.102c.128.427.192.898.192 1.413v.681h-5.52v-1.143h3.949v-.125a2.24 2.24 0 0 0-.172-.806c-.101-.251-.258-.453-.469-.607s-.493-.232-.845-.232a1.44 1.44 0 0 0-.707.172 1.4 1.4 0 0 0-.508.482 2.55 2.55 0 0 0-.317.766 4.3 4.3 0 0 0-.106.997v.264c0 .313.042.603.126.872a2.08 2.08 0 0 0 .383.693c.167.198.37.355.608.469s.508.165.812.165c.383 0 .724-.077 1.023-.231s.559-.372.779-.654l.839.813c-.154.224-.354.44-.601.647s-.548.367-.905.495-.762.191-1.228.191zm7.019-1.267c.26 0 .493-.051.7-.152a1.33 1.33 0 0 0 .508-.436 1.19 1.19 0 0 0 .218-.641h1.499c-.009.463-.145.883-.409 1.262a2.84 2.84 0 0 1-1.05.904c-.436.22-.918.33-1.446.33-.546 0-1.021-.092-1.426-.277s-.742-.449-1.01-.779a3.43 3.43 0 0 1-.607-1.142c-.132-.432-.198-.894-.198-1.387v-.231c0-.493.066-.955.198-1.387s.339-.819.607-1.149.605-.588 1.01-.772c.405-.19.878-.284 1.42-.284.572 0 1.074.114 1.506.343s.77.539 1.017.944.381.868.39 1.4h-1.499c-.013-.264-.079-.502-.198-.713a1.31 1.31 0 0 0-.489-.515 1.39 1.39 0 0 0-.746-.192c-.321 0-.588.067-.799.199s-.376.303-.495.528-.205.469-.258.746-.073.557-.073.852v.231c0 .295.024.581.073.858s.132.526.251.747c.123.215.291.389.502.521s.48.192.806.192zm6.22.356l1.941-6.365h1.704l-2.866 8.234a5.52 5.52 0 0 1-.258.574 2.61 2.61 0 0 1-.416.588 1.86 1.86 0 0 1-.627.456c-.251.119-.555.178-.911.178a2.04 2.04 0 0 1-.409-.04l-.363-.072-.007-1.215.159.013.159.007c.264 0 .484-.033.66-.099s.319-.163.429-.304.211-.33.291-.568l.515-1.387zm-1.096-6.365l1.697 5.348.284 1.678-1.103.284-2.595-7.31h1.717zm8.479 6.009c.26 0 .493-.051.7-.152.211-.106.381-.251.508-.436a1.19 1.19 0 0 0 .218-.641h1.499c-.009.463-.145.883-.409 1.262a2.84 2.84 0 0 1-1.05.904c-.436.22-.918.33-1.446.33-.546 0-1.021-.092-1.426-.277a2.82 2.82 0 0 1-1.01-.779 3.43 3.43 0 0 1-.608-1.142 4.72 4.72 0 0 1-.198-1.387v-.231a4.72 4.72 0 0 1 .198-1.387c.137-.436.339-.819.608-1.149s.605-.588 1.01-.772c.405-.19.878-.284 1.42-.284.572 0 1.074.114 1.506.343s.77.539 1.017.944.381.868.39 1.4h-1.499c-.013-.264-.079-.502-.198-.713a1.31 1.31 0 0 0-.489-.515 1.39 1.39 0 0 0-.746-.192c-.321 0-.588.067-.799.199s-.376.303-.495.528-.205.469-.258.746-.073.557-.073.852v.231c0 .295.024.581.073.858a2.45 2.45 0 0 0 .251.747c.123.215.291.389.502.521s.48.192.806.192zm5.85-9.007v10.142h-1.598v-10.142h1.598zm4.893 10.274c-.528 0-1.006-.085-1.433-.257s-.784-.42-1.083-.733a3.25 3.25 0 0 1-.68-1.103 3.86 3.86 0 0 1-.238-1.367v-.264c0-.559.081-1.065.244-1.518s.39-.841.68-1.163.634-.574 1.03-.746.825-.257 1.288-.257c.511 0 .958.086 1.34.257a2.52 2.52 0 0 1 .951.727 3.01 3.01 0 0 1 .568 1.102c.128.427.191.898.191 1.413v.681h-5.52v-1.143h3.949v-.125c-.009-.286-.066-.555-.172-.806s-.258-.453-.469-.607-.493-.232-.845-.232a1.44 1.44 0 0 0-.706.172 1.4 1.4 0 0 0-.509.482c-.136.212-.242.467-.317.766a4.3 4.3 0 0 0-.106.997v.264c0 .313.042.603.125.872a2.08 2.08 0 0 0 .383.693 1.81 1.81 0 0 0 .607.469c.238.11.508.165.812.165.383 0 .724-.077 1.023-.231s.559-.372.779-.654l.839.813a3.28 3.28 0 0 1-.601.647c-.246.202-.548.367-.905.495s-.762.191-1.228.191zm6.253-.132h-1.591v-7.831c0-.533.099-.979.297-1.34a1.96 1.96 0 0 1 .865-.826c.374-.189.817-.284 1.327-.284a3.31 3.31 0 0 1 .469.033 3 3 0 0 1 .449.086l-.04 1.228a1.85 1.85 0 0 0-.29-.046l-.33-.013c-.242 0-.451.046-.627.138a.92.92 0 0 0-.396.39 1.38 1.38 0 0 0-.132.634v7.831zm1.472-7.144v1.162h-4.16v-1.162h4.16zm.852 3.651v-.152c0-.515.075-.992.224-1.432s.365-.83.647-1.156.634-.586 1.043-.766c.414-.185.881-.277 1.4-.277s.99.092 1.4.277c.414.18.764.436 1.05.766s.504.711.654 1.156a4.42 4.42 0 0 1 .224 1.432v.152c0 .515-.075.993-.224 1.433a3.43 3.43 0 0 1-.654 1.156c-.286.326-.634.581-1.043.766-.409.18-.874.27-1.393.27s-.993-.09-1.406-.27c-.409-.185-.757-.44-1.043-.766s-.504-.716-.654-1.156-.224-.918-.224-1.433zm1.591-.152v.152c0 .322.033.625.099.912s.169.537.31.752a1.53 1.53 0 0 0 .541.509c.22.123.482.185.786.185a1.52 1.52 0 0 0 .766-.185 1.53 1.53 0 0 0 .541-.509c.141-.215.244-.466.31-.752s.106-.59.106-.912v-.152a3.69 3.69 0 0 0-.106-.898c-.066-.286-.172-.539-.317-.759s-.321-.392-.542-.515c-.216-.128-.473-.192-.773-.192s-.559.064-.779.192a1.53 1.53 0 0 0-.535.515c-.141.22-.244.473-.31.759a3.93 3.93 0 0 0-.099.898zm7.983-2.139v5.784h-1.591v-7.144h1.519l.073 1.36zm2.186-1.406l-.013 1.479c-.097-.018-.203-.031-.317-.04l-.33-.013c-.273 0-.513.039-.72.119a1.35 1.35 0 0 0-.522.33 1.45 1.45 0 0 0-.317.515c-.075.202-.119.429-.132.68l-.363.026a5.57 5.57 0 0 1 .132-1.248 3.41 3.41 0 0 1 .396-1.01c.181-.29.405-.517.674-.68s.588-.244.944-.244a1.92 1.92 0 0 1 .31.026 1.28 1.28 0 0 1 .258.06zm2.701-2.952v10.142h-1.598v-10.142h1.598zm4.893 10.274c-.528 0-1.006-.085-1.433-.257s-.784-.42-1.083-.733a3.25 3.25 0 0 1-.68-1.103c-.159-.422-.238-.878-.238-1.367v-.264c0-.559.081-1.065.244-1.518s.39-.841.68-1.163.634-.574 1.03-.746.825-.257 1.288-.257c.511 0 .957.086 1.341.257a2.52 2.52 0 0 1 .951.727 3.01 3.01 0 0 1 .568 1.102c.128.427.192.898.192 1.413v.681h-5.52v-1.143h3.949v-.125c-.009-.286-.066-.555-.172-.806s-.258-.453-.469-.607-.493-.232-.845-.232a1.44 1.44 0 0 0-.707.172 1.4 1.4 0 0 0-.508.482 2.55 2.55 0 0 0-.317.766c-.07.295-.106.627-.106.997v.264c0 .313.042.603.126.872s.216.495.383.693.37.355.608.469.508.165.812.165c.383 0 .724-.077 1.023-.231s.559-.372.779-.654l.839.813a3.28 3.28 0 0 1-.601.647c-.246.202-.548.367-.905.495s-.762.191-1.228.191zm8.129-1.564v-3.408c0-.255-.046-.475-.139-.66a.97.97 0 0 0-.423-.429c-.185-.102-.418-.152-.7-.152-.26 0-.484.044-.674.132s-.337.207-.442.356-.158.32-.158.509h-1.585a1.76 1.76 0 0 1 .205-.819c.136-.264.335-.5.594-.706a2.97 2.97 0 0 1 .931-.489 3.87 3.87 0 0 1 1.215-.178c.537 0 1.013.09 1.426.27s.746.454.984.819.363.815.363 1.36v3.177c0 .325.022.618.066.878.048.255.117.477.205.667v.105h-1.631c-.075-.171-.134-.389-.178-.653-.04-.269-.059-.529-.059-.779zm.231-2.913l.013.984h-1.142a3.18 3.18 0 0 0-.779.086c-.225.053-.412.132-.561.238a1.03 1.03 0 0 0-.337.383 1.12 1.12 0 0 0-.112.508c0 .19.044.364.132.522s.216.275.383.363.379.132.621.132c.326 0 .61-.066.852-.198s.44-.301.581-.495.216-.385.225-.561l.515.706c-.053.181-.143.374-.271.581a2.83 2.83 0 0 1-.502.595c-.203.184-.447.336-.733.455s-.607.178-.977.178c-.467 0-.883-.092-1.248-.277s-.651-.442-.858-.759c-.207-.322-.31-.685-.31-1.09a2.27 2.27 0 0 1 .211-1.003c.145-.295.357-.542.634-.74s.625-.348 1.03-.449c.405-.106.867-.159 1.387-.159h1.248zm4.629-1.439v5.784h-1.591v-7.144h1.519l.073 1.36zm2.186-1.406l-.013 1.479a3.05 3.05 0 0 0-.317-.04l-.33-.013c-.273 0-.513.039-.72.119a1.35 1.35 0 0 0-.522.33 1.45 1.45 0 0 0-.317.515 2.3 2.3 0 0 0-.132.68l-.363.026c0-.449.044-.865.132-1.248a3.41 3.41 0 0 1 .396-1.01c.18-.29.405-.517.674-.68s.588-.244.944-.244a1.92 1.92 0 0 1 .31.026c.115.018.2.037.258.06zm2.575 1.571v5.619h-1.591v-7.144h1.499l.092 1.525zm-.284 1.783l-.515-.007c.004-.506.075-.97.211-1.393s.335-.786.581-1.089a2.55 2.55 0 0 1 .898-.7c.348-.168.735-.251 1.162-.251.343 0 .654.048.931.145s.522.244.72.456.357.486.462.825.158.746.158 1.235v4.615h-1.598v-4.622c0-.343-.051-.614-.152-.812-.097-.203-.24-.346-.429-.429a1.61 1.61 0 0 0-.693-.132c-.273 0-.517.057-.733.171s-.398.271-.548.469a2.27 2.27 0 0 0-.337.687 2.84 2.84 0 0 0-.119.832zm7.938-3.308v7.144h-1.598v-7.144h1.598zm-1.704-1.876a.81.81 0 0 1 .238-.6c.163-.163.387-.245.673-.245s.504.082.667.245a.8.8 0 0 1 .244.6c0 .238-.081.436-.244.595s-.385.237-.667.237-.51-.079-.673-.237-.238-.357-.238-.595zm5.025 3.401v5.619h-1.591v-7.144h1.499l.092 1.525zm-.284 1.783l-.515-.007a4.65 4.65 0 0 1 .211-1.393 3.43 3.43 0 0 1 .581-1.089 2.56 2.56 0 0 1 .898-.7 2.64 2.64 0 0 1 1.163-.251c.343 0 .653.048.931.145s.521.244.719.456.357.486.463.825.158.746.158 1.235v4.615h-1.598v-4.622c0-.343-.051-.614-.152-.812-.097-.203-.24-.346-.429-.429a1.61 1.61 0 0 0-.693-.132c-.273 0-.518.057-.733.171s-.399.271-.548.469-.258.427-.337.687-.119.537-.119.832zm10.81-3.308h1.446v6.946c0 .643-.137 1.189-.41 1.638s-.653.79-1.142 1.023-1.054.357-1.697.357c-.273 0-.577-.04-.911-.119a3.71 3.71 0 0 1-.964-.383c-.309-.172-.566-.398-.773-.68l.746-.938c.255.304.537.526.845.667a2.31 2.31 0 0 0 .971.212c.365 0 .676-.069.931-.205a1.38 1.38 0 0 0 .601-.588c.141-.26.211-.576.211-.951v-5.361l.146-1.618zm-4.854 3.651v-.138c0-.542.066-1.035.198-1.479s.322-.835.568-1.156c.247-.326.546-.575.898-.746s.751-.264 1.195-.264c.463 0 .857.083 1.182.251s.606.407.826.719a3.58 3.58 0 0 1 .515 1.11c.127.427.222.902.284 1.426v.442c-.057.511-.154.978-.291 1.4s-.317.788-.541 1.096-.502.546-.832.714-.711.25-1.156.25c-.436 0-.83-.09-1.182-.27s-.647-.434-.898-.76a3.59 3.59 0 0 1-.568-1.149c-.132-.444-.198-.926-.198-1.446zm1.592-.138v.138c0 .326.03.63.092.912a2.53 2.53 0 0 0 .297.746 1.57 1.57 0 0 0 .515.502c.211.118.46.178.746.178.375 0 .68-.079.918-.238a1.54 1.54 0 0 0 .555-.64 3.25 3.25 0 0 0 .277-.912v-1.195c-.026-.26-.081-.502-.165-.726a1.94 1.94 0 0 0-.323-.588c-.137-.172-.309-.304-.515-.396-.207-.097-.452-.145-.733-.145a1.45 1.45 0 0 0-.747.185c-.211.123-.385.292-.521.508a2.52 2.52 0 0 0-.297.753c-.066.286-.099.592-.099.918z"/></svg>