<svg xmlns="http://www.w3.org/2000/svg" width="215" height="94" fill="none" xmlns:v="https://vecta.io/nano"><path d="M122.775 37.727c0 1.619-.315 2.985-.945 4.098s-1.479 1.948-2.549 2.521-2.264.852-3.58.852c-1.326 0-2.524-.287-3.594-.859-1.065-.578-1.913-1.421-2.542-2.528s-.938-2.474-.938-4.084c0-1.619.313-2.983.938-4.091s1.477-1.953 2.542-2.521c1.07-.573 2.268-.859 3.594-.859 1.316 0 2.51.286 3.58.859s1.92 1.409 2.549 2.521.945 2.472.945 4.091zm-4.063 0c0-.871-.116-1.605-.348-2.202s-.565-1.056-1.015-1.364-.994-.469-1.648-.469-1.205.156-1.655.469-.783.762-1.015 1.364-.341 1.331-.341 2.202.113 1.608.341 2.209.57 1.051 1.015 1.364 1.002.462 1.655.462 1.203-.154 1.648-.462.788-.767 1.015-1.364.348-1.338.348-2.209zm9.89 7.273V30.455h6.278c1.08 0 2.025.213 2.834.639a4.63 4.63 0 0 1 1.889 1.797c.45.772.675 1.674.675 2.706 0 1.042-.232 1.944-.696 2.706s-1.105 1.349-1.939 1.761c-.828.412-1.797.618-2.905.618h-3.75v-3.068h2.955c.464 0 .859-.081 1.186-.241s.585-.4.76-.703.27-.66.27-1.072-.09-.772-.27-1.065-.429-.526-.76-.682-.722-.241-1.186-.241h-1.392V45h-3.949zm17.125 0V30.455h10.483v3.182h-6.534v2.5h5.994v3.182h-5.994v2.5h6.506V45h-10.455zm29.027-14.545V45h-3.296l-5.255-7.642h-.086V45h-3.949V30.455h3.353l5.17 7.614h.114v-7.614h3.949zM116.525 55c-.038-.474-.215-.843-.533-1.108-.312-.265-.788-.398-1.427-.398-.407 0-.741.05-1.002.149-.255.095-.445.225-.568.391a.97.97 0 0 0-.192.568.94.94 0 0 0 .093.476c.075.137.194.263.355.376s.367.208.618.298.549.17.895.242l1.193.256c.805.17 1.494.395 2.067.675s1.041.608 1.406.987.632.795.802 1.264c.176.469.266.98.27 1.534-.004.956-.244 1.766-.717 2.429s-1.151 1.167-2.031 1.513-1.93.519-3.161.519c-1.264 0-2.367-.187-3.309-.561s-1.667-.949-2.188-1.726-.777-1.78-.781-2.997h3.75c.023.445.135.819.334 1.122s.478.533.838.689.797.234 1.299.234c.422 0 .775-.052 1.059-.156s.499-.249.646-.433a1.02 1.02 0 0 0 .227-.632.9.9 0 0 0-.22-.582c-.137-.17-.365-.322-.682-.455s-.746-.265-1.285-.383l-1.449-.312c-1.288-.279-2.304-.746-3.047-1.399s-1.106-1.555-1.101-2.692c-.005-.923.242-1.731.739-2.422s1.195-1.238 2.081-1.626 1.91-.582 3.061-.582c1.174 0 2.19.197 3.047.59s1.517.947 1.981 1.662.706 1.541.71 2.493h-3.778zm9.479 10V50.455h6.279c1.079 0 2.024.213 2.834.639s1.439 1.025 1.889 1.797.675 1.674.675 2.706c0 1.042-.232 1.944-.696 2.706s-1.106 1.349-1.939 1.761-1.797.618-2.905.618h-3.75v-3.068h2.954c.464 0 .86-.081 1.186-.241a1.76 1.76 0 0 0 .76-.703c.18-.303.27-.66.27-1.072s-.09-.772-.27-1.065a1.69 1.69 0 0 0-.76-.682c-.326-.161-.722-.241-1.186-.241h-1.392V65h-3.949zm19.087 0h-4.261l4.801-14.545h5.398L155.83 65h-4.261l-3.182-10.54h-.114L145.091 65zm-.795-5.739h8.011v2.954h-8.011v-2.954zm29.831-3.352h-4.006a2.71 2.71 0 0 0-.227-.902 2.03 2.03 0 0 0-.497-.696c-.209-.199-.462-.35-.76-.455s-.637-.163-1.016-.163c-.663 0-1.224.161-1.683.483s-.8.784-1.037 1.385-.348 1.323-.348 2.166c0 .89.118 1.636.355 2.237.242.597.59 1.046 1.044 1.349s1.002.448 1.641.448c.364 0 .691-.045.98-.135s.54-.23.753-.405a2.09 2.09 0 0 0 .518-.632c.138-.251.23-.533.277-.845l4.006.028c-.047.616-.22 1.243-.519 1.882s-.722 1.222-1.271 1.761c-.544.535-1.219.966-2.024 1.293s-1.74.49-2.805.49c-1.336 0-2.534-.286-3.594-.859s-1.892-1.416-2.507-2.528-.916-2.474-.916-4.084c0-1.619.312-2.983.937-4.091s1.468-1.953 2.528-2.521 2.245-.859 3.552-.859c.918 0 1.763.126 2.535.376s1.449.618 2.031 1.101 1.051 1.068 1.407 1.768.57 1.503.646 2.408zM179.918 65V50.455h10.483v3.182h-6.534v2.5h5.995v3.182h-5.995v2.5h6.506V65h-10.455z" fill="#fff"/><rect x="2.31" y="2" width="211" height="90" rx="45" stroke="#fff" stroke-width="3"/><circle cx="47.747" cy="47" r="45" fill="#fff"/><path d="M31.433 73h-1.864l4.188-11.636h2.028L39.973 73h-1.864l-3.29-9.523h-.091L31.433 73zm.313-4.557h6.046v1.477h-6.046v-1.477zM44.853 73V61.364h4.148c.905 0 1.655.165 2.25.494s1.04.78 1.335 1.352.443 1.208.443 1.921-.15 1.36-.449 1.932a3.24 3.24 0 0 1-1.341 1.352c-.599.333-1.343.494-2.244.494h-2.852V67.42h2.693c.572 0 1.036-.099 1.392-.296a1.84 1.84 0 0 0 .784-.818c.167-.344.25-.737.25-1.176s-.083-.83-.25-1.171-.43-.608-.79-.801-.826-.29-1.409-.29h-2.204V73h-1.756zm13.434 0V61.364h4.148c.901 0 1.65.155 2.244.466a3.09 3.09 0 0 1 1.341 1.29c.296.545.443 1.176.443 1.892s-.15 1.339-.449 1.881-.742.957-1.341 1.256-1.343.449-2.244.449h-3.142v-1.511h2.983c.568 0 1.03-.081 1.386-.244s.623-.4.79-.71.25-.684.25-1.119-.085-.82-.256-1.142a1.65 1.65 0 0 0-.79-.739c-.356-.174-.824-.261-1.403-.261h-2.205V73h-1.756zm5.744-5.25L66.907 73h-2l-2.818-5.25h1.943zM29.683 53v-4.545l8.682-7.182 1.477-1.341c.417-.424.735-.86.955-1.307a3.24 3.24 0 0 0 .341-1.489c0-.599-.129-1.11-.386-1.534a2.5 2.5 0 0 0-1.045-.977c-.447-.235-.962-.352-1.545-.352s-1.098.117-1.545.352a2.46 2.46 0 0 0-1.023 1.034c-.243.454-.364 1.008-.364 1.659h-6c0-1.636.367-3.045 1.102-4.227s1.773-2.091 3.114-2.727 2.913-.955 4.716-.955c1.864 0 3.477.299 4.841.898 1.371.591 2.428 1.424 3.171 2.5.75 1.076 1.125 2.337 1.125 3.784 0 .894-.186 1.784-.557 2.671-.371.879-1.038 1.852-2 2.92S42.41 44.523 40.637 46l-2.182 1.818v.136h9.091V53H29.683zm21.733 0l9.136-18.091v-.136H49.825v-5.045h17.273v5.045L57.916 53h-6.5z" fill="#5f5cf4"/></svg>