<svg width="16" height="16" viewBox="0 0 16 16" fill="none" xmlns="http://www.w3.org/2000/svg">
<path d="M5.78272 4.56438L3.64098 6.72578L3.64098 6.72574L3.64098 4L2 4L2 5.09194L2 7.40248L2 7.40253L2 8.35958L2 8.3596L2 10.2055L2 11.778L3.64098 11.778L3.64098 9.03637L3.64098 9.03633L5.78272 11.1977L6.92779 10.0424L4.7761 7.88103L6.92881 5.71968L5.78272 4.56438Z" fill="#222222"/>
<path d="M10.75 4.62805C8.95509 4.62805 7.5 6.09099 7.5 7.89567C7.5 9.70034 8.95509 11.1633 10.75 11.1633C12.5449 11.1633 14.0001 9.70034 14.0001 7.89567C14.0001 6.09099 12.5449 4.62805 10.75 4.62805ZM10.75 9.52947C9.85397 9.52947 9.12501 8.79656 9.12501 7.89567C9.12501 6.99478 9.85397 6.26187 10.75 6.26187C11.6461 6.26187 12.3751 6.99478 12.3751 7.89567C12.3751 8.79656 11.6461 9.52947 10.75 9.52947Z" fill="#222222"/>
</svg>
