<svg width="96" height="109" viewBox="0 0 96 109" fill="none" xmlns="http://www.w3.org/2000/svg">
<circle cx="48" cy="48" r="48" fill="#A2E2EB"/>
<path d="M55.5262 17.1026C51.7284 17.7295 51.1502 21.713 51.3342 23.8158L51.3999 39.8151C50.572 38.7181 49.8624 37.8169 49.4288 37.2291C48.0358 35.3484 46.0909 35.1525 45.0396 35.4137L32.9236 35.8055C31.4387 35.7925 28.3374 36.6545 27.6146 39.8021C27.3387 40.9775 27.5883 42.1008 28.206 42.9889C25.7486 43.5897 25.1309 45.1831 25.0784 45.4182L25.0127 45.7316L24.014 55.8928C23.9745 56.0496 24.0271 56.2194 24.0665 56.4022L25.3938 61.4828C25.8143 63.6378 27.3518 68.1046 33.8172 73.9427C35.7621 75.6145 36.2089 76.8814 36.3666 77.3254L28.4819 106.542C28.3242 107.247 28.8104 108.018 29.5201 108.175C30.2297 108.331 31.005 107.848 31.1627 107.143L39.0868 77.5866C39.1262 77.4299 39.0605 77.3385 39.0999 77.1818C39.0342 76.7508 38.7582 74.7133 35.5912 71.853C29.612 66.4589 28.4556 62.4885 28.206 61.0257C28.1403 60.9343 28.1665 60.8559 28.1665 60.8559L26.8919 55.9451L27.7855 46.2541C27.9826 46.1365 28.4425 45.5749 29.9274 45.588C31.7672 45.5096 32.3848 46.8026 32.5556 47.1683L33.1733 53.1632C33.2127 53.333 33.4755 55.1223 34.6845 56.7157C35.2364 57.5777 36.1957 58.4527 37.5624 59.0143C38.4428 59.5368 39.4284 59.9286 40.4534 60.1637C43.9227 60.9473 47.4576 60.02 49.1659 58.3483C49.7047 57.8128 49.731 56.9899 49.1791 56.4545C48.6403 55.919 47.8124 55.8928 47.2736 56.4414C46.9714 56.7026 46.4852 57.003 45.9332 57.212C47.2079 55.6055 48.1409 53.7509 48.338 53.2285C48.5089 52.8497 48.522 52.4448 48.3512 52.0791L44.3432 43.5113C44.1198 43.0542 43.6204 42.6885 43.1079 42.7407L33.5412 42.8844C32.8973 42.8191 31.0838 42.4142 30.4531 41.5261C30.3348 41.3302 30.164 40.9645 30.2954 40.4159C30.7028 38.6136 32.963 38.5483 33.0419 38.5613L45.3288 38.1303C45.4076 38.1434 45.4864 38.1695 45.5784 38.1042C45.6704 38.0389 46.6166 37.9213 47.2473 38.8095C49.7047 42.1661 58.5487 53.1632 58.9429 53.6595C58.9297 53.7378 59.0086 53.7509 59.0086 53.7509C59.1531 53.8684 61.6894 56.9116 59.7313 62.9064L59.7182 62.9848L52.5826 106.568C52.4249 107.274 52.9111 108.044 53.6208 108.201C54.3304 108.358 55.1057 107.874 55.2634 107.169L62.3727 63.5725C62.6618 62.6452 62.8589 61.7832 62.9772 60.9081L72.3073 36.8896L72.3468 36.7328C72.5964 35.6357 72.465 33.2979 70.1259 31.9396C69.0878 31.3779 68.2073 31.2604 67.4451 31.3388L68.3519 26.6761C68.3913 26.5194 68.7987 24.717 67.6554 23.215C67.2349 22.5359 66.3281 21.7653 64.6198 21.6216C63.0692 21.5171 61.9259 22.1702 61.0586 23.0452L60.9666 21.6216C60.9403 21.3735 60.7958 19.114 59.1794 17.834C58.5486 17.2855 57.3397 16.7761 55.5262 17.1026ZM35.1182 46.4369C35.013 46.1626 34.9079 45.9014 34.7239 45.601L42.2143 45.4835L45.539 52.6669C44.6323 54.4431 43.0291 56.7157 41.9384 56.794C36.5768 57.3948 35.8672 53.2676 35.8146 52.7713L35.1313 46.6851C35.1576 46.6198 35.1707 46.5414 35.1182 46.4369ZM65.4608 24.7954C65.7894 25.2002 65.6842 25.9969 65.658 26.0753L62.2019 44.4125L61.3608 29.6278L62.2281 26.1929C62.2807 25.9578 63.0298 24.1423 64.3307 24.2729L64.7249 24.3644C65.1192 24.4688 65.3294 24.5995 65.4608 24.7954ZM68.733 34.3558C69.6923 34.9043 69.7448 35.7402 69.666 36.0537L63.6999 51.5959L66.8538 34.5909L66.8669 34.5125C67.1035 34.2382 67.708 33.7942 68.733 34.3558ZM54.0544 23.5285C54.0938 23.3717 53.7522 20.1588 56.1044 19.6233C57.0374 19.5058 57.4054 19.7539 57.5368 19.8715C58.1018 20.3286 58.2595 21.4388 58.2858 21.6869L58.7195 29.5364L58.7063 29.6148L59.8496 50.3159C58.4829 48.6834 56.2227 45.8622 54.1727 43.2632L54.0938 23.7113C54.0413 23.6068 54.0413 23.6068 54.0544 23.5285Z" fill="black"/>
</svg>
