<svg width="96" height="107" viewBox="0 0 96 107" fill="none" xmlns="http://www.w3.org/2000/svg">
<circle cx="48" cy="48" r="48" fill="#B4FFE4"/>
<path d="M85.5355 49.6994C83.0911 47.7124 80.6728 48.8628 79.6663 49.6863C79.6532 49.7647 79.5748 49.7386 79.5486 49.817L73.5617 56.3529L78.9212 35.4772C79.5617 33.072 78.1238 30.5622 75.6402 29.8956C74.9082 29.6995 74.2154 29.6733 73.5487 29.8041L73.7056 29.2158C74.3722 26.7322 72.9212 24.2355 70.4376 23.5688C68.4638 23.0459 66.4507 23.8302 65.3919 25.425C64.8298 24.8891 64.1631 24.4708 63.3527 24.2485C60.869 23.5819 58.3723 25.0328 57.7056 27.5165L56.6076 31.608C56.0978 31.1635 55.4834 30.8367 54.7514 30.6406C52.2678 29.974 49.7711 31.425 49.1044 33.9086L47.3266 40.6275L46.7515 38.4314C46.0848 35.9478 43.5881 34.5099 41.1044 35.1635C40.3724 35.3596 39.758 35.6864 39.2482 36.1308L38.1502 32.0393C37.4835 29.5557 34.9868 28.1178 32.5032 28.7714C31.7058 28.9805 31.0261 29.3988 30.464 29.9478C29.4052 28.3531 27.3921 27.5557 25.4182 28.0916C22.9346 28.7583 21.4967 31.255 22.1503 33.7387L22.3072 34.3269C21.6405 34.1962 20.9477 34.2223 20.2157 34.4184C17.732 35.0851 16.2941 37.5818 16.9346 40.0001L22.2941 60.8758L16.3072 54.3398C16.281 54.2614 16.2157 54.2876 16.1896 54.2091C15.183 53.3856 12.7647 52.2353 10.3203 54.2222C8.25494 55.8692 9.0654 58.3137 9.73206 59.3202C10.5425 60.5882 17.732 71.66 19.2483 73.2155C19.4575 73.3986 19.6797 73.6469 19.8104 73.843C21.366 75.5423 23.5621 77.9214 28.3725 78.0521C29.7842 78.0652 29.9673 78.7188 29.9803 78.7972L30.0326 79.0194L36.2678 105.869C36.2678 105.869 36.6339 107.072 37.7319 106.954C38.9476 106.81 38.8038 105.464 38.8038 105.464L32.5424 78.4312C32.4117 77.3724 31.379 75.5293 28.4509 75.4508C24.7385 75.3462 23.1045 73.5946 21.6797 72.0914C21.4575 71.843 21.2483 71.66 21.0261 71.4116C20.0327 70.3397 14.817 62.5751 11.8497 57.8954C11.719 57.6993 11.1569 56.7451 11.8628 56.1699C13.0262 55.2287 14.0458 55.817 14.3334 56.0523C14.3334 56.0523 20.3333 62.6666 20.4118 62.6404C20.6209 62.8235 21.4314 63.5424 22.4379 63.5032C22.3856 63.9084 22.2287 64.1829 22.0326 64.3136C21.4313 64.7058 21.3398 65.5162 21.732 66.1175C22.0849 66.5751 22.6078 66.745 23.1176 66.6143C23.2614 66.5751 23.4052 66.5359 23.5359 66.4182C25.8365 64.7842 24.9085 61.0326 24.5947 59.8692L19.7189 39.3334C19.4314 38.2354 20.0719 37.1243 21.1568 36.8367C22.2549 36.5491 23.366 37.1896 23.6535 38.2746L27.2222 51.5686C27.3921 52.2222 28.1372 52.6536 28.7908 52.4837C29.4444 52.3137 29.8757 51.5686 29.7058 50.915L26.1764 37.7648L24.9607 33.2419C24.6731 32.1439 25.3137 31.0328 26.3986 30.7452C27.4967 30.4576 28.6078 31.0982 28.8954 32.1831L33.8626 50.7451C34.0326 51.3987 34.7777 51.8301 35.4313 51.6601C36.0849 51.4902 36.5162 50.7451 36.3463 50.0915L32.0195 33.9478C31.7319 32.8498 32.3724 31.7387 33.4574 31.4511C34.5554 31.1635 35.6666 31.804 35.9541 32.889L40.9606 51.5948C41.1306 52.2484 41.8757 52.6797 42.5293 52.5098C43.1829 52.3399 43.6142 51.5948 43.4443 50.9412L43.2482 50.2092L40.5815 40.2746C40.294 39.1765 40.9345 38.0654 42.0194 37.7779C43.1175 37.4903 44.2286 38.1308 44.5162 39.2158L49.5488 58.8496C50.1501 60.7973 51.3527 66.745 49.5357 69.0326C49.2351 69.3463 47.8103 71.0587 48.0978 73.0195L55.9671 98.0128L57.1828 101.908L56.4638 105.294C56.32 105.987 56.7645 106.679 57.4573 106.823C57.5488 106.836 57.6403 106.849 57.7318 106.849C58.2939 106.849 58.8037 106.483 58.9605 105.921C59.0913 105.974 59.235 106 59.3788 106C59.4965 106 59.6272 105.987 59.7579 105.947C60.4246 105.738 60.7906 105.032 60.5814 104.366L59.8102 101.908L60.5292 98.5226C60.5292 98.5095 60.5292 98.5095 60.5292 98.4964L65.7056 74.5227L65.7579 74.3005C65.771 74.2221 65.954 73.5685 67.3657 73.5554C72.1761 73.4378 74.3853 71.0456 75.9278 69.3463C76.0585 69.1502 76.2807 68.8888 76.4899 68.7188C78.0062 67.1633 85.1957 56.0915 86.0061 54.8235C86.7904 53.7908 87.6009 51.3464 85.5355 49.6994ZM84.0061 53.3595C81.0258 58.0392 75.8101 65.8038 74.8297 66.8757C74.6075 67.1241 74.3983 67.3071 74.1761 67.5555C72.7513 69.0587 71.1173 70.8103 67.4049 70.9149C64.4899 70.9933 63.4442 72.8234 63.3135 73.8953L58.3592 96.8494L58.0194 95.7775C58.0063 95.7383 57.9932 95.686 57.9671 95.6468L50.6599 72.5358C50.5815 71.9345 51.1305 71.0848 51.4312 70.758L51.4835 70.6665C54.49 66.9672 52.2808 59.0196 51.9671 58.1699L48.5554 45.2288L51.2612 34.6406C51.5488 33.5426 52.673 32.9021 53.7579 33.2027C54.856 33.4903 55.4965 34.6145 55.1958 35.6994L52.5292 45.634L52.3331 46.366C52.1632 47.0196 52.5815 47.7647 53.2482 47.9347C53.9017 48.1046 54.6468 47.6863 54.8168 47.0196L59.8233 28.3139C60.1109 27.2158 61.235 26.5753 62.32 26.876C63.418 27.1635 64.0585 28.2877 63.7579 29.3727L59.4311 45.5164C59.2612 46.17 59.6795 46.9151 60.3462 47.085C60.9998 47.2549 61.7448 46.8366 61.9148 46.17L66.8821 27.608C67.1696 26.51 68.2938 25.8694 69.3788 26.1701C70.4768 26.4577 71.1173 27.5818 70.8167 28.6668L69.601 33.1897L66.0716 46.3399C65.9017 46.9935 66.32 47.7386 66.9866 47.9085C67.6402 48.0784 68.3853 47.6602 68.5552 46.9935L72.1238 33.6995C72.4114 32.6014 73.5356 31.9609 74.6206 32.2616C75.7186 32.5491 76.3591 33.6733 76.0585 34.7583L71.1827 55.2941C70.869 56.4575 69.9409 60.2091 72.2415 61.8431C72.3722 61.9607 72.516 61.9999 72.6598 62.0391C73.1696 62.1699 73.6925 61.9999 74.0454 61.5424C74.4376 60.9411 74.3461 60.1307 73.7448 59.7385C73.5487 59.6078 73.3787 59.3333 73.3395 58.9281C74.3461 58.9673 75.1696 58.2483 75.3657 58.0653C75.4441 58.0915 81.4441 51.4771 81.4441 51.4771C81.7447 51.2418 82.7643 50.6536 83.9146 51.5948C84.6989 52.2091 84.1369 53.1503 84.0061 53.3595Z" fill="black"/>
<path d="M44.7512 24.7712C44.0322 24.7712 43.457 24.196 43.457 23.477V11.2941C43.457 10.5752 44.0322 10 44.7512 10C45.4701 10 46.0453 10.5752 46.0453 11.2941V23.4901C46.0322 24.196 45.457 24.7712 44.7512 24.7712Z" fill="black"/>
<path d="M52.6596 24.7713C52.5158 24.7713 52.359 24.7451 52.2152 24.6928C51.5485 24.4445 51.1956 23.7124 51.4439 23.0327L53.823 16.4837C54.0714 15.8171 54.8034 15.4641 55.4831 15.7125C56.1498 15.9609 56.5027 16.6929 56.2544 17.3726L53.8753 23.9216C53.6792 24.4445 53.1956 24.7713 52.6596 24.7713Z" fill="black"/>
<path d="M36.8297 24.7713C36.3068 24.7713 35.8101 24.4445 35.614 23.9216L33.235 17.3726C32.9866 16.706 33.3395 15.9609 34.0062 15.7125C34.6729 15.4641 35.418 15.8171 35.6663 16.4837L38.0454 23.0327C38.2938 23.6994 37.9408 24.4445 37.2742 24.6928C37.1304 24.7451 36.9735 24.7713 36.8297 24.7713Z" fill="black"/>
</svg>
