<svg width="96" height="109" fill="none" xmlns="http://www.w3.org/2000/svg"><circle cx="48" cy="48" r="48" fill="#A2E2EB"/><path d="M55.526 17.103c-3.798.627-4.376 4.61-4.192 6.713l.066 16c-.828-1.098-1.538-2-1.971-2.587-1.393-1.88-3.338-2.076-4.39-1.815l-12.115.392c-1.485-.014-4.587.849-5.31 3.996a3.933 3.933 0 0 0 .592 3.187c-2.457.6-3.075 2.194-3.128 2.43l-.065.313-.999 10.16c-.04.158.013.327.053.51l1.327 5.08c.42 2.156 1.958 6.623 8.423 12.46 1.945 1.673 2.392 2.94 2.55 3.383l-7.885 29.217c-.158.705.328 1.476 1.038 1.633.71.156 1.485-.327 1.643-1.032l7.924-29.556c.04-.157-.027-.249.013-.405-.066-.431-.342-2.469-3.509-5.329-5.979-5.394-7.135-9.364-7.385-10.827-.066-.092-.04-.17-.04-.17l-1.274-4.91.893-9.692c.198-.117.657-.68 2.142-.666 1.84-.078 2.458 1.215 2.629 1.58l.617 5.995c.04.17.302 1.96 1.511 3.553.552.862 1.512 1.737 2.878 2.298.88.523 1.866.915 2.891 1.15 3.47.783 7.005-.144 8.713-1.816.539-.535.565-1.358.013-1.893-.539-.536-1.367-.562-1.905-.014a4.686 4.686 0 0 1-1.34.771c1.274-1.607 2.207-3.461 2.404-3.984.17-.378.184-.783.013-1.149l-4.008-8.568c-.223-.457-.723-.823-1.235-.77l-9.567.143c-.644-.065-2.457-.47-3.088-1.358-.118-.196-.289-.562-.158-1.11.408-1.802 2.668-1.868 2.747-1.855l12.287-.43c.079.012.157.038.25-.027.091-.065 1.038-.183 1.668.706 2.458 3.356 11.302 14.353 11.696 14.85-.013.078.066.09.066.09.144.118 2.68 3.162.722 9.156l-.013.079-7.135 43.583c-.158.706.328 1.476 1.038 1.633.71.157 1.485-.327 1.642-1.032l7.11-43.596c.289-.928.486-1.79.604-2.665l9.33-24.018.04-.157a4.455 4.455 0 0 0-2.221-4.793c-1.038-.562-1.919-.68-2.68-.601l.906-4.663c.04-.157.447-1.959-.697-3.461-.42-.68-1.327-1.45-3.035-1.593-1.55-.105-2.694.548-3.561 1.423l-.092-1.423c-.027-.248-.171-2.508-1.788-3.788-.63-.549-1.84-1.058-3.653-.731zM35.118 46.437a4.736 4.736 0 0 0-.394-.836l7.49-.117 3.325 7.183c-.907 1.776-2.51 4.049-3.6 4.127-5.362.6-6.072-3.526-6.124-4.023l-.684-6.086a.279.279 0 0 0-.013-.248zm30.343-21.642c.328.405.223 1.202.197 1.28l-3.456 18.338-.841-14.785.867-3.435c.053-.235.802-2.05 2.103-1.92l.394.091c.394.105.604.235.736.431zm3.272 9.56c.96.55 1.012 1.385.933 1.699L63.7 51.596l3.154-17.005.013-.078c.236-.275.841-.719 1.866-.157zM54.054 23.53c.04-.157-.302-3.37 2.05-3.906.933-.117 1.301.13 1.433.248.565.458.723 1.568.749 1.816l.433 7.85-.013.078 1.144 20.7c-1.367-1.632-3.627-4.453-5.677-7.052l-.08-19.552c-.052-.104-.052-.104-.039-.182z" fill="#000"/></svg>