<svg width="96" height="68" fill="none" xmlns="http://www.w3.org/2000/svg"><path d="M.367 4.692a4.898 4.898 0 0 0 1.921 4.4 16.289 16.289 0 0 0 3.172 2.055c1.718.93 3.404 1.88 5.205 2.672a119.409 119.409 0 0 0 11.837 4.37c.97.31 1.942.612 2.916.909a51.034 51.034 0 0 0-5.936-.363l-.109-.059a14.631 14.631 0 0 0-9.545-1.481l-.182.042c.265.026.145.044-.366.059l-.542.142v-.001c-.44.13-.87.286-1.29.47-.814.37-1.54.907-2.133 1.577a5.258 5.258 0 0 0-1.298 3.405 11.485 11.485 0 0 0-2.697 3.068 10.49 10.49 0 0 0-.347 9.507 20.09 20.09 0 0 0 1.352 2.481c.529.817 1.106 1.601 1.73 2.347a30.323 30.323 0 0 0 4.28 4.18 55.695 55.695 0 0 0 9.98 6.225 92.054 92.054 0 0 0 5.767 2.7l-.383.21v.002a7.402 7.402 0 0 0-3.572 7.027 7.009 7.009 0 0 0 4.295 5.176 21.89 21.89 0 0 0 7.325 1.94c2.132.288 4.293.298 6.428.031a32.965 32.965 0 0 0 8.477-2.477 19.578 19.578 0 0 0 6.46-4.311c1.559.105 3.122.084 4.678-.062a15.776 15.776 0 0 0 8.793-3.519 5.636 5.636 0 0 0 .462-8.89 18.75 18.75 0 0 0-.986-.967c.37-1.51.526-3.066.461-4.62a23.552 23.552 0 0 0-2.782-9.619 39.59 39.59 0 0 0-2.86-4.805c5.51 2.224 10.84 4.82 16.29 7.15a66.483 66.483 0 0 0 10.758 3.871c1.189.281 2.333.656 3.513.955 1.383.351 3.659.42 4.344-1.627a2.04 2.04 0 0 0-.44-2.415 36.762 36.762 0 0 0-10.938-5.92c-3.94-1.422-7.976-2.636-12.045-3.758-4.577-1.263-9.189-2.444-13.802-3.622-.792-.254-1.588-.5-2.388-.738a48.808 48.808 0 0 0-5.94-5.818A77.716 77.716 0 0 0 29.29 4.272 59.177 59.177 0 0 0 10.313.102a13.995 13.995 0 0 0-7.384 1.11 4.869 4.869 0 0 0-2.562 3.48zm10.26 21.359-.045-.047h.001a14.035 14.035 0 0 1-1.574-2.04 24.538 24.538 0 0 1 1.595-.536 25.32 25.32 0 0 1 5.075-.99c.721-.06 1.44-.097 2.154-.111.354.206.7.424 1.032.658.468.33.915.69 1.34 1.076l.436.419.616.728a10.447 10.447 0 0 1 1.838 3.534 28.595 28.595 0 0 1 1.287 5.853 54.893 54.893 0 0 1-6.268-3.039 43.185 43.185 0 0 1-4.865-3.258 34.33 34.33 0 0 1-1.936-1.592l-.457-.428-.23-.227zm17.117 9.838c.01-1.623.09-3.244-.037-4.85a15.797 15.797 0 0 0-1.317-5.286 13.757 13.757 0 0 0-1.873-3.039c.57.07 1.137.15 1.704.236 1.503.228 3.008.498 4.513.81h.001a6.801 6.801 0 0 0 1.267 3.773 30.14 30.14 0 0 0 2.44 3.4 28.733 28.733 0 0 0 3.792 3.695 29.4 29.4 0 0 0-5.782-1.072 2.375 2.375 0 0 0-1.935.979 2.492 2.492 0 0 0-.443 2.114l.006.033-1.27-.42-1.066-.373zm27.577-1.005.382.377.397.44c.366.421.701.868 1.001 1.338l.28.492c-.113-.205.144.34.19.473l.113.48.006.112.003.05-.025.133-.01.026-.03.066-.112.143-.011.014-.284.238-.258.186-.577.296-.583.243c.388-.15-.265.068-.28.071h.002c-.355.096-.715.175-1.078.235a80.788 80.788 0 0 0-7.993-5.376 39.055 39.055 0 0 1-8.802-6.924 26.542 26.542 0 0 1-2.295-3.128 62.6 62.6 0 0 1 12.727 4.933 32.634 32.634 0 0 1 7.236 5.082zm-4.247 9.949 1.394-.067.402.353a20.641 20.641 0 0 1 3.507 4.072c.238.362.47.729.685 1.106l.26.504.014.029a16.062 16.062 0 0 1-4.52-1.106 31.741 31.741 0 0 1-5.182-2.243 38.449 38.449 0 0 1-4.523-3.089c2.638.363 5.301.511 7.962.44zm3.662-16.074-.173-.118a45.857 45.857 0 0 0-5.662-3.199c1.299.326 2.598.65 3.9.968a57.261 57.261 0 0 1 1.935 2.35v-.002zM19.575 45.757a62.317 62.317 0 0 1-4.659-2.706 40.897 40.897 0 0 1-4.58-3.422 31.043 31.043 0 0 1-1.967-1.869l-.3-.31-.391-.429c-.35-.39-.68-.794-1.002-1.207a20.316 20.316 0 0 1-1.489-2.167l-.244-.424-.19-.384a11.355 11.355 0 0 1-.442-1.108 5.718 5.718 0 0 1-.2-3.56l.03-.172.196-.453.165-.322c-.071.137.135-.217.17-.27l.34-.45.338.59v-.002a15.003 15.003 0 0 0 1.966 2.522 33.838 33.838 0 0 0 8.662 6.26A76.62 76.62 0 0 0 34.132 42.6c.463.442.939.872 1.414 1.298h-.001a61.073 61.073 0 0 0 8.866 6.99 33.485 33.485 0 0 0 6.17 2.952l-.556.031-1.376.04a41.734 41.734 0 0 1-2.97-.064h.001a46.985 46.985 0 0 1-5.637-.667l-.169-.03-.16-.032-.664-.132-1.325-.29c-.953-.221-1.896-.47-2.833-.735a69.608 69.608 0 0 1-5.293-1.74 89.406 89.406 0 0 1-10.024-4.463zm24.4 17.575c-1.488.54-3.017.961-4.572 1.258-.54.108-1.086.192-1.625.258l-.116.013-.2.017-.777.037.001.001a28.86 28.86 0 0 1-6.802-.614 19.047 19.047 0 0 1-3.506-1.11 6.304 6.304 0 0 1-1.228-.65 7.352 7.352 0 0 1-1.169-.922l-.156-.172-.211-.275-.336-.538c.097.168-.127-.351-.158-.455l-.07-.269c.048.203-.02-.215-.025-.283a4.414 4.414 0 0 1-.004-.368v-.043l.008-.073h.001c.037-.273.092-.541.168-.805l.016-.062.041-.108.176-.424.174-.337c-.115.215.157-.216.203-.276l.19-.226c-.114.13.124-.114.17-.155l.324-.259.062-.048.044-.025v.001c.242-.143.492-.27.751-.38l.258-.103.451-.132c.29-.078.583-.135.874-.185l.452-.068.3-.033a16.487 16.487 0 0 1 1.872-.03 66.467 66.467 0 0 0 9.97 2.552c.886.154 1.781.281 2.684.384a47.773 47.773 0 0 0 5.497 1.752c.627.147 1.26.278 1.9.391a24.634 24.634 0 0 1-5.632 2.764zm20.982-11.825c.203.268.385.551.544.846l.073.175.137.419.028.113.02.396-.02.121-.058.223-.114.253-.028.054-.064.091-.335.415-.003.002-.139.133H65c-.329.3-.679.575-1.05.822l-.346.211-.538.3c-.364.191-.737.358-1.112.513-.747.293-1.52.516-2.306.67a18.54 18.54 0 0 1-3.97.361 16.853 16.853 0 0 0 6.507-3.505 12.33 12.33 0 0 0 2.45-3.014l.323.4zm-3.166-8.649c.043.367.07.74.089 1.114l.014.531a47.283 47.283 0 0 0-2.989-1.638l-.002.002a6.596 6.596 0 0 0 1.96-1.947l.364-.666c.167.57.314 1.154.435 1.746l.055.307.074.551zM6.483 4.428l.669-.045.874-.019c.614-.003 1.224.017 1.832.051.906.05 1.803.138 2.696.238 7.447.98 14.65 3.33 21.242 6.932 1.385.726 3.324 1.858 4.869 2.833a69.044 69.044 0 0 1 7.138 5.19 32.25 32.25 0 0 0-3.058-.62c-6.596-1.81-13.146-3.72-19.606-5.866A113.145 113.145 0 0 1 11.37 8.654C9.934 7.99 8.52 7.283 7.108 6.578l-.478-.25-.825-.51a7.35 7.35 0 0 1-.758-.57l-.196-.183-.196-.253.004-.002.116-.047.165-.05v.002a9.206 9.206 0 0 1 1.543-.288z" fill="#222"/></svg>