<svg width="67" height="96" fill="none" xmlns="http://www.w3.org/2000/svg"><path fill-rule="evenodd" clip-rule="evenodd" d="M0 14.77C0 6.611 6.612 0 14.77 0h36.922c8.157 0 14.77 6.612 14.77 14.77v66.46c0 8.158-6.613 14.77-14.77 14.77H14.77C6.612 96 0 89.388 0 81.23V14.77zm14.77-7.385a7.385 7.385 0 0 0-7.385 7.384v66.462a7.385 7.385 0 0 0 7.384 7.384h36.923a7.385 7.385 0 0 0 7.385-7.384V14.769a7.385 7.385 0 0 0-7.385-7.384H14.77zm3.692 24a3.692 3.692 0 0 1 3.692-3.693h7.384a3.692 3.692 0 0 1 0 7.385h-7.384a3.692 3.692 0 0 1-3.692-3.692zm0 12.923a3.692 3.692 0 0 1 3.692-3.693h22.154a3.692 3.692 0 0 1 0 7.385H22.154a3.692 3.692 0 0 1-3.692-3.692zm0 12.923a3.692 3.692 0 0 1 3.692-3.693h22.154a3.692 3.692 0 0 1 0 7.385H22.154a3.692 3.692 0 0 1-3.692-3.692zm0 12.923a3.692 3.692 0 0 1 3.692-3.692h22.154a3.692 3.692 0 0 1 0 7.384H22.154a3.692 3.692 0 0 1-3.692-3.692z" fill="#999"/></svg>