<svg width="96" height="107" fill="none" xmlns="http://www.w3.org/2000/svg"><circle cx="48" cy="48" r="48" fill="#B4FFE4"/><path d="M85.535 49.7c-2.444-1.988-4.862-.837-5.869-.014-.013.079-.091.053-.118.131l-5.987 6.536 5.36-20.876c.64-2.405-.797-4.915-3.281-5.581a4.57 4.57 0 0 0-2.091-.092l.156-.588c.667-2.484-.784-4.98-3.268-5.647-1.974-.523-3.987.261-5.045 1.856a4.74 4.74 0 0 0-2.04-1.177c-2.483-.666-4.98.785-5.647 3.268l-1.098 4.092a4.579 4.579 0 0 0-1.856-.967c-2.483-.667-4.98.784-5.647 3.268l-1.778 6.718-.575-2.196a4.594 4.594 0 0 0-5.647-3.267 4.58 4.58 0 0 0-1.856.967l-1.098-4.092a4.594 4.594 0 0 0-5.647-3.268 4.561 4.561 0 0 0-2.04 1.177c-1.058-1.595-3.071-2.392-5.045-1.856a4.594 4.594 0 0 0-3.268 5.647l.157.588a4.571 4.571 0 0 0-2.092.091c-2.483.667-3.921 3.164-3.28 5.582l5.359 20.876-5.987-6.536c-.026-.079-.091-.052-.118-.13-1.006-.824-3.425-1.975-5.869.012-2.065 1.647-1.255 4.092-.588 5.098.81 1.268 8 12.34 9.516 13.896.21.183.431.43.562.627 1.556 1.7 3.752 4.078 8.562 4.21 1.412.012 1.595.666 1.608.744l.052.222 6.236 26.85s.366 1.203 1.464 1.085c1.215-.144 1.072-1.49 1.072-1.49l-6.262-27.033c-.13-1.059-1.163-2.902-4.091-2.98-3.713-.105-5.347-1.856-6.771-3.36-.223-.248-.432-.431-.654-.68-.994-1.071-6.21-8.836-9.176-13.516-.131-.196-.693-1.15.013-1.725 1.163-.941 2.183-.353 2.47-.118 0 0 6 6.615 6.079 6.588.209.184 1.02.902 2.026.863-.053.405-.21.68-.406.81-.6.393-.692 1.203-.3 1.805.353.457.876.627 1.385.496.144-.039.288-.078.419-.196 2.3-1.634 1.372-5.385 1.058-6.549L19.72 39.333a2.035 2.035 0 0 1 1.438-2.496 2.035 2.035 0 0 1 2.496 1.438l3.569 13.294c.17.653.915 1.085 1.569.915.653-.17 1.084-.915.915-1.569l-3.53-13.15-1.215-4.523a2.035 2.035 0 0 1 1.437-2.497 2.035 2.035 0 0 1 2.497 1.438l4.967 18.562c.17.654.915 1.085 1.569.915.654-.17 1.085-.915.915-1.568l-4.327-16.144a2.035 2.035 0 0 1 1.438-2.497 2.035 2.035 0 0 1 2.497 1.438l5.006 18.706c.17.653.915 1.085 1.569.915.654-.17 1.085-.915.915-1.569l-.196-.732-2.667-9.934a2.035 2.035 0 0 1 1.438-2.497 2.035 2.035 0 0 1 2.497 1.438l5.033 19.634c.6 1.947 1.803 7.895-.014 10.183-.3.313-1.725 2.026-1.437 3.986l7.869 24.994 1.215 3.895-.718 3.386c-.144.693.3 1.385.993 1.529.091.013.183.026.275.026a1.27 1.27 0 0 0 1.228-.928c.131.053.275.079.419.079.117 0 .248-.013.379-.053a1.258 1.258 0 0 0 .823-1.581l-.771-2.458.719-3.385v-.027l5.176-23.973.053-.222c.013-.079.196-.733 1.608-.746 4.81-.117 7.019-2.51 8.561-4.209.131-.196.353-.457.563-.627 1.516-1.556 8.705-12.627 9.516-13.895.784-1.033 1.595-3.478-.47-5.125zm-1.53 3.66c-2.98 4.68-8.195 12.444-9.175 13.516-.223.248-.432.431-.654.68-1.425 1.503-3.059 3.254-6.771 3.359-2.915.078-3.961 1.908-4.092 2.98L58.36 96.85l-.34-1.072c-.013-.039-.026-.091-.052-.13L50.66 72.536c-.079-.602.47-1.451.77-1.778l.053-.091c3.007-3.7.798-11.647.484-12.497l-3.412-12.941 2.706-10.588a2.02 2.02 0 0 1 2.497-1.438 2.02 2.02 0 0 1 1.438 2.496l-2.667 9.935-.196.732c-.17.654.248 1.399.915 1.569.654.17 1.399-.249 1.569-.915l5.006-18.706a2.02 2.02 0 0 1 2.497-1.438 2.02 2.02 0 0 1 1.438 2.497L59.43 45.516c-.17.654.248 1.4.915 1.569.654.17 1.399-.248 1.569-.915l4.967-18.562a2.02 2.02 0 0 1 2.496-1.438 2.02 2.02 0 0 1 1.438 2.497l-1.215 4.523-3.53 13.15c-.17.653.249 1.399.915 1.568.654.17 1.4-.248 1.569-.915L72.124 33.7a2.02 2.02 0 0 1 2.496-1.437 2.02 2.02 0 0 1 1.438 2.496l-4.876 20.536c-.313 1.164-1.241 4.915 1.06 6.55.13.117.274.156.418.195.51.13 1.032-.04 1.385-.497.392-.6.3-1.411-.3-1.803-.197-.131-.367-.406-.406-.81 1.007.038 1.83-.68 2.026-.864.079.027 6.079-6.588 6.079-6.588.3-.235 1.32-.823 2.47.118.785.614.223 1.555.092 1.764zM44.751 24.771a1.289 1.289 0 0 1-1.294-1.294V11.294c0-.719.575-1.294 1.294-1.294.72 0 1.294.575 1.294 1.294V23.49a1.303 1.303 0 0 1-1.294 1.281zM52.66 24.771a1.294 1.294 0 0 1-1.216-1.739l2.38-6.548a1.294 1.294 0 1 1 2.43.889l-2.378 6.549c-.197.523-.68.85-1.216.85zM36.83 24.771c-.523 0-1.02-.326-1.216-.85l-2.379-6.548a1.299 1.299 0 0 1 .771-1.66 1.299 1.299 0 0 1 1.66.77l2.38 6.55a1.299 1.299 0 0 1-1.216 1.738z" fill="#000"/></svg>