<svg width="96" height="96" fill="none" xmlns="http://www.w3.org/2000/svg"><path d="M94.56 35.715v-.408C90.066 18.776 76.384 5.51 59.436 1.429 55.76.612 51.88 0 48.002 0c-13.477 0-26.75 5.51-35.735 15.51C-2.231 31.226-4.07 54.9 7.774 72.858l.205.408v.409L6.753 83.47v.204c-.408 3.265-.816 6.53-1.225 10-.204 1.02.613 1.633 1.021 1.837.817.408 1.634.612 2.45.408 3.268-.816 6.535-1.837 9.802-2.653h.204c3.268-.816 6.535-1.837 9.802-2.653h.408l.409.204c17.56 7.143 37.777 3.673 51.458-8.776C93.334 70.41 98.847 52.246 94.559 35.715zM30.644 85.512h-.409c-.817-.409-1.43-.409-2.246-.409-2.45.613-5.105 1.429-7.555 2.041h-.204c-2.655.612-5.31 1.429-7.76 2.041l-1.43.408.205-1.224c.204-1.837.408-3.878.816-5.715l.205-1.224c.204-2.04.612-3.878.817-5.919V74.9c0-.612.204-1.224.204-1.633 0-.816 0-1.224-.409-1.836-.204-.204-.408-.613-.612-1.02L12.063 70c-.409-.612-.817-1.02-1.022-1.633a46.59 46.59 0 0 1-3.47-7.142c-3.064-8.776-3.268-18.368-.41-26.94C12.064 19.184 26.357 7.551 42.489 5.714c16.336-2.245 33.285 5.51 41.861 19.389 8.78 14.081 8.372 32.04-1.225 45.919l-1.838 2.653v-.204C69.443 88.165 48.41 93.267 30.645 85.51z" fill="#5F5CF4"/><path d="M75.976 58.776c0-1.837-1.02-3.673-2.45-4.694l-8.372-6.326c-2.042-1.633-5.105-1.429-7.147.408l-3.063 2.857-.817-.408c-1.838-1.02-3.471-2.245-5.31-3.878-1.428-1.428-2.858-3.061-4.083-5.306l-.409-.612 3.063-2.858c1.838-1.836 2.042-4.694.409-6.938l-6.534-8.368c-1.226-1.633-2.86-2.449-4.901-2.449h-.409c-1.838 0-3.471.816-4.696 1.837l-7.352 7.143c-3.88 3.673-4.696 9.388-2.246 14.286 3.472 6.326 7.76 12.245 13.07 17.347 5.104 4.898 11.026 9.184 17.764 12.857 1.634 1.02 3.472 1.429 5.718 1.429 3.267 0 6.534-1.225 8.576-3.47l7.352-7.142c1.225-2.041 2.042-3.878 1.837-5.715zm-5.513 1.02-7.555 7.552c-1.43 1.224-3.063 2.04-4.901 2.04-1.021 0-2.042-.204-3.063-.816-6.33-3.265-11.64-7.143-16.54-11.837-4.901-4.694-8.78-10-12.048-16.122-1.43-2.654-.817-5.919 1.225-7.96l7.555-7.347h.817c.204 0 .409.204.613.204.204.204.204.204.204.409l6.33 8.163-3.063 2.857c-1.633 1.633-2.042 4.082-1.02 5.919 1.429 2.653 3.266 5.102 5.717 7.55 2.45 2.45 4.9 4.286 7.555 5.511 2.042 1.02 4.288.612 5.922-.816l3.267-3.266 8.372 6.327a.44.44 0 0 1 .409.408c.204.204.204.408.204.612v.613z" fill="#5F5CF4"/></svg>