<svg width="96" height="110" fill="none" xmlns="http://www.w3.org/2000/svg"><circle cx="48" cy="48" r="48" fill="#FFE8BB"/><path d="M68.19 54.947v-21.96c0-2.81-2.328-5.15-5.151-5.15h-3.216v-2.092c0-2.575-2.091-4.745-4.745-4.745h-.81c-1.281 0-2.497.562-3.373 1.451-.889-.889-2.013-1.451-3.372-1.451h-.81c-1.608 0-3.06.81-3.857 2.013-.81-.562-1.765-.967-2.81-.967h-.81c-1.935 0-3.622 1.124-4.34 2.81a4.874 4.874 0 0 0-2.419-.64h-.81A4.806 4.806 0 0 0 27 29.039v14.64c0 .811.157 1.53.562 2.17v12.628c0 .235.078.405.157.562l5.595 11.66-3.935 37.66a1.367 1.367 0 0 0 1.242 1.49h.117c.706 0 1.308-.536 1.36-1.255l3.96-37.934a1.44 1.44 0 0 0-.09-.628c-.014-.052-.04-.104-.066-.156l-5.634-11.83V48.15c.484.157.967.236 1.45.236h.811c1.608 0 3.06-.811 3.857-2.014.81.563 1.764.968 2.81.968h.81c1.608 0 3.06-.81 3.857-2.013.81.562 1.764.967 2.81.967h.81c.236 0 .484 0 .641-.078-2.654 2.17-4.667 6.6-4.34 16.09 0 .72.64 1.373 1.373 1.282.719 0 1.372-.64 1.28-1.373-.483-14.235 4.184-14.967 8.288-15.607.89-.157 1.608-.236 2.419-.484 1.28-.235 3.542-1.45 3.62-5.072.079-3.215-2.496-4.51-3.856-4.745H50.4c-1.373 0-2.419-1.046-2.419-2.418v-.968c0-1.372 1.046-2.418 2.419-2.418h12.627c1.372 0 2.418 1.046 2.418 2.419v22.117c0 .235.236 6.118-4.993 7.804-.562.157-.968.719-.968 1.28l2.615 44.262c0 .719.64 1.373 1.372 1.373.72 0 1.373-.641 1.373-1.373l-2.615-43.372c4.994-2.105 6.04-7.412 5.961-10.066zM34.555 43.68a1.997 1.997 0 0 1-2.014 2.013h-.81a1.997 1.997 0 0 1-2.013-2.013V29.04c0-1.125.889-2.014 2.013-2.014h.81c1.125 0 2.014.889 2.014 2.013v14.64zm7.568-1.046a1.997 1.997 0 0 1-2.013 2.013h-.81a1.997 1.997 0 0 1-2.014-2.013V26.869c0-1.124.89-2.013 2.014-2.013h.81c1.124 0 2.013.89 2.013 2.013v15.765zm10.21-3.621h4.339c.157.078.405.157.562.235 0 .079-.078.236-.078.327v1.935a1.997 1.997 0 0 1-2.013 2.013h-.81a1.997 1.997 0 0 1-2.014-2.013v-2.497h.013zM49.68 27.915a5.113 5.113 0 0 0-4.262 5.072v.967c0 2.497 1.856 4.588 4.262 5.072v2.575a1.997 1.997 0 0 1-2.014 2.013h-.81a1.997 1.997 0 0 1-2.013-2.013V25.758c0-1.124.889-2.013 2.013-2.013h.81c1.125 0 2.014.889 2.014 2.013v2.157zm7.477-.078h-4.824v-2.092c.079-1.046.968-2.013 2.013-2.013h.81c1.125 0 2.014.889 2.014 2.013v2.092h-.013z" fill="#000"/></svg>