<svg width="96" height="56" fill="none" xmlns="http://www.w3.org/2000/svg"><path d="M48 0C22.292 0 2.092 23.669 1.072 24.69c-1.43 1.835-1.43 4.285 0 6.12C1.887 31.832 22.087 55.5 48 55.5c25.708 0 45.908-23.669 46.928-24.69 1.43-1.835 1.43-4.285 0-6.12C93.908 23.464 73.708 0 48 0zm-3.672 12.04a5.92 5.92 0 0 1 5.916 5.916 5.92 5.92 0 0 1-5.916 5.916 5.92 5.92 0 0 1-5.916-5.916c-.002-3.469 2.651-5.917 5.916-5.917zM48 45.703c-16.323 0-30.81-12.446-36.727-18.159 3.878-3.672 11.018-9.998 19.996-14.282-.816 2.245-1.43 4.489-1.43 7.142 0 9.998 8.161 18.16 18.16 18.16 9.998 0 18.16-8.161 18.16-18.16 0-2.448-.41-4.897-1.43-7.142 8.978 4.08 16.118 10.406 19.995 14.282-5.915 5.917-20.4 18.16-36.723 18.16H48z" fill="#222"/><circle cx="46.014" cy="19.721" r="9.203" fill="#222"/></svg>