<svg width="96" height="85" fill="none" xmlns="http://www.w3.org/2000/svg"><path d="M96 18.148V17.919c0-.076-.076-.152-.076-.229l-.077-.076c-.076-.076-.076-.152-.076-.152 0-.077-.076-.077-.076-.077l-.229-.152-.076-.076c-.076-.077-.153-.077-.153-.153l-.228-.152L65.423.229s-.076 0-.152-.077c-.076 0-.153-.076-.229-.076h-.076c-.076 0-.153 0-.229-.076h-.381c-.076 0-.153 0-.229.076l-.076.076c-.076 0-.153.077-.229.077h-.076L47.962 9.15 32.178.305c-.076-.076-.153-.076-.229-.076h-.076c-.076 0-.153-.077-.229-.077h-.381c-.076 0-.153 0-.229.077h-.076c-.076 0-.076.076-.153.076h-.076s-.076 0-.076.076h-.076L.99 17.004c-.076.076-.076.076-.152.076-.076.077-.153.077-.153.153l-.076.076-.076.076-.076.076s-.077.077-.077.153H.153c0 .076-.077.152-.077.229L0 18.3V18.53l.076.229v.076l.077.152c0 .077.076.153.076.153s0 .076.076.076c.076.076.153.153.229.305l.076.076.229.23.152.075 14.564 7.702-13.039 6.329c-.076 0-.076.076-.152.076s-.076.076-.153.076c-.076.076-.076.076-.152.076l-.153.153-.076.152s-.076.077-.076.153l-.076.076s0 .076-.077.076v.153c0 .076 0 .076-.076.152v.687s0 .076.076.152c0 .076.077.153.077.153l.076.152c.076.076.152.229.229.305l.076.076c.076.077.229.23.305.23l15.402 10.217-.152.534c0 .152-.076.305-.076.38V63.137l.152.229v.076l.076.152c.077.077.077.077.077.153l.152.229.229.228.076.077L46.894 83.8l.153.076c.076 0 .076.076.076.076.076 0 .076.077.153.077l.152.076c.153 0 .305.076.381.076.153 0 .23 0 .382-.076l.152-.076c.076 0 .153-.077.229-.077 0 0 .076 0 .076-.076V83.8l.153-.076 28.67-19.597c.076-.076.153-.076.153-.152l.076-.077.076-.152c.076-.076.076-.153.076-.153l.229-.533V47.962c0-.076 0-.229-.076-.381l-.076-.534L93.33 36.829c.076-.076.229-.152.305-.229l.077-.076c.076-.076.152-.229.228-.305l.076-.152s0-.077.077-.153c0-.076 0-.152.076-.152v-.763c0-.076 0-.152-.076-.152 0 0 0-.077-.076-.153 0-.076-.077-.152-.077-.152l-.076-.077c-.076-.076-.076-.152-.152-.152 0-.076-.077-.076-.077-.076l-.152-.153c-.076 0-.076-.076-.153-.076l-.076-.076-12.886-6.253 14.868-7.777.23-.23.076-.076c.076-.152.152-.228.228-.305l.076-.152c0-.076 0-.076.077-.152l.076-.305V18.148zm-90.739.229L31.34 3.813l13.192 7.396-25.163 14.64L5.26 18.376zm1.525 17.385 12.43-6.024L44.53 43.387l-13.192 8.616L6.786 35.762zm39.498 43.386L21.122 61.916V49.334l9.378 6.177c.077.076.23.076.305.152l.077.077c.152.076.305.076.457.076.153 0 .305 0 .381-.077l.153-.076c.152-.076.229-.076.305-.152l.076-.077 13.954-9.073v32.788h.076zm1.678-37.896L22.875 27.755l25.087-14.564 25.087 14.564-25.087 13.497zM74.878 62.45l-.61-.153L49.717 79.15V46.436L63.67 55.51c.076 0 .076.076.152.076.076.076.153.076.305.152h.076c.153.077.305.077.458.077.152 0 .305 0 .457-.077l.153-.076c.152-.076.229-.076.305-.152l.152-.077 9.227-6.176-.076 13.192zm14.26-26.688L64.66 52.079l-13.268-8.692 25.316-13.65 12.428 6.025zm-12.43-9.99L51.47 11.133l13.192-7.396 26.001 14.64-13.954 7.397z" fill="#FFA184"/></svg>