<svg width="96" height="96" fill="none" xmlns="http://www.w3.org/2000/svg"><path d="M52.866 43.875V5c0-1.787-.927-3.437-2.433-4.33a4.754 4.754 0 0 0-4.865 0c-1.505.893-2.433 2.543-2.433 4.33v38.875c-4.92 1.439-8.982 5.015-11.12 9.79a18.452 18.452 0 0 0 0 15.045c2.138 4.775 6.2 8.352 11.12 9.79V91c0 1.787.928 3.438 2.433 4.33a4.754 4.754 0 0 0 4.865 0c1.506-.892 2.433-2.543 2.433-4.33V78.5c4.92-1.438 8.982-5.015 11.12-9.79a18.452 18.452 0 0 0 0-15.045c-2.138-4.775-6.2-8.351-11.12-9.79zm-3.892 25.25h-1.947c-2.645-.343-4.935-2.052-6.07-4.53a8.192 8.192 0 0 1 .47-7.694c1.428-2.312 3.908-3.713 6.574-3.713 2.665 0 5.145 1.401 6.573 3.713a8.192 8.192 0 0 1 .47 7.694c-1.135 2.479-3.425 4.188-6.07 4.53zM12.722 52.125V91c0 1.787.928 3.438 2.433 4.33a4.754 4.754 0 0 0 4.865 0c1.506-.892 2.433-2.543 2.433-4.33V52.125c4.92-1.439 8.982-5.015 11.12-9.79a18.451 18.451 0 0 0 0-15.045c-2.138-4.775-6.2-8.352-11.12-9.79V5c0-1.787-.927-3.437-2.433-4.33a4.754 4.754 0 0 0-4.865 0c-1.505.893-2.433 2.543-2.433 4.33v12.5c-4.92 1.438-8.981 5.015-11.119 9.79a18.452 18.452 0 0 0 0 15.045c2.138 4.775 6.2 8.351 11.12 9.79zm3.894-25.25h1.946c2.644.343 4.934 2.052 6.07 4.53a8.192 8.192 0 0 1-.47 7.694c-1.429 2.312-3.909 3.713-6.574 3.713-2.666 0-5.146-1.401-6.574-3.713a8.193 8.193 0 0 1-.47-7.694c1.135-2.479 3.426-4.188 6.07-4.53h.002zM83.277 17.5V5c0-1.787-.927-3.437-2.432-4.33a4.754 4.754 0 0 0-4.866 0c-1.505.893-2.432 2.543-2.432 4.33v12.5c-4.92 1.438-8.982 5.015-11.12 9.79a18.452 18.452 0 0 0 0 15.045c2.138 4.775 6.2 8.351 11.12 9.79V91c0 1.787.927 3.438 2.432 4.33a4.754 4.754 0 0 0 4.866 0c1.505-.892 2.432-2.543 2.432-4.33V52.125c4.92-1.439 8.982-5.015 11.12-9.79a18.451 18.451 0 0 0 0-15.045c-2.138-4.775-6.2-8.352-11.12-9.79zm-4.865 25.25c-2.782.179-5.444-1.181-6.986-3.567a8.205 8.205 0 0 1-.486-8c1.24-2.564 3.717-4.254 6.499-4.433h1.946c2.782.179 5.259 1.869 6.5 4.433a8.205 8.205 0 0 1-.487 8c-1.542 2.386-4.204 3.746-6.986 3.567z" fill="#222"/><ellipse cx="16.5" cy="35.451" rx="10.5" ry="10.79" fill="#222"/><ellipse cx="46.5" cy="60.113" rx="10.5" ry="10.79" fill="#222"/><ellipse cx="79.5" cy="35.451" rx="10.5" ry="10.79" fill="#222"/></svg>