<svg width="126" height="96" fill="none" xmlns="http://www.w3.org/2000/svg"><circle cx="65" cy="48" r="48" fill="#FFA184"/><path d="M95.451 29.17H75.7c-2.536 0-4.628 2.105-4.628 4.627v2.89H69.19c-2.314 0-4.275 1.882-4.275 4.274v.719c0 1.163.51 2.248 1.307 3.046-.797.797-1.307 1.803-1.307 3.045v.72c0 1.45.72 2.744 1.804 3.476-.51.72-.863 1.595-.863 2.536v.72c0 1.738 1.02 3.254 2.536 3.908a4.372 4.372 0 0 0-.575 2.17v.719a4.326 4.326 0 0 0 4.34 4.196h13.177c.718 0 1.372-.144 1.947-.51h11.36c.222 0 .366-.079.51-.144l10.483-5.033 14.967 2.366a1.224 1.224 0 0 0 1.334-1.124v-.117c0-.628-.484-1.177-1.125-1.23l-15.215-2.378a1.336 1.336 0 0 0-.562.078.616.616 0 0 0-.144.052l-10.64 5.072h-8.902c.143-.431.222-.862.222-1.307v-.719c0-1.45-.72-2.745-1.804-3.477.51-.719.862-1.595.862-2.536v-.719c0-1.45-.718-2.745-1.803-3.477.51-.719.862-1.595.862-2.536v-.719c0-.222 0-.431-.078-.575 1.948 2.392 5.935 4.196 14.47 3.909.654 0 1.229-.576 1.164-1.23 0-.653-.575-1.228-1.229-1.163-12.81.432-13.464-3.764-14.039-7.45-.144-.798-.222-1.452-.431-2.17-.223-1.164-1.308-3.19-4.563-3.255-2.888-.079-4.052 2.248-4.274 3.477V45.17c0 1.229-.941 2.17-2.17 2.17h-.863c-1.228 0-2.17-.941-2.17-2.17V33.81c0-1.228.942-2.17 2.17-2.17h19.922c.222 0 5.503-.222 7.019 4.484.144.51.654.863 1.164.863l20.993-1.176c.654 0 1.229-.576 1.229-1.23 0-.653-.575-1.228-1.229-1.228l-20.209 1.176c-1.948-4.483-6.732-5.424-9.111-5.359zM85.307 59.418c1.02 0 1.804.798 1.804 1.804v.72c0 1.019-.797 1.803-1.804 1.803H72.131a1.783 1.783 0 0 1-1.804-1.804v-.719c0-1.02.797-1.804 1.804-1.804h13.176zm-.928-6.797c1.02 0 1.804.797 1.804 1.804v.719c0 1.02-.797 1.804-1.804 1.804H70.196a1.783 1.783 0 0 1-1.804-1.804v-.72c0-1.019.798-1.803 1.804-1.803H84.38zm-3.268-9.19v-3.908c.079-.144.144-.366.222-.51.079 0 .223.079.288.079h1.739c1.02 0 1.803.797 1.803 1.803v.72c0 1.02-.797 1.803-1.803 1.803H81.11v.013zm-9.987 2.38a4.604 4.604 0 0 0 4.562 3.83h.863c2.249 0 4.13-1.66 4.562-3.83h2.314c1.02 0 1.804.797 1.804 1.803v.72c0 1.019-.797 1.803-1.804 1.803H69.164a1.783 1.783 0 0 1-1.804-1.804v-.719c0-1.02.797-1.803 1.804-1.803h1.96zm-.065-6.72v4.34h-1.882c-.942-.078-1.804-.862-1.804-1.803v-.72c0-1.019.797-1.803 1.804-1.803h1.882v-.013zM22.745 34.53 1.229 33.352c-.654 0-1.229.575-1.229 1.229 0 .653.575 1.229 1.229 1.229l22.3 1.176c.51 0 1.02-.366 1.164-.863 1.516-4.706 6.797-4.483 7.02-4.483h19.895c1.228 0 2.17.94 2.17 2.17V45.17c0 1.229-.942 2.17-2.17 2.17h-.863c-1.229 0-2.17-.941-2.17-2.17V39.301c-.222-1.229-1.373-3.543-4.275-3.477-3.255.078-4.34 2.104-4.562 3.255-.222.718-.287 1.372-.431 2.17-.575 3.686-1.229 7.882-14.04 7.45-.653-.078-1.228.51-1.228 1.164-.078.653.51 1.229 1.163 1.229 8.536.287 12.523-1.517 14.471-3.909-.079.144-.078.366-.078.575v.72c0 .94.366 1.803.862 2.535-1.085.719-1.804 2.026-1.804 3.477v.72c0 .94.366 1.803.863 2.535-1.085.719-1.804 2.026-1.804 3.477v.72c0 .43.079.862.222 1.306h-8.901l-10.641-5.072a.629.629 0 0 0-.144-.052 1.157 1.157 0 0 0-.562-.078L1.294 60.425A1.235 1.235 0 0 0 .17 61.654v.117c.065.68.667 1.177 1.333 1.124l16.144-2.366 10.484 5.033a.979.979 0 0 0 .51.144H40c.575.366 1.228.51 1.947.51h13.177a4.317 4.317 0 0 0 4.34-4.196v-.72c0-.797-.222-1.516-.575-2.17 1.516-.653 2.535-2.17 2.535-3.908v-.719c0-.94-.365-1.804-.862-2.536 1.085-.719 1.804-2.026 1.804-3.477v-.719c0-1.229-.51-2.248-1.307-3.045.797-.798 1.307-1.883 1.307-3.046v-.72a4.276 4.276 0 0 0-4.275-4.274h-1.843v-2.889c0-2.535-2.104-4.627-4.627-4.627H31.869c-2.392-.065-7.176.876-9.124 5.36zm32.418 24.888a1.79 1.79 0 0 1 1.804 1.804v.72a1.79 1.79 0 0 1-1.804 1.803H42a1.79 1.79 0 0 1-1.804-1.804v-.719A1.79 1.79 0 0 1 42 59.418h13.163zm1.96-6.797c1.007 0 1.805.797 1.805 1.804v.719a1.791 1.791 0 0 1-1.804 1.804H42.94a1.791 1.791 0 0 1-1.804-1.804v-.72c0-1.006.797-1.803 1.804-1.803h14.183zm-13.176-9.19a1.79 1.79 0 0 1-1.803-1.803v-.72a1.79 1.79 0 0 1 1.803-1.803h1.739c.078 0 .222-.079.288-.079.078.144.143.366.222.51v3.908h-2.249v-.013zm14.183 2.38c1.007 0 1.804.797 1.804 1.803v.72a1.791 1.791 0 0 1-1.804 1.803H43.87a1.791 1.791 0 0 1-1.804-1.804v-.719c0-1.006.797-1.803 1.804-1.803h2.314c.431 2.17 2.313 3.83 4.562 3.83h.863a4.604 4.604 0 0 0 4.562-3.83h1.96zm0-6.72c1.007 0 1.804.798 1.804 1.804v.72c0 .94-.862 1.738-1.804 1.803h-1.882v-4.34h1.882v.014zM62.875 25.784a1.289 1.289 0 0 1-1.294-1.294V12.294c0-.719.575-1.294 1.294-1.294.72 0 1.294.575 1.294 1.294V24.49c0 .72-.575 1.294-1.294 1.294zM70.797 25.785a1.294 1.294 0 0 1-1.216-1.739l2.379-6.55a1.294 1.294 0 1 1 2.431.89l-2.379 6.549c-.196.523-.692.85-1.215.85zM54.954 25.785c-.523 0-1.02-.327-1.216-.85l-2.379-6.55a1.299 1.299 0 0 1 .771-1.66 1.299 1.299 0 0 1 1.66.772l2.38 6.549a1.299 1.299 0 0 1-1.216 1.739zM62.875 70.53c-.719 0-1.294.574-1.294 1.293V84.02c0 .72.575 1.294 1.294 1.294.72 0 1.294-.575 1.294-1.294V71.823c0-.705-.575-1.294-1.294-1.294zM70.797 70.53a1.294 1.294 0 0 0-1.216 1.738l2.379 6.549a1.294 1.294 0 1 0 2.431-.89l-2.379-6.548a1.306 1.306 0 0 0-1.215-.85zM54.954 70.53c-.523 0-1.02.326-1.216.849l-2.379 6.549a1.299 1.299 0 0 0 .771 1.66 1.299 1.299 0 0 0 1.66-.771l2.38-6.55a1.299 1.299 0 0 0-1.216-1.738z" fill="#000"/></svg>