<svg width="96" height="96" fill="none" xmlns="http://www.w3.org/2000/svg"><path d="M9.6 19.2c5.293 0 9.6-4.306 9.6-9.6S14.893 0 9.6 0C4.307 0 0 4.306 0 9.6s4.307 9.6 9.6 9.6zM9.6 57.6c5.293 0 9.6-4.306 9.6-9.6s-4.307-9.6-9.6-9.6C4.307 38.4 0 42.706 0 48s4.307 9.6 9.6 9.6zM48 57.6c5.292 0 9.6-4.306 9.6-9.6s-4.308-9.6-9.6-9.6c-5.293 0-9.6 4.306-9.6 9.6s4.307 9.6 9.6 9.6zM86.4 57.6c5.293 0 9.6-4.306 9.6-9.6s-4.307-9.6-9.6-9.6c-5.293 0-9.6 4.306-9.6 9.6s4.307 9.6 9.6 9.6zM9.6 96c5.293 0 9.6-4.306 9.6-9.6s-4.307-9.6-9.6-9.6c-5.293 0-9.6 4.306-9.6 9.6S4.307 96 9.6 96zM48 96c5.292 0 9.6-4.306 9.6-9.6s-4.308-9.6-9.6-9.6c-5.293 0-9.6 4.306-9.6 9.6S42.706 96 48 96zM86.4 96c5.293 0 9.6-4.306 9.6-9.6s-4.307-9.6-9.6-9.6c-5.293 0-9.6 4.306-9.6 9.6s4.307 9.6 9.6 9.6zM57.6 9.6C57.6 4.306 53.291 0 48 0c-5.293 0-9.6 4.306-9.6 9.6s4.307 9.6 9.6 9.6c5.292 0 9.6-4.306 9.6-9.6zM96 9.6C96 4.306 91.693 0 86.4 0c-5.293 0-9.6 4.306-9.6 9.6s4.307 9.6 9.6 9.6c5.293 0 9.6-4.306 9.6-9.6z" fill="#999"/></svg>