<svg width="96" height="83" fill="none" xmlns="http://www.w3.org/2000/svg"><path d="M96 2.35V1.372s0-.196-.196-.196V.98l-.196-.196-.392-.392c-.196 0-.195-.196-.391-.196L94.629 0h-.784c-.392 0-.588 0-.98.196L1.767 33.5h-.196C.396 33.893-.388 35.46.2 36.635c.196.588.784 1.176 1.175 1.372l17.436 8.62 5.094 27.819.196.588c.196 1.371 1.567 2.155 2.939 1.959.783-.196 1.37-.588 1.763-1.372l8.424-15.085 21.55 21.159c.392.391.98.783 1.763.783.588 0 1.176-.196 1.763-.783.196-.196.392-.588.588-.784L95.412 3.918l.392-.98v-.195S96 2.547 96 2.35zM34.288 55.444l-6.66 11.95-3.919-21.158 52.7-31.15-41.533 39.77-.196.196-.392.392zM20.966 42.317 8.624 36.243l60.34-22.53-47.998 28.604zm65.63-30.367L59.561 75.817 40.166 56.618l46.43-44.668z" fill="#5F5CF4"/></svg>