<svg width="96" height="82" fill="none" xmlns="http://www.w3.org/2000/svg"><path fill-rule="evenodd" clip-rule="evenodd" d="M46.703 62.05c14.207 0 25.725-11.518 25.725-25.725 0-14.208-11.518-25.726-25.725-25.726-14.208 0-25.725 11.518-25.725 25.726 0 14.207 11.517 25.724 25.725 25.724zm0 10.599c20.061 0 36.324-16.263 36.324-36.325C83.027 16.264 66.764 0 46.703 0 26.64 0 10.378 16.263 10.378 36.325c0 20.06 16.263 36.324 36.325 36.324z" fill="#222"/><path d="M31.135 20.757c0 8.598-6.97 15.567-15.567 15.567C6.97 36.324 0 29.354 0 20.757 0 12.159 6.97 5.189 15.568 5.189c8.597 0 15.567 6.97 15.567 15.568zM64.865 7.784H96v31.135H64.865V7.784zM48 51.892l16.853 29.19H31.148l16.853-29.19z" fill="#222"/></svg>