<svg width="96" height="96" viewBox="0 0 96 96" fill="none" xmlns="http://www.w3.org/2000/svg">
<path d="M64.7026 40.7368C69.0483 40.7715 72.5524 44.3218 72.5294 48.644C72.5063 53.0244 68.9676 56.5283 64.5989 56.5054C60.2418 56.4824 56.6801 52.8975 56.7261 48.5635C56.7723 44.2065 60.334 40.7021 64.7026 40.7368Z" fill="#5F5CF4"/>
<path fill-rule="evenodd" clip-rule="evenodd" d="M48 96C74.5096 96 96 74.5098 96 48C96 21.4902 74.5096 0 48 0C21.4904 0 0 21.4902 0 48C0 74.5098 21.4904 96 48 96ZM64.7719 32.4604C55.7579 32.4258 48.4845 39.6069 48.45 48.5864C48.4153 57.4277 55.6542 64.7471 64.4721 64.7817C73.5206 64.8164 80.7595 57.6694 80.8055 48.6787C80.8517 39.7803 73.6359 32.4951 64.7719 32.4604ZM35.8796 40.3892L36.2506 40.0215C38.717 37.5815 41.1793 35.1455 43.6317 32.7144V64.5278C38.3179 59.2603 32.9579 53.9351 27.5749 48.6094C30.3427 45.8652 33.1136 43.1245 35.8796 40.3892ZM14.5035 64.77H22.5146V32.5068H14.5035V64.77Z" fill="#5F5CF4"/>
</svg>
