<svg xmlns="http://www.w3.org/2000/svg" width="177" height="91" fill="none" xmlns:v="https://vecta.io/nano"><style><![CDATA[.B{fill:#666}]]></style><g filter="url(#A)" class="B"><g clip-path="url(#B)"><path d="M75.083 31.577v2.001h2.221c.355 0 .622.089.844.267s.355.445.355.8a.95.95 0 0 1-.355.756c-.222.178-.533.267-.844.267h-2.221v2.001h2.444c.355 0 .622.089.844.267s.311.445.311.8a.95.95 0 0 1-.355.756c-.222.178-.489.267-.844.267h-3.421c-.444 0-.8-.133-1.066-.4s-.4-.623-.4-1.067V30.91c0-.445.133-.801.4-1.067s.622-.4 1.066-.4h3.421c.355 0 .622.089.844.267s.311.445.311.801a.95.95 0 0 1-.355.756c-.222.178-.489.267-.844.267h-2.355v.044z"/><path d="M80.103 32.511c0-.667.178-1.245.533-1.779a3.5 3.5 0 0 1 1.377-1.156c.578-.267 1.2-.4 1.866-.4.4 0 .8.044 1.244.133s.844.222 1.155.445.489.534.489.89c0 .311-.089.623-.311.845s-.489.356-.8.356c-.133 0-.267 0-.355-.045l-.444-.178c-.4-.133-.755-.222-1.066-.222s-.578.089-.8.222c-.267.133-.355.356-.355.623 0 .445.311.712.977.889l.622.178c1.022.267 1.822.623 2.399 1.112.578.445.889 1.156.889 2.001 0 1.067-.311 1.912-.889 2.535-.355.4-.8.667-1.333.845a5.17 5.17 0 0 1-1.688.267c-1.066 0-1.955-.178-2.71-.534-.267-.133-.489-.311-.622-.534-.178-.222-.222-.489-.222-.756a1.04 1.04 0 0 1 .311-.756c.222-.222.444-.311.711-.311.222 0 .444.044.622.089l.844.311c.4.178.8.222 1.155.222a1.5 1.5 0 0 0 .889-.267c.267-.178.4-.445.4-.8a.82.82 0 0 0-.4-.756c-.222-.133-.4-.222-.622-.311s-.533-.178-1.022-.311a11.76 11.76 0 0 1-1.555-.578c-.4-.222-.711-.489-.933-.845-.222-.311-.355-.801-.355-1.423z"/><path d="M91.609 36.424v2.268c0 .356-.089.712-.311.934-.222.267-.489.4-.889.4-.355 0-.666-.133-.889-.4s-.311-.578-.311-.934V30.91c0-.445.133-.801.4-1.067s.622-.4 1.066-.4h2.444c1.155 0 2.044.311 2.666.889.222.222.4.445.578.712a3.21 3.21 0 0 1 .4.89c.089.311.133.623.133.934 0 1.023-.267 1.824-.8 2.446-.622.756-1.466 1.112-2.621 1.112h-1.866zm0-2.046h1.2c.533 0 .889-.133 1.2-.4.267-.267.4-.623.4-1.067-.044-.4-.178-.756-.444-.978s-.622-.356-1.022-.356h-1.333v2.802z"/><path d="M103.694 37.892h-3.999l-.266.889c-.222.845-.578 1.245-1.066 1.245a1.5 1.5 0 0 1-.889-.267c-.267-.178-.4-.4-.444-.712 0-.311.044-.578.089-.756l2.799-7.739a2.15 2.15 0 0 1 .667-.978c.311-.267.666-.356 1.066-.356s.755.134 1.066.356.533.578.667.978l2.798 7.739c.045.178.089.445.089.756a.95.95 0 0 1-.444.712 1.64 1.64 0 0 1-.933.267c-.222 0-.444-.089-.622-.311-.178-.178-.311-.445-.355-.667l-.222-1.156zm-.711-2.135l-1.244-3.958-1.244 3.958h2.488z"/><path d="M112.934 40.116l-1.244 1.779c-.133.222-.355.311-.621.311-.178 0-.311-.089-.489-.222-.133-.133-.222-.311-.222-.445 0-.178.044-.311.177-.489l.756-1.067c-1.022-.222-1.822-.623-2.444-1.201-1.066-1.067-1.599-2.535-1.599-4.447 0-.712.133-1.423.355-2.046.267-.623.622-1.156 1.066-1.645s1.022-.845 1.644-1.067c.622-.267 1.333-.4 2.044-.4.755 0 1.422.133 2.088.356s1.022.623 1.022 1.201c0 .311-.089.578-.222.845-.178.222-.4.356-.711.356-.178 0-.444-.089-.889-.222-.444-.178-.844-.267-1.199-.267-.578 0-1.111.133-1.511.445-.4.267-.711.667-.888 1.156s-.311 1.023-.311 1.601c0 1.201.311 2.046.888 2.624.445.445 1.066.623 1.777.623.4 0 .711-.044.933-.178l.711-.311c.178-.089.356-.133.489-.133.311 0 .577.133.755.356a1.24 1.24 0 0 1 .267.8c0 .534-.267.889-.8 1.156-.578.267-1.155.445-1.822.534z"/><path d="M116.489 34.601c0-.801.133-1.557.444-2.268.266-.712.711-1.334 1.288-1.823.933-.845 2.088-1.29 3.421-1.29.755 0 1.466.134 2.088.4a4.79 4.79 0 0 1 1.644 1.156 4.85 4.85 0 0 1 1.022 1.735c.222.667.355 1.379.355 2.135a7.16 7.16 0 0 1-.4 2.402c-.266.756-.71 1.379-1.288 1.912-.444.4-.977.712-1.555.934s-1.199.311-1.866.311a5.39 5.39 0 0 1-2.043-.4c-.667-.267-1.2-.623-1.689-1.156-.933-1.067-1.421-2.402-1.421-4.047zm2.576 0a5.1 5.1 0 0 0 .267 1.645c.178.534.489.934.844 1.29a2.33 2.33 0 0 0 1.466.489c.578 0 1.066-.178 1.466-.489s.667-.756.844-1.245a5.1 5.1 0 0 0 .267-1.646 4.65 4.65 0 0 0-.267-1.601c-.177-.489-.488-.89-.888-1.201s-.889-.445-1.466-.445c-.356 0-.667.089-.978.222s-.577.356-.799.623c-.489.489-.756 1.334-.756 2.357z"/><path d="M78.726 51.991h-3.998l-.267.889c-.222.845-.578 1.245-1.066 1.245a1.5 1.5 0 0 1-.889-.267c-.266-.178-.4-.4-.444-.712a3.2 3.2 0 0 1 .089-.756l2.799-7.739c.133-.4.355-.712.666-.978s.666-.356 1.066-.356.755.133 1.066.356.533.578.666.978l2.799 7.739c.044.178.089.445.089.756-.044.311-.178.534-.444.712s-.578.267-.933.267c-.222 0-.444-.089-.622-.311a1.4 1.4 0 0 1-.355-.667l-.222-1.156zm-.711-2.135l-1.244-3.958-1.244 3.958h2.488z"/><path d="M86.456 45.72v7.116c0 .4-.089.712-.311.934-.222.267-.489.4-.889.4-.355 0-.666-.133-.889-.4s-.311-.578-.311-.934V45.72h-1.422c-.355 0-.622-.089-.844-.267a.95.95 0 0 1-.355-.756c0-.311.133-.578.355-.8.222-.178.489-.311.844-.311h5.198c.355 0 .622.089.844.267s.355.445.355.8a.95.95 0 0 1-.355.756c-.222.178-.489.267-.844.267h-1.377v.044z"/><path d="M90.188 52.791v-8.05c0-.356.089-.667.311-.934s.489-.4.889-.4c.355 0 .666.133.889.4s.311.578.311.934v8.05c0 .356-.089.712-.311.934-.222.267-.489.4-.889.4-.355 0-.666-.133-.889-.4-.178-.222-.311-.534-.311-.934z"/><path d="M98.451 49.99l2.133-5.648c.089-.267.222-.445.444-.623.178-.178.4-.267.622-.267s.444.044.622.133c.222.089.355.222.489.356.133.178.177.356.177.534 0 .267-.044.489-.133.756l-3.199 8.006c-.222.667-.622.978-1.155.978-.266 0-.489-.089-.711-.222s-.355-.356-.444-.578l-3.243-8.183c-.089-.267-.133-.534-.133-.756 0-.311.133-.578.4-.756a1.6 1.6 0 0 1 .889-.267c.222 0 .444.089.622.267s.355.4.444.623l2.177 5.648z"/><path d="M108.892 51.991h-3.999l-.266.889c-.223.845-.578 1.245-1.067 1.245-.355 0-.622-.089-.888-.267a.95.95 0 0 1-.444-.712c0-.311.044-.578.088-.756l2.799-7.739a2.15 2.15 0 0 1 .667-.978c.311-.267.666-.356 1.066-.356s.755.133 1.066.356.533.578.667.978l2.798 7.739c.045.178.089.445.089.756a.95.95 0 0 1-.444.712 1.64 1.64 0 0 1-.933.267c-.222 0-.444-.089-.622-.311-.178-.178-.311-.445-.355-.667l-.222-1.156zm-.711-2.135l-1.244-3.958-1.244 3.958h2.488z"/><path d="M118.177 54.215l-1.244 1.779c-.133.222-.356.311-.622.311-.178 0-.311-.089-.489-.222-.133-.133-.222-.311-.222-.445 0-.178.044-.311.178-.489l.755-1.067c-1.022-.222-1.822-.623-2.444-1.201-1.066-1.067-1.599-2.535-1.599-4.447a6.16 6.16 0 0 1 .356-2.046c.266-.623.622-1.156 1.066-1.646s1.022-.845 1.644-1.067c.622-.267 1.332-.4 2.043-.4.755 0 1.422.133 2.088.356s1.022.623 1.022 1.201c0 .311-.089.578-.222.845-.178.222-.4.356-.711.356-.178 0-.444-.089-.888-.222-.445-.178-.845-.267-1.2-.267-.577 0-1.111.134-1.51.445-.4.267-.711.667-.889 1.156s-.311 1.023-.311 1.601c0 1.201.311 2.046.889 2.624.444.445 1.066.623 1.777.623.399 0 .71-.044.933-.178l.71-.311c.178-.089.356-.133.489-.133.311 0 .578.133.755.356a1.24 1.24 0 0 1 .267.801c0 .534-.267.889-.8 1.156-.622.267-1.199.445-1.821.534z"/><path d="M128.217 51.991h-3.998l-.267.889c-.222.845-.577 1.245-1.066 1.245a1.5 1.5 0 0 1-.889-.267c-.266-.178-.399-.4-.444-.712a3.22 3.22 0 0 1 .089-.756l2.799-7.739c.133-.4.355-.712.666-.978s.667-.356 1.067-.356.755.133 1.066.356.533.578.666.978l2.799 7.739c.045.178.089.445.089.756-.044.311-.178.534-.444.712s-.578.267-.933.267c-.222 0-.444-.089-.622-.311-.178-.178-.311-.445-.356-.667l-.222-1.156zm-5.064-10.007c0-.445.177-.8.488-1.112s.711-.445 1.2-.445.933.089 1.333.311l.622.311c.177.089.355.178.533.178.133 0 .222-.044.311-.089s.133-.133.222-.267c.133-.267.355-.445.622-.445.222 0 .4.089.577.222s.223.311.223.534c0 .311-.089.623-.267.845-.178.267-.4.445-.711.578-.266.133-.577.222-.888.222-.356 0-.8-.133-1.289-.356-.489-.267-.844-.4-1.066-.445-.222 0-.4.089-.489.267l-.177.267c-.134.178-.311.267-.534.267s-.399-.089-.533-.222c-.089-.222-.177-.4-.177-.623zm4.353 7.872l-1.244-3.958-1.243 3.958h2.487z"/><path d="M131.638 48.7c0-.801.133-1.557.444-2.268a4.42 4.42 0 0 1 1.289-1.824c.933-.845 2.088-1.29 3.421-1.29.755 0 1.466.133 2.088.4s1.155.667 1.644 1.156c.444.489.799 1.067 1.021 1.734s.356 1.379.356 2.135a7.16 7.16 0 0 1-.4 2.402c-.267.756-.711 1.379-1.288 1.912-.445.4-.978.712-1.555.934s-1.2.311-1.866.311c-.711 0-1.378-.133-2.044-.4s-1.199-.623-1.688-1.156c-.933-1.023-1.422-2.357-1.422-4.047zm2.577.044a5.1 5.1 0 0 0 .267 1.645c.177.534.488.934.844 1.29.399.311.888.489 1.466.489a2.33 2.33 0 0 0 1.466-.489c.4-.311.666-.756.844-1.245a5.1 5.1 0 0 0 .266-1.646 4.65 4.65 0 0 0-.266-1.601 2.67 2.67 0 0 0-.889-1.201c-.399-.311-.888-.445-1.466-.445-.355 0-.666.089-.977.222s-.578.356-.8.623c-.488.489-.755 1.29-.755 2.357z"/><path d="M72.328 62.576c0-.712.133-1.423.355-2.046.267-.623.622-1.201 1.066-1.646.444-.489 1.022-.845 1.644-1.067.622-.267 1.333-.4 2.044-.4.4 0 .844.044 1.333.133s.889.267 1.244.534c.355.222.533.534.533.934 0 .311-.089.578-.222.801-.178.222-.4.311-.711.311-.178 0-.489-.089-.888-.222-.444-.178-.844-.267-1.2-.267-.578 0-1.111.133-1.51.445-.4.267-.711.667-.889 1.156s-.311 1.023-.311 1.601c0 1.201.311 2.046.889 2.624.489.445 1.066.667 1.777.667.4 0 .711-.044.933-.178l.711-.311c.178-.089.356-.089.489-.089a.95.95 0 0 1 .755.356c.178.222.267.489.267.801 0 .445-.267.8-.755 1.112-.666.4-1.511.578-2.532.578a5.16 5.16 0 0 1-1.866-.356c-.622-.222-1.155-.578-1.599-.978-1.022-1.067-1.555-2.535-1.555-4.492z"/><path d="M81.614 62.842c0-.801.133-1.557.444-2.268.267-.712.711-1.334 1.288-1.823.933-.845 2.088-1.29 3.421-1.29.755 0 1.466.133 2.088.4s1.155.667 1.644 1.156c.444.489.8 1.067 1.022 1.734a6.72 6.72 0 0 1 .355 2.135 7.17 7.17 0 0 1-.4 2.402c-.267.756-.711 1.379-1.288 1.912-.444.4-.977.712-1.555.934s-1.2.311-1.866.311c-.711 0-1.377-.133-2.044-.4s-1.2-.623-1.688-1.156c-.933-1.067-1.422-2.402-1.422-4.047zm2.577 0a5.11 5.11 0 0 0 .267 1.645c.178.534.489.934.844 1.29.4.311.888.489 1.466.489s1.066-.178 1.466-.489.666-.756.844-1.245c.178-.534.267-1.067.267-1.645s-.089-1.112-.267-1.601a2.67 2.67 0 0 0-.889-1.201c-.4-.311-.888-.445-1.466-.445-.355 0-.666.089-.977.222s-.578.356-.8.623c-.533.489-.755 1.334-.755 2.357z"/><path d="M96.141 61.953l-.8 5.159c-.089.356-.222.623-.444.845-.222.178-.533.311-.933.311a.87.87 0 0 1-.755-.4c-.178-.267-.266-.623-.266-1.112l1.288-7.828c.089-.445.222-.756.489-.978a1.59 1.59 0 0 1 1.066-.4c.355 0 .711.089.977.267a1.4 1.4 0 0 1 .578.756l1.733 5.337 1.6-5.115c.133-.356.311-.667.577-.889s.578-.356.933-.356c.4 0 .755.133 1.066.356a1.26 1.26 0 0 1 .533.889l1.378 7.917c0 1.023-.311 1.512-.978 1.512-.533 0-.933-.133-1.155-.445a2.31 2.31 0 0 1-.311-.978l-.8-4.892-1.466 4.892c-.088.356-.177.578-.266.801-.089.178-.222.356-.4.445-.178.133-.4.178-.711.178-.355 0-.666-.089-.844-.267-.222-.178-.356-.489-.489-.845l-1.599-5.159z"/><path d="M115.467 58.885v4.67c0 .667-.045 1.245-.178 1.734-.089.489-.355.934-.666 1.379-.444.534-.978.978-1.644 1.29s-1.333.445-2.044.445c-.622 0-1.199-.089-1.732-.311s-1.022-.489-1.466-.845c-.4-.356-.756-.8-.978-1.334s-.355-1.067-.355-1.69V58.93c0-.356.089-.667.311-.934s.488-.4.888-.4c.356 0 .667.133.889.4s.311.578.311.934v4.937c0 .667.178 1.201.489 1.601.177.222.444.4.755.534s.622.178.888.178c.311 0 .622-.089.933-.222s.533-.356.756-.578c.311-.4.444-.978.444-1.779v-4.67c0-.356.089-.667.311-.934s.489-.4.888-.4c.356 0 .667.133.889.4.222.178.311.489.311.889z"/><path d="M119.688 61.775v5.159c0 .356-.089.712-.311.934-.222.267-.489.4-.889.4-.355 0-.666-.133-.888-.4s-.311-.578-.311-.934v-8.183c0-.356.088-.623.311-.89.222-.222.488-.356.844-.356.4 0 .71.178.977.534l4.62 5.782V58.84c0-.356.089-.667.311-.934s.489-.4.889-.4a1.12 1.12 0 0 1 .889.4c.222.267.311.578.311.934v8.006c0 .445-.089.8-.311 1.023s-.489.356-.8.356c-.4 0-.711-.133-.933-.445l-4.709-6.004z"/><path d="M128.395 66.934V58.84c0-.356.089-.667.311-.934s.489-.4.889-.4c.355 0 .666.133.888.4s.311.578.311.934v8.094c0 .356-.089.712-.311.934-.222.267-.488.4-.888.4-.356 0-.667-.133-.889-.4s-.311-.578-.311-.934z"/><path d="M136.969 59.818v7.116c0 .4-.088.712-.311.934-.222.267-.488.4-.888.4a1.12 1.12 0 0 1-.889-.4c-.222-.267-.311-.578-.311-.934v-7.116h-1.421c-.356 0-.622-.089-.844-.267s-.356-.445-.356-.756.133-.578.356-.801a1.3 1.3 0 0 1 .844-.311h5.198c.355 0 .622.089.844.267s.355.445.355.801a.95.95 0 0 1-.355.756c-.222.178-.489.267-.844.267h-1.378v.044z"/><path d="M146.743 66.134h-3.998l-.267.89c-.222.845-.577 1.245-1.066 1.245-.355 0-.622-.089-.888-.267s-.4-.4-.445-.712a3.22 3.22 0 0 1 .089-.756l2.799-7.739a2.15 2.15 0 0 1 .666-.978c.311-.267.667-.356 1.067-.356s.755.133 1.066.356.533.578.666.978l2.799 7.739c.045.178.089.445.089.756-.044.311-.178.534-.444.712s-.578.267-.933.267c-.222 0-.444-.089-.622-.311-.178-.178-.311-.445-.355-.667l-.223-1.156zm-3.465-10.852l2.444-.712c.044 0 .133-.044.266-.044.222 0 .4.044.533.178a1.06 1.06 0 0 1 .267.489c0 .445-.178.712-.578.845l-2.399.756c-.133.044-.266.044-.311.044-.222 0-.4-.089-.577-.222-.178-.178-.222-.356-.222-.578 0-.178.044-.356.177-.489.089-.089.222-.178.4-.267zm2.755 8.717l-1.244-3.958-1.244 3.958h2.488z"/><path d="M153.008 63.866v3.069c0 .356-.089.712-.311.934-.222.267-.489.4-.889.4-.355 0-.666-.134-.888-.4s-.311-.578-.311-.934v-7.783c0-.445.133-.801.399-1.067s.622-.4 1.067-.4h2.399c1.066 0 1.91.267 2.577.8.355.267.622.623.799 1.023a3.19 3.19 0 0 1 .267 1.29c0 .934-.267 1.69-.8 2.224-.355.356-.888.578-1.644.756L157.717 66c.311.311.489.623.533.845 0 .133.044.222.044.267a1.04 1.04 0 0 1-.31.756.93.93 0 0 1-.711.356c-.533 0-.933-.178-1.2-.534l-3.065-3.825zm0-1.646h1.466c.355 0 .666-.089.933-.311s.355-.489.355-.845-.133-.623-.4-.889a1.43 1.43 0 0 0-.933-.356h-1.421v2.402z"/><path d="M159.983 66.934V58.84c0-.356.089-.667.311-.934s.488-.4.888-.4c.356 0 .667.133.889.4s.311.578.311.934v8.094c0 .356-.089.712-.311.934-.222.267-.489.4-.889.4-.355 0-.666-.133-.888-.4s-.311-.578-.311-.934z"/><path d="M170.334 66.134h-3.999l-.266.889c-.222.845-.578 1.245-1.066 1.245a1.5 1.5 0 0 1-.889-.267c-.266-.178-.4-.4-.444-.712 0-.311.044-.578.089-.756l2.799-7.739c.133-.4.355-.712.666-.979s.666-.356 1.066-.356.755.133 1.066.356.534.578.667.979l2.799 7.739c.044.178.089.445.089.756-.045.311-.178.534-.445.712s-.577.267-.933.267c-.222 0-.444-.089-.622-.311-.177-.178-.311-.445-.355-.667l-.222-1.156zm-.711-2.135l-1.244-3.958-1.244 3.958h2.488z"/><path d="M74.017 78.453c.089.267.222.445.4.578a1.06 1.06 0 0 0 .622.222c.267 0 .533-.044.755-.178l.4-.178c.044-.044.133-.044.267-.044.089 0 .178.044.266.089s.178.133.222.222.089.178.089.267c0 .267-.178.489-.533.667-.444.267-.933.356-1.511.356-.355 0-.711-.089-1.066-.222a2 2 0 0 1-.844-.623c-.355-.4-.489-.934-.489-1.557 0-.445.089-.845.311-1.201s.489-.667.844-.889a2.15 2.15 0 0 1 1.155-.311c.4 0 .8.089 1.111.311.355.222.622.489.8.845s.311.712.311 1.112c0 .222-.044.356-.133.445s-.222.133-.444.133h-2.532v-.044zm1.777-.934c-.133-.578-.444-.845-.933-.845-.4 0-.711.267-.889.845h1.822z"/><path d="M77.926 77.119c0-.4.133-.712.4-.978.311-.356.755-.534 1.288-.534.489 0 .844.089 1.199.311.267.178.4.356.4.578 0 .134-.044.267-.178.4-.089.133-.222.178-.4.178-.089 0-.267-.089-.533-.178-.222-.089-.4-.133-.533-.133-.222 0-.311.089-.311.222 0 .089.044.133.133.222.089.044.178.133.311.178s.222.089.267.133c.489.178.844.4 1.022.578.222.222.311.534.311.801 0 .222-.044.445-.133.623s-.222.356-.355.489c-.311.267-.711.4-1.244.4-.222 0-.444-.044-.755-.089a3.44 3.44 0 0 1-.711-.311c-.222-.133-.311-.311-.311-.578 0-.133.044-.267.178-.4a.48.48 0 0 1 .4-.178h.178c.044 0 .133.044.178.044s.089.044.178.089.133.044.178.089c.222.089.4.133.533.133.089 0 .178-.044.266-.089s.133-.133.133-.222c0-.133-.044-.178-.133-.222l-.4-.178-.355-.133c-.355-.133-.666-.311-.844-.489-.267-.178-.356-.445-.356-.756z"/><path d="M83.48 76.141c.311-.356.711-.534 1.111-.534.533 0 .977.178 1.333.534.222.222.4.489.533.801s.178.623.178.978c0 .445-.089.845-.222 1.245a2.49 2.49 0 0 1-.711.934c-.311.222-.711.356-1.111.356-.356 0-.711-.133-1.066-.4v1.423c0 .222-.044.4-.178.534s-.267.222-.489.222c-.178 0-.355-.089-.489-.222s-.178-.311-.178-.534v-5.026c0-.222.044-.4.178-.578.089-.133.267-.222.489-.222.178 0 .311.044.4.133.044.089.133.178.222.356zm0 1.868a1.37 1.37 0 0 0 .133.578c.089.178.178.311.311.445.133.089.311.178.533.178.178 0 .355-.044.489-.178s.222-.267.311-.445.089-.356.089-.534-.044-.356-.089-.534c-.089-.178-.178-.311-.311-.445s-.267-.178-.489-.178-.355.044-.533.178c-.133.133-.267.267-.311.445-.089.133-.133.311-.133.489z"/><path d="M90.455 79.877c-.178.178-.311.356-.489.445s-.4.133-.622.133c-.489 0-.933-.178-1.333-.534-.533-.489-.8-1.112-.8-1.912 0-.712.222-1.334.711-1.779.4-.4.844-.623 1.377-.623.222 0 .444.044.622.133s.355.222.533.4c.133-.311.355-.489.666-.489.178 0 .355.044.489.178s.178.311.178.489v3.291c0 .222-.044.4-.178.578-.133.133-.311.222-.489.222-.311 0-.533-.178-.666-.534zm-1.91-1.868c0 .311.089.578.222.845.133.222.355.356.666.356.178 0 .355-.044.533-.178a1.05 1.05 0 0 0 .355-.4c.089-.178.133-.356.133-.534 0-.356-.089-.623-.222-.845-.178-.222-.4-.356-.711-.356-.267 0-.489.133-.666.356-.222.178-.311.445-.311.756z"/><path d="M95.386 80.366l-.8 1.023c-.133.178-.267.267-.355.267-.133 0-.222-.044-.311-.133s-.133-.178-.133-.311c0-.089.044-.178.089-.267l.444-.623c-.222-.044-.444-.089-.622-.178a1.39 1.39 0 0 1-.489-.4c-.4-.445-.622-1.023-.622-1.734 0-.356.044-.667.178-.978s.311-.578.533-.8c.222-.178.444-.356.711-.445s.533-.178.844-.178c.4 0 .755.044 1.066.178.355.133.489.356.489.667a.75.75 0 0 1-.133.445c-.089.133-.222.178-.4.178-.089 0-.222-.044-.444-.133-.178-.089-.355-.089-.533-.089-.222 0-.444.089-.666.311-.178.222-.311.489-.311.845a1.23 1.23 0 0 0 .133.578 1.05 1.05 0 0 0 .355.4c.178.089.355.133.578.133.133 0 .311-.044.489-.133s.311-.089.355-.089c.178 0 .311.044.4.133.133.089.178.222.178.4 0 .267-.089.445-.267.578a2.39 2.39 0 0 1-.755.356z"/><path d="M97.074 78.009c0-.311.044-.623.133-.934.089-.267.267-.534.444-.756.222-.222.444-.4.755-.534s.578-.178.889-.178.578.044.888.178.533.311.755.534.356.489.445.756.133.578.133.934c0 .311-.045.623-.133.889s-.267.534-.445.756c-.222.222-.444.4-.755.534s-.577.178-.888.178-.622-.044-.889-.178c-.311-.133-.533-.311-.755-.534-.4-.4-.578-.934-.578-1.645zm1.333 0c0 .178.044.356.089.534.089.178.178.311.311.445s.311.178.489.178.355-.044.489-.178.267-.267.311-.445c.089-.178.134-.356.134-.534s-.045-.356-.134-.534a1.6 1.6 0 0 0-.311-.445c-.133-.133-.311-.178-.489-.178-.267 0-.489.133-.666.356-.178.267-.222.534-.222.801z"/><path d="M102.139 78.009c0-.311.044-.623.133-.934.089-.267.267-.534.445-.756.222-.222.444-.4.755-.534.266-.133.577-.178.888-.178s.622.044.889.178c.311.134.533.311.755.534s.356.489.444.756.134.578.134.934c0 .311-.045.623-.134.889s-.266.534-.444.756c-.222.222-.444.4-.755.534s-.578.178-.889.178-.622-.044-.888-.178c-.311-.133-.533-.311-.755-.534-.356-.4-.578-.934-.578-1.645zm1.377-3.647l1.422-.445h.178c.133 0 .222.044.311.133s.133.178.133.311c0 .267-.089.4-.355.489l-1.422.445c-.089.044-.133.044-.178.044-.133 0-.266-.044-.355-.133a.48.48 0 0 1-.134-.311c0-.089.045-.222.089-.267.134-.178.222-.267.311-.267zm-.044 3.647c0 .178.044.356.089.534.089.178.177.311.311.445s.311.178.488.178.356-.044.534-.178c.133-.133.266-.267.311-.445.088-.178.133-.356.133-.534s-.045-.356-.133-.534-.178-.311-.311-.445-.311-.178-.534-.178c-.266 0-.488.133-.666.356-.133.267-.222.534-.222.801z"/><path d="M107.515 79.743c0-.222.089-.356.222-.534.133-.133.311-.222.533-.222.133 0 .266.044.355.089.134.089.222.178.267.267.044.133.089.222.089.356 0 .222-.089.4-.222.534s-.311.222-.534.222-.399-.089-.533-.222c-.088-.133-.177-.311-.177-.489z"/><path d="M109.914 77.964c0-.356.044-.667.177-.978s.311-.578.534-.8c.222-.178.444-.356.71-.445s.533-.178.844-.178c.356 0 .711.044 1.067.178.311.133.488.356.488.667a.75.75 0 0 1-.133.445c-.089.133-.222.178-.4.178-.089 0-.266-.044-.444-.133s-.355-.089-.533-.089c-.222 0-.444.089-.667.311s-.311.489-.311.889a1.23 1.23 0 0 0 .134.578c.089.178.177.311.355.4a1.23 1.23 0 0 0 .578.133c.177 0 .311-.044.488-.133s.267-.089.356-.089c.178 0 .311.044.4.133s.177.222.177.4a.63.63 0 0 1-.266.534c-.178.133-.4.222-.622.311a3.42 3.42 0 0 1-.667.089c-.71 0-1.243-.222-1.688-.712-.355-.356-.577-.934-.577-1.69z"/><path d="M114.356 78.009c0-.311.045-.623.134-.934.089-.267.266-.534.444-.756.222-.222.444-.4.755-.534s.578-.178.889-.178.622.044.888.178c.311.133.533.311.756.534.177.222.355.489.444.756s.133.578.133.934c0 .311-.044.623-.133.889s-.267.534-.444.756c-.223.222-.445.4-.756.534a2.11 2.11 0 0 1-.888.178c-.311 0-.622-.044-.889-.178-.311-.133-.533-.311-.755-.534-.355-.4-.578-.934-.578-1.645zm1.333 0c0 .178.045.356.089.534.089.178.178.311.311.445s.311.178.489.178.355-.044.488-.178.267-.267.311-.445c.089-.178.134-.356.134-.534s-.045-.356-.134-.534-.177-.311-.311-.445-.311-.178-.488-.178c-.267 0-.489.133-.667.356-.133.267-.222.534-.222.801z"/><path d="M120.976 76.096c.355-.311.755-.445 1.199-.445.356 0 .622.089.889.222.133.089.267.222.355.356.222-.178.489-.356.711-.445s.489-.133.755-.133.534.044.8.178.444.311.578.578a1.54 1.54 0 0 1 .222.801v2.491c0 .222-.045.4-.178.534s-.266.222-.489.222c-.133 0-.266-.044-.355-.089-.089-.089-.178-.178-.222-.267-.045-.133-.089-.222-.089-.356v-2.179c0-.222-.044-.356-.178-.489s-.311-.178-.533-.178c-.178 0-.355.044-.489.222a.67.67 0 0 0-.177.489v2.179c0 .222-.045.4-.178.534s-.266.222-.489.222-.355-.089-.488-.222-.178-.311-.178-.534v-2.046c0-.267-.044-.445-.178-.623a.66.66 0 0 0-.533-.222c-.178 0-.355.044-.489.178s-.177.311-.177.489v2.179c0 .222-.045.4-.178.534s-.267.222-.489.222-.355-.089-.488-.222-.178-.311-.178-.534v-3.247a.85.85 0 0 1 .178-.534c.088-.133.266-.222.444-.222.222-.089.444.044.622.356z"/><path d="M132.527 36.158v-3.514c0-.222.044-.4.178-.489.133-.133.266-.178.488-.178h1.067c.622 0 1.155.133 1.554.445.311.222.534.489.667.845a3.35 3.35 0 0 1 .222 1.156c0 .445-.089.889-.267 1.245a2.19 2.19 0 0 1-.799.889c-.356.222-.756.311-1.244.311h-1.244c-.222 0-.356-.044-.489-.178-.089-.178-.133-.311-.133-.534zm1.111-.267h.577c.4 0 .711-.089.933-.311.267-.267.4-.667.4-1.156 0-.534-.133-.889-.444-1.156-.223-.222-.578-.311-1.022-.311h-.444v2.935z"/><path d="M138.525 32.956v.934h1.066c.178 0 .311.044.4.133s.177.222.177.356-.044.267-.177.356c-.089.089-.222.133-.4.133h-1.066v.934h1.155c.177 0 .311.044.4.133s.177.222.177.356-.044.267-.177.356c-.089.089-.223.133-.4.133h-1.6c-.222 0-.399-.044-.488-.178-.134-.133-.178-.267-.178-.489V32.6c0-.222.044-.4.178-.489.133-.133.266-.178.488-.178h1.6c.177 0 .311.044.4.133s.177.222.177.356-.044.267-.177.356c-.089.089-.223.133-.4.133h-1.155v.045z"/><path d="M4 48.3c0-4.714.844-9.117 2.488-13.298s4.132-7.739 7.464-10.718c5.509-4.981 12.173-7.472 20.037-7.472 4.487 0 8.619.801 12.306 2.357s6.886 3.78 9.507 6.671c2.666 2.846 4.665 6.182 6.087 10.007s2.088 7.961 2.088 12.408c0 4.937-.844 9.562-2.443 13.921-1.644 4.358-4.132 8.05-7.553 11.119-2.666 2.446-5.731 4.27-9.108 5.47a32.37 32.37 0 0 1-10.796 1.823c-4.176 0-8.174-.756-11.951-2.268s-7.064-3.736-9.818-6.671C6.754 65.867 4 58.04 4 48.3zm14.839.089a28.73 28.73 0 0 0 1.599 9.518c1.066 3.024 2.754 5.515 5.02 7.427s5.109 2.846 8.53 2.846c3.465 0 6.353-.934 8.619-2.802s3.91-4.27 4.931-7.294c1.022-2.98 1.555-6.227 1.555-9.696 0-3.291-.533-6.404-1.644-9.34s-2.799-5.248-5.109-7.027-5.154-2.668-8.53-2.668c-1.955 0-3.865.445-5.731 1.334s-3.421 2.046-4.754 3.514c-2.977 3.38-4.487 8.139-4.487 14.188zm6.664-44.03L39.808.178C40.119.044 40.652 0 41.319 0c1.199 0 2.266.4 3.154 1.156s1.377 1.735 1.466 2.935c0 2.535-1.111 4.136-3.376 4.803l-14.128 4.314c-.844.222-1.466.356-1.91.356-1.288 0-2.399-.445-3.332-1.379-.933-.889-1.377-2.001-1.377-3.291 0-1.112.355-2.046 1.022-2.891.711-.756 1.599-1.334 2.666-1.646z"/></g></g><defs><filter id="A" x="0" y="0" width="177" height="90.234" filterUnits="userSpaceOnUse" color-interpolation-filters="sRGB"><feFlood flood-opacity="0" result="A"/><feColorMatrix in="SourceAlpha" values="0 0 0 0 0 0 0 0 0 0 0 0 0 0 0 0 0 0 127 0" result="B"/><feOffset dy="4"/><feGaussianBlur stdDeviation="2"/><feComposite in2="B" operator="out"/><feColorMatrix values="0 0 0 0 0 0 0 0 0 0 0 0 0 0 0 0 0 0 0.25 0"/><feBlend in2="A"/><feBlend in="SourceGraphic"/></filter><clipPath id="B"><path fill="#fff" transform="translate(4)" d="M0 0h169v82.234H0z"/></clipPath></defs></svg>