<svg width="960" height="960" fill="none" xmlns="http://www.w3.org/2000/svg"><path d="M480.067 0C214.917 0 0 214.917 0 479.933 0 744.949 215.051 960 480.067 960S960 745.083 960 480.067C960 215.051 745.216 0 480.067 0zM239.301 639.956h-79.945V320.178h79.945v319.778zm200.127 0c-52.896-52.897-106.326-106.327-159.889-160.023 53.43-53.296 106.859-106.725 159.889-159.755v319.778zm312.317-47.434c-30.113 29.713-70.218 45.968-112.989 45.968h-.666c-41.971-.133-81.543-16.922-111.522-47.301-29.979-30.245-46.368-70.217-46.235-112.322.133-42.77 16.922-82.742 47.167-112.721 30.113-29.846 70.218-46.235 112.855-46.235h.533c42.104.133 81.677 16.789 111.523 46.901 30.112 30.246 46.501 70.351 46.234 112.855 0 43.037-16.655 83.142-46.9 112.855z" fill="#5F5CF4"/><path d="M640.355 400.655h-.666c-43.17 0-78.479 34.909-78.878 78.079-.267 20.786 7.861 40.639 22.65 55.562 14.923 15.056 34.776 23.45 55.828 23.583h.4c20.919 0 40.639-8.127 55.428-22.784 14.923-14.79 23.184-34.509 23.317-55.695.267-43.036-34.775-78.345-78.079-78.745z" fill="#5F5CF4"/></svg>