<svg xmlns="http://www.w3.org/2000/svg" width="122" height="129" fill="#666" xmlns:v="https://vecta.io/nano"><path d="M43.148 31.482c4.52 3.399 12.979 4.21 16.031-1.622 3.554-6.76-6.412-9.541-7.61-15.142C50.101 7.572 58.754 5.1 63.93 4.791c6.026-.309 13.327 1.545 16.996 9.503 1.468-4.944-2.897-8.575-2.897-8.575S79.69 3.361 79.806 0c-2.047 3.554-6.335 4.288-10.43 3.09-5.678-1.661-11.588-3.322-17.614-1.816-6.837 1.7-12.554 6.103-14.524 13.134-1.622 6.065.695 13.134 5.91 17.074zm38.126 1.854c-5.949-4.481-17.035-5.524-21.052 2.125-4.635 8.884 8.46 12.554 9.966 19.894 1.931 9.348-9.425 12.67-16.262 13.018-7.919.425-17.537-2.047-22.327-12.477-1.931 6.49 3.824 11.279 3.824 11.279s-2.163 3.09-2.356 7.494c2.665-4.674 8.305-5.64 13.713-4.056 7.455 2.163 15.22 4.365 23.138 2.395 9-2.24 16.494-7.996 19.044-17.267 2.24-7.957-.811-17.228-7.687-22.404zM4.21 111.481c-1.197-.386-2.318-1.043-3.361-1.931-.579-.503-.85-1.082-.85-1.7a1.75 1.75 0 0 1 .541-1.275c.348-.386.811-.541 1.313-.541.386 0 .773.116 1.082.387.85.695 1.7 1.197 2.511 1.545.811.309 1.777.463 2.858.463 1.197 0 2.202-.27 3.09-.811.85-.541 1.275-1.197 1.275-1.97 0-.966-.425-1.7-1.275-2.24s-2.202-.966-4.056-1.236c-4.674-.696-6.992-2.859-6.992-6.529 0-1.352.348-2.511 1.043-3.515s1.661-1.738 2.859-2.279 2.549-.772 4.056-.772c1.352 0 2.588.193 3.786.618 1.197.386 2.163.927 2.974 1.584.618.502.927 1.043.927 1.7a1.75 1.75 0 0 1-.541 1.275c-.348.386-.773.541-1.275.541-.309 0-.618-.077-.85-.27-.541-.463-1.313-.85-2.318-1.236s-1.893-.541-2.665-.541c-1.352 0-2.395.232-3.129.734s-1.12 1.159-1.12 1.97c0 .927.386 1.622 1.12 2.086.773.464 1.931.85 3.554 1.159 1.816.309 3.283.734 4.404 1.236 1.082.502 1.931 1.198 2.472 2.047s.811 2.009.811 3.438c0 1.352-.386 2.511-1.12 3.516-.773 1.004-1.777 1.776-3.013 2.317-1.275.541-2.627.811-4.056.811-1.468 0-2.858-.193-4.056-.579zm29.281-2.859c.386.386.541.811.541 1.275a1.77 1.77 0 0 1-.541 1.313c-.386.348-.85.502-1.391.502H21.4c-.541 0-1.004-.193-1.391-.54-.386-.387-.541-.85-.541-1.391V91.317c0-.541.193-1.004.541-1.391.386-.386.85-.541 1.391-.541h10.7c.541 0 1.004.193 1.391.541s.541.811.541 1.352-.193.966-.541 1.275c-.348.348-.85.502-1.391.502h-8.653v5.408h7.224c.541 0 1.004.193 1.391.541s.541.811.541 1.352-.193.965-.541 1.274c-.348.348-.85.503-1.391.503h-7.224v5.91H32.1c.541 0 1.004.193 1.391.579zm22.134 1.391c0 .541-.193 1.005-.541 1.352s-.773.541-1.236.541c-.386 0-.734-.116-1.043-.348s-.541-.54-.734-.965l-1.661-3.863h-9.502l-1.661 3.901c-.154.387-.386.734-.695.927-.309.232-.657.348-1.004.348-.541 0-.966-.154-1.275-.463-.27-.309-.425-.696-.425-1.198 0-.193.039-.386.077-.618l7.957-19.121c.154-.425.425-.773.773-1.004s.734-.348 1.159-.27c.386 0 .734.116 1.082.348a1.93 1.93 0 0 1 .734.927l7.842 18.735a1.96 1.96 0 0 1 .154.772zm-13.172-6.991h6.412l-3.245-7.494-3.168 7.494zm29.473.27c-.193.193-.425.27-.657.27H59.178c0 1.275.27 2.434.772 3.438.541 1.004 1.275 1.816 2.241 2.395s2.124.888 3.438.888c1.004 0 1.931-.231 2.743-.656s1.468-.966 1.931-1.623c.232-.193.464-.27.657-.27s.386.077.579.27c.154.155.27.348.27.58s-.116.463-.309.656c-.695.85-1.545 1.507-2.588 2.048a7 7 0 0 1-3.283.811c-1.622 0-3.09-.348-4.326-1.043-1.275-.695-2.24-1.7-2.936-2.936-.695-1.274-1.043-2.742-1.043-4.403 0-1.739.348-3.284 1.043-4.597s1.622-2.318 2.781-3.013 2.356-1.043 3.67-1.043c1.275 0 2.472.309 3.592.888s2.047 1.468 2.743 2.627 1.082 2.511 1.082 4.095c-.039.193-.116.425-.309.618zM61.38 98.154c-1.043.85-1.738 2.086-2.047 3.67h10.893v-.271c-.116-.965-.425-1.776-.966-2.51-.541-.695-1.198-1.275-2.009-1.622-.811-.386-1.622-.541-2.472-.541-1.197 0-2.356.425-3.399 1.275zm25.765-1.39c.927 1.159 1.391 2.704 1.391 4.635v9.387a.93.93 0 0 1-.27.695c-.193.193-.425.27-.657.27a.93.93 0 0 1-.966-.965v-9.31c0-1.39-.348-2.51-1.043-3.36s-1.777-1.275-3.206-1.275c-.927 0-1.777.232-2.588.657s-1.468 1.004-2.009 1.7c-.502.695-.773 1.468-.773 2.318v9.309c0 .271-.077.502-.27.696a.93.93 0 0 1-.695.27.93.93 0 0 1-.695-.27c-.193-.194-.27-.425-.27-.696V96.493a.93.93 0 1 1 1.932 0v1.738c.579-.927 1.391-1.661 2.472-2.279s2.163-.927 3.322-.927c1.931 0 3.399.579 4.326 1.738zm7.996.502v10.7c0 .811.154 1.352.463 1.661.309.27.695.425 1.198.425.116 0 .27-.039.463-.078s.348-.077.464-.077c.193 0 .348.077.502.232s.193.348.193.541c0 .309-.155.541-.502.734a2.4 2.4 0 0 1-1.197.309c-.579 0-1.082-.039-1.545-.155s-.888-.425-1.275-.965c-.425-.541-.618-1.391-.618-2.55V97.227h-2.318c-.27 0-.464-.077-.657-.27-.193-.154-.271-.386-.271-.657s.077-.464.271-.657c.193-.154.386-.27.657-.27h2.318v-3.554a.93.93 0 1 1 1.932 0v3.554h3.206c.232 0 .425.077.618.27s.27.386.27.657-.077.463-.27.618c-.154.154-.386.232-.657.232h-3.245v.116zm6.258-4.597c-.232-.193-.348-.502-.348-.888v-.309c0-.386.116-.657.387-.888.231-.193.579-.309 1.004-.309.85 0 1.275.386 1.275 1.198v.309c0 .386-.116.695-.348.888s-.541.309-.966.309-.772-.116-1.004-.309zm1.7 18.773c-.194.193-.425.271-.696.271a.93.93 0 0 1-.965-.966V96.068a.93.93 0 0 1 .965-.966c.271 0 .502.077.696.27a.93.93 0 0 1 .27.695v14.679c0 .309-.116.541-.27.695zm18.116-15.76c.193.193.271.425.271.695v14.37c0 .27-.078.502-.271.695s-.425.271-.695.271-.502-.078-.695-.271-.271-.425-.271-.695v-2.125c-.54.966-1.313 1.777-2.395 2.434s-2.24 1.004-3.476 1.004c-1.429 0-2.704-.386-3.863-1.12s-2.047-1.777-2.665-3.051c-.657-1.314-.966-2.743-.966-4.365s.348-3.091 1.004-4.365 1.545-2.279 2.704-3.013c1.12-.734 2.395-1.082 3.786-1.082a6.93 6.93 0 0 1 3.515.927c1.082.618 1.854 1.429 2.395 2.434v-1.97a.93.93 0 0 1 .966-.966c.231-.077.463 0 .656.193zm-4.365 13.713c.889-.579 1.584-1.391 2.086-2.434s.734-2.201.734-3.476c0-1.236-.232-2.356-.734-3.399-.502-1.005-1.197-1.816-2.086-2.395a5.38 5.38 0 0 0-2.974-.889c-1.12 0-2.086.27-2.974.85s-1.584 1.352-2.086 2.395c-.503 1.004-.734 2.163-.734 3.438s.231 2.433.734 3.476 1.159 1.855 2.047 2.434a5.41 5.41 0 0 0 3.013.888c1.082-.038 2.086-.309 2.974-.888zM1.584 126.392c-.348-.116-.695-.348-1.004-.618-.116-.116-.193-.232-.193-.387a.44.44 0 0 1 .116-.309c.077-.077.193-.154.309-.154s.193.038.27.116c.27.231.502.425.773.502.27.116.579.154.927.154.386 0 .734-.077 1.004-.27s.425-.425.425-.695c0-.348-.155-.58-.425-.773s-.695-.348-1.236-.463c-.657-.116-1.159-.348-1.506-.657s-.541-.734-.541-1.275c0-.386.116-.695.309-.966a1.97 1.97 0 0 1 .811-.656c.348-.155.734-.232 1.197-.232.386 0 .773.077 1.12.193s.618.309.85.502c.155.116.232.271.232.425a.44.44 0 0 1-.116.309.44.44 0 0 1-.309.116c-.077 0-.155-.039-.232-.077-.155-.155-.386-.309-.695-.425s-.579-.155-.85-.155c-.425 0-.773.078-1.004.271s-.386.386-.386.695.116.541.386.695c.232.155.618.309 1.12.425s.888.232 1.197.387a1.9 1.9 0 0 1 .734.618c.155.27.27.618.27 1.004s-.116.695-.309.966-.502.502-.85.656-.734.232-1.159.232c-.464.039-.888 0-1.236-.154zm8.073-4.752c.348.154.502.348.502.618 0 .116-.039.193-.116.309a.35.35 0 0 1-.27.116c-.077 0-.155 0-.193-.039s-.116-.077-.193-.116c-.039-.038-.116-.077-.193-.115s-.193-.078-.309-.078c-.155-.038-.27-.038-.386-.038-.348 0-.618.077-.888.231s-.464.348-.579.618c-.155.271-.193.58-.193.889 0 .348.077.657.193.888a1.78 1.78 0 0 0 .579.618c.232.155.541.232.85.232.348 0 .579-.038.811-.154a.81.81 0 0 1 .193-.116c.077-.039.116-.077.155-.116s.116-.039.193-.039a.44.44 0 0 1 .309.116.44.44 0 0 1 .116.309c0 .116-.077.271-.27.386-.155.116-.386.232-.657.309a3.39 3.39 0 0 1-.927.116 2.44 2.44 0 0 1-1.275-.347c-.387-.231-.657-.541-.85-.927a2.99 2.99 0 0 1-.309-1.314 2.86 2.86 0 0 1 .309-1.313c.193-.386.502-.695.888-.927a2.43 2.43 0 0 1 1.275-.348c.464 0 .888.077 1.236.232zm1.468-.888c-.077-.077-.116-.154-.116-.309v-.154c0-.155.039-.271.116-.309.077-.078.232-.078.386-.078.193 0 .309.039.386.116a.38.38 0 0 1 .116.309v.155c0 .154-.039.27-.116.309-.077.077-.232.077-.386.077a1.56 1.56 0 0 1-.386-.116zm.734 5.601c-.077.078-.193.116-.309.116s-.232-.038-.309-.116a.44.44 0 0 1-.116-.309v-4.133a.44.44 0 0 1 .116-.309.44.44 0 0 1 .309-.116.44.44 0 0 1 .309.116.44.44 0 0 1 .116.309v4.133a.44.44 0 0 1-.116.309zm5.64-2.241a.44.44 0 0 1-.309.116h-3.361c.039.463.232.85.541 1.12a1.68 1.68 0 0 0 1.12.425c.309 0 .541-.039.734-.116a1.47 1.47 0 0 0 .502-.347.71.71 0 0 1 .27-.078.35.35 0 0 1 .27.116.35.35 0 0 1 .116.271.46.46 0 0 1-.193.347c-.193.193-.425.348-.734.464s-.618.193-.927.193c-.502 0-.966-.116-1.352-.309-.386-.232-.695-.502-.888-.889-.232-.386-.309-.811-.309-1.313 0-.541.116-1.004.348-1.391s.502-.695.85-.927.734-.309 1.159-.309.773.116 1.159.309c.348.194.657.503.85.85.232.386.309.773.348 1.236-.039.039-.077.155-.193.232zm-3.09-1.584c-.27.193-.425.502-.502.927h2.82v-.077c-.039-.348-.193-.618-.464-.811-.27-.232-.579-.309-.927-.309-.386 0-.695.077-.927.27zm8.536.928v2.588a.44.44 0 0 1-.116.309c-.077.077-.193.116-.348.116a.44.44 0 0 1-.309-.116.44.44 0 0 1-.116-.309v-2.588c0-.386-.077-.657-.27-.888-.155-.232-.464-.348-.85-.348-.27 0-.502.039-.695.154s-.386.271-.502.464-.193.386-.193.618v2.588a.44.44 0 0 1-.116.309.44.44 0 0 1-.309.116.44.44 0 0 1-.309-.116c-.077-.077-.116-.193-.116-.348v-4.055a.44.44 0 0 1 .116-.309.44.44 0 0 1 .309-.116c.116 0 .232.038.309.116a.44.44 0 0 1 .116.309v.347c.154-.27.386-.463.695-.656s.618-.271.966-.271c1.159.039 1.738.734 1.738 2.086zm4.79-1.816c.348.154.502.348.502.618 0 .116-.039.193-.116.309s-.155.116-.27.116c-.077 0-.155 0-.193-.039s-.116-.077-.193-.116c-.039-.038-.116-.077-.193-.115a.72.72 0 0 0-.309-.078c-.154-.038-.27-.038-.386-.038-.348 0-.618.077-.888.231s-.464.348-.579.618c-.154.271-.193.58-.193.889 0 .348.077.657.193.888.154.271.309.464.579.618.232.155.541.232.85.232.348 0 .579-.038.811-.154a.81.81 0 0 1 .193-.116c.077-.039.116-.077.155-.116s.116-.039.193-.039a.44.44 0 0 1 .425.425c0 .116-.077.271-.27.386a1.95 1.95 0 0 1-.695.309c-.27.078-.579.116-.927.116a2.44 2.44 0 0 1-1.275-.347c-.387-.231-.657-.541-.85-.927a2.99 2.99 0 0 1-.309-1.314 2.86 2.86 0 0 1 .309-1.313c.193-.386.502-.695.888-.927a2.43 2.43 0 0 1 1.275-.348c.502 0 .927.077 1.275.232zm5.678 2.472a.44.44 0 0 1-.309.116h-3.361c.039.463.232.85.541 1.12a1.68 1.68 0 0 0 1.12.425c.309 0 .541-.039.734-.116s.348-.193.502-.347a.71.71 0 0 1 .27-.078.35.35 0 0 1 .386.387.46.46 0 0 1-.193.347c-.193.193-.425.348-.734.464s-.618.193-.927.193c-.502 0-.966-.116-1.352-.309-.386-.232-.695-.502-.889-.889-.232-.386-.309-.811-.309-1.313 0-.541.116-1.004.309-1.391.232-.386.502-.695.85-.927s.734-.309 1.159-.309.773.116 1.159.309c.348.194.657.503.85.85.232.386.309.773.348 1.236 0 .039-.039.155-.154.232zm-3.09-1.584c-.27.193-.425.502-.502.927h2.82v-.077c-.039-.348-.193-.618-.464-.811-.27-.232-.579-.309-.927-.309s-.657.077-.927.27zm11.743.928c.232.271.348.618.348 1.082 0 .695-.193 1.197-.618 1.506s-.927.464-1.507.464h-2.434a.44.44 0 0 1-.425-.425v-5.756a.44.44 0 0 1 .425-.425h2.434c.579 0 1.004.155 1.313.425s.464.696.464 1.236a1.43 1.43 0 0 1-.232.812 1.32 1.32 0 0 1-.657.54 1.65 1.65 0 0 1 .889.541zm-1.236-2.472c-.155-.155-.386-.232-.695-.232H38.32v1.854h1.816c.27 0 .464-.077.657-.27a.96.96 0 0 0 .27-.695c0-.309-.077-.503-.232-.657zm.27 4.365c.193-.193.309-.464.309-.811 0-.696-.386-1.043-1.198-1.043h-1.893v2.124h1.931c.348 0 .657-.077.85-.27zm6.76-3.786c.077.077.116.193.116.347v4.134a.44.44 0 0 1-.116.309c-.077.077-.193.116-.348.116a.44.44 0 0 1-.309-.116c-.077-.078-.116-.193-.116-.348v-.232c-.154.232-.386.425-.695.58a1.84 1.84 0 0 1-.927.231 2.04 2.04 0 0 1-1.159-.347 2.36 2.36 0 0 1-.811-.927c-.193-.386-.309-.85-.309-1.352a3.16 3.16 0 0 1 .309-1.352 2.35 2.35 0 0 1 .811-.927 2.04 2.04 0 0 1 1.159-.348 2.33 2.33 0 0 1 .927.193c.27.155.502.309.695.541v-.232a.62.62 0 0 1 .116-.347c.077-.078.193-.116.309-.116l.348.193zm-1.507 3.979c.232-.155.425-.348.541-.619a2.29 2.29 0 0 0 .193-.888 2.14 2.14 0 0 0-.193-.888c-.116-.271-.309-.464-.541-.618s-.502-.232-.811-.232-.579.077-.811.232-.425.347-.541.618a2.29 2.29 0 0 0-.193.888c0 .348.077.657.193.888.116.271.309.464.541.619s.502.231.811.231.579-.077.811-.231zm2.589-.077c0-.116.077-.232.193-.309.077-.039.154-.078.232-.078.116 0 .232.039.309.155.193.232.386.386.618.502s.463.155.773.155c.232 0 .464-.078.657-.155.193-.116.27-.27.27-.502s-.077-.386-.27-.502-.464-.232-.811-.309a4.03 4.03 0 0 1-.888-.309c-.232-.116-.425-.271-.579-.464s-.232-.463-.232-.772c0-.271.077-.541.232-.734.154-.232.386-.387.657-.503a2.29 2.29 0 0 1 .888-.193c.309 0 .618.039.927.155s.541.27.734.541a.42.42 0 0 1 .116.27c0 .116-.039.193-.154.309-.077.039-.155.077-.232.077-.116 0-.193-.038-.27-.116-.116-.154-.309-.27-.502-.347a1.79 1.79 0 0 0-.657-.116c-.232 0-.464.038-.618.154s-.27.271-.27.503.116.386.309.502.464.193.85.309c.348.077.618.193.85.27.232.116.425.27.579.464s.232.463.232.772-.077.541-.27.773c-.155.232-.386.386-.657.502a2.29 2.29 0 0 1-.889.193c-.386 0-.773-.077-1.12-.193-.348-.155-.618-.348-.85-.657-.116-.193-.155-.27-.155-.347zm9.155-1.353a.44.44 0 0 1-.309.116h-3.361c.039.463.232.85.541 1.12a1.68 1.68 0 0 0 1.12.425c.309 0 .541-.039.734-.116s.348-.193.502-.347a.71.71 0 0 1 .27-.078.35.35 0 0 1 .386.387.46.46 0 0 1-.193.347c-.193.193-.425.348-.734.464s-.618.193-.927.193c-.502 0-.966-.116-1.352-.309-.386-.232-.695-.502-.888-.889-.232-.386-.309-.811-.309-1.313 0-.541.116-1.004.348-1.391s.502-.695.85-.927.734-.309 1.159-.309.773.116 1.159.309c.348.194.657.503.85.85.232.386.309.773.348 1.236-.077.039-.116.155-.193.232zm-3.129-1.584c-.27.193-.425.502-.502.927h2.82v-.077c-.039-.348-.193-.618-.464-.811-.27-.232-.579-.309-.927-.309s-.657.077-.927.27zm8.691-2.935a.44.44 0 0 1 .116.309v6.142c0 .115-.039.231-.116.309a.44.44 0 0 1-.309.115.44.44 0 0 1-.309-.115c-.077-.078-.116-.194-.116-.348v-.271c-.154.232-.386.425-.657.58a1.84 1.84 0 0 1-.927.232 2.04 2.04 0 0 1-1.159-.348 2.36 2.36 0 0 1-.811-.927 3.03 3.03 0 0 1-.309-1.352 3.16 3.16 0 0 1 .309-1.352c.193-.386.464-.695.811-.927a2.04 2.04 0 0 1 1.159-.348 2.35 2.35 0 0 1 .927.193c.27.155.502.309.695.541v-2.24a.44.44 0 0 1 .425-.425c.077.116.193.154.27.232zm-1.468 5.948c.232-.154.425-.347.541-.618a2.29 2.29 0 0 0 .193-.888 2.15 2.15 0 0 0-.193-.889 1.41 1.41 0 0 0-.541-.618 1.43 1.43 0 0 0-.811-.231c-.309 0-.579.077-.811.231s-.425.348-.541.618a2.29 2.29 0 0 0-.193.889c0 .348.077.657.193.888.116.271.309.464.541.618s.502.232.811.232.58-.077.811-.232zm10.816.542c0 .115-.039.231-.116.309a.44.44 0 0 1-.309.115c-.077 0-.155-.038-.232-.077s-.116-.116-.193-.232l-.579-1.39h-2.936l-.579 1.39c-.039.078-.077.155-.154.232a.54.54 0 0 1-.232.077.44.44 0 0 1-.309-.115c-.077-.078-.116-.155-.116-.271v-.154l2.434-5.872a.4.4 0 0 1 .193-.232.55.55 0 0 1 .27-.077c.077 0 .193.039.27.077s.116.116.154.232l2.434 5.794v.194zm-4.017-2.125h2.202l-1.12-2.665-1.082 2.665zm9.232-2.318c.077.077.116.193.116.348v5.987a.44.44 0 0 1-.425.425.44.44 0 0 1-.309-.116c-.077-.077-.116-.193-.116-.348v-2.163c-.154.232-.386.425-.657.58a1.84 1.84 0 0 1-.927.231 2.04 2.04 0 0 1-1.159-.347 2.36 2.36 0 0 1-.811-.927c-.193-.386-.309-.85-.309-1.352a3.16 3.16 0 0 1 .309-1.352 2.35 2.35 0 0 1 .811-.927 2.04 2.04 0 0 1 1.159-.348 2.33 2.33 0 0 1 .927.193c.27.155.502.309.695.541v-.193c0-.116.039-.232.116-.348a.44.44 0 0 1 .309-.116c.116 0 .193.116.27.232zm-1.468 3.902c.232-.155.425-.348.541-.619a2.29 2.29 0 0 0 .193-.888 2.14 2.14 0 0 0-.193-.888c-.116-.27-.309-.464-.541-.618s-.502-.232-.811-.232-.579.077-.811.232-.425.347-.541.618a2.29 2.29 0 0 0-.193.888c0 .348.077.657.193.888.116.271.309.464.541.619s.502.231.811.231.579-.077.811-.231zm6.992-3.902a.44.44 0 0 1 .116.309v2.549c0 .657-.193 1.159-.541 1.545-.348.348-.888.541-1.545.541s-1.159-.193-1.545-.541c-.348-.347-.541-.888-.541-1.545v-2.549a.44.44 0 0 1 .425-.425c.116 0 .232.039.348.116a.44.44 0 0 1 .116.309v2.549c0 .85.386 1.236 1.159 1.236.386 0 .695-.115.888-.309s.309-.502.309-.927v-2.549a.44.44 0 0 1 .425-.425c.193 0 .309.039.386.116zm5.871-.077c.077.077.116.193.116.347v4.134a.44.44 0 0 1-.734.309c-.077-.078-.116-.193-.116-.348v-.232c-.154.232-.386.425-.657.58a1.84 1.84 0 0 1-.927.231 2.04 2.04 0 0 1-1.159-.347 2.36 2.36 0 0 1-.811-.927c-.193-.386-.309-.85-.309-1.352a3.16 3.16 0 0 1 .309-1.352 2.35 2.35 0 0 1 .811-.927c.348-.232.734-.348 1.159-.348a2.33 2.33 0 0 1 .927.193c.27.155.502.309.695.541v-.232a.62.62 0 0 1 .116-.347c.077-.116.193-.116.309-.116.077.077.154.116.27.193zm-1.507 3.979c.232-.155.425-.348.541-.619a2.29 2.29 0 0 0 .193-.888 2.14 2.14 0 0 0-.193-.888c-.116-.27-.309-.464-.541-.618s-.502-.232-.811-.232-.579.077-.811.232-.425.347-.541.618a2.29 2.29 0 0 0-.193.888c0 .348.077.657.193.888.116.271.309.464.541.619s.502.231.811.231c.348 0 .579-.077.811-.231zm6.375-3.902c.348.154.502.348.502.618 0 .116-.039.193-.116.309a.35.35 0 0 1-.27.116c-.077 0-.154 0-.193-.039s-.116-.077-.193-.116c-.039-.038-.116-.077-.193-.115a.72.72 0 0 0-.309-.078c-.155-.038-.27-.038-.386-.038-.348 0-.618.077-.888.231s-.463.348-.579.618c-.154.271-.193.58-.193.889 0 .348.077.657.193.888a1.78 1.78 0 0 0 .579.618c.231.154.541.232.85.232.348 0 .579-.038.811-.154a.81.81 0 0 1 .193-.116.53.53 0 0 0 .154-.116c.039-.039.116-.039.193-.039a.44.44 0 0 1 .425.425c0 .116-.077.271-.27.386-.154.116-.386.232-.657.309a3.39 3.39 0 0 1-.927.116 2.44 2.44 0 0 1-1.275-.347c-.387-.231-.657-.541-.85-.927a2.99 2.99 0 0 1-.309-1.314c0-.502.116-.927.309-1.313a2.28 2.28 0 0 1 .888-.927 2.43 2.43 0 0 1 1.275-.348c.502 0 .927.077 1.236.232zm5.523 0a.44.44 0 0 1 .116.309v2.549c0 .657-.193 1.159-.541 1.545-.348.348-.888.541-1.545.541s-1.159-.193-1.545-.541c-.348-.347-.541-.888-.541-1.545v-2.549a.44.44 0 0 1 .425-.425c.116 0 .232.039.348.116a.44.44 0 0 1 .116.309v2.549c0 .85.386 1.236 1.159 1.236.386 0 .695-.115.889-.309s.309-.502.309-.927v-2.549a.44.44 0 0 1 .425-.425c.193 0 .309.039.386.116zm2.318 4.713a.44.44 0 0 1-.734-.309v-6.142a.44.44 0 0 1 .425-.425.44.44 0 0 1 .425.425v6.142c.038.116-.039.232-.116.309zm2.897-3.94v2.819c0 .309.155.464.425.464.039 0 .116 0 .193-.039s.155-.038.193-.038a.21.21 0 0 1 .193.116c.039.077.078.154.078.27s-.078.232-.232.348c-.155.077-.309.154-.502.154s-.387-.038-.58-.077a.69.69 0 0 1-.463-.348c-.155-.193-.193-.463-.193-.811v-2.858h-.541a.44.44 0 0 1-.309-.734c.077-.078.193-.116.309-.116h.541v-.811c0-.116.038-.232.116-.309s.193-.116.347-.116c.116 0 .232.038.309.116a.44.44 0 0 1 .116.309v.811h.773c.116 0 .231.038.309.116a.44.44 0 0 1-.309.734h-.773zm6.297-.773c.077.077.115.193.115.309v2.549c0 .657-.193 1.159-.54 1.545-.348.348-.889.541-1.545.541s-1.159-.193-1.546-.541c-.347-.347-.54-.888-.54-1.545v-2.549c0-.116.038-.232.116-.309a.44.44 0 0 1 .309-.116c.115 0 .231.039.347.116a.44.44 0 0 1 .116.309v2.549c0 .85.386 1.236 1.159 1.236.386 0 .695-.115.888-.309s.309-.502.309-.927v-2.549a.44.44 0 0 1 .425-.425c.193 0 .309.039.387.116zm4.403-.115c.116.077.193.193.193.309 0 .154-.038.27-.116.347a.44.44 0 0 1-.309.116c-.038 0-.154 0-.27-.038s-.232-.078-.309-.078c-.193 0-.386.078-.58.193-.193.155-.347.309-.463.58-.116.232-.193.502-.193.811v2.279a.44.44 0 0 1-.734.309c-.077-.077-.116-.193-.116-.348v-4.055a.44.44 0 0 1 .116-.309c.077-.078.193-.116.309-.116s.232.038.309.116a.44.44 0 0 1 .116.309v.502c.154-.309.347-.58.618-.773a1.6 1.6 0 0 1 .965-.309c.194.039.348.077.464.155zm5.022 2.587a.44.44 0 0 1-.309.116h-3.361c.039.463.232.85.541 1.12a1.68 1.68 0 0 0 1.12.425c.309 0 .541-.039.734-.116s.348-.193.502-.347a.71.71 0 0 1 .271-.078.35.35 0 0 1 .27.116c.077.077.116.155.116.271a.46.46 0 0 1-.193.347c-.193.193-.425.348-.734.464s-.618.193-.927.193c-.502 0-.966-.116-1.352-.309-.387-.232-.696-.502-.889-.889-.231-.386-.309-.811-.309-1.313 0-.541.116-1.004.348-1.391s.502-.695.85-.927.734-.309 1.159-.309.772.116 1.158.309c.348.194.657.503.85.85.232.386.309.773.348 1.236-.039.039-.077.155-.193.232zm-3.09-1.584c-.271.193-.425.502-.503.927h2.82v-.077c-.038-.348-.193-.618-.463-.811-.271-.232-.58-.309-.927-.309-.387 0-.657.077-.927.27z"/></svg>