<svg xmlns="http://www.w3.org/2000/svg" xmlns:xlink="http://www.w3.org/1999/xlink" width="174" height="40" fill="none" xmlns:v="https://vecta.io/nano"><g fill="#666"><path d="M69.767 21.29l-.003-.011L65.06 2.96l-.002-.007h-.007-2.692-.007l-.002.007-4.704 18.318-.003.011h.012 2.873.007l.002-.007 3.169-12.359 3.169 12.359.002.007h.007 2.873.012z"/><path d="M60.548 21.29l-.003-.011L55.841 2.96l-.002-.007h-.007-2.692-.007l-.002.007-4.704 18.318-.003.011h.012 2.873.007l.002-.007 3.169-12.359 3.169 12.359.002.007h.007 2.873.012zM32.12 18.337l-.003-.011L27.413.007 27.411 0h-.007-2.692-.007l-.002.007-4.704 18.318-.003.011h.012 2.873.007l.002-.007L26.059 5.97l3.169 12.359.002.007h.007 2.873.012zm-19.996 0l-.003-.011L7.417.007 7.415 0h-.007-2.692-.007l-.002.007L.003 18.325 0 18.337h.012 2.873.007l.002-.007L6.062 5.971 9.231 18.33l.002.007h.007 2.873.012z"/><use xlink:href="#B"/><use xlink:href="#B" x="-19.996"/><path d="M75.608 9.065h-2.934V21.29h2.934V9.065zm-1.457-4.559c-.831 0-1.516.697-1.516 1.516 0 .831.684 1.516 1.516 1.516.843 0 1.516-.685 1.516-1.516 0-.819-.672-1.516-1.516-1.516zm10.781 4.218c-1.442 0-2.591.697-3.41 1.809V9.066h-2.934V21.29h2.934v-6.283c0-1.895 1.125-3.459 2.909-3.459 1.821 0 3.105 1.565 3.105 3.459v6.283h2.933v-6.332c-.037-3.411-2.163-6.234-5.537-6.234zm17.899 1.894c-.795-1.125-1.993-1.882-3.582-1.882-3.545 0-6.429 2.885-6.429 6.442a6.44 6.44 0 0 0 6.429 6.43c1.589 0 2.787-.758 3.582-1.883v1.565h2.934V2.954h-2.934v7.664zm-3.546 8.166c-1.882 0-3.459-1.601-3.459-3.606s1.566-3.618 3.459-3.618c1.92 0 3.289 1.601 3.289 3.618 0 1.993-1.357 3.606-3.289 3.606zm22.54-1.659L119.16 9.13h-2.909l-2.653 7.995-2.689-7.995h-2.873l4.095 12.236h2.897l2.677-8.031 2.677 8.031h2.909l4.084-12.236h-2.874l-2.676 7.995zm12.461-8.353c-3.373 0-6.111 2.885-6.111 6.454 0 3.545 2.738 6.43 6.111 6.43s6.113-2.885 6.113-6.43c0-3.569-2.738-6.454-6.113-6.454zm0 9.95c-1.723 0-3.178-1.528-3.178-3.496 0-1.895 1.393-3.52 3.178-3.52 1.748 0 3.179 1.589 3.179 3.521 0 1.882-1.369 3.496-3.179 3.496zm11.323-8.099V9.168h-2.934V21.38h2.958v-6.271c0-1.907 1.101-3.459 2.898-3.459a2.72 2.72 0 0 1 1.553.477l.476-3.129c-.476-.147-.99-.171-1.541-.171-1.442 0-2.591.709-3.41 1.797zm14.268-1.467l-4.095 4.89V3.043h-2.934V21.38h2.934v-2.775l1.736-2.066 2.811 4.841h3.386l-4.18-7.237 4.18-4.987h-3.838zm10.004 4.767c-.979-.318-2.275-.391-2.275-1.345 0-.978.918-1.381 2.042-1.332.856.061 1.675.575 2.029 1.174L174 11.051c-.942-1.455-2.653-2.31-4.596-2.31-2.384 0-4.548 1.504-4.548 3.912 0 2.188 2.03 3.374 4.364 3.851.917.22 2.053.428 2.053 1.357 0 .856-.928 1.247-1.882 1.247-1.1 0-2.005-.66-2.31-1.186l-2.481 1.064c.72 1.552 2.554 2.494 4.473 2.628 2.519.183 4.914-1.442 4.914-3.79.049-2.09-1.955-3.203-4.106-3.9z"/></g><defs ><path id="B" d="M29.985 21.303l.003.011 4.704 18.318.002.007h.007 2.692.007l.002-.007 4.704-18.318.003-.011h-.012-2.873-.007l-.002.007-3.169 12.359-3.169-12.359-.002-.007h-.007-2.873-.012z"/></defs></svg>