<svg xmlns="http://www.w3.org/2000/svg" width="140" height="47" fill="#666" xmlns:v="https://vecta.io/nano"><path d="M13.817 8.523v37.578h10.137V8.523h13.817V0H0v8.523h13.817zM68.448 0l29.684 46.101h10.298V0h-9.491v30.928h-.129L79.568 0h-11.12z"/><path d="M109.331 37.578V8.523h7.231c2.497 0 4.584.366 6.263 1.098 1.722.689 3.099 1.7 4.132 3.035s1.765 2.948 2.196 4.842c.473 1.851.71 3.939.71 6.263 0 2.54-.323 4.692-.969 6.457s-1.506 3.207-2.582 4.326c-1.076 1.076-2.303 1.851-3.681 2.325a13.01 13.01 0 0 1-4.261.71h-9.039zM99.194 0v46.101h19.886c3.53 0 6.586-.581 9.169-1.743 2.626-1.205 4.799-2.841 6.521-4.907 1.765-2.066 3.078-4.52 3.939-7.361S140 26.15 140 22.792c0-3.831-.538-7.167-1.614-10.008-1.033-2.841-2.497-5.208-4.391-7.102-1.851-1.894-4.067-3.314-6.65-4.261C124.805.473 122.05 0 119.08 0H99.194zM37.716 0L67.4 46.101h10.298V0h-9.491v30.928h-.129L48.836 0h-11.12z"/><path d="M77.698 0L48.014 46.101H37.716V0h9.491v30.928h.129L66.577 0h11.12z"/><path d="M52.383 22.699L67.4 46.101h10.298V0h-9.491v30.928h-.129l-10.456-16.61-5.238 8.381z"/><path d="M63.209 23.398L48.014 46.101H37.716V0h9.491v30.928h.129l10.285-16.61 5.588 9.08z"/></svg>