<svg xmlns="http://www.w3.org/2000/svg" width="159" height="29" fill="#666" fill-rule="evenodd" xmlns:v="https://vecta.io/nano"><path d="M129.978 25.716v-1.405h.785l-.636-2.882c-.037-.072-.075-.144-.149-.144v-1.477c.747 0 1.532.181 1.756 1.153l1.607 6.412v.036c0 .108-.075.18-.186.18h-1.496c-.111 0-.187-.072-.224-.18l-.374-1.693h-1.083zm9.79-.289c0-.828-.337-1.513-1.457-2.089l-1.383-.72c-.561-.288-.71-.432-.71-.72 0-.396.224-.541.859-.541l2.242.108h.037a.17.17 0 0 0 .187-.18V20.24c0-.109-.074-.18-.149-.18-.411-.107-1.495-.252-2.28-.252-2.092 0-2.765.901-2.765 2.018 0 .757.299 1.405 1.271 1.981l1.494.864c.562.325.711.468.711.756 0 .505-.224.757-.972.757-.411 0-1.607-.108-2.018-.144h-.037c-.112 0-.187.037-.187.216v1.009c0 .108.112.144.187.18a7.93 7.93 0 0 0 2.055.252c2.167 0 2.915-1.189 2.915-2.27zm3.288.577c0-.072-.075-.109-.15-.109h-1.308c-.149 0-.186.072-.224.181l-.673 2.305c0 .036-.037.036-.037.072 0 .072.113.144.187.144h.934c.149 0 .149-.072.224-.216l1.009-2.305c.038 0 .038-.037.038-.072zm12.093.478v-.862h.482l-.39-1.768c-.022-.044-.022-.088-.092-.088v-.906c.459 0 .94.111 1.101.707l.962 3.932c0 .022.023.022.023.022 0 .066-.046.11-.115.11h-.916c-.069 0-.137-.044-.137-.11l-.23-1.038h-.688zM159 27.498v-.795c0-.066-.069-.111-.137-.111h-.78c-.069 0-.138.044-.138.111v.795c0 .088.069.132.138.132h.78c.068 0 .137-.044.137-.132zm-3.851-4.64v.906c-.045 0-.068.044-.091.088l-.39 1.768h.481v.862h-.664l-.252 1.038c0 .066-.046.11-.114.11h-.918c-.068 0-.114-.044-.114-.11v-.022l.986-3.933c.137-.597.619-.707 1.076-.707zm-4.721 3.446c0-.508-.205-.928-.893-1.281l-.825-.441c-.366-.177-.458-.266-.458-.442 0-.243.137-.331.527-.331l1.398.066c.092 0 .114-.066.114-.11v-.641c0-.067-.045-.111-.091-.111a7.2 7.2 0 0 0-1.398-.155c-1.284 0-1.673.552-1.673 1.237 0 .464.161.862.756 1.215l.917.53c.344.199.435.287.435.464 0 .309-.138.464-.596.464-.252 0-.963-.066-1.237-.088h-.023c-.069 0-.115.023-.115.133v.618c0 .067.069.089.138.11.32.089.71.155 1.237.155 1.329 0 1.787-.73 1.787-1.392zm1.926 1.193v-.795c0-.066-.069-.111-.137-.111h-.757c-.092 0-.137.044-.137.111v.795c0 .088.045.132.137.132h.757c.068 0 .137-.044.137-.132zm-22.376-7.69v1.477c-.112 0-.15.072-.15.144l-.672 2.882h.822v1.405h-1.122l-.373 1.693c-.037.108-.113.18-.224.18h-1.494c-.113 0-.188-.072-.188-.18v-.036l1.607-6.412c.262-.973 1.047-1.153 1.794-1.153zm-14.349 7.889v-1.549c.897 0 1.308-.54 1.308-1.765v-1.225c0-1.261-.411-1.765-1.308-1.802v-1.549c1.756.036 3.177.937 3.177 3.35v1.225c0 2.378-1.421 3.314-3.177 3.314zm10.126-6.52v-1.081c0-.108-.111-.18-.224-.18h-5.306c-.149 0-.224.072-.224.18v1.081c0 .108.075.18.224.18h1.719v6.016c0 .143.112.215.225.215h1.419c.112 0 .187-.072.187-.215v-6.016h1.756c.113 0 .224-.072.224-.18zm-10.126-1.369v1.549c-.896 0-1.307.541-1.307 1.802v1.225c0 1.225.411 1.765 1.307 1.765v1.549c-1.756 0-3.176-.937-3.176-3.314v-1.225c0-2.414 1.42-3.351 3.176-3.351zm-32.545 7.889v-1.549c.896 0 1.307-.54 1.307-1.765v-1.225c0-1.261-.411-1.765-1.307-1.802v-1.549c1.756.036 3.176.937 3.176 3.35v1.225c0 2.378-1.42 3.314-3.176 3.314zm9.938-2.27c0-.828-.336-1.513-1.419-2.089l-1.383-.72c-.598-.288-.71-.432-.71-.72 0-.396.225-.541.822-.541l2.28.108a.17.17 0 0 0 .186-.18V20.24c0-.109-.075-.18-.149-.18a11.76 11.76 0 0 0-2.279-.252c-2.055 0-2.728.901-2.728 2.018 0 .757.262 1.405 1.271 1.981l1.457.864c.56.325.71.468.71.756 0 .505-.224.757-.934.757-.449 0-1.607-.108-2.056-.144h-.037c-.112 0-.187.037-.187.216v1.009c0 .108.112.144.224.18.523.144 1.159.252 2.018.252 2.167 0 2.914-1.189 2.914-2.27zm9.192 1.91v-.973c0-.108-.112-.18-.224-.18h-2.167c-.523 0-.673-.18-.673-.72v-1.081h2.765c.112 0 .225-.108.225-.216v-.973c0-.144-.113-.216-.225-.216H99.15v-.936c0-.54.15-.72.673-.72h2.167c.112 0 .224-.072.224-.181v-.972c0-.144-.074-.18-.224-.216-.374-.037-.897-.145-2.055-.145-1.383 0-2.616.36-2.616 2.234v3.422c0 1.874 1.233 2.233 2.578 2.233 1.159 0 1.719-.109 2.093-.144.15-.037.224-.072.224-.216zm9.08 0v-.973c0-.108-.112-.18-.224-.18h-1.831c-.523 0-.71-.18-.71-.72v-5.332c0-.107-.075-.216-.187-.216h-1.42c-.112 0-.224.108-.224.216v5.332c0 1.874 1.233 2.233 2.616 2.233.56 0 1.419-.072 1.756-.144.149-.036.224-.072.224-.216zm-28.211-7.529v1.549c-.897 0-1.308.541-1.308 1.802v1.225c0 1.225.411 1.765 1.308 1.765v1.549c-1.757 0-3.177-.937-3.177-3.314v-1.225c0-2.414 1.42-3.351 3.177-3.351zm-14.349 5.404v-1.873c.823-.036 1.121-.324 1.121-.972v-.108c0-.576-.411-.864-1.121-.936v-1.477c1.681.036 2.952.649 2.952 2.413v.108c0 1.117-.635 1.765-1.382 2.089l1.606 2.882c0 .071.038.108.038.144 0 .072-.038.108-.187.108h-1.644c-.112 0-.15-.108-.187-.216l-1.196-2.162zm9.977-4.034v-1.081c0-.108-.112-.18-.224-.18h-5.306c-.112 0-.224.072-.224.18v1.081c0 .108.112.18.224.18H74.9v6.016c0 .143.112.215.224.215h1.42c.111 0 .186-.072.186-.215v-6.016h1.757c.112 0 .224-.072.224-.18zm-9.977-1.333v1.477h-.299l-.822.035v1.981l.748.036c.149 0 .261-.036.373-.036v1.873l-.262-.432h-.111-.748v2.594c0 .143-.112.215-.224.215h-1.382c-.112 0-.224-.072-.224-.215v-6.917c0-.36.149-.432.486-.504a17.32 17.32 0 0 1 2.167-.145c.112 0 .186.036.299.036zm-7.809 7.853v-1.549c.897 0 1.345-.54 1.345-1.765v-1.225c0-1.261-.449-1.765-1.345-1.802v-1.549c1.793.036 3.176.937 3.176 3.35v1.225c0 2.378-1.383 3.314-3.176 3.314zm-4.447-5.295v-.072c0-1.837-1.42-2.45-2.952-2.486v1.441c.747.072 1.121.36 1.121 1.045v.072c0 .648-.336.972-1.121 1.044v1.441c1.532-.036 2.952-.648 2.952-2.485zm4.447-2.594v1.549c-.897 0-1.308.541-1.308 1.802v1.225c0 1.225.411 1.765 1.308 1.765v1.549c-1.756 0-3.176-.937-3.176-3.314v-1.225c0-2.414 1.42-3.351 3.176-3.351zm-7.398.036c-.075 0-.187-.036-.262-.036a17.31 17.31 0 0 0-2.167.145c-.336.072-.486.144-.486.504v6.952c0 .108.075.18.224.18h1.383c.112 0 .187-.072.187-.216v-2.486l.86.036c.112 0 .187-.036.262-.036v-1.441h-.262-.86v-2.125l.86-.036h.262v-1.441h0zM0 6.974c2.842.045 4.65 2.536 6.177 5.683.869-4.732 2.771-8.423 6.106-10.62L9.723 0C4.58.679 1.55 3.192 0 6.974zm152.355 3.987V8.403h1.433l-1.174-5.162c-.047-.181-.071-.272-.259-.272V.32c1.339 0 2.748.272 3.195 2.06l2.888 11.593c0 .045.024.068.024.091 0 .204-.141.294-.329.294h-2.7a.4.4 0 0 1-.4-.317l-.705-3.08h-1.973 0zm0-10.642v2.649c-.164 0-.235.091-.258.272l-1.198 5.162h1.456v2.558h-1.996l-.704 3.08c-.024.181-.188.317-.376.317h-2.724c-.188 0-.329-.091-.329-.294 0-.023.023-.045.023-.091l2.889-11.593c.446-1.789 1.879-2.06 3.217-2.06zm-45.963 9.17V6.863c1.41-.113 2.021-.725 2.021-1.879v-.158c0-1.2-.705-1.744-2.021-1.834V.32c2.749.113 5.309 1.177 5.309 4.506v.158c0 3.305-2.584 4.415-5.309 4.506zm38.682 4.302V11.98c0-.226-.117-.385-.375-.385h-.047c-.751.068-1.809.159-2.866.159-1.339 0-2.419-.679-2.419-3.17V6.229c0-2.468 1.08-3.147 2.419-3.147 1.057 0 2.115.091 2.866.159h.047c.258 0 .375-.159.375-.385V1.044c0-.271-.164-.34-.422-.407-.423-.136-1.55-.317-2.889-.317-2.959 0-5.754 1.472-5.754 5.91v2.355c0 4.461 2.795 5.955 5.754 5.955 1.339 0 2.466-.181 2.889-.317.258-.068.422-.181.422-.431zm-10.896-3.351c0-1.517-.612-2.739-2.608-3.781l-2.489-1.291c-1.057-.544-1.292-.793-1.292-1.313 0-.679.399-.996 1.503-.996 1.315 0 3.57.181 4.11.204h.047c.235 0 .329-.136.329-.317V1.067c0-.204-.141-.294-.305-.34-.728-.181-2.678-.407-4.111-.407-3.758 0-4.955 1.585-4.955 3.645 0 1.359.493 2.536 2.278 3.555l2.677 1.54c1.01.589 1.292.883 1.292 1.426 0 .883-.4 1.313-1.738 1.313-.752 0-2.889-.158-3.688-.226h-.047c-.187 0-.351.091-.351.339v1.834c0 .203.187.317.398.385a15.62 15.62 0 0 0 3.664.408c3.922 0 5.286-2.106 5.286-4.099zm-11.674 3.464v-1.743c0-.204-.164-.363-.376-.363h-3.945c-.916 0-1.245-.317-1.245-1.29v-1.97h5.026c.212 0 .376-.158.376-.385V6.388c0-.204-.164-.362-.376-.362h-5.026V4.304c0-.973.329-1.268 1.245-1.268h3.945c.212 0 .376-.159.376-.362V.931c0-.249-.117-.34-.376-.362-.681-.113-1.667-.249-3.757-.249-2.49 0-4.721.589-4.721 3.985v6.204c0 3.419 2.208 4.031 4.697 4.031 2.114 0 3.1-.159 3.781-.249.259-.022.376-.136.376-.385zM106.392.32v2.672c-.14-.023-.305-.023-.469-.023-.259 0-1.339.046-1.55.046v3.826c.211.023 1.339.023 1.55.023h.469V9.49c-.164.023-.305.023-.469.023-.446 0-1.08-.046-1.55-.068v4.551c0 .204-.188.362-.4.362h-2.489c-.235 0-.399-.136-.399-.34V1.452c0-.634.282-.792.869-.883.986-.158 2.537-.249 3.945-.249h.493 0zM93.24 10.961V8.403h1.457l-1.198-5.162c-.024-.181-.07-.272-.234-.272h-.024V.32h.024c1.338 0 2.748.272 3.194 2.06l2.888 11.593c0 .045.024.068.024.091 0 .204-.141.294-.329.294h-2.724c-.188 0-.352-.136-.376-.317l-.705-3.08H93.24h0zm0-10.642v2.649c-.164 0-.211.091-.258.272l-1.174 5.162h1.432v2.558h-1.972l-.705 3.08a.4.4 0 0 1-.4.317h-2.701c-.188 0-.329-.091-.329-.294 0-.023.024-.045.024-.091L90.046 2.38C90.493.591 91.902.32 93.24.32zm-24.096 14.22v-2.808c1.621 0 2.395-.951 2.395-3.193V6.32c0-2.242-.775-3.193-2.395-3.193V.32c3.194 0 5.731 1.653 5.731 6v2.219c0 4.325-2.536 6-5.731 6zm16.816-.748V11.98c0-.226-.118-.385-.352-.385h-.071c-.728.068-1.808.159-2.865.159-1.338 0-2.395-.679-2.395-3.17V6.229c0-2.468 1.057-3.147 2.395-3.147 1.057 0 2.137.091 2.865.159h.071c.235 0 .352-.159.352-.385V1.044c0-.271-.141-.34-.423-.407C85.138.501 84.01.32 82.648.32c-2.936 0-5.707 1.472-5.707 5.91v2.355c0 4.461 2.771 5.955 5.707 5.955 1.362 0 2.49-.181 2.889-.317.282-.068.423-.181.423-.431zM69.144.32v2.807c-1.621 0-2.372.951-2.372 3.193v2.219c0 2.241.751 3.193 2.372 3.193v2.808c-3.194 0-5.731-1.676-5.731-6V6.32c0-4.347 2.537-6 5.731-6zm-13.2 14.197v-2.74c1.315-.204 2.137-.996 2.137-3.147v-2.4c0-2.151-.822-2.966-2.137-3.147V.342c3.429.249 5.449 2.196 5.449 5.887v2.4c0 3.691-2.02 5.638-5.449 5.887zm0-14.174v2.74c-.235-.045-.47-.068-.728-.068a21.95 21.95 0 0 0-1.386.045v8.74c.282 0 .893.023 1.386.023.258 0 .493 0 .728-.045v2.74a7.8 7.8 0 0 1-.728.023c-1.621 0-3.335-.159-4.134-.272-.376-.068-.564-.226-.564-.657V1.248c0-.43.188-.589.564-.657.798-.136 2.513-.272 4.134-.272.235 0 .493 0 .728.023zM22.242 0c12.307 6.793 10.78 22.031-.212 27.6h9.089v-5.479c12.894-1.721 14.679-19.812 0-21.986L22.242 0z"/><path d="M22.852 1.834c7.422 6.227 7.257 15.985 0 21.488v-5.298c1.033 0 1.879-.838 1.879-1.834s-.845-1.812-1.879-1.812V1.834zM9.723 0h10.522c.963.566 1.808 1.177 2.607 1.834v12.544c-1.057 0-1.902.815-1.902 1.812s.845 1.834 1.902 1.834v5.298c-.705.543-1.48 1.019-2.325 1.472-2.349.928-3.547.136-3.617-2.4l.071-9.736C16.558 7.404 14.327 3.057 9.723 0z"/></svg>