<svg xmlns="http://www.w3.org/2000/svg" width="163" height="56" fill="none" xmlns:v="https://vecta.io/nano"><g fill-rule="evenodd" fill="#666"><path d="M0 10.053l5.04-.663 3.135 23.813 13.451-1.771.608 4.618-18.49 2.434L0 10.053zm6.611 5.371l3.062 1.477.83.401c.479.231.479.231.473.82l-.318-.138-3.583-1.718c-.381-.173-.526-.404-.465-.841zm-.582-4.37l1.889.91 2.005.968c.472.228.472.228.486.829l-.319-.142-3.586-1.715c-.39-.175-.513-.415-.475-.85zm.195 1.456l2.747 1.325 1.149.544c.402.145.522.407.473.83l-.314-.136-3.585-1.716c-.386-.175-.519-.41-.47-.846zm4.556 4.168l-2.17-1.047-1.722-.818c-.401-.158-.515-.414-.477-.836l.316.138 3.583 1.717c.382.173.527.404.47.846zm-3.982.2l.999.481 2.89 1.394c.475.229.475.229.489.829l-.319-.14-3.581-1.715c-.388-.174-.523-.407-.478-.849zm4.742 5.605l-.289-.125-3.579-1.716c-.376-.171-.553-.387-.489-.834l.299.125 3.579 1.716c.373.17.561.383.478.834zm.964 7.289l-.323-.148-3.558-1.704c-.384-.174-.537-.401-.485-.837l.311.134 3.644 1.747c.374.171.452.415.411.809zm-4.556-4.158l.626.298 3.301 1.582c.384.172.487.41.439.823l-.322-.148-3.559-1.705c-.385-.174-.536-.401-.484-.849zm3.791-1.658l-1.971-.95-1.92-.915c-.394-.161-.522-.407-.476-.83l.316.133 3.606 1.731c.379.172.494.407.445.831zm-.382-2.909l-1.799-.867-2.088-1.009c-.475-.229-.475-.229-.488-.825l.321.137 3.58 1.716c.384.174.524.406.473.847zm.567 4.361l-.588-.279-3.331-1.595c-.392-.174-.461-.428-.454-.83l.337.152 3.56 1.707c.377.172.549.391.476.846zm.206 1.464l-2.36-1.138-1.523-.725c-.391-.154-.551-.391-.491-.835l.304.127 3.616 1.735c.383.173.482.414.453.836zm.566 4.36l-.74-.355-3.211-1.537c-.377-.17-.448-.417-.411-.81l.326.15 3.583 1.719c.376.171.504.399.453.833zm10.272 4.413l2.769 1.311 1.153.537c.407.142.477.416.441.813l-.325-.143-3.644-1.748c-.354-.162-.424-.39-.393-.771zm4.169 1.219l-.824-.396-3.099-1.487c-.351-.158-.487-.367-.439-.773l.311.128 3.541 1.668c.386.172.576.391.509.86zm-.19-1.463l-.319-.145-3.61-1.733c-.35-.16-.478-.373-.43-.771l.312.133 3.638 1.747c.354.162.459.383.41.769zm-16.023 5.276c-.554.128-.988.157-1.454-.091l-2.972-1.448a1.27 1.27 0 0 1-.299-.19c.391-.075.757-.229 1.172-.017l3.553 1.745zm-2.588-2.03c.521-.112.924-.17 1.365.06l3.364 1.672c-.413.066-.798.227-1.235-.001l-3.139-1.546-.356-.185zm6.997 1.45c-.534.117-.956.171-1.415-.072l-3.055-1.49a1.02 1.02 0 0 1-.264-.173c.415-.072.802-.214 1.239.014l3.495 1.721zm1.824-2.612c.561-.132 1.004-.157 1.482.098l3.247 1.636c-.366.05-.712.229-1.101.036l-3.317-1.607-.311-.164zm2.567 2.041c-.501.083-.899.179-1.342-.057l-3.076-1.519-.347-.189c.488-.063.857-.188 1.273.03l3.164 1.557.329.178zm6.567-.922c-.464.151-.884.206-1.343-.039l-3.271-1.614.001-.109c.32-.007.689-.122.953-.003l3.66 1.765zm-13.476-.491c.439-.152.842-.221 1.284.011l3.111 1.513.328.173c-.503.096-.91.173-1.36-.061l-3.363-1.636zm11.373.818c-.539.119-.961.166-1.42-.074l-3.318-1.616-.002-.103c.321-.009.689-.127.954-.01l3.787 1.803zM5.863 9.811l.326.149 3.63 1.776c.296.14.469.305.407.685l-.302-.13-3.672-1.761c-.336-.154-.425-.358-.39-.72zm6.579 22.068c-.555.148-.995.167-1.454-.092a19.25 19.25 0 0 0-2.004-.969c-.381-.16-.51-.397-.456-.835l3.914 1.896zm-3.738-.448l1.501.712c-.859.375-1.474.098-1.501-.712zm44.975-.224l-5.076.424-.567-6.793-13.647 1.139.567 6.787-5.095.425-.029-.345-1.317-15.812c-.167-2.029-.14-4.05.363-6.041.916-3.627 3.169-6.007 6.729-7.116 2.763-.86 5.585-1.055 8.426-.432 3.399.746 5.705 2.813 7.044 5.994.754 1.79 1.094 3.674 1.254 5.599l1.321 15.843.027.327zm-6.002-10.406l-.007-.289-.471-5.553c-.098-1.115-.326-2.203-.732-3.249-.783-2.016-2.145-3.397-4.327-3.808-1.462-.276-2.918-.181-4.338.278-1.814.586-3.049 1.789-3.717 3.569-.431 1.148-.609 2.348-.539 3.562l.483 6.478c.005.059.033.116.043.148l13.606-1.136zm9.463-4.52l-.299-.149-3.47-1.869c-.401-.204-.529-.461-.45-.899l.28.137 3.479 1.919c.379.198.468.463.459.861zm-4.513-4.492l.332.168 3.229 1.774c.555.305.555.305.661.994l-1.24-.674-2.487-1.344c-.412-.2-.479-.5-.496-.919zM39.739 33.304l-4.065-2.233c-.143-.082-.153-.397-.224-.603l.08-.059.289.145 3.496 1.885c.38.194.495.437.423.866zm13.605-15.525l2.98 1.619.838.456c.434.236.44.247.382.823l-.646-.346-3.105-1.675c-.38-.193-.544-.427-.45-.878zm4.692 8.755l-1.834-.996-1.954-1.061c-.467-.253-.467-.253-.418-.834l.283.14 3.495 1.886c.374.192.508.429.428.866zm-4.33-4.368l1.835.995 1.982 1.078c.441.24.441.239.392.819l-.31-.155-3.439-1.855c-.378-.194-.542-.429-.459-.883zm4.692 8.74l-.31-.153-3.438-1.854c-.378-.194-.54-.43-.456-.875l.299.155 3.516 1.911c.45.245.45.244.389.817zm-18.78.934l-1.191-.645-2.601-1.402c-.377-.189-.502-.432-.419-.844l.282.138 3.468 1.87c.377.193.545.427.462.883zm14.703-2.355l2.822 1.531c.326.177.639.387.982.524.395.158.471.431.402.84l-.31-.159-3.473-1.873c-.375-.192-.507-.428-.423-.863zm4.021.009l-1.533-.831-2.321-1.249c-.383-.187-.489-.439-.416-.838.042.016.082.025.116.044l3.91 2.118c.31.166.143.445.244.755zM35.279 27.48l.178.083 3.829 2.073c.334.177.149.466.207.732l-.296-.153L35.7 28.33c-.38-.195-.486-.442-.422-.849zm22.885.52l-.718-.388-3.076-1.658c-.382-.193-.493-.438-.422-.851l.308.155 3.468 1.868c.379.193.506.431.439.874zm-22.519 3.871l.29.141 3.467 1.869c.376.193.544.426.46.875l-.3-.153-3.495-1.885c-.381-.195-.486-.441-.422-.847z"/><path d="M53.585 20.713l.343.178 3.44 1.855c.373.192.512.428.423.856l-.299-.155-3.44-1.855c-.37-.191-.563-.413-.467-.878zm-.369-4.385l.281.138 3.468 1.872c.368.191.572.408.453.868l-.281-.145-3.497-1.885c-.379-.194-.497-.437-.424-.848zm-.112-1.474l4.058 2.226c.143.082.152.398.223.605l-.079.063-.287-.148-3.47-1.872c-.376-.194-.553-.421-.446-.874zm4.568 7.279l-.173-.079-3.829-2.074c-.332-.176-.151-.465-.295-.776l.386.197 3.497 1.886c.38.195.486.441.414.845zm.991 11.709l-.298-.147-3.512-1.928c-.342-.18-.493-.396-.416-.811l.298.148 3.527 1.901c.386.196.433.454.401.838zM52.18 10.158l.286.142 3.046 1.66c.453.231.743.531.818 1.068l-.292-.144-3.191-1.725c-.437-.219-.618-.528-.667-1.001zM39.915 28.602l-.582.198.016.1-4.067-2.209c.416-.071.806-.225 1.231.023l3.111 1.72.29.168zm-4.825 4.962l.701-.178-.009-.099 3.938 2.176c-.399.082-.77.214-1.175-.016l-3.455-1.883zm11.504-5.503c-.587.172-1.054.055-1.532-.223l-3.111-1.733c.439-.058.848-.178 1.294.087l3.059 1.693.289.176zm-4.415.377c-.593.135-1.063.087-1.547-.207l-2.862-1.587-.312-.19c.522-.066.945-.118 1.393.148l3.01 1.648.318.187zm-2.502-2.161c.55-.087.981-.119 1.438.154l2.98 1.632.333.196c-.516.063-.927.15-1.369-.111l-3.382-1.872zm-2.07 9.416c-.577.089-1.031.12-1.507-.165l-2.924-1.604c-.089-.048-.175-.103-.255-.185.418-.061.809-.175 1.236.07l3.451 1.885zm15.307-3.578c.42-.13.805-.2 1.216.038l3.093 1.692.316.188c-.514.068-.927.124-1.367-.133l-3.259-1.784zm2.394 2.103c-.498.06-.901.14-1.334-.117l-2.98-1.649-.371-.221c.492-.04.867-.148 1.273.088l3.093 1.709.319.19zM51.452 8.36l3.482 1.943c.263.157.404.52.601.789l-.052.059-.264-.126-2.936-1.58c-.601-.323-.601-.323-.83-1.084zm-3.915 19.442L44.094 25.9c.538-.059.961-.149 1.391.135.494.327 1.034.584 1.555.872.479.264.479.264.498.895zm2.965-21.133c1.222.622 2.427 1.269 3.441 2.372l-.275-.117-2.582-1.432c-.272-.166-.443-.498-.66-.754l.076-.069zM31.174 33.821c.181.017.39-.019.537.06l3.575 1.95-.008.086c-.183-.011-.397.036-.545-.042l-3.573-1.949.014-.105zm16.256-7.475l-1.067-.589.013-.06.804-.058c.068 0 .177.099.197.172.041.148.034.309.053.535zm-8.091-12.053l-.202.547-4.458-2.448.159-.545 4.5 2.446zm-5.009.076l.311.156 3.678 2.01c.453.247.453.247.303.817l-.304-.159-3.641-2.012c-.445-.246-.445-.246-.348-.811zm5.566-1.152l-.283.476-4.459-2.449.285-.476 4.457 2.449zm-5.387-.146l4.285 2.359c.307.171.017.388.045.626l-.759-.408-3.332-1.802c-.438-.237-.438-.237-.239-.775zm1.343-2.825l.416-.403 4.411 2.412-.413.404-4.414-2.413zm-1.547 5.532l.281.138 3.532 1.895c.382.197.595.415.442.884l-.286-.144-3.551-1.926c-.377-.195-.491-.44-.418-.848zm8.802-4.986c-.44.343-.808.226-1.219-.012l-3.207-1.765-.335-.188c.438-.195.794-.241 1.204-.004l3.29 1.811.267.157zm-6.172-1.353c.396-.324.492-.336.882-.125l3.855 2.094c-.363.387-.39.392-.831.153l-3.605-1.95-.3-.173zm1.707 10.684l-3.064-1.653c-.243-.131-.475-.291-.731-.387-.405-.152-.492-.437-.422-.842l.143.062 3.862 2.093c.316.169.172.425.211.727zm1.836-11.522c.51-.08 1.005-.127 1.474.14l2.636 1.475c.112.063.21.152.378.276-.456.073-.792.142-1.169-.076l-3.319-1.814zm-5.93 10.089l3.913 2.111c-.428.075-.831.224-1.263-.037l-2.227-1.223c-.458-.249-.458-.249-.422-.851zm1.724 2.321c-.906.239-1.782-.001-1.607-.858l1.607.858zM62.125 0l9.111.003c2.055.002 4.069.255 5.968 1.092 3.144 1.387 4.916 3.828 5.441 7.198a10.88 10.88 0 0 1-1.331 7.274c-.874 1.527-2.065 2.739-3.632 3.565l-.171.101 3.069 3.653c.767.847 1.799 1.212 2.948 1.213h1.237v4.513l-1.302.162c-1.448.122-2.886.107-4.279-.387-1.643-.582-2.784-1.749-3.673-3.194l-1.94-3.214c-.386-.616-.886-1.14-1.508-1.531-.102-.064-.232-.117-.349-.117l-4.301.024c-.052 0-.103.01-.192.019v8.303h-5.095V0zm5.104 15.849l4.523-.011c.525-.011 1.056-.11 1.57-.233 1.779-.427 3.088-1.421 3.673-3.213.394-1.205.42-2.439.182-3.679-.336-1.748-1.329-2.962-3.014-3.548-.625-.217-1.291-.395-1.947-.426l-4.899-.08c-.028 0-.056.022-.087.035v11.155zm19.432 1.733l-.244.53-4.157-2.73.244-.53 4.157 2.729zm-5.008-1.136l.29-.487 4.146 2.764-.283.449-4.153-2.726zm5.609-.709l-2.151-1.425-1.59-1.055c-.411-.273-.411-.273-.213-.788l.288.183 3.354 2.192c.462.302.462.302.312.893zm-8.152 3.416c.416-.373.416-.373.817-.111l3.461 2.26.285.196c-.117.099-.208.203-.323.264-.074.04-.207.058-.268.018l-3.972-2.628zm4.289-11.036l.303.186 3.119 2.017c.425.256.506.598.55 1.079l-.321-.203-3.18-2.098c-.481-.318-.481-.318-.47-.981zm3.714 8.325l-.21.526-2.508-1.664-1.271-.841c-.386-.256-.386-.259-.136-.729l4.125 2.708zm-3.609-5.324l.296.19 3.404 2.235c.328.208.423.43.283.817l-.288-.167-3.382-2.211c-.44-.288-.44-.288-.313-.864zm6.007 20.717c-.132-.065-.246-.107-.345-.173l-3.238-2.144c-.342-.218-.509-.449-.375-.885l.277.166 3.385 2.21c.318.2.41.421.296.827zm-17.563-5.673l-.303-.194-3.331-2.174c-.352-.219-.446-.463-.338-.871l.294.177 3.305 2.155c.35.219.502.455.374.907zm.001 1.472l-1.381-.906-2.209-1.448c-.445-.292-.445-.292-.402-.896l.3.174 3.332 2.174c.358.223.473.469.361.902z"/><path d="M85.553 27.149l1.026.673 2.607 1.697c.358.217.436.471.34.873l-.288-.173-3.297-2.15c-.357-.223-.511-.467-.388-.919zm-13.597-2.446l-2.272-1.491-1.36-.882c-.359-.199-.464-.455-.35-.872l.287.168 3.355 2.188c.357.222.421.473.34.889zm-.007 5.858l-.301-.186-3.297-2.151c-.344-.216-.515-.446-.367-.888l.268.157 3.323 2.169c.348.218.504.451.374.9zm.001-1.463l-.305-.193-3.332-2.175c-.356-.221-.431-.471-.342-.877l.299.183 3.306 2.156c.352.219.5.457.374.905zm9.006-11.677l.323-.409 4.155 2.729-.358.412-4.12-2.732zM67.925 28.73l.219.122 3.651 2.425c.203.133.215.287.159.558-.175-.046-.372-.05-.511-.141l-3.311-2.19c-.309-.2-.147-.467-.207-.774zM80.09 18.312l.372-.362 4.156 2.729-.399.371-4.128-2.738zm3.472-8.6l.296.179 3.24 2.124c.364.227.471.501.441.937l-.3-.19-3.325-2.168c-.361-.225-.461-.475-.352-.882zm.171 19.796c.411-.091.739-.188 1.113.073l3.147 2.092.305.215c-.477.056-.857.134-1.267-.16l-3.008-2.014-.29-.206zm-14.979-8.38c.615-.122 1.093.021 1.567.355l2.933 1.982c-.403-.001-.796.128-1.19-.143l-3.002-1.979-.308-.215zm-5.187 8.313c.569-.064 1.013-.033 1.453.286l2.726 1.823.354.246c-.511.002-.921.087-1.333-.205l-2.885-1.928-.313-.222zm25.965-1.614l-.291-.173-3.383-2.209c-.334-.209-.397-.444-.311-.814l.3.185 3.42 2.267c.31.198.32.42.264.744zm-23.665 1.667c.457-.099.864-.109 1.271.178l2.863 1.89.332.233c-.523.016-.951.067-1.38-.238l-3.087-2.062zM82.945 6.351l3.493 2.339c.223.157.309.508.458.77l-.065.062-.249-.144-3.018-1.953c-.409-.248-.53-.59-.618-1.073zm-1.337 23.231c.521-.011.938-.047 1.356.248l2.84 1.867a1.09 1.09 0 0 1 .238.201c-.511-.041-1.016-.04-1.472-.351l-2.655-1.744-.308-.22zm7.912-.645l-3.849-2.545c-.129-.087-.142-.344-.209-.522l.093-.051.289.175 3.435 2.244c.276.176.331.374.241.699zm-6.975-6.691c-.122.159-.444.097-.299.45-1.073-.796-2.335-1.295-2.999-2.621l3.298 2.171zM82.07 4.335c1.301.827 2.579 1.602 3.537 2.902l-.299-.165-2.235-1.456c-.499-.293-.794-.702-1.003-1.281zm-9.489 17.876l-1.52-1.015.06-.09c.694.058 1.038.648 1.515 1.036l-.055.069zM67.923 8.206l.354.215 3.273 2.138c.347.218.545.447.403.893-.061-.03-.134-.056-.198-.098L68.136 8.99c-.312-.199-.154-.464-.213-.784z"/><path d="M67.985 5.379c.112.041.234.062.33.124L71.8 7.79c.31.2.139.466.198.773l-.333-.202-3.41-2.228c-.294-.186-.382-.39-.27-.754zm3.963 4.636l-2.655-1.74c-.319-.209-.622-.449-.961-.62-.383-.193-.463-.472-.361-.883l.296.176 3.328 2.17c.355.222.47.469.353.897zm-3.974-.321l2.527 1.656c.372.244.726.523 1.12.723.385.196.408.48.341.871l-.307-.185-3.353-2.185c-.356-.221-.426-.473-.327-.88zm3.976 4.726l-.897-.587-2.715-1.767c-.363-.22-.47-.47-.369-.891l.292.172 3.326 2.168c.358.222.473.469.363.905zm1.997-6.661c-.57.08-1.009.006-1.444-.302l-2.758-1.824a1.02 1.02 0 0 1-.239-.206c.422-.011.826-.108 1.23.177l2.883 1.923.327.232zm2.101-.058c-.447.104-.833.106-1.222-.166l-2.844-1.867c-.086-.056-.169-.118-.242-.207.466.028.938-.003 1.352.27l2.683 1.766c.095.062.183.135.274.203zm-8.091 4.916l3.787 2.497c-.521.028-.926.075-1.323-.213l-2.067-1.371c-.439-.288-.439-.288-.396-.912zm.001 1.467l1.54 1.004c-1.046.198-1.605-.157-1.54-1.004zm23.316.258l.342-1.646a14.17 14.17 0 0 1 5.343-8.1c3.268-2.483 6.981-3.479 11.064-3.151 2.753.221 5.405.831 7.91 2.016.523.248 1.024.543 1.555.826l-2.001 4.209-2.004-.916c-2.102-.893-4.279-1.45-6.582-1.386-3.013.083-5.706.964-7.779 3.268-1.632 1.814-2.349 3.997-2.454 6.405-.215 4.929 2.964 9.063 7.793 10.103 2.813.606 5.592.325 8.341-.419.086-.023.207-.135.212-.212l.28-4.865c0-.008-.012-.017-.04-.055l-7.908-.463.263-4.508 12.847.752-.018.318-.674 11.609a.53.53 0 0 1-.32.488c-2.163 1.22-4.489 1.945-6.942 2.267-3.697.485-7.29.101-10.715-1.428-3.163-1.411-5.587-3.629-7.134-6.753-.952-1.921-1.412-3.967-1.454-6.109-.002-.115-.025-.229-.038-.344l.112-1.908zm13.877-2.751l-.477.376-3.977-2.958.474-.379 3.98 2.961zm15.969-1.835l-.275.515-3.953-2.968.243-.511 3.985 2.964zm-22.755 2.102l.277-.514 4.028 3.011-.274.473-4.031-2.969zm.633-1.068l.347-.432 3.998 2.973-.313.471-4.032-3.012zm18.454-4.596l.224-.503.294.198 3.306 2.484c.391.294.391.294.1.769l-3.924-2.947zm5.215 19.197l-3.701-2.777c-.146-.115-.112-.46-.162-.698l.097-.032.253.175 3.233 2.422c.352.251.372.512.28.909zM103.068 7.698c.369-.287.654-.247 1.002.03l3.139 2.384.278.218c-.501.309-.501.309-.924-.007l-3.233-2.418-.262-.207zm-1.578 9.506l-2.626-1.944-.946-.701c-.398-.295-.407-.331-.195-.834l.614.455 3.012 2.24c.371.276.371.276.141.784zm14.981 12.719c.477-.288.477-.288.888.016l3.348 2.47.25.195c-.471.32-.482.32-.906.005l-3.337-2.485-.243-.2zM98.134 12.505l2.253 1.69 1.345 1.012c.383.288.383.288.141.756l-.277-.192-3.338-2.484c-.403-.3-.403-.3-.124-.782zm3.027 7.539l-1.798-1.353-1.578-1.178c-.363-.239-.424-.536-.37-.945l.273.188 3.148 2.313c.367.256.467.527.324.975zm21.234 9.732l-1.524-1.13-1.918-1.413c-.379-.251-.453-.534-.318-.957l.282.196 3.177 2.383c.339.244.448.498.301.92zm-3.672-4.98l2.383 1.798 1.071.795c.366.222.444.499.31.917l-.275-.196-3.171-2.34c-.37-.259-.45-.535-.318-.975zm-12.504-13.889c-.429.344-.429.344-.826.049l-3.575-2.659c.34-.317.447-.327.778-.082l3.376 2.499.247.193zm-2.049 1.533l-.386.387-3.989-3.009.388-.387 3.987 3.01zm18.575 11.463l-.284-.2-3.151-2.361c-.34-.245-.478-.5-.333-.934l.27.191 3.226 2.418c.346.247.388.505.272.885zm.079-1.469l-.257-.182-3.176-2.379c-.345-.248-.47-.505-.325-.932l.274.198 3.219 2.428c.405.305.409.318.265.866zm-4.002.909l.691.517 2.75 2.06c.347.245.444.501.311.921l-.274-.197-3.156-2.368c-.334-.242-.51-.486-.322-.933zm-10.077 8.477c.542-.202.948-.027 1.365.298l3.138 2.337c-.508.014-.895.095-1.291-.22l-2.955-2.211-.257-.205zm-7.491-13.236l-1.4-1.041-2.076-1.529c-.348-.236-.445-.495-.308-.903l.285.193 3.246 2.411c.326.233.413.47.253.869zm17.895-1.073l.956.705 2.508 1.852c.346.241.444.499.3.91l-.281-.203-3.147-2.326c-.342-.243-.489-.495-.336-.939zm-6.907 13.817c.424-.261.735-.123 1.079.144l3.382 2.529c-.382.103-.663.226-1.016-.055l-3.196-2.417-.249-.201zm4.099-22.912l.231-.476 3.988 2.965-.231.478-3.988-2.967zm1.371 20.923c.455-.327.455-.327.877-.014l3.292 2.448.277.212c-.294.259-.524.264-.84.02l-3.328-2.454-.278-.213zm.79-1.604l1.135.841 2.426 1.805c.378.281.389.315.242.844l-.182-.123-3.461-2.601c-.286-.21-.123-.452-.16-.765zm-4.749 3.219c.347-.219.63-.221.973.049l3.228 2.428.257.203c-.338.172-.608.193-.935-.06l-3.27-2.424-.253-.196zm1.411-.484c.356-.253.627-.203.955.051l3.496 2.601c-.379.279-.488.282-.83.03l-3.621-2.681zm-8.922-23.497c.484-.062.844-.059 1.203.224l2.969 2.233.307.239c-.416.039-.734.157-1.085-.12l-3.091-2.336-.303-.24zm-1.727.269c.412-.134.729-.15 1.084.131l3.055 2.288.252.196c-.385.242-.548.24-.877-.003l-3.223-2.382-.291-.23zm10.503 27.057c-.449.119-.783.093-1.137-.184l-3.347-2.505c.403-.052.689-.187 1.029.08l3.146 2.365.309.244zm-17.423-16.08l2.614 1.949.561.419c.497.371.497.371.53 1.077l-.266-.183-2.876-2.158c-.474-.356-.52-.445-.562-1.103zm15.103-8.617c-.572.056-1.004.004-1.427-.342l-2.9-2.251c.409.024.825-.018 1.186.252l2.862 2.127.279.215zm-5.984 22.214c.558-.058.98.006 1.392.337l2.959 2.267c-.391-.005-.779.043-1.128-.219l-3.223-2.385zm-2.288-.224c.639-.024 1.126.137 1.583.51l2.335 1.756c.09.068.176.14.253.238-.481-.063-.969-.055-1.386-.381l-2.507-1.899-.278-.225zm7.905-8.047c-.205-.079-.438-.118-.61-.242l-2.989-2.21-.271-.22c.52.011.939.004 1.335.328l2.401 1.828c.114.088.165.258.244.39l-.11.126zm-14.01-3.235l3.096 2.337c.219.177.263.573.387.867l-.071.048-.515-.388-2.007-1.513c-.484-.335-.71-.815-.89-1.352zm12.288 3.055a1.48 1.48 0 0 1-1.197-.338l-2.686-2.029-.298-.233c.419-.006.746-.015 1.063.234l2.839 2.142.279.224zm4.634-13.354c-.808-.019-1.424-.371-2.004-.845l-1.998-1.511.043-.092c.576.25 1.19.436 1.718.764.698.434 1.328.979 1.987 1.477l.254.206zm2.679-4.85l.181-.357 3.935 2.984-.128.338-3.988-2.964zm-16.479 25.744l1.147.295c.071.018.15.032.206.074l2.567 1.919c-.783-.092-2.973-1.374-3.92-2.289zm14.388-21.356l.229-.495 3.09 2.318c-1.149-.296-2.36-.968-3.319-1.823zm-3.42 12.777l-1.644-1.253.023-.08c.364.06.755-.069 1.084.226.055.049.114.099.18.129.417.192.523.511.357.978zm13.64-4.328l.472-1.681c1.236-3.783 3.626-6.613 7.14-8.459s7.231-2.168 11.074-1.295c2.624.596 4.984 1.73 6.993 3.536 2.771 2.49 4.322 5.615 4.634 9.315.334 3.958-.604 7.594-3.07 10.756-2.272 2.912-5.279 4.676-8.901 5.302-4.644.802-8.978-.06-12.8-2.876-3.645-2.685-5.532-6.373-5.777-10.894-.032-.602-.011-1.206-.015-1.809l.25-1.895zm24.895 4.109c.014-.455.071-1.113.05-1.769-.074-2.308-.774-4.403-2.27-6.184-1.844-2.196-4.25-3.284-7.088-3.438-2.671-.145-5.07.621-6.996 2.481-3.161 3.052-4.098 6.811-2.951 10.998 1.669 6.09 8.67 8.95 14.156 5.839 2.99-1.695 4.544-4.384 5.099-7.927zm-1.732 12.472l.486-.305 3.737 3.227c-.452.37-.452.37-.845.028l-3.093-2.695-.285-.255zm8.07-.176l-.377.406-3.799-3.295.378-.405 3.798 3.293zm-5.013 3.699c-.515.3-.515.3-.911-.041l-3.354-2.881.545-.275 3.72 3.196zm4.24-12.492l2.366 2.032.942.808c.405.348.405.348.187.907l-.263-.213-3.143-2.739c-.368-.32-.368-.32-.089-.796zm-5.183 7.564l.416-.356 3.821 3.314-.468.342-3.769-3.299zm3.187 3.69c-.374.327-.415.328-.751.042l-3.218-2.74-.259-.227.491-.344 3.737 3.27zm1.92-1.581l-.376.363-3.802-3.253.417-.399 3.761 3.289zm-11.124.776c.352-.178.628-.192.95.098l3.062 2.637.238.217c-.369.17-.651.199-.982-.104l-3.003-2.607-.265-.241zm13.958-4.804l-.231.504-3.764-3.248.227-.508 3.768 3.251zm1.089-3.21l-2.054-1.789-1.251-1.079c-.324-.246-.453-.5-.23-.906l.248.203 3.033 2.615c.328.271.437.534.254.956zm-2.314 5.355l-.31.45-3.797-3.293.3-.412 3.807 3.255zm-.841-12.052l.829.712L160.3 24c.356.285.506.596.404 1.079l-.262-.218-2.946-2.516c-.335-.274-.46-.551-.293-.997zm-.116 1.504l3.455 3.035c.131.12.094.425.135.644l-.105.035-.265-.212-2.98-2.531c-.345-.279-.455-.543-.24-.97zm-6.15 15.768c-.442.271-.515.268-.846-.019l-3.096-2.683-.259-.236c.433-.247.499-.242.857.064l3.089 2.642.255.232zm7.446-5.811l-3.741-3.23.256-.447.281.223 3.18 2.744c.361.311.361.311.024.71zm-12.093 6.629c-.506.145-.862 0-1.217-.322l-2.763-2.387-.246-.227c.438-.09.775-.096 1.126.228l2.851 2.478.249.23zm13.261-8.856l-1.237-1.074-2.136-1.849c-.286-.235-.401-.444-.126-.781l.254.201 3.148 2.718c.354.306.354.306.097.785zm-11.57 8.741c-.47.202-.78.022-1.104-.269l-2.864-2.473-.257-.229c.385-.125.685-.161 1.019.148l2.964 2.6.242.223zm12.648-15.904l-.292-.247-2.842-2.457c-.337-.278-.397-.589-.368-1.014l.263.209 2.907 2.478c.346.282.364.603.332 1.03zm-20.455 13.038c.475-.031.851-.024 1.209.308l2.73 2.392.274.261c-.501-.035-.9-.037-1.263-.372l-2.664-2.322-.286-.266zm16.751-18.601l2.003 1.723c.297.256.574.541.896.76.429.292.511.716.576 1.239l-.272-.214-2.692-2.325c-.379-.308-.52-.661-.511-1.183zm-18.964 18.32c.643-.004 1.121.207 1.559.618l2.301 1.997a1.11 1.11 0 0 1 .216.237c-.501-.138-1.028-.135-1.456-.541l-2.362-2.072-.258-.239zm21.688-16.901l-.236-.185-2.437-2.093c-.406-.326-.49-.756-.648-1.284l1.209 1.047 1.325 1.142c.465.349.608.86.787 1.374zm-20.683 18.688c-1.544-.42-2.592-1.551-3.762-2.55.489.05 1.21.355 1.551.649l2.211 1.902zm16.451-24.443c1.067.842 1.988 1.822 2.739 2.978-.058-.041-.121-.076-.174-.123l-1.978-1.739c-.29-.285-.452-.699-.672-1.055l.085-.061zm-22.874 4.282l.288.238 3.114 2.711c.375.327.376.328.086.835l-.262-.222-3.039-2.652c-.451-.397-.442-.22-.187-.91zm5.243.424l-3.768-3.252.343-.451 3.803 3.298-.378.405zm4.55-3.285c-.349.231-.613.224-.933-.064l-3.075-2.659-.262-.236c.543-.269.558-.268.963.084l3.047 2.643.26.232zm-4.953 3.85l-.273.453-3.801-3.251.313-.492 3.761 3.291zm-2.161-5.137l3.759 3.245-.385.398-3.792-3.288.418-.355zm.479 9.255l-.974-.852-2.304-1.996c-.331-.268-.39-.534-.241-.935l.265.215 3.055 2.632c.332.274.392.533.199.938zm-.19 1.426c-.048-.029-.086-.044-.116-.07l-3.282-2.867c-.151-.138-.133-.463-.194-.701l.12-.059.253.2 2.952 2.52c.344.28.45.553.267.979zm5.573-8.847c-.506.267-.506.268-.912-.082l-3.082-2.661-.234-.213c.378-.328.435-.329.793-.021l3.179 2.744.256.234zm-8.07 1.148l3.771 3.226-.271.496-2.655-2.31-.766-.668c-.349-.304-.349-.304-.079-.744zm6.932-.454l-.435.278-3.751-3.253c.394-.362.394-.363.748-.053l3.182 2.786.256.241zm-.414-4.576c.46-.206.777-.072 1.113.235l2.851 2.488.241.224c-.369.188-.643.176-.966-.119l-3.001-2.606-.238-.222zm1.692-.154c.504-.037.881-.002 1.237.328l2.739 2.413.3.27c-.438-.015-.773.089-1.112-.224l-2.864-2.512-.3-.275zm-9.199 10.782l3.351 2.929c.155.141.134.476.194.721l-.073.038c-.056-.034-.118-.06-.166-.102l-3.027-2.63c-.289-.248-.205-.573-.279-.956zm.397 1.97l3.138 2.76c.191.178.199.553.225.882l-.228-.174-2.243-1.922c-.498-.388-.713-.892-.892-1.546zm11.14-12.472c.486.178 1.007.246 1.422.627l2.286 2.022.236.23c-.584-.015-1.033-.204-1.444-.588l-2.534-2.211.034-.08z"/><path d="M134.369 27.5l1.782 1.548-.079.092-1.8-1.544.097-.096z"/></g><path d="M37.432 51.569v-2.834h2.012c.584 0 1.01.123 1.276.368.274.238.411.588.411 1.049s-.137.815-.411 1.06c-.267.245-.692.364-1.276.357h-2.012zm-1.028-3.7v7.724h1.028v-3.159h2.358c.779.007 1.367-.191 1.763-.595.404-.404.606-.966.606-1.687s-.202-1.28-.606-1.677c-.397-.404-.984-.606-1.763-.606h-3.386zm14.586 0v7.724h5.365v-.865h-4.338v-2.672h4.013v-.865h-4.013v-2.456h4.305v-.865H50.99zm14.174 0v7.724h.974v-6.198h.022l4.035 6.198h1.125v-7.724h-.974v6.263h-.022l-4.067-6.263h-1.093zm15.433 0v7.724h1.028v-7.724h-1.028zm15.759 2.326h1.028c-.058-.411-.18-.772-.368-1.082a2.65 2.65 0 0 0-.703-.79c-.281-.209-.602-.368-.963-.476a3.97 3.97 0 0 0-1.147-.162c-.591 0-1.118.108-1.579.325a3.26 3.26 0 0 0-1.147.865c-.303.368-.534.8-.692 1.298a5.09 5.09 0 0 0-.238 1.579 5.58 5.58 0 0 0 .216 1.579c.151.49.375.916.671 1.276s.667.645 1.114.855c.447.202.97.303 1.569.303.988 0 1.767-.27 2.337-.811s.905-1.298 1.006-2.272h-1.028c-.022.317-.087.613-.195.887s-.26.512-.454.714a2.08 2.08 0 0 1-.681.465c-.26.108-.559.162-.898.162-.462 0-.858-.086-1.19-.26a2.4 2.4 0 0 1-.822-.692c-.209-.296-.364-.638-.465-1.028a5.07 5.07 0 0 1-.151-1.255 4.47 4.47 0 0 1 .151-1.168 3.01 3.01 0 0 1 .465-.995 2.38 2.38 0 0 1 .811-.703c.332-.173.728-.26 1.19-.26.541 0 1.006.137 1.395.411.397.274.653.685.768 1.233zm9.948-2.326v7.724h1.028v-3.537h4.067v3.537h1.028v-7.724h-1.028v3.321h-4.067v-3.321h-1.028zm15.379 0v7.724h5.365v-.865h-4.337v-2.672h4.013v-.865h-4.013v-2.456h4.305v-.865h-5.333z" fill="#666"/></svg>