<svg width="1361" height="320" fill="none" xmlns="http://www.w3.org/2000/svg"><path d="M120.3 159.867C173.722 106.578 227.144 53.156 280.167.133v319.734c-52.89-52.889-106.312-106.445-159.867-160zM79.933 319.734H0V0h79.933v319.734zM593.239 46.894C563.397 16.786 523.83.134 481.732 0h-.533c-42.631 0-82.731 16.386-112.839 46.228-30.242 29.975-47.028 69.942-47.161 112.706-.133 42.098 16.253 81.932 46.228 112.307 29.975 30.241 69.542 47.027 111.507 47.294h.666c42.765 0 82.865-16.254 112.973-45.962 30.241-29.842 46.894-69.809 47.161-112.573 0-42.631-16.52-82.731-46.495-113.106zm-57.419 168.26c-14.787 14.654-34.504 22.781-55.42 22.781h-.4c-21.049-.133-40.899-8.526-55.82-23.58-14.788-15.054-22.914-34.771-22.648-55.554.4-43.164 35.704-78.068 78.868-78.068h.666c43.297.266 78.201 35.703 78.068 78.867-.266 21.049-8.526 40.766-23.314 55.554zM736.172 171.407l.041-20.812h2.525l20.037-23.743h19.915l-26.92 31.441h-4.113l-11.485 13.114zm-15.72 18.001V106h17.349v83.408h-17.349zm39.097 0-18.408-27.246 11.566-12.259 27.164 39.505h-20.322zM810.597 190.629c-6.326 0-11.797-1.343-16.413-4.031-4.589-2.716-8.132-6.49-10.63-11.322-2.498-4.86-3.746-10.494-3.746-16.902 0-6.462 1.248-12.109 3.746-16.942 2.498-4.86 6.041-8.634 10.63-11.322 4.616-2.715 10.087-4.073 16.413-4.073 6.326 0 11.783 1.358 16.372 4.073 4.615 2.688 8.172 6.462 10.67 11.322 2.498 4.833 3.747 10.48 3.747 16.942 0 6.408-1.249 12.042-3.747 16.902-2.498 4.832-6.055 8.606-10.67 11.322-4.589 2.688-10.046 4.031-16.372 4.031zm.081-13.439c2.878 0 5.281-.815 7.209-2.444 1.927-1.656 3.38-3.91 4.357-6.76 1.005-2.851 1.507-6.096 1.507-9.734s-.502-6.883-1.507-9.734c-.977-2.85-2.43-5.104-4.357-6.76-1.928-1.656-4.331-2.485-7.209-2.485-2.905 0-5.349.829-7.331 2.485-1.954 1.656-3.434 3.91-4.439 6.76-.977 2.851-1.466 6.096-1.466 9.734s.489 6.883 1.466 9.734c1.005 2.85 2.485 5.104 4.439 6.76 1.982 1.629 4.426 2.444 7.331 2.444zM850.373 189.408v-62.556h16.535v11.037h.733c1.304-3.666 3.476-6.557 6.517-8.675 3.04-2.118 6.679-3.177 10.914-3.177 4.29 0 7.942 1.073 10.956 3.218 3.013 2.118 5.023 4.996 6.027 8.634h.652c1.276-3.584 3.584-6.449 6.923-8.593 3.367-2.173 7.345-3.259 11.933-3.259 5.838 0 10.575 1.86 14.214 5.58 3.665 3.692 5.498 8.933 5.498 15.72v42.071h-17.309v-38.65c0-3.475-.923-6.081-2.769-7.819-1.847-1.738-4.155-2.607-6.924-2.607-3.149 0-5.607 1.005-7.371 3.014-1.765 1.982-2.648 4.602-2.648 7.86v38.202h-16.82v-39.016c0-3.068-.882-5.512-2.647-7.331-1.737-1.819-4.032-2.729-6.883-2.729-1.927 0-3.665.489-5.213 1.467-1.52.95-2.728 2.294-3.624 4.031-.896 1.711-1.344 3.72-1.344 6.028v37.55h-17.35zM992.801 162.773v-35.921h17.349v62.556h-16.657v-11.363h-.651c-1.412 3.665-3.761 6.611-7.046 8.838-3.258 2.226-7.236 3.339-11.933 3.339-4.181 0-7.86-.95-11.037-2.851-3.176-1.9-5.661-4.602-7.453-8.104-1.764-3.503-2.66-7.697-2.688-12.585v-39.83h17.35v36.735c.027 3.693 1.018 6.611 2.973 8.756 1.955 2.145 4.575 3.218 7.86 3.218 2.091 0 4.046-.475 5.865-1.426 1.819-.977 3.285-2.416 4.398-4.317 1.141-1.9 1.697-4.249 1.67-7.045zM1039.08 153.243v36.165h-17.35V106h16.86v31.889h.74c1.41-3.693 3.69-6.584 6.84-8.675 3.15-2.118 7.1-3.177 11.85-3.177 4.35 0 8.13.951 11.36 2.851 3.26 1.874 5.79 4.575 7.58 8.105 1.82 3.502 2.71 7.697 2.69 12.584v39.831h-17.35v-36.736c.02-3.855-.95-6.855-2.93-9-1.96-2.145-4.7-3.217-8.23-3.217-2.36 0-4.45.502-6.27 1.506-1.8 1.005-3.21 2.471-4.24 4.399-1 1.9-1.52 4.195-1.55 6.883zM1108.36 153.243v36.165h-17.35v-62.556h16.53v11.037h.73c1.39-3.638 3.71-6.516 6.97-8.634 3.26-2.145 7.21-3.218 11.85-3.218 4.34 0 8.13.951 11.36 2.851 3.23 1.901 5.75 4.616 7.54 8.146 1.79 3.502 2.69 7.683 2.69 12.543v39.831h-17.35v-36.736c.02-3.828-.95-6.814-2.94-8.959-1.98-2.172-4.71-3.258-8.18-3.258-2.34 0-4.4.502-6.19 1.506-1.77 1.005-3.15 2.471-4.16 4.399-.97 1.9-1.48 4.195-1.5 6.883zM1170.2 190.467c-2.69 0-5-.951-6.93-2.851-1.9-1.928-2.85-4.236-2.85-6.924 0-2.661.95-4.941 2.85-6.842 1.93-1.9 4.24-2.851 6.93-2.851 2.6 0 4.88.951 6.84 2.851 1.95 1.901 2.93 4.181 2.93 6.842 0 1.792-.46 3.435-1.38 4.928a10.553 10.553 0 0 1-3.55 3.543c-1.46.869-3.08 1.304-4.84 1.304zM1220.19 190.629c-6.33 0-11.8-1.343-16.42-4.031-4.59-2.716-8.13-6.49-10.63-11.322-2.49-4.86-3.74-10.494-3.74-16.902 0-6.462 1.25-12.109 3.74-16.942 2.5-4.86 6.04-8.634 10.63-11.322 4.62-2.715 10.09-4.073 16.42-4.073 6.32 0 11.78 1.358 16.37 4.073 4.61 2.688 8.17 6.462 10.67 11.322 2.5 4.833 3.74 10.48 3.74 16.942 0 6.408-1.24 12.042-3.74 16.902-2.5 4.832-6.06 8.606-10.67 11.322-4.59 2.688-10.05 4.031-16.37 4.031zm.08-13.439c2.87 0 5.28-.815 7.21-2.444 1.92-1.656 3.38-3.91 4.35-6.76 1.01-2.851 1.51-6.096 1.51-9.734s-.5-6.883-1.51-9.734c-.97-2.85-2.43-5.104-4.35-6.76-1.93-1.656-4.34-2.485-7.21-2.485-2.91 0-5.35.829-7.33 2.485-1.96 1.656-3.44 3.91-4.44 6.76-.98 2.851-1.47 6.096-1.47 9.734s.49 6.883 1.47 9.734c1 2.85 2.48 5.104 4.44 6.76 1.98 1.629 4.42 2.444 7.33 2.444zM1259.96 189.408v-62.556h16.82v10.915h.65c1.14-3.883 3.06-6.815 5.75-8.797 2.68-2.009 5.78-3.014 9.28-3.014.87 0 1.81.054 2.81.163 1.01.108 1.89.258 2.65.448v15.394c-.82-.244-1.94-.461-3.38-.651s-2.76-.285-3.95-.285c-2.55 0-4.83.556-6.84 1.669-1.99 1.087-3.56 2.607-4.73 4.562-1.14 1.955-1.71 4.208-1.71 6.76v35.392h-17.35zM1329.87 214.169c-5.62 0-10.44-.773-14.46-2.321-3.99-1.521-7.17-3.598-9.53-6.231-2.36-2.634-3.9-5.593-4.6-8.879l16.04-2.158c.49 1.249 1.26 2.416 2.32 3.502 1.06 1.086 2.46 1.955 4.2 2.607 1.76.679 3.91 1.018 6.43 1.018 3.78 0 6.89-.923 9.33-2.769 2.47-1.819 3.71-4.874 3.71-9.164V178.33h-.74c-.76 1.738-1.9 3.38-3.42 4.928s-3.47 2.81-5.86 3.788c-2.39.977-5.24 1.466-8.56 1.466-4.69 0-8.97-1.086-12.82-3.258-3.83-2.2-6.89-5.553-9.17-10.06-2.25-4.534-3.38-10.263-3.38-17.186 0-7.087 1.16-13.006 3.46-17.757 2.31-4.752 5.38-8.308 9.21-10.67 3.85-2.363 8.08-3.544 12.66-3.544 3.51 0 6.44.598 8.8 1.792 2.36 1.168 4.26 2.634 5.7 4.399 1.47 1.737 2.6 3.448 3.38 5.131h.65v-10.507h17.23v63.167c0 5.321-1.3 9.774-3.91 13.358-2.6 3.584-6.22 6.272-10.83 8.064-4.59 1.819-9.87 2.728-15.84 2.728zm.36-38.69c2.8 0 5.16-.692 7.09-2.077 1.95-1.412 3.45-3.421 4.48-6.027 1.06-2.634 1.59-5.783 1.59-9.449 0-3.665-.52-6.842-1.55-9.53-1.03-2.715-2.53-4.819-4.48-6.312-1.96-1.494-4.33-2.24-7.13-2.24-2.85 0-5.25.773-7.21 2.321-1.95 1.521-3.43 3.638-4.44 6.353-1 2.715-1.5 5.851-1.5 9.408 0 3.611.5 6.734 1.5 9.367 1.04 2.607 2.52 4.629 4.44 6.068 1.96 1.412 4.36 2.118 7.21 2.118z" fill="#5F5CF4"/></svg>