<svg width="640" height="320" fill="none" xmlns="http://www.w3.org/2000/svg"><path d="M120.3 159.867C173.722 106.578 227.144 53.156 280.167.133v319.734c-52.89-52.889-106.312-106.445-159.867-160zM79.933 319.734H0V0h79.933v319.734zM593.239 46.894C563.397 16.786 523.83.134 481.732 0h-.533c-42.631 0-82.731 16.386-112.839 46.228-30.242 29.975-47.028 69.942-47.161 112.706-.133 42.098 16.253 81.932 46.228 112.307 29.975 30.241 69.542 47.027 111.507 47.294h.666c42.765 0 82.865-16.254 112.973-45.962 30.241-29.842 46.894-69.809 47.161-112.573 0-42.631-16.52-82.731-46.495-113.106zm-57.419 168.26c-14.787 14.654-34.504 22.781-55.42 22.781h-.4c-21.049-.133-40.899-8.526-55.82-23.58-14.788-15.054-22.914-34.771-22.648-55.554.4-43.164 35.704-78.068 78.868-78.068h.666c43.297.266 78.201 35.703 78.068 78.867-.266 21.049-8.526 40.766-23.314 55.554z" fill="#5F5CF4"/></svg>