<svg xmlns="http://www.w3.org/2000/svg" width="137" height="95" fill="#666" xmlns:v="https://vecta.io/nano"><path d="M2.811 76.303L.805 73.411h1.912l1.074 1.594 1.062-1.594h1.853L4.7 76.268l2.254 3.247H5.041L3.767 77.59l-1.274 1.925H.616l2.195-3.212zm12.083-.401H8.935v-1.263h5.959v1.263zm0 2.527H8.935v-1.263h5.959v1.263zm4.566-5.963h-1.676v-1.382h1.676v1.382zm-1.676.945h1.676v6.104h-1.676v-6.104zm2.761 0h1.593v.85h.035c.425-.685 1.156-1.016 1.864-1.016 1.782 0 2.23 1.004 2.23 2.515v3.755h-1.675v-3.448c0-1.004-.295-1.499-1.074-1.499-.909 0-1.298.508-1.298 1.748v3.2h-1.676v-6.104zm11.115 5.325h-.023c-.389.661-1.074.945-1.853.945-1.841 0-2.737-1.582-2.737-3.271 0-1.641.908-3.164 2.702-3.164.72 0 1.428.307 1.817.909h-.012.024v-3.07h1.676v8.431H31.66v-.779zm-1.463-4.227c-1.098 0-1.475.944-1.475 1.949 0 .956.437 1.959 1.475 1.959 1.109 0 1.44-.968 1.44-1.971 0-.992-.354-1.937-1.44-1.937zm5.463 2.361c.047 1.063.566 1.547 1.498 1.547.672 0 1.215-.413 1.321-.791h1.475c-.472 1.44-1.475 2.055-2.856 2.055-1.924 0-3.115-1.322-3.115-3.212 0-1.83 1.262-3.223 3.115-3.223 2.077 0 3.08 1.748 2.962 3.625h-4.4 0zm2.726-1.063c-.153-.85-.519-1.299-1.333-1.299-1.062 0-1.369.827-1.392 1.299h2.726zm2.43-2.396h1.593v.779h.024c.401-.649 1.062-.945 1.817-.945 1.912 0 2.773 1.547 2.773 3.282 0 1.63-.897 3.153-2.679 3.153-.732 0-1.428-.319-1.829-.921h-.023v2.905h-1.676v-8.253h0zm4.531 3.07c0-.968-.389-1.972-1.463-1.972-1.097 0-1.451.98-1.451 1.972s.377 1.936 1.463 1.936c1.097 0 1.451-.945 1.451-1.936zm3.823.389c.047 1.063.566 1.547 1.499 1.547.672 0 1.215-.413 1.322-.791h1.475c-.472 1.44-1.475 2.055-2.856 2.055-1.923 0-3.115-1.322-3.115-3.212 0-1.83 1.263-3.223 3.115-3.223 2.077 0 3.08 1.748 2.962 3.625H49.17h0zm2.726-1.063c-.153-.85-.519-1.299-1.334-1.299-1.062 0-1.368.827-1.392 1.299h2.726zm2.43-2.396h1.593v.85h.035c.425-.685 1.156-1.016 1.865-1.016 1.782 0 2.23 1.004 2.23 2.515v3.755h-1.676v-3.448c0-1.004-.295-1.499-1.074-1.499-.909 0-1.298.508-1.298 1.748v3.2h-1.675v-6.104zm11.115 5.325h-.023c-.389.661-1.074.945-1.853.945-1.841 0-2.738-1.582-2.738-3.271 0-1.641.908-3.164 2.702-3.164.72 0 1.428.307 1.817.909h-.012.024v-3.07h1.676v8.431h-1.593v-.779zm-1.463-4.227c-1.097 0-1.475.944-1.475 1.949 0 .956.437 1.959 1.475 1.959 1.109 0 1.44-.968 1.44-1.971 0-.992-.354-1.937-1.44-1.937zm5.463 2.361c.047 1.063.566 1.547 1.499 1.547.673 0 1.215-.413 1.321-.791h1.475c-.472 1.44-1.475 2.055-2.856 2.055-1.924 0-3.115-1.322-3.115-3.212 0-1.83 1.262-3.223 3.115-3.223 2.077 0 3.08 1.748 2.962 3.625h-4.401 0zm2.726-1.063c-.153-.85-.519-1.299-1.333-1.299-1.062 0-1.369.827-1.392 1.299h2.725zm2.43-2.396h1.593v.85h.036c.425-.685 1.156-1.016 1.864-1.016 1.782 0 2.23 1.004 2.23 2.515v3.755h-1.676v-3.448c0-1.004-.295-1.499-1.074-1.499-.908 0-1.298.508-1.298 1.748v3.2h-1.676v-6.104zm8.885 0h1.227v1.122h-1.227v3.023c0 .567.141.708.708.708a2.6 2.6 0 0 0 .519-.047v1.311a6.46 6.46 0 0 1-.98.059c-1.027 0-1.923-.236-1.923-1.452v-3.601h-1.015v-1.122h1.015v-1.83h1.676v1.829zm1.84-2.327h1.675v8.431h-1.675v-8.431zm5.77 9.198c-.366.98-.944 1.381-2.1 1.381a9.89 9.89 0 0 1-1.027-.059v-1.381l.979.059c.578-.059.767-.661.578-1.145l-2.148-5.727h1.793l1.38 4.179h.024l1.333-4.179h1.734l-2.549 6.872zm-87.71 5.63c1.923 0 3.162 1.275 3.162 3.223 0 1.937-1.239 3.212-3.162 3.212-1.912 0-3.151-1.275-3.151-3.212 0-1.948 1.239-3.223 3.151-3.223zm0 5.171c1.144 0 1.487-.98 1.487-1.948 0-.98-.342-1.96-1.487-1.96-1.133 0-1.475.98-1.475 1.96 0 .968.342 1.948 1.475 1.948zm3.775-5.006H8.75v1.133h.023a2.16 2.16 0 0 1 1.947-1.299 1.23 1.23 0 0 1 .366.059v1.559c-.153-.035-.401-.059-.602-.059-1.227 0-1.652.886-1.652 1.96v2.751H7.157v-6.104zm10.219 5.715c0 1.004-.354 2.703-3.163 2.703-1.203 0-2.607-.566-2.69-1.96h1.664c.153.626.661.838 1.251.838.932 0 1.357-.638 1.345-1.511v-.803h-.024c-.366.638-1.098.945-1.829.945-1.829 0-2.608-1.393-2.608-3.07 0-1.582.909-3.022 2.62-3.022.802 0 1.416.272 1.817.98h.024v-.815h1.593v5.715zm-1.593-2.739c0-.992-.342-1.877-1.428-1.877-.944 0-1.357.827-1.357 1.735 0 .874.33 1.831 1.357 1.831.956 0 1.428-.815 1.428-1.688zm2.395-1.099c.094-1.57 1.498-2.042 2.867-2.042 1.215 0 2.679.272 2.679 1.736v3.176c0 .555.059 1.11.213 1.358h-1.699a2.51 2.51 0 0 1-.118-.591c-.531.555-1.31.756-2.053.756-1.157 0-2.076-.579-2.076-1.83 0-1.382 1.038-1.712 2.076-1.854 1.026-.154 1.982-.118 1.982-.803 0-.72-.496-.826-1.085-.826-.637 0-1.05.26-1.109.921H18.18zm3.87 1.24c-.283.248-.873.26-1.392.355-.519.106-.991.284-.991.897 0 .626.484.779 1.026.779 1.31 0 1.357-1.039 1.357-1.405v-.626zm2.737-3.117h1.593v.85h.035c.425-.685 1.157-1.016 1.865-1.016 1.782 0 2.23 1.004 2.23 2.515v3.755h-1.675v-3.448c0-1.004-.295-1.499-1.074-1.499-.908 0-1.298.508-1.298 1.748v3.2h-1.676v-6.104zm8.248-.944h-1.676v-1.382h1.676v1.382zm-1.676.945h1.676v6.104h-1.676v-6.104zm2.384 4.84l3.174-3.578h-2.938v-1.263h5.144v1.263l-3.174 3.578h3.398v1.264H33.74v-1.264zm7.646-1.381c.047 1.063.566 1.547 1.498 1.547.673 0 1.216-.413 1.322-.791h1.475c-.472 1.44-1.475 2.054-2.856 2.054-1.923 0-3.115-1.322-3.115-3.212 0-1.83 1.262-3.223 3.115-3.223 2.077 0 3.08 1.747 2.962 3.625h-4.401 0zm2.726-1.063c-.153-.85-.519-1.299-1.333-1.299-1.062 0-1.369.827-1.392 1.299h2.726zm6.784 2.928h-.024c-.389.661-1.074.945-1.852.945-1.841 0-2.738-1.582-2.738-3.271 0-1.641.909-3.164 2.702-3.164.72 0 1.428.307 1.817.909h-.012.023v-3.07h1.676v8.431h-1.593v-.779h0zm-1.463-4.227c-1.097 0-1.475.944-1.475 1.949 0 .956.436 1.959 1.475 1.959 1.109 0 1.44-.968 1.44-1.972 0-.992-.354-1.936-1.44-1.936zm9.168-1.865h-2.525v-1.559h6.903v1.559h-2.525v6.871h-1.853V85.31h0zm5.109-1.559h6.301v1.559h-4.449v1.806h4.083v1.441h-4.083v2.066h4.543v1.558h-6.395v-8.43zm7.173 0h3.635c2.183 0 3.823 1.37 3.823 4.168 0 2.444-1.251 4.262-3.823 4.262h-3.635V83.75zm1.853 6.872h1.652c1.074 0 2.1-.661 2.1-2.527 0-1.7-.59-2.786-2.431-2.786h-1.321v5.313zm10.902-1.086c.047 1.063.567 1.547 1.499 1.547.673 0 1.215-.413 1.322-.791h1.475c-.472 1.44-1.475 2.054-2.856 2.054-1.923 0-3.115-1.322-3.115-3.212 0-1.83 1.263-3.223 3.115-3.223 2.077 0 3.08 1.747 2.962 3.625H83.64h0zm2.726-1.063c-.153-.85-.519-1.299-1.333-1.299-1.062 0-1.369.827-1.392 1.299h2.726zm5.57 3.707H90.07l-2.088-6.104h1.758l1.286 4.168h.024l1.286-4.168H94l-2.065 6.104zm3.669-2.644c.047 1.063.567 1.547 1.498 1.547.672 0 1.215-.413 1.322-.791h1.475c-.472 1.44-1.475 2.054-2.855 2.054-1.924 0-3.115-1.322-3.115-3.212 0-1.83 1.262-3.223 3.115-3.223 2.077 0 3.08 1.747 2.962 3.625h-4.401 0zm2.726-1.063c-.153-.85-.519-1.299-1.333-1.299-1.062 0-1.369.827-1.392 1.299h2.725zm2.43-2.397h1.593v.85h.035c.425-.685 1.157-1.016 1.865-1.016 1.782 0 2.23 1.004 2.23 2.515v3.755h-1.675v-3.448c0-1.004-.295-1.499-1.074-1.499-.909 0-1.298.508-1.298 1.748v3.2h-1.676v-6.104zm8.885 0h1.227v1.122h-1.227v3.023c0 .567.141.708.708.708a2.58 2.58 0 0 0 .519-.047v1.311c-.283.047-.649.059-.979.059-1.027 0-1.924-.236-1.924-1.452V87.2h-1.015v-1.122h1.015v-1.83h1.676v1.83zM7.862 7.248H0V.054h24.358v7.195h-7.859v20.876H7.862V7.248zM25.7.054h23.646v7.195H34.344v3.498h15.003v6.686H34.344v3.498H49.35v7.194H25.7V.054zm25.101 0h14.183c9.349 0 12.654 6.92 12.654 13.994 0 8.612-4.558 14.076-14.341 14.076H50.801V.054zm8.642 20.876h3.38c5.384 0 6.171-4.365 6.171-7.002 0-1.766-.553-6.679-6.801-6.679h-2.751V20.93zm30.614-3.623l-2.637-4.375-2.571 4.375h-6.333l6.012-8.846L78.74 0h6.335l2.346 4.183L89.834 0h6.333l-5.788 8.461 6.012 8.846h-6.334zM1.412 35.325h12.501c2.471 0 4.467.701 5.986 2.102s2.279 3.371 2.279 5.908c0 2.182-.678 4.082-2.034 5.699s-3.431 2.426-6.225 2.426H5.197v11.817H1.412V35.325zm14.678 3.844c-.831-.393-1.97-.59-3.417-.59H5.197v9.685h7.477c1.686 0 3.055-.362 4.106-1.085s1.577-1.998 1.577-3.825c0-2.055-.755-3.45-2.266-4.186zm23.061 4.291c1.348.679 2.375 1.558 3.081 2.636.681 1.027 1.134 2.226 1.361 3.596.202.939.303 2.435.303 4.491H29.081c.063 2.073.547 3.737 1.453 4.99s2.308 1.88 4.207 1.88c1.774 0 3.189-.593 4.246-1.778a6.06 6.06 0 0 0 1.257-2.39h3.366c-.089.749-.384 1.583-.884 2.502s-1.059 1.671-1.676 2.255c-1.032 1.015-2.309 1.7-3.831 2.055-.818.203-1.743.305-2.774.305-2.52 0-4.655-.923-6.406-2.769s-2.627-4.431-2.627-7.754c0-3.273.882-5.93 2.646-7.973s4.07-3.064 6.917-3.064c1.436 0 2.828.34 4.177 1.018zm1.226 8.001c-.138-1.484-.459-2.67-.962-3.558-.93-1.649-2.483-2.474-4.658-2.474a5.14 5.14 0 0 0-3.922 1.703c-1.056 1.136-1.615 2.578-1.678 4.329h11.22zm7.854-8.563h3.252v2.892c.963-1.192 1.984-2.048 3.062-2.569s2.276-.78 3.594-.78c2.89 0 4.843 1.009 5.857 3.026.558 1.104.837 2.683.837 4.738v13.072h-3.48V50.433c0-1.243-.184-2.245-.552-3.006-.609-1.269-1.712-1.903-3.309-1.903-.812 0-1.477.083-1.997.247-.938.279-1.762.837-2.472 1.675-.57.672-.941 1.367-1.112 2.084s-.257 1.741-.257 3.073v10.675h-3.423v-20.38zm21.66-7.573h3.48v3.882h-3.48v-3.882zm0 7.668h3.48v20.284h-3.48V42.993zm22.107.99c1.439 1.116 2.304 3.038 2.596 5.766h-3.328c-.203-1.256-.666-2.299-1.388-3.13s-1.883-1.246-3.48-1.246c-2.18 0-3.74 1.064-4.678 3.193-.609 1.381-.913 3.085-.913 5.113 0 2.04.431 3.756 1.293 5.15s2.218 2.09 4.069 2.09c1.42 0 2.545-.433 3.375-1.299s1.404-2.05 1.721-3.554h3.328c-.38 2.702-1.331 4.678-2.853 5.927s-3.468 1.874-5.838 1.874c-2.662 0-4.786-.973-6.37-2.921s-2.377-4.379-2.377-7.297c0-3.577.868-6.362 2.605-8.353s3.949-2.988 6.637-2.988c2.295 0 4.162.558 5.601 1.674zm6.018-8.753h3.423v10.427c.811-1.028 1.541-1.751 2.187-2.169 1.103-.723 2.478-1.085 4.127-1.085 2.954 0 4.956 1.034 6.009 3.102.57 1.129.856 2.696.856 4.7v13.072H111.1V50.433c0-1.497-.19-2.594-.571-3.292-.621-1.116-1.787-1.675-3.499-1.675-1.42 0-2.707.489-3.86 1.465s-1.731 2.823-1.731 5.537v10.808h-3.422V35.23h0zm34.24 8.23c1.348.679 2.375 1.558 3.081 2.636.68 1.027 1.133 2.226 1.361 3.596.201.939.302 2.435.302 4.491h-14.814c.063 2.073.548 3.737 1.453 4.99s2.308 1.88 4.208 1.88c1.773 0 3.188-.593 4.245-1.778a6.07 6.07 0 0 0 1.257-2.39h3.366c-.089.749-.384 1.583-.884 2.502s-1.06 1.671-1.676 2.255c-1.032 1.015-2.309 1.7-3.831 2.055-.818.203-1.743.305-2.775.305-2.52 0-4.655-.923-6.406-2.769s-2.627-4.431-2.627-7.754c0-3.273.882-5.93 2.646-7.973s4.069-3.064 6.917-3.064c1.437 0 2.829.34 4.177 1.018zm1.226 8.001c-.138-1.484-.459-2.67-.962-3.558-.93-1.649-2.482-2.474-4.657-2.474a5.14 5.14 0 0 0-3.923 1.703c-1.055 1.136-1.615 2.578-1.678 4.329h11.22z"/></svg>