<svg xmlns="http://www.w3.org/2000/svg" width="140" height="140" fill="none" xmlns:v="https://vecta.io/nano"><path fill="#666" d="M0 0h140v140H0z"/><path d="M32.063 27.709h12.776v3.635h-4.317v14.538H36.38V31.343h-4.317v-3.635zm18.634 18.172h-4.142V27.709h4.142v7.247h5.858v-7.247h4.141v18.173h-4.141V38.59h-5.858v7.291h0zm22.489-14.538h-6.255v3.612h5.99v3.635h-5.99v3.656h6.255v3.635H62.789V27.709h10.396v3.635h0zM48.748 61.675c-.992 4.604-4.825 6.564-8.391 6.564-4.892 0-8.856-4.207-8.856-9.406 0-5.22 3.744-9.427 8.856-9.427 3.193 0 5.417 1.189 7.004 3.106l-2.71 2.973c-1.056-1.695-2.445-2.335-4.052-2.335-2.555 0-4.626 2.533-4.626 5.682 0 3.084 2.071 5.595 4.626 5.595 1.982 0 3.942-1.279 3.942-3.502h-4.184v-3.194h8.391v3.943zm8.325-11.939c3.371 0 5.925 1.827 5.925 5.395 0 2.733-1.498 4.562-3.722 5.265l6.255 7.511h-5.265l-5.551-7.18v7.18h-4.141V49.736h6.499zm-1.874 8.062c1.565 0 3.438-.112 3.438-2.38s-1.873-2.379-3.438-2.379h-.484v4.759h.484zM77.84 53.37h-6.255v3.613h5.991v3.634h-5.991v3.657h6.255v3.634H67.444V49.736H77.84v3.634zm20.172 14.537h-4.448l-1.345-3.634h-6.916l-1.343 3.634h-4.45l7.336-18.171h3.831l7.335 18.171zm-9.229-12.556h-.044l-2.027 5.287h4.097l-2.026-5.287zm7.072-5.615h12.776v3.634h-4.317v14.537h-4.142V53.37h-4.317v-3.634h0zM48.748 83.701c-.992 4.604-4.825 6.564-8.391 6.564-4.892 0-8.856-4.206-8.856-9.404 0-5.221 3.744-9.429 8.856-9.429 3.193 0 5.417 1.19 7.004 3.106l-2.71 2.973c-1.056-1.695-2.445-2.335-4.052-2.335-2.555 0-4.626 2.535-4.626 5.685 0 3.082 2.071 5.594 4.626 5.594 1.982 0 3.942-1.277 3.942-3.503h-4.184v-3.193h8.391v3.943zm10.944-12.269c5.042 0 9.14 4.097 9.14 9.406s-3.92 9.427-9.14 9.427c-5.376 0-9.164-4.12-9.164-9.427s4.164-9.406 9.164-9.406zm0 14.824c3.303 0 4.67-2.71 4.67-5.418s-1.455-5.419-4.67-5.419c-3.194 0-4.693 2.709-4.693 5.419s1.299 5.418 4.693 5.418zm19.976-14.824c5.043 0 9.14 4.097 9.14 9.406s-3.92 9.427-9.14 9.427c-5.376 0-9.164-4.12-9.164-9.427s4.163-9.406 9.164-9.406zm0 14.824c3.303 0 4.67-2.71 4.67-5.418s-1.454-5.419-4.67-5.419c-3.194 0-4.692 2.709-4.692 5.419s1.298 5.418 4.692 5.418zM95.79 71.762c4.978 0 9.165 3.788 9.165 9.076 0 5.307-4.164 9.098-9.165 9.098h-5.265V71.762h5.265zm-.484 14.472c3.061 0 5.153-2.335 5.176-5.374 0-3.041-2.093-5.398-5.175-5.398h-.639v10.772h.639 0zm-56.657 7.554c3.546 0 6.212 1.829 6.212 5.595 0 3.745-2.666 5.839-6.212 5.839H36.16v6.74h-4.141V93.788h6.63zm-1.321 8.128c1.63 0 3.172-.551 3.172-2.402 0-1.872-1.542-2.422-3.172-2.422H36.16v4.824h1.167 0zm13.501 6.41h6.256v3.635H46.687V93.788h4.142v14.538h0zm26.406 3.635h-4.451l-1.342-3.635h-6.918l-1.343 3.635h-4.449l7.335-18.173H69.9l7.335 18.173zm-9.231-12.555h-.042l-2.028 5.287h4.097l-2.027-5.287zm22.029 7.685l1.762 3.525s-2.026 1.676-5.969 1.676c-5.132 0-9.846-4.185-9.846-9.384 0-5.221 4.692-9.451 9.846-9.451 3.943 0 5.969 1.674 5.969 1.674l-1.762 3.525s-1.453-1.123-3.568-1.123c-4.164 0-5.991 2.907-5.991 5.33 0 2.447 1.827 5.353 5.991 5.353 2.115 0 3.568-1.125 3.568-1.125zm14.073-9.669h-6.255v3.612h5.991v3.635h-5.991v3.657h6.255v3.635H93.71V93.788h10.396v3.635z" fill="#fff"/></svg>