<svg xmlns="http://www.w3.org/2000/svg" width="159" height="157" fill="#666" xmlns:v="https://vecta.io/nano"><path d="M42.689 140.01h-1.597c-1.597-1.7-2.906-3.707-4.605-5.645v5.611h-1.733c-.187-.544-.255-7.635-.085-9.097l.714-.051c.255-.017.51 0 .816 0l4.52 5.679v-5.543c.68-.221 1.291-.153 1.971-.068v9.114zm-37.947.187c-2.787-.068-4.775-1.904-4.741-4.778.034-2.992 2.022-4.71 4.826-4.693 2.957.017 4.792 2.024 4.792 4.829 0 2.704-2.073 4.659-4.877 4.642zm-2.464-4.761h.034v.68c.085 1.191.935 2.075 2.073 2.194 1.427.153 2.43-.425 2.804-1.633.221-.731.272-1.479.051-2.244-.34-1.19-1.156-1.87-2.379-1.87-1.207 0-2.175.68-2.481 1.802-.085.34-.068.714-.102 1.071zm11.182-4.591c1.53.068 3.025-.187 4.503.153 1.699.391 2.498 1.53 2.379 3.282-.102 1.445-1.326 2.584-2.906 2.686l-1.852.051v2.959c-.748.153-1.41.068-2.073.068-.187-.646-.238-8.06-.051-9.199zm2.141 4.438h1.326c.527 0 .969-.204 1.105-.731.153-.578.221-1.191-.255-1.667-.136-.136-.323-.255-.51-.272-.544-.068-1.105-.153-1.665.068v2.602zm13.663-.645v1.632h-2.719c-.204.731-.102 1.36-.085 2.057l3.654.068v1.616h-5.761c-.17-.629-.204-8.145-.034-9.131l5.795-.034v1.7h-3.586c-.136.697-.102 1.309-.034 2.024l2.77.068zm129.685 5.491h-5.812c-.17-.68-.221-8.06-.068-9.301l5.88-.051v1.7c-1.223.068-2.464-.051-3.687.068v2.058c.951.153 1.886-.051 2.77.136v1.513h-2.77v2.193h3.687v1.684zm-60.074-9.046l1.699 5.509c.034 0 .085 0 .119.017.034-.136.085-.255.119-.391l1.173-4.421c.238-.85.442-.986 1.325-1.003h1.088c0 .646-2.362 8.468-2.787 9.284h-1.886l-1.886-6.121-1.937 6.104h-1.954l-2.821-9.08c.816-.34 1.767-.272 2.481.17l1.512 5.696 1.071-3.383.527-1.701c.289-.901.85-1.173 1.75-.884.119.051.221.119.408.204zm29.978-.238l.935-.051 3.637.153c2.158.238 3.721 2.057 3.789 4.217.051 1.343-.289 2.516-1.206 3.503-.85.918-1.972 1.326-3.178 1.411-1.258.085-2.549.017-3.909.017-.153-.782-.068-1.53-.068-2.279v-2.38-2.296-2.295zm2.26 7.549c1.394.035 2.702.188 3.467-1.19.646-1.156.561-2.992-.255-3.86-.884-.952-2.039-.918-3.212-.782v5.832zm-56.064 1.701l-.544.034c-.68.119-1.122-.239-1.513-.732l-2.09-2.669-1.784-2.228c-.136 1.021-.051 1.905-.068 2.772v2.72c-.629.222-1.207.12-1.767.086-.17-.715-.187-8.4-.017-9.216.85-.204 1.512-.051 2.107.765l3.722 4.744c.034.034.102.051.204.085v-5.543c.629-.221 1.207-.085 1.886-.085v8.892c-.017.119-.085.238-.136.375zm8.939.051c-2.6.187-4.792-2.023-4.792-4.71 0-2.55 2.056-4.727 4.826-4.71s4.758 2.109 4.792 4.744c.034 2.483-2.09 4.897-4.826 4.676zm2.634-4.642c-.017 0-.051 0-.068-.017 0-.204.034-.408 0-.595-.102-.68-.306-1.36-.867-1.785-1.19-.919-3.501-.783-4.062 1.207-.221.782-.255 1.564.034 2.329.136.391.323.834.629 1.089 1.343 1.156 3.586.765 4.096-.987l.238-1.241zm-28.6.731h-.952c-.204 1.259.051 2.534-.136 3.826h-2.022c-.187-.748-.187-8.468.017-9.182.646-.187 1.308-.102 2.056-.034v3.537c.612.255.918.017 1.207-.408l2.005-2.908c.816-.34 1.547-.391 2.566-.17-.357.816-.986 1.429-1.478 2.143l-1.462 2.023 1.648 2.449 1.665 2.584h-2.073c-.442-.017-.68-.374-.918-.697l-1.24-1.921-.884-1.242zm88.658 1.921v-1.173l-.51-.085-.476-.034c-.391-.595-.408-.697-.17-1.615 1.02-.068 2.074-.034 3.178-.017v3.911c-.476.493-1.087.714-1.733.85-1.292.255-2.583.306-3.824-.221-2.073-.867-3.161-3.486-2.498-5.696.612-2.041 2.124-3.163 4.232-3.316 1.342-.102 2.583.153 3.67 1.003.068.051.153.085.187.119-.323.867-.459 1.02-1.07 1.394l-.782-.374c-.765-.374-1.598-.442-2.379-.187a2.51 2.51 0 0 0-1.173.783c-.867 1.088-.816 2.958.034 4.029.748.97 2.073 1.225 3.314.629zm-25.95.273h3.653v1.666h-5.744c-.204-.629-.272-7.924-.085-9.267l5.676-.051c.323.561.187 1.054.17 1.65-1.206.136-2.413-.017-3.653.102v2.074l2.787.085v1.479l-1.343.051h-1.376c-.221.731-.102 1.395-.085 2.211zm-12.355 1.7v-9.199c.697-.255 1.36-.119 2.073-.102.187.833.068 1.65.085 2.449v2.38 2.534c1.122.17 2.209-.017 3.348.119v1.785l-5.506.034zm.902 16.805v-8.927c.221-.034.408-.068.595-.068h3.144c2.43 0 4.13 2.142 4.062 4.047-.017.561.034 1.139-.068 1.7-.306 1.649-1.904 3.146-3.586 3.265-1.122.085-2.26.034-3.399.034l-.748-.051zm1.36-1.003h2.141c1.377-.017 2.379-.732 2.821-2.024.119-.34.187-.714.238-1.071.238-1.7-.782-3.452-2.294-3.792-.935-.204-1.903-.102-2.906-.051v6.938zm-8.514-1.479v-6.478h1.054c.17.646.187 8.042.017 8.927h-.884l-5.132-6.666c-.051.017-.102.017-.153.034l-.017 3.231v3.401l-.901.034c-.187-.681-.221-8.06-.034-8.978l.782-.068 5.099 6.614c.05 0 .118-.017.169-.051zm-35.891-6.479h.918c.17.595.221 7.873.051 8.944l-.816.051-5.37-6.683v6.632l-.901.051c-.187-.646-.238-7.907-.068-8.995l.833-.051 5.285 6.869c.102-.697.051-1.241.068-1.785v-1.615-1.701-1.717zm24.794 8.944h-1.258l-.986-2.312h-4.011l-.969 2.295h-1.275l3.569-8.943h1.342l3.586 8.96zM86.76 149.3l-1.581 4.149c.952.17 2.532.136 3.144-.068L86.76 149.3zm-45.323-1.343h5.387v.986H42.66l-.034 1.496v1.445c.612.255 1.207.102 1.801.119h1.886l.051 1.021h-3.688c-.102 1.326 0 2.567-.068 3.859h-1.19c-.221-.68-.204-8.263.017-8.926zm36.98 8.025v.952l-5.047.034c-.187-.646-.238-7.924-.068-8.978h1.224c.068.884.017 1.752.034 2.619v2.55 2.704c1.309.17 2.566-.051 3.858.119zm-24.693.952H52.62c-.17-.612-.221-7.72-.068-8.944h1.122c.187.578.238 7.771.051 8.944zm59.782-45.561l-1.835-3.248-5.608-9.59-4.861-8.264c-.187-.306-.34-.629-.544-1.02l3.059-1.768 3.28 5.475 3.246 5.577 3.229 5.475 3.246 5.56-2.124 1.259c-.255.153-.493.357-.748.527-.119.017-.221.017-.34.017zM24.118 43.699l.663-2.346.187-.544c.221.017.442.017.646.068l11.845 2.874 10.927 2.669c.221.051.425.136.714.221l-.816 3.452-1.41-.306-14.887-3.639-7.494-1.785c-.136-.034-.272-.102-.391-.153.017-.17.017-.34.017-.51zM99.061 0l2.073.68 1.003.323-6.22 21.441c-1.207-.153-2.277-.646-3.484-.935l.391-1.496L96.58 7.175 98.466.663c.068-.221.068-.442.102-.663h.493zm-8.463 71.466l2.243 6.291-2.515.884-2.345-5.883 1.003 6.155c-.867.323-1.716.391-2.668.51l-1.105-6.478h-.102v.782l-.136 5.339c0 .136-.034.272-.068.425h-2.6c-.238-2.347.204-4.625.017-7.073l-1.394 6.937-2.651-.51 1.241-6.427c-.034-.017-.085-.017-.119-.034l-2.362 6.019c-.884-.187-1.648-.578-2.515-.935l2.124-6.002-3.365 5.424-2.277-1.411 3.28-5.679-4.35 4.846-1.054-.884c-.323-.272-.612-.578-.969-.935l4.367-4.897c-.034-.034-.051-.068-.085-.102l-5.217 4.047-1.665-2.142 5.115-3.979c-.017-.034-.051-.085-.068-.119l-5.744 2.959-1.292-2.38 5.727-3.01-.051-.136-6.169 1.904-.799-2.551 6.101-2.108-6.288.748c-.323-.986-.408-1.887-.255-2.704l6.509-.816v-.085l-6.73-.425.153-2.602c1.173-.238 2.277.068 3.399.085l3.382.085-6.475-1.581c-.017-.952.323-1.717.527-2.619l1.462.289 4.112 1.003c.238.051.476.085.731.017l-5.88-2.619 1.088-2.448 6.05 2.465-5.387-3.673 1.478-2.193c.731.34 1.309.833 1.937 1.224l1.835 1.224 1.954 1.224-4.843-4.744 1.903-2.006 4.639 4.574c-1.088-1.836-2.345-3.554-3.586-5.356.629-.612 1.377-1.054 2.158-1.598l3.892 5.186-2.736-5.883 2.43-1.122 2.923 5.798-1.631-6.257 2.583-.714 1.869 6.631-.51-6.699c.901-.408 1.767-.255 2.702-.306l.561 6.971h.102l.748-6.886c.969-.17 1.784.153 2.702.187l-.646 6.393c.051.017.085.017.136.034l1.818-6.189 2.6.765-1.699 5.9c.051.017.119.051.17.068l2.753-5.492 2.43 1.224-2.821 5.985 3.96-5.254 2.141 1.581-3.875 5.305c.51-.17.697-.493.952-.714l.731-.697.799-.748.816-.731.731-.697.867-.782 1.836 2.006-4.759 4.438c.034.034.051.068.085.119l5.455-3.469c.595.714 1.02 1.462 1.513 2.261l-5.455 3.503c2.039-.629 3.993-1.513 6.067-2.312l1.019 2.465-6.067 2.687 6.373-1.343c.391.816.442 1.7.646 2.618l-6.169 1.513 6.288-.153.187 2.602c-2.345.323-4.657.221-6.968.374l6.849 1.054-.425 2.687-6.577-.969c0 .034-.017.068-.017.085l6.305 2.176-.85 2.517-6.032-1.802 5.456 3.061-1.275 2.346-5.489-2.908c.34.595.935.901 1.41 1.343l1.632 1.343 1.648 1.36-1.699 2.092-4.843-3.945c1.122 1.734 2.583 3.197 3.858 4.914l-2.022 1.734-4.215-4.931c-.034.017-.085.051-.119.068l3.195 5.56c-.697.578-1.513.901-2.294 1.428l-3.399-5.832c-.017.085-.034.102-.051.136zm-12.745-8.621h2.464c.136-1.53-.051-3.01.119-4.523l3.943-.068v-1.972h-2.005c-.646-.017-1.292.102-1.937-.102v-3.027c1.614-.204 3.195.017 4.792-.136v-1.785H77.87l-.017 11.613zm11.743 0c.17-.901.136-10.967-.034-11.664-.816 0-1.648-.085-2.481.068v11.596h2.515zm32.39-59.835l2.906 2.176-17.674 23.703-1.461-1.054-1.445-1.105 17.674-23.72zm10.299 20.795l1.954 3.061-18.659 11.987-1.955-3.061 18.66-11.987zM29.793 51.946l5.557.272 6.169.34 5.489.34c.272.017.527.068.867.102-.238 1.224-.068 2.38-.238 3.588h-.833l-1.852-.136-4.469-.306c-.051 0-.119 0-.17-.017l-4.571-.204-5.829-.357c-.085 0-.153-.051-.323-.102l.204-3.52zm17.946 7.549l.425 3.503c-.374.102-.663.204-.952.238l-6.22.714-4.605.612-5.727.646-.442-3.588 17.521-2.126zm46.887 49.957c-1.122.374-2.277.442-3.416.68-.425-.527-.34-1.19-.459-1.785l-1.699-10.1-.85-5.186 3.399-.595c.442.561.357 1.224.476 1.802l1.105 6.512.952 5.594.493 3.078zM78.226 4.999c.51-.204 2.94-.425 3.552-.323.034.068.085.136.085.221l.204 3.214.459 5.39.187 2.449.204 3.384c.017.357.085.714.136 1.19l-3.637.289L78.226 5zM54.18 77.757l2.158 2.738c-.459.663-11.675 9.301-12.626 9.862l-2.158-2.789 12.627-9.811zm.765-42.798c-.629 1.071-1.309 2.04-2.005 3.027L40.007 29.11l2.005-3.01 12.933 8.859zm3.5 47.831l2.617 2.363L50.645 96.8l-1.309-1.207-1.258-1.088c.323-.68 9.279-10.78 10.366-11.715zm-7.494-10.678l1.648 3.146c-.187.119-.357.255-.561.357l-6.934 3.588-4.877 2.568-.782.374-1.614-3.129c.17-.136.306-.272.476-.357l6.39-3.35 5.421-2.806.833-.391zm50.829-46.947l-3.195-1.598 6.373-12.787 3.144 1.564c-.068.255-.102.476-.204.663l-5.948 11.936c-.017.051-.068.085-.17.221zm-12.218-4.199l-3.603-.408 1.445-13.994c.799-.187 2.957 0 3.62.34l-1.462 14.062zm-25.577 82.228l5.098-13.076 3.382 1.309-5.098 13.076-3.382-1.309zm56.2-42.661l.73.068 12.967 1.955c.051 1.275-.323 2.364-.408 3.588l-13.85-2.075.561-3.537zM75.236 92.244l3.569.68-2.464 12.668-3.416-.697c0-.306-.034-.561 0-.799l1.937-9.794.374-2.057zM48.554 24.469c.136-.204.221-.374.357-.527l2.005-2.074.714.663 6.152 6.104 1.478 1.36c-.306.578-1.581 1.921-2.447 2.602-.561-.34-7.494-7.159-8.259-8.128zm62.386 56.909l2.294-2.823 8.956 7.346-2.311 2.788-8.939-7.311zm8.922-30.401l-.697-3.282c.561-.323 10.112-2.397 10.944-2.38l.748 3.435-10.536 2.261c-.119.017-.255-.017-.459-.034zM70.375 11.631c1.088-.408 2.243-.595 3.433-.935l2.634 10.202c.034.119-.017.272-.034.459l-3.28.833-.357-.969-2.413-9.25c0-.102.017-.187.017-.34zm31.15 88.724l-3.348 1.224c-.731-1.632-1.224-3.316-1.835-4.931l-1.75-4.914 3.399-1.241 3.535 9.862zm15.227-27.291l9.007 4.999-1.768 3.18-9.007-5.016c.153-.663 1.19-2.534 1.768-3.163z"/><path d="M85.313 93.434l-.204 8.757h-3.484c-.221-2.993.102-5.934.102-8.859.833-.221 2.447-.187 3.586.102zM41.876 40.197l1.462-3.316 8.089 3.588c-.051.629-.391 1.139-.612 1.666l-.748 1.7-8.191-3.639zm78.53 13.755l8.633-.255c.221 1.224 0 2.381.187 3.554-.17.034-.306.068-.442.068l-5.931.187-1.937.136c-.153 0-.323-.051-.459-.068-.187-.68-.238-2.772-.051-3.622zm-3.518-12.532l7.019-2.891c.662 1.02.883 2.176 1.495 3.265l-7.103 2.959-1.411-3.333zM67.061 24.741l-3.076-6.631c1.054-.646 2.124-1.054 3.263-1.564l3.11 6.648-3.297 1.547zm-4.35 70.224l-3.093-1.904 3.79-6.155 3.076 1.904-3.773 6.155zm56.267-28.022l4.418 1.496-1.155 3.367c-1.53-.323-2.889-.986-4.419-1.462l1.156-3.401zm-74.162.221l3.96-1.224 1.054 3.401c-1.275.561-2.583.816-3.841 1.275-.561-1.105-.748-2.244-1.173-3.452zm64.543-36.302l2.855-2.686 2.448 2.653-2.821 2.67-2.482-2.636zm-44.813-4.694l-2.923 2.091-1.682-2.329c.918-.765 1.886-1.394 2.872-2.091.68.68 1.105 1.53 1.733 2.329zm44.303 57.166l1.955 2.091-2.617 2.517-1.921-2.074 2.583-2.534z"/></svg>