<svg xmlns="http://www.w3.org/2000/svg" width="151" height="32" fill="#666" xmlns:v="https://vecta.io/nano"><path d="M47.513.082c-8.761 0-15.89 7.128-15.89 15.888s7.129 15.893 15.89 15.893c8.405 0 15.505-7.28 15.505-15.893S55.918.082 47.513.082zm7.063 23.175c-1.896 1.989-4.403 3.082-7.063 3.082-5.721 0-10.373-4.649-10.373-10.368A10.39 10.39 0 0 1 47.513 5.597c2.66 0 5.167 1.098 7.063 3.087a10.51 10.51 0 0 1 2.927 7.287 10.5 10.5 0 0 1-2.927 7.286zM105.626.252L93.2 31.63h29.77L111.365.252h-5.739zm.367 26.524h-5.187l7.623-19.987 2.816 8.103-5.252 11.884zm8.1-4.495l1.695 4.495h-3.645l1.95-4.495zm-89.866.558c-.034.032-3.285 3.486-8.3 3.486-5.62 0-9.861-4.542-9.861-10.561 0-5.905 4.13-10.192 9.822-10.192 4.573 0 7.736 2.892 7.765 2.921l.805.753 3.036-4.579-.501-.54C26.832 3.96 23.047 0 15.722 0 6.76 0 0 6.797 0 15.807c0 4.411 1.57 8.477 4.423 11.443 2.904 3.025 6.945 4.69 11.383 4.69 7.627 0 11.814-4.733 11.991-4.939l.492-.562-3.303-4.422-.76.823zM74.609.252h-6.468V31.63h19.083v-5.824H74.609V.252zm72.531 14.775c1.722-1.467 2.708-3.805 2.708-6.282 0-4.991-3.771-8.493-9.375-8.493h-11.015V31.63h11.262c6.15 0 10.28-3.774 10.28-9.287 0-3.175-1.471-5.933-3.86-7.316zm-12.182-8.951h5.429c2.181 0 3.433 1.363 3.433 3.495 0 2.111-1.313 3.619-3.347 3.619h-5.515V6.076zm5.968 19.73h-5.968v-7.768h5.926c2.492 0 4.097 1.442 4.097 3.905 0 2.517-1.517 3.862-4.055 3.862z"/></svg>