<svg xmlns="http://www.w3.org/2000/svg" width="159" height="25" fill="#666" xmlns:v="https://vecta.io/nano"><path d="M17.393 9.133c-2.145.768-4.847.609-6.993 1.139-1.086.238-3.046.53-3.523 1.907.132.477-.238 1.722.185 2.225 1.139 2.331 3.231.053 4.953.477.371-.424 1.669-.132 2.384-.53.291-.053.53.424.477.662 0 .53-.609.477-.715.954-3.47 1.563-6.569 1.192-9.88-.133-.848-.053-.848-1.563-.901-1.854 1.483-3.814 4.556-6.807 8.079-9.324 2.808-2.384 2.225 2.516 4.662 2.04 1.139-.662 1.086-1.324 1.245-2.463-.477-1.377-.768-3.523-2.702-3.814-.53-.238-1.377-.662-2.093-.238-.768-.477-1.139.662-1.986.715-1.722.609-2.94 2.702-4.847 3.47-.424 1.007-1.616 1.377-1.987 2.463-.848.768-1.139 1.377-1.669 2.225-.132.185-.609 0-.371.477-.291.132-.291.53-.662.53.053.53-.609 1.324-.609 1.854-1.007 1.854-.053 3.947.53 5.748 1.086 1.139 1.192 1.616 2.755 2.093 2.569.954 6.039 1.43 8.661.371.609 0 1.086-.848 1.801-.424.132 1.324-.609 3.178.132 4.609 1.139.424 2.278.954 3.417.424.609-.424.609-1.324.768-2.093-.291-2.569.371-5.43 1.43-8.079 1.007-1.801.053-3.894-1.086-5.271l-1.457-.159zm87.964 6.834c-1.907-.477-3.231 1.007-5.032 1.086-.954.185-1.563-.53-2.225-1.006-.053-.424.053-.768.371-1.007.53-.053 1.245-.662 1.907-.238 1.324-.662 2.701-.186 4.37-.715 1.139-.424 3.099.238 3.576-1.616.053-1.377.132-3.099-1.192-3.814-2.039 1.245-4.317 1.563-6.701 1.377-.133-.848.768-1.616 1.086-2.145l3.417-.848c1.986-.609 4.794-.609 6.886-1.669.61-.901.133-1.987 0-2.993 0-.477-.609-.609-.423-1.086-.424-.477-.848-1.43-1.669-1.192-2.861 1.139-6.41 1.907-9.562 2.384l-.901.609-1.801 4.37c-.609 1.324-1.616 2.463-1.987 3.708-1.245 1.986-1.483 4.715-.901 7.046.848 2.093 3.099 3.523 5.192 3.655 1.907.662 3.999-.371 5.668-1.669.185-.53.609-1.377.424-1.801.397-.901-.212-1.775-.504-2.437zM44.489 9.213c-1.086.185-2.04.715-3.178.185-.238-.424.185-.901.371-1.324 2.808-1.43 6.039-1.245 8.847-2.384.477-.715-.238-1.563-.238-2.278-.185-.901-.609-1.669-1.192-2.331-3.47.291-6.701 1.377-10.039 2.093-1.377-.053-2.278 1.377-2.808 2.278 0 1.43.132 2.278 1.139 3.046.133.901-.053 1.987-.768 2.702-.609 1.987-1.245 3.576-.768 5.748.848 3.046 4.132 4.132 7.231 4.662 1.377.053 2.702-.715 3.231-1.854.185-1.722-.132-2.702-1.377-4-.662-.238-1.139.424-1.669.662-1.324.132-2.331 0-3.337-.768 0-.291 0-.901.291-1.245 2.569-.9 5.271-.291 7.893-1.086.848-1.483.371-2.993-.662-4.317-1.007-.689-2.013-.026-2.967.212zm19.734-3.179c.768.053 1.139-.848 1.139-1.192.238-1.192-.901-1.907-1.086-3.046-1.245-1.377-3.284-.132-4.847-.185-2.145.768-5.086.901-7.125 2.622-.371.901-.238 1.801-.371 2.755-1.245 2.384-1.907 5.324-2.516 8.026 0 1.722 1.007 3.231 1.854 4.715.291 1.192 1.987.609 2.569 1.377 1.907.132 5.562.954 6.754-1.324 0-.848.477-2.384-.291-3.284-.238-.609-.768-1.192-1.43-1.377-.715 1.086-2.039 1.139-3.231 1.245-.901-.371-2.384.053-2.516-1.245.477-.768 1.907-.768 2.516-.901.477-.371 1.801.133 2.145-.424 1.722-.053 2.94-.424 4.476-1.006 1.007-.424.424-1.563.53-2.225-.715-1.007-.53-2.569-2.278-2.516-.715.662-2.093.768-2.993 1.139-.715 0-1.616.291-2.093 0 1.298-3.92 5.907-2.384 8.794-3.152zM31.14 13.451c-.477-1.086 1.377-1.245 1.377-2.384 1.722-2.622 1.139-5.933-.609-8.608-.9-1.563-2.755-2.384-4.609-2.225-.662-.53-1.563.901-2.569.291-.371.185-1.139.424-1.139 1.086-1.086.609-.954 2.145-.954 3.046.238 1.139 1.854 1.139 1.007 2.384-.477.662-.291 1.907-1.086 2.702-.901 0-1.245.53-1.616 1.324-.291 1.086.291 2.516.901 3.231-.238 1.483-.132 2.146-.371 3.576l.053.053c-.186.609.132 1.616.238 2.145.477.715 1.139 1.722 2.146 1.616.662.053 1.086-.133 1.324-.662.185-.901.424-1.801-.132-2.702.371-.609-.238-1.669.185-2.384.053-.53.132-.53.662-.715.848.768 1.801 1.43 2.755 2.225 1.854.954 2.516 3.523 4.9 3.232.715-.848 1.854-1.801 1.854-2.861-.133-2.702-2.94-2.516-4.317-4.37zm-3.523-4.132c-.053.238-.424.053-.53.238l-.185-.185c.291-1.43.609-2.94.609-4.423 1.007-.185 1.377.053 2.093.848.583 1.669-.98 2.622-1.986 3.523zm69.185-2.861c-.238-2.145-1.192-4.715-3.655-5.43-3.178-.768-7.416-.609-10.118.768-1.245-.371-2.331.662-3.046.424-.662.371-.424 1.139-1.086 1.324-.053-1.139-.848-2.093-1.801-2.755-1.139.185-1.43.185-1.986 1.192.238.848.053 2.331.132 3.099-.238 1.616-.185 3.417-.371 4.847-.371.477.238 1.192-.609 1.192-1.139-1.377-2.04-2.702-3.099-4.132-.53-1.854-.132-3.655-.477-5.377C70.209.525 68.884.605 67.931.234c-.715.291-1.377.768-1.43 1.563-.768.901-.371 2.04-.609 3.178.053.662.53 1.722.238 2.145-.291.477-.132 1.245-.132 1.801-.185 2.146-.848 4.423-1.245 6.516-.609.848-.185 1.907-.424 2.755.185.901.185 1.43.768 1.987.768.477 2.145 1.086 3.046.477.185-1.192.9-2.093.53-3.337.291-1.563.477-3.232 1.192-4.715.238-.132.371.185.53.291 1.245 2.092 2.94 4.079 3.337 6.172-.371.848.848 2.225 1.192 2.755 1.139-.185 1.801.424 2.808-.291 1.007-3.708.133-7.417.768-11.416.053-1.192.609-2.463-.133-3.231-.132-.424.133-.662.609-.848 1.669 2.093 3.338-.901 5.139-.424.768.477.371 1.854.371 2.861l-1.563.424c-1.192.53-.901 1.987-1.192 3.046.185 1.086 1.192 1.722 2.04 2.331.238 2.384-1.192 5.033.715 7.231.238 0 .609 0 .768.291.715.371 1.192 0 1.722-.238 1.245-1.801 0-2.808.768-4.794l-.132-.185c.424-1.324-.053-2.331.715-3.47 1.854-.662 3.576-.901 4.847-2.384 1.907-.927 3.152-2.543 3.629-4.264zm-6.145 1.139c-.477-.053-1.907 1.192-2.516 0 .053-.848-.53-2.145.185-2.569 1.43.053 2.622.132 4.079.768.159 1.086-1.271 1.377-1.748 1.801zm68.338-2.04c-.53-.609.185-1.854-.053-2.384-.61-.954-.954-2.384-2.331-2.463-1.563.371-3.099.477-4.556 1.007-2.093 0-5.139.715-7.417 1.139-.953-.185-2.701.291-3.575.901-.663.477-.769 1.616-.954 2.278.053 2.463-1.987 3.947-1.987 6.092-.609 1.192 0 1.986-.529 3.099l-.133-.132c-.953-2.145-2.516.768-3.814.53-2.331.291-4.317-.768-6.277-2.145-1.245-.609-.53-1.616-.424-2.463 1.324-2.516 3.417-4.37 5.986-4.662.662.477-.185 1.43 0 1.722-.053.848.132 1.722.609 2.225.662.238 1.669.715 2.278.609.715-.185 1.245-1.086 1.669-1.616.53-1.43.662-2.225.371-3.576-.239-1.563-1.086-2.702-2.278-3.337-.477.132-1.563-.291-2.093.053-2.993.371-5.748 1.616-8.317 3.576.053.662-.662.715-1.006 1.324-.292.768-.769 1.669-1.484 2.278-.371-2.384-.662-4.715-1.668-6.887-.424-1.192-1.563-2.093-2.702-2.145-.424.132-.954.238-1.007.768l-.238-.053c-1.483 1.245-2.384 3.284-3.337 4.953-.424.768-1.086 1.722-1.139 2.278-.663 1.907-2.146 2.093-2.464 3.947.292 2.516-3.417 4.318-2.384 6.94.424 1.192 1.378 1.324 2.464 1.801 1.192-1.086 1.721-2.861 2.384-4.185.238-1.563 2.383-1.006 3.178-1.43.477-.291 1.245-.053 1.669-.238.185 0 .953.291.953.768-.371 1.192-.185 2.384.053 3.814.715 1.192 1.616 1.43 2.861 1.483.609-.848.9-1.192.953-2.093.477-.901-.423-1.907-.053-2.861.133-.371-.132-1.616.477-1.986.662.901 1.484 2.145 2.384 2.861.609.185.715 1.006 1.43 1.086 1.802 1.722 4.848 2.702 7.232 3.046 2.33.053 3.522-2.04 4.317-3.894.848 1.086 1.907 2.278 3.231 2.755 2.464 1.007 4.795-.133 7.126-.238.662-.424 1.986-1.139 1.907-2.225.185-.768.132-1.854-.768-2.331-1.192-.53-2.146-.053-3.285.424-.715-.477-1.722.238-2.516.185-.768-.133-1.854-.133-2.04-1.086.371-.768 1.245-.848 2.093-.768 1.324-.715 2.702-.291 4.37-.53 1.086-.132 2.093.238 3.099-.185-.053-.53.954-1.616.186-1.907.291-.768-.663-1.616-1.139-2.331l-6.172.185-.53-.291c0-.848.53-1.563 1.086-2.04 2.517-.609 4.954-.662 7.417-.901v.053l.715-.132c1.43.424 3.046-.424 4.37-.238.371.424.901.424 1.245.371.265-.026.61-.371.557-.795zm-40.95 4.529c-.53-.185-1.854.768-2.093-.238.663-1.192 1.484-2.331 1.908-3.576.529-.053.476.609.715.901-.186.954.344 2.145-.53 2.914z"/></svg>