<svg xmlns="http://www.w3.org/2000/svg" width="166" height="166" fill="none" xmlns:v="https://vecta.io/nano"><path d="M32.938 83.893v.055l-13.499 8.257v5.819h19.424v-4.283H25.038v-.055l13.825-8.476v-5.596H19.438v4.279h13.499zm-1.975-13.725v-8.425h-3.95v8.425h-3.621V61.25h-3.953v13.198h19.424V60.756h-3.95v9.412h-3.95zm-7.571 32.773h-3.953v.247 13.197.247h3.953v-4.704h11.521v4.457.247h3.95v-.247-13.197-.247h-3.95v.247 4.457H23.392v-4.704zm11.465-58.023a4.8 4.8 0 0 1 .549 2.332 5.03 5.03 0 0 1-.466 2.153c-.309.665-.752 1.258-1.303 1.742a6.29 6.29 0 0 1-1.975 1.166 7.58 7.58 0 0 1-5.006 0 6.05 6.05 0 0 1-1.989-1.179 5.31 5.31 0 0 1-1.773-4.019 5.14 5.14 0 0 1 .412-2.126 4.15 4.15 0 0 1 1.183-1.55l-2.692-3.319a6.76 6.76 0 0 0-1.344 1.426 8.04 8.04 0 0 0-.878 1.66 9.49 9.49 0 0 0-.48 1.759 10.37 10.37 0 0 0-.151 1.714 12 12 0 0 0 .713 4.197 9.67 9.67 0 0 0 2.057 3.319 9.29 9.29 0 0 0 3.226 2.181 10.97 10.97 0 0 0 4.204.795 10.97 10.97 0 0 0 4.224-.782c1.216-.491 2.315-1.234 3.223-2.181.907-.953 1.607-2.083 2.057-3.319.487-1.345.729-2.766.713-4.197a9.67 9.67 0 0 0-.823-3.895 7.43 7.43 0 0 0-2.551-3.13l-2.661 3.569a4.63 4.63 0 0 1 1.529 1.683zm-1.536-21.914a4.63 4.63 0 0 1 1.536 1.684 4.8 4.8 0 0 1 .549 2.332 5.03 5.03 0 0 1-.466 2.153c-.309.665-.752 1.258-1.303 1.742a6.29 6.29 0 0 1-1.975 1.166 7.58 7.58 0 0 1-5.006 0 6.05 6.05 0 0 1-1.989-1.18 5.31 5.31 0 0 1-1.773-4.019 5.14 5.14 0 0 1 .412-2.126 4.16 4.16 0 0 1 1.183-1.55l-2.692-3.319a6.76 6.76 0 0 0-1.344 1.426 8.04 8.04 0 0 0-.878 1.659 9.5 9.5 0 0 0-.48 1.759 10.37 10.37 0 0 0-.151 1.714 12 12 0 0 0 .713 4.197 9.67 9.67 0 0 0 2.057 3.319 9.29 9.29 0 0 0 3.226 2.181 10.97 10.97 0 0 0 4.204.795 10.97 10.97 0 0 0 4.224-.782c1.216-.491 2.315-1.234 3.223-2.181.907-.953 1.607-2.083 2.057-3.319a11.94 11.94 0 0 0 .713-4.197 9.67 9.67 0 0 0-.823-3.895 7.41 7.41 0 0 0-2.551-3.131l-2.668 3.569zm15.142 100.527h2.949a5.96 5.96 0 0 1 1.221.123 3.03 3.03 0 0 1 1.029.419 2.1 2.1 0 0 1 .713.778 2.52 2.52 0 0 1 .268 1.221c.021.464-.079.925-.288 1.34-.179.327-.445.599-.768.785a3.19 3.19 0 0 1-1.125.384c-.44.069-.885.102-1.33.1h-1.104v3.631h-1.564v-8.781zm2.503 3.806l.686-.024a2.16 2.16 0 0 0 .662-.151 1.2 1.2 0 0 0 .497-.37 1.12 1.12 0 0 0 .192-.686 1.09 1.09 0 0 0-.175-.652 1.18 1.18 0 0 0-.446-.373 1.89 1.89 0 0 0-.607-.165 5.34 5.34 0 0 0-.645-.038h-1.104v2.466l.939-.007zm6.008 2.517a1.49 1.49 0 0 0 .157.566c.089.177.213.334.364.462a1.61 1.61 0 0 0 1.077.374 1.8 1.8 0 0 0 .936-.23 2.64 2.64 0 0 0 .662-.576l1.066.806a2.99 2.99 0 0 1-1.166.915 3.43 3.43 0 0 1-1.347.275 3.59 3.59 0 0 1-1.265-.223 3.03 3.03 0 0 1-1.029-.634c-.293-.279-.526-.613-.686-.984a3.37 3.37 0 0 1 0-2.565 2.95 2.95 0 0 1 .689-.988 2.97 2.97 0 0 1 1.026-.631 3.62 3.62 0 0 1 1.265-.223 2.91 2.91 0 0 1 1.132.216 2.4 2.4 0 0 1 .881.628 2.88 2.88 0 0 1 .569 1.008 4.28 4.28 0 0 1 .206 1.372v.411l-4.536.021zm3.048-1.118c.006-.19-.027-.38-.097-.557a1.39 1.39 0 0 0-.311-.472c-.303-.267-.7-.404-1.104-.38-.193-.01-.386.019-.568.085a1.44 1.44 0 0 0-.491.299 1.71 1.71 0 0 0-.477 1.028l3.048-.003zm3.147.596a3.17 3.17 0 0 1 .254-1.282 2.97 2.97 0 0 1 .686-.988c.297-.277.647-.492 1.029-.631.816-.297 1.711-.297 2.527 0 .382.139.732.354 1.029.631.291.281.524.617.686.988a3.37 3.37 0 0 1 0 2.565 2.99 2.99 0 0 1-.69.986c-.295.278-.643.493-1.024.632-.816.297-1.711.297-2.527 0a3.03 3.03 0 0 1-1.029-.634c-.294-.278-.527-.613-.686-.984-.173-.406-.259-.842-.254-1.283zm1.488 0a1.93 1.93 0 0 0 .117.669 1.69 1.69 0 0 0 .343.569 1.77 1.77 0 0 0 .552.398c.335.154.709.198 1.071.127s.691-.255.942-.525a1.65 1.65 0 0 0 .343-.569 2.02 2.02 0 0 0 .117-.669 1.98 1.98 0 0 0-.117-.668 1.69 1.69 0 0 0-.343-.573c-.201-.22-.455-.385-.738-.479s-.586-.112-.878-.054a1.74 1.74 0 0 0-1.294 1.106 1.9 1.9 0 0 0-.113.668zm6.941-2.976h1.413v.895h.024a1.94 1.94 0 0 1 .868-.795c.37-.166.771-.251 1.176-.247a3.04 3.04 0 0 1 1.227.24 2.73 2.73 0 0 1 .929.665c.259.285.458.624.583.991a3.66 3.66 0 0 1 .199 1.227c.003.419-.069.835-.213 1.228a3.11 3.11 0 0 1-.586.991 2.72 2.72 0 0 1-.912.662 2.79 2.79 0 0 1-1.166.243c-.248-.002-.495-.037-.734-.103a2.53 2.53 0 0 1-.569-.223 2.08 2.08 0 0 1-.422-.291c-.104-.092-.199-.193-.285-.302h-.038v3.594h-1.485l-.01-8.775zm4.931 2.976c.001-.228-.038-.454-.117-.668a1.76 1.76 0 0 0-.388-.592 1.8 1.8 0 0 0-.588-.394 1.78 1.78 0 0 0-.695-.132 1.79 1.79 0 0 0-1.243.545c-.15.167-.267.362-.343.573a1.9 1.9 0 0 0-.117.668 1.93 1.93 0 0 0 .117.669 1.69 1.69 0 0 0 .343.569 1.8 1.8 0 0 0 .566.412 1.9 1.9 0 0 0 1.464 0 1.77 1.77 0 0 0 .552-.398 1.7 1.7 0 0 0 .343-.569 1.94 1.94 0 0 0 .106-.683zm3.469-6.395h1.488v9.368h-1.488v-9.368zm4.958 6.917a1.49 1.49 0 0 0 .157.566c.089.177.213.334.364.462a1.61 1.61 0 0 0 1.077.374 1.79 1.79 0 0 0 .936-.23 2.64 2.64 0 0 0 .662-.576l1.066.806c-.306.398-.707.713-1.166.916-.427.181-.887.275-1.351.274-.431.002-.858-.073-1.262-.223a3.03 3.03 0 0 1-1.029-.634c-.293-.278-.526-.613-.686-.984a3.37 3.37 0 0 1 0-2.565 2.95 2.95 0 0 1 .689-.988 2.97 2.97 0 0 1 1.026-.631 3.6 3.6 0 0 1 1.262-.223c.389-.004.775.069 1.135.216a2.4 2.4 0 0 1 .881.628 2.88 2.88 0 0 1 .569 1.008 4.28 4.28 0 0 1 .206 1.372v.411l-4.536.021zm3.048-1.118c.006-.19-.027-.38-.097-.557a1.39 1.39 0 0 0-.311-.472c-.303-.267-.7-.404-1.104-.38-.193-.01-.386.019-.568.085a1.44 1.44 0 0 0-.491.299 1.71 1.71 0 0 0-.477 1.028l3.048-.003zm3.46-5.205h1.265v3.271h-1.265v-3.271zm6.711 4.474a1.38 1.38 0 0 0-1.165-.607 1.25 1.25 0 0 0-.583.148.5.5 0 0 0-.215.199c-.05.086-.075.185-.069.284a.42.42 0 0 0 .236.398 2.45 2.45 0 0 0 .593.209l.775.182a3.1 3.1 0 0 1 .775.284c.238.127.442.308.597.529.169.274.25.593.233.915a1.64 1.64 0 0 1-.23.898 1.8 1.8 0 0 1-.593.59 2.74 2.74 0 0 1-.823.322 4.37 4.37 0 0 1-.919.1 4.01 4.01 0 0 1-1.276-.199 2.46 2.46 0 0 1-1.029-.72l.991-.929a2.85 2.85 0 0 0 .614.528 1.51 1.51 0 0 0 .799.202 1.65 1.65 0 0 0 .343-.034c.113-.023.222-.069.322-.127a.73.73 0 0 0 .24-.216.48.48 0 0 0 .096-.302.5.5 0 0 0-.237-.459 2.07 2.07 0 0 0-.614-.247l-.775-.172c-.268-.051-.527-.139-.771-.26a1.63 1.63 0 0 1-.597-.504 1.48 1.48 0 0 1-.237-.892 1.71 1.71 0 0 1 .206-.86 1.81 1.81 0 0 1 .538-.6 2.27 2.27 0 0 1 .768-.343 3.47 3.47 0 0 1 2.057.092 1.91 1.91 0 0 1 .943.686l-.994.905zm8.236-4.474h1.796l2.4 6.631 2.469-6.631h1.684l-3.546 8.774h-1.351l-3.452-8.774zm8.393 5.801a3.12 3.12 0 0 1 .254-1.282 3.01 3.01 0 0 1 .686-.988 3.09 3.09 0 0 1 1.028-.631c.818-.297 1.714-.297 2.531 0 .381.141.731.355 1.029.631.292.28.525.616.685.988a3.36 3.36 0 0 1 0 2.565 2.97 2.97 0 0 1-.685.984 3.1 3.1 0 0 1-1.029.634c-.817.297-1.713.297-2.531 0a3.09 3.09 0 0 1-1.028-.634 2.97 2.97 0 0 1-.686-.984c-.174-.405-.261-.842-.254-1.283zm1.485 0c0 .228.041.455.12.669.074.211.191.405.343.569a1.81 1.81 0 0 0 .945.511 1.82 1.82 0 0 0 1.068-.113c.21-.095.4-.23.558-.398.152-.164.269-.358.343-.569s.12-.441.12-.669a1.88 1.88 0 0 0-.12-.668c-.075-.212-.191-.407-.343-.573a1.7 1.7 0 0 0-.552-.394 1.76 1.76 0 0 0-2.012.394c-.152.166-.268.361-.343.573-.082.213-.125.439-.127.668zm6.755-4.996c-.001-.117.022-.232.068-.34s.114-.204.199-.284c.09-.09.197-.16.315-.206s.244-.067.371-.061c.253-.007.498.084.686.253.09.08.162.178.211.288a.84.84 0 0 1 .07.35.83.83 0 0 1-.069.351c-.049.11-.121.208-.212.287-.187.172-.433.264-.686.257-.127.006-.253-.015-.371-.061a.93.93 0 0 1-.315-.206.87.87 0 0 1-.198-.286c-.046-.108-.07-.224-.069-.342zm.212 2.02h1.485v5.949h-1.485v-5.949zm7.832 1.787a2.55 2.55 0 0 0-.545-.436c-.18-.102-.383-.155-.59-.154-.24-.004-.478.043-.699.137a1.7 1.7 0 0 0-.583.408c-.153.166-.269.36-.343.573-.08.214-.12.44-.12.669a1.93 1.93 0 0 0 .12.668c.073.212.19.406.343.569a1.68 1.68 0 0 0 .582.411 1.7 1.7 0 0 0 .7.135 1.51 1.51 0 0 0 .645-.141c.199-.096.373-.239.507-.415l.991 1.066a2.32 2.32 0 0 1-.514.384 3.55 3.55 0 0 1-.59.258 3.49 3.49 0 0 1-.569.144 3.21 3.21 0 0 1-.47.044 3.59 3.59 0 0 1-1.265-.223c-.381-.141-.731-.357-1.029-.634s-.526-.613-.686-.984a3.34 3.34 0 0 1 0-2.565 3.04 3.04 0 0 1 .686-.987 3.08 3.08 0 0 1 1.029-.631 3.59 3.59 0 0 1 1.265-.223c.392.002.78.075 1.145.216a2.6 2.6 0 0 1 1.012.686l-1.022 1.025zm3.665 1.711c.03.398.216.768.518 1.028.303.252.687.384 1.08.374a1.8 1.8 0 0 0 .936-.23 2.64 2.64 0 0 0 .662-.576l1.066.806c-.306.397-.707.712-1.165.916-.427.181-.887.275-1.351.274a3.62 3.62 0 0 1-1.266-.223c-.381-.141-.731-.356-1.028-.634a2.94 2.94 0 0 1-.686-.984 3.37 3.37 0 0 1 0-2.565 2.96 2.96 0 0 1 .686-.988 3.05 3.05 0 0 1 1.028-.631c.405-.149.834-.224 1.266-.223.389-.004.775.069 1.135.216a2.45 2.45 0 0 1 .881.628c.255.295.448.638.569 1.008.142.443.21.906.202 1.372v.411l-4.533.021zm3.049-1.118c.005-.191-.029-.38-.099-.557a1.37 1.37 0 0 0-.313-.472 1.52 1.52 0 0 0-1.1-.38 1.45 1.45 0 0 0-.569.085 1.44 1.44 0 0 0-.491.299c-.271.279-.439.641-.477 1.028l3.049-.003zm6.621-.731c-.128-.19-.302-.346-.506-.452s-.43-.159-.66-.155c-.203.001-.404.051-.583.148-.09.043-.164.113-.215.199a.5.5 0 0 0-.069.284c-.005.082.016.164.058.235a.42.42 0 0 0 .178.163c.188.095.387.166.593.209l.775.182c.27.06.531.155.775.284.238.126.441.307.593.529.172.273.255.593.237.915.011.315-.069.627-.23.898a1.8 1.8 0 0 1-.593.59c-.256.152-.535.261-.826.322a4.34 4.34 0 0 1-.916.1 4 4 0 0 1-1.275-.199c-.4-.146-.755-.394-1.029-.72l.991-.929c.178.204.385.382.614.528a1.51 1.51 0 0 0 .799.202c.115.001.23-.011.342-.034a1.17 1.17 0 0 0 .323-.127.73.73 0 0 0 .24-.216.56.56 0 0 0-.141-.761 2.08 2.08 0 0 0-.596-.244l-.775-.171c-.269-.052-.53-.14-.775-.261-.236-.117-.44-.29-.593-.504-.173-.264-.256-.577-.237-.891a1.71 1.71 0 0 1 .206-.861 1.81 1.81 0 0 1 .538-.6 2.29 2.29 0 0 1 .768-.343 3.47 3.47 0 0 1 2.057.093 1.92 1.92 0 0 1 .943.685l-1.011.902zm-95.96 9.835a.86.86 0 0 1 .069-.34.85.85 0 0 1 .198-.284.91.91 0 0 1 .315-.206.92.92 0 0 1 .371-.062.99.99 0 0 1 .686.254c.089.081.16.18.208.29s.073.229.073.349a.87.87 0 0 1-.073.35c-.048.11-.119.209-.208.29a.99.99 0 0 1-.686.254.92.92 0 0 1-.371-.062.91.91 0 0 1-.315-.206.86.86 0 0 1-.267-.627zm.213 2.023h1.485v5.932H48.69l-.014-5.932zm3.302-.014h1.413v.953h.027a2.06 2.06 0 0 1 .645-.775 1.89 1.89 0 0 1 1.176-.342 2.36 2.36 0 0 1 1.029.198 1.92 1.92 0 0 1 .686.522 1.97 1.97 0 0 1 .374.744 3.36 3.36 0 0 1 .11.878v3.768h-1.485v-3.011l-.024-.552a2.06 2.06 0 0 0-.13-.569 1.09 1.09 0 0 0-.343-.446.95.95 0 0 0-.607-.181c-.216-.006-.431.037-.627.126-.165.082-.309.199-.422.343s-.194.308-.24.484c-.051.186-.077.379-.075.572v3.244h-1.488l-.017-5.956zm11.092-2.826h2.949a5.96 5.96 0 0 1 1.221.123c.366.073.715.214 1.029.415a2.11 2.11 0 0 1 .713.779 2.53 2.53 0 0 1 .281 1.213 2.74 2.74 0 0 1-.285 1.341 2.05 2.05 0 0 1-.772.785 3.19 3.19 0 0 1-1.121.381 8.71 8.71 0 0 1-1.33.096h-1.121v3.638H63.07v-8.771zm2.503 3.803l.686-.024a2.1 2.1 0 0 0 .662-.151 1.2 1.2 0 0 0 .497-.371 1.11 1.11 0 0 0 .192-.685 1.09 1.09 0 0 0-.175-.652 1.18 1.18 0 0 0-.446-.374c-.192-.088-.397-.144-.607-.164-.214-.026-.429-.039-.645-.038h-1.104v2.465l.939-.006zm4.376 1.996a3.17 3.17 0 0 1 .254-1.282 2.97 2.97 0 0 1 1.715-1.619c.816-.297 1.711-.297 2.527 0a3.03 3.03 0 0 1 1.029.634 2.98 2.98 0 0 1 .686.985 3.37 3.37 0 0 1 0 2.564 2.97 2.97 0 0 1-.686.984 3.02 3.02 0 0 1-1.029.635c-.816.297-1.711.297-2.527 0a2.97 2.97 0 0 1-1.715-1.619 3.17 3.17 0 0 1-.254-1.282zm1.488 0a1.91 1.91 0 0 0 .117.686 1.7 1.7 0 0 0 .343.569 1.76 1.76 0 0 0 .584.412 1.77 1.77 0 0 0 .7.145c.241 0 .479-.05.7-.145a1.76 1.76 0 0 0 .584-.412 1.7 1.7 0 0 0 .343-.569 1.91 1.91 0 0 0 .117-.686 1.94 1.94 0 0 0-.117-.669 1.7 1.7 0 0 0-.343-.569 1.76 1.76 0 0 0-.584-.412c-.221-.095-.459-.145-.7-.145a1.77 1.77 0 0 0-.7.145 1.76 1.76 0 0 0-.584.412 1.7 1.7 0 0 0-.343.569 1.94 1.94 0 0 0-.113.669h-.003zm6.14-6.395h1.488v9.367h-1.488v-9.367zm3.111 1.413a.86.86 0 0 1 .069-.34.87.87 0 0 1 .198-.285c.09-.089.197-.159.315-.205a.92.92 0 0 1 .371-.062 1 1 0 0 1 .686.254c.088.082.158.181.206.291a.87.87 0 0 1 .072.348.89.89 0 0 1-.072.349c-.047.11-.118.209-.206.291a1 1 0 0 1-.686.253c-.126.006-.253-.016-.371-.062s-.225-.116-.315-.205a.86.86 0 0 1-.267-.627zm.213 2.023h1.488v5.931H80.9v-5.931zm7.347 1.769a2.5 2.5 0 0 0-.545-.435 1.17 1.17 0 0 0-.583-.161c-.251-.004-.501.047-.73.15a1.73 1.73 0 0 0-.552.398 1.61 1.61 0 0 0-.343.569c-.074.211-.118.441-.117.669a1.89 1.89 0 0 0 .117.686c.074.211.191.405.343.569.162.164.356.293.569.38a1.7 1.7 0 0 0 .73.148 1.45 1.45 0 0 0 .645-.141 1.4 1.4 0 0 0 .508-.415l.991 1.067a2.35 2.35 0 0 1-.514.384 3.6 3.6 0 0 1-.586.26 3.49 3.49 0 0 1-.569.141 2.88 2.88 0 0 1-.473.045c-.432.002-.86-.074-1.265-.223a3.08 3.08 0 0 1-1.029-.635 2.96 2.96 0 0 1-.686-.984 3.37 3.37 0 0 1 0-2.564c.159-.372.393-.707.686-.985s.647-.492 1.029-.634a3.62 3.62 0 0 1 1.265-.223 3.25 3.25 0 0 1 1.145.216 2.66 2.66 0 0 1 1.011.686l-1.046 1.032zm1.533-1.784h1.636l1.66 4.115h.027l1.485-4.115h1.55l-2.812 7.225a4.98 4.98 0 0 1-.343.737c-.122.2-.275.379-.453.531a1.69 1.69 0 0 1-.614.323 2.94 2.94 0 0 1-.85.106 4.55 4.55 0 0 1-1.138-.147l.185-1.341a3.59 3.59 0 0 0 .367.106 1.85 1.85 0 0 0 .384.052c.153.004.307-.013.456-.048a.87.87 0 0 0 .316-.155.82.82 0 0 0 .219-.274l.185-.401.285-.707-2.544-6.007zm17.631-.767c-.256-.296-.576-.531-.936-.686-.291-.114-.6-.174-.912-.175-.423-.005-.842.078-1.231.244a2.8 2.8 0 0 0-.95.668c-.268.29-.476.629-.614.998a3.45 3.45 0 0 0-.216 1.227c-.004.443.069.883.216 1.3.134.38.343.73.614 1.029.265.293.588.526.95.685a2.98 2.98 0 0 0 1.231.247 2.24 2.24 0 0 0 1.028-.253 2.8 2.8 0 0 0 .937-.81l1.289.916a3.52 3.52 0 0 1-1.451 1.19c-.574.248-1.194.374-1.82.37a5.11 5.11 0 0 1-1.866-.343 4.17 4.17 0 0 1-1.463-.929c-.418-.409-.745-.901-.961-1.444a4.91 4.91 0 0 1-.343-1.872 5.17 5.17 0 0 1 .343-1.917c.216-.55.543-1.049.96-1.467a4.23 4.23 0 0 1 1.464-.936 5.11 5.11 0 0 1 1.866-.343c.566-.005 1.128.103 1.652.319.554.244 1.043.615 1.427 1.083l-1.214.899zm3.902 1.598h.024a1.73 1.73 0 0 1 .614-.686c.338-.216.734-.322 1.135-.305.347-.009.693.059 1.011.198.265.121.499.299.686.522.173.219.3.473.37.744a3.37 3.37 0 0 1 .113.877v3.765h-1.498v-3.01l-.024-.552c-.016-.195-.06-.387-.13-.569a1.1 1.1 0 0 0-.343-.446c-.176-.129-.39-.193-.607-.182-.216-.005-.431.038-.628.127-.164.081-.308.198-.421.343a1.32 1.32 0 0 0-.24.483 2.1 2.1 0 0 0-.076.573v3.244h-1.485v-9.378h1.485l.014 4.252zm5.418 2.143c-.007-.441.079-.878.253-1.282a2.98 2.98 0 0 1 .686-.985 3.1 3.1 0 0 1 1.029-.634c.817-.297 1.713-.297 2.53 0a3.09 3.09 0 0 1 1.029.634c.293.278.527.613.686.985a3.37 3.37 0 0 1 0 2.564 2.96 2.96 0 0 1-.686.984 3.08 3.08 0 0 1-1.029.635c-.817.297-1.713.297-2.53 0a3.09 3.09 0 0 1-1.029-.635c-.293-.278-.526-.612-.686-.984a3.12 3.12 0 0 1-.253-1.282zm1.484 0c-.002.234.039.466.12.686a1.65 1.65 0 0 0 .343.569 1.69 1.69 0 0 0 .552.398c.335.153.71.197 1.071.125a1.75 1.75 0 0 0 .942-.523c.152-.164.269-.358.343-.569.082-.22.122-.452.12-.686 0-.228-.041-.455-.12-.669s-.191-.405-.343-.569c-.255-.264-.584-.443-.944-.514a1.8 1.8 0 0 0-1.069.116c-.209.093-.397.229-.552.398a1.65 1.65 0 0 0-.343.569 1.96 1.96 0 0 0-.12.669zm6.272-4.982a.86.86 0 0 1 .069-.34c.046-.107.114-.204.198-.284.09-.09.197-.16.315-.206s.245-.067.371-.062a.99.99 0 0 1 .686.254.87.87 0 0 1 .208.29c.048.11.073.229.073.349a.88.88 0 0 1-.073.35.87.87 0 0 1-.208.29.99.99 0 0 1-.686.254c-.126.005-.253-.016-.371-.062s-.225-.116-.315-.206a.86.86 0 0 1-.198-.286.85.85 0 0 1-.069-.341zm.213 2.023h1.481v5.932h-1.485l.004-5.932zm7.347 1.769a2.49 2.49 0 0 0-.545-.435c-.177-.104-.378-.159-.583-.162a1.73 1.73 0 0 0-.73.151c-.21.093-.398.229-.552.398s-.269.358-.343.569-.12.441-.12.669c-.003.234.038.466.12.686.074.211.191.405.343.569.154.169.342.304.552.398.229.102.479.152.73.147.223.003.443-.045.645-.141a1.38 1.38 0 0 0 .507-.414l.991 1.066c-.153.151-.326.28-.514.384a3.74 3.74 0 0 1-.59.261c-.185.063-.376.11-.569.14-.155.028-.312.043-.47.045-.432.002-.86-.074-1.265-.223a3.09 3.09 0 0 1-1.029-.634 2.98 2.98 0 0 1-.686-.985 3.37 3.37 0 0 1 0-2.564c.16-.372.393-.706.686-.984a3.08 3.08 0 0 1 1.029-.635c.405-.149.833-.225 1.265-.223.392.003.78.076 1.145.216.386.148.732.382 1.012.686l-1.029 1.015zm3.185 1.71c.015.198.068.39.158.567a1.49 1.49 0 0 0 .364.462c.301.252.684.385 1.076.374a1.77 1.77 0 0 0 .936-.23 2.66 2.66 0 0 0 .662-.576l1.067.806a3 3 0 0 1-1.166.915 3.43 3.43 0 0 1-1.351.275 3.6 3.6 0 0 1-1.262-.223 3.02 3.02 0 0 1-1.029-.635 2.92 2.92 0 0 1-.685-.984 3.36 3.36 0 0 1 0-2.564c.158-.372.391-.707.685-.985s.647-.494 1.029-.634a3.6 3.6 0 0 1 1.262-.223c.389-.005.775.069 1.135.216a2.45 2.45 0 0 1 .881.628c.256.295.45.639.569 1.011.143.443.213.906.206 1.372v.408l-4.537.02zm3.049-1.114a1.41 1.41 0 0 0-.099-.556c-.07-.177-.175-.338-.309-.473-.304-.267-.701-.404-1.104-.38a1.45 1.45 0 0 0-.569.085 1.46 1.46 0 0 0-.491.299c-.271.279-.439.641-.477 1.028l3.049-.003zm6.134-.734c-.128-.191-.302-.346-.506-.452s-.43-.159-.66-.155a1.29 1.29 0 0 0-.583.148c-.09.043-.165.112-.215.198a.51.51 0 0 0-.07.285.42.42 0 0 0 .237.398c.189.094.388.166.593.212l.775.179c.27.059.531.155.775.284a1.72 1.72 0 0 1 .597.528 1.59 1.59 0 0 1 .233.916c.011.315-.069.627-.23.898a1.78 1.78 0 0 1-.593.59c-.255.153-.535.262-.826.322a4.41 4.41 0 0 1-.916.1 4 4 0 0 1-1.275-.199 2.43 2.43 0 0 1-1.029-.72l.991-.929c.178.204.385.382.614.528a1.48 1.48 0 0 0 .799.205c.115 0 .23-.013.342-.037a1.29 1.29 0 0 0 .323-.124.74.74 0 0 0 .24-.219.51.51 0 0 0 .092-.302c.007-.091-.012-.181-.053-.262s-.103-.149-.18-.198c-.186-.11-.387-.192-.596-.243l-.772-.171a2.99 2.99 0 0 1-.775-.261 1.65 1.65 0 0 1-.596-.501 1.49 1.49 0 0 1-.237-.895 1.71 1.71 0 0 1 .206-.86 1.81 1.81 0 0 1 .538-.6 2.26 2.26 0 0 1 .768-.343 3.47 3.47 0 0 1 2.057.092 1.93 1.93 0 0 1 .943.686l-1.011.902zm1.375-122.059H48.597v97.193h97.194V19.435z" fill="#666"/><path d="M81.04 56.144c-1.76.006-3.447.708-4.69 1.954s-1.943 2.934-1.944 4.694v.422a6.66 6.66 0 0 0 .986 3.482 6.65 6.65 0 0 0 2.662 2.45 6.66 6.66 0 0 0-3.648 5.946v17.254h3.35V75.092a3.3 3.3 0 0 1 3.297-3.192 3.3 3.3 0 0 1 3.297 3.192v17.254h3.353V75.092a6.66 6.66 0 0 0-.989-3.481 6.67 6.67 0 0 0-2.663-2.451 6.66 6.66 0 0 0 2.664-2.45 6.65 6.65 0 0 0 .988-3.482v-.422a6.66 6.66 0 0 0-6.662-6.662zm3.309 7.07a3.3 3.3 0 0 1-3.299 3.299 3.3 3.3 0 0 1-3.299-3.299v-.422a3.3 3.3 0 0 1 3.299-3.299 3.3 3.3 0 0 1 3.299 3.299v.422zm45.073-3.843a3.31 3.31 0 0 1 2.333.967c.619.618.967 1.457.969 2.332h3.35a6.66 6.66 0 0 0-3.813-6.011c1.056-.57 1.938-1.415 2.553-2.445a6.66 6.66 0 0 0 .941-3.407v-.422a6.65 6.65 0 0 0-6.65-6.501 6.65 6.65 0 0 0-6.65 6.501v.422a6.65 6.65 0 0 0 1.034 3.56 6.66 6.66 0 0 0 2.778 2.454 6.65 6.65 0 0 0-2.553 2.443c-.615 1.03-.94 2.207-.941 3.406v11.243a6.64 6.64 0 0 0 1.894 4.801c.619.634 1.359 1.137 2.176 1.481a6.65 6.65 0 0 0 5.161 0c.817-.344 1.557-.847 2.176-1.481s1.107-1.385 1.432-2.209a6.66 6.66 0 0 0 .462-2.592h-3.35c.014.442-.061.883-.22 1.296s-.4.79-.708 1.108a3.31 3.31 0 0 1-1.084.743 3.3 3.3 0 0 1-2.576 0 3.29 3.29 0 0 1-1.084-.743 3.31 3.31 0 0 1-.709-1.108c-.159-.413-.234-.853-.22-1.296V62.669c.002-.874.35-1.712.969-2.33a3.31 3.31 0 0 1 2.33-.968zm-3.617-8.987a3.3 3.3 0 0 1 1.003-2.266c.616-.596 1.44-.93 2.297-.93a3.3 3.3 0 0 1 2.297.93c.616.597.975 1.409 1.003 2.266v.422c-.028.857-.387 1.669-1.003 2.266a3.3 3.3 0 0 1-2.297.93c-.857 0-1.681-.334-2.297-.93a3.3 3.3 0 0 1-1.003-2.266v-.422zm-60.839-6.649c-1.763.002-3.453.703-4.699 1.949s-1.947 2.936-1.949 4.699v.422a6.65 6.65 0 0 0 3.648 5.932 6.66 6.66 0 0 0-3.648 5.932h3.35a3.29 3.29 0 0 1 1.625-2.836v16.918a3.3 3.3 0 0 1-1.625-2.839h-3.35a6.65 6.65 0 0 0 1.893 4.801 6.66 6.66 0 0 0 2.176 1.481 6.65 6.65 0 0 0 8.769-3.69 6.65 6.65 0 0 0 .462-2.592h-3.353a3.3 3.3 0 0 1-.434 1.635 3.29 3.29 0 0 1-1.188 1.204V59.833a3.29 3.29 0 0 1 1.622 2.836h3.353a6.66 6.66 0 0 0-3.652-5.932 6.66 6.66 0 0 0 2.664-2.45c.645-1.047.986-2.252.988-3.482v-.422a6.66 6.66 0 0 0-6.652-6.648zm3.299 7.07a3.3 3.3 0 0 1-3.299 3.299 3.3 3.3 0 0 1-3.299-3.299v-.422a3.3 3.3 0 0 1 3.299-3.299 3.3 3.3 0 0 1 3.299 3.299v.422zm51.744 11.768v-.418a6.66 6.66 0 0 0-.462-2.592 6.64 6.64 0 0 0-1.431-2.209 6.66 6.66 0 0 0-2.177-1.481 6.65 6.65 0 0 0-5.16 0 6.66 6.66 0 0 0-3.608 3.69 6.66 6.66 0 0 0-.462 2.592v.418a6.64 6.64 0 0 0 .941 3.408c.615 1.03 1.497 1.875 2.553 2.445a6.65 6.65 0 0 0-3.813 6.011v11.247a6.65 6.65 0 0 0 6.65 6.501 6.65 6.65 0 0 0 6.65-6.501h-3.35a3.3 3.3 0 0 1-1.003 2.266c-.616.596-1.44.93-2.297.93s-1.681-.334-2.297-.93a3.3 3.3 0 0 1-1.003-2.266V74.437a3.3 3.3 0 0 1 1.003-2.266c.616-.596 1.44-.93 2.297-.93s1.681.334 2.297.93a3.3 3.3 0 0 1 1.003 2.266h3.326a6.65 6.65 0 0 0-3.48-5.86 6.66 6.66 0 0 0 2.782-2.448 6.65 6.65 0 0 0 1.041-3.556zm-3.35 0a3.28 3.28 0 0 1-.22 1.296 3.29 3.29 0 0 1-.708 1.107 3.3 3.3 0 0 1-4.744 0 3.29 3.29 0 0 1-.708-1.107 3.28 3.28 0 0 1-.22-1.296v-.418a3.28 3.28 0 0 1 .22-1.296 3.29 3.29 0 0 1 .708-1.107c.308-.318.676-.571 1.084-.743s.845-.262 1.288-.262a3.29 3.29 0 0 1 1.288.262 3.31 3.31 0 0 1 1.084.743 3.29 3.29 0 0 1 .708 1.107 3.28 3.28 0 0 1 .22 1.296v.418zm-15.697 5.521a6.66 6.66 0 0 0 1.585-9.258 6.72 6.72 0 0 0-2.425-2.092 6.65 6.65 0 0 0 3.652-5.932v-.422a6.65 6.65 0 0 0-6.65-6.501 6.65 6.65 0 0 0-6.65 6.501v.422a6.65 6.65 0 0 0 .988 3.482 6.66 6.66 0 0 0 2.664 2.45 6.67 6.67 0 0 0-2.663 2.451 6.66 6.66 0 0 0-.989 3.481v11.243a6.66 6.66 0 0 0 .462 2.592 6.64 6.64 0 0 0 1.431 2.209 6.67 6.67 0 0 0 2.176 1.481 6.65 6.65 0 0 0 5.161 0 6.66 6.66 0 0 0 3.608-3.69 6.66 6.66 0 0 0 .462-2.592h-3.35a3.3 3.3 0 0 1-.22 1.296c-.16.413-.4.789-.708 1.107a3.3 3.3 0 0 1-4.744 0 3.3 3.3 0 0 1-.708-1.107c-.159-.413-.234-.854-.22-1.296v-.761l7.138-5.064zm-7.149-17.71a3.3 3.3 0 0 1 5.597-2.266 3.31 3.31 0 0 1 1.004 2.266v.422c-.028.857-.388 1.669-1.004 2.266a3.3 3.3 0 0 1-5.597-2.266v-.422zm3.302 8.987c.874.002 1.712.35 2.33.968s.966 1.456.968 2.331c0 .526-.126 1.045-.367 1.513a3.3 3.3 0 0 1-1.022 1.175l-5.212 3.689v-6.378c.002-.875.35-1.713.969-2.332s1.458-.966 2.333-.967z" fill="#fff"/></svg>