<svg width="2081" height="960" fill="none" xmlns="http://www.w3.org/2000/svg"><path d="M480.067 0C214.917 0 0 214.917 0 479.933 0 744.949 215.051 960 480.067 960S960 745.083 960 480.067C960 215.051 745.216 0 480.067 0zM239.301 639.956h-79.945V320.178h79.945v319.778zm200.127 0c-52.896-52.897-106.326-106.327-159.889-160.023 53.43-53.296 106.859-106.725 159.889-159.755v319.778zm312.317-47.434c-30.113 29.713-70.218 45.968-112.989 45.968h-.666c-41.971-.133-81.543-16.922-111.522-47.301-29.979-30.245-46.368-70.217-46.235-112.322.133-42.77 16.922-82.742 47.167-112.721 30.113-29.846 70.218-46.235 112.855-46.235h.533c42.104.133 81.677 16.789 111.523 46.901 30.112 30.246 46.501 70.351 46.234 112.855 0 43.037-16.655 83.142-46.9 112.855z" fill="#5F5CF4"/><path d="M640.355 400.655h-.666c-43.17 0-78.479 34.909-78.878 78.079-.267 20.786 7.861 40.639 22.65 55.562 14.923 15.056 34.776 23.45 55.828 23.583h.4c20.919 0 40.639-8.127 55.428-22.784 14.923-14.79 23.184-34.509 23.317-55.695.267-43.036-34.775-78.345-78.079-78.745zM1144.03 497.11l.06-31.217h3.79l30.06-35.615h29.87l-40.38 47.161h-6.17l-17.23 19.671zm-23.58 27.002V399h26.03v125.112h-26.03zm58.65 0-27.61-40.869 17.34-18.388 40.75 59.257h-30.48zM1255.67 525.944c-9.49 0-17.7-2.016-24.62-6.048-6.88-4.072-12.2-9.733-15.94-16.983-3.75-7.29-5.62-15.74-5.62-25.352 0-9.693 1.87-18.164 5.62-25.413 3.74-7.29 9.06-12.951 15.94-16.983 6.92-4.073 15.13-6.109 24.62-6.109s17.67 2.036 24.56 6.109c6.92 4.032 12.26 9.693 16 16.983 3.75 7.249 5.62 15.72 5.62 25.413 0 9.612-1.87 18.062-5.62 25.352-3.74 7.25-9.08 12.911-16 16.983-6.89 4.032-15.07 6.048-24.56 6.048zm.12-20.159c4.32 0 7.92-1.222 10.81-3.666 2.9-2.484 5.07-5.864 6.54-10.141 1.51-4.276 2.26-9.143 2.26-14.6 0-5.457-.75-10.324-2.26-14.6-1.47-4.277-3.64-7.657-6.54-10.141-2.89-2.485-6.49-3.727-10.81-3.727-4.36 0-8.02 1.242-10.99 3.727-2.94 2.484-5.16 5.864-6.66 10.141-1.47 4.276-2.2 9.143-2.2 14.6 0 5.457.73 10.324 2.2 14.6 1.5 4.277 3.72 7.657 6.66 10.141 2.97 2.444 6.63 3.666 10.99 3.666zM1315.33 524.112v-93.834h24.81v16.555h1.1c1.95-5.498 5.21-9.835 9.77-13.012 4.56-3.177 10.02-4.765 16.37-4.765 6.44 0 11.92 1.609 16.44 4.826 4.52 3.177 7.53 7.494 9.04 12.951h.97c1.92-5.376 5.38-9.672 10.39-12.89 5.05-3.258 11.02-4.887 17.9-4.887 8.76 0 15.86 2.79 21.32 8.369 5.5 5.539 8.25 13.399 8.25 23.581v63.106h-25.97v-57.975c0-5.212-1.38-9.122-4.15-11.729-2.77-2.606-6.23-3.909-10.39-3.909-4.72 0-8.41 1.506-11.05 4.52-2.65 2.973-3.97 6.903-3.97 11.79v57.303h-25.23v-58.524c0-4.602-1.33-8.268-3.98-10.996-2.6-2.729-6.04-4.093-10.32-4.093-2.89 0-5.5.733-7.82 2.199-2.28 1.425-4.09 3.441-5.44 6.048-1.34 2.565-2.01 5.579-2.01 9.041v56.325h-26.03zM1528.98 484.159v-53.881H1555v93.834h-24.99v-17.044h-.97c-2.12 5.498-5.64 9.916-10.57 13.256-4.89 3.34-10.86 5.009-17.9 5.009-6.27 0-11.79-1.425-16.56-4.276-4.76-2.851-8.49-6.903-11.18-12.157-2.64-5.253-3.99-11.546-4.03-18.876v-59.746h26.03v55.103c.04 5.539 1.52 9.917 4.46 13.134 2.93 3.217 6.86 4.826 11.79 4.826 3.13 0 6.06-.713 8.79-2.138 2.73-1.466 4.93-3.625 6.6-6.476 1.71-2.85 2.55-6.373 2.51-10.568zM1598.4 469.864v54.248h-26.02V399h25.29v47.833h1.1c2.11-5.539 5.53-9.876 10.26-13.012 4.72-3.177 10.65-4.765 17.78-4.765 6.51 0 12.19 1.426 17.04 4.276 4.89 2.81 8.68 6.863 11.36 12.157 2.73 5.254 4.08 11.546 4.03 18.877v59.746h-26.02v-55.103c.04-5.783-1.42-10.284-4.4-13.501-2.93-3.217-7.04-4.826-12.34-4.826-3.54 0-6.68.753-9.41 2.26-2.68 1.507-4.8 3.706-6.35 6.598-1.51 2.851-2.28 6.292-2.32 10.324zM1702.31 469.864v54.248h-26.03v-93.834h24.81v16.555h1.1c2.07-5.457 5.56-9.774 10.44-12.951 4.89-3.217 10.82-4.826 17.78-4.826 6.52 0 12.2 1.426 17.04 4.276 4.85 2.851 8.62 6.924 11.31 12.218 2.68 5.254 4.03 11.526 4.03 18.816v59.746h-26.03v-55.103c.04-5.743-1.42-10.223-4.4-13.44-2.97-3.258-7.06-4.887-12.27-4.887-3.51 0-6.6.753-9.29 2.26-2.65 1.507-4.72 3.706-6.23 6.598-1.47 2.851-2.22 6.292-2.26 10.324zM1795.07 525.7c-4.03 0-7.49-1.426-10.39-4.276-2.85-2.892-4.27-6.354-4.27-10.386 0-3.991 1.42-7.412 4.27-10.263 2.9-2.851 6.36-4.276 10.39-4.276 3.91 0 7.33 1.425 10.26 4.276 2.93 2.851 4.4 6.272 4.4 10.263 0 2.688-.69 5.152-2.08 7.392a15.743 15.743 0 0 1-5.31 5.315c-2.2 1.303-4.62 1.955-7.27 1.955zM1870.05 525.944c-9.49 0-17.69-2.016-24.62-6.048-6.88-4.072-12.19-9.733-15.94-16.983-3.75-7.29-5.62-15.74-5.62-25.352 0-9.693 1.87-18.164 5.62-25.413 3.75-7.29 9.06-12.951 15.94-16.983 6.93-4.073 15.13-6.109 24.62-6.109s17.68 2.036 24.56 6.109c6.92 4.032 12.26 9.693 16.01 16.983 3.74 7.249 5.62 15.72 5.62 25.413 0 9.612-1.88 18.062-5.62 25.352-3.75 7.25-9.09 12.911-16.01 16.983-6.88 4.032-15.07 6.048-24.56 6.048zm.12-20.159c4.32 0 7.93-1.222 10.82-3.666 2.89-2.484 5.07-5.864 6.53-10.141 1.51-4.276 2.26-9.143 2.26-14.6 0-5.457-.75-10.324-2.26-14.6-1.46-4.277-3.64-7.657-6.53-10.141-2.89-2.485-6.5-3.727-10.82-3.727-4.35 0-8.02 1.242-10.99 3.727-2.93 2.484-5.15 5.864-6.66 10.141-1.47 4.276-2.2 9.143-2.2 14.6 0 5.457.73 10.324 2.2 14.6 1.51 4.277 3.73 7.657 6.66 10.141 2.97 2.444 6.64 3.666 10.99 3.666zM1929.72 524.112v-93.834h25.23v16.372h.97c1.72-5.824 4.59-10.222 8.62-13.195 4.03-3.014 8.67-4.521 13.93-4.521 1.3 0 2.71.081 4.21.244 1.51.163 2.83.387 3.97.672v23.092c-1.22-.366-2.91-.692-5.07-.977-2.16-.285-4.13-.428-5.92-.428-3.83 0-7.25.835-10.27 2.505-2.97 1.629-5.33 3.909-7.08 6.842-1.71 2.932-2.57 6.312-2.57 10.141v53.087h-26.02zM2034.57 561.254c-8.43 0-15.66-1.161-21.68-3.482-5.99-2.281-10.76-5.396-14.3-9.347-3.54-3.95-5.84-8.389-6.9-13.317l24.07-3.238c.73 1.873 1.89 3.625 3.48 5.254 1.59 1.629 3.69 2.932 6.29 3.909 2.65 1.019 5.87 1.528 9.65 1.528 5.67 0 10.33-1.385 13.99-4.154 3.71-2.729 5.56-7.311 5.56-13.746v-17.166h-1.1c-1.14 2.607-2.85 5.071-5.13 7.392-2.28 2.321-5.21 4.215-8.8 5.681-3.58 1.466-7.86 2.2-12.82 2.2-7.05 0-13.46-1.629-19.25-4.888-5.74-3.298-10.32-8.328-13.74-15.089-3.38-6.801-5.07-15.394-5.07-25.78 0-10.629 1.73-19.508 5.19-26.635 3.46-7.127 8.06-12.462 13.81-16.005 5.78-3.543 12.11-5.315 18.99-5.315 5.26 0 9.66.896 13.2 2.688 3.54 1.751 6.39 3.95 8.55 6.598 2.2 2.606 3.89 5.172 5.07 7.697h.98v-15.761h25.84v94.75c0 7.982-1.95 14.661-5.86 20.037-3.91 5.376-9.33 9.408-16.25 12.096-6.89 2.729-14.81 4.093-23.77 4.093zm.55-58.035c4.2 0 7.74-1.039 10.63-3.116 2.94-2.117 5.17-5.131 6.72-9.041 1.59-3.95 2.39-8.675 2.39-14.173 0-5.498-.78-10.263-2.33-14.295-1.54-4.072-3.78-7.229-6.72-9.469-2.93-2.24-6.49-3.36-10.69-3.36-4.27 0-7.88 1.161-10.81 3.483-2.93 2.28-5.15 5.457-6.66 9.53-1.51 4.072-2.26 8.776-2.26 14.111 0 5.417.75 10.1 2.26 14.051 1.55 3.91 3.77 6.944 6.66 9.102 2.93 2.118 6.54 3.177 10.81 3.177z" fill="#5F5CF4"/></svg>