<svg xmlns="http://www.w3.org/2000/svg" width="159" height="58" fill="#666" xmlns:v="https://vecta.io/nano"><path d="M15.046 19.042a6.18 6.18 0 0 0 .288-1.677c.077-1.533-.429-2.847-1.525-3.999-1.364-1.455-3.384-2.19-6.065-2.234-.02 0-.038.011-.058.012l-.041-.002c-2.123-.034-3.669-.569-4.64-1.611C2.291 8.783 1.954 7.929 2 6.965c.068-1.364.625-2.518 1.675-3.457s2.306-1.409 3.769-1.409c1.35 0 2.551.258 3.601.772 1.262.604 2.045 1.489 2.346 2.651a.92.92 0 0 0 .453.604.89.89 0 0 0 .754.101.98.98 0 0 0 .72-1.209c-.434-1.667-1.485-2.937-3.15-3.81C10.782.472 9.208.102 7.444.102c-1.999 0-3.714.654-5.142 1.964C.86 3.374.095 4.974.006 6.864c-.068 1.534.446 2.941 1.541 4.105 1.363 1.455 3.384 2.041 6.064 2.292h.017c.014 0 .027-.063.042-.063s.027-.026.041-.026c2.122.034 3.669.555 4.641 1.595.715.749 1.05 1.604 1.006 2.577-.04.792-.252 1.45-.628 2.1.761-.148 1.534-.152 2.316-.404h0zM4.311 21.433c-1.263-.616-2.043-1.505-2.345-2.669-.068-.258-.219-.459-.454-.605-.246-.133-.496-.167-.752-.1-.267.068-.474.218-.621.453a1 1 0 0 0-.1.755c.436 1.67 1.485 2.944 3.149 3.828l.247.12 2.254-1.289a7.37 7.37 0 0 1-1.379-.492zM22.787 4.596l9.006 14.886.025.016v.017c0 .023.011.051.035.084.021.022.027.044.05.068l.06.066a.53.53 0 0 1 .079.068c.019.011.029-.001.038.004.019-.009.031-.009.043-.009.034 0 .067.058.1.069.023.012.049.033.084.044s.067.02.101.02a.17.17 0 0 0 .083.02.32.32 0 0 0 .102.018.31.31 0 0 0 .099-.016c.034 0 .061-.005.084-.017.034 0 .068-.004.101-.015s.06-.022.083-.034a.4.4 0 0 0 .102-.05c.044-.021.06-.027.05-.016-.034.021-.023.016.032-.016a.52.52 0 0 1 .084-.068l.068-.066c.01-.011-.021-.035.013-.068.021-.033.014-.061.014-.084V19.5l.027-.016 9.005-14.886V23.01c0 .278.138.519.328.72.203.191.458.286.726.286a.9.9 0 0 0 .678-.286c.2-.202.275-.443.275-.72V1.003c0-.503-.209-.823-.7-.956-.48-.134-.836.017-1.104.453l-9.974 16.53L22.602.501C22.334.064 21.98-.087 21.5.047c-.493.133-.72.453-.72.956v18.155l2.007.287V4.596zM67.438 17.17v-.016L60.682.756c-.022-.056-.036-.118-.07-.184 0 .011-.015-.012-.059-.066L60.49.42c-.011 0-.037-.021-.084-.066l-.065-.03c-.112-.079-.233-.131-.367-.131h-.083c-.056 0-.09-.017-.1-.017s-.051.017-.118.017h-.084c-.123 0-.239.052-.351.131.011-.009-.011-.005-.067.04l-.085.061a.97.97 0 0 0-.067.083l-.067.065c-.034.066-.036.128-.059.183l-6.758 16.398v.016l-2.355 5.622c-.111.257-.124.514-.013.772.1.258.272.379.53.479.123.056.178.025.178.025h.2c.447 0 .756-.16.922-.574l2.078-4.955h12.227l2.078 5.013a.92.92 0 0 0 .921.627.92.92 0 0 0 .385-.08c.258-.1.436-.277.538-.535.111-.258.082-.515-.028-.771l-2.359-5.621zm-12.941-.641l5.294-12.79 5.292 12.79H54.497zm23.477 6.739V13.262h5.499l5.178 10.567c.178.371.474.576.887.576.155 0 .3-.023.435-.09a.96.96 0 0 0 .502-.565.94.94 0 0 0-.05-.752l-4.775-9.75c1.665-.258 3.044-.982 4.139-2.181 1.117-1.208 1.675-2.606 1.675-4.196 0-1.79-.682-3.293-2.044-4.555C88.047 1.052 86.395.445 84.463.445h-7.588c-.269 0-.463.069-.663.259-.19.19-.244.401-.244.681v21.884c0 .269.054.504.244.705.2.19.414.286.683.286.279 0 .551-.097.741-.286.2-.201.338-.436.338-.706zm0-20.813h6.488c1.385 0 2.568.402 3.552 1.286.981.873 1.473 1.91 1.473 3.151 0 1.22-.481 2.205-1.441 3.077-.948.873-2.105 1.282-3.468 1.282h-6.605V2.455zm25.838 20.965c0 .279.072.519.261.72a.96.96 0 0 0 .692.287c.281 0 .545-.095.746-.287a1.04 1.04 0 0 0 .308-.72V2.455h6.557c.279 0 .514-.144.704-.333.202-.192.301-.45.301-.73s-.099-.485-.301-.676c-.19-.201-.425-.271-.704-.271H97.15c-.279 0-.52.058-.722.259-.19.191-.284.405-.284.685s.095.553.284.744c.202.189.443.323.722.323h6.662V23.42zm49.168 8.941V46.04l-10.939-13.678h-5.116v24.629h6.021V43.228l11.14 13.763H159v-24.63h-6.02zm-76.009 24.63h18.814v-6.283H83.493v-3.016h10.034v-5.78H83.493v-3.518h12.292v-6.032H76.971v24.629zm36.266-24.63l-9.144 22.571-.811 1.993c.072.006 6.823-.008 6.823-.008l1.274-3.415c.057-.159.125-.233.313-.232h9.162c.168 0 .243.057.299.209l1.275 3.433 6.793.03c-.04-.254-9.875-24.581-9.875-24.581h-6.109zm.362 15.079c.891-2.262 1.774-4.732 2.686-7.166l2.655 7.166h-5.341zm-61.541 2.283c-2.99-2.539-3.187-7.084-.417-9.815 1.319-1.301 2.921-1.961 4.77-1.916 2.549.063 4.46 1.252 5.766 3.461l5.676-2.561c-.752-1.41-1.689-2.631-2.867-3.653-3.091-2.676-6.674-3.751-10.706-3.13-3.355.516-6.134 2.141-8.207 4.834-.8 1.039-1.422 2.112-1.874 3.215-1.142 2.784-1.167 5.759.003 8.864a12.84 12.84 0 0 0 .355.843c2.325 5.037 7.716 8.025 13.288 7.352 3.642-.44 6.596-2.132 8.845-5.034.45-.581.817-1.225 1.239-1.867l-5.751-2.518c-2.039 3.813-7.059 4.524-10.119 1.927zm-16.287-5.259c0-9.896-8.007-17.919-17.885-17.919S0 34.567 0 44.464c0 .259.009.516.02.772 2.078.826 4.156 1.398 6.234 1.825a63.82 63.82 0 0 0 4.637.755 7.73 7.73 0 0 1-.759-3.352c0-4.284 3.478-7.769 7.755-7.769s7.754 3.485 7.754 7.769a7.74 7.74 0 0 1-1.922 5.112c1.587.346 3.173.783 4.76 1.358a31.04 31.04 0 0 1 4.992 2.32 17.86 17.86 0 0 0 2.3-8.789z"/></svg>