<svg xmlns="http://www.w3.org/2000/svg" width="73" height="140" fill="#666" xmlns:v="https://vecta.io/nano"><path d="M2.823 81.752h1.052c.082 0 .543-.066.792.248.211.263.163.61.163.937v1.185c0 .231 0 .611-.146.807-.132.181-.381.233-.824.233H2.823v-3.41zm0 5.069h1.811c1.053 0 1.547-.145 1.891-.575.361-.444.411-.973.411-2.058v-1.531c0-.509 0-1.25-.246-1.744-.114-.231-.445-.674-1.135-.823-.231-.05-.511-.05-.576-.05H.665v11.624h2.158v-4.843h.001zm9.185 3.211a1.25 1.25 0 0 1-.676.197c-.101 0-.623 0-.871-.345-.213-.297-.195-.721-.195-1.07v-5.878c0-.476-.067-.986.407-1.315a1.2 1.2 0 0 1 .694-.215c.543 0 .792.294.891.509.178.346.131.874.131.941v6.009c0 .428.016.887-.38 1.166zm-.641-10.239c-1.299 0-2.106.379-2.534.757-.775.692-.724 1.861-.724 2.108v6.521c0 .427.049.921.244 1.333.068.164.233.445.578.723.692.559 1.566.675 2.42.675.888 0 1.829-.13 2.519-.772.56-.545.676-1.221.676-1.959v-6.472c0-.807-.083-1.166-.265-1.547-.344-.676-1.234-1.366-2.913-1.366zm4.723.247v11.624h5.284v-1.762h-3.142V80.04H16.09zm6.174 0v11.624h2.123V80.04h-2.123zm2.977 1.681h2.142v9.943h2.157v-9.943h2.157V80.04h-6.455v1.681zm7.309 9.943h5.796V89.87H34.69v-3.576h3.294v-1.76H34.69v-2.732h3.491V80.04H32.55v11.624zm2.637-14.769l-1.053 2.207h1.512l2.093-2.207h-2.552zm9.563 3.425c-.64-.428-1.433-.527-2.173-.527-1.284 0-1.923.297-2.401.674-.597.478-.791 1.054-.826 1.797l-.035.608v6.322c0 .429 0 .793.166 1.218.345.84 1.102 1.22 1.958 1.382a5.6 5.6 0 0 0 1.102.116c.246 0 2.404.035 2.964-1.58.149-.426.167-.922.167-1.383V87.3h-2.11v1.514c0 .89-.081 1.433-1.035 1.433-.89 0-1.051-.56-1.051-1.319v-6.221c0-.761.161-1.27.983-1.27.957 0 1.103.478 1.103 1.367v1.468h2.11v-1.779c0-.709-.018-.939-.199-1.316-.147-.346-.41-.643-.724-.857zm2.204-.28v11.624h2.01l-.183-8.71 2.057 8.71h2.701V80.04h-1.961l.217 8.527-2.094-8.527h-2.747zm10.355 0h-2.125v11.624h2.125V80.04zm6.98.28c-.643-.428-1.432-.527-2.175-.527-1.283 0-1.926.297-2.402.676-.591.477-.79 1.052-.825 1.795l-.03.608v6.322c0 .429 0 .793.164 1.218.347.84 1.103 1.22 1.957 1.382a5.62 5.62 0 0 0 1.105.116c.245 0 2.404.035 2.961-1.58.148-.426.166-.922.166-1.383V87.3h-2.108v1.514c0 .89-.082 1.433-1.036 1.433-.888 0-1.053-.56-1.053-1.319v-6.221c0-.761.165-1.27.987-1.27.953 0 1.102.478 1.102 1.367v1.468h2.109v-1.779c0-.709-.018-.939-.195-1.316a2.06 2.06 0 0 0-.726-.857zm6.009 9.712c-.264.181-.58.197-.676.197s-.627 0-.873-.345c-.214-.297-.197-.721-.197-1.07v-5.878c0-.476-.067-.986.409-1.315.262-.198.577-.215.693-.215.544 0 .79.294.888.509.181.348.13.874.13.941v6.009c0 .428.019.887-.374 1.166zm-.644-10.239c-1.3 0-2.107.379-2.538.757-.773.692-.722 1.861-.722 2.108v6.521c0 .427.051.921.248 1.333.065.164.23.445.573.723.695.559 1.569.675 2.423.675.888 0 1.828-.13 2.519-.772.556-.545.672-1.221.672-1.959v-6.472c0-.807-.079-1.166-.258-1.547-.349-.675-1.239-1.366-2.917-1.366zM2.025 104.446V99.14h.542c.211 0 .445-.019.624.126.202.173.19.406.19.637v3.737c0 .371-.03.701-.478.785-.125.022-.262.022-.389.022h-.488zm2.026.858c.296-.169.655-.572.702-1.367l.009-.416v-3.501c0-.613-.043-1.165-.551-1.601-.404-.34-.83-.371-1.032-.371H.645v7.489h2.217c.414 0 .808-.009 1.189-.233zm1.677.233h3.731v-1.155H7.108v-2.302H9.23v-1.135H7.108v-1.761h2.249v-1.136H5.728v7.489zm8.486.001h5.283v-1.759h-3.142v-9.863h-2.14v11.622zm6.173 0h5.795v-1.793h-3.656v-3.571h3.294v-1.762h-3.294v-2.733h3.491v-1.763h-5.63v11.622zm8.986-11.622h-2.122v11.622h2.122V93.916zm3.788 1.663h1.12c.74 0 .988.229.988.954v1.036c0 .842-.248 1.102-.988 1.102h-1.12v-3.092zm-2.139 9.96h2.139v-5.153h.808l1.645 5.153h2.221l-1.809-5.449c1.02-.314 1.367-.841 1.367-1.996V95.99c0-1.416-.676-2.073-2.09-2.073h-4.281v11.621h0zm7.884-.001h2.123V93.916h-2.123v11.622zm5.826-3.689l.774-4.987.708 4.987h-1.483zm-.46-7.931l-2.257 11.62h2.141l.314-1.892h1.975l.282 1.892h2.171l-2.171-11.62h-2.455zM27.28 40.345a4.18 4.18 0 0 1-4.178-4.177c0-2.319 1.871-4.191 4.178-4.191s4.18 1.872 4.18 4.191a4.18 4.18 0 0 1-4.18 4.177zm9.544-20.618c-9.057 0-16.392 7.353-16.392 16.441 0 9.07 7.335 16.427 16.392 16.427s16.404-7.358 16.404-16.427c0-9.088-7.343-16.441-16.403-16.441zm.001 40.257c-13.128 0-23.769-10.663-23.769-23.817 0-13.166 10.641-23.827 23.769-23.827S60.6 23.001 60.6 36.167c0 13.153-10.643 23.817-23.775 23.817zM.666 0v72.324h72.326V0H.666zM.399 119.92v-7.052h3.107v.79H1.278v2.096h1.947v.799H1.278v2.577h2.297v.79H.399zm6.773-.2c-.44.299-.929.299-1.099.299-.25 0-1.259-.02-1.588-.969-.09-.259-.11-.52-.11-.789v-.778h.828v.349c0 .479 0 .698.081.928.069.191.279.51.789.51.339 0 .67-.15.809-.459.08-.171.08-.351.08-.421 0-.598-.27-.848-.659-1.247l-.949-.979c-.549-.571-.809-.95-.809-1.768 0-.1 0-.381.08-.67.14-.459.53-.969 1.558-.969.24 0 1.189.01 1.429.919.06.24.06.57.06.819v.45h-.779l-.01-.579c0-.32-.049-.63-.38-.79-.16-.07-.31-.07-.369-.07-.21 0-.39.05-.53.19-.08.07-.12.16-.139.19-.04.09-.071.24-.071.469a1.26 1.26 0 0 0 .06.41c.11.33.41.6.639.848l1.108 1.179.22.271c.17.219.39.589.39 1.258 0 .84-.339 1.199-.639 1.399zm4.926-1.528c0 .059 0 .369-.04.609-.13.749-.519.978-.829 1.099-.33.119-.679.119-.779.119-.4 0-.739-.059-1.069-.308-.07-.061-.21-.182-.33-.362-.27-.408-.299-.928-.299-1.907v-1.128l.01-1.188c.01-.54.01-1.31.369-1.789.31-.419.899-.579 1.389-.579.629 0 .989.259 1.178.449.27.279.37.639.37 1.419l-.01.459h-.809l-.011-.769c-.01-.29-.03-.5-.269-.678a.71.71 0 0 0-.449-.141c-.22 0-.67.05-.799.619-.09.4-.1 1.258-.1 2.318l.031 1.578c.01.279-.011.658.139.918.19.34.61.35.71.35.079 0 .279 0 .469-.15.329-.249.319-.809.319-1.168v-.52h.819l-.01.75zm3.655-3.367c0-.279.011-.718-.139-.979-.08-.14-.29-.349-.68-.349a.81.81 0 0 0-.519.169c-.34.27-.35.74-.35 1.559v.489l.01 2.037c0 .509 0 .809.07 1.029.069.21.24.52.758.52.29 0 .57-.13.69-.41.139-.299.149-.879.159-1.658l.011-.939-.01-1.468zm.87 2.717l-.021.629c-.039.509-.12 1.119-.529 1.478-.23.2-.579.37-1.218.37-.2 0-.949.03-1.368-.569-.061-.08-.15-.22-.21-.45-.109-.389-.109-1.208-.109-2.226l.02-1.909c.02-.808.13-1.208.38-1.528.22-.28.629-.579 1.428-.579.21 0 1.079.009 1.449.779.099.2.149.409.17.63.06.498.06 1.637.05 2.127l-.04 1.248zm1.219 2.378v-7.052h.899v6.262h2.068v.79h-2.967zm5.234-5.744l-.649 3.626h1.339l-.689-3.626zm1.089 5.744l-.25-1.359h-1.638l-.24 1.359h-.909l1.518-7.052h.879l1.558 7.052h-.919zm6.563-.2c-.44.299-.929.299-1.099.299-.249 0-1.258-.02-1.588-.969-.09-.259-.11-.52-.11-.789v-.778h.829v.349c0 .479 0 .698.079.928.07.191.28.51.789.51.34 0 .67-.15.809-.459.08-.171.08-.351.08-.421 0-.598-.27-.848-.66-1.247l-.949-.979c-.549-.571-.809-.95-.809-1.768 0-.1 0-.381.079-.67.14-.459.53-.969 1.559-.969.24 0 1.189.01 1.428.919.06.24.06.57.06.819v.45h-.779l-.01-.579c0-.32-.05-.63-.38-.79-.16-.07-.309-.07-.369-.07-.21 0-.39.05-.529.19-.08.07-.12.16-.14.19-.04.09-.07.24-.07.469a1.26 1.26 0 0 0 .06.41c.11.33.409.6.639.848l1.108 1.179.22.271c.17.219.39.589.39 1.258 0 .84-.34 1.199-.64 1.399zm4.326.08c-.419.23-.869.219-1.019.219-.429 0-.959-.09-1.288-.409a1.33 1.33 0 0 1-.29-.48c-.13-.379-.12-.878-.12-.968v-5.294h.889v4.675c0 .599-.021 1.028.08 1.278.1.259.33.36.419.39a.98.98 0 0 0 .35.05c.269 0 .47-.039.639-.26.029-.04.089-.119.119-.25.03-.139.04-.479.04-.869v-5.014h.889v5.264c0 .66-.05 1.309-.709 1.668zm4.436-5.424c-.08-.699-.599-.709-1.169-.709h-.459v2.587h.589c.39 0 .789.02.978-.41.08-.169.08-.389.08-.788l-.02-.68zm.509 2.208c-.329.399-.929.439-1.398.439h-.739v2.897h-.879v-7.052h1.827c.689 0 .969.2 1.188.469.41.499.371 1.089.371 1.668 0 .06.059 1.059-.371 1.579zm1.399 3.336v-7.052h3.106v.79h-2.227v2.096h1.947v.799h-1.947v2.577h2.297v.79h-3.176zm6.653-5.784c-.18-.509-.719-.469-1.148-.469h-.43v2.467h.46c.389 0 .579-.011.769-.08.44-.179.429-.799.429-1.169 0-.239 0-.519-.08-.749zm.35 5.784l-1.199-3.097h-.729v3.097h-.869v-7.052h1.538c.449 0 .939.02 1.318.329.59.48.55 1.409.55 1.549a5.22 5.22 0 0 1-.07.878c-.07.4-.18.6-.29.74-.22.27-.48.329-.59.36l1.258 3.196H48.4zm1.818 0v-7.052h.87v7.052h-.87zm4.646-5.095c0-.279.009-.718-.14-.979-.079-.14-.29-.349-.679-.349a.81.81 0 0 0-.519.169c-.34.27-.35.74-.35 1.559v.489l.011 2.037c0 .509 0 .809.07 1.029.069.21.239.52.759.52.289 0 .569-.13.688-.41.14-.299.15-.879.161-1.658l.009-.939-.009-1.468zm.869 2.717l-.021.629c-.04.509-.12 1.119-.529 1.478-.229.2-.579.37-1.218.37-.2 0-.948.03-1.369-.569a1.24 1.24 0 0 1-.209-.45c-.11-.389-.11-1.208-.11-2.226l.021-1.909c.02-.808.13-1.208.379-1.528.22-.28.63-.579 1.429-.579.209 0 1.078.009 1.448.779a1.72 1.72 0 0 1 .17.63c.06.498.06 1.637.05 2.127l-.04 1.248zm3.666-3.406c-.18-.509-.72-.469-1.149-.469h-.429v2.467h.459c.389 0 .579-.011.769-.08.44-.179.429-.799.429-1.169 0-.239 0-.519-.079-.749zm.349 5.784l-1.199-3.097h-.728v3.097h-.87v-7.052h1.539c.449 0 .938.02 1.319.329.588.48.549 1.409.549 1.549 0 .299-.02.589-.07.878-.07.4-.18.6-.29.74-.22.27-.48.329-.589.36l1.258 3.196h-.919zm-57.59 6.313c-.008-.414-.029-.628-.185-.783-.184-.17-.502-.155-.723-.155H.919v4.039h.428c.162 0 .354 0 .517-.082.11-.058.206-.14.258-.392.037-.198.044-.744.044-1.342l-.008-1.285zm.635 1.963l-.022.576c-.037.414-.162.791-.547.997-.309.163-.657.141-.981.141H.269v-5.214h.982c.317 0 .635-.014.938.119.487.215.56.679.583.842.03.222.037.769.037 1.381l-.015 1.158zm.886 1.713v-5.213h2.297v.584H4.33v1.551h1.44v.59H4.33v1.905h1.698v.583H3.68zm6.774-6.262v6.262h-.869v-6.262H8.247v-.79h3.546v.79h-1.338zm4.873 6.142c-.419.23-.868.221-1.019.221-.429 0-.958-.09-1.289-.41a1.34 1.34 0 0 1-.289-.479c-.13-.38-.12-.88-.12-.97v-5.294h.889v4.675c0 .6-.02 1.029.08 1.28.099.259.329.358.419.388a.95.95 0 0 0 .349.051c.27 0 .47-.04.64-.26.03-.041.09-.12.12-.25.03-.14.04-.48.04-.869v-5.014h.889v5.263c0 .66-.05 1.309-.71 1.668zm4.377-5.664c-.18-.509-.72-.468-1.149-.468h-.429v2.467h.459c.39 0 .579-.01.769-.08.439-.18.429-.799.429-1.168 0-.241 0-.52-.08-.751zm.349 5.784l-1.198-3.097h-.729v3.097h-.869v-7.052h1.538c.449 0 .939.02 1.319.331.588.478.549 1.407.549 1.547 0 .299-.02.589-.07.878-.07.4-.18.601-.29.74-.22.27-.48.329-.589.36l1.258 3.196h-.919 0zm1.82 0v-7.052h.869v7.052h-.869zm4.684-.199c-.439.3-.929.3-1.098.3-.25 0-1.258-.021-1.588-.97-.09-.259-.109-.52-.109-.788v-.779h.829v.349c0 .479 0 .698.079.928.07.191.28.51.789.51.34 0 .669-.15.809-.459.08-.17.08-.35.08-.42 0-.599-.27-.849-.659-1.248l-.949-.979c-.549-.569-.809-.949-.809-1.768 0-.1 0-.379.079-.669.14-.459.53-.969 1.559-.969.239 0 1.188.01 1.428.919.061.239.061.569.061.819v.45h-.779l-.01-.58c0-.32-.05-.63-.38-.789-.16-.07-.309-.07-.369-.07-.21 0-.39.051-.529.19-.08.07-.12.16-.14.19-.04.09-.07.24-.07.468 0 .061 0 .241.059.411.111.329.41.599.64.849l1.108 1.178.22.27c.17.22.39.589.39 1.258 0 .839-.34 1.199-.64 1.399zm5.445.199l.12-6.382-1.049 6.382h-1.109l-1.048-6.382.14 6.382h-.859v-7.052h1.318l.989 6.293.969-6.293h1.338v7.052h-.809zm4.585-5.094c0-.279.011-.718-.14-.978-.08-.14-.289-.35-.678-.35-.1 0-.32.01-.52.171-.34.268-.349.738-.349 1.557v.49l.009 2.036c0 .511 0 .81.07 1.029.07.21.24.52.759.52.29 0 .57-.13.69-.409.14-.3.149-.88.159-1.659l.011-.939-.011-1.468zm.869 2.717l-.02.63c-.04.509-.12 1.119-.529 1.477-.23.2-.58.371-1.219.371-.2 0-.949.029-1.368-.571a1.24 1.24 0 0 1-.21-.448c-.109-.39-.109-1.209-.109-2.227l.02-1.908c.02-.809.13-1.209.38-1.529.22-.279.629-.579 1.428-.579.21 0 1.079.01 1.449.779.1.2.15.41.17.629.06.499.059 1.639.05 2.127l-.041 1.249zm3.416 2.377v-5.213h2.297v.584h-1.647v1.551h1.44v.59h-1.44v1.905h1.698v.583h-2.349zm-38.665 3.728v6.264h-.869v-6.264H0v-.788h3.545v.788H2.207zm2.189 6.264v-7.052h3.106v.788H5.275v2.098h1.948v.799H5.275v2.577h2.297v.79H4.396zm7.492-1.729c0 .059 0 .37-.04.61-.13.748-.519.977-.829 1.097-.329.121-.679.121-.779.121-.399 0-.739-.061-1.068-.31-.07-.059-.21-.179-.33-.359-.27-.411-.299-.929-.299-1.908v-1.128l.01-1.189c.01-.539.01-1.309.37-1.787.309-.421.899-.58 1.389-.58.629 0 .988.259 1.178.449.27.28.37.64.37 1.418l-.01.46h-.809l-.01-.768c-.01-.291-.03-.501-.27-.68-.08-.06-.22-.141-.449-.141-.22 0-.67.05-.799.619-.09.401-.1 1.26-.1 2.318l.03 1.578c.01.28-.01.66.139.919.19.339.61.35.709.35.079 0 .28 0 .469-.15.33-.25.32-.81.32-1.168v-.52h.819l-.01.749zm3.256 1.729l-1.378-6.114.12 6.114h-.869v-7.052h1.208l1.428 6.172-.12-6.172h.849v7.052h-1.239zm5.015-5.095c0-.28.01-.72-.139-.979-.08-.14-.29-.351-.68-.351-.1 0-.319.011-.519.171-.34.268-.35.738-.35 1.557v.491l.01 2.037c0 .509 0 .809.07 1.029.07.209.24.518.759.518.289 0 .569-.13.689-.409.14-.3.15-.879.16-1.659l.009-.939-.009-1.466zm.869 2.717l-.021.628c-.04.509-.12 1.119-.529 1.479-.23.198-.579.369-1.218.369-.2 0-.949.031-1.369-.57-.06-.079-.15-.22-.209-.449-.111-.39-.111-1.209-.111-2.227l.021-1.907c.02-.81.13-1.21.379-1.528.22-.281.629-.58 1.428-.58.21 0 1.079.01 1.448.779.1.199.149.409.17.629.06.5.06 1.638.05 2.127l-.04 1.25zm1.22 2.378v-7.052h.899v6.262h2.067v.79h-2.966zm6.312-5.095c0-.28.01-.72-.14-.979-.08-.14-.29-.351-.679-.351a.82.82 0 0 0-.52.171c-.339.268-.35.738-.35 1.557v.491l.011 2.037c0 .509 0 .809.07 1.029.071.209.24.518.759.518.29 0 .569-.13.689-.409.14-.3.15-.879.16-1.659l.01-.939-.01-1.466zm.869 2.717l-.02.628c-.04.509-.12 1.119-.529 1.479-.229.198-.579.369-1.219.369-.199 0-.948.031-1.368-.57-.06-.079-.15-.22-.21-.449-.11-.39-.11-1.209-.11-2.227l.02-1.907c.021-.81.129-1.21.38-1.528.22-.281.629-.58 1.428-.58.209 0 1.078.01 1.448.779.1.199.15.409.17.629.06.5.06 1.638.05 2.127l-.04 1.25zm3.927 2.377v-.491l-.28.259c-.149.111-.509.34-1.009.331-.309 0-1.068-.099-1.338-.97-.12-.389-.12-.728-.13-1.517l-.01-1.119.03-1.497c0-.041 0-.72.11-1.1.319-1.068 1.338-1.058 1.658-1.058.569 0 .909.13 1.119.27a.97.97 0 0 1 .23.209 1.18 1.18 0 0 1 .239.439c.061.211.061.41.061.849v.5h-.829v-.35l-.01-.359c-.01-.291-.05-.82-.79-.82-.089 0-.329 0-.549.151a.76.76 0 0 0-.18.159.82.82 0 0 0-.109.28c-.07.33-.1 1.089-.1 1.997v.85l.03 1.189c.02.398.02.578.099.758.14.289.4.419.709.419.11 0 .389-.009.639-.229a.88.88 0 0 0 .23-.309c.07-.182.1-.529.1-1.009v-.72h-1.038v-.759h1.857v3.647h-.739 0zm1.908.001v-7.052h.869v7.052h-.869zm3.567-5.743l-.65 3.626h1.338l-.689-3.626zm1.088 5.743l-.249-1.358h-1.638l-.24 1.358h-.909l1.518-7.052h.88l1.557 7.052h-.919zm5.757-3.678c-.008-.414-.03-.629-.186-.783-.184-.17-.502-.155-.723-.155h-.332v4.038h.428c.163 0 .355 0 .517-.082.11-.058.207-.14.258-.39.038-.199.044-.746.044-1.344l-.007-1.284zm.634 1.964l-.022.576c-.037.413-.163.789-.547.996-.31.162-.657.141-.981.141h-.974v-5.213h.981c.318 0 .635-.016.938.118.487.214.561.68.583.843.029.221.037.767.037 1.379l-.015 1.16zm2.755-2.053c0-.207.007-.531-.103-.723-.059-.103-.214-.259-.502-.259-.074 0-.236.007-.384.125-.251.2-.258.547-.258 1.152v.363l.007 1.505c0 .377 0 .598.052.761.051.154.177.383.561.383.214 0 .421-.095.509-.303.104-.221.111-.649.119-1.225l.007-.693-.007-1.086zm.642 2.008l-.016.466c-.029.376-.088.827-.391 1.093-.169.147-.428.272-.9.272-.148 0-.702.023-1.011-.421a.9.9 0 0 1-.156-.331c-.081-.289-.081-.895-.081-1.647l.015-1.41c.014-.598.096-.893.28-1.13.162-.206.466-.429 1.056-.429.155 0 .797.008 1.071.577a1.29 1.29 0 0 1 .125.466c.044.368.044 1.21.037 1.573l-.029.921zm7.192 1.759l.12-6.383-1.049 6.383h-1.108l-1.049-6.383.14 6.383h-.859v-7.052h1.319l.988 6.291.969-6.291h1.338v7.052h-.809zm3.507-5.743l-.649 3.626h1.338l-.689-3.626zm1.088 5.743l-.249-1.358h-1.638l-.239 1.358h-.909l1.518-7.052h.879l1.558 7.052h-.92zm4.116-5.784c-.18-.51-.719-.469-1.149-.469h-.43v2.467h.46c.389 0 .58-.01.769-.08.44-.179.43-.799.43-1.168 0-.24 0-.52-.08-.75zm.349 5.784l-1.198-3.098h-.73v3.098h-.868v-7.052h1.538c.45 0 .939.02 1.318.33.59.478.55 1.407.55 1.547a5.11 5.11 0 0 1-.07.88c-.069.4-.18.599-.289.738-.22.27-.48.331-.59.36l1.259 3.197h-.92 0z"/></svg>