<svg xmlns="http://www.w3.org/2000/svg" width="155" height="40" fill="#666" xmlns:v="https://vecta.io/nano"><path d="M43.521 26.334v6.603c-.048 2.105.239 4.259-.239 6.651l-4.256.096h-4.4l-2.152-3.78c-.956.813-1.722 1.675-2.63 2.297-1.483 1.005-3.252 1.34-4.974 1.435-4.209.239-8.369 0-12.434-1.292-4.161-1.34-7.508-3.684-9.9-7.369-1.627-2.44-2.153-5.263-2.44-8.086-.287-3.015.239-6.029 1.148-8.9C2.918 8.294 6.983 4.992 12.53 3.413c3.539-1.005 7.174-1.34 10.856-.957 3.3.335 6.695.622 9.374 3.493l1.052-3.445h8.991c.43 1.818.526 9.762.191 13.494-1.578.431-3.252.144-4.926.191-1.578.048-3.157 0-4.639 0-.861-1.005-1.53-2.057-2.439-2.727-3.348-2.44-8.991-3.062-12.339.766-2.296 2.632-3.156 5.79-2.535 9.283.143.766.239 1.579.478 2.297 1.1 3.206 3.73 4.354 6.791 4.785 1.004.144 2.057 0 2.917 0 1.722-.909 2.152-2.393 2.487-4.067-2.152-.861-4.591.431-6.696-1.053v-3.015c0-1.005.096-2.01.144-2.919 2.104-.526 20.182-.67 28.073-.287.191.479-.096 1.053-.096 1.627 0 1.579-.096 3.254-.287 4.689-2.104.766-4.256-.287-6.409.766zm92.062 13.254h-16.404c-.622-1.627-.765-4.546-.287-7.991h4.113c.909-3.206.526-8.374-.765-10.814-1.674-1.196-3.443-1.436-5.404-.813-1.005.335-1.77.813-2.105 1.77-.478 1.34-1.099 2.68-1.243 4.067-.191 1.77-.048 3.637-.048 5.599l4.065.239c.096.335.192.574.192.813v7.034c-1.818.574-3.635.191-5.452.287-1.913.048-3.826 0-5.739 0h-5.5c-1.818 0-3.635-.048-5.596-.048-.383-2.728-.144-5.264-.191-7.848 1.77-.718 3.587.048 5.213-.479.574-1.627.669-6.268.335-11.628l-5.5-.287c-.048-2.823-.096-5.407.048-7.895 1.817-.622 13.151-.766 18.03-.335v4.833c.095 0 .239 0 .334.048.192-.335.431-.67.622-1.005 1.53-2.632 3.874-3.924 6.839-3.972 1.77-.048 3.491 0 5.309 0v8.422c1.53 1.723 3.539.718 5.404 1.244.048.479.191 1.005.191 1.531 0 2.967.096 5.886 0 8.852-.191 3.062.574 5.934 3.539 8.374zM138.07.064h6.792c.239 3.78-.048 7.513.191 11.388h5.643c1.052 1.866 1.196 5.981.239 8.135h-5.93c.048 3.206-.383 6.221.335 9.187.287 1.196.717 2.249 2.104 2.775 3.252-1.196 2.535-4.546 3.587-7.034h3.778c.048.622.144 1.34.096 2.01-.287 3.685-1.1 7.178-3.3 10.288-1.387 1.962-3.204 3.015-5.644 2.919-2.152-.048-4.304 0-6.456 0-3.491 0-6.504-2.823-6.6-6.412-.095-3.493-.047-6.986-.047-10.527v-2.919c-1.77-.67-3.54.048-5.166-.431-.621-1.531-.717-4.929-.191-7.752.861-.048 1.77-.191 2.678-.191 2.774.048 4.687-1.148 5.835-3.685.861-1.914 1.387-3.876 1.722-5.886l.334-1.866zM44.62 38.392V27.434c1.387-.479 2.87-.239 4.4-.144.43 1.723 1.339 3.063 2.869 4.067l2.104.526c2.104-.287 3.826-1.34 4.543-3.541.717-2.44.67-4.833-.765-7.082-1.052-1.627-4.065-3.062-6.361-1.292l-1.339-1.77H47.49h-2.726l-.239-5.455c1.865-1.388 4.113-1.435 6.169-1.627 3.969-.335 7.891-.239 11.717 1.244 4.591 1.818 8.369 4.498 9.517 9.522 1.626 7.13-.574 13.733-8.322 16.461-2.582.909-5.165 1.435-7.891 1.34-1.77-.048-3.491 0-5.261 0-2.056 0-3.922-.67-5.835-1.292zM63.655 11.5h13.63c.287 2.488.096 4.929.143 7.465l-2.965.287c.813 2.536 2.2 4.546 3.252 6.938 1.1-.909 1.339-2.153 1.961-3.206.622-1.101 1.148-2.249 1.817-3.684l-2.726-.335c-.478-1.148-.191-2.44-.239-3.684v-3.493c1.913-.431 13.008-.526 15.639-.096v7.178c-1.387.574-2.917 0-4.591.383-.287.335-.717.814-1.004 1.34l-3.922 7.369-5.165 9.666c-.383.67-.861 1.34-1.291 2.01h-8.226c-.478-.67-1.052-1.483-1.578-2.297 8.369-8.039 6.361-20.959-4.735-25.839zm42.516-1.579H95.793c-.669-1.579-.765-5.264-.335-8.948l5.118-.048h5.308c.574 1.531.239 3.015.287 4.498v4.498z"/></svg>