<svg xmlns="http://www.w3.org/2000/svg" width="80" height="141" fill="#666" xmlns:v="https://vecta.io/nano"><path d="M7.557 93.45c-.371.463-.904.62-2.04.62H3.564v5.223H1.236V86.756h4.655c.07 0 .371 0 .621.054.744.161 1.101.639 1.224.888.265.532.265 1.332.265 1.881v1.652c0 1.17-.054 1.741-.444 2.22zm-1.829-3.569c0-.353.052-.726-.176-1.01-.268-.34-.765-.268-.854-.268H3.564v3.677h1.118c.478 0 .746-.056.889-.251.158-.212.158-.621.158-.871v-1.277h0zm9.749 8.844c-.745.692-1.759.832-2.717.832-.921 0-1.863-.125-2.61-.727-.372-.3-.551-.603-.624-.78-.21-.444-.262-.976-.262-1.438v-7.033c0-.266-.054-1.527.781-2.273.462-.407 1.332-.816 2.733-.816 1.812 0 2.772.744 3.142 1.473.197.411.286.799.286 1.669v6.981c0 .796-.125 1.525-.729 2.113zm-1.597-8.931c0-.072.05-.641-.141-1.015-.107-.232-.375-.549-.961-.549a1.3 1.3 0 0 0-.749.231c-.511.355-.439.906-.439 1.419v6.339c0 .376-.019.834.21 1.154.269.372.834.372.94.372a1.35 1.35 0 0 0 .729-.213c.428-.301.411-.796.411-1.259v-6.48zm3.993 9.499V86.756h2.31v10.637h3.389v1.9h-5.7zm8.949-12.537h-2.29v12.537h2.29V86.756zm5.557 1.813v10.725h-2.326V88.569h-2.31v-1.813h6.963v1.813h-2.327zm3.247 10.724V86.756H41.7v1.9h-3.765v2.947h3.552v1.898h-3.552v3.857h3.943v1.935h-6.252 0zm3.339-13.549h-1.631l1.136-2.38h2.753l-2.258 2.38zm10.634 12.109c-.603 1.742-2.93 1.704-3.197 1.704a6.02 6.02 0 0 1-1.189-.125c-.924-.175-1.739-.584-2.111-1.491-.18-.458-.18-.85-.18-1.313V89.81c0-.213.022-.443.038-.656.036-.802.245-1.422.89-1.938.516-.407 1.205-.727 2.59-.727.799 0 1.653.106 2.344.568.339.231.622.551.781.924.195.407.215.655.215 1.42v1.919h-2.276v-1.583c0-.959-.158-1.474-1.19-1.474-.886 0-1.06.549-1.06 1.369v6.71c0 .818.175 1.422 1.134 1.422 1.029 0 1.117-.586 1.117-1.546v-1.633h2.276v1.775c0 .497-.02 1.031-.18 1.492zm5.752 1.44l-2.218-9.395.196 9.395h-2.167V86.756h2.962l2.259 9.197-.234-9.197h2.115v12.537h-2.913zm6.98-12.537h-2.293v12.537h2.293V86.756zm8.342 11.097c-.601 1.742-2.93 1.704-3.194 1.704a6.08 6.08 0 0 1-1.193-.125c-.92-.175-1.735-.584-2.11-1.491-.177-.458-.177-.85-.177-1.313V89.81l.032-.656c.038-.802.252-1.422.89-1.936.513-.409 1.207-.729 2.591-.729.801 0 1.651.106 2.345.568a2.22 2.22 0 0 1 .783.924c.191.407.21.655.21 1.42v1.919h-2.274v-1.583c0-.959-.161-1.474-1.189-1.474-.887 0-1.065.549-1.065 1.369v6.71c0 .818.178 1.422 1.136 1.422 1.029 0 1.117-.586 1.117-1.546v-1.633h2.274v1.775c0 .497-.019 1.031-.179 1.492zm7.673.872c-.746.692-1.759.832-2.717.832-.921 0-1.863-.125-2.613-.727-.37-.3-.548-.603-.618-.78-.212-.444-.268-.976-.268-1.438v-7.033c0-.266-.054-1.527.779-2.273.464-.407 1.334-.816 2.736-.816 1.81 0 2.77.746 3.147 1.473.194.411.278.799.278 1.669v6.981c0 .796-.125 1.525-.725 2.113zm-1.602-8.931c0-.072.055-.64-.14-1.015-.107-.232-.371-.549-.958-.549-.125 0-.465.019-.748.231-.513.355-.441.906-.441 1.419v6.339c0 .376-.018.834.212 1.154.266.372.834.372.942.372a1.36 1.36 0 0 0 .728-.213c.424-.301.404-.796.404-1.259v-6.48zm-71.1 22.738c-.049.857-.438 1.291-.757 1.474-.411.242-.836.251-1.282.251H1.214v-8.077h2.732a1.69 1.69 0 0 1 1.113.4c.547.47.594 1.065.594 1.727v3.776l-.009.449zm-1.479-4.353c0-.248.013-.5-.205-.686-.193-.157-.446-.136-.673-.136h-.584v5.724h.527c.136 0 .285 0 .42-.024.483-.09.516-.447.516-.848v-4.03h0zm2.532 6.078v-8.077h3.914v1.225H8.185v1.9h2.288v1.224H8.185v2.482h2.536v1.246H6.697zm9.152.001v-12.536h2.308v10.638h3.389v1.898h-5.698zm6.659 0v-12.536h6.072v1.902h-3.765v2.948h3.553v1.9h-3.553v3.851h3.944v1.935h-6.251zm9.692-12.536h-2.289v12.536H32.2v-12.536zm6.731 12.537l-1.774-5.558h-.872v5.558h-2.307v-12.535h4.617c1.525 0 2.254.708 2.254 2.235v2.27c0 1.246-.373 1.814-1.474 2.153l1.952 5.877h-2.396zm-.372-9.713c0-.783-.267-1.03-1.066-1.03h-1.208v3.336h1.208c.799 0 1.066-.282 1.066-1.189v-1.117zm6.213-2.824h-2.29v12.536h2.29v-12.536zm6.144 12.535l-.304-2.041h-2.131l-.339 2.041h-2.309l2.434-12.533h2.648l2.342 12.533h-2.342zm-1.316-9.358l-.835 5.381h1.6l-.764-5.381zm-9.363-83.197c-9.769 0-17.68 7.931-17.68 17.733 0 9.782 7.911 17.718 17.68 17.718S57.93 49.218 57.93 39.435c0-9.802-7.921-17.733-17.693-17.733zM29.943 43.941a4.51 4.51 0 0 1-4.506-4.506c0-2.501 2.019-4.52 4.506-4.52s4.509 2.019 4.509 4.52a4.51 4.51 0 0 1-4.509 4.506zM1.236 78.434h78.01V.426H1.236v78.008zm39.001-13.31c-14.16 0-25.637-11.501-25.637-25.689 0-14.201 11.477-25.7 25.637-25.7s25.643 11.498 25.643 25.7c0 14.187-11.479 25.689-25.643 25.689zm-39.21 64.427v-7.6h3.348v.85H1.974v2.26h2.099v.862H1.974v2.777H4.45v.851H1.027h0zm7.3-.216c-.474.323-1.001.323-1.185.323-.269 0-1.356-.021-1.711-1.044-.097-.28-.119-.56-.119-.85v-.84h.893v.377c0 .517 0 .753.086 1.001.075.205.301.549.85.549.366 0 .722-.161.872-.495.086-.183.086-.377.086-.453 0-.645-.291-.914-.71-1.345l-1.023-1.055c-.592-.613-.872-1.023-.872-1.905a2.74 2.74 0 0 1 .087-.722c.15-.494.571-1.044 1.679-1.044.259 0 1.281.011 1.54.99.064.259.064.614.064.884v.484h-.839l-.011-.624c0-.345-.054-.679-.409-.851-.172-.076-.334-.076-.399-.076-.226 0-.42.054-.57.205-.086.075-.129.172-.151.205-.043.097-.075.258-.075.505a1.36 1.36 0 0 0 .065.442c.118.355.441.646.689.915l1.195 1.27.237.291c.183.237.42.635.42 1.356 0 .905-.366 1.292-.688 1.507zm5.308-1.646c0 .065 0 .398-.043.656-.14.807-.56 1.055-.894 1.184-.355.129-.732.129-.84.129-.431 0-.796-.064-1.152-.333-.075-.065-.226-.194-.355-.388-.291-.441-.323-1.001-.323-2.056v-1.216l.011-1.281c.011-.581.011-1.411.398-1.927.334-.452.969-.625 1.497-.625.678 0 1.065.28 1.27.485.291.301.398.689.398 1.528l-.011.495h-.872l-.011-.828c-.011-.313-.032-.539-.29-.732a.77.77 0 0 0-.484-.152c-.237 0-.721.054-.861.668-.097.43-.108 1.357-.108 2.498l.032 1.701c.011.301-.011.71.15.99.205.366.657.376.765.376.086 0 .302 0 .506-.16.355-.27.344-.873.344-1.26v-.56h.883l-.011.808zm4.878-.7l-.021.677c-.043.55-.13 1.206-.571 1.594-.248.215-.624.398-1.313.398-.215 0-1.023.033-1.475-.614-.065-.086-.161-.236-.226-.483-.118-.421-.118-1.303-.118-2.401l.021-2.057c.022-.871.14-1.302.41-1.646.237-.302.678-.625 1.539-.625.226 0 1.163.011 1.561.84a1.89 1.89 0 0 1 .183.678c.064.538.064 1.765.054 2.293l-.043 1.346zm-.937-2.929c0-.301.011-.774-.151-1.054-.086-.151-.312-.378-.732-.378-.108 0-.345.011-.56.184-.366.29-.377.797-.377 1.679v.527l.011 2.197c0 .548 0 .872.075 1.109a.77.77 0 0 0 .818.559c.313 0 .614-.139.743-.441.15-.323.161-.947.172-1.787l.011-1.012-.011-1.583zm2.25 5.491v-7.6h.969v6.749h2.229v.851h-3.197 0zm6.816 0l-.269-1.464h-1.766l-.258 1.464h-.98l1.637-7.6h.947l1.679 7.6h-.99zm-1.174-6.19l-.7 3.908h1.442l-.743-3.908zm8.248 5.974c-.474.323-1.001.323-1.184.323-.269 0-1.356-.021-1.712-1.044-.097-.28-.119-.56-.119-.85v-.84h.893v.377c0 .517 0 .753.086 1.001.075.205.301.549.85.549.366 0 .721-.161.872-.495.086-.183.086-.377.086-.453 0-.645-.291-.914-.711-1.345l-1.023-1.055c-.592-.613-.872-1.023-.872-1.905a2.75 2.75 0 0 1 .086-.722c.15-.494.571-1.044 1.679-1.044.258 0 1.281.011 1.539.99.065.259.065.614.065.884v.484h-.84l-.011-.624c0-.345-.053-.679-.409-.851-.172-.076-.334-.076-.398-.076-.226 0-.42.054-.57.205-.086.075-.129.172-.151.205-.043.097-.076.258-.076.505 0 .065 0 .259.065.442.119.355.441.646.689.915l1.195 1.27.237.291c.183.237.42.635.42 1.356 0 .905-.366 1.292-.689 1.507zm4.662.086c-.452.248-.936.237-1.098.237-.463 0-1.033-.096-1.389-.441a1.45 1.45 0 0 1-.312-.516c-.14-.41-.129-.948-.129-1.045v-5.705h.958v5.038c0 .645-.022 1.108.086 1.378.108.28.355.387.452.419s.183.054.377.054c.291 0 .506-.043.689-.28.032-.042.097-.129.129-.269.032-.151.043-.517.043-.936v-5.404h.958v5.672c0 .711-.054 1.411-.764 1.798zm5.329-3.466c-.355.43-1.001.473-1.507.473h-.797v3.123h-.947v-7.6h1.97c.742 0 1.044.215 1.281.505.442.539.398 1.173.398 1.798 0 .065.064 1.141-.398 1.701zm-.549-2.38c-.086-.753-.646-.763-1.26-.763h-.495v2.788h.635c.42 0 .85.021 1.055-.442.086-.183.086-.42.086-.85l-.022-.733zm2.057 5.976v-7.6h3.348v.85h-2.401v2.26h2.099v.862h-2.099v2.777h2.476v.851h-3.423 0zm7.548 0l-1.292-3.338h-.786v3.338h-.936v-7.6h1.658c.485 0 1.012.021 1.421.354.636.517.592 1.518.592 1.669a5.56 5.56 0 0 1-.075.947c-.075.431-.194.647-.312.797-.237.291-.517.356-.636.388l1.357 3.445h-.99 0zm-.377-6.233c-.194-.55-.775-.506-1.238-.506h-.463v2.659h.496c.42 0 .625-.011.828-.087.474-.193.463-.86.463-1.259 0-.259 0-.56-.086-.807zm2.336 6.233v-7.6h.937v7.6h-.937zm5.943-2.562l-.021.677c-.043.55-.129 1.206-.571 1.594-.247.215-.625.398-1.313.398-.215 0-1.022.033-1.474-.614-.065-.086-.162-.236-.226-.483-.118-.421-.118-1.303-.118-2.401l.021-2.057c.021-.871.14-1.302.409-1.646.237-.302.678-.625 1.539-.625.226 0 1.163.011 1.561.84a1.86 1.86 0 0 1 .183.678c.064.538.064 1.765.054 2.293l-.043 1.346zm-.936-2.929c0-.301.011-.774-.151-1.054-.086-.151-.312-.378-.732-.378-.108 0-.345.011-.56.184-.366.29-.377.797-.377 1.679v.527l.011 2.197c0 .548 0 .872.076 1.109.075.226.258.559.818.559.312 0 .614-.139.743-.441.151-.323.162-.947.172-1.787l.011-1.012-.01-1.583zm5.265 5.491l-1.292-3.338h-.786v3.338h-.937v-7.6h1.658c.484 0 1.012.021 1.421.354.635.517.592 1.518.592 1.669a5.53 5.53 0 0 1-.075.947c-.076.431-.194.647-.312.797-.237.291-.517.356-.635.388l1.356 3.445h-.991 0zm-.377-6.233c-.194-.55-.775-.506-1.238-.506h-.463v2.659h.495c.42 0 .625-.011.829-.087.474-.193.463-.86.463-1.259 0-.259 0-.56-.086-.807zM3.608 138.472l-.024.62c-.04.446-.175.852-.589 1.074-.334.176-.708.152-1.058.152H.887V134.7h1.058c.342 0 .685-.016 1.011.128.525.23.605.731.629.907.032.238.04.827.04 1.487l-.016 1.25zm-.684-2.116c-.008-.447-.032-.677-.199-.844-.199-.183-.541-.168-.78-.168h-.358v4.353h.461c.176 0 .382 0 .557-.087.119-.063.223-.151.279-.422.04-.215.048-.804.048-1.448l-.007-1.384zm1.639 3.962V134.7h2.475v.629H5.264V137h1.551v.637H5.264v2.052h1.83v.63H4.563v-.001zm8.086 0l-.269-1.464h-1.765l-.259 1.464h-.979l1.636-7.6h.948l1.679 7.6h-.99zm-1.174-6.19l-.7 3.908h1.443l-.743-3.908zm5.987 6.19l-1.291-3.337h-.786v3.337h-.936v-7.6h1.658c.485 0 1.012.021 1.421.355.635.517.593 1.518.593 1.669a5.5 5.5 0 0 1-.076.947c-.075.431-.194.647-.312.797-.237.29-.517.355-.635.387l1.357 3.446h-.991v-.001zm-.377-6.233c-.194-.549-.775-.505-1.238-.505h-.463v2.659h.495c.42 0 .624-.011.828-.087.474-.193.463-.861.463-1.259 0-.259 0-.56-.086-.808zm4.286-.516v6.749h-.937v-6.749h-1.442v-.851h3.821v.851h-1.442zm2.358 6.749v-7.6h3.348v.851h-2.401v2.26h2.099v.861h-2.099v2.778h2.476v.851h-3.423v-.001zm7.299-.216c-.474.323-1.001.323-1.184.323-.269 0-1.356-.021-1.712-1.044-.097-.28-.118-.56-.118-.85v-.84h.893v.377c0 .517 0 .753.086 1.001.075.205.302.549.85.549.366 0 .721-.161.872-.495.086-.183.086-.376.086-.453 0-.645-.291-.914-.71-1.345l-1.023-1.055c-.592-.613-.872-1.023-.872-1.905 0-.108 0-.409.086-.722.151-.494.571-1.044 1.679-1.044.258 0 1.281.011 1.539.99.065.259.065.614.065.884v.484h-.84l-.01-.624c0-.345-.054-.679-.409-.851-.172-.076-.334-.076-.398-.076-.226 0-.42.055-.571.205-.086.075-.129.172-.151.205-.043.097-.076.258-.076.506 0 .065 0 .258.064.441.119.355.442.646.689.915l1.195 1.27.237.291c.183.237.42.635.42 1.356 0 .905-.366 1.293-.689 1.507zm4.136.216V134.7h2.475v.629h-1.775V137h1.552v.637h-1.552v2.052h1.831v.63h-2.53v-.001zm9.71-2.498l-.032.84c-.053.603-.237 1.151-.797 1.453-.452.237-.958.205-1.432.205h-1.421v-7.6h1.431c.463 0 .926-.022 1.367.172.71.312.818.99.85 1.227.043.323.054 1.12.054 2.013l-.022 1.69zm-.926-2.863c-.011-.603-.043-.915-.269-1.141-.269-.248-.732-.227-1.055-.227h-.484v5.889h.624c.237 0 .517 0 .754-.118.161-.086.301-.205.377-.571.054-.291.064-1.087.064-1.959l-.01-1.873zm2.219 5.361v-7.6h3.348v.851h-2.401v2.26h2.099v.861h-2.099v2.778h2.476v.851h-3.423v-.001zm7.299-.216c-.474.323-1.001.323-1.184.323-.269 0-1.356-.021-1.712-1.044-.097-.28-.118-.56-.118-.85v-.84h.893v.377c0 .517 0 .753.086 1.001.075.205.302.549.85.549.366 0 .721-.161.873-.495.086-.183.086-.376.086-.453 0-.645-.291-.914-.711-1.345l-1.023-1.055c-.592-.613-.872-1.023-.872-1.905 0-.108 0-.409.086-.722.151-.494.571-1.044 1.679-1.044.258 0 1.281.011 1.539.99.065.259.065.614.065.884v.484h-.84l-.01-.624c0-.345-.054-.679-.409-.851-.172-.076-.334-.076-.398-.076-.226 0-.42.055-.57.205-.086.075-.129.172-.151.205-.043.097-.075.258-.075.506 0 .065 0 .258.065.441.119.355.442.646.689.915l1.195 1.27.237.291c.183.237.42.635.42 1.356 0 .905-.366 1.293-.689 1.507zm1.767.216v-7.6h.937v7.6h-.937zm5.2 0v-.527l-.302.279a1.79 1.79 0 0 1-1.087.355c-.334 0-1.152-.107-1.442-1.044-.129-.42-.129-.785-.14-1.636l-.011-1.206.033-1.615c0-.043 0-.774.118-1.184.344-1.152 1.443-1.141 1.787-1.141.614 0 .979.14 1.206.291a1.05 1.05 0 0 1 .247.226 1.27 1.27 0 0 1 .258.473c.065.227.065.442.065.916v.538h-.894v-.376l-.01-.388c-.011-.313-.054-.883-.85-.883-.097 0-.355 0-.592.161a.79.79 0 0 0-.194.173c-.033.043-.086.15-.118.301-.075.356-.108 1.173-.108 2.153v.915l.032 1.282c.021.43.021.623.108.817.151.313.43.453.764.453.118 0 .42-.011.689-.248a.94.94 0 0 0 .248-.334c.075-.194.107-.57.107-1.087v-.775h-1.12v-.819h2.002v3.93h-.797zm4.35 0l-1.486-6.588.129 6.588h-.937v-7.6h1.303l1.539 6.653-.129-6.653h.915v7.6h-1.335z"/></svg>