<svg xmlns="http://www.w3.org/2000/svg" width="240" height="84" fill="#fff" xmlns:v="https://vecta.io/nano"><path d="M198.712 62.228c-1.235-.268-2.9-1.557-3.061-2.416-.053-.215-.215-.537-.376-.644a1.02 1.02 0 0 1-.268-.698c0-.269-.107-.591-.322-.752-.161-.161-.645-.859-1.128-1.503-.429-.698-.966-1.396-1.181-1.611-.537-.591-.43-1.128.43-1.665.805-.537 1.02-.859 1.02-1.879 0-2.953 1.772-9.181 4.51-16.161l1.557-3.705a39.42 39.42 0 0 0 1.02-2.524c.376-.913.752-1.825.913-1.987a1.78 1.78 0 0 0 .376-.698c.054-.215.375-1.02.751-1.772.376-.805.645-1.503.645-1.557 0-.107.161-.537.375-.967s.376-.859.376-.913.43-.859 1.02-1.826c.537-.913 1.128-1.987 1.235-2.363.161-.322.322-.752.376-.913a2.9 2.9 0 0 0 .107-.805c0-.43-.161-.698-.805-1.503-.429-.537-.966-1.181-1.074-1.503-.161-.322-.376-.591-.429-.591-.269 0-.161-.591.161-.752.59-.322 2.523-.698 3.812-.805l1.288-.107.215-.644c.322-.859 1.02-1.772 1.557-2.094.752-.43 1.718-.537 2.309-.161.268.161.591.322.698.322s.43.215.698.483c.966.966 2.899 1.128 5.423.483 3.006-.752 9.611-1.235 11.973-.805.483.107 2.04.215 3.49.376 1.45.107 2.738.268 2.845.268.269.107.752.913.752 1.235 0 .268-1.557 1.664-2.309 2.04-.161.107-.322.268-.322.43s-.214.322-.644.537c-.376.161-.752.376-.805.537-.108.215-.323.268-.698.268-1.289 0-3.651.698-4.833 1.45a13.29 13.29 0 0 1-1.234.43c-.536.161-1.665.537-2.47.805s-1.718.537-2.041.537-.805.107-1.127.269-1.02.429-1.557.591c-1.45.43-1.987.805-1.987 1.289 0 .268-.161.591-.483.913-.59.537-1.02 1.772-.859 2.47.054.376.054.483-.376.698-.322.161-.483.376-.59.859-.323 1.181-.43 1.557-.752 1.825-.43.376-.698.966-.698 1.45 0 .537-1.235 4.134-1.611 4.618-.161.215-.268.483-.268.644 0 .107-.054.322-.161.483-.054.161-.108.322 0 .483.107.107.053.269-.108.376-.214.161-.214.215-.107.429.322.537.537.537 2.577.322 1.074-.107 2.148-.215 2.363-.161.214 0 1.02.054 1.664.107.698.054 2.846.107 4.832.161 3.436.054 3.597.107 3.759.376.107.268.053.43-.376.966-.269.376-.806 1.074-1.128 1.503-.376.537-.698.859-.913.859-.161 0-.429.161-.59.322-.322.376-1.826.859-3.329 1.02-.644.054-1.396.215-1.718.268-.269.107-.752.161-1.074.161s-.859.107-1.181.215c-.806.268-2.148.483-4.349.644-1.02.107-2.416.215-3.061.322l-1.181.161-.215.591c-.107.322-.375.752-.536.966-.376.376-.484 1.02-.162 1.02.108 0 .054.107-.161.269s-.483.591-.59 1.02c-.161.429-.376.913-.537 1.127a15.41 15.41 0 0 0-1.181 2.04c-.108.161-.269.322-.376.322s-.215.054-.215.161c0 .054.054.161.161.161s.269.215.376.483c.161.43.161.483-.054.752-.161.161-.322.537-.429.859a9.76 9.76 0 0 1-.43 1.02c-.429.698-.376.913.322.966 4.618.644 8.645.752 11.222.268 3.329-.644 4.51-.59 4.51.161 0 .161.107.483.215.698.214.376.268 1.396.107 1.503-.054.054-.215.43-.322.913s-.322 1.02-.483 1.181c-.269.268-1.182.966-2.041 1.503-.107.054-.751.268-1.449.483s-1.772.591-2.363.859c-1.664.805-3.919.966-10.308.752l-3.007-.107-.483.537c-.269.322-.591.644-.698.752-.322.322-1.718.376-2.416.215zM208 44.671c0-.054-.054-.161-.161-.161a.14.14 0 0 0-.161.161.14.14 0 0 0 .161.161c.107-.054.161-.107.161-.161zm12.832-33.825c0-.054-.053-.107-.161-.161s-.161 0-.161.054a.14.14 0 0 0 .161.161c.108 0 .161-.054.161-.054zm17.88-1.987c0-.054-.054-.161-.161-.161-.054 0-.162.107-.162.215a.14.14 0 0 0 .162.161c.053-.054.161-.161.161-.215zm-45.155 60.617c-.59-.054-1.235-.215-1.718-.483-.429-.215-.913-.376-1.127-.376s-.43-.107-.483-.215-.43-.322-.752-.537c-.483-.269-.806-.322-1.396-.269-.752.054-1.987-.215-2.953-.752-.322-.161-.644-.215-1.289-.161l-.859.107-1.342-1.235-1.665-1.396c-.161-.107-.536-.591-.805-1.074-.268-.537-.752-1.127-1.127-1.396-.752-.591-3.061-2.899-3.061-3.06 0-.43-6.389-8.161-8.483-10.255-.43-.43-.966-1.074-1.235-1.342-.215-.322-1.127-1.289-1.986-2.201s-1.665-1.933-1.826-2.255a4.8 4.8 0 0 0-2.094-2.04c-.644-.215-1.718-.322-1.987-.107-.107.054-.322.698-.59 1.396a19.89 19.89 0 0 1-1.289 3.383c-.161.322-.322.859-.322 1.181a4.28 4.28 0 0 1-.429 1.235l-.752 1.342c-.215.376-.483 1.128-.591 1.665-.214.913-.483 1.45-1.61 2.953-.537.698-3.007 1.826-4.242 1.987-.913.107-.913.107-1.503-.483-1.074-1.02-1.235-1.45-1.611-3.597-.483-3.114-.376-6.497.322-9.826.161-.698.268-1.611.268-1.986 0-.644-.053-.698-1.127-1.664-.644-.537-1.289-1.289-1.45-1.611s-.537-.805-.751-1.127c-.645-.805-.591-1.235.322-2.094 1.074-.966 3.866-2.846 5.584-3.705 1.557-.805 1.986-1.235 2.147-2.362.054-.322.269-1.02.537-1.45s.483-1.074.591-1.342.429-1.289.751-2.201c1.396-3.812 1.933-5.53 1.987-6.389.054-.805.054-.966-.322-1.342-.215-.268-.376-.537-.376-.591 0-.322-.859-1.933-1.235-2.309-.215-.215-.376-.429-.376-.537 0-.483 2.685-2.416 4.618-3.436 1.611-.805 2.309-1.02 4.349-1.342 1.074-.161 2.309-.43 2.738-.591.966-.322 3.383-.537 6.604-.483 5.53.054 8.805.805 12.134 2.846.645.376 1.289.752 1.343.752.107 0 .536.376 1.073.805.484.43.967.805 1.074.805.215 0 2.094 1.879 2.631 2.631a3.1 3.1 0 0 1 .483 1.503c.054.591.215 1.074.43 1.342.322.43.376.913.376 2.738 0 2.201-1.289 5.906-2.416 7.087a5.09 5.09 0 0 0-.806 1.074c-.161.322-.644.966-1.02 1.45-.429.483-.752.966-.752 1.074s-.161.215-.375.268-.698.376-1.021.644c-.375.322-.698.591-.805.591s-.483.215-.805.483a43.52 43.52 0 0 1-1.718 1.181c-1.021.698-1.074.752-.967 1.181.054.322.322.698.805 1.181.86.805.913 1.127.215 1.127-.376 0-.537.054-.537.215s.108.215.376.161.591 0 1.02.215c.752.376.859.483 1.02 1.074.054.215.376.591.698.859.43.376.591.591.591.859 0 .322.107.483.376.591.215.107.376.269.429.43s.43.752.859 1.342.806 1.181.806 1.289c0 .376.913 2.04 1.235 2.362.214.215.322.43.322.752 0 .644.376 1.933.644 2.416.108.215.215.537.215.752 0 .322.215.591.805 1.127.537.483.859.913.913 1.235.107.43.644 1.02.967 1.02.268 0 1.181 1.128 1.503 1.826.161.376.59 1.181.913 1.772.322.537.59 1.181.59 1.396 0 .269.108.43.269.483.214.054.268.215.268.483 0 .215.108.483.322.591.269.161.269.215.054.43-.322.376-.268.913.107 1.396.161.215.376.429.43.483s.161.322.268.644.322.644.537.698c.376.161.483.483.215.644-.054.054.054.376.268.752.537.859.698 1.557.376 1.933-.107.161-.268.376-.268.537-.054.161-.215.322-.376.322-.268.054-.322.161-.322.537 0 .483-.43 1.074-.752 1.074-.107 0-.054.161.161.322.322.376.269.537-.107.537-.108.161-.644.107-1.128.054zm-38.013-37.745c0-.054-.054-.107-.161-.161s-.161 0-.161.054a.14.14 0 0 0 .161.161c.107 0 .161 0 .161-.054zm11.168-11.436c1.449-.698 4.295-2.47 6.389-3.973 1.289-.966 1.235-1.128-.376-1.128-.805 0-1.288-.054-1.503-.215s-.698-.215-1.772-.215h-1.503l-.752.805c-.644.698-.752.913-.752 1.396 0 .376-.107.752-.268.966-.215.215-.269.483-.215.698.107.322-.322 1.235-.537 1.235-.161 0-.161.644 0 .805.161.107.376.054 1.289-.376zm29.047 48.698c-.108-.268-.108-.376.053-.537.269-.215.645-.107.645.215 0 .107-.108.322-.269.43-.268.215-.268.215-.429-.107z"/><path d="M98.685 63.463c-.215-.107-.805-.322-1.289-.483-.537-.161-1.127-.483-1.342-.698s-.591-.483-.913-.591c-.269-.107-.913-.644-1.396-1.128-.966-1.02-1.127-1.45-1.127-3.168 0-1.987 2.685-10.04 3.973-12.134.215-.376.43-.752.43-.913 0-.215.752-1.718 1.503-3.114.107-.215.215-.537.215-.644 0-.698 1.986-4.134 4.671-8.054 3.275-4.779 12.241-17.181 17.503-24.161 1.074-1.45 2.094-2.899 2.255-3.275.215-.43.376-1.181.43-1.933.161-1.664.268-2.309.483-2.47.107-.107.161-.268.107-.43-.054-.215 0-.268.215-.268a.8.8 0 0 1 .483.215c.107.107.483.322.913.537.376.161.805.43.859.591.107.161.268.268.376.215.268-.107 2.738.698 2.899.913.054.107.322.161.591.161.483 0 1.235.537 1.879 1.289.161.161.376.322.483.322s.752.376 1.45.805l2.416 1.45c1.45.752 2.094 1.342 1.986 1.611-.053.161 0 .215.162.215.107 0 .214.107.214.215 0 .376-.268.376-.537 0-.268-.322-.322-.376-.698-.268-.429.161-.644.537-.375.805.107.107.214.107.375-.054.161-.107.269-.161.43-.054.107.054.429.161.698.215a2.16 2.16 0 0 1 .913.483c.376.376.376.43.322 1.181-.054.644-.161.859-.537 1.235-.269.215-.537.376-.698.322-.215-.054-.269 0-.269.483 0 .43-.107.644-.429.966-.483.483-.591 1.181-.215 1.987.108.268.269.805.322 1.235a6.29 6.29 0 0 0 .322 1.181c.215.376.215.483-.053.859-.215.376-.215.483-.054.966.107.322.161.644.161.752-.054.107 0 .376.108.537.161.322.161.376 0 .483s-.162.268-.054.591c.161.752.107 2.148-.161 2.899-.161.483-.215 1.342-.269 2.953v2.148c.054-.107.108-.107.161-.054s.054.268 0 .537-.161 1.02-.214 1.772c-.054.966-.161 1.289-.323 1.289-.322 0-.214.268.108.322.59.107.698 1.718.107 2.416-.161.161-.322.322-.429.322a.14.14 0 0 0-.161.161c0 .054.107.161.268.161.322 0 .376.268.161.537-.054.107-.054.269 0 .483.108.268.215.322.43.268.376-.107.537.269.322.698-.108.161-.108.322-.054.43s.161.483.269.859c.107.698.107.698-.269.698-.429 0-.483.215-.107.322s.376.322-.054.537l-.376.215.591.644-.269.268c-.161.161-.268.376-.268.537 0 .268-.967 1.289-1.181 1.289-.054 0-.161-.107-.269-.215-.268-.322-.805-.268-1.449.161-.323.215-.913.483-1.343.644-.698.268-.805.268-1.127.054-.43-.322-.913-.268-1.02.054-.054.161-.215.376-.376.591-.215.268-.269.376-.108.537.108.107.323.215.537.215.269 0 .323-.054.323-.376 0-.269.053-.376.268-.322.161.054.752.054 1.342 0 1.02-.107 1.074-.107 1.181-.483.054-.268.215-.376.537-.429.215-.054.484-.107.591-.215s.215-.107.268 0 .269.161.43.161c.429 0 .644.429.268.537-.805.268-1.02.322-1.61.483-.322.107-.645.269-.698.376-.108.268.268 1.127.483 1.127.107 0 0 .161-.269.376-.375.376-.375.43-.161.43.161.054.537-.107.859-.268s.591-.269.645-.215c.161.161-.108.537-.376.537s-.698.376-.752.752c0 .161.161.268.537.376.698.215.967.537.322.376-.268-.054-.483-.054-.483.054a.14.14 0 0 0 .161.161c.054 0 .161.054.161.161s-.215.161-.483.107c-.376-.054-.483-.107-.537-.376-.054-.483-.483-.43-.483.054 0 .376 0 .376-.269.161a2.44 2.44 0 0 0-.751-.322c-.43-.107-.484-.107-.215-.269.322-.215.215-.376-.43-.591-.322-.107-.429-.268-.429-.376.054-.161-.054-.215-.483-.215-.967 0-1.289-.322-.537-.537.215-.054.429-.161.429-.215s.054-.215.108-.376 0-.215-.215-.215c-.161 0-.322.054-.376.161a1.63 1.63 0 0 1-.537.268c-.215.054-.59.161-.698.215-.268.107-.322-.107-.483-1.986a61.94 61.94 0 0 0-.376-2.416c-.161-.859-.268-1.825-.268-2.148 0-.698-.322-.913-.859-.644-.215.107-.806.269-1.343.376a9.8 9.8 0 0 0-1.449.429c-.43.215-.591.215-.698.107-.161-.161-.269-.107-.484.215-.375.43-1.234.752-2.201.752-.483 0-.698.054-.752.215s-.268.215-.751.215c-.537 0-.698.054-.752.269-.054.161-.161.268-.268.268s-.484.107-.752.268c-.322.161-.859.322-1.181.376s-.645.161-.698.215-.161.107-.269.054-.537.054-.912.215-.86.322-1.128.322c-.483 0-1.02.268-2.309 1.181-.537.376-1.074.698-1.235.752s-.483.429-.698.805c-.429.752-.859.966-1.234.537-.108-.107-.215-.107-.269.107-.054.161-.215.376-.429.537-.376.322-.484 1.181-.108 1.127.108 0 .322-.215.43-.483s.268-.376.322-.268c.161.161-.054.805-.322.966-.108.054-.161.268-.161.43 0 .429-.215.483-.43 0-.161-.322-1.664-.967-1.879-.752-.054.054.054.107.215.161s.375.268.483.483.215.429.322.429.215.161.268.322c.108.215.108.376-.053.537-.108.161-.215.322-.215.43 0 .215-.591.752-.859.752-.107 0-.161-.215-.161-.591 0-.483.054-.591.215-.429.107.107.214.107.268.054.161-.161.107-.322-.161-.322-.161 0-.322-.054-.43-.161-.053-.054-.268-.107-.429-.054-.537.161-.537 1.933 0 2.255.161.107 0 .429-.161.429-.054 0-.215-.215-.322-.429-.161-.43-.645-.644-.483-.215.053.107-.054.215-.162.269-.161.054-.214 0-.161-.215.108-.268.054-.322-.375-.268-.591.054-.86.591-.645 1.235.108.322.215.43.698.43.376.054.698.161 1.02.483a3.26 3.26 0 0 0 .645.483c.268.107-.43.376-.913.376-.269 0-.269.054-.215.429s0 .483-.376.752c-.537.376-.644 1.128-.161 1.128.161 0 .269.054.269.161 0 .322-.537.107-1.074-.43-.644-.644-.591-.966.054-1.825.214-.322.375-.537.375-.537-.053 0-.375.107-.698.269a3.66 3.66 0 0 1-1.235.268c-.483 0-.644.054-.644.269 0 .161.108.376.269.537s.268.322.268.376c0 .161-.59 0-.913-.268-.375-.322-.805-.161-.751.268.054.376-.161.644-.322.43-.107-.215-.376-.161-.376.054 0 .107-.107.322-.269.483s-.268.322-.268.376c0 .269 1.235.107 1.718-.161.429-.268.644-.268 1.288-.215.752.107.806.107.967.644.107.268.161.537.107.591 0 0-.322-.054-.698-.161-.59-.161-.751-.161-1.181.054-.268.107-.537.268-.537.322s-.161.054-.322 0c-.268-.054-.322-.054-.215.161.054.161 0 .376-.215.644-.215.215-.268.376-.161.429s.268.161.43.269c.268.215.268.215-.107.483-.215.161-.483.376-.644.537 0 .483-.107.483-.43.376zm-2.47-2.201c0-.054-.107-.107-.215-.161s-.215 0-.215.054.107.161.215.161.215-.054.215-.054zm0-2.577c0-.054-.107-.161-.215-.161s-.215.054-.215.161c0 .054.107.161.215.161s.215-.107.215-.161zm7.57-.752c0-.054-.053-.161-.053-.161s-.108.054-.161.161 0 .161.053.161a.14.14 0 0 0 .161-.161zm.752-.859c0-.054-.054-.161-.161-.161-.054 0-.161.054-.161.161a.14.14 0 0 0 .161.161c.107 0 .161-.107.161-.161zm-1.772-.429c0-.107-.107-.161-.214-.161s-.215.054-.215.161c0 .054.107.161.215.161.161 0 .214-.107.214-.161zm-7.302-.269c.215-.161-.161-.161-.591 0l-.483.215.537-.107c.268 0 .537-.054.537-.107zm5.906-.215c-.107-.107-.161-.107-.161 0 0 .215.161.376.269.268 0-.054 0-.161-.108-.268zm-.322-.698c0-.054-.053-.161-.161-.161s-.161.054-.215.161c-.053.054 0 .161.161.161.108 0 .215-.054.215-.161zm-7.463-.591c0-.054-.054-.161-.161-.161s-.107.054-.054.161c.054.054.107.161.161.161 0 0 .054-.054.054-.161zm6.873-.215c0-.215-.054-.322-.108-.268s-.107.215-.053.376c.053.376.161.322.161-.107zm-5.101 0c0-.107.107-.268.215-.376.322-.269.107-.376-.644-.322-.698.054-.913.322-.591.698.215.268 1.02.322 1.02 0zm1.611-.483c0-.161-.644-.591-.859-.591-.268 0-.161.268.268.483.43.268.591.268.591.107zm4.51-.483c.161 0 .053-.161-.215-.43-.322-.376-.483-.429-.805-.376s-.43.054-.43-.161c0-.107-.107-.215-.215-.215s-.215.107-.215.269.107.268.215.268.376.161.537.376c.215.268.43.322.645.268.107.054.375 0 .483 0zm-2.202-.537c0-.054-.107-.161-.215-.215-.161-.054-.161 0-.107.107.054.268.322.322.322.107zm5.692-.161c0-.054-.108-.161-.215-.161s-.215-.054-.215-.161c0-.054-.054-.161-.161-.161-.054 0-.161.107-.161.269 0 .215.107.268.376.268.215.054.376 0 .376-.054zm-7.034-.107c.161-.054.322-.215.322-.376 0-.322-.537-.215-.752.161-.161.322-.107.376.429.215zm-1.557-.805c-.322-.376-.591-.376-.591.054 0 .269.054.322.43.269s.376-.054.161-.322zm2.201-.537c0-.054-.161-.161-.376-.161s-.322.054-.269.161c.054.054.215.161.376.161.107-.054.268-.107.268-.161zm2.578-.805c0-.215-.054-.376-.161-.376s-.162.268-.162.644c0 .429.054.537.162.376.107-.107.161-.429.161-.644zm4.402-.322c0-.054-.053-.107-.161-.161-.054-.054-.161 0-.161.054a.14.14 0 0 0 .161.161c.108 0 .161 0 .161-.054zm-7.302-.644c0-.054-.054-.107-.161-.054-.054.054-.161.161-.161.215s.054.107.161.054.161-.161.161-.215zm1.772.054c0-.054-.054-.107-.161-.161s-.161 0-.161.054.054.161.161.161.161 0 .161-.054zm-3.812-.752a.14.14 0 0 0-.161-.161c-.107.054-.107.161-.054.215.107.269.215.215.215-.054zm10.04-.591c-.053-.322-.107-.429-.483-.429-.429-.054-.429-.054-.161.215.161.161.268.376.268.43 0 .107.108.161.215.161.161.054.215-.107.161-.376zm2.148.107c.429-.322.376-.644 0-.483-.43.161-.805.752-.483.752.053.054.268-.107.483-.268zm25.718.215c.107-.054.215-.268.215-.43 0-.376 0-.376-.322-.161-.215.107-.484.215-.645.161-.376-.107-.59.215-.322.376s.752.161 1.074.054zm-35.919-.376c-.054-.054-.161-.161-.215-.161s-.161.054-.161.161c0 .054.107.161.215.161s.215-.054.161-.161zm8.912-.107c.054-.107-.053-.161-.161-.161s-.215.107-.215.215c0 .269.323.215.376-.054zm-7.892-.107c-.376-.322-.752-.322-.483 0a.8.8 0 0 0 .483.215c.268 0 .268 0 0-.215zm11.006-.429a.14.14 0 0 0-.161-.161c-.053.054-.161.161-.161.215s.054.161.161.161.161-.107.161-.215zm-10.255-.537c-.215-1.342-.752-1.503-1.557-.537-.591.752-.43 1.074.376.698.591-.268.859-.322.698-.107s.054.591.322.591c.215 0 .215-.107.161-.644zm6.604.483c0-.054-.053-.161-.161-.215-.053-.054-.161 0-.161.161 0 .107.054.215.161.215s.161-.107.161-.161zm-4.939-.322c0-.054-.054-.161-.161-.161-.054 0-.161.054-.161.161 0 .054.053.161.161.161.053 0 .161-.054.161-.161zm6.228 0c.215 0 .215 0 0-.161-.322-.161-.698-.054-.698.161 0 .107.107.107.215.054.161 0 .376-.054.483-.054zm-5.423-.429c.054-.054 0-.161-.054-.161s-.161.054-.214.161c-.054.054 0 .161.053.161s.161-.054.215-.161zm27.812 0c0-.054-.053-.161-.161-.161a.14.14 0 0 0-.161.161c0 .054.054.161.161.161a.14.14 0 0 0 .161-.161zm-29.959-.215c0-.107-.054-.161-.162-.161-.107.054-.107.161-.053.215.161.215.215.215.215-.054zm10.469-.483c.054-.054 0-.161-.053-.161s-.161.054-.215.161c-.054.054 0 .161.054.161.053-.054.161-.107.214-.161zm-1.127-.161c0-.054-.054-.161-.161-.161-.054 0-.161.054-.161.161 0 .054.053.161.161.161s.161-.107.161-.161zm-8.913-.215a.14.14 0 0 0-.161-.161c-.054.054-.161.161-.161.215s.054.161.161.161.161-.107.161-.215zm-2.04-.537c0-.161-.107-.161-.537 0-.269.107-.269.107.107.161.268 0 .429-.054.429-.161zm33.611-.43c.268-.268.214-.43-.108-.43-.161 0-.376.107-.429.269-.108.268-.108.268.107.268.107.054.322-.054.43-.107zm-31.41-.483c0-.269-.483-.698-.644-.591-.108.107.322.752.537.805.053 0 .107-.107.107-.215zm34.47 0c-.161-.161-.161-.269 0-.43.215-.268 0-.483-.591-.591-.644-.107-.751.215-.322.752.43.43 1.289.698.913.269zm-21.208-.859c-.054-.107-.108-.161-.215-.161s-.161.054-.215.161.054.161.215.161.269-.054.215-.161zm22.443-.161c-.108-.107-.161-.107-.161 0 0 .215.161.376.268.269 0-.054-.054-.161-.107-.269zm-3.866-.322c-.054-.054-.161-.054-.268 0s-.108.107.107.107c.107-.054.215-.054.161-.107zm-31.893-.483c.054-.054 0-.161-.053-.215-.108-.054-.161 0-.161.161 0 .215.053.215.214.054zm2.685-.268c0-.107-.054-.215-.161-.215-.054 0-.161.107-.161.215s.054.215.161.215c.107.054.161-.054.161-.215zm19.329.054c.054-.107 0-.376-.054-.644-.107-.429-.054-.483.269-.483.375 0 .375 0-.215-.483-.644-.537-.859-.644-.752-.268.108.268.054.268-.805-.054-.322-.107-.376.483-.054.591.107.054.215.269.215.43.054.698 1.181 1.503 1.396.913zm-20.886-.537c.054-.054 0-.161-.054-.161s-.161.054-.215.161c-.053.054 0 .161.054.161.108 0 .215-.107.215-.161zm36.027-.268c0-.268-.215-.43-.591-.43-.429-.054-.644.161-.483.43.107.161 1.074.161 1.074 0zm-13.316-.537c0-.161-.214-.429-.59-.698-.698-.483-.913-.483-.43.054.161.161.322.537.322.752 0 .322.054.376.323.269.214-.054.375-.215.375-.376zm-24.107 0a.99.99 0 0 1-.107-.376c0-.054-.054-.107-.161-.107-.162 0-.215.483-.054.644.215.161.376.054.322-.161zm18.631-.107c.268-.215-.161-.429-.644-.376-.323.054-.43.161-.43.376s.054.269.483.215c.269-.054.537-.107.591-.215zm7.033.054c.054-.161.054-.322 0-.376-.161-.161-.698-.054-.966.161-.269.161-.268.215-.054.376.322.215.913.161 1.02-.161zm10.578-.268c.053-.107-.054-.161-.269-.161-.322 0-.376.161-.215.322.161.107.43.054.484-.161zm-9.45-.054c0-.054-.054-.161-.161-.161-.054 0-.161.054-.161.161 0 .054.053.161.161.161.054 0 .161-.054.161-.161zm9.611-.43c0-.054-.054-.161-.161-.161s-.162.054-.162.161.054.161.162.161.161-.107.161-.161zm.429 0c0-.054-.054-.161-.161-.161a.14.14 0 0 0-.161.161.14.14 0 0 0 .161.161c.107 0 .161-.107.161-.161zm1.342 0c0-.054-.053-.161-.161-.161-.053 0-.161.054-.161.161a.14.14 0 0 0 .161.161c.108 0 .161-.107.161-.161zm-13.208-.215c.269-.215.269-.215-.107-.483-.376-.322-.805-.376-.644-.161.053.107 0 .268-.161.376-.269.215-.269.215.107.322.483.215.483.215.805-.054zM117.853 40c0-.054-.054-.161-.162-.161s-.107.054-.053.161c.053.054.107.161.161.161 0-.054.054-.107.054-.161zm18.684 0c0-.054-.054-.161-.161-.161-.054 0-.161.054-.161.161 0 .054.054.161.161.161.107-.054.161-.107.161-.161zm-13.584-.107c0-.054-.053-.107-.161-.161s-.161 0-.161.054a.14.14 0 0 0 .161.161c.108.054.161 0 .161-.054zm-19.006-.215c0-.054-.054-.161-.054-.161-.054 0-.108.054-.161.161-.054.054 0 .161.053.161.108 0 .162-.054.162-.161zm28.349-.107c.053-.107 0-.161-.108-.107s-.215.161-.268.268 0 .161.107.107.215-.161.269-.268zm2.255-.483c-.054-.054-.162-.161-.323-.161s-.214.054-.214.161c0 .054.161.161.322.161.215 0 .268-.054.215-.161zm-11.866-.322c0-.429.537-.859 1.181-.859h.644l-.859-.483.376-.268c.215-.161.483-.269.591-.215.161.054.322-.054.429-.215s.752-.43 1.665-.644c.805-.215 1.503-.483 1.557-.591.161-.215 0-6.55-.215-7.678-.054-.483-.161-1.181-.215-1.611s-.107-.752-.161-.752c-.161 0-1.933 1.879-2.04 2.148-.215.537-1.611 2.201-2.148 2.577-.322.215-.913.966-1.342 1.611s-.967 1.342-1.181 1.45c-.215.161-.645.644-.967 1.127s-.751 1.02-.859 1.235c-.161.215-.268.43-.215.537.054.215.376.215 2.524.215 2.738-.054 2.792 0 1.879.913-.483.483-.644.537-1.181.537-.644 0-1.128-.322-1.02-.698.053-.161-.054-.215-.376-.215-.483 0-.591.215-.161.376.161.054.268.161.268.215s.269.376.591.698c.59.752 1.181.966 1.235.591zm13.798.107c-.053-.054-.161-.054-.268 0s-.107.107.107.107c.161-.054.215-.054.161-.107zm-11.49-.215c0-.054-.107-.161-.214-.161a.14.14 0 0 0-.161.161c.053.054.161.161.214.161s.161-.054.161-.161zm-5.261-.429c0-.054-.054-.161-.161-.215-.054-.054-.161-.054-.161 0s-.054.161-.108.322 0 .215.161.161c.161-.107.269-.215.269-.268zm-12.886-.698c-.161-.161-.269.054-.161.268.107.161.107.161.161 0 .054-.107 0-.215 0-.268zm3.382-.161c0-.054-.053-.161-.161-.161a.14.14 0 0 0-.161.161c0 .054.054.161.161.161s.161-.107.161-.161zm-2.308-.322c0-.054-.054-.161-.161-.161s-.108.054-.054.161c.054.054.107.161.161.161 0 0 .054-.054.054-.161zm-6.014-.483c0-.054-.053-.107-.161-.161-.054-.054-.161 0-.161.054a.14.14 0 0 0 .161.161c.108 0 .161-.054.161-.054zm33.611-.161c0-.054-.054-.107-.161-.161-.054-.054-.161 0-.161.054a.14.14 0 0 0 .161.161c.107 0 .161 0 .161-.054zm-31.839-.591a.14.14 0 0 0-.161-.161c-.107.054-.107.161-.054.215.108.215.215.215.215-.054zm13.262-.805c0-.054-.054-.161-.161-.161-.054 0-.161.054-.161.161a.14.14 0 0 0 .161.161.14.14 0 0 0 .161-.161zm19.543-.859c.108-.161-.268-.161-.805 0-.322.107-.322.107.161.107.322 0 .591-.054.644-.107zm-27.919-2.792c.054-.054 0-.161-.054-.161a.14.14 0 0 0-.161.161.54.54 0 0 0 .054.161c.054 0 .107-.107.161-.161zm11.114-1.02c.054-.054 0-.161-.054-.161a.14.14 0 0 0-.161.161c0 .107.054.161.054.161l.161-.161zm-5.208-.161c0-.054-.054-.161-.161-.161-.054 0-.161.054-.161.161a.14.14 0 0 0 .161.161.14.14 0 0 0 .161-.161zm19.597-.698c0-.054-.053-.161-.161-.161s-.107.054-.053.161c.053.054.107.161.161.161 0-.054.053-.107.053-.161zm-9.718-1.342c.054-.054 0-.161-.053-.215s-.162 0-.162.161c0 .215.054.268.215.054zm-15.57-.859c0-.054-.054-.161-.161-.161-.054 0-.161.054-.161.161 0 .054.053.161.161.161.107-.054.161-.107.161-.161zm25.342-.322c-.054-.054-.161-.161-.268-.161s-.108.054.053.161c.269.215.322.215.215 0zm-11.436-.376a.14.14 0 0 0-.161-.161c-.108.054-.108.161-.054.215.107.268.215.215.215-.054zm12.402-.376c0-.161-.053-.43-.107-.537-.107-.161-.161-.161-.376.054s-.215.268 0 .537c.322.376.483.376.483-.054zm-20.456-2.309c0-.054-.054-.161-.161-.161a.14.14 0 0 0-.161.161c0 .054.054.161.161.161a.14.14 0 0 0 .161-.161zm11.222-.966c-.162-.161-.43.054-.43.322 0 .215 0 .215.268 0 .108-.107.215-.268.162-.322zm10.684-1.557c0-.107-.054-.215-.161-.215-.054 0-.161.107-.161.215s.054.215.161.215.161-.107.161-.215zm-12.993-1.557c0-.054-.054-.161-.161-.161-.054 0-.161.054-.161.161 0 .054.053.161.161.161s.161-.107.161-.161zM119.302 16c0-.054-.053-.161-.161-.161s-.107.054-.054.161c.054.054.108.161.162.161s.053-.054.053-.161zm19.329-4.51c.054-.054 0-.161-.054-.215-.107-.054-.161 0-.161.161.054.215.108.269.215.054zm.269-1.772c0-.054-.054-.161-.162-.161-.053 0-.161.054-.161.161 0 .054.054.161.161.161.054 0 .162-.054.162-.161zM124.725 6.55a.14.14 0 0 0-.161-.161c-.107.054-.107.161-.054.215.108.268.215.215.215-.054zm5.906-3.06c-.161-.161-.268.054-.161.268.107.161.107.161.161 0 .054-.107.054-.215 0-.268zm-28.564 58.148c0-.161.269-.376.376-.268.054.054-.054.161-.161.268-.161.054-.215.107-.215 0zm-1.342-.161c0-.054.054-.161.161-.161s.108.054.054.161c-.054.054-.108.161-.161.161s-.054-.107-.054-.161zm-.644-2.04c.053-.054.107-.161.161-.161s.054.054.054.161c0 .054-.054.161-.162.161-.053-.054-.107-.107-.053-.161zm2.523-.268c-.161-.054-.268-.107-.268-.215 0-.215.376-.161.59.107.215.215.161.215-.322.107zm30.604-1.235c-1.127-.644-1.718-1.235-1.879-1.987-.322-1.289-.161-1.664.483-1.181.376.268.698.268.591 0-.054-.107 0-.268.107-.376.269-.215.269-.43-.053-.752-.323-.376-.215-.43.805-.537.483-.054.913-.161 1.02-.215s.269.054.43.483l.268.591.322-.429c.215-.322.322-.644.322-1.181 0-.43 0-.805.054-.859s.269 0 .483.107.537.269.698.322c.215.054.215.107.108.322-.108.161-.269.161-.537.054-.483-.161-.591-.054-.376.268.107.161.107.43.107.591-.053.215-.053.322.108.215.107-.054.107-.161.107-.268-.054-.054 0-.161.161-.161.322 0 .483.43.215.591-.107.054-.376.107-.537.107-.43 0-.43.322 0 .537.215.161.268.268.215.537-.054.322-.054.376.268.376.591 0 .752.537.376 1.396-.322.644-.483.805-.644.537-.054-.054-.215-.161-.322-.161-.215 0-.215.054.053.268.215.269.215.269.054.269-.107 0-.43.161-.644.376-.752.752-1.396.698-2.363.161zm1.45-.805c0-.054-.161-.161-.322-.215-.269-.054-.376.107-.215.322.161.161.537.107.537-.107zm-.698-.322c.054-.054 0-.161-.054-.215s-.161 0-.161.161c0 .215.108.215.215.054zm-.698-.966c-.054-.107-.269-.215-.483-.215-.376 0-.376 0-.108.215.376.268.698.268.591 0zm2.416-.644c0-.054-.054-.161-.161-.161-.054 0-.161.054-.161.161a.14.14 0 0 0 .161.161c.107-.054.161-.107.161-.161zm-1.342-1.127c.053-.107-.108-.215-.322-.215-.376-.054-.806.107-.806.322s1.02.107 1.128-.107zm2.47.429c-.054-.054-.108-.215-.108-.322 0-.161.054-.161.215-.054.107.107.215.215.215.322 0 .161-.215.161-.322.054zm-6.014-.591c-.054-.054 0-.268.054-.429.107-.269.107-.43 0-.698-.161-.269-.161-.43.054-.966.214-.591.214-.644 0-.752-.323-.215-.323-.537.053-.537.161 0 .269.107.269.215a.14.14 0 0 0 .161.161c.107-.054.161 0 .161.107s.107.322.268.429c.215.269.215.269-.053.376-.484.107-.537.483-.108.752.483.322.43.376-.107 1.02-.43.429-.591.483-.752.322zm4.457-.913c0-.054.053-.161.161-.161.053 0 .161.054.161.161 0 .054-.054.161-.161.161-.108-.054-.161-.107-.161-.161zm-2.631-.268c0-.161.912-.483 1.02-.376.053.054 0 .161-.108.268-.214.215-.912.322-.912.107zm5.852-.268a.14.14 0 0 1 .161-.161c.107.054.107.161.054.215-.161.269-.215.215-.215-.054zm-6.604-.376c0-.161.161-.161.43 0 .161.107.161.161-.108.161-.161 0-.322-.054-.322-.161zm1.772-.322c-.322-.376-.376-.591-.161-.752.161-.107.644.913.537 1.02 0 .054-.215-.054-.376-.268zm-1.342-.967c0-.054.053-.161.161-.161a.14.14 0 0 1 .161.161.14.14 0 0 1-.161.161c-.108 0-.161-.107-.161-.161zm-2.202-1.02c-.215-.752-.215-.859.108-.966.536-.161 1.234.376 1.127.913 0 .054-.268.215-.591.376l-.536.269-.108-.591zm7.463.537c0-.054.108-.161.269-.215.161-.107.268-.107.268-.107 0 .054-.107.161-.268.215-.108.107-.269.107-.269.107zm-1.825-3.007c-.108-.161.644-.376.751-.215.108.107-.268.376-.536.376-.054-.054-.162-.107-.215-.161zm3.114-.107c-.161-.161-.108-.322.054-.322.053 0 .161.107.214.215.054.215-.107.268-.268.107zm-.054-2.685c-.107-.161.054-.429.215-.429.054 0 .161.107.161.268 0 .322-.215.43-.376.161z"/><path d="M70.658 64.536c-.644-.054-1.181-.107-1.181-.161s-.269-.161-.537-.215c-.752-.107-1.986-.698-2.148-1.074-.107-.215-.269-.268-.483-.268-.591.107-.752-.054-.591-.483.215-.537.054-.591-.43-.215l-.43.322-.429-.43c-.269-.268-.43-.537-.43-.591s-.215-.322-.537-.537c-.268-.215-.913-.913-1.396-1.611-.752-1.02-1.987-2.255-2.416-2.47-.269-.107-1.557-1.879-1.879-2.524l-.805-2.416-.644-1.987c-.322-.483-.429-4.349-.215-6.604l.752-5.638c.054-.054.107-.429.107-.859 0-.376.161-1.181.376-1.826s.376-1.45.43-1.772c.054-.376.215-.913.376-1.289.161-.322.322-.805.376-1.02s.43-1.074.805-1.879l1.289-3.06c.644-1.718 2.148-4.456 5.262-9.611l2.04-3.436c1.02-1.825 6.926-7.517 8.698-8.376.322-.161.698-.376.805-.483s.268-.215.376-.215.215-.107.215-.215.161-.268.322-.322.967-.376 1.718-.752l1.396-.644.483.322 2.04 1.664c1.181 1.02 1.825 1.45 2.577 1.718 2.953 1.181 6.282 3.436 9.503 6.389.859.805 1.074 1.074 1.074 1.45s.054.43.215.268.376 0 1.127.752c1.45 1.503 1.718 1.879 1.718 2.416 0 .268-.054.537-.161.591s-.161.268-.161.483c0 .268-.161.537-.43.805-.43.376-.43.43-.805.161-.483-.322-.537-.322-.537.268v.483l-.966-.054c-1.396-.054-2.148-.322-3.544-1.128-1.879-1.074-3.007-1.557-3.812-1.664s-1.128.054-3.436 1.611c-.752.537-1.45.913-1.611.913s-.805.537-1.503 1.181c-1.45 1.396-2.309 2.094-2.738 2.255-.161.054-.322.161-.322.268 0 .268-1.503 3.329-2.094 4.242-.269.43-.644 1.128-.805 1.503a3.07 3.07 0 0 1-.537.913c-.269.215-1.181 2.148-1.289 2.738-.054.268-.215.483-.43.591s-.376.268-.376.483c0 .43-1.235 2.577-1.772 3.06-.215.215-.429.483-.429.537s-.107.161-.269.215c-.322.107-.752 1.289-.644 1.879.054.215 0 .537-.161.698-.483.698-.752 1.718-.913 3.329-.215 1.987-.429 2.792-.752 3.06-.107.107-.215.43-.215.752s-.054.591-.161.644-.107.268-.054.43c.054.268-.054.591-.322 1.074-.322.644-.376.752-.215 1.074.268.591.161 2.792-.161 2.631-.268-.161-.107.376.322.967.215.376.537.966.698 1.342.322 1.02.644 1.074 2.094.644.805-.269 1.235-.322 1.396-.215s.429.054.698-.054c.591-.215.591-.215.43-.483-.107-.161.161-.376 1.289-.966.805-.429 1.557-.752 1.664-.752s.215-.054.215-.107.322-.322.752-.537c.591-.322.859-.376 1.288-.322s.591.054.591-.107c0-.537 2.094-1.986 2.631-1.772.322.107.537-.215.269-.376-.107-.054-.107-.107-.054-.107.107 0 .483-.215.913-.483.376-.269.966-.591 1.235-.698s.537-.322.537-.43.215-.322.483-.43 1.181-.752 2.094-1.342c.859-.644 1.718-1.128 1.879-1.128s.376-.107.429-.322c.107-.215.322-.322.537-.376.376-.054.376-.054.376.752s0 .805.43.967c.376.107.43.215.43.698 0 .322.107.698.215.859.215.268.215.376-.054.966-.161.376-.376 1.127-.537 1.718s-.376 1.396-.537 1.718c-.215.537-.376.644-.913.805-.483.107-.644.215-.537.322s.107.322-.054.591c-.107.215-.215.483-.215.537s-.322.483-.752.859c-.698.644-.752.752-.537.859.376.215.322.322-.161.591s-.644.215-.429-.215c.107-.215.107-.269 0-.269s-.107-.161-.054-.483c.054-.43.054-.537-.376-.859-.269-.215-.644-.376-.859-.376-.376 0-.376 0-.107.269.161.161.376.268.537.268s.268.054.268.161c0 .054-.107.161-.268.161-.215 0-.268.107-.268.268s.107.376.268.483c.376.215.43 1.342.054 1.181-.161-.054-.215 0-.215.215 0 .644-1.396 1.772-3.383 2.792-1.02.483-2.04 1.074-2.309 1.289s-.644.322-.913.322-.483.107-.537.215c-.161.376-1.396.859-1.772.644-.591-.269-.859-.269-.859.107 0 .43-.322.537-1.342.43-.644-.054-.805-.054-.752.107.054.107-.161.268-.537.376-.43.483-.966.483-3.597.376zm3.49-1.02c0-.054-.107-.107-.215-.054s-.215.107-.215.161.107.054.215.054c.107-.054.215-.107.215-.161zM80 61.906c0-.054-.054-.161-.161-.161-.054 0-.161.054-.215.161-.054.054 0 .161.161.161s.215-.107.215-.161zm-15.034-.752c-.161-.161-.215-.161-.376 0s-.107.161.161.161c.322 0 .376-.054.215-.161zm1.718-.644a.14.14 0 0 0-.161-.161c-.107.054-.107.161-.054.215.161.215.215.215.215-.054zm10.953-.322c-.215-.268-.322-.161-.215.161.054.107.161.215.268.161.054-.054.054-.161-.054-.322zm-4.51-1.074c0-.054-.054-.161-.161-.215-.054-.054-.161 0-.161.161s.054.215.161.215a.14.14 0 0 0 .161-.161zm6.711-.054c0-.107-.054-.215-.161-.215-.161 0-.322.215-.215.322.215.161.376.107.376-.107zm-3.812-2.04c0-.269-.054-.376-.322-.376s-.268 0-.054.376c.376.429.376.429.376 0zm8.215.215c0-.054-.054-.161-.161-.215-.054-.054-.161 0-.161.161 0 .107.054.215.161.215.107-.054.161-.107.161-.161zm-15.732-.698c.107-.322 0-.429-.268-.161s-.269.376 0 .376c.107.054.215-.054.268-.215zm-8.698-.054c0-.054-.054-.161-.161-.161a.14.14 0 0 0-.161.161c0 .054.054.161.161.161a.14.14 0 0 0 .161-.161zm16.376-.161c0-.054-.054-.161-.161-.161a.14.14 0 0 0-.161.161c0 .054.054.161.161.161a.14.14 0 0 0 .161-.161zm9.074 0c0-.054-.107-.161-.215-.161s-.268.054-.322.161c-.054.054.054.161.215.161s.322-.054.322-.161zm-7.732-.966c0-.215-.161-.322-.322-.215s0 .376.161.376c.054-.054.161-.107.161-.161zm2.47-.054c0-.054-.054-.161-.161-.161a.14.14 0 0 0-.161.161.14.14 0 0 0 .161.161.14.14 0 0 0 .161-.161zm-4.832-.107c0-.054-.054-.161-.161-.161a.14.14 0 0 0-.161.161.14.14 0 0 0 .161.161c.107-.054.161-.107.161-.161zm7.624-.161c0-.054-.054-.161-.161-.161-.054 0-.161.054-.161.161a.14.14 0 0 0 .161.161c.054 0 .161-.107.161-.161zm-19.436-1.235a.14.14 0 0 0-.161-.161c-.107.054-.107.161-.054.215.107.215.215.161.215-.054zm24.537-1.02c0-.268-.644.054-.805.376-.054.215-.054.215.322-.054.269-.054.483-.215.483-.322zm-1.933-1.933c0-.054-.054-.107-.161-.161-.054-.054-.161 0-.161.054a.14.14 0 0 0 .161.161c.107.054.161 0 .161-.054zm-1.557-.483c0-.054-.054-.161-.161-.161a.14.14 0 0 0-.161.161c0 .054.054.161.161.161s.161-.107.161-.161zm-28.027-1.933c.054-.054 0-.161-.054-.161a.14.14 0 0 0-.161.161.54.54 0 0 0 .054.161s.107-.054.161-.161zm34.148-.537c0-.054-.054-.161-.161-.161-.054 0-.161.054-.161.161 0 .054.054.161.161.161.107-.054.161-.107.161-.161zm-32.913-5.369c0-.054-.054-.107-.161-.161s-.161 0-.161.054a.14.14 0 0 0 .161.161c.107 0 .161 0 .161-.054zm-.054-2.47c-.322-.215-.483-.215-.322.054.054.107.215.161.322.161.268 0 .268-.054 0-.215z"/><path d="M34.792 63.248c-.107-.054-.376-.161-.483-.268s-.752-.268-1.342-.322l-1.074-.107v-.967c0-1.342-.322-1.235-1.235.376-.161.268-.269.268-.913.215-.644-.107-.752-.054-.752.161 0 .161.161.268.322.268.322 0 .591.43.322.591-.107.054-.161.054-.161-.054.054-.322-.054-.43-.161-.215-.107.161-.215.161-.483.054-.322-.161-.644-1.02-.43-1.289.161-.269-.376-.376-.859-.215-.268.107-.537.107-.698.054-.322-.215-.805.161-.805.591 0 .269-.269.537-.591.537-.054 0-.054-.215-.054-.483 0-.537-.805-1.718-1.289-1.879-.644-.215-.161-.376.913-.322.591.054 1.02.054.859 0-.107-.054-.268-.269-.376-.483-.161-.43-.161-.43-.483-.107-.322.268-.322.268-.483 0a.64.64 0 0 0-.483-.269.99.99 0 0 1-.644-.268c-.268-.268-.322-.268-.966 0-.376.161-.698.268-.752.268s-.054-.268-.054-.591c0-.376.054-.591.215-.591.107 0 .322-.161.483-.376l.215-.376.215.376c.268.483.913.483 1.074.054.054-.161.054-.537 0-.805-.107-.43-.054-.483.537-.644a4.61 4.61 0 0 1 1.127-.215l.483-.054-.591-.322c-.376-.215-.644-.322-.805-.215-.107.107-.269.054-.376-.054-.107-.161-.215-.107-.376.107-.376.483-.591.161-.322-.483.322-.698.322-1.127 0-1.396-.161-.107-.215-.376-.161-.591.107-.591-.376-.913-1.074-.752-.644.107-.752.376-.268.698.537.322.376.537-.268.43l-.591-.107.054.644c.054.483.107.644.483.752.268.054.537 0 .698-.107.752-.537 1.02.054.322.698-.215.215-.537.376-.644.376s-.215.107-.215.269.161.268.43.268c.215 0 .43.054.43.161s-.43.161-.966.107c-.913 0-.966-.054-.752-.268.322-.322.322-1.02 0-1.289a1.18 1.18 0 0 1-.268-.644c0-.429-.054-.483-.483-.483-.591 0-.591-.161-.161-.591.483-.43.376-.966-.215-1.02-.43-.054-.591.161-.268.376.322.161.161.429-.215.376a.51.51 0 0 1-.43-.429c-.107-.644-.752-.483-1.181.268-.322.591-.322.591-.322.161 0-.322-.107-.483-.43-.644-.215-.107-.429-.322-.429-.43 0-.215.054-.215.215.054s.268.269.591.107c.215-.107.537-.376.752-.537.268-.269.43-.269.537-.161s.43.215.752.215.752.107.966.268c.43.322.376.322.752-.644.215-.698.215-.805 0-.859-.107-.054-.376-.054-.483 0-.161.054-.322 0-.376-.107-.107-.161-.215-.107-.43.161-.268.322-.376.322-.591.215-.268-.161-1.02 0-1.45.269-.591.429-1.664.107-1.503-.429.054-.161 0-.322-.161-.376-.107-.054-.215-.215-.215-.322s-.215-.537-.483-.913c-.43-.591-.483-.752-.322-1.02.268-.483 1.342-1.289 1.718-1.181.322.054.752-.215.752-.483 0-.107-.161-.107-.322-.054-.215.054-.322.054-.322-.107 0-.107.161-.215.322-.269s.322-.215.322-.376.107-.322.268-.322 1.128-.054 2.148-.107c1.718-.107 1.933-.054 2.738.322.483.215 1.503.537 2.201.752 1.342.376 2.685.859 3.597 1.289.483.215.537.215.805 0 .483-.43 1.503-.322 1.664.161.054.161.268.107.752-.107.591-.269 1.074-.322 2.577-.322 1.718 0 1.879-.054 2.416-.429.268-.215.913-.537 1.342-.698a6.41 6.41 0 0 0 1.611-.967c.43-.376.967-.752 1.181-.859.322-.161.376-.322.376-1.127 0-1.503-.269-2.309-1.02-3.114-1.181-1.289-1.879-2.201-1.879-2.416 0-.268-1.342-1.289-2.523-1.987-.644-.376-1.45-.966-1.825-1.396s-.752-.752-.859-.752c-.322 0-1.503-.966-1.396-1.128.054-.107-.107-.161-.322-.161-.322 0-.483-.161-.752-.644-.161-.376-.537-.859-.805-1.181-.268-.269-.537-.805-.644-1.181a8.43 8.43 0 0 0-.483-1.235c-.161-.322-.322-.913-.376-1.289l-.537-3.275c-.054-.322 0-.752.054-.913.107-.161.107-.376.054-.483-.215-.215.054-3.758.376-5.315.483-2.416 1.772-5.369 2.738-6.228.215-.215.43-.483.43-.591s.054-.215.161-.215.483-.322.913-.752c1.127-1.128 2.148-1.879 3.007-2.309l1.664-.913c.537-.322 1.396-.644 2.094-.805l1.772-.483 1.45-.43c.483-.107 1.128-.322 1.45-.43.698-.322 3.114-.215 5.369.268l2.255.322c.698 0 .859.107 2.148 1.128l1.396 1.128 1.127 2.362c.591 1.289 1.235 2.899 1.396 3.597.322 1.289.376 2.362.161 2.524-.107.054-.322.698-.591 1.503-.322.967-.537 1.45-.805 1.611-.376.268-.644.268-7.195-.054-1.772-.054-2.309-.054-4.134.322l-2.792.43c-.805 0-1.181.161-1.879.752-.322.268-.644.376-1.074.376-.537 0-.644.054-.644.322 0 .322-.537.805-.967.805-.161 0-.537.376-.859.805-.537.698-.591.859-.429 1.128s.107.322-.483.376c-.913.161-1.342.43-.644.43.43 0 .698.161 1.396.913.483.483.913.966.913 1.074 0 .161.054.161.107 0 .215-.322.698 0 1.987 1.289.644.698 1.289 1.235 1.396 1.235s.268.107.376.269c.161.215.161.322 0 .483s-.107.268.215.429c.537.268 3.168 2.899 3.383 3.275.054.161.483.752.913 1.235l2.148 2.577c.752.913 1.557 2.04 1.772 2.47s.429.752.483.752c.161 0 .805 1.772.805 2.148 0 .161-.107.268-.268.322-.376.161-.269.376.161.322.322-.054.429 0 .483.483.215 1.289.215 1.718.054 1.987-.107.215-.107.322.107.376.322.107.322.644 0 .752-.107.054-.269.268-.269.429s-.054.269-.161.215-.161-.054-.161.054c0 .322.644.537.966.376.269-.161.322-.107.322.268 0 .268-.054.376-.161.322-.269-.161-.805.107-.805.376 0 .161.215.43.483.644.591.43.644.966.161 1.879-.215.376-.268.698-.161.805s0 .483-.43 1.074c0 .054-.161 0-.268-.107s-.268-.161-.322-.054c-.215.215-.107.376.268.483l.376.107-.322.268c-.376.322-.698.859-.698 1.235 0 .322-1.503 1.933-2.148 2.362-.269.161-.43.376-.43.537s-.107.215-.215.161c-.161-.054-.322.107-.483.322-.322.483-.644.537-.805.107-.054-.161-.268-.322-.429-.322-.269 0-.322.107-.322.644 0 .483-.054.644-.215.537-.161-.054-.43.215-.752.752-.483.805-.859 1.02-1.074.644-.054-.107 0-.268.161-.376s.268-.322.268-.43.054-.322.161-.429.054-.215-.161-.268-.429-.054-.483.107c-.107.161-.269.161-.698 0s-.698-.161-.966-.054-.43.107-.644 0c-.161-.107-.322-.107-.376-.054-.268.268.161.644.967 1.02.483.215.913.483.913.537 0 .215-.859.966-1.879 1.557-.966.591-1.45.698-1.611.43-.215-.322-.591-.161-.591.268 0 .376-.161.537-.859.913-.644.322-.966.43-1.235.322l-.376-.107.322-.322c.322-.322.483-.913.161-.913-.107 0-.107-.268-.054-.644a2.01 2.01 0 0 0-.161-1.127c-.161-.322-.215-.537-.107-.644.268-.268-.376-.698-.805-.537l-.376.161.591.644c.322.376.591.752.591.913 0 .376-.483.483-.805.161a.98.98 0 0 0-.591-.268c-.43 0-.805.268-.644.43.054.054.161.054.268-.054.215-.376 1.02.376 1.02 1.02 0 .322.107.591.215.644.161.054.161.107 0 .107-.107 0-.215.161-.215.322-.161.215-.483.322-.967.107zm3.221-1.396c0-.161-.322-.269-.429-.107-.054.107 0 .161.161.161s.268-.054.268-.054zm1.933-.43c0-.054-.161-.322-.376-.483-.43-.43-.698-.215-.43.322.161.322.805.483.805.161zm-13.96-.322a.14.14 0 0 0-.161-.161.14.14 0 0 0-.161.161.14.14 0 0 0 .161.161.14.14 0 0 0 .161-.161zm4.403-.161a.14.14 0 0 0-.161-.161.14.14 0 0 0-.161.161.14.14 0 0 0 .161.161.14.14 0 0 0 .161-.161zm-2.524-.698c.107-.215.107-.376 0-.537-.376-.644-1.235-.322-1.45.483-.107.376-.054.43.268.483.483.054.966-.107 1.181-.43zm4.564-.215c-.161-.161-.322.107-.161.322.107.161.161.161.215 0 0-.161 0-.268-.054-.322zm8.376-.054a.14.14 0 0 0-.161-.161.14.14 0 0 0-.161.161.14.14 0 0 0 .161.161c.054 0 .161-.107.161-.161zm-6.174-1.02a.14.14 0 0 0-.161-.161c-.107 0-.161.107-.161.268s.054.215.161.161c.054-.054.161-.161.161-.268zm3.866.107c.215-.215-.591-.537-1.02-.429-.698.107-.752.215-.322.483.269.161 1.128.161 1.342-.054zm-9.718-.429c-.161-.322-.483-.376-.591-.054-.054.161.161.268.644.376.054 0 .054-.107-.054-.322zm4.51.107c0-.054-.054-.107-.161-.161s-.161 0-.161.054.054.161.161.161.161 0 .161-.054zm3.812-.752c-.054-.161 0-.429.107-.644.269-.483-.107-.429-.429.054-.161.215-.376.43-.483.43-.268 0-.268.107-.054.483.161.268.215.268.591.107.269-.054.376-.215.269-.429zm-10.04.215c.054-.054 0-.215-.161-.322-.107-.107-.268-.268-.268-.376 0-.268-.805-.591-1.396-.591s-.591 0-.322.591c.161.376.268.43.805.322s.591-.054.591.215c0 .322.537.429.752.161zm2.523-.215a.14.14 0 0 0-.161-.161.14.14 0 0 0-.161.161.14.14 0 0 0 .161.161.14.14 0 0 0 .161-.161zm14.443-.537c0-.054-.054-.107-.161-.161s-.161 0-.161.054.054.161.161.161.161 0 .161-.054zm-4.081-.268a.14.14 0 0 0-.161-.161.14.14 0 0 0-.161.161.14.14 0 0 0 .161.161.14.14 0 0 0 .161-.161zm-10.953-.161c.322-.161.322-.215-.376-.322-1.288-.215-1.503-.215-1.611.054-.054.215.107.268.644.322.376.054.752.054.859.107a1.59 1.59 0 0 0 .483-.161zm13.906.107c0-.054-.107-.107-.268-.161s-.215-.054-.161.054c.107.161.43.268.43.107zm2.899-.483c0-.054-.054-.107-.161-.161s-.161 0-.161.054.054.161.161.161.161 0 .161-.054zM27.65 55.73a.14.14 0 0 0-.161-.161.14.14 0 0 0-.161.161.14.14 0 0 0 .161.161c.054 0 .161-.054.161-.161zm2.094 0a.14.14 0 0 0-.161-.161.14.14 0 0 0-.161.161.14.14 0 0 0 .161.161.14.14 0 0 0 .161-.161zm8.107-.268c0-.161-.054-.215-.161-.161s-.107.161-.054.269c.107.269.215.215.215-.107zm9.45-.054a.14.14 0 0 0-.161-.161.14.14 0 0 0-.161.161.14.14 0 0 0 .161.161c.054 0 .161-.054.161-.161zm-15.356-.268c-.054-.054-.215-.054-.322 0s-.107.107.107.107.268-.054.215-.107zm-3.329-.537a.14.14 0 0 0-.161-.161.14.14 0 0 0-.161.161.14.14 0 0 0 .161.161c.054 0 .161-.054.161-.161zm-3.436-.322a.14.14 0 0 0-.161-.161c-.107 0-.107.054-.054.161s.107.161.161.161.054-.054.054-.161zm15.785 0a.14.14 0 0 0-.161-.161.14.14 0 0 0-.161.161.14.14 0 0 0 .161.161c.054 0 .161-.054.161-.161zm9.181-.054c.054-.054-.161-.161-.429-.322-.376-.161-.537-.215-.644-.054-.376.376-.215.591.43.537.322-.107.644-.161.644-.161zm-13.96-.537c-.161-.161-.322.107-.161.322.107.161.161.161.215 0 0-.161 0-.268-.054-.322zm2.148.107c.054-.107-.107-.215-.268-.215-.215 0-.322.054-.215.269.054.322.376.268.483-.054zm.43-.107c-.161-.161-.322.107-.161.322.107.161.161.161.215 0 0-.161 0-.268-.054-.322zm8.913-.054c-.537-.591-.859-.644-.859-.054 0 .322.054.43.322.322.161-.054.376 0 .43.054.054.107.215.161.322.161s.054-.161-.215-.483zm-7.141-.161c-.43-.215-.591-.215-.483 0 .054.107.268.161.43.161.376-.054.376-.054.054-.161zm7.731 0a.14.14 0 0 0-.161-.161.14.14 0 0 0-.161.161.14.14 0 0 0 .161.161c.054 0 .161-.107.161-.161zm-17.396-.805a.14.14 0 0 0-.161-.161c-.107 0-.161.107-.161.268s.054.215.161.161c.107-.107.161-.215.161-.268zm-4.349-.698c-.107-.107-.269-.107-.376-.054-.161.107-.107.161.107.215.376.161.537.107.269-.161zm-.698-.376c0-.054-.054-.107-.161-.161s-.161 0-.161.054a.14.14 0 0 0 .161.161c.107 0 .161 0 .161-.054zm5.53-.215c0-.107-.054-.161-.054-.161-.054 0-.107.054-.161.161s0 .161.054.161c.107 0 .161-.107.161-.161zm-8.268-.376c0-.268-.054-.322-.268-.161-.107.107-.268.268-.268.322s.107.161.268.161c.161.054.268-.107.268-.322zm27.275 0c0-.107-.107-.161-.269-.161s-.268.054-.268.161.107.161.268.161.269-.054.269-.161zM26.9 50.201c-.054-.107-.322-.161-.644-.161s-.591.054-.644.161.215.161.644.161.698-.054.644-.161zm18.899-.054c0-.161-.054-.215-.161-.161s-.107.161-.054.269c.161.215.215.161.215-.107zm-17.611-.429c.269-.107.161-.161-.429-.161-.537 0-.644.054-.483.161.322.215.483.215.913 0zm18.953.107c0-.054-.054-.107-.161-.161s-.161 0-.161.054a.14.14 0 0 0 .161.161c.107 0 .161 0 .161-.054zm1.825-.268c.054-.107-.054-.161-.215-.161s-.322.054-.322.161.107.161.215.161c.161 0 .268-.054.322-.161zm-9.825-.161c.215-.107.161-.161-.107-.161a1.23 1.23 0 0 0-.591.161c-.215.107-.161.161.107.161.215 0 .483-.054.591-.161zm-16.644-.215c-.054-.161-.107-.215-.161-.161s-.054.161.054.268c.107.215.215.161.107-.107zm29.691-.268c-.107-.107-.268-.161-.322-.054-.054.054 0 .161.107.268.322.161.483 0 .215-.215zm-33.611-.322c.107-.161-.376-.591-.483-.483s.107.591.268.591c.107.054.215 0 .215-.107zm5.047-.107c.054-.054-.107-.322-.269-.483-.376-.322-.376-.322-.483-.054-.161.376.537.859.752.537zm22.121-1.074c-.054-.107-.107-.107-.107.107 0 .161.054.268.107.215s.054-.161 0-.322zm1.879.161c0-.107.161-.322.429-.429.591-.269.322-.537-.483-.537-.644 0-.698.054-.698.322a.66.66 0 0 0 .268.537c.322.376.483.376.483.107zm-22.765-.591c.161-.268.107-.322-.215-.322-.591 0-.591.43.054.644 0 0 .054-.161.161-.322zm24.698.161a.14.14 0 0 0-.161-.161.14.14 0 0 0-.161.161.14.14 0 0 0 .161.161.14.14 0 0 0 .161-.161zm-30.872-.644c0-.107-.107-.107-.268-.054-.107.054-.268.107-.268.161s.107.054.268.054.268-.054.268-.161zm28.51-.967c-.054-.107-.161-.161-.268-.161s-.107.107.054.268c.215.215.376.161.215-.107zm-4.779 0a.14.14 0 0 0-.161-.161.14.14 0 0 0-.161.161.14.14 0 0 0 .161.161c.107 0 .161-.107.161-.161zm-21.369-.161c.054-.107 0-.215-.054-.268-.107-.054-.161 0-.161.161 0 .268.054.322.215.107zm26.738-.322a.14.14 0 0 0-.161-.161.14.14 0 0 0-.161.161.14.14 0 0 0 .161.161c.054 0 .161-.107.161-.161zm-1.342-4.134c-.161-.376-.161-.483 0-.537.376-.107.215-.376-.322-.376s-.537-.054-.107 1.181c.161.483.269.591.43.376.161-.161.161-.269 0-.644zm-1.503.376c.054-.107 0-.161-.054-.161a.14.14 0 0 0-.161.161c0 .107.054.161.054.161s.107-.054.161-.161zM47.302 40a.14.14 0 0 0-.161-.161.14.14 0 0 0-.161.161.14.14 0 0 0 .161.161c.054 0 .161-.054.161-.161zm-5.638-2.684c.537-.376.591-.591.161-.591-.268 0-.859.591-.859.805 0 .269.054.215.698-.215zm5.154-1.074a.14.14 0 0 0-.161-.161.14.14 0 0 0-.161.161.14.14 0 0 0 .161.161.14.14 0 0 0 .161-.161zm-9.611-1.289c-.322-.215-.644-.215-.644 0 0 .107.215.161.429.161.376 0 .43-.054.215-.161zm3.919-.322c0-.215-.322-.376-.483-.269-.107.054-.107.161-.054.269.054.215.537.215.537 0zm2.577-1.02c0-.107-.054-.322-.161-.43-.107-.215-.161-.161-.161.215 0 .269.054.43.161.43s.161-.107.161-.215zm-9.342-.269c.054-.107 0-.215-.054-.268-.107-.054-.161 0-.161.161 0 .322.054.322.215.107zm4.456-.966c0-.161-.644-.483-.913-.483-.161 0-.054.483.107.537.43.161.805.107.805-.054zm2.792-.322c0-.107-.054-.161-.054-.161-.054 0-.107.054-.161.161s0 .161.054.161.161-.107.161-.161zm1.772-.644a.14.14 0 0 0-.161-.161.14.14 0 0 0-.161.161.14.14 0 0 0 .161.161c.107 0 .161-.107.161-.161zm-7.033-.644c-.269-.268-.269-.268-.269 0 0 .161.107.322.215.322.322.161.322 0 .054-.322zm2.094-.537c-.054-.107-.107 0-.107.215s.054.322.107.215c.054-.161.054-.322 0-.43zm-4.027 0c-.054-.107-.161-.215-.269-.215s-.268.107-.268.215c-.054.107.054.215.268.215.161 0 .322-.107.269-.215zm-.966-.107a.14.14 0 0 0-.161-.161.14.14 0 0 0-.161.161.14.14 0 0 0 .161.161c.107 0 .161-.107.161-.161zm2.631-.859c-.107-.107-.161-.107-.161.054 0 .322.215.537.322.322 0-.161-.054-.322-.161-.376zm-3.436-2.899c0-.376-.591-1.128-.698-.966-.107.107.537 1.289.644 1.289.054 0 .054-.161.054-.322zm-.483-2.577c.161-.107 0-.161-.591-.161-.483 0-.859.054-.859.161 0 .161 1.127.161 1.45 0zm-2.577-.752c0-.054-.054-.107-.161-.161s-.161 0-.161.054a.14.14 0 0 0 .161.161c.107.054.161 0 .161-.054zm-1.074-.591c.054-.107 0-.161-.054-.161a.14.14 0 0 0-.161.161c0 .107.054.161.054.161s.107-.054.161-.161zm5.154-1.127c0-.215-.966-.322-1.289-.161-.215.107-.215.161.161.161.215 0 .483.054.537.161.107.161.591.054.591-.161zm-1.02-1.02c0-.107-.054-.268-.161-.268s-.161.107-.161.268c0 .107.054.269.161.269s.161-.161.161-.269zm-.483-.859c0-.215-.054-.215-.268 0-.107.107-.268.268-.268.322s.107.054.268 0 .268-.215.268-.322zm7.463-1.45c0-.054-.054-.107-.161-.161s-.161 0-.161.054a.14.14 0 0 0 .161.161c.107.054.161 0 .161-.054zm-.322-1.02a.14.14 0 0 0-.161-.161c-.107 0-.215.054-.268.161s0 .161.161.161.268-.107.268-.161zm-9.074-.805a.14.14 0 0 0-.161-.161.14.14 0 0 0-.161.161.14.14 0 0 0 .161.161c.107 0 .161-.107.161-.161zm.376-.483c.054-.107 0-.215-.054-.269-.107-.054-.161 0-.161.161 0 .268.107.322.215.107zm25.127-.537a.14.14 0 0 0-.161-.161.14.14 0 0 0-.161.161.14.14 0 0 0 .161.161.14.14 0 0 0 .161-.161zm-.805-1.289a.14.14 0 0 0-.161-.161c-.107 0-.107.054-.054.161s.107.161.161.161.054-.054.054-.161zM33.289 9.932c.161-.107.161-.215 0-.483-.161-.322-.161-.322-.376.054-.429.752-.268.913.376.43zm2.792-.537c0-.054-.054-.107-.161-.161s-.161 0-.161.054a.14.14 0 0 0 .161.161c.107 0 .161 0 .161-.054zm8.215-1.02c-.054-.107-.215-.107-.322-.054-.322.107-.322.215.107.215.161-.054.269-.107.215-.161zm8.913-3.705c-.161-.161-.322.107-.161.322.107.161.161.161.215 0s0-.268-.054-.322zM30.39 63.033c0-.054.161-.161.322-.268.268-.161.43-.161.805.054.268.161.483.268.483.322s-.376.054-.805.054c-.43-.054-.805-.107-.805-.161zm-3.597-.966a.14.14 0 0 1 .161-.161c.107 0 .107.054.054.161s-.107.161-.161.161c0 0-.054-.054-.054-.161zM21.8 59.651c0-.107.268-.161.591-.161.429 0 .537.054.376.161-.322.215-.966.215-.966 0zm1.342-.322c-.054-.107 0-.161.054-.161a.14.14 0 0 1 .161.161c0 .107-.054.161-.054.161l-.161-.161zm-3.383-1.289c-.161-.215.161-.591.429-.483.376.161.322.591-.054.591-.161 0-.322-.054-.376-.107zM17.826 56c.054-.161.161-.268.268-.268.215 0 .054.376-.161.43-.161.054-.161 0-.107-.161zm.268-.591c-.054-.107-.054-.215.054-.268s.215-.215.268-.322c.054-.215.107-.161.107.054 0 .322.322.376.322.054a1.86 1.86 0 0 0-.161-.644c-.107-.215-.107-.591-.054-.752.107-.429.537-.376.43 0-.054.269 0 .322.268.215.268-.054.322 0 .322.376s.107.537.537.752l.537.269h-.752c-.376 0-.859.107-1.02.268-.376.215-.698.215-.859 0zm92.295 16a420.15 420.15 0 0 1 65.718 3.221l37.799 5.101c.912.107 1.933-.322 2.899-.215 1.987.215 4.027.43 5.852 1.02 1.128.376.806 1.826-.376 2.416-1.825.859-4.778.268-6.281-1.127-.484-.43-1.235-.752-1.88-.859l-37.53-4.242c-24-2.309-48.053-3.168-72.107-.591-10.738 1.127-21.423 2.846-32.161 4.188-1.396.161-2.792.269-4.188.107-2.255-.215-3.758-1.772-3.758-3.705 0-1.879 1.235-3.221 3.651-3.436l24.591-1.933c5.96-.161 11.866.054 17.772.054z"/><path d="M20.081 22.872l-1.396-.859 3.383-1.02 27.758-9.664c4.456-1.503 8.966-2.846 13.423-4.295.483-.161.966-.322 1.45-.376.376-.054.752.161 1.181.215-.269.322-.537.805-.859.913l-9.664 3.007c-12.993 4.188-25.611 9.235-38.067 14.711-.644.268-1.289.644-1.825 1.181l5.691-2.148c14.765-5.584 29.691-10.738 45.154-13.906 4.403-.913 8.859-1.342 13.315-1.933.591-.054 1.235.376 1.879.537-.483.537-.859 1.342-1.45 1.503L66.04 14.765C45.638 20.993 25.664 28.402 6.98 38.979c-.591.322-1.235.698-1.664 1.396 1.181-.429 2.362-.752 3.544-1.235l34.899-13.799c6.872-2.523 14.121-4.081 21.208-6.067.483-.107 1.074.161 1.611.268-.43.43-.752 1.128-1.235 1.289l-14.121 4.886c-13.53 4.94-26.792 10.577-39.302 17.718-1.289.752-2.524 1.557-3.651 2.685 1.074-.322 2.148-.591 3.221-1.02l29.745-11.866c6.013-2.255 12.242-3.812 18.416-5.584.859-.268 2.738.054 2.792.268.161 1.557-1.342 1.664-2.362 2.04l-27.007 9.825c-6.067 2.416-11.866 5.423-17.772 8.215-.591.269-1.074.644-1.664.967l.161.483c2.255-.537 4.51-.966 6.712-1.718l24.268-8.537c3.168-1.074 6.497-1.826 9.772-2.685.752-.215 1.557-.215 2.309-.215.376 0 .913.322.966.644.107.322-.107.913-.43 1.128-.537.43-1.235.698-1.879 1.02L22.711 54.442c-3.114 1.503-6.013 3.436-8.913 5.423 4.94.913 9.665-.107 14.443-.805-4.671 1.396-9.342 2.685-14.228 2.792-.913 0-2.255-.43-2.631-1.074-.698-1.128.43-2.094 1.342-2.685 4.618-2.738 9.181-5.638 13.96-8 6.98-3.436 14.175-6.497 21.316-9.718.537-.269 1.074-.483 1.557-1.02-1.611.537-3.221.967-4.779 1.557l-25.235 8.913c-2.255.752-4.779.966-7.195 1.235-.752.054-1.557-.537-2.309-.805.483-.752.805-1.718 1.503-2.148 1.987-1.289 4.081-2.362 6.067-3.758-2.04.805-4.081 1.611-6.121 2.309a28.98 28.98 0 0 1-4.832 1.235c-.537.107-1.128-.376-1.718-.591.268-.537.322-1.235.752-1.503 1.611-1.181 3.221-2.362 4.94-3.329C22.55 35.597 35.168 30.12 48.054 25.342c.644-.215 1.235-.483 1.772-.966l-5.53 1.933-33.396 13.476c-2.631 1.074-5.315 1.933-8 2.738-.913.269-1.933 0-2.899-.054.591-.752 1.074-1.772 1.879-2.201 6.282-3.49 12.51-7.195 19.007-10.255 17.074-7.946 34.792-14.389 53.101-19.06.483-.107.966-.269 1.342-.805-3.973.805-8 1.45-11.973 2.362-16.698 3.866-32.805 9.718-48.752 15.893-2.201.859-4.456 1.665-6.765 2.363-.483.161-1.181-.215-1.772-.322.376-.43.644-1.02 1.128-1.235l12.886-6.336z"/></svg>