<?xml version="1.0" encoding="utf-8"?>
<!-- Generator: Adobe Illustrator 16.0.0, SVG Export Plug-In . SVG Version: 6.00 Build 0)  -->
<!DOCTYPE svg PUBLIC "-//W3C//DTD SVG 1.1//EN" "http://www.w3.org/Graphics/SVG/1.1/DTD/svg11.dtd">
<svg version="1.1" id="Layer_1" xmlns="http://www.w3.org/2000/svg" xmlns:xlink="http://www.w3.org/1999/xlink" x="0px" y="0px"
	 width="960px" height="482px" viewBox="0 0 960 482" enable-background="new 0 0 960 482" xml:space="preserve">
<g>
	<path d="M-4351.162,279.324h-275.012c-13.569,0-21.646,1.515-27.551,2.617c-9.232,1.751-11.406,2.13-33.216-10.57
		c-23.104-13.489-24.486-14.292-30.893-9.492c-0.155,0.124-0.311,0.235-0.456,0.369c-1.503-0.311-3.497-0.782-6.104-1.506
		c-24.307-6.604-34.253,8.691-41.528,19.863c-7.274,11.175-13.534,20.832-34.109,20.832c-13.333,0-15.929-6.251-19.962-24.096
		c-0.156-0.689-0.311-1.394-0.466-2.093c19.417-5.793,37.761-15.171,48.244-28.896c9.803-12.834,12.355-23.384,7.576-31.336
		c-1.782-2.964-7.287-9.669-19.94-7.564c-14.057,2.316-34.911,15.773-50.306,39.333c-1.037-0.792-2.151-1.525-3.354-2.195
		c-9.467-5.289-21.577-5.111-38.121,0.559c-3.708,1.27-7.474,2.651-10.939,4.278c-2.36-16.933-7.062-31.504-13.455-42.431
		c0.345-4.936-0.469-8.612-2.484-12.153c-4.412-7.743-12.377-9.469-21.599-11.452c-6.741-1.448-15.128-3.265-25.956-7.598
		c-10.539-4.21-18.36-2.083-23.049,0.469c-15.116,8.176-19.593,30.343-25.253,58.393c-1.525,7.553-3.052,14.826-4.701,21.712
		c-7.44-15.016-16.23-24.653-24.853-30.779c0.636-13.156-1.435-26.914-7.808-40.905c-2.428-5.336-9.925-21.566-24.229-20.074
		c-1.548,0.156-3.029,0.49-4.456,1.024c4-52.377-1.425-64.151-13.267-67.07c-17.399-4.311-32.049,12.197-98.708,187.948
		c-4.667,12.307-8.733,23.614-12.254,33.995c-4.243-15.682-8.198-31.548-11.863-47.319c24.952-71.171,39.166-149.817,9.992-217.879
		c-16.131-37.652-30.489-61.245-48.146-54.005c-28.672,11.787-13.723,144.415,15.195,269.867
		c-14.002,38.91-31.18,75.615-45.673,106.584c-25.319,54.116-38.041,81.285-24.863,95.376c4.177,4.478,9.614,5.938,15.027,5.938
		c7.631,0,15.184-2.919,19.026-4.41c12.198-4.723,21.778-8.098,29.331-10.773c30.935-10.915,35.044-13.399,39.267-41.805
		c0.857-5.771,1.938-13.035,3.776-22.359c3.721,10.908,7.475,21.188,11.229,30.736c2.25,5.727,8.722,8.533,14.448,6.279
		c5.726-2.248,8.544-8.722,6.282-14.447c-7.842-19.927-15.161-41.202-21.911-63.183c5.08-17.454,12.098-38.73,21.956-64.732
		c33.475-88.257,56.946-143.588,70.023-165.131c0.479,12.274-0.412,36.448-6.148,83.991c-0.167,1.349-0.323,2.696-0.469,4.044
		c-0.801,2.897-1.615,5.926-2.428,9.08c-3.309,2.161-6.54,4.645-9.635,7.407c-24.708,22.057-35.825,56.489-28.328,87.724
		c1.748,7.297,5.379,22.456,17.957,22.456c0.022,0,0.045,0,0.078,0c11.107-0.054,16.498-10.102,23.995-39.01
		c0.803,4.925,1.727,9.716,2.762,14.339c-0.902,5.332-0.2,10.18,2.819,14.703c0.478,0.724,1.014,1.403,1.582,2.037
		c9.824,32.218,25.241,55.121,42.051,65.558c12.389,7.697,25.443,8.176,35.826,1.394c18.535-12.144,24.952-44.815,18.068-92.016
		c-0.959-6.536-2.083-12.641-3.344-18.333c6.952-17.413,10.861-36.773,14.249-53.581c3.409-16.877,8.076-39.993,14.013-43.201
		c1.003-0.568,3.251,0.245,4.177,0.624c2.54,1.014,4.958,1.905,7.263,2.706c-6.204,8.589-10.905,21.411-14.079,38.365
		c-6.207,33.185,0.712,58.973,14.125,76.886c-1.615,10.016-2.909,20.117-3.822,29.954c-4.767,51.33,3.487,61.469,12.197,64.608
		c16.01,5.803,27.927-15.327,41.909-51.284c1.748-4.512,3.353-9.036,4.789-13.525c25.253,1.35,51.342-10.971,62.682-39.075
		c5.694,10.146,15.519,18.601,33.976,18.601c32.672,0,44.781-18.635,52.792-30.968c7.307-11.25,8.899-12.755,16.976-10.505
		c9.437,2.562,16.286,3.755,21.444,2.161c2.751,1.594,6.35,3.688,10.649,6.204c26.735,15.575,33.774,15.988,48.558,13.234
		c5.323-1.001,11.939-2.239,23.438-2.239h275.012c6.15,0,11.141-4.978,11.141-11.138
		C-4340,284.282-4345.014,279.324-4351.162,279.324z M-4790.16,233.151c-3.71,4.735-8.991,8.756-15.174,12.131
		C-4799.975,239.792-4794.641,235.781-4790.16,233.151z M-5231.276,26.501c3.765,5.069,10.137,15.662,19.539,37.596
		c21.588,50.385,16.476,108.678,0.947,165.043C-5229.584,135.524-5237.248,51.789-5231.276,26.501z M-5214.144,418.836
		c-2.406,16.221-2.406,16.221-24.651,24.073c-7.709,2.729-17.489,6.183-29.955,10.995c-4.378,1.683-7.241,2.419-9.034,2.708
		c0.858-11.253,15.25-41.997,28.071-69.401c10.905-23.302,23.271-49.726,34.755-77.966c4.367,17,8.935,33.621,13.635,49.482
		C-5209.587,388.216-5212.34,406.694-5214.144,418.836z M-5113.409,301.538c0-10.995,2.885-21.155,7.229-29.865
		C-5108.44,281.485-5110.97,292.27-5113.409,301.538z M-5059.17,189.239c0.68,1.136,1.493,2.663,2.417,4.69
		c3.375,7.409,5.125,14.838,5.648,22.18c-3.031-0.523-6.094-0.781-9.191-0.781c-3.019,0-6.06,0.245-9.101,0.736
		C-5065.932,204.334-5062.401,194.353-5059.17,189.239z M-5072.416,239.647c6.628-2.273,13.268-2.708,19.506-1.17
		c-3.599,16.342-11.52,31.747-18.871,45.039C-5072.973,270.136-5073.285,255.521-5072.416,239.647z M-5065.419,321.088
		c-0.101-0.379-0.189-0.736-0.291-1.125c1.861-5.012,6.495-13.289,10.104-19.727c7.519-13.404,16.865-30.066,22.368-48.715
		c7.666,9.045,13.87,22.291,18.326,39.167c-7.821,16.73-18.76,27.716-36.182,29.809
		C-5058.536,321.389-5062.936,321.323-5065.419,321.088z M-5018.443,384.359c-2.943,1.95-6.94,1.382-11.865-1.68
		c-9.012-5.595-19.483-18.782-27.782-39.211c3.209-0.146,6.461-0.457,9.647-0.836c17.055-2.049,29.708-9.581,39.3-20.231
		C-5004.743,360.544-5011.17,379.593-5018.443,384.359z M-4944.287,277.442c-2.13-10.191-2.251-22.124,0.301-35.78
		c4.701-25.153,11.874-32.416,14.247-33.084c0.078-0.022,0.167-0.033,0.255-0.033c0.959,0,2.875,1.125,5.014,3.475
		c0.078,0.09,0.156,0.167,0.233,0.256c-1.872,7.208-5.648,18.503-10.036,31.637l-2.763,8.278
		C-4939.632,259.933-4942.07,268.453-4944.287,277.442z M-4922.253,349.66c-5.213,13.414-9.303,22.248-12.365,28.051
		c-0.435-10.728,0.411-26.734,2.683-44.883c4.267,2.707,8.756,4.946,13.358,6.707
		C-4919.704,342.876-4920.928,346.251-4922.253,349.66z M-4912.596,317.947c-5.614-2.384-10.883-5.783-15.485-10.184
		c2.986-16.274,7.008-33.082,12.165-48.536l2.764-8.251c0.767-2.307,1.503-4.502,2.205-6.607
		C-4906.992,263.507-4906.169,289.006-4912.596,317.947z M-4852.02,288.114c-5.002,22.981-21.866,33.007-38.698,33.854
		c3.03-14.004,4.645-27.672,5.045-40.614c8.399,1.637,21.133,1.792,35.29,0.077C-4850.982,283.612-4851.529,285.832-4852.02,288.114
		z"/>
</g>
<path d="M-3945.455,0c-66.016,0-119.998,53.985-119.998,120c0,66.016,53.982,120,119.998,120
	c58.589,0,107.652-42.472,117.956-98.181h378.407c69.88,0,125.456,55.575,125.456,125.455c0,69.878-55.576,125.454-125.456,125.454
	h-621.816c-93.298,0-169.092,75.792-169.092,169.092c0,93.299,75.794,169.09,169.092,169.09h258.409l-61.023,61.024
	c-8.64,8.398-8.835,22.215-0.434,30.854c8.401,8.64,22.216,8.835,30.854,0.434c0.205-0.197,0.404-0.399,0.602-0.606l97.841-97.841
	c8.567-8.478,8.642-22.291,0.164-30.858c-0.055-0.055-0.109-0.109-0.164-0.164l-98.181-98.183c-0.428-0.59-0.882-1.161-1.365-1.703
	c-8.943-8.192-22.833-7.581-31.022,1.362c-8.19,8.944-7.579,22.831,1.364,31.023l61.364,61.022h-258.409
	c-69.88,0-125.456-55.576-125.456-125.454c0-69.88,55.576-125.455,125.456-125.455h621.816c93.301,0,169.092-75.792,169.092-169.091
	c0-93.3-75.791-169.091-169.092-169.091h-378.407C-3837.803,42.473-3886.866,0-3945.455,0z M-3945.455,43.637
	c42.434,0,76.364,33.931,76.364,76.363c0,42.433-33.931,76.363-76.364,76.363c-42.433,0-76.361-33.93-76.361-76.363
	C-4021.816,77.568-3987.888,43.637-3945.455,43.637z M-3574.545,589.091c-66.016,0-120.001,53.984-120.001,120
	s53.985,120.001,120.001,120.001s120-53.985,120-120.001S-3508.529,589.091-3574.545,589.091z M-3574.545,632.727
	c42.433,0,76.361,33.932,76.361,76.364s-33.929,76.364-76.361,76.364c-42.434,0-76.364-33.932-76.364-76.364
	S-3616.979,632.727-3574.545,632.727z"/>
<g>
	<path d="M-2877.844,493.135c0,23.925,4.715,47.167,14.015,69.078c8.981,21.164,21.831,40.19,38.192,56.551
		c16.361,16.361,35.39,29.21,56.557,38.191c21.915,9.299,45.16,14.014,69.09,14.014c23.925,0,47.166-4.715,69.078-14.014
		c21.164-8.981,40.19-21.83,56.551-38.191c16.361-16.36,29.21-35.387,38.191-56.55c9.299-21.913,14.014-45.154,14.014-69.079
		c0-23.93-4.715-47.175-14.015-69.09c-8.98-21.167-21.829-40.195-38.19-56.557c-16.36-16.362-35.387-29.212-56.551-38.193
		c-21.912-9.3-45.153-14.015-69.078-14.015c-23.93,0-47.176,4.715-69.09,14.015c-21.167,8.981-40.195,21.831-56.557,38.193
		c-16.361,16.361-29.211,35.39-38.192,56.557C-2873.129,445.959-2877.844,469.205-2877.844,493.135z M-2797.295,395.83
		c25.885-25.886,60.441-40.141,97.305-40.141s71.421,14.255,97.307,40.141c25.885,25.884,40.14,60.44,40.14,97.305
		s-14.255,71.421-40.14,97.307c-25.886,25.885-60.443,40.14-97.307,40.14s-71.42-14.255-97.305-40.14
		c-25.886-25.886-40.141-60.443-40.141-97.307S-2823.181,421.714-2797.295,395.83z"/>
	<path d="M-2975.875,289.993c14.376,0,28.035-3.478,40.597-10.335l3.964-2.163l3.215,3.171l29.973,29.562l0.045,0.043l0.043,0.045
		c3.839,3.944,8.985,6.116,14.491,6.116c5.286,0,10.282-2.03,14.066-5.717c7.98-7.759,8.174-20.554,0.441-28.541l-0.01-0.01
		c-0.2-0.2-0.4-0.4-0.602-0.593l-0.03-0.029l-0.03-0.03l-29.562-29.14l-3.263-3.218l2.196-4.022
		c6.767-12.391,10.345-26.574,10.345-41.018c0-22.79-8.974-44.316-25.267-60.614c-16.296-16.299-37.821-25.275-60.612-25.275
		s-44.316,8.976-60.612,25.275c-16.294,16.297-25.267,37.824-25.267,60.614c0,22.789,8.973,44.313,25.267,60.608
		C-3020.191,281.019-2998.667,289.993-2975.875,289.993z M-2975.875,158.624c25.509,0,45.49,19.981,45.49,45.491
		c0,25.503-19.981,45.481-45.49,45.481c-25.51,0-45.491-19.978-45.491-45.481C-3021.366,178.605-3001.385,158.624-2975.875,158.624z
		"/>
	<path d="M-2724.416,168.326l4.416,1.307v4.508v56.243v0.043v0.043c0,11.14,8.682,20.332,19.828,20.489l0.14,0.002
		c10.962,0,20.032-8.911,20.032-19.872v-0.706v-56.243v-4.509l4.418-1.307c36.135-10.937,61.42-44.84,61.42-82.447
		c0-22.793-8.947-44.319-25.242-60.612C-2655.697,8.974-2677.21,0-2700.003,0c-22.795,0-44.316,8.974-60.616,25.268
		c-16.299,16.295-25.222,37.82-25.222,60.612C-2785.841,123.48-2760.551,157.384-2724.416,168.326z M-2699.99,40.388
		c25.51,0,45.491,19.982,45.491,45.491c0,25.509-19.981,45.491-45.491,45.491c-25.508,0-45.49-19.982-45.49-45.491
		C-2745.48,60.37-2725.498,40.388-2699.99,40.388z"/>
	<path d="M-2516.433,316.433c5.187,0,10.113-1.962,13.879-5.525l0.212-0.209c0.117-0.115,0.231-0.227,0.338-0.339l0.05-0.052
		l0.052-0.051l29.561-29.562l3.228-3.228l3.999,2.201c12.45,6.851,26.248,10.325,41.012,10.325c22.783,0,44.307-8.975,60.604-25.271
		c16.299-16.297,25.275-37.821,25.275-60.608c0-22.787-8.977-44.313-25.275-60.613c-16.298-16.3-37.821-25.276-60.604-25.276
		c-22.793,0-44.322,8.976-60.623,25.276c-16.3,16.299-25.277,37.825-25.277,60.613c0,14.408,3.579,28.593,10.349,41.025l2.188,4.019
		l-3.259,3.214l-29.562,29.14l-0.037,0.037l-0.039,0.036c-8.063,7.678-8.382,20.492-0.71,28.567
		C-2527.227,314.202-2522.026,316.433-2516.433,316.433z M-2424.104,158.624c25.497,0,45.471,19.981,45.471,45.491
		c0,25.503-19.974,45.481-45.471,45.481c-25.51,0-45.492-19.978-45.492-45.481C-2469.596,178.605-2449.613,158.624-2424.104,158.624
		z"/>
	<path d="M-3011.67,517.502l1.295-4.502h4.526h56.243h0.045h0.045l0.29,0.167c10.974,0,20.029-8.851,20.186-19.83
		c0.076-5.398-1.951-10.426-5.71-14.294c-3.759-3.869-8.801-6.043-14.201-6.043h-0.091l-0.091-0.039l-0.102-0.02l-0.104,0.027
		l-0.134,0.031h-0.134h-56.654h-4.506l-1.309-4.346c-5.251-17.295-16.12-32.913-30.604-43.942
		c-14.99-11.415-32.779-17.458-51.443-17.458c-22.783,0-44.307,8.973-60.604,25.269c-16.3,16.299-25.275,37.823-25.275,60.614
		c0,22.787,8.976,44.31,25.275,60.607c16.297,16.296,37.82,25.271,60.604,25.271c18.803,0,36.704-6.116,51.77-17.488
		C-3027.739,550.497-3016.844,534.823-3011.67,517.502z M-3094.121,538.615c-25.497,0-45.471-19.977-45.471-45.48
		c0-25.509,19.974-45.491,45.471-45.491c25.51,0,45.492,19.982,45.492,45.491C-3048.629,518.639-3068.611,538.615-3094.121,538.615z
		"/>
	<path d="M-2425.643,844.857c-35.629-34.251-77.135-61.138-123.363-79.913c-47.813-19.417-98.611-29.263-150.984-29.263
		c-52.377,0-103.18,9.846-150.995,29.263c-46.231,18.775-87.739,45.662-123.369,79.913c-35.657,34.279-63.623,74.224-83.164,118.725
		c-20.241,46.096-30.481,95.139-30.481,145.766v14.369c0,11.135,9.023,20.283,20.17,20.283h630.581h0.045h0.045l0.29-0.041
		c10.975,0,20.028-8.957,20.184-19.938c0.077-5.397-1.949-10.27-5.707-14.135c-3.758-3.867-8.802-5.887-14.202-5.887h-0.093
		l-0.091-0.244l-0.101-0.121l-0.101,0.18l-0.135,0.186h-0.135h-603.077h-6.31l0.237-6.543
		c3.268-86.893,40.502-167.891,104.844-227.859c64.629-60.235,150.418-93.469,241.564-93.469c47.28,0,93.002,8.739,135.895,26.035
		c41.447,16.712,78.603,40.662,110.433,71.211c31.815,30.535,56.449,66.164,73.86,105.914
		c18.004,41.096,26.803,84.85,26.803,130.059v14.369v0.043v0.043c0,5.394,2.279,10.493,6.036,14.361
		c3.76,3.867,8.968,6.04,14.366,6.117l0.354,0.002c10.961,0,20.244-8.91,20.244-19.871v-0.695v-14.369
		c0-50.627-10.24-99.669-30.481-145.766C-2362.022,919.081-2389.986,879.137-2425.643,844.857z"/>
	<path d="M-2245.267,432.518c-16.295-16.297-37.821-25.271-60.612-25.271c-18.654,0-36.438,6.033-51.428,17.448
		c-14.485,11.029-25.359,26.665-30.62,43.964l-1.311,4.342h-4.503h-56.654h-0.12l-0.12-0.039c-0.322-0.014-0.647-0.036-0.976-0.036
		c-0.331,0-0.664-0.003-0.997,0.009c-5.354,0.252-10.334,2.588-13.973,6.582c-3.638,3.994-5.502,9.163-5.249,14.562
		c0.505,10.813,9.372,19.282,20.185,19.282c0.321,0,0.642-0.173,0.966-0.188l0.142-0.172h0.143h56.243h4.526l1.295,4.502
		c5.174,17.321,16.069,33.017,30.682,44.047c15.065,11.373,32.967,17.424,51.77,17.424c22.791,0,44.317-8.953,60.612-25.25
		c16.293-16.295,25.267-37.809,25.267-60.598C-2220,470.331-2228.974,448.813-2245.267,432.518z M-2305.879,538.615
		c-25.51,0-45.492-19.977-45.492-45.48c0-25.509,19.982-45.491,45.492-45.491c25.509,0,45.491,19.982,45.491,45.491
		C-2260.388,518.639-2280.37,538.615-2305.879,538.615z"/>
</g>
<g>
	<linearGradient id="SVGID_1_" gradientUnits="userSpaceOnUse" x1="-1461.2744" y1="782.085" x2="-1679.8138" y2="1093.5039">
		<stop  offset="0" style="stop-color:#1FE3A9"/>
		<stop  offset="1" style="stop-color:#1FD0E7"/>
	</linearGradient>
	<circle fill-rule="evenodd" clip-rule="evenodd" fill="url(#SVGID_1_)" cx="-1571.825" cy="939.618" r="193.954"/>
	<linearGradient id="SVGID_2_" gradientUnits="userSpaceOnUse" x1="-1816.7578" y1="453.0576" x2="-1816.7578" y2="1059.543">
		<stop  offset="0" style="stop-color:#FDD603"/>
		<stop  offset="1" style="stop-color:#FC71C8"/>
	</linearGradient>
	<circle fill-rule="evenodd" clip-rule="evenodd" fill="url(#SVGID_2_)" cx="-1816.757" cy="748.514" r="303.243"/>
	<linearGradient id="SVGID_3_" gradientUnits="userSpaceOnUse" x1="-1408.1357" y1="62.9946" x2="-1830.7307" y2="854.6179">
		<stop  offset="0" style="stop-color:#15BAFE"/>
		<stop  offset="1" style="stop-color:#046AFE"/>
	</linearGradient>
	<circle fill="url(#SVGID_3_)" cx="-1620.149" cy="460.148" r="460.149"/>
	<g>
		<path fill-rule="evenodd" clip-rule="evenodd" fill="#FEFEFE" d="M-1472.409,589.982c0.618,9.272,2.333,18.439,2.245,27.789
			c-0.223,23.485-11.246,34.922-34.751,36.29c-29.025,1.691-58.083,1.411-87.128,1.845c-18.144,0.271-36.286,0.466-54.429,0.693
			c-24.027-0.392-48.055-0.78-72.081-1.18c-12.468-0.209-24.909-0.568-37.258-2.7c-21.425-3.696-29.056-21.786-24.794-40.484
			c1.15-5.044,1.32-10.312,1.939-15.478c2.628-12.135,4.81-24.389,7.987-36.379c4.983-18.808,13.013-35.791,31.41-45.462
			c16.429-5.819,32.753-11.965,49.315-17.377c20.904-6.832,29.415-21.971,30.18-42.788c0.321-1.532,0.661-3.062,0.96-4.601
			c0.881-4.529-0.709-5.765-5.411-5.225c-5.712,0.655-11.596,1.896-17.453,0.075c0.953-2.964,4.401-3.698,4.911-7.115
			c-9.913-1.896-19.806-3.787-29.528-5.646c-0.081-1.022-0.3-1.658-0.118-1.812c11.134-9.326,11.799-20.26,7.624-33.72
			c-6.72-21.656-7.628-44.116-0.488-65.895c4.202-12.816,10.794-24.851,16.312-37.237c7.88-12.912,18.121-22.102,34.358-21.995
			c2.541,0.016,5.05,0.159,7.246,1.433c2.572,1.493,4.209,0.352,5.676-1.582c6.196-8.163,15.398-8.162,23.923-7.445
			c23.131,1.943,38.942,15.114,49.871,34.905c1.074,1.949,2.334,3.797,3.509,5.69c6.452,14.082,11.408,28.499,13.344,44.071
			c2.189,17.612-2.636,34.295-5.123,51.284c-1.658,11.313-3.736,22.326,9.328,29.899c-10.286,4.848-20.044,6.484-29.811,8.829
			c1.087,3.552,5.033,4.475,6.733,8.179c-5.144-0.442-9.456-0.613-13.706-1.219c-11.188-1.593-11.404-1.642-10.096,9.636
			c1.229,10.591,2.774,21.2,10.362,29.627c3.286,5.068,8.541,7.459,13.808,9.462c11.23,4.275,22.479,8.603,33.979,12.05
			c29.388,8.813,46.435,28.485,52.494,58.158C-1475.346,572.999-1473.953,581.506-1472.409,589.982z"/>
		<path fill-rule="evenodd" clip-rule="evenodd" fill="#FEFEFE" d="M-1958.093,555.713c10.824-13.513,26.495-19.68,41.223-27.324
			c14.07-7.304,28.439-14.042,41.74-22.813c4.65-3.065,7.091-7.131,8.882-11.992c3.467-8.622,2.116-17.895,3.605-26.785
			c0.248-1.478-0.522-2.633-1.496-3.638c-7.291-7.519-10.172-16.977-11.917-26.95c-0.348-1.993-0.816-3.825-2.574-5.331
			c-10.129-8.68-9.412-20.302-8.396-31.962c0.04-0.45,0.007-1.13,0.271-1.305c10.541-6.962,1.903-16.693,3.622-24.911
			c0.029-4.087,0.361-8.199,0.038-12.26c-1.95-24.5,24.067-55.419,57.729-49.557c12.307,2.144,23.861,5.097,33.493,12.937
			c11.617,9.457,15.343,23.064,16.876,37.2c1.028,9.479,0.887,19.081-0.786,28.552c-0.506,2.859-0.901,5.068,2.975,6.151
			c2.986,0.835,3.343,4.17,3.226,6.909c-0.414,9.558-1.058,19.097-7.067,27.219c-4.557,0.747-4.444,4.728-4.964,7.829
			c-1.622,9.648-5.096,18.323-12.099,25.334c-1.702,1.704-2.651,3.369-2.309,5.983c0.767,5.842,1.276,11.728,1.666,17.609
			c0.799,12.005,7.468,19.507,18.091,24.083c1.522,0.95,2.984,2.019,4.579,2.82c2.482,1.248,2.527,2.394,0.729,4.565
			c-17.569,21.2-22.574,47.065-26.912,73.159c-1.447,8.961-3.12,17.895-4.237,26.896c-0.472,3.791-1.373,5.643-5.66,5.634
			c-45.695-0.081-91.401,1.201-137.07-1.26c-3.38-0.182-6.782-0.829-10.067-1.671c-12.354-3.166-16.226-9.362-14.35-22.017
			c1.815-12.243,2.342-24.68,7.071-36.425C-1961.126,559.776-1958.329,558.58-1958.093,555.713z"/>
		<path fill-rule="evenodd" clip-rule="evenodd" fill="#FEFEFE" d="M-1373.204,481.959c0.608,9.326,6.983,14.055,14.327,18.062
			c15.998,8.736,32.986,15.35,49.423,23.142c16.776,7.952,31.881,17.934,36.154,37.719c3.079,14.255,3.706,28.778,0.948,43.198
			c-2.036,10.652-10.486,16.813-23.884,18.589c-9.728,1.29-19.516,0.976-29.269,1.524c-37.412-0.205-74.826-0.618-112.236-0.428
			c-7.105,0.036-9.971-1.837-10.393-9.015c-0.409-6.969-2.092-13.865-3.215-20.793c-5.298-31.338-10.715-62.625-36.61-85.18
			c2.055-1.27,3.759-2.324,5.465-3.38c23.581-8.487,33.806-25.305,30.759-50.756c-0.152-1.261-0.865-2.62-1.703-3.605
			c-8.186-9.633-7.226-23.439-16.078-33.265c-4.772-5.297-4.752-14.435-5.941-22.044c-0.531-3.402-0.171-8.039,3.289-8.867
			c6.056-1.45,4.23-5.281,4.042-8.815c-0.938-17.674-2.216-35.353,1.473-52.897c2.395-8.201,7.161-13.245,16.172-14.763
			c5.997-1.012,10.326-6.48,16.307-8.475c21.316-7.107,56.539-3.004,70.599,21.352c4.978,8.622,6.554,18.093,7.562,27.741
			c0.107,1.023-0.24,2.556-0.955,3.131c-7.229,5.814-4.446,13.96-5.149,21.287c-0.487,4.749-1.935,9.445,3.999,12.613
			c2.328,1.243,2.238,5.232,1.773,8.236c-1.11,7.172-1.282,15.406-5.476,20.81c-6.498,8.368-6.601,18.747-11.464,27.299
			C-1380.503,457.073-1376.634,469.448-1373.204,481.959z"/>
	</g>
</g>
<g>
	<path fill-rule="evenodd" clip-rule="evenodd" fill="#F32C4C" d="M-4819.589,1245.002
		c264.436,0.621,479.519,216.229,479.589,479.902c0.071,262.81-215.164,483.479-486.219,480.057
		c-262.077-3.309-474.509-217.681-473.779-481.16C-5299.264,1459.137-5083.566,1244.383-4819.589,1245.002z M-4819.58,1584.744
		c-0.846-0.345-1.11-0.365-1.184-0.493c-1.017-1.812-2.046-3.617-3-5.461c-11.731-22.68-25.843-43.663-47.913-57.396
		c-34.269-21.318-72.052-25.648-110.814-17.769c-75.703,15.388-126.893,92.415-113.806,168.67
		c5.689,33.159,18.217,63.516,35.198,92.204c30.604,51.705,70.676,95.371,115.969,134.354
		c34.084,29.336,70.982,54.554,111.877,73.751c8.994,4.221,16.83,5.398,25.566,0.063c5.3-3.237,11.312-5.283,16.845-8.167
		c40.183-20.94,76.316-47.614,109.759-78.029c45.686-41.549,85.515-87.84,113.411-143.384
		c17.328-34.499,29.237-70.565,24.348-109.993c-6.933-55.921-36.333-96.323-86.876-120.581
		c-30.634-14.702-63.243-14.899-96.068-8.187c-29.796,6.094-54.069,20.938-72.363,45.447
		C-4806.765,1560.67-4813.521,1572.344-4819.58,1584.744z"/>
	<path fill-rule="evenodd" clip-rule="evenodd" fill="#FEFEFE" d="M-4819.58,1584.744c6.06-12.4,12.815-24.074,20.948-34.969
		c18.294-24.51,42.567-39.354,72.363-45.447c32.825-6.713,65.435-6.516,96.068,8.187c50.543,24.258,79.943,64.66,86.876,120.581
		c4.89,39.428-7.02,75.494-24.348,109.993c-27.896,55.544-67.726,101.835-113.411,143.384
		c-33.442,30.415-69.576,57.089-109.759,78.029c-5.533,2.884-11.545,4.93-16.845,8.167c-8.736,5.335-16.572,4.157-25.566-0.063
		c-40.895-19.197-77.793-44.415-111.877-73.751c-45.293-38.983-85.365-82.649-115.969-134.354
		c-16.981-28.688-29.509-59.045-35.198-92.204c-13.087-76.255,38.103-153.282,113.806-168.67
		c38.763-7.88,76.546-3.55,110.814,17.769c22.07,13.732,36.182,34.716,47.913,57.396c0.954,1.844,1.983,3.649,3,5.461
		C-4820.69,1584.379-4820.426,1584.399-4819.58,1584.744z"/>
</g>
<g>
	<g>
		<path fill="#FF7546" d="M-3937.935,1427.146c-55.692,0-101.017,45.324-101.017,101.014c0,55.694,45.324,101.041,101.017,101.041
			c53.437,0,98.579-46.284,98.579-101.041C-3839.355,1473.407-3884.498,1427.146-3937.935,1427.146z M-3893.024,1574.481
			c-12.054,12.652-27.997,19.602-44.91,19.602c-36.368,0-65.949-29.556-65.949-65.924c0-36.367,29.581-65.947,65.949-65.947
			c16.913,0,32.856,6.975,44.91,19.627c11.996,12.567,18.604,29.02,18.604,46.32
			C-3874.42,1545.487-3881.028,1561.914-3893.024,1574.481z"/>
		<path fill="#FF7546" d="M-3568.487,1428.228l-78.992,199.487h189.272l-73.783-199.487H-3568.487z M-3566.146,1596.87h-32.974
			l48.449-127.07l17.924,51.506L-3566.146,1596.87z M-3514.646,1568.28l10.771,28.59h-23.178L-3514.646,1568.28z"/>
		<path fill="#FF7546" d="M-4085.977,1571.833c-0.217,0.203-20.888,22.159-52.766,22.159c-35.734,0-62.689-28.872-62.689-67.143
			c0-37.549,26.254-64.791,62.439-64.791c29.075,0,49.183,18.383,49.371,18.562l5.114,4.791l19.301-29.118l-3.188-3.42
			c-1.021-1.075-25.082-26.242-71.658-26.242c-56.971,0-99.947,43.208-99.947,100.488c0,28.041,9.983,53.9,28.116,72.758
			c18.468,19.221,44.159,29.812,72.373,29.812c48.486,0,75.113-30.098,76.233-31.396l3.131-3.579l-20.996-28.121L-4085.977,1571.833
			z"/>
		<polygon fill="#FF7546" points="-3765.668,1428.228 -3806.787,1428.228 -3806.787,1627.715 -3685.464,1627.715 -3685.464,1590.69 
			-3765.668,1590.69 		"/>
		<path fill="#FF7546" d="M-3304.551,1522.153c10.95-9.319,17.229-24.178,17.229-39.932c0-31.738-23.984-53.994-59.621-53.994
			h-70.022v199.487h71.603c39.101,0,65.362-23.984,65.362-59.032C-3280,1548.486-3289.365,1530.961-3304.551,1522.153z
			 M-3381.999,1465.254h34.511c13.882,0,21.845,8.673,21.845,22.223c0,13.418-8.356,23.012-21.299,23.012h-35.057V1465.254z
			 M-3344.047,1590.69h-37.952v-49.382h37.677c15.837,0,26.051,9.17,26.051,24.826
			C-3318.271,1582.143-3327.917,1590.69-3344.047,1590.69z"/>
	</g>
	<g>
		<g>
			<path d="M-3918.565,1330.105c0.335,1.684-0.883,2.609-3.663,2.777c-1.854,0.083-3.747-0.715-5.685-2.399
				c-1.602-1.433-2.863-3.746-3.788-6.946c-0.844-2.947-1.349-7.115-1.517-12.505c-0.17-6.063-0.464-10.232-0.885-12.506
				c-1.096,3.788-2.905,9.432-5.431,16.926c-1.517,4.126-2.443,6.486-2.779,7.074c-1.348,2.611-3.031,3.788-5.054,3.536
				c-4.041-0.925-7.157-3.198-9.346-6.82c-1.434-2.356-2.78-6.105-4.042-11.243c-1.348-5.641-2.485-9.429-3.411-11.368
				c-3.622,17.602-7.497,30.738-11.621,39.412c-0.59,1.262-2.359,1.177-5.305-0.253c-2.444-1.182-3.665-2.865-3.665-5.054
				c0-0.757,0.885-3.452,2.654-8.084c0.758-2.021,3.703-11.747,8.842-29.178c1.768-6.064,3.619-16.717,5.558-31.959
				c0.168-0.167,0.588-1.052,1.263-2.653c0.42-1.178,1.179-1.769,2.274-1.769c2.862,0,4.841,0.549,5.937,1.642
				c0,2.445,0.398,6.381,1.199,11.812c0.8,5.432,1.201,9.537,1.201,12.315c0.758,4.718,1.472,9.475,2.146,14.274
				c0.926,5.39,2.61,9.81,5.054,13.264c8.084-22.485,13.22-40.253,15.41-53.307c0.335-1.345,1.6-2.021,3.789-2.021
				c3.115,0,4.884,1.012,5.306,3.032c0.588,3.031,0.884,6.525,0.884,10.484c0,1.263-0.085,4.041-0.253,8.335
				c-0.084,3.455-0.084,6.275,0,8.465C-3922.734,1303.158-3921.092,1318.063-3918.565,1330.105z"/>
			<path d="M-3866.776,1321.895c0.506,1.349,0.758,2.526,0.758,3.537c0,1.686-0.716,3.158-2.147,4.422
				c-1.434,1.262-2.401,1.85-2.905,1.768c-4.128-0.759-6.737-4.084-7.831-9.979c-1.181-6.398-2.571-11.747-4.169-16.041
				c-2.863,0.251-5.728,0.504-8.589,0.757c-3.286,0.422-5.854,1.433-7.706,3.031c-0.929,2.611-2.147,7.244-3.662,13.896
				c-1.434,6.146-2.824,10.819-4.17,14.021c-0.675,1.516-2.104,1.936-4.294,1.263c-2.779-0.927-4.253-2.189-4.421-3.788
				c-0.253-3.202,0.674-7.495,2.778-12.885c2.527-6.146,3.917-10.524,4.168-13.138c0.084-0.758-0.463-1.599-1.641-2.525
				c-1.182-0.926-1.77-1.642-1.77-2.147c0-0.42,0.19-0.862,0.568-1.327c0.379-0.461,1.263-0.841,2.652-1.136
				c1.391-0.294,2.168-0.737,2.337-1.327c1.517-4.21,3.917-12.041,7.2-23.495c2.78-9.935,5.263-17.558,7.453-22.862
				c0.506-1.179,1.558-1.769,3.157-1.769c1.179,0,2.23,0.378,3.159,1.137c2.355,2.021,3.871,5.052,4.547,9.096
				c0.505,3.453,0.967,6.905,1.39,10.357C-3875.704,1292.632-3871.324,1309.01-3866.776,1321.895z M-3885.218,1297.769
				c-0.253-3.115-0.803-6.61-1.644-10.483c-0.843-3.368-1.643-6.736-2.399-10.107c-2.526,6.991-4.718,13.98-6.568,20.97
				C-3894.483,1297.895-3890.946,1297.769-3885.218,1297.769z"/>
			<path d="M-3825.725,1300.042c-0.843,1.938-1.643,3.874-2.4,5.81c-1.011,2.273-2.105,4.087-3.284,5.433
				c-2.611,3.283-5.222,6.526-7.831,9.726c-3.117,3.875-5.937,6.568-8.464,8.085c-0.843,1.011-1.769,2.062-2.778,3.157
				c-1.011,1.093-2.021,1.643-3.032,1.643c-0.506,0-1.095-0.127-1.769-0.379c-0.674-0.253-1.411-0.55-2.21-0.885
				c-0.801-0.338-1.37-0.884-1.706-1.642c-0.253-3.537-0.379-7.325-0.379-11.369c0-4.124,0.168-10.272,0.506-18.442
				c0.335-8.166,0.505-14.313,0.505-18.441c0-5.474-0.211-10.484-0.632-15.031c-0.085-0.082-1.011-1.052-2.778-2.906
				c-1.095-1.094-1.642-2.104-1.642-3.03c0-0.42,0.082-0.841,0.253-1.264c0.42-1.011,1.346-1.599,2.778-1.77
				c1.093-0.167,2.188-0.294,3.284-0.379c7.074,1.517,14.483,5.476,22.231,11.875c2.021,1.686,3.663,3.454,4.927,5.305
				c4.042,5.98,6.063,11.58,6.063,16.801C-3824.082,1295.032-3824.631,1297.601-3825.725,1300.042z M-3834.82,1286.526
				c-0.758-5.305-5.264-9.979-13.515-14.021c-0.591,14.064-0.759,28.97-0.506,44.717c9.516-9.517,14.273-18.569,14.273-27.159
				C-3834.567,1288.884-3834.652,1287.706-3834.82,1286.526z"/>
			<path d="M-3774.694,1264.799c-3.115,1.264-7.706,2.739-13.769,4.422c-6.063,1.686-10.654,3.158-13.769,4.422
				c-0.757,2.189-1.306,7.073-1.642,14.652c1.347,0.505,2.904,0.757,4.674,0.757c1.264,0,3.241-0.209,5.937-0.631
				c2.695-0.421,4.673-0.632,5.937-0.632c2.357,0,4.378,0.506,6.063,1.515c1.179,1.688,1.769,2.78,1.769,3.286
				c0,0.589-0.296,1.054-0.884,1.389c-0.171,0.085-0.759,0.675-1.77,1.768c-0.675,0.759-1.515,1.097-2.524,1.011
				c-1.77,0.424-5.013,0.676-9.729,0.759c-3.958,0.085-7.116,0.591-9.473,1.517c-1.602,6.231-2.4,11.159-2.4,14.777
				c0,2.444,0.335,4.38,1.011,5.811c3.958,2.779,10.82,3.96,20.591,3.538c0.673,0,1.389-0.317,2.146-0.948
				c0.758-0.632,1.39-0.947,1.896-0.947c2.357-0.506,3.916,1.264,4.673,5.305c0.253,1.349,0.021,2.589-0.693,3.727
				c-0.718,1.138-1.749,1.747-3.095,1.831c-10.189,0.337-19.033-0.463-26.527-2.398c-2.357-0.591-4.506-1.896-6.442-3.917
				c-1.937-2.02-3.03-4.294-3.283-6.82c-0.758-7.325-0.758-13.895,0-19.704c-2.359-1.6-3.41-3.16-3.159-4.675
				c0.084-0.758,0.737-1.453,1.959-2.085c1.22-0.631,1.915-1.282,2.085-1.958c0.168-0.673,0.504-4.673,1.01-11.999
				c-4.717-0.927-7.031-2.694-6.946-5.306c0.082-2.442,1.557-4.378,4.42-5.811c2.693-1.093,5.388-2.189,8.084-3.284
				c3.114-1.599,7.03-3.031,11.748-4.295c4.124-1.094,8.252-2.146,12.379-3.156c0.421-0.084,0.925-0.127,1.516-0.127
				c2.273,0,4.926,0.884,7.957,2.651c0.083,0.338,0.294,0.97,0.632,1.896c0.336,0.927,0.506,1.601,0.506,2.021
				C-3773.81,1263.832-3774.106,1264.379-3774.694,1264.799z"/>
			<path d="M-3653.938,1262.904c1.936,0.928,2.905,2.273,2.905,4.043c0,1.18-0.505,2.778-1.517,4.799
				c-1.262,2.697-1.938,4.212-2.021,4.549c-2.021,6.231-3.937,15.707-5.747,28.421c-1.812,12.717-3.643,22.063-5.494,28.041
				c-0.506,1.685-1.938,2.527-4.295,2.527c-1.096,0-2.064-0.211-2.905-0.632c-3.117-1.602-5.349-4.717-6.695-9.348
				c-0.084-0.42-0.884-4.63-2.399-12.631c-0.759-4.211-1.475-8.716-2.147-13.516c-1.18,2.357-2.737,8.209-4.674,17.558
				c-1.686,8.084-3.662,13.22-5.938,15.409c-0.674,0.673-1.853,0.758-3.537,0.253c-2.525-0.337-4.211-1.852-5.052-4.547
				c-0.506-2.357-1.011-4.714-1.516-7.074c-1.516-6.062-2.717-15.493-3.6-28.294c-0.885-12.799-2.085-22.147-3.601-28.042
				c-0.253-1.011-0.126-1.978,0.379-2.905c0.506-0.926,1.22-1.431,2.147-1.517c0.673-0.167,1.346-0.252,2.021-0.252
				c2.357,0,4.169,1.055,5.433,3.157c1.346,7.074,2.946,20.842,4.8,41.307c0.673-1.432,1.453-4.106,2.336-8.021
				c0.885-3.917,1.747-6.759,2.591-8.527c0.757-3.198,1.472-6.397,2.146-9.6c1.01-3.872,3.114-5.811,6.316-5.811
				c0.841,0,1.768,0.127,2.779,0.379c0.082,0.506,0.461,0.803,1.136,0.885c0.673,0.085,1.052,0.212,1.137,0.379
				c1.853,4.127,3.241,9.643,4.169,16.547c1.431,9.77,2.314,15.41,2.652,16.926c1.347-7.493,2.735-14.945,4.169-22.357
				c1.769-8.673,4.042-15.745,6.82-21.221c0.588-1.094,1.811-1.642,3.663-1.642
				C-3656.128,1262.147-3654.948,1262.4-3653.938,1262.904z"/>
			<path d="M-3631.327,1264.042c0.167,2.443,0.253,4.97,0.253,7.578c0,5.728-0.591,14.359-1.769,25.896
				c-1.181,11.538-1.769,20.254-1.769,26.148c0,2.189,0.041,4.335,0.126,6.441c-0.759,2.356-2.399,3.492-4.926,3.41
				c-3.622-0.171-5.602-1.727-5.937-4.674c-0.338-2.947-0.506-6.062-0.506-9.347c0-5.727,0.695-14.273,2.084-25.643
				c1.39-11.368,2.085-19.873,2.085-25.516c0-2.189-0.085-4.338-0.253-6.442c0.841-1.599,2.273-2.4,4.294-2.4
				c1.6,0,3.199,0.464,4.801,1.39c0.335-0.253,0.588-0.379,0.757-0.379c0.253,0,0.379,0.423,0.379,1.264
				c-0.085,1.011-0.085,1.601,0,1.768C-3631.623,1263.789-3631.496,1263.958-3631.327,1264.042z"/>
			<path d="M-3560.591,1249.264c-0.758,3.03-2.19,4.799-4.295,5.305c-5.474,1.349-14.989,3.116-28.547,5.305
				c-1.685,20.97-2.525,38.444-2.525,52.421c0,5.307,0.082,10.529,0.253,15.663c0.082,1.6,0,2.82-0.253,3.664
				c-0.423,1.345-1.264,1.977-2.527,1.895c-2.442-0.086-4.465-1.117-6.063-3.096c-1.601-1.979-2.484-4.188-2.652-6.63
				c-0.169-3.115-0.253-6.399-0.253-9.854c0-5.558,0.379-14.355,1.138-26.399c0.758-11.535,1.093-20.336,1.011-26.399
				c-2.274-0.168-5.433,0.044-9.474,0.632c-4.634,0.675-7.832,1.011-9.601,1.011c-4.125,0-7.494-1.104-10.105-3.312
				c-1.01-2.206-1.515-3.354-1.515-3.439c0-0.593,0.295-1.229,0.883-1.909c2.696-0.934,8.211-1.782,16.548-2.548
				c7.327-0.765,12.8-2.121,16.422-4.076c2.946,1.011,6.315,1.517,10.104,1.517s7.409-0.462,10.863-1.391
				c1.01-0.082,3.578-0.673,7.705-1.768c3.031-0.758,5.558-1.011,7.579-0.758c1.515,0,2.147,0.632,1.895,1.894
				C-3561.728,1246.988-3560.591,1247.747-3560.591,1249.264z"/>
			<path d="M-3534.191,1257.347c-0.17,7.496-1.39,19.369-3.663,35.622c-2.105,15.409-3.158,27.241-3.158,35.494
				c0,2.61,0.083,5.094,0.253,7.453c0,0.588-0.253,1.155-0.758,1.705c-0.506,0.547-1.095,0.82-1.769,0.82
				c-2.358,0-3.916-0.211-4.674-0.631c-3.2-1.854-4.8-5.349-4.8-10.484c0-1.012,0.063-2.59,0.189-4.736
				c0.127-2.147,0.189-3.727,0.189-4.736c0-1.685,0.209-4.253,0.631-7.706c0.421-3.452,0.632-6.104,0.632-7.959
				c-1.18,0.085-2.801-0.082-4.862-0.505c-2.064-0.421-3.56-0.631-4.485-0.631c-1.095,0-2.146,0.169-3.157,0.504
				c-2.021,6.654-3.201,16.466-3.537,29.433c-2.863,1.179-5.643,1.052-8.337-0.379c-1.938-1.01-2.905-3.032-2.905-6.063
				c0-0.673,0.063-1.58,0.189-2.716c0.127-1.136,0.189-1.832,0.189-2.085c0.253-4.547,1.221-13.557,2.905-27.03
				c1.432-11.284,2.104-20.252,2.021-26.906c0-0.926,0.653-1.515,1.959-1.768c1.304-0.253,2.04-0.506,2.21-0.758
				c0.506,0.59,1.726,1.095,3.664,1.515c1.599,0.338,2.567,1.096,2.905,2.274c0.673,2.106,1.011,4.465,1.011,7.074
				c0,1.854-0.274,4.779-0.821,8.779c-0.55,4-0.821,7.053-0.821,9.157c1.011,0.759,2.273,1.222,3.789,1.391
				c1.012,0.169,2.441,0.21,4.294,0.125c2.442-0.168,3.916-0.252,4.422-0.252c2.104-8.843,3.957-20.294,5.558-34.359
				c0.335-2.945,1.391-4.42,3.158-4.42C-3537.308,1254.147-3534.781,1255.073-3534.191,1257.347z"/>
		</g>
		<g>
			<path d="M-4002.6,1372.395c0,0,1.885-0.146,5.416-0.421c3.533-0.262,8.712-0.704,15.309-1.152
				c6.596-0.453,14.604-1.001,23.792-1.632c9.188-0.602,19.554-1.285,30.866-1.932c11.312-0.677,23.564-1.41,36.528-2.073
				c12.965-0.686,26.634-1.452,40.781-2.085c14.146-0.643,28.761-1.421,43.617-2.003c14.855-0.61,29.948-1.232,45.04-1.853
				c15.096-0.53,30.191-1.06,45.051-1.581c14.858-0.563,29.488-0.887,43.644-1.324c14.154-0.442,27.841-0.728,40.82-1.022
				c12.978-0.323,25.251-0.53,36.58-0.709c11.329-0.214,21.718-0.325,30.925-0.419c9.208-0.068,17.236-0.129,23.848-0.18
				c6.611-0.053,11.809-0.005,15.351-0.012c3.543,0.007,5.433,0.009,5.433,0.009s-1.884,0.147-5.416,0.422
				c-3.533,0.264-8.711,0.705-15.309,1.155c-6.594,0.454-14.604,1.004-23.79,1.636c-9.189,0.605-19.556,1.285-30.868,1.934
				c-11.31,0.683-23.563,1.41-36.528,2.074c-12.964,0.692-26.633,1.449-40.781,2.083c-14.146,0.64-28.758,1.431-43.616,1.998
				c-14.856,0.609-29.948,1.229-45.04,1.849c-15.096,0.529-30.192,1.058-45.052,1.577c-14.857,0.55-29.488,0.885-43.643,1.319
				c-14.154,0.444-27.843,0.72-40.821,1.021c-12.978,0.324-25.25,0.524-36.58,0.71c-11.329,0.216-21.717,0.322-30.924,0.421
				c-9.21,0.069-17.236,0.131-23.848,0.183c-6.611,0.053-11.81,0.007-15.352,0.013
				C-4000.709,1372.396-4002.6,1372.395-4002.6,1372.395z"/>
		</g>
	</g>
</g>
<g>
	<path d="M-1160,1245l-102.339,76.754l-102.921,240.161h-82.771l-32.502-70.437h21.227c38.836,0,70.42-31.584,70.42-70.42v-70.42
		h35.219V1245h-105.639v105.639h35.219v70.42c0,19.426-15.792,35.219-35.219,35.219h-37.478l-45.011-97.522l53.922-26.943
		l-176.534-75.669l-41.492,145.215c-1.129-86.414-71.681-156.357-158.351-156.357c-87.377,0-158.458,71.072-158.458,158.449
		c0,52.811,26.74,102.33,70.429,131.611v26.846h-42.648l-2.743,14.283c-8.558,44.385-9.343,89.917-2.355,135.404L-2120,1925.642
		l132.785,30.278v221.872h176.066v158.458h422.545V2090.9c121.378-87.181,193.49-227.359,193.403-376.906l-0.036-64.227
		c0-24.208-2.275-48.91-6.792-73.437l-2.63-14.425h-34.565L-1160,1371.76V1245z M-1424.087,1280.21h35.201v35.21h-35.201V1280.21z
		 M-1195.2,1339.734l-19.479-9.74l19.479-14.574V1339.734z M-1486.813,1561.906h-66.785l-32.007-70.428h66.29L-1486.813,1561.906z
		 M-1624.283,1491.479l32.008,70.437h-78.307v-35.219c0-19.418,15.792-35.218,35.218-35.218H-1624.283z M-1641.548,1304.26
		l69.987,29.986l-16.515,8.275l52.51,113.756h-66.044l-42.911-94.364l-15.758,7.87L-1641.548,1304.26z M-1661.425,1409.756
		l21.35,46.988c-36.612,2.462-65.718,32.714-65.718,69.952v35.21h-70.428v-26.846c35.236-23.609,59.145-60.46,67.208-101.502
		L-1661.425,1409.756z M-1925.848,1510.058c-38.023-22.021-61.65-62.868-61.65-106.608c0-67.941,55.308-123.239,123.249-123.239
		c67.948,0,123.247,55.298,123.247,123.239c0,43.74-23.626,84.605-61.642,106.626l-8.787,5.073v46.749h-35.21v-108.885
		c20.433-7.288,35.21-26.652,35.21-49.581c0-29.114-23.697-52.811-52.818-52.811c-29.114,0-52.82,23.696-52.82,52.811
		c0,22.929,14.777,42.293,35.21,49.581v108.885h-35.21v-46.749L-1925.848,1510.058z M-1881.859,1403.449
		c0-9.714,7.887-17.602,17.61-17.602c9.722,0,17.608,7.888,17.608,17.602c0,9.722-7.887,17.609-17.608,17.609
		C-1873.973,1421.059-1881.859,1413.153-1881.859,1403.449z M-1230.454,1649.785l0.034,64.244
		c0.106,141.042-69.361,273.086-185.78,353.228l-7.622,5.25v228.524h-352.134v-158.448h-176.059V1927.82l-114.249-26.034
		l102.992-183.77l-1.032-6.122c-6.537-38.519-6.96-77.063-1.252-114.796h13.277h176.058h541.92
		C-1231.743,1614.761-1230.454,1632.405-1230.454,1649.785z M-1326.971,1561.906l87.765-204.774l39.029,19.506l-77.177,185.269
		H-1326.971z"/>
	<path d="M-1829.031,1702.755c-29.132,0-52.828-23.697-52.828-52.812h-35.21c0,48.541,39.498,88.029,88.038,88.029
		s88.029-39.488,88.029-88.029h-35.219C-1776.221,1679.058-1799.917,1702.755-1829.031,1702.755z"/>
</g>
<g id="Layer_3">
	<path d="M-2791.291,2268.186c-7.908,0-15.023-3.747-19.498-10.324c-6.057-8.873-14.323-20.991,46.776-178.552l-28.943-2.638
		c-10.531-0.95-19.553-6.428-24.728-15.022c-5.175-8.608-5.806-19.15-1.728-28.896l78.424-187.438
		c6.188-14.813,22.394-25.564,38.508-25.564l75.761,1.604c10.777,0.22,20.192,5.175,25.839,13.59
		c5.643,8.379,6.685,18.963,2.857,29.015l-36.866,96.767l29.217,2.635c11.534,1.024,20.677,7.137,25.121,16.736
		c4.437,9.539,3.175,20.474-3.469,29.957c-10.953,15.561-49.728,70.499-89.396,124.732
		C-2770.97,2268.186-2777.781,2268.186-2791.291,2268.186z M-2744.17,2036.949c10.462,0.951,19.456,6.385,24.686,14.885
		c5.244,8.487,6.04,18.961,2.21,28.721c-10.572,26.927-20.977,54.809-29.806,79.799c30.713-40.699,71.254-96.467,112.884-155.39
		l-20.236-1.871c-10.394-0.931-19.374-6.329-24.659-14.771c-5.285-8.446-6.164-18.905-2.43-28.677l36.053-94.655l-55.592-1.234
		l-71.354,170.588L-2744.17,2036.949z"/>
	<path d="M-2326.298,1480.67c1.017-7.347,1.552-14.73,1.552-22.132c0-85.098-65.159-154.323-145.229-154.323
		c-18.98,0-37.621,3.957-55.019,11.546c-30.3-43.642-82.183-70.761-138.57-70.761c-52.241,0-100.704,23.146-131.777,61.659
		c-15.951-7.608-33.033-11.546-50.414-11.546c-54.013,0-101.518,37.317-122.467,93.502c-7.674-1.596-15.45-2.405-23.284-2.405
		c-73.797,0-133.839,70.239-133.839,156.588c0,4.764,0.18,9.528,0.552,14.265c-34.422,24.576-55.206,64.01-55.206,106.443
		c0,72.535,60.053,131.561,133.85,131.561l695.21-0.138c73.426-1.868,130.94-71.585,130.94-158.743
		C-2220.003,1559.766-2265.672,1495.786-2326.298,1480.67z M-2663.856,1570.862c11.298,0,20.457,9.159,20.457,20.456
		c0,11.298-9.159,20.457-20.457,20.457s-20.457-9.159-20.457-20.457C-2684.313,1580.021-2675.151,1570.862-2663.856,1570.862z
		 M-2780.716,1635.521c11.297,0,20.456,9.159,20.456,20.457c0,11.297-9.159,20.456-20.456,20.456
		c-11.298,0-20.457-9.159-20.457-20.456C-2801.173,1644.681-2792.014,1635.521-2780.716,1635.521z M-3086.956,1591.164l15.568-8.332
		l-2.992-17.439c-1.278-7.385-1.921-14.993-1.921-22.614c0-59.298,38.042-107.544,84.794-107.544c9.884,0,19.743,2.279,29.297,6.798
		l28.216,13.317l6.271-30.574c9.748-47.477,43.453-80.634,81.967-80.634c14.921,0,29.737,5.188,42.809,15.021l2.824,2.116v147.261
		h-125.445c-7.853-17.807-25.617-30.272-46.336-30.272c-27.995,0-50.689,22.708-50.689,50.688c0,27.995,22.694,50.703,50.689,50.703
		c20.719,0,38.455-12.449,46.325-30.258h125.459v59.322c-11.545,5.111-20.812,14.361-25.907,25.896H-3125.4
		C-3118.398,1616.454-3105.037,1600.869-3086.956,1591.164z M-2951.188,1529.948c0,11.298-9.159,20.457-20.457,20.457
		c-11.297,0-20.456-9.159-20.456-20.457c0-11.297,9.159-20.456,20.456-20.456
		C-2960.348,1509.492-2951.188,1518.651-2951.188,1529.948z M-2550.56,1745.922l-495.597,0.083
		c-42.533,0-77.503-30.727-83.543-70.484h303.7c7.853,17.792,25.62,30.246,46.309,30.246c28.022,0,50.703-22.696,50.703-50.689
		c0-20.702-12.441-38.458-30.25-46.312V1343.58h-2.207c17.71-25.4,45.788-42.562,77.641-47.725v247.929
		c-17.806,7.869-30.26,25.62-30.26,46.324c0,27.982,22.693,50.688,50.689,50.688c27.995,0,50.7-22.708,50.7-50.688
		c0-20.704-12.463-38.455-30.271-46.324v-247.847c38.045,6.305,70.818,29.616,86.524,63.211l12.19,26.044l23.782-16.144
		c15.225-10.325,32.691-15.775,50.473-15.775c53.021,0,96.188,47.229,96.188,105.265c0,11.752-1.965,23.49-5.657,34.956h-104.372
		c-7.853-17.795-25.604-30.264-46.324-30.264c-27.979,0-50.689,22.711-50.689,50.689c0,20.705,12.466,38.455,30.271,46.339V1745.922
		L-2550.56,1745.922z M-2530.296,1534.649c-11.298,0-20.457-9.159-20.457-20.457c0-11.297,9.159-20.456,20.457-20.456
		c11.297,0,20.456,9.159,20.456,20.456C-2509.84,1525.49-2518.999,1534.649-2530.296,1534.649z M-2397.938,1588.75
		c-28.028,0-50.694,22.684-50.694,50.69c0,27.992,22.666,50.689,50.694,50.689c20.702,0,38.47-12.455,46.337-30.261h80.492
		c-8.36,48.193-41.434,85.028-80.479,85.998l-158.099,0.027v-185.636c11.534-5.078,20.788-14.348,25.894-25.894h160.887v-0.355
		c27.529,14.018,47.986,46.121,52.733,84.987h-81.427C-2359.481,1601.199-2377.235,1588.75-2397.938,1588.75z M-2378.164,1641.165
		c0,11.297-9.159,20.456-20.456,20.456c-11.298,0-20.457-9.159-20.457-20.456c0-11.298,9.159-20.457,20.457-20.457
		C-2387.323,1620.708-2378.164,1629.867-2378.164,1641.165z"/>
</g>
<g>
	<polygon points="-4886.682,3264.376 -4910.629,3285.62 -4818.437,3389.304 -4818.436,3389.303 -4910.627,3285.62 	"/>
	<path d="M-4740,2516.998c0,35.061-22.175,64.867-53.871,75.676c31.697-10.809,53.873-40.615,53.873-75.676
		c0-44.184-35.804-79.998-80-79.998l0,0C-4775.803,2437-4740,2472.814-4740,2516.998z"/>
	<path d="M-4740,3067.663c0,35.062-22.175,64.868-53.871,75.677c31.697-10.809,53.873-40.614,53.873-75.677
		c0-44.184-35.804-79.997-80-79.997l0,0C-4775.803,2987.666-4740,3023.479-4740,3067.663z"/>
	<polygon points="-4753.469,3264.562 -4729.215,3285.427 -4773.825,3337.365 -4729.214,3285.427 	"/>
	<polygon points="-5220,2981 -5252,2981 -5252,3077 -4996,3077 -4996,3045 -5220,3045 	"/>
	<path d="M-5220,2693h383.993h32.002H-4524v-32h-280v-65.598c3.469-0.696,6.85-1.611,10.129-2.729
		c31.696-10.809,53.871-40.615,53.871-75.676c0-44.184-35.803-79.998-79.998-79.998h-0.001c-41.435,0-75.487,31.477-79.582,71.818
		c-0.273,2.689-0.413,5.418-0.413,8.18c0,38.688,26.994,70.979,63.994,78.404V2661h-416v96h32V2693z M-4867.996,2516.998
		c0-26.457,21.526-47.996,47.996-47.996c26.458,0,47.996,21.539,47.996,47.996c0,26.47-21.538,48.002-47.996,48.002
		C-4846.47,2565-4867.996,2543.468-4867.996,2516.998z"/>
	<polygon points="-4420,3045 -4660,3045 -4660,3077 -4388,3077 -4388,2789 -4420,2789 	"/>
	<path d="M-4404.003,2607.663c-35.357,0-64.004,28.646-64.004,64.003c0,35.357,28.646,64.004,64.004,64.004
		c35.356,0,64.003-28.646,64.003-64.004C-4340,2636.31-4368.646,2607.663-4404.003,2607.663z"/>
	<path d="M-5172.006,2867.669c0-35.363-28.634-64.003-63.991-64.003c-35.368,0-64.003,28.64-64.003,64.003
		c0,35.356,28.635,63.997,64.003,63.997C-5200.64,2931.666-5172.006,2903.025-5172.006,2867.669z"/>
	<path d="M-4753.469,3264.562l-50.531,58.814v-177.308c3.469-0.696,6.85-1.611,10.129-2.729
		c31.696-10.809,53.871-40.614,53.871-75.677c0-44.184-35.803-79.997-79.998-79.997h-0.001c-41.435,0-75.487,31.477-79.582,71.817
		c-0.273,2.689-0.413,5.418-0.413,8.18c0,38.689,26.994,70.979,63.994,78.405v175.359l-50.682-57.052l-23.945,21.244l92.191,103.683
		v0.001l44.61-51.938l44.61-51.938L-4753.469,3264.562z M-4867.996,3067.663c0-26.457,21.526-47.995,47.996-47.995
		c26.458,0,47.996,21.538,47.996,47.995c0,26.471-21.538,48.003-47.996,48.003
		C-4846.47,3115.666-4867.996,3094.134-4867.996,3067.663z"/>
</g>
<g>
	<g>
		<path d="M-3609.737,2791.822c5.924-8.457,7.094-18.114,3.202-26.483c-3.913-8.438-12.04-13.8-22.298-14.712l-37.086-3.347
			l40.941-107.452c3.434-9.025,2.53-18.464-2.479-25.895c-5.021-7.477-13.434-11.871-23.09-12.067l-79.382-1.687
			c-14.879,0.001-29.938,9.996-35.698,23.765l-82.157,196.39c-3.665,8.749-3.125,18.165,1.48,25.838
			c4.607,7.648,12.675,12.524,22.128,13.371l36.832,3.35l-2.359,6.086c-63.075,162.668-54.595,175.098-49.526,182.525
			c3.745,5.506,9.709,8.66,16.361,8.66c11.719,0,18.793,0,119.526-137.733C-3663.818,2868.393-3624.714,2813.091-3609.737,2791.822z
			 M-3791.783,2980.469l10.596-29.988c9.401-26.6,20.221-55.567,31.289-83.768c3.445-8.785,2.744-18.153-1.921-25.701
			c-4.677-7.59-12.74-12.432-22.13-13.289l-36.266-3.35l78.629-187.994l68.582,1.521l-40.27,105.68
			c-3.362,8.814-2.588,18.178,2.123,25.693c4.725,7.545,12.777,12.348,22.092,13.178l29.698,2.75l-4.909,6.951
			c-42.855,60.67-85.996,120.056-118.354,162.93L-3791.783,2980.469z"/>
	</g>
	<g>
		<path d="M-3280.186,2857.709c0-229.039-186.299-417.744-415.248-420.672c-1.791-0.018-3.561-0.037-5.336-0.037
			c-197.689,0-370.482,140.815-412.077,336.676c-10.285,48.332-11.568,98.179-3.845,148.301l-123.041,221.299l137.732,39.16V3407
			h183v128h35v-165h-183v-215.158l-119.039-34.041l107.494-192.146l-1.053-6.367c-8.068-47.708-7.231-95.141,2.54-140.998
			c38.339-180.617,198.632-310.09,381.116-307.655c209.041,2.672,379.103,174.981,379.103,384.091l0.054,66.776
			c0.092,146.614-72.189,283.864-193.202,367.145l-8.013,5.472V3535h0.214h36.6h0.187v-218.774
			c126-90.603,201.002-236.303,200.911-391.757L-3280.186,2857.709z"/>
		<polygon points="-3517.786,3535 -3518.37,3535 -3883.776,3535 -3884.314,3535 -3919,3535 -3919,3571.23 -3919,3572 -3481,3572 
			-3481,3535 -3481.187,3535 		"/>
	</g>
</g>
<g>
	<path d="M-3134.188,2832.195c13.82,7.977,29.495,12.193,45.329,12.193c26.947,0,52.704-12.098,70.049-32.636l59.82,34.533
		l-41.982,7.099l5.365,31.871l105.529-17.854l-37.305-100.307l-30.296,11.254l14.85,39.941l-59.817-34.525
		c15.014-41.449-1.504-87.951-39.981-110.15c-13.91-8.037-29.712-12.284-45.697-12.284c-32.652,0-63.063,17.548-79.363,45.793
		c-12.23,21.177-15.484,45.851-9.15,69.479C-3170.512,2800.227-3155.365,2819.969-3134.188,2832.195z M-3088.434,2799.812
		c-25.354,0-45.98-20.983-45.98-46.774s20.626-46.774,45.98-46.774c25.358,0,45.985,20.983,45.985,46.774
		S-3063.075,2799.812-3088.434,2799.812z"/>
	<path d="M-2715.984,2618.254l0.004,69.066l-27.14-32.805l-24.919,20.578l68.229,82.463l68.216-82.458l-24.9-20.61l-27.164,32.83
		l-0.006-69.064c43.401-7.721,75.411-45.277,75.398-89.701c0.01-24.447-9.512-47.436-26.805-64.732
		c-17.293-17.295-40.281-26.82-64.755-26.82c-50.482,0-91.553,41.068-91.553,91.549
		C-2791.375,2572.977-2759.368,2610.535-2715.984,2618.254z M-2744.865,2517.029c3.304-11.962,11.09-21.995,21.926-28.252
		c7.219-4.166,15.393-6.369,23.634-6.369c16.474,0,31.75,8.737,39.87,22.805c6.133,10.621,7.697,23.037,4.407,34.961
		c-3.3,11.961-11.087,21.994-21.923,28.25c-7.218,4.166-15.391,6.369-23.635,6.369c-16.471,0-31.748-8.738-39.869-22.803
		C-2746.59,2541.369-2748.155,2528.953-2744.865,2517.029z"/>
	<path d="M-2398.079,2853.864l-42.094-6.583l59.374-35.289c17.33,19.998,42.815,31.773,69.323,31.773
		c16.238,0,32.254-4.419,46.31-12.775c21.018-12.486,35.918-32.416,41.951-56.115c6.037-23.704,2.478-48.336-10.013-69.355
		c-16.421-27.637-46.615-44.804-78.802-44.804c-16.385,0-32.523,4.443-46.677,12.854c-38.194,22.702-54.13,69.405-38.603,110.643
		l-59.373,35.283l14.341-40.087l-30.423-10.916l-36.039,100.778l105.732,16.528L-2398.079,2853.864z M-2352.843,2729.321
		c8.059-14.375,23.45-23.304,40.164-23.304c8.037,0,16.03,2.1,23.119,6.074c10.916,6.12,18.827,16.053,22.278,27.971
		c3.441,11.881,2.031,24.316-3.965,35.013c-8.059,14.378-23.451,23.31-40.168,23.31c-8.037,0-16.034-2.102-23.122-6.075
		c-10.916-6.12-18.826-16.053-22.278-27.972C-2360.252,2752.455-2358.842,2740.021-2352.843,2729.321z"/>
	<path d="M-3000.62,3101.73l41.982,7.1l-59.82,34.536c-17.343-20.539-43.102-32.641-70.049-32.641
		c-15.834,0-31.509,4.219-45.329,12.197c-21.177,12.224-36.323,31.966-42.654,55.589c-6.33,23.627-3.083,48.301,9.15,69.479
		c16.304,28.246,46.718,45.792,79.371,45.792c15.981,0,31.783-4.245,45.69-12.276c38.485-22.207,55.002-68.711,39.981-110.152
		l59.82-34.53l-14.847,39.936l30.29,11.269l37.307-100.318l-105.531-17.85L-3000.62,3101.73z M-3042.093,3202.08
		c0,25.791-20.63,46.772-45.984,46.772c-25.356,0-45.984-20.981-45.984-46.772s20.628-46.776,45.984-46.776
		C-3062.723,3155.304-3042.093,3176.289-3042.093,3202.08z"/>
	<path d="M-2683.315,3336.857l0.007-69.063l27.16,32.823l24.903-20.605l-68.22-82.459l-68.228,82.463l24.918,20.58l27.144-32.805
		l-0.004,69.066c-43.384,7.721-75.394,45.278-75.396,89.708c0,50.478,41.066,91.545,91.564,91.545h0.019
		c24.452,0,47.441-9.525,64.73-26.817c17.29-17.296,26.809-40.282,26.804-64.728
		C-2607.903,3382.136-2639.914,3344.578-2683.315,3336.857z M-2659.082,3449.9c-8.121,14.064-23.397,22.804-39.869,22.804
		c-8.243,0-16.418-2.205-23.635-6.37c-22.334-12.896-30.195-41.25-17.517-63.21c8.122-14.067,23.397-22.807,39.875-22.807
		c8.241,0,16.412,2.202,23.626,6.368C-2654.266,3399.584-2646.407,3427.941-2659.082,3449.9z"/>
	<path d="M-2222.868,3180.234c-6.034-23.703-20.936-43.634-41.952-56.118c-14.058-8.358-30.07-12.774-46.305-12.774
		c-26.506,0-51.994,11.775-69.327,31.771l-59.374-35.288l42.094-6.58l-4.991-31.939l-105.733,16.535l36.039,100.776l30.424-10.91
		l-14.343-40.093l59.374,35.288c-15.526,41.234,0.408,87.933,38.604,110.637c14.153,8.412,30.295,12.855,46.68,12.855
		c32.187,0,62.378-17.169,78.792-44.807C-2220.392,3228.569-2216.832,3203.938-2222.868,3180.234z M-2266.929,3215.053
		c-3.452,11.918-11.362,21.851-22.278,27.968c-7.088,3.974-15.082,6.076-23.119,6.076c-16.718,0-32.108-8.931-40.164-23.311
		c-5.999-10.696-7.413-23.128-3.971-35.009c3.447-11.916,11.358-21.849,22.278-27.969c7.087-3.977,15.084-6.076,23.121-6.076
		c16.718,0,32.109,8.931,40.168,23.308C-2264.898,3190.736-2263.487,3203.172-2266.929,3215.053z"/>
	<path d="M-2699.822,2810.834c-91.763,0-166.417,74.653-166.417,166.415c0,91.76,74.654,166.414,166.417,166.414
		c91.758,0,166.408-74.654,166.408-166.414C-2533.414,2885.487-2608.064,2810.834-2699.822,2810.834z M-2699.828,3099.671
		c-64.988,0-117.857-52.872-117.857-117.856s52.869-117.852,117.857-117.852c64.983,0,117.852,52.867,117.852,117.852
		S-2634.845,3099.671-2699.828,3099.671z"/>
</g>
<g>
	<path d="M-521.457,384.857l-3.125,12.773l3.125-12.767l83.405-360.561c0.267-1.282,0.407-2.51,0.454-3.792
		c-0.054,1.155-0.221,2.29-0.454,3.405L-521.457,384.857z"/>
	<path d="M-591.499,546.505c0.367-1.548,0.501-3.118,0.48-4.607c-0.026,1.289-0.153,2.564-0.48,3.953l-52.733,228.507l-14.11,60.956
		l0.127-0.261l13.983-60.255L-591.499,546.505z"/>
	<path d="M-365.186,397.631c7.192,0,13.83,4.687,17.289,10.997c1.75,3.179,2.537,6.857,2.397,10.517
		c0.14-3.66-0.647-7.338-2.397-10.524C-351.355,402.292-357.993,397.631-365.186,397.631z"/>
	<path d="M-812.09,551.634c-1.724-3.125-2.498-6.731-2.391-10.343c-0.147,3.572,0.634,7.171,2.391,10.356
		c3.445,6.35,10.062,11.051,17.262,11.051C-802.027,562.697-808.645,557.977-812.09,551.634z"/>
	<path d="M-638.543,575.404l-83.405,360.574c-0.253,1.256-0.4,2.518-0.447,3.799c0.061-1.136,0.221-2.291,0.447-3.439
		L-638.543,575.404z"/>
	<path d="M-568.515,413.763c-0.354,1.549-0.501,3.085-0.468,4.607c0.021-1.289,0.161-2.611,0.468-3.973l52.761-228.474
		l14.083-60.942l-0.146,0.207l-13.937,60.281L-568.515,413.763z"/>
	<path d="M-287.644,331.026c3.426,0,6.831-0.895,9.796-2.611l106.316-61.403c9.396-5.429,12.634-17.48,7.225-26.875
		c-3.539-6.083-10.076-9.869-17.107-9.869c-3.433,0-6.812,0.908-9.797,2.671L-297.5,294.295c-9.408,5.422-12.654,17.48-7.252,26.875
		C-301.213,327.26-294.662,331.026-287.644,331.026z"/>
	<path d="M-869.959,627.766c-3.419,0-6.818,0.929-9.81,2.671l-108.7,62.786c-9.396,5.402-12.641,17.48-7.225,26.888
		c3.512,6.037,10.05,9.809,17.081,9.809c3.452,0,6.845-0.915,9.81-2.61l108.713-62.799c9.396-5.408,12.602-17.48,7.192-26.902
		C-856.403,631.552-862.941,627.766-869.959,627.766z"/>
	<path d="M-897.893,477.5c0-10.83-8.841-20.5-19.665-20.5h-122.771c-10.838,0-19.672,9.67-19.672,20.5
		c0,10.857,8.834,20.5,19.672,20.5h122.771C-906.733,498-897.893,488.357-897.893,477.5z"/>
	<path d="M-860.09,295.71l-108.706-62.772c-3.005-1.776-6.391-2.684-9.843-2.684c-7.005,0-13.522,3.779-17.068,9.889
		c-2.604,4.534-3.312,9.829-1.95,14.93c1.362,5.068,4.614,9.315,9.188,11.939l108.7,62.752c2.972,1.716,6.356,2.624,9.789,2.624
		c7.065,0,13.603-3.779,17.082-9.809c2.617-4.56,3.339-9.889,1.977-14.943C-852.297,302.541-855.529,298.321-860.09,295.71z"/>
	<path d="M-119.699,457h-122.743c-10.845,0-19.679,9.67-19.679,20.5c0,10.857,8.834,20.5,19.679,20.5h122.743
		c10.852,0,19.699-9.643,19.699-20.5C-100,466.67-108.848,457-119.699,457z"/>
	<path d="M-171.531,693.223l-106.296-61.39c-3.005-1.75-6.404-2.665-9.79-2.665c-7.038,0-13.575,3.786-17.121,9.87
		c-5.402,9.401-2.157,21.44,7.238,26.915l106.275,61.343c3.025,1.736,6.338,2.624,9.837,2.624c7.019,0,13.556-3.772,17.081-9.815
		c2.638-4.547,3.312-9.869,1.957-14.93C-163.699,700.081-166.964,695.847-171.531,693.223z"/>
	<path d="M-365.186,389h-145.573h-13.823l3.125-8.458l83.405-358.757c0.233-1.148,0.4-1.198,0.454-2.346
		c0.28-7.993-4.348-14.955-11.974-18.187C-452.035,0.223-454.6,0-457.217,0c-6.711,0-12.901,3.581-16.541,9.23l-337.558,521.866
		c-1.964,3.031-3.025,6.603-3.165,10.167c-0.107,3.606,0.667,5.893,2.391,9.004c3.445,6.343,10.062,9.731,17.262,9.731h145.566
		h13.816l-3.098,14.045l-83.405,361.634c-0.227,1.122-0.387,2.621-0.447,3.729c-0.28,8.032,4.334,15.709,11.967,18.941
		c2.45,1.035,5.015,1.651,7.679,1.651c6.711,0,12.889-3.338,16.521-8.973l337.57-521.611c1.95-3.039,3.019-6.666,3.159-10.305
		c0.14-3.653-0.647-11.62-2.397-14.772C-351.355,397.977-357.993,389-365.186,389z M-412.369,454.734l-211.938,328.491
		l-34.036,52.616l0.127-0.742l-0.127,0.247l14.11-60.982l52.733-228.484c0.327-1.381,0.454-2.691,0.48-3.974
		c-0.073-4.133-1.522-10.622-4.28-14.087c-3.746-4.72-9.362-8.819-15.392-8.819h-127.725h-20.214l10.979-15.627l211.943-327.417
		l34.036-52.075l-0.146,1.024l0.146-0.093l-14.083,61.03l-52.761,228.504c-0.307,1.375-0.447,2.702-0.468,4.004
		c0.041,4.12,1.523,8.487,4.268,11.959c3.746,4.694,9.369,6.69,15.393,6.69h127.725h20.213L-412.369,454.734z"/>
</g>
<polyline fill="none" stroke="#1EE29C" stroke-width="16" stroke-linecap="round" stroke-miterlimit="10" points="-906,1351 
	-782,1245 -658,1351 "/>
<polyline fill="none" stroke="#1EE29C" stroke-width="16" stroke-linecap="round" stroke-miterlimit="10" points="-658,1351 
	-534,1245 -410,1351 "/>
<polyline fill="none" stroke="#1EE29C" stroke-width="16" stroke-linecap="round" stroke-miterlimit="10" points="-410,1351 
	-286,1245 -162,1351 "/>
<polyline fill="none" stroke="#1EE29C" stroke-width="16" stroke-linecap="round" stroke-miterlimit="10" points="-162,1351 
	-38,1245 86,1351 "/>
<polyline fill="none" stroke="#1EE29C" stroke-width="16" stroke-linecap="round" stroke-miterlimit="10" points="86,1351 210,1245 
	334,1351 "/>
<polyline fill="none" stroke="#1EE29C" stroke-width="16" stroke-linecap="round" stroke-miterlimit="10" points="334,1351 
	458,1245 582,1351 "/>
<polyline fill="none" stroke="#1EE29C" stroke-width="16" stroke-linecap="round" stroke-miterlimit="10" points="582,1351 
	706,1245 830,1351 "/>
<polyline fill="none" stroke="#1EE29C" stroke-width="16" stroke-linecap="round" stroke-miterlimit="10" points="830,1351 
	954,1245 1078,1351 "/>
<g>
	<path fill="#1EE29C" d="M-912.081,1589.277c-2.871,3.358-2.476,8.408,0.883,11.279l4.198,3.589v-17.601
		C-908.906,1586.785-910.734,1587.702-912.081,1589.277z"/>
	<path fill="#1EE29C" d="M1084.081,1589.277c-2.872-3.359-7.923-3.754-11.28-0.883L954,1689.951l-118.802-101.557
		c-0.046-0.039-0.095-0.071-0.141-0.109c-0.102-0.083-0.204-0.164-0.31-0.241c-0.1-0.073-0.199-0.144-0.301-0.211
		c-0.107-0.072-0.214-0.143-0.323-0.208c-0.112-0.067-0.226-0.129-0.339-0.19c-0.104-0.056-0.204-0.111-0.309-0.161
		c-0.133-0.064-0.268-0.121-0.402-0.177c-0.09-0.038-0.18-0.078-0.271-0.112c-0.165-0.062-0.332-0.114-0.5-0.165
		c-0.066-0.02-0.131-0.043-0.197-0.062c-0.477-0.13-0.962-0.215-1.45-0.254c-0.081-0.007-0.163-0.007-0.245-0.011
		c-0.136-0.007-0.271-0.018-0.406-0.018c-0.021,0-0.041,0.003-0.062,0.003c-0.217,0.002-0.435,0.016-0.65,0.034
		c-0.051,0.005-0.101,0.005-0.151,0.01c-0.547,0.059-1.089,0.174-1.619,0.347c-0.049,0.016-0.096,0.037-0.145,0.054
		c-0.206,0.072-0.412,0.148-0.612,0.237c-0.092,0.041-0.181,0.089-0.271,0.133c-0.153,0.075-0.307,0.15-0.455,0.235
		c-0.111,0.063-0.217,0.134-0.325,0.202c-0.124,0.079-0.249,0.158-0.369,0.245c-0.112,0.081-0.222,0.168-0.331,0.255
		c-0.07,0.057-0.144,0.105-0.213,0.164L706,1689.951l-118.802-101.557c-0.046-0.04-0.097-0.073-0.143-0.111
		c-0.101-0.082-0.202-0.161-0.306-0.237c-0.101-0.075-0.203-0.146-0.307-0.216c-0.104-0.07-0.21-0.139-0.316-0.203
		c-0.115-0.069-0.23-0.133-0.347-0.195c-0.101-0.054-0.2-0.108-0.302-0.157c-0.136-0.065-0.273-0.124-0.412-0.181
		c-0.086-0.036-0.173-0.076-0.262-0.108c-0.168-0.063-0.34-0.117-0.511-0.168c-0.063-0.02-0.124-0.042-0.187-0.059
		c-0.479-0.131-0.964-0.216-1.453-0.255c-0.08-0.007-0.162-0.007-0.243-0.011c-0.136-0.007-0.271-0.018-0.407-0.018
		c-0.021,0-0.041,0.003-0.062,0.003c-0.218,0.002-0.435,0.016-0.652,0.034c-0.05,0.005-0.099,0.005-0.148,0.01
		c-0.548,0.059-1.09,0.175-1.62,0.347c-0.048,0.016-0.094,0.036-0.142,0.053c-0.208,0.072-0.413,0.149-0.615,0.239
		c-0.092,0.04-0.18,0.088-0.27,0.132c-0.153,0.075-0.308,0.15-0.457,0.236c-0.11,0.062-0.216,0.133-0.323,0.201
		c-0.125,0.079-0.25,0.158-0.37,0.245c-0.112,0.081-0.222,0.168-0.331,0.255c-0.07,0.057-0.144,0.105-0.213,0.164L458,1689.951
		l-118.802-101.557c-0.046-0.039-0.095-0.071-0.141-0.109c-0.102-0.083-0.204-0.163-0.31-0.241c-0.1-0.073-0.2-0.144-0.302-0.212
		c-0.106-0.071-0.213-0.141-0.321-0.206c-0.113-0.068-0.227-0.131-0.342-0.192c-0.102-0.055-0.203-0.11-0.307-0.16
		c-0.133-0.064-0.27-0.122-0.405-0.179c-0.089-0.037-0.177-0.076-0.268-0.11c-0.167-0.062-0.336-0.115-0.506-0.166
		c-0.064-0.02-0.127-0.043-0.191-0.061c-0.478-0.13-0.963-0.215-1.452-0.254c-0.08-0.007-0.162-0.007-0.243-0.011
		c-0.136-0.007-0.271-0.018-0.407-0.018c-0.021,0-0.041,0.003-0.062,0.003c-0.218,0.002-0.436,0.016-0.653,0.035
		c-0.049,0.004-0.099,0.004-0.147,0.009c-0.548,0.059-1.091,0.175-1.621,0.347c-0.045,0.015-0.089,0.034-0.134,0.05
		c-0.21,0.073-0.418,0.151-0.623,0.242c-0.09,0.039-0.176,0.086-0.265,0.129c-0.155,0.076-0.311,0.152-0.462,0.239
		c-0.109,0.062-0.214,0.132-0.32,0.199c-0.125,0.08-0.251,0.16-0.373,0.248c-0.112,0.08-0.221,0.167-0.329,0.254
		c-0.07,0.056-0.144,0.105-0.213,0.164L210,1689.951L91.198,1588.395c-0.046-0.039-0.095-0.071-0.141-0.109
		c-0.102-0.083-0.204-0.164-0.31-0.241c-0.1-0.073-0.199-0.144-0.301-0.211c-0.107-0.072-0.214-0.143-0.323-0.208
		c-0.112-0.067-0.225-0.129-0.339-0.19c-0.103-0.056-0.204-0.111-0.309-0.161c-0.133-0.064-0.268-0.121-0.402-0.177
		c-0.09-0.038-0.18-0.078-0.271-0.112c-0.165-0.062-0.332-0.114-0.5-0.165c-0.066-0.02-0.131-0.043-0.197-0.062
		c-0.477-0.13-0.962-0.215-1.45-0.254c-0.081-0.007-0.163-0.007-0.245-0.011c-0.136-0.007-0.271-0.018-0.406-0.018
		c-0.021,0-0.041,0.003-0.062,0.003c-0.217,0.002-0.435,0.016-0.65,0.034c-0.051,0.005-0.101,0.005-0.151,0.01
		c-0.547,0.059-1.089,0.174-1.619,0.347c-0.049,0.016-0.096,0.037-0.145,0.054c-0.206,0.072-0.411,0.148-0.612,0.237
		c-0.092,0.041-0.181,0.089-0.271,0.133c-0.153,0.075-0.307,0.15-0.455,0.235c-0.111,0.063-0.217,0.134-0.325,0.202
		c-0.124,0.079-0.248,0.158-0.369,0.245c-0.112,0.081-0.222,0.168-0.331,0.255c-0.07,0.057-0.144,0.105-0.212,0.164L-38,1689.951
		l-118.802-101.557c-0.046-0.04-0.096-0.073-0.143-0.111c-0.101-0.082-0.202-0.161-0.306-0.237
		c-0.101-0.075-0.203-0.146-0.307-0.216c-0.104-0.07-0.21-0.139-0.316-0.203c-0.115-0.069-0.23-0.133-0.347-0.195
		c-0.101-0.054-0.2-0.108-0.302-0.157c-0.136-0.065-0.273-0.124-0.411-0.181c-0.087-0.036-0.174-0.076-0.263-0.108
		c-0.168-0.063-0.34-0.117-0.511-0.168c-0.063-0.02-0.124-0.042-0.187-0.059c-0.035-0.01-0.072-0.015-0.107-0.024v19.976L-38,1711
		l124-106l124,106l124-106l124,106l124-106l124,106l124-106l124,106l129.198-110.443
		C1086.557,1597.686,1086.951,1592.637,1084.081,1589.277z"/>
	<path fill="#1EE29C" d="M-409.346,1586.504c-0.08-0.007-0.162-0.007-0.243-0.011c-0.136-0.007-0.271-0.018-0.407-0.018
		c-0.021,0-0.041,0.003-0.062,0.003c-0.218,0.002-0.436,0.016-0.653,0.035c-0.049,0.004-0.099,0.004-0.147,0.009
		c-0.548,0.059-1.091,0.175-1.621,0.347c-0.045,0.015-0.089,0.034-0.134,0.05c-0.21,0.073-0.418,0.151-0.623,0.242
		c-0.09,0.039-0.176,0.086-0.265,0.129c-0.155,0.076-0.311,0.152-0.462,0.239c-0.109,0.062-0.214,0.132-0.32,0.199
		c-0.125,0.08-0.251,0.16-0.373,0.248c-0.112,0.08-0.221,0.167-0.33,0.254c-0.069,0.056-0.143,0.105-0.212,0.164L-534,1689.951
		l-118.802-101.557c-0.046-0.039-0.095-0.071-0.141-0.109c-0.102-0.083-0.204-0.164-0.31-0.241c-0.1-0.073-0.199-0.144-0.301-0.211
		c-0.107-0.072-0.214-0.143-0.324-0.208c-0.111-0.067-0.224-0.129-0.338-0.19c-0.102-0.056-0.205-0.111-0.309-0.161
		c-0.133-0.064-0.268-0.121-0.402-0.177c-0.09-0.038-0.18-0.078-0.271-0.112c-0.165-0.062-0.332-0.114-0.5-0.165
		c-0.066-0.02-0.131-0.043-0.197-0.062c-0.477-0.13-0.962-0.215-1.45-0.254c-0.081-0.007-0.163-0.244-0.245-0.248
		c-0.135-0.008-0.271-0.256-0.406-0.256H-658v19l124,106l124-106l1,0.854v-19.307
		C-409.115,1586.533-409.23,1586.513-409.346,1586.504z"/>
	<path fill="#FF0000" d="M-160,1548h-249h-249h-249v38.545v17.601V1812h249h249h249v-205.29v-19.976V1548z M-410,1605l-124,106
		l-124-106v-19h0.004c0.136,0,0.271,0.248,0.406,0.256c0.082,0.004,0.164,0.122,0.245,0.129c0.488,0.039,0.974,0.184,1.45,0.313
		c0.066,0.019,0.131,0.072,0.197,0.092c0.168,0.051,0.335,0.118,0.5,0.18c0.092,0.034,0.182,0.081,0.271,0.119
		c0.135,0.056,0.27,0.116,0.402,0.181c0.104,0.05,0.207,0.107,0.309,0.163c0.114,0.062,0.227,0.124,0.338,0.191
		c0.11,0.065,0.217,0.137,0.324,0.209c0.102,0.067,0.201,0.138,0.301,0.211c0.105,0.077,0.208,0.158,0.31,0.241
		c0.046,0.038,0.095,0.07,0.141,0.109L-534,1689.951l118.802-101.557c0.069-0.059,0.143-0.108,0.212-0.164
		c0.109-0.087,0.218-0.174,0.33-0.254c0.122-0.088,0.248-0.168,0.373-0.248c0.106-0.067,0.211-0.137,0.32-0.199
		c0.151-0.087,0.307-0.163,0.462-0.239c0.089-0.043,0.175-0.09,0.265-0.129c0.205-0.091,0.413-0.169,0.623-0.242
		c0.045-0.016,0.089-0.035,0.134-0.05c0.53-0.172,1.073-0.288,1.621-0.347c0.049-0.005,0.099-0.005,0.147-0.009
		c0.218-0.02,0.436-0.033,0.653-0.035c0.021,0,0.041-0.003,0.062-0.003c0.136,0,0.271,0.011,0.407,0.018
		c0.081,0.004,0.163,0.004,0.243,0.011c0.115,0.009,0.23,0.029,0.346,0.044v19.307L-410,1605z"/>
</g>
<polygon fill="#24C398" points="478.982,948.917 0,583 0,698 471.265,1056.988 478.91,1063.363 486.588,1057.026 960,698 960,583 
	"/>
<g>
	<polygon fill="#24C398" points="477.949,1140.514 0,742 0,825.259 477.949,1223.771 960,825.878 960,742 	"/>
</g>
<polygon fill="#321979" points="478.982,288.917 0,0 0,192 471.265,473.988 478.91,480.363 486.588,474.026 960,192 960,0 "/>
</svg>
