<?xml version="1.0" encoding="utf-8"?>
<!-- Generator: Adobe Illustrator 16.0.0, SVG Export Plug-In . SVG Version: 6.00 Build 0)  -->
<!DOCTYPE svg PUBLIC "-//W3C//DTD SVG 1.1//EN" "http://www.w3.org/Graphics/SVG/1.1/DTD/svg11.dtd">
<svg version="1.1" xmlns="http://www.w3.org/2000/svg" xmlns:xlink="http://www.w3.org/1999/xlink" x="0px" y="0px" width="1200px"
	 height="680px" viewBox="0 0 1200 680" enable-background="new 0 0 1200 680" xml:space="preserve">
<g id="Layer_1">
	<rect x="-3228" fill="#FB4D5B" width="828" height="315"/>
	<g>
		<rect x="-3097" y="115" fill="#2D2C86" width="21" height="83"/>
		<path fill="#2D2C86" d="M-2972.32,114.862c-22.193,0-40.185,18.71-40.185,41.792c0,23.081,17.991,41.792,40.185,41.792
			s40.185-18.711,40.185-41.792C-2932.136,133.573-2950.127,114.862-2972.32,114.862z M-2972.32,177.55
			c-11.08,0-20.092-9.374-20.092-20.896c0-11.522,9.013-20.896,20.092-20.896c11.078,0,20.093,9.374,20.093,20.896
			C-2952.228,168.176-2961.242,177.55-2972.32,177.55z"/>
		<polygon fill="#2D2C86" points="-3024,198.445 -3024,114.862 -3064.186,156.654 		"/>
		<polygon fill="#2D2C86" points="-2856.89,115 -2897.075,115 -2917.167,115 -2917,115.093 -2917,198 -2898,198 -2898,135.989 
			-2877.5,156.886 -2857,135.99 -2857,198 -2837,198 -2837,115.095 -2837,115.093 -2836.799,115 		"/>
		<polygon fill="#2D2C86" points="-2756,178 -2796,178 -2796,115 -2817,115 -2817,177.781 -2817,198 -2796.614,198 -2756.43,198 
			-2735,198 -2735,177.781 -2735,115 -2756,115 		"/>
		<polygon fill="#2D2C86" points="-2658,145 -2697,145 -2697,115 -2718,115 -2718,144.766 -2718,165.662 -2718,198 -2697,198 
			-2697,165 -2658,165 -2658,198 -2637,198 -2637,165.662 -2637,144.766 -2637,115 -2658,115 		"/>
		<polygon fill="#2D2C86" points="-2538,115 -2558,115 -2558,152.678 -2594,115 -2615,115 -2615,198 -2594,198 -2594,174 -2558,174 
			-2558,198 -2538,198 		"/>
	</g>
	<g>
		<rect x="284" y="-430" fill="#2D2C86" width="21" height="83"/>
		<path fill="#2D2C86" d="M408.68-430.138c-22.193,0-40.185,18.71-40.185,41.792c0,23.081,17.991,41.792,40.185,41.792
			s40.185-18.711,40.185-41.792C448.864-411.427,430.873-430.138,408.68-430.138z M408.68-367.45
			c-11.08,0-20.092-9.374-20.092-20.896c0-11.522,9.012-20.896,20.092-20.896c11.078,0,20.093,9.374,20.093,20.896
			C428.772-376.824,419.758-367.45,408.68-367.45z"/>
		<polygon fill="#2D2C86" points="357,-346.555 357,-430.138 316.814,-388.346 		"/>
		<polygon fill="#2D2C86" points="524.109,-430 483.925,-430 463.834,-430 464,-429.907 464,-347 483,-347 483,-409.011 
			503.5,-388.114 524,-409.01 524,-347 544,-347 544,-429.905 544,-429.907 544.201,-430 		"/>
		<polygon fill="#2D2C86" points="625,-367 585,-367 585,-430 564,-430 564,-367.219 564,-347 584.386,-347 624.57,-347 646,-347 
			646,-367.219 646,-430 625,-430 		"/>
		<polygon fill="#2D2C86" points="723,-400 684,-400 684,-430 663,-430 663,-400.234 663,-379.338 663,-347 684,-347 684,-380 
			723,-380 723,-347 744,-347 744,-379.338 744,-400.234 744,-430 723,-430 		"/>
		<polygon fill="#2D2C86" points="843,-430 823,-430 823,-392.322 787,-430 766,-430 766,-347 787,-347 787,-371 823,-371 823,-347 
			843,-347 		"/>
	</g>
	<rect x="-2360" fill="#1EE29C" width="600" height="680"/>
	<rect x="-1760" fill="#FB4D5B" width="600" height="680"/>
	<text transform="matrix(1 0 0 1 -2207.4678 420.8496)"><tspan x="0" y="0" fill="#FFFFFF" font-family="'OpenSans-Light'" font-size="36">As our differences</tspan><tspan x="-3.911" y="55" fill="#FFFFFF" font-family="'OpenSans-Light'" font-size="36">make us </tspan><tspan x="140.827" y="55" fill="#FFFFFF" font-family="'OpenSans-Semibold'" font-size="36">stronger</tspan><tspan x="289.151" y="55" fill="#FFFFFF" font-family="'OpenSans-Light'" font-size="36">,</tspan></text>
	<g>
		<path fill="#E1E22D" d="M-1452.441,256.437l-0.457,1.868L-1452.441,256.437l12.197-52.732c0.039-0.188,0.06-0.367,0.066-0.555
			c-0.008,0.169-0.032,0.335-0.066,0.498L-1452.441,256.437z"/>
		<path fill="#E1E22D" d="M-1462.685,280.078c0.054-0.227,0.073-0.456,0.07-0.674c-0.004,0.188-0.022,0.375-0.07,0.578l-7.712,33.42
			l-2.063,8.915l0.019-0.038l2.045-8.812L-1462.685,280.078z"/>
		<path fill="#E1E22D" d="M-1429.588,258.305c1.052,0,2.022,0.686,2.528,1.608c0.256,0.465,0.371,1.003,0.351,1.538
			c0.021-0.535-0.095-1.073-0.351-1.539C-1427.565,258.986-1428.536,258.305-1429.588,258.305z"/>
		<path fill="#E1E22D" d="M-1494.944,280.828c-0.252-0.457-0.365-0.984-0.35-1.513c-0.021,0.522,0.093,1.049,0.35,1.515
			c0.504,0.929,1.472,1.616,2.524,1.616C-1493.473,282.446-1494.44,281.756-1494.944,280.828z"/>
		<path fill="#E1E22D" d="M-1469.564,284.305l-12.197,52.735c-0.037,0.184-0.059,0.368-0.065,0.556
			c0.009-0.166,0.032-0.335,0.065-0.503L-1469.564,284.305z"/>
		<path fill="#E1E22D" d="M-1459.323,260.664c-0.052,0.227-0.073,0.451-0.068,0.674c0.003-0.188,0.023-0.382,0.068-0.581
			l7.716-33.415l2.06-8.913l-0.021,0.03l-2.038,8.816L-1459.323,260.664z"/>
		<path fill="#E1E22D" d="M-1418.248,248.563c0.501,0,0.999-0.131,1.433-0.382l15.548-8.98c1.374-0.794,1.848-2.557,1.057-3.931
			c-0.518-0.89-1.474-1.443-2.502-1.443c-0.502,0-0.996,0.133-1.433,0.391l-15.544,8.974c-1.376,0.793-1.851,2.557-1.061,3.931
			C-1420.232,248.013-1419.274,248.563-1418.248,248.563z"/>
		<path fill="#E1E22D" d="M-1503.407,291.963c-0.5,0-0.997,0.136-1.435,0.391l-15.896,9.183c-1.374,0.79-1.849,2.557-1.057,3.933
			c0.514,0.883,1.47,1.435,2.498,1.435c0.505,0,1.001-0.134,1.435-0.382l15.898-9.185c1.374-0.791,1.843-2.557,1.052-3.935
			C-1501.425,292.517-1502.381,291.963-1503.407,291.963z"/>
		<path fill="#E1E22D" d="M-1507.492,270c0-1.584-1.293-3-2.876-3h-17.954c-1.585,0-2.877,1.416-2.877,3c0,1.588,1.292,3,2.877,3
			h17.954C-1508.785,273-1507.492,271.588-1507.492,270z"/>
		<path fill="#E1E22D" d="M-1501.964,243.398l-15.897-9.181c-0.439-0.26-0.935-0.393-1.439-0.393c-1.024,0-1.978,0.553-2.496,1.446
			c-0.381,0.663-0.484,1.438-0.285,2.184c0.199,0.741,0.675,1.362,1.344,1.746l15.896,9.178c0.435,0.251,0.93,0.384,1.432,0.384
			c1.033,0,1.989-0.553,2.498-1.435c0.383-0.667,0.488-1.446,0.289-2.186C-1500.824,244.397-1501.297,243.78-1501.964,243.398z"/>
		<path fill="#E1E22D" d="M-1393.688,267h-17.95c-1.586,0-2.878,1.416-2.878,3c0,1.588,1.292,3,2.878,3h17.95
			c1.587,0,2.881-1.412,2.881-3C-1390.807,268.416-1392.101,267-1393.688,267z"/>
		<path fill="#E1E22D" d="M-1401.268,301.536l-15.545-8.979c-0.439-0.256-0.937-0.39-1.432-0.39c-1.029,0-1.985,0.554-2.504,1.443
			c-0.79,1.375-0.315,3.136,1.059,3.937l15.542,8.972c0.442,0.254,0.927,0.384,1.438,0.384c1.026,0,1.982-0.552,2.498-1.436
			c0.386-0.665,0.484-1.443,0.286-2.184C-1400.122,302.539-1400.6,301.92-1401.268,301.536z"/>
		<path fill="#E1E22D" d="M-1429.588,257h-21.289h-2.021l0.457-1.216l12.197-52.459c0.034-0.168,0.059-0.17,0.066-0.338
			c0.041-1.169-0.636-2.185-1.751-2.657c-0.36-0.15-0.735-0.182-1.118-0.182c-0.981,0-1.887,0.524-2.419,1.351l-49.365,76.325
			c-0.287,0.443-0.442,0.966-0.463,1.487c-0.016,0.527,0.098,0.836,0.35,1.291c0.504,0.928,1.472,1.397,2.524,1.397h21.288h2.021
			l-0.453,2.08l-12.197,52.903c-0.033,0.164-0.057,0.39-0.065,0.552c-0.041,1.175,0.634,2.301,1.75,2.773
			c0.358,0.151,0.733,0.243,1.123,0.243c0.981,0,1.885-0.487,2.416-1.312l49.367-76.287c0.285-0.444,0.441-0.975,0.462-1.507
			c0.021-0.534-0.095-1.721-0.351-2.182C-1427.565,258.334-1428.536,257-1429.588,257z M-1436.488,266.625l-30.994,48.059
			l-4.978,7.703l0.019-0.104l-0.019,0.038l2.063-8.918l7.712-33.416c0.048-0.202,0.066-0.394,0.07-0.581
			c-0.011-0.604-0.223-1.581-0.626-2.088c-0.548-0.69-1.369-1.317-2.251-1.317h-18.679h-2.956l1.605-2.258l30.995-47.872
			l4.978-7.609l-0.021,0.153l0.021-0.012l-2.06,8.927l-7.716,33.42c-0.045,0.201-0.065,0.396-0.068,0.586
			c0.006,0.603,0.223,1.21,0.624,1.718c0.548,0.687,1.37,0.947,2.251,0.947h18.679h2.956L-1436.488,266.625z"/>
	</g>
	<path fill="#2D2C86" d="M-2020.824,269.998c0,24.284-12.362,45.697-31.128,58.276c-2.208-0.661-4.193-1.543-6.398-2.644
		c18.98-11.258,31.787-32.015,31.787-55.633s-12.807-44.371-31.787-55.628c1.988-1.106,4.19-1.988,6.398-2.648
		C-2032.968,224.306-2020.824,245.716-2020.824,269.998z M-2090.801,334.678c-35.762,0-64.682-29.139-64.682-64.68
		c0-35.539,28.92-64.676,64.682-64.676c7.059,0,13.906,1.1,20.307,3.302c1.987-1.324,4.195-2.423,6.184-3.526
		c-8.176-3.315-17.222-5.295-26.49-5.295c-38.636,0-70.199,31.565-70.199,70.195c0,38.634,31.563,70.199,70.199,70.199
		c9.491,0,18.314-1.983,26.49-5.3c-2.208-1.1-4.196-2.199-6.184-3.527C-2076.895,333.355-2083.742,334.678-2090.801,334.678z
		 M-2029.875,262.935l-46.359,46.796c0.44,0.444,0.659,0.889,1.104,1.104l45.479-45.908
		C-2029.651,264.259-2029.651,263.598-2029.875,262.935z M-2030.981,256.755l-48.78,49.229c0.438,0.439,0.656,0.88,1.101,1.324
		l48.12-48.569C-2030.756,258.079-2030.756,257.419-2030.981,256.755z M-2034.514,246.159l-50.991,51.213
		c0.22,0.439,0.443,1.099,0.888,1.545l50.769-51.215C-2034.071,247.26-2034.293,246.604-2034.514,246.159z M-2032.523,251.235
		l-50.334,50.769c0.227,0.444,0.666,0.888,1.104,1.326l49.893-50.331C-2032.084,252.338-2032.305,251.897-2032.523,251.235z
		 M-2029.214,269.998c0-0.22,0-0.22,0-0.444l-43.489,43.709c0.44,0.444,0.885,0.664,1.331,1.11l41.939-42.167
		C-2029.433,271.322-2029.214,270.661-2029.214,269.998z M-2031.64,286.333l-32.454,32.894c0.444,0.216,0.885,0.66,1.543,0.88
		l29.583-29.798C-2032.748,288.984-2032.084,287.66-2031.64,286.333z M-2029.875,277.287l-38.632,39.073
		c0.444,0.215,0.889,0.659,1.324,0.88l36.863-37.312C-2030.093,279.049-2029.875,278.169-2029.875,277.287z M-2037.604,299.58
		l-18.323,18.542C-2048.638,313.488-2042.236,307.088-2037.604,299.58z M-2037.16,241.524l-50.773,51.216
		c0.22,0.436,0.444,1.098,0.659,1.542l50.999-51.435C-2036.495,242.403-2036.719,241.969-2037.16,241.524z M-2054.38,222.979
		l-37.529,37.748c-0.216,0.88-0.216,1.764-0.442,2.652l39.298-39.521C-2053.495,223.64-2053.938,223.197-2054.38,222.979z
		 M-2071.818,226.069l-8.391,8.607c-1.764,2.205-3.533,4.863-4.853,7.292l20.968-20.976
		C-2066.961,222.537-2069.391,224.084-2071.818,226.069z M-2050.406,226.069l-42.163,42.608c0,0.44,0,0.876,0,1.32
		c0,0.442,0,0.663,0,1.106l43.71-43.937C-2049.526,226.732-2049.958,226.293-2050.406,226.069z M-2058.791,220.327l-30.466,30.688
		c-0.442,1.1-0.885,2.424-1.324,3.531l33.111-33.554C-2057.911,220.771-2058.351,220.549-2058.791,220.327z M-2040.031,237.104
		l-49.892,50.338c0.224,0.661,0.446,1.104,0.666,1.759l50.333-50.772C-2039.147,237.988-2039.587,237.549-2040.031,237.104z
		 M-2046.433,229.379l-45.919,46.14c0,0.659,0,1.543,0.227,2.208l46.798-47.242C-2045.773,230.263-2046.211,229.82-2046.433,229.379
		z M-2042.904,233.135l-48.341,48.558c0.22,0.669,0.22,1.333,0.444,1.992l49.005-49.448
		C-2042.236,234.011-2042.679,233.572-2042.904,233.135z M-1961,269.998c0,38.634-31.57,70.199-70.199,70.199
		c-38.636,0-69.981-31.565-69.981-70.199c0-25.387,13.691-47.684,33.998-60.046l0,0l0,0c1.99-1.103,3.974-2.206,6.184-3.308l0,0l0,0
		c9.047-4.195,19.203-6.842,29.8-6.842C-1992.57,199.803-1961,231.368-1961,269.998z M-1966.52,269.998
		c0-35.539-28.918-64.676-64.68-64.676c-8.388,0-16.336,1.543-23.62,4.63c-2.207,0.88-4.199,1.77-6.18,2.87
		c-20.533,10.817-34.66,32.229-34.66,57.176c0,24.951,14.127,46.362,34.66,57.176l0,0c1.98,1.101,3.973,1.985,6.18,2.874l0,0
		c7.284,2.872,15.232,4.63,23.62,4.63C-1995.438,334.678-1966.52,305.539-1966.52,269.998z"/>
	<text transform="matrix(1 0 0 1 -1630.0918 420.8496)"><tspan x="0" y="0" fill="#FFFFFF" font-family="'OpenSans-Light'" font-size="36">our common ground</tspan><tspan x="44.64" y="55" fill="#FFFFFF" font-family="'OpenSans-Light'" font-size="36">gives us </tspan><tspan x="181.362" y="55" fill="#FFFFFF" font-family="'OpenSans-SemiboldItalic'" font-size="36">power</tspan><tspan x="283.755" y="55" fill="#FFFFFF" font-family="'OpenSans-Light'" font-size="36">.</tspan></text>
	<rect x="-1060" fill="#1EE29C" width="960" height="960"/>
	<g>
		<rect x="-1039" y="-87" fill="#FB4D5B" width="8" height="30"/>
		<path fill="#FB4D5B" d="M-993.291-87.197c-8.137,0-14.732,6.859-14.732,15.321s6.596,15.321,14.732,15.321
			c8.136,0,14.731-6.859,14.731-15.321S-985.155-87.197-993.291-87.197z M-993.291-64.215c-4.062,0-7.366-3.437-7.366-7.661
			c0-4.224,3.304-7.66,7.366-7.66c4.061,0,7.365,3.437,7.365,7.66C-985.926-67.651-989.23-64.215-993.291-64.215z"/>
		<polygon fill="#FB4D5B" points="-1012,-56.555 -1012,-87.197 -1026.731,-71.876 		"/>
	</g>
	<text transform="matrix(1 0 0 1 -847 -126.8765)" fill="#FFFFFF" font-family="'OpenSans'" font-size="27">www.komu.hn</text>
	<g>
		<rect x="-751" y="583" fill="#E1E22D" width="8" height="30"/>
		<rect x="-505" y="57" fill="#E1E22D" width="8" height="30"/>
		<rect x="-256" y="284" fill="#E1E22D" width="8" height="30"/>
		<rect x="-218" y="502" fill="#E1E22D" width="8" height="30"/>
		
			<rect x="-710" y="296" transform="matrix(-0.7071 0.7071 -0.7071 -0.7071 -985.3072 1030.1276)" fill="#E1E22D" width="8.001" height="30.001"/>
		<rect x="-530" y="357" fill="#E1E22D" width="8" height="30"/>
		
			<rect x="-759" y="457" transform="matrix(-0.7071 -0.7071 0.7071 -0.7071 -1622.62 271.8888)" fill="#E1E22D" width="8.001" height="30.001"/>
		
			<rect x="-1026" y="697" transform="matrix(-0.707 0.7072 -0.7072 -0.707 -1241.0973 1938.1421)" fill="#E1E22D" width="8" height="30"/>
		<rect x="-962" y="372" fill="#E1E22D" width="8" height="30"/>
		
			<rect x="-479" y="121" transform="matrix(-0.7787 -0.6274 0.6274 -0.7787 -930.2001 -56.1299)" fill="#E1E22D" width="8" height="30"/>
		
			<rect x="-222" y="119" transform="matrix(-0.6958 0.7182 -0.7182 -0.6958 -273.4354 383.8136)" fill="#E1E22D" width="8" height="30"/>
		
			<rect x="-839" y="42" transform="matrix(-0.7071 0.7071 -0.7071 -0.7071 -1385.1562 687.7155)" fill="#E1E22D" width="8" height="30.001"/>
		
			<rect x="-1029.999" y="216" transform="matrix(-0.8654 -0.5012 0.5012 -0.8654 -2029.6187 -83.3001)" fill="#E1E22D" width="7.999" height="30"/>
		<rect x="-939" y="91" fill="#E1E22D" width="8" height="30"/>
		<path fill="#E1E22D" d="M-630.365,441.679c-8.137,0-14.732,6.859-14.732,15.321s6.596,15.321,14.732,15.321
			c8.136,0,14.731-6.859,14.731-15.321S-622.229,441.679-630.365,441.679z M-630.365,464.661c-4.062,0-7.366-3.437-7.366-7.661
			c0-4.224,3.304-7.66,7.366-7.66c4.061,0,7.365,3.437,7.365,7.66C-623,461.225-626.305,464.661-630.365,464.661z"/>
		<path fill="#E1E22D" d="M-174.268,759.317c-8.137,0-14.732,6.859-14.732,15.321s6.596,15.321,14.732,15.321
			c8.136,0,14.731-6.859,14.731-15.321S-166.132,759.317-174.268,759.317z M-174.268,782.3c-4.062,0-7.366-3.437-7.366-7.661
			c0-4.224,3.304-7.66,7.366-7.66c4.061,0,7.365,3.437,7.365,7.66C-166.902,778.863-170.207,782.3-174.268,782.3z"/>
		<path fill="#E1E22D" d="M-540.643,812.558c-8.137,0-14.732,6.859-14.732,15.321s6.596,15.321,14.732,15.321
			c8.136,0,14.731-6.859,14.731-15.321S-532.507,812.558-540.643,812.558z M-540.643,835.54c-4.062,0-7.366-3.437-7.366-7.661
			c0-4.224,3.304-7.66,7.366-7.66c4.061,0,7.365,3.437,7.365,7.66C-533.277,832.104-536.582,835.54-540.643,835.54z"/>
		<path fill="#E1E22D" d="M-307.802,585.13c-8.137,0-14.732,6.859-14.732,15.321s6.596,15.321,14.732,15.321
			c8.136,0,14.731-6.859,14.731-15.321S-299.666,585.13-307.802,585.13z M-307.802,608.112c-4.062,0-7.366-3.437-7.366-7.661
			c0-4.224,3.304-7.66,7.366-7.66c4.061,0,7.365,3.437,7.365,7.66C-300.437,604.676-303.741,608.112-307.802,608.112z"/>
		<path fill="#E1E22D" d="M-862.999,728.675c-8.137,0-14.732,6.859-14.732,15.321s6.596,15.321,14.732,15.321
			c8.136,0,14.731-6.859,14.731-15.321S-854.863,728.675-862.999,728.675z M-862.999,751.657c-4.062,0-7.366-3.437-7.366-7.661
			c0-4.224,3.304-7.66,7.366-7.66c4.061,0,7.365,3.437,7.365,7.66C-855.634,748.221-858.938,751.657-862.999,751.657z"/>
		<path fill="#E1E22D" d="M-891.767,857.233c-8.137,0-14.732,6.859-14.732,15.321s6.596,15.321,14.732,15.321
			c8.136,0,14.731-6.859,14.731-15.321S-883.631,857.233-891.767,857.233z M-891.767,880.216c-4.062,0-7.366-3.437-7.366-7.661
			c0-4.224,3.304-7.66,7.366-7.66c4.061,0,7.365,3.437,7.365,7.66C-884.401,876.779-887.706,880.216-891.767,880.216z"/>
		<path fill="#E1E22D" d="M-307.803,735.709c-8.137,0-14.732,6.859-14.732,15.321s6.596,15.321,14.732,15.321
			c8.136,0,14.731-6.859,14.731-15.321S-299.667,735.709-307.803,735.709z M-307.803,758.691c-4.062,0-7.366-3.437-7.366-7.661
			c0-4.224,3.304-7.66,7.366-7.66c4.061,0,7.365,3.437,7.365,7.66C-300.438,755.255-303.742,758.691-307.803,758.691z"/>
		<path fill="#E1E22D" d="M-307.802,337.596c-8.137,0-14.732,6.859-14.732,15.32c0,8.463,6.596,15.322,14.732,15.322
			c8.136,0,14.731-6.859,14.731-15.322C-293.07,344.455-299.666,337.596-307.802,337.596z M-307.802,360.578
			c-4.062,0-7.366-3.438-7.366-7.662c0-4.223,3.304-7.66,7.366-7.66c4.061,0,7.365,3.438,7.365,7.66
			C-300.437,357.141-303.741,360.578-307.802,360.578z"/>
		<path fill="#E1E22D" d="M-322.534,149.467c-8.137,0-14.732,6.859-14.732,15.321s6.596,15.321,14.732,15.321
			c8.136,0,14.731-6.859,14.731-15.321S-314.398,149.467-322.534,149.467z M-322.534,172.449c-4.062,0-7.366-3.437-7.366-7.661
			c0-4.224,3.304-7.66,7.366-7.66c4.061,0,7.365,3.437,7.365,7.66C-315.169,169.013-318.474,172.449-322.534,172.449z"/>
		<path fill="#E1E22D" d="M-939,233.441c-8.137,0-14.732,6.859-14.732,15.321s6.596,15.321,14.732,15.321
			c8.136,0,14.731-6.859,14.731-15.321S-930.864,233.441-939,233.441z M-939,256.424c-4.062,0-7.366-3.437-7.366-7.661
			c0-4.224,3.304-7.66,7.366-7.66c4.061,0,7.365,3.437,7.365,7.66C-931.635,252.987-934.939,256.424-939,256.424z"/>
		<path fill="#E1E22D" d="M-658.518,75.803c-8.137,0-14.732,6.859-14.732,15.321s6.596,15.321,14.732,15.321
			c8.136,0,14.731-6.859,14.731-15.321S-650.382,75.803-658.518,75.803z M-658.518,98.785c-4.062,0-7.366-3.437-7.366-7.661
			c0-4.224,3.304-7.66,7.366-7.66c4.061,0,7.365,3.437,7.365,7.66C-651.152,95.349-654.457,98.785-658.518,98.785z"/>
		<path fill="#E1E22D" d="M-811.914,149.467c-8.137,0-14.732,6.859-14.732,15.321s6.596,15.321,14.732,15.321
			c8.136,0,14.731-6.859,14.731-15.321S-803.778,149.467-811.914,149.467z M-811.914,172.449c-4.062,0-7.366-3.437-7.366-7.661
			c0-4.224,3.304-7.66,7.366-7.66c4.061,0,7.365,3.437,7.365,7.66C-804.549,169.013-807.854,172.449-811.914,172.449z"/>
		<polygon fill="#E1E22D" points="-1011,865.445 -1011,834.803 -1025.731,850.124 		"/>
		<polygon fill="#E1E22D" points="-441.688,424 -411.045,424 -426.365,409.268 		"/>
		<polygon fill="#E1E22D" points="-828,352.445 -828,321.803 -842.731,337.124 		"/>
		<polygon fill="#E1E22D" points="-710,887.445 -710,856.803 -724.731,872.124 		"/>
		<polygon fill="#E1E22D" points="-995,502.445 -995,471.803 -1009.731,487.124 		"/>
		<polygon fill="#E1E22D" points="-623,195.445 -623,164.803 -637.731,180.124 		"/>
		<polygon fill="#E1E22D" points="-971,613.445 -971,582.803 -985.731,598.124 		"/>
		<polygon fill="#E1E22D" points="-673,790.445 -673,759.803 -687.731,775.124 		"/>
		<polygon fill="#E1E22D" points="-417.688,773 -387.045,773 -402.365,758.268 		"/>
		<polygon fill="#E1E22D" points="-323,857.445 -323,826.803 -337.731,842.124 		"/>
		<polygon fill="#E1E22D" points="-182,691.445 -182,660.803 -196.731,676.124 		"/>
		<polygon fill="#E1E22D" points="-445,613.445 -445,582.803 -459.731,598.124 		"/>
		<polygon fill="#E1E22D" points="-762.688,719 -732.045,719 -747.365,704.268 		"/>
		<polygon fill="#E1E22D" points="-863,542.445 -863,511.803 -877.731,527.124 		"/>
		<polygon fill="#E1E22D" points="-270,87.445 -270,56.803 -284.731,72.124 		"/>
		<polygon fill="#E1E22D" points="-402.688,49 -372.045,49 -387.365,34.269 		"/>
		<polygon fill="#E1E22D" points="-189,402.445 -189,371.803 -203.731,387.124 		"/>
		<polygon fill="#E1E22D" points="-548,222.445 -548,191.803 -562.731,207.124 		"/>
		<polygon fill="#E1E22D" points="-748,134.445 -748,103.803 -762.731,119.124 		"/>
		<polygon fill="#E1E22D" points="-870,57.445 -870,26.803 -884.731,42.124 		"/>
	</g>
	<g>
		<g>
			<path fill-rule="evenodd" clip-rule="evenodd" fill="#FFFFFF" d="M-250.466,913.33c0-1.45,0-2.836,0-4.221
				c0-2.929,0.015-5.856-0.008-8.784c-0.017-2.097-0.851-3.42-2.378-3.888c-1.689-0.517-3.624,0.135-4.603,1.857
				c-0.612,1.079-1.075,2.377-1.147,3.604c-0.189,3.273-0.131,6.562-0.17,9.847c-0.005,0.498-0.001,0.995-0.001,1.574
				c-1.678,0-3.298,0-5.008,0c0-7.021,0-14.058,0-21.159c1.673,0,3.298,0,5.034,0c0,0.652,0,1.28,0,2.184
				c1.984-1.812,4.063-2.834,6.546-2.87c2.577-0.036,4.632,0.946,6.107,3.147c2.642-3.038,5.949-3.741,9.646-2.771
				c2.759,0.725,4.395,2.856,4.492,6.194c0.148,5.061,0.038,10.129,0.038,15.275c-1.657,0-3.28,0-5.071,0c0-0.338,0-0.714,0-1.089
				c0-3.641,0-7.283,0-10.925c0-0.285,0.001-0.571-0.001-0.856c-0.021-2.191-0.877-3.631-2.432-4.095
				c-1.76-0.525-3.927,0.231-4.854,2.038c-0.611,1.188-0.973,2.616-1.034,3.955c-0.147,3.243-0.054,6.496-0.056,9.745
				c-0.002,0.389,0,0.775,0,1.236C-247.056,913.33-248.68,913.33-250.466,913.33z"/>
		</g>
		<g>
			<path fill-rule="evenodd" clip-rule="evenodd" fill="#FFFFFF" d="M-184.395,913.342c-1.692,0-3.284,0-5.03,0
				c0-0.368,0-0.744,0-1.12c0-3.567,0-7.135,0-10.704c0-0.142,0.001-0.284,0-0.428c-0.028-3.043-1.253-4.614-3.73-4.779
				c-2.647-0.179-5.22,1.779-5.466,4.374c-0.195,2.052-0.123,4.129-0.146,6.195c-0.024,2.069-0.02,4.139-0.032,6.207
				c0,0.063-0.045,0.129-0.091,0.253c-1.602,0-3.224,0-4.912,0c0-9.972,0-19.907,0-29.935c1.632,0,3.247,0,4.992,0
				c0,3.509,0,7.018,0,10.75c0.425-0.31,0.668-0.476,0.901-0.655c2.619-2.015,5.559-2.501,8.694-1.661
				c2.764,0.739,4.61,2.975,4.706,5.948c0.148,4.562,0.086,9.129,0.113,13.696C-184.392,912.083-184.395,912.682-184.395,913.342z"
				/>
		</g>
		<g>
			<path fill-rule="evenodd" clip-rule="evenodd" fill="#FFFFFF" d="M-290.194,913.402c-2.051,0-6.21,0-6.21,0
				s-4.416-6.534-6.534-9.672c-0.959,1.021-1.873,1.953-2.728,2.937c-0.175,0.201-0.173,0.596-0.175,0.901
				c-0.015,1.89-0.008,3.781-0.008,5.752c-1.675,0-3.292,0-4.977,0c0-9.947,0-19.888,0-29.919c1.621,0,3.233,0,4.95,0
				c0,5.52,0,10.999,0,16.752c0.438-0.374,0.7-0.572,0.934-0.801c2.271-2.223,7.418-7.257,7.418-7.257s4.392,0,6.302,0
				c-2.751,2.741-5.366,5.351-8.016,7.993C-296.189,904.575-293.255,908.896-290.194,913.402z"/>
		</g>
		<g>
			<path fill-rule="evenodd" clip-rule="evenodd" fill="#FFFFFF" d="M-222.406,892.172c0,1.425-0.007,2.775,0,4.123
				c0.018,2.962-0.061,5.928,0.097,8.883c0.135,2.53,1.354,3.724,3.55,3.908c2.376,0.198,4.446-1.087,5.013-3.279
				c0.3-1.163,0.427-2.393,0.448-3.595c0.059-3.313,0.021-6.629,0.021-10.03c1.722,0,3.368,0,5.075,0c0,7.053,0,14.068,0,21.153
				c-1.678,0-3.332,0-5.052,0c0-0.637,0-1.233,0-1.998c-0.336,0.232-0.558,0.37-0.765,0.527c-2.628,1.987-5.578,2.456-8.717,1.703
				c-2.659-0.639-4.517-2.811-4.652-5.607c-0.172-3.525-0.14-7.062-0.18-10.595c-0.021-1.706-0.004-3.414-0.004-5.193
				C-225.84,892.172-224.216,892.172-222.406,892.172z"/>
		</g>
		<g>
			<path fill-rule="evenodd" clip-rule="evenodd" fill="#FFFFFF" d="M-175.066,913.344c-1.8,0-3.431,0-5.108,0
				c0-7.071,0-14.084,0-21.172c1.679,0,3.302,0,5.036,0c0.043,0.676,0.088,1.355,0.143,2.195c2.067-2.285,4.56-3.069,7.401-2.848
				c3.322,0.257,5.722,2.508,5.862,5.833c0.171,4.097,0.091,8.204,0.116,12.307c0.007,1.207,0.001,2.414,0.001,3.681
				c-1.69,0-3.283,0-5.029,0c0-0.366,0-0.742,0-1.118c0-3.569,0.004-7.138-0.005-10.706c-0.001-0.533-0.022-1.074-0.111-1.597
				c-0.36-2.117-1.259-3.18-2.84-3.423c-1.971-0.303-3.878,0.618-4.654,2.461c-0.419,0.995-0.685,2.123-0.72,3.2
				c-0.107,3.316-0.07,6.638-0.092,9.955C-175.068,912.498-175.066,912.883-175.066,913.344z"/>
		</g>
		<g>
			<rect x="-358" y="900" fill="#FFFFFF" width="42" height="5"/>
		</g>
		<g id="caBLst.tif_1_">
			<g>
				<path fill="#FFFFFF" d="M-281.303,913.847c-3.047-0.494-5.46-2.017-7.044-4.662c-2.366-3.956-2.514-8.064-0.446-12.188
					c1.238-2.471,3.218-4.17,5.868-5.001c2.649-0.831,5.298-0.761,7.886,0.272c3.017,1.202,5.153,3.311,6.136,6.429
					c1.07,3.395,0.843,6.743-0.819,9.915c-1.534,2.923-3.975,4.681-7.242,5.236C-277.661,913.967-279.592,914.225-281.303,913.847z
					 M-279.101,909.354c2.213-0.019,3.845-1.031,4.737-3.024c1.134-2.529,1.063-5.101-0.289-7.54
					c-1.134-2.043-2.969-2.913-5.278-2.702c-2.121,0.193-3.593,1.341-4.367,3.306c-0.839,2.124-0.782,4.283,0.037,6.405
					C-283.394,908.044-281.44,909.365-279.101,909.354z"/>
			</g>
		</g>
	</g>
	<g>
		<rect x="-838" y="-78" fill="#E1E22D" width="8" height="30"/>
		<path fill="#E1E22D" d="M-792.291-78.599c-8.137,0-14.732,6.859-14.732,15.321s6.596,15.321,14.732,15.321
			c8.136,0,14.731-6.859,14.731-15.321S-784.155-78.599-792.291-78.599z M-792.291-55.616c-4.062,0-7.366-3.437-7.366-7.661
			c0-4.224,3.304-7.66,7.366-7.66c4.061,0,7.365,3.437,7.365,7.66C-784.926-59.053-788.23-55.616-792.291-55.616z"/>
		<polygon fill="#E1E22D" points="-811,-47.956 -811,-78.599 -825.731,-63.277 		"/>
	</g>
	<path fill="#FB4D5B" d="M-909.501-487c-24.43,0-44.231,20.595-44.231,46s19.802,46,44.231,46c24.428,0,44.229-20.595,44.229-46
		S-885.073-487-909.501-487z M-909.501-417.999c-12.197,0-22.115-10.317-22.115-23.001c0-12.681,9.918-22.999,22.115-22.999
		c12.192,0,22.112,10.317,22.112,22.999C-887.389-428.316-897.309-417.999-909.501-417.999z"/>
	<rect x="-536" y="-632" fill="#FB4D5B" width="22" height="90"/>
	<g>
		<rect x="-775" y="-634" fill="#FB4D5B" width="25" height="90"/>
		<path fill="#FB4D5B" d="M-638.727-634c-23.898,0-43.271,20.147-43.271,45s19.372,45,43.271,45c23.896,0,43.266-20.147,43.266-45
			S-614.83-634-638.727-634z M-638.727-566.499c-11.934,0-21.635-10.093-21.635-22.501c0-12.406,9.701-22.499,21.635-22.499
			c11.927,0,21.632,10.093,21.632,22.499C-617.095-576.591-626.8-566.499-638.727-566.499z"/>
		<polygon fill="#FB4D5B" points="-694,-544 -694,-634 -737.268,-589 		"/>
	</g>
	<polygon fill="#FB4D5B" points="-447,-542 -492,-587 -447,-632 	"/>
	<g>
		<path fill="#FB4D5B" d="M-380-610.333c12.683,0,23,10.318,23,23s-10.317,23-23,23s-23-10.318-23-23S-392.683-610.333-380-610.333
			 M-380-632.333c-24.853,0-45,20.147-45,45s20.147,45,45,45s45-20.147,45-45S-355.147-632.333-380-632.333L-380-632.333z"/>
	</g>
	<g>
		<rect x="-277" y="-431" fill="#FB4D5B" width="90" height="22"/>
		<rect x="-277" y="-467" fill="#FB4D5B" width="90" height="22"/>
		<rect x="-277" y="-399" fill="#FB4D5B" width="90" height="22"/>
		<rect x="-366" y="-467" fill="#FB4D5B" width="22" height="90"/>
		<polygon fill="#FB4D5B" points="76.234,-422.286 30.949,-377 -14.273,-422.224 		"/>
		<polygon fill="#FB4D5B" points="-344.031,-467.332 -298.713,-422.013 -343.968,-376.758 		"/>
		<polygon fill="#FB4D5B" points="183.82,-403 120,-403 120,-466.999 		"/>
		<polygon fill="#FB4D5B" points="-144,-403.179 -144,-467 -80.18,-467 		"/>
		<polygon fill="#FB4D5B" points="-101,-441 -101,-377 -164.91,-377 		"/>
		<g>
			<path fill="#FB4D5B" d="M31-445c12.683,0,23,10.318,23,23s-10.317,23-23,23S8-409.318,8-422S18.317-445,31-445 M31-467
				c-24.853,0-45,20.147-45,45s20.147,45,45,45s45-20.147,45-45S55.853-467,31-467L31-467z"/>
		</g>
		<rect x="-277" y="-467" fill="#FB4D5B" width="22" height="90"/>
		<rect x="-58" y="-467" fill="#FB4D5B" width="22" height="90"/>
		<rect x="-123" y="-467" fill="#FB4D5B" width="22" height="90"/>
		<rect x="-144" y="-467" fill="#FB4D5B" width="22" height="90"/>
		<rect x="98" y="-467" fill="#FB4D5B" width="22" height="90"/>
		<rect x="162" y="-467" fill="#FB4D5B" width="22" height="90"/>
	</g>
	<rect x="-277" y="-283" fill="#FB4D5B" width="90" height="22"/>
	<rect x="-277" y="-319" fill="#FB4D5B" width="90" height="22"/>
	<rect x="-277" y="-251" fill="#FB4D5B" width="90" height="22"/>
	<rect x="-366" y="-319" fill="#FB4D5B" width="22" height="90"/>
	<polygon fill="#FB4D5B" points="76.234,-274.286 30.949,-229 -14.273,-274.224 	"/>
	<polygon fill="#FB4D5B" points="-344.031,-319.332 -298.713,-274.013 -343.968,-228.758 	"/>
	<polygon fill="#FB4D5B" points="183.82,-255 120,-255 120,-318.999 	"/>
	<polygon fill="#FB4D5B" points="-144,-255.179 -144,-319 -80.18,-319 	"/>
	<polygon fill="#FB4D5B" points="-101,-293 -101,-229 -164.91,-229 	"/>
	<g>
		<path fill="#FB4D5B" d="M31-297c12.683,0,23,10.318,23,23s-10.317,23-23,23S8-261.318,8-274S18.317-297,31-297 M31-319
			c-24.853,0-45,20.147-45,45s20.147,45,45,45s45-20.147,45-45S55.853-319,31-319L31-319z"/>
	</g>
	<rect x="-277" y="-319" fill="#FB4D5B" width="22" height="90"/>
	<rect x="120" y="-191" fill="#FB4D5B" width="90" height="22"/>
	<rect x="120" y="-123" fill="#FB4D5B" width="90" height="22"/>
	<rect x="120" y="-191" fill="#FB4D5B" width="22" height="90"/>
	<rect x="-259" y="-155" fill="#FB4D5B" width="90" height="22"/>
	<rect x="-259" y="-191" fill="#FB4D5B" width="90" height="22"/>
	<rect x="-191" y="-191" fill="#FB4D5B" width="22" height="90"/>
	<rect x="-259" y="-191" fill="#FB4D5B" width="22" height="90"/>
	<rect x="-58" y="-319" fill="#FB4D5B" width="22" height="90"/>
	<rect x="79" y="-191" fill="#FB4D5B" width="22" height="90"/>
	<rect x="229" y="-191" fill="#FB4D5B" width="22" height="90"/>
	<rect x="1" y="-191" fill="#FB4D5B" width="22" height="90"/>
	<rect x="-33" y="-191" fill="#FB4D5B" width="90" height="22"/>
	<rect x="596" y="-191" fill="#FB4D5B" width="22" height="90"/>
	<rect x="518" y="-191" fill="#FB4D5B" width="22" height="90"/>
	<rect x="484" y="-191" fill="#FB4D5B" width="90" height="22"/>
	<rect x="-123" y="-319" fill="#FB4D5B" width="22" height="90"/>
	<rect x="-144" y="-319" fill="#FB4D5B" width="22" height="90"/>
	<rect x="98" y="-319" fill="#FB4D5B" width="22" height="90"/>
	<polygon fill="#FB4D5B" points="-342,-127.09 -342,-191 -278.09,-191 	"/>
	<rect x="-364" y="-191" fill="#FB4D5B" width="22" height="90"/>
	<polygon fill="#FB4D5B" points="-128,-127.09 -128,-191 -64.09,-191 	"/>
	<rect x="-150" y="-191" fill="#FB4D5B" width="22" height="90"/>
	
		<rect x="-107" y="-188.999" transform="matrix(-0.7071 0.7071 -0.7071 -0.7071 -265.7049 -177.9434)" fill="#FB4D5B" width="22" height="89.999"/>
	<rect x="376" y="-155" fill="#FB4D5B" width="90" height="22"/>
	<rect x="376" y="-191" fill="#FB4D5B" width="90" height="22"/>
	<rect x="444" y="-191" fill="#FB4D5B" width="22" height="90"/>
	<rect x="376" y="-191" fill="#FB4D5B" width="22" height="90"/>
	<polygon fill="#FB4D5B" points="293,-127.09 293,-191 356.91,-191 	"/>
	<rect x="271" y="-191" fill="#FB4D5B" width="22" height="90"/>
	<rect x="162" y="-319" fill="#FB4D5B" width="22" height="90"/>
	<polygon fill="#FB4D5B" points="835.82,-127 772,-127 772,-190.999 	"/>
	<g>
		<path fill="#FB4D5B" d="M683-169c12.683,0,23,10.318,23,23s-10.317,23-23,23s-23-10.318-23-23S670.317-169,683-169 M683-191
			c-24.853,0-45,20.147-45,45s20.147,45,45,45s45-20.147,45-45S707.853-191,683-191L683-191z"/>
	</g>
	<rect x="750" y="-191" fill="#FB4D5B" width="22" height="90"/>
	<rect x="814" y="-191" fill="#FB4D5B" width="22" height="90"/>
</g>
<g id="Layer_4">
	<g>
		<rect x="309" y="583" fill="#E1E22D" width="8" height="30"/>
		<rect x="1046" y="372" fill="#E1E22D" width="8" height="30"/>
		<rect x="555" y="57" fill="#E1E22D" width="8" height="30"/>
		<rect x="793" y="295" fill="#E1E22D" width="30" height="8"/>
		<rect x="1111" y="468" fill="#E1E22D" width="30" height="8"/>
		<rect x="197" y="245" fill="#E1E22D" width="30" height="8"/>
		<rect x="842" y="502" fill="#E1E22D" width="8" height="30"/>
		
			<rect x="350" y="296" transform="matrix(-0.7071 0.7071 -0.7071 -0.7071 824.226 280.5944)" fill="#E1E22D" width="8.001" height="30.001"/>
		
			<rect x="1137" y="551" transform="matrix(-0.7071 0.7071 -0.7071 -0.7071 2348.0312 159.4136)" fill="#E1E22D" width="8.001" height="30.001"/>
		
			<rect x="1088" y="225" transform="matrix(-0.7071 0.7071 -0.7071 -0.7071 2033.8662 -362.455)" fill="#E1E22D" width="8.001" height="30.001"/>
		<rect x="530" y="357" fill="#E1E22D" width="8" height="30"/>
		<rect x="1073" y="27" fill="#E1E22D" width="8" height="30"/>
		
			<rect x="301" y="457" transform="matrix(-0.7071 -0.7071 0.7071 -0.7071 186.9132 1021.422)" fill="#E1E22D" width="8.001" height="30.001"/>
		
			<rect x="460" y="568" transform="matrix(-0.707 0.7072 -0.7072 -0.707 1204.348 667.0818)" fill="#E1E22D" width="8" height="30"/>
		<rect x="98" y="372" fill="#E1E22D" width="8" height="30"/>
		<rect x="979" y="82" fill="#E1E22D" width="8" height="30"/>
		
			<rect x="581" y="121" transform="matrix(-0.7787 -0.6274 0.6274 -0.7787 955.193 608.9463)" fill="#E1E22D" width="8" height="30"/>
		
			<rect x="838" y="119" transform="matrix(-0.6958 0.7182 -0.7182 -0.6958 1524.099 -377.5296)" fill="#E1E22D" width="8" height="30"/>
		
			<rect x="221" y="42" transform="matrix(-0.7071 0.7071 -0.7071 -0.7071 424.4041 -61.7939)" fill="#E1E22D" width="8.001" height="30.001"/>
		
			<rect x="30.001" y="216" transform="matrix(-0.8654 -0.5012 0.5012 -0.8654 -52.3465 447.936)" fill="#E1E22D" width="7.999" height="30"/>
		<rect x="121" y="91" fill="#E1E22D" width="8" height="30"/>
		<path fill="#E1E22D" d="M429.635,441.679c-8.137,0-14.732,6.859-14.732,15.321s6.596,15.321,14.732,15.321
			c8.136,0,14.731-6.859,14.731-15.321S437.771,441.679,429.635,441.679z M429.635,464.661c-4.062,0-7.366-3.437-7.366-7.661
			c0-4.224,3.304-7.66,7.366-7.66c4.061,0,7.365,3.437,7.365,7.66C437,461.225,433.695,464.661,429.635,464.661z"/>
		<path fill="#E1E22D" d="M938.87,581.114c-8.137,0-14.732,6.859-14.732,15.321s6.596,15.321,14.732,15.321
			c8.136,0,14.731-6.859,14.731-15.321S947.006,581.114,938.87,581.114z M938.87,604.097c-4.062,0-7.366-3.437-7.366-7.661
			c0-4.224,3.304-7.66,7.366-7.66c4.061,0,7.365,3.437,7.365,7.66C946.235,600.66,942.931,604.097,938.87,604.097z"/>
		<path fill="#E1E22D" d="M1092,607.679c-8.137,0-14.732,6.859-14.732,15.321s6.596,15.321,14.732,15.321
			c8.136,0,14.731-6.859,14.731-15.321S1100.136,607.679,1092,607.679z M1092,630.661c-4.062,0-7.366-3.437-7.366-7.661
			c0-4.224,3.304-7.66,7.366-7.66c4.061,0,7.365,3.437,7.365,7.66C1099.365,627.225,1096.061,630.661,1092,630.661z"/>
		<path fill="#E1E22D" d="M34.001,550.472c-8.137,0-14.732,6.859-14.732,15.321s6.596,15.321,14.732,15.321
			c8.136,0,14.731-6.859,14.731-15.321S42.137,550.472,34.001,550.472z M34.001,573.454c-4.062,0-7.366-3.437-7.366-7.661
			c0-4.224,3.304-7.66,7.366-7.66c4.061,0,7.365,3.437,7.365,7.66C41.366,570.018,38.062,573.454,34.001,573.454z"/>
		<path fill="#E1E22D" d="M752.198,585.13c-8.137,0-14.732,6.859-14.732,15.321s6.596,15.321,14.732,15.321
			c8.136,0,14.731-6.859,14.731-15.321S760.334,585.13,752.198,585.13z M752.198,608.112c-4.062,0-7.366-3.437-7.366-7.661
			c0-4.224,3.304-7.66,7.366-7.66c4.061,0,7.365,3.437,7.365,7.66C759.563,604.676,756.259,608.112,752.198,608.112z"/>
		<path fill="#E1E22D" d="M1133.14,120.679c-8.137,0-14.732,6.859-14.732,15.321s6.596,15.321,14.732,15.321
			c8.136,0,14.731-6.859,14.731-15.321S1141.275,120.679,1133.14,120.679z M1133.14,143.661c-4.062,0-7.366-3.437-7.366-7.661
			c0-4.224,3.304-7.66,7.366-7.66c4.061,0,7.365,3.437,7.365,7.66C1140.505,140.225,1137.2,143.661,1133.14,143.661z"/>
		<path fill="#E1E22D" d="M1171,306.481c-8.137,0-14.732,6.859-14.732,15.321s6.596,15.321,14.732,15.321
			c8.136,0,14.731-6.859,14.731-15.321S1179.136,306.481,1171,306.481z M1171,329.464c-4.062,0-7.366-3.437-7.366-7.661
			c0-4.224,3.304-7.66,7.366-7.66c4.061,0,7.365,3.437,7.365,7.66C1178.365,326.027,1175.061,329.464,1171,329.464z"/>
		<path fill="#E1E22D" d="M974.904,408.679c-8.137,0-14.732,6.859-14.732,15.321s6.596,15.321,14.732,15.321
			c8.136,0,14.731-6.859,14.731-15.321S983.04,408.679,974.904,408.679z M974.904,431.661c-4.062,0-7.366-3.437-7.366-7.661
			c0-4.224,3.304-7.66,7.366-7.66c4.061,0,7.365,3.437,7.365,7.66C982.27,428.225,978.965,431.661,974.904,431.661z"/>
		<path fill="#E1E22D" d="M752.198,337.596c-8.137,0-14.732,6.859-14.732,15.32c0,8.463,6.596,15.322,14.732,15.322
			c8.136,0,14.731-6.859,14.731-15.322C766.93,344.455,760.334,337.596,752.198,337.596z M752.198,360.578
			c-4.062,0-7.366-3.438-7.366-7.662c0-4.223,3.304-7.66,7.366-7.66c4.061,0,7.365,3.438,7.365,7.66
			C759.563,357.141,756.259,360.578,752.198,360.578z"/>
		<path fill="#E1E22D" d="M737.466,149.467c-8.137,0-14.732,6.859-14.732,15.321s6.596,15.321,14.732,15.321
			c8.136,0,14.731-6.859,14.731-15.321S745.602,149.467,737.466,149.467z M737.466,172.449c-4.062,0-7.366-3.437-7.366-7.661
			c0-4.224,3.304-7.66,7.366-7.66c4.061,0,7.365,3.437,7.365,7.66C744.831,169.013,741.526,172.449,737.466,172.449z"/>
		<path fill="#E1E22D" d="M121,233.441c-8.137,0-14.732,6.859-14.732,15.321s6.596,15.321,14.732,15.321
			c8.136,0,14.731-6.859,14.731-15.321S129.136,233.441,121,233.441z M121,256.424c-4.062,0-7.366-3.437-7.366-7.661
			c0-4.224,3.304-7.66,7.366-7.66c4.061,0,7.365,3.437,7.365,7.66C128.365,252.987,125.061,256.424,121,256.424z"/>
		<path fill="#E1E22D" d="M401.482,75.803c-8.137,0-14.732,6.859-14.732,15.321s6.596,15.321,14.732,15.321
			c8.136,0,14.731-6.859,14.731-15.321S409.618,75.803,401.482,75.803z M401.482,98.785c-4.062,0-7.366-3.437-7.366-7.661
			c0-4.224,3.304-7.66,7.366-7.66c4.061,0,7.365,3.437,7.365,7.66C408.848,95.349,405.543,98.785,401.482,98.785z"/>
		<path fill="#E1E22D" d="M248.086,149.467c-8.137,0-14.732,6.859-14.732,15.321s6.596,15.321,14.732,15.321
			c8.136,0,14.731-6.859,14.731-15.321S256.222,149.467,248.086,149.467z M248.086,172.449c-4.062,0-7.366-3.437-7.366-7.661
			c0-4.224,3.304-7.66,7.366-7.66c4.061,0,7.365,3.437,7.365,7.66C255.451,169.013,252.146,172.449,248.086,172.449z"/>
		<polygon fill="#E1E22D" points="891,225.803 891,256.445 905.731,241.124 		"/>
		<polygon fill="#E1E22D" points="618.312,424 648.955,424 633.635,409.268 		"/>
		<polygon fill="#E1E22D" points="232,352.445 232,321.803 217.269,337.124 		"/>
		<polygon fill="#E1E22D" points="938,180.445 938,149.803 923.269,165.124 		"/>
		<polygon fill="#E1E22D" points="990,297.445 990,266.803 975.269,282.124 		"/>
		<polygon fill="#E1E22D" points="1034,532.445 1034,501.803 1019.269,517.124 		"/>
		<polygon fill="#E1E22D" points="65,502.445 65,471.803 50.269,487.124 		"/>
		<polygon fill="#E1E22D" points="422,164.803 422,195.445 436.731,180.124 		"/>
		<polygon fill="#E1E22D" points="58,96.803 58,127.445 72.731,112.124 		"/>
		<polygon fill="#E1E22D" points="89,613.445 89,582.803 74.269,598.124 		"/>
		<polygon fill="#E1E22D" points="1004.312,623 1034.955,623 1019.635,608.268 		"/>
		<polygon fill="#E1E22D" points="737.954,510 707.312,510 722.632,524.732 		"/>
		<polygon fill="#E1E22D" points="650,273.445 650,242.803 635.269,258.124 		"/>
		<polygon fill="#E1E22D" points="857,660.445 857,629.803 842.269,645.124 		"/>
		<polygon fill="#E1E22D" points="615,613.445 615,582.803 600.269,598.124 		"/>
		<polygon fill="#E1E22D" points="181.312,652 211.955,652 196.635,637.268 		"/>
		<polygon fill="#E1E22D" points="435.312,322 465.955,322 450.635,307.268 		"/>
		<polygon fill="#E1E22D" points="182,511.803 182,542.445 196.731,527.124 		"/>
		<polygon fill="#E1E22D" points="790,87.445 790,56.803 775.269,72.124 		"/>
		<polygon fill="#E1E22D" points="657.312,49 687.955,49 672.635,34.269 		"/>
		<polygon fill="#E1E22D" points="871,402.445 871,371.803 856.269,387.124 		"/>
		<polygon fill="#E1E22D" points="512,222.445 512,191.803 497.269,207.124 		"/>
		<polygon fill="#E1E22D" points="312,134.445 312,103.803 297.269,119.124 		"/>
		<polygon fill="#E1E22D" points="190,57.445 190,26.803 175.269,42.124 		"/>
	</g>
</g>
<g id="Layer_3">
	<rect x="-892" y="264" opacity="0.5" fill="#1EE29C" width="648" height="395"/>
	<g>
		<path fill="#FFFFFF" d="M-549.927,683.179l-0.427,1.743l0.427-1.741l11.383-49.213c0.036-0.174,0.056-0.342,0.062-0.517
			c-0.009,0.157-0.031,0.312-0.062,0.464L-549.927,683.179z"/>
		<path fill="#FFFFFF" d="M-559.485,705.241c0.05-0.211,0.068-0.426,0.065-0.629c-0.003,0.177-0.021,0.351-0.065,0.539
			l-7.197,31.188l-1.926,8.319l0.018-0.035l1.908-8.224L-559.485,705.241z"/>
		<path fill="#FFFFFF" d="M-528.6,684.922c0.981,0,1.887,0.64,2.358,1.502c0.24,0.434,0.348,0.936,0.328,1.435
			c0.02-0.499-0.088-1.001-0.328-1.437C-526.713,685.559-527.618,684.922-528.6,684.922z"/>
		<path fill="#FFFFFF" d="M-589.591,705.941c-0.235-0.427-0.341-0.919-0.326-1.412c-0.02,0.488,0.086,0.979,0.326,1.414
			c0.47,0.867,1.374,1.508,2.355,1.508C-588.217,707.451-589.121,706.807-589.591,705.941z"/>
		<path fill="#FFFFFF" d="M-565.907,709.186l-11.382,49.213c-0.033,0.172-0.055,0.345-0.061,0.519
			c0.008-0.155,0.03-0.312,0.061-0.469L-565.907,709.186z"/>
		<path fill="#FFFFFF" d="M-556.35,687.124c-0.048,0.212-0.066,0.421-0.063,0.629c0.003-0.176,0.022-0.356,0.063-0.542l7.2-31.184
			l1.923-8.318l-0.02,0.029l-1.903,8.227L-556.35,687.124z"/>
		<path fill="#FFFFFF" d="M-518.018,675.832c0.468,0,0.933-0.122,1.338-0.357l14.509-8.38c1.282-0.74,1.724-2.387,0.986-3.669
			c-0.482-0.83-1.375-1.347-2.335-1.347c-0.469,0-0.929,0.125-1.337,0.364l-14.506,8.374c-1.284,0.741-1.728,2.387-0.99,3.669
			C-519.869,675.318-518.976,675.832-518.018,675.832z"/>
		<path fill="#FFFFFF" d="M-597.488,716.332c-0.467,0-0.931,0.127-1.339,0.365l-14.835,8.568c-1.282,0.738-1.726,2.387-0.986,3.671
			c0.479,0.823,1.372,1.339,2.331,1.339c0.472,0,0.935-0.125,1.339-0.356l14.837-8.571c1.282-0.738,1.719-2.386,0.981-3.672
			C-595.638,716.849-596.53,716.332-597.488,716.332z"/>
		<path fill="#FFFFFF" d="M-601.301,696.5c0-1.479-1.206-2.5-2.684-2.5h-16.755c-1.479,0-2.685,1.021-2.685,2.5
			c0,1.482,1.205,2.5,2.685,2.5h16.755C-602.507,699-601.301,697.982-601.301,696.5z"/>
		<path fill="#FFFFFF" d="M-596.142,671.012l-14.835-8.568c-0.411-0.241-0.873-0.366-1.344-0.366c-0.956,0-1.846,0.517-2.33,1.351
			c-0.355,0.618-0.451,1.342-0.266,2.037c0.186,0.692,0.63,1.271,1.254,1.63l14.835,8.564c0.405,0.234,0.867,0.358,1.336,0.358
			c0.964,0,1.856-0.516,2.331-1.339c0.357-0.622,0.456-1.35,0.27-2.039C-595.078,671.943-595.52,671.368-596.142,671.012z"/>
		<path fill="#FFFFFF" d="M-495.098,694h-16.751c-1.479,0-2.686,1.021-2.686,2.5c0,1.482,1.206,2.5,2.686,2.5h16.751
			c1.481,0,2.688-1.018,2.688-2.5C-492.409,695.021-493.616,694-495.098,694z"/>
		<path fill="#FFFFFF" d="M-502.171,725.266l-14.506-8.378c-0.411-0.238-0.875-0.363-1.337-0.363c-0.96,0-1.853,0.517-2.337,1.347
			c-0.737,1.282-0.294,2.927,0.988,3.674l14.504,8.372c0.413,0.236,0.865,0.358,1.342,0.358c0.958,0,1.851-0.516,2.332-1.341
			c0.36-0.62,0.453-1.347,0.268-2.037C-501.102,726.202-501.548,725.624-502.171,725.266z"/>
		<path fill="#FFFFFF" d="M-528.6,684h-19.867h-1.887l0.427-1.283l11.383-49.027c0.031-0.158,0.054-0.196,0.062-0.353
			c0.038-1.091-0.594-2.057-1.635-2.498c-0.336-0.142-0.687-0.18-1.043-0.18c-0.916,0-1.761,0.485-2.258,1.257l-46.068,71.224
			c-0.267,0.414-0.413,0.901-0.432,1.388c-0.015,0.492,0.091,0.762,0.326,1.188c0.47,0.865,1.374,1.285,2.355,1.285h19.867h1.885
			l-0.424,1.959l-11.382,49.378c-0.03,0.154-0.053,0.369-0.061,0.52c-0.039,1.097,0.592,2.149,1.633,2.591
			c0.334,0.141,0.685,0.228,1.049,0.228c0.915,0,1.758-0.454,2.254-1.224l46.069-71.191c0.267-0.414,0.413-0.909,0.432-1.405
			c0.02-0.499-0.088-1.459-0.328-1.89C-526.713,685.097-527.618,684-528.6,684z M-535.038,692.568l-28.926,44.908l-4.645,7.218
			l0.018-0.082l-0.018,0.042l1.926-8.317l7.197-31.184c0.045-0.188,0.062-0.366,0.065-0.541c-0.01-0.564-0.208-1.192-0.584-1.666
			c-0.512-0.645-1.277-0.946-2.102-0.946h-17.431h-2.759l1.499-2.389l28.925-44.815l4.645-7.173l-0.02,0.108l0.02-0.028
			l-1.923,8.321l-7.2,31.183c-0.041,0.188-0.061,0.368-0.063,0.545c0.006,0.563,0.208,1.01,0.582,1.483
			c0.512,0.642,1.279,0.765,2.102,0.765h17.431h2.759L-535.038,692.568z"/>
	</g>
	<text transform="matrix(1 0 0 1 -877.0352 320.3574)"><tspan x="0" y="0" fill="#FFFFFF" font-family="'OpenSans-Light'" font-size="65.5076">As our differences</tspan><tspan x="0" y="90.072" fill="#FFFFFF" font-family="'OpenSans-Light'" font-size="65.5076">make us </tspan><tspan x="263.374" y="90.072" fill="#FFFFFF" font-family="'OpenSans-Semibold'" font-size="65.5076">stronger</tspan><tspan x="533.272" y="90.072" fill="#FFFFFF" font-family="'OpenSans-Light'" font-size="65.5076">,</tspan><tspan x="0" y="180.145" fill="#FFFFFF" font-family="'OpenSans-Light'" font-size="65.5076">our common ground</tspan><tspan x="0" y="270.219" fill="#FFFFFF" font-family="'OpenSans-Light'" font-size="65.5076">gives us </tspan><tspan x="248.788" y="270.219" fill="#FFFFFF" font-family="'OpenSans-SemiboldItalic'" font-size="65.5076">power</tspan></text>
</g>
<g id="Layer_2">
	<g>
		<path fill="#FFFFFF" d="M337.046-622.285H256.07c-3.995,0-6.373,0.446-8.111,0.771c-2.719,0.516-3.359,0.627-9.781-3.112
			c-6.803-3.972-7.209-4.208-9.096-2.795c-0.046,0.037-0.092,0.069-0.135,0.109c-0.441-0.092-1.029-0.23-1.797-0.443
			c-7.157-1.945-10.086,2.559-12.228,5.848c-2.142,3.29-3.985,6.135-10.043,6.135c-3.926,0-4.69-1.842-5.878-7.096
			c-0.046-0.202-0.092-0.41-0.137-0.616c5.717-1.706,11.118-4.467,14.205-8.508c2.886-3.779,3.638-6.886,2.23-9.227
			c-0.525-0.873-2.146-2.847-5.871-2.228c-4.139,0.682-10.279,4.645-14.812,11.581c-0.305-0.232-0.633-0.449-0.987-0.646
			c-2.788-1.557-6.354-1.505-11.225,0.165c-1.092,0.374-2.2,0.78-3.221,1.26c-0.695-4.986-2.079-9.276-3.962-12.493
			c0.102-1.454-0.138-2.536-0.731-3.579c-1.299-2.279-3.645-2.788-6.359-3.372c-1.985-0.426-4.454-0.961-7.643-2.236
			c-3.104-1.24-5.406-0.613-6.786,0.138c-4.451,2.407-5.77,8.935-7.437,17.193c-0.448,2.224-0.897,4.365-1.384,6.393
			c-2.19-4.421-4.778-7.259-7.317-9.062c0.187-3.874-0.423-7.925-2.3-12.044c-0.715-1.571-2.922-6.35-7.134-5.91
			c-0.456,0.046-0.892,0.144-1.312,0.301c1.178-15.422-0.42-18.889-3.906-19.748c-5.123-1.27-9.438,3.591-29.064,55.34
			c-1.374,3.624-2.571,6.953-3.607,10.01c-1.25-4.617-2.414-9.289-3.493-13.933c7.347-20.956,11.532-44.112,2.942-64.152
			c-4.75-11.087-8.978-18.033-14.176-15.901c-8.443,3.47-4.041,42.521,4.474,79.46c-4.123,11.456-9.181,22.264-13.448,31.383
			c-7.455,15.934-11.2,23.934-7.32,28.082c1.229,1.319,2.83,1.749,4.424,1.749c2.247,0,4.471-0.859,5.603-1.299
			c3.592-1.391,6.412-2.384,8.636-3.172c9.109-3.214,10.318-3.945,11.562-12.309c0.252-1.7,0.57-3.839,1.111-6.584
			c1.096,3.212,2.201,6.239,3.307,9.05c0.662,1.687,2.568,2.513,4.254,1.85c1.686-0.662,2.516-2.568,1.85-4.254
			c-2.309-5.867-4.464-12.132-6.451-18.604c1.496-5.139,3.562-11.403,6.465-19.06c9.855-25.986,16.767-42.278,20.617-48.621
			c0.141,3.613-0.121,10.731-1.811,24.73c-0.049,0.396-0.095,0.794-0.138,1.19c-0.235,0.853-0.476,1.745-0.715,2.674
			c-0.974,0.636-1.926,1.367-2.837,2.181c-7.275,6.494-10.549,16.633-8.341,25.83c0.515,2.148,1.584,6.611,5.287,6.611
			c0.007,0,0.014,0,0.022,0c3.271-0.016,4.858-2.975,7.065-11.486c0.236,1.45,0.509,2.861,0.813,4.223
			c-0.266,1.569-0.059,2.997,0.83,4.329c0.141,0.213,0.299,0.413,0.466,0.6c2.893,9.486,7.433,16.229,12.382,19.303
			c3.647,2.267,7.491,2.407,10.549,0.41c5.457-3.575,7.347-13.194,5.319-27.093c-0.282-1.925-0.613-3.722-0.984-5.398
			c2.047-5.127,3.198-10.827,4.195-15.776c1.004-4.969,2.378-11.775,4.126-12.72c0.296-0.168,0.957,0.072,1.23,0.184
			c0.748,0.299,1.459,0.561,2.139,0.797c-1.827,2.528-3.211,6.304-4.146,11.296c-1.827,9.771,0.211,17.364,4.159,22.639
			c-0.476,2.949-0.856,5.923-1.125,8.819c-1.403,15.114,1.026,18.1,3.591,19.023c4.715,1.709,8.224-4.513,12.34-15.1
			c0.516-1.329,0.987-2.661,1.41-3.982c7.436,0.397,15.117-3.23,18.457-11.506c1.676,2.987,4.568,5.478,10.004,5.478
			c9.619,0,13.185-5.487,15.544-9.118c2.151-3.312,2.62-3.756,4.998-3.094c2.778,0.755,4.796,1.105,6.314,0.637
			c0.81,0.469,1.869,1.086,3.136,1.826c7.871,4.586,9.943,4.708,14.297,3.896c1.567-0.295,3.516-0.659,6.901-0.659h80.976
			c1.811,0,3.279-1.465,3.279-3.279S338.855-622.285,337.046-622.285z M207.786-635.88c-1.093,1.395-2.647,2.579-4.468,3.572
			C204.896-633.924,206.467-635.105,207.786-635.88z M77.903-696.726c1.108,1.492,2.985,4.611,5.753,11.07
			c6.356,14.835,4.852,31.999,0.279,48.595C78.401-664.625,76.145-689.281,77.903-696.726z M82.947-581.207
			c-0.708,4.776-0.708,4.776-7.258,7.088c-2.27,0.804-5.149,1.82-8.82,3.238c-1.289,0.495-2.132,0.712-2.66,0.797
			c0.253-3.313,4.49-12.365,8.266-20.435c3.211-6.861,6.852-14.642,10.233-22.956c1.286,5.005,2.631,9.899,4.015,14.569
			C84.289-590.222,83.479-584.782,82.947-581.207z M112.608-615.744c0-3.237,0.85-6.229,2.128-8.794
			C114.071-621.649,113.326-618.473,112.608-615.744z M128.578-648.809c0.2,0.334,0.439,0.784,0.712,1.381
			c0.993,2.182,1.509,4.369,1.663,6.53c-0.893-0.154-1.795-0.229-2.706-0.229c-0.889,0-1.784,0.072-2.68,0.217
			C126.588-644.365,127.627-647.303,128.578-648.809z M124.678-633.967c1.952-0.669,3.907-0.797,5.744-0.345
			c-1.06,4.812-3.393,9.348-5.557,13.262C124.515-624.99,124.422-629.293,124.678-633.967z M126.738-609.988
			c-0.029-0.111-0.055-0.217-0.086-0.331c0.549-1.476,1.913-3.913,2.976-5.809c2.214-3.946,4.966-8.853,6.586-14.344
			c2.257,2.663,4.084,6.563,5.396,11.532c-2.303,4.927-5.523,8.161-10.652,8.777C128.766-609.899,127.47-609.918,126.738-609.988z
			 M140.57-591.358c-0.867,0.574-2.043,0.407-3.494-0.495c-2.653-1.646-5.736-5.529-8.18-11.545c0.945-0.043,1.902-0.135,2.84-0.246
			c5.021-0.604,8.748-2.821,11.572-5.957C144.604-598.37,142.712-592.761,140.57-591.358z M162.404-622.839
			c-0.627-3-0.662-6.514,0.089-10.534c1.384-7.406,3.497-9.545,4.195-9.741c0.022-0.007,0.049-0.01,0.075-0.01
			c0.282,0,0.846,0.331,1.477,1.022c0.022,0.026,0.045,0.05,0.068,0.075c-0.552,2.123-1.663,5.448-2.955,9.315l-0.813,2.438
			C163.775-627.994,163.058-625.486,162.404-622.839z M168.893-601.575c-1.535,3.95-2.739,6.551-3.641,8.26
			c-0.128-3.159,0.121-7.872,0.789-13.216c1.257,0.797,2.579,1.456,3.934,1.975C169.643-603.572,169.283-602.579,168.893-601.575z
			 M171.736-610.913c-1.653-0.702-3.205-1.702-4.56-2.998c0.879-4.792,2.063-9.741,3.581-14.292l0.814-2.429
			c0.226-0.68,0.442-1.325,0.649-1.945C173.386-626.942,173.629-619.434,171.736-610.913z M189.572-619.697
			c-1.473,6.767-6.438,9.719-11.395,9.969c0.893-4.124,1.367-8.148,1.485-11.959c2.474,0.482,6.223,0.528,10.392,0.023
			C189.877-621.022,189.717-620.369,189.572-619.697z"/>
	</g>
	<g>
		<path fill="none" d="M-458,457c-12.603,0-22.865,10.188-22.994,22.762l45.987-0.031C-435.152,467.172-445.408,457-458,457z"/>
		<path fill="#FB4D5B" d="M-413.008,480c-0.153-25-20.235-44.746-44.992-44.746c-24.777,0-44.873,19.746-44.994,44.746h-0.279
			l0.274,0.163c0.028,24.812,20.136,44.837,44.946,44.837h0.002h0.001c0.017,0,0.033,0,0.05,0c24.853,0,45-20.146,45-45
			c0-0.017-0.001-0.033-0.001-0.05l0.235,0.05H-413.008z M-458,457c12.592,0,22.848,10.172,22.993,22.73l-45.987,0.031
			C-480.865,467.188-470.603,457-458,457z"/>
		<polygon fill="#FB4D5B" points="-833,435 -855,435 -855,525 -833,525 -833,479.259 -832.968,525.242 -787.697,479.986 
			-833,434.668 		"/>
		<polygon fill="#FB4D5B" points="-590,435 -611,435 -612,435 -633,435 -633,498.821 -633,504.061 -653.91,525 -633,525 -612,525 
			-611,525 -590,525 -590,461 -590,455.82 -569.18,435 		"/>
		<polygon fill="#FB4D5B" points="-766,435 -766,457 -766,471 -766,493 -766,503 -766,525 -744,525 -676,525 -676,503 -744,503 
			-744,493 -676,493 -676,471 -744,471 -744,457 -676,457 -676,435 -744,435 		"/>
		<rect x="-547" y="435" fill="#FB4D5B" width="22" height="90"/>
		<polygon fill="#FB4D5B" points="-327,435 -327,477.118 -369,435.001 -369,435 -391,435 -391,525 -369,525 -369,499 -327,499 
			-327,525 -305,525 -305,435 		"/>
	</g>
</g>
</svg>
