<?xml version="1.0" encoding="utf-8"?>
<!-- Generator: Adobe Illustrator 16.0.0, SVG Export Plug-In . SVG Version: 6.00 Build 0)  -->
<!DOCTYPE svg PUBLIC "-//W3C//DTD SVG 1.1//EN" "http://www.w3.org/Graphics/SVG/1.1/DTD/svg11.dtd">
<svg version="1.1" xmlns="http://www.w3.org/2000/svg" xmlns:xlink="http://www.w3.org/1999/xlink" x="0px" y="0px" width="1200px"
	 height="680px" viewBox="0 0 1200 680" enable-background="new 0 0 1200 680" xml:space="preserve">
<g id="Layer_1">
</g>
<g id="Layer_4">
	<g>
		<rect x="309" y="583" fill="#2D2C86" width="8" height="30"/>
		<rect x="1046" y="372" fill="#2D2C86" width="8" height="30"/>
		<rect x="555" y="57" fill="#2D2C86" width="8" height="30"/>
		<rect x="793" y="295" fill="#2D2C86" width="30" height="8"/>
		<rect x="1111" y="468" fill="#2D2C86" width="30" height="8"/>
		<rect x="197" y="245" fill="#2D2C86" width="30" height="8"/>
		<rect x="842" y="502" fill="#2D2C86" width="8" height="30"/>
		
			<rect x="350" y="296" transform="matrix(-0.7071 0.7071 -0.7071 -0.7071 824.226 280.5944)" fill="#2D2C86" width="8.001" height="30.001"/>
		
			<rect x="1137" y="551" transform="matrix(-0.7071 0.7071 -0.7071 -0.7071 2348.0312 159.4136)" fill="#2D2C86" width="8.001" height="30.001"/>
		
			<rect x="1088" y="225" transform="matrix(-0.7071 0.7071 -0.7071 -0.7071 2033.8662 -362.455)" fill="#2D2C86" width="8.001" height="30.001"/>
		<rect x="530" y="357" fill="#2D2C86" width="8" height="30"/>
		<rect x="1073" y="27" fill="#2D2C86" width="8" height="30"/>
		
			<rect x="301" y="457" transform="matrix(-0.7071 -0.7071 0.7071 -0.7071 186.9132 1021.422)" fill="#2D2C86" width="8.001" height="30.001"/>
		
			<rect x="460" y="568" transform="matrix(-0.707 0.7072 -0.7072 -0.707 1204.348 667.0818)" fill="#2D2C86" width="8" height="30"/>
		<rect x="98" y="372" fill="#2D2C86" width="8" height="30"/>
		<rect x="979" y="82" fill="#2D2C86" width="8" height="30"/>
		
			<rect x="581" y="121" transform="matrix(-0.7787 -0.6274 0.6274 -0.7787 955.193 608.9463)" fill="#2D2C86" width="8" height="30"/>
		
			<rect x="838" y="119" transform="matrix(-0.6958 0.7182 -0.7182 -0.6958 1524.099 -377.5296)" fill="#2D2C86" width="8" height="30"/>
		
			<rect x="221" y="42" transform="matrix(-0.7071 0.7071 -0.7071 -0.7071 424.4041 -61.7939)" fill="#2D2C86" width="8.001" height="30.001"/>
		
			<rect x="30.001" y="216" transform="matrix(-0.8654 -0.5012 0.5012 -0.8654 -52.3465 447.936)" fill="#2D2C86" width="7.999" height="30"/>
		<rect x="121" y="91" fill="#2D2C86" width="8" height="30"/>
		<path fill="#2D2C86" d="M429.635,441.679c-8.137,0-14.732,6.859-14.732,15.321s6.596,15.321,14.732,15.321
			c8.136,0,14.731-6.859,14.731-15.321S437.771,441.679,429.635,441.679z M429.635,464.661c-4.062,0-7.366-3.437-7.366-7.661
			c0-4.224,3.304-7.66,7.366-7.66c4.061,0,7.365,3.437,7.365,7.66C437,461.225,433.695,464.661,429.635,464.661z"/>
		<path fill="#2D2C86" d="M938.87,581.114c-8.137,0-14.732,6.859-14.732,15.321s6.596,15.321,14.732,15.321
			c8.136,0,14.731-6.859,14.731-15.321S947.006,581.114,938.87,581.114z M938.87,604.097c-4.062,0-7.366-3.437-7.366-7.661
			c0-4.224,3.304-7.66,7.366-7.66c4.061,0,7.365,3.437,7.365,7.66C946.235,600.66,942.931,604.097,938.87,604.097z"/>
		<path fill="#2D2C86" d="M1092,607.679c-8.137,0-14.732,6.859-14.732,15.321s6.596,15.321,14.732,15.321
			c8.136,0,14.731-6.859,14.731-15.321S1100.136,607.679,1092,607.679z M1092,630.661c-4.062,0-7.366-3.437-7.366-7.661
			c0-4.224,3.304-7.66,7.366-7.66c4.061,0,7.365,3.437,7.365,7.66C1099.365,627.225,1096.061,630.661,1092,630.661z"/>
		<path fill="#2D2C86" d="M34.001,550.472c-8.137,0-14.732,6.859-14.732,15.321s6.596,15.321,14.732,15.321
			c8.136,0,14.731-6.859,14.731-15.321S42.137,550.472,34.001,550.472z M34.001,573.454c-4.062,0-7.366-3.437-7.366-7.661
			c0-4.224,3.304-7.66,7.366-7.66c4.061,0,7.365,3.437,7.365,7.66C41.366,570.018,38.062,573.454,34.001,573.454z"/>
		<path fill="#2D2C86" d="M752.198,585.13c-8.137,0-14.732,6.859-14.732,15.321s6.596,15.321,14.732,15.321
			c8.136,0,14.731-6.859,14.731-15.321S760.334,585.13,752.198,585.13z M752.198,608.112c-4.062,0-7.366-3.437-7.366-7.661
			c0-4.224,3.304-7.66,7.366-7.66c4.061,0,7.365,3.437,7.365,7.66C759.563,604.676,756.259,608.112,752.198,608.112z"/>
		<path fill="#2D2C86" d="M1133.14,120.679c-8.137,0-14.732,6.859-14.732,15.321s6.596,15.321,14.732,15.321
			c8.136,0,14.731-6.859,14.731-15.321S1141.275,120.679,1133.14,120.679z M1133.14,143.661c-4.062,0-7.366-3.437-7.366-7.661
			c0-4.224,3.304-7.66,7.366-7.66c4.061,0,7.365,3.437,7.365,7.66C1140.505,140.225,1137.2,143.661,1133.14,143.661z"/>
		<path fill="#2D2C86" d="M1171,306.481c-8.137,0-14.732,6.859-14.732,15.321s6.596,15.321,14.732,15.321
			c8.136,0,14.731-6.859,14.731-15.321S1179.136,306.481,1171,306.481z M1171,329.464c-4.062,0-7.366-3.437-7.366-7.661
			c0-4.224,3.304-7.66,7.366-7.66c4.061,0,7.365,3.437,7.365,7.66C1178.365,326.027,1175.061,329.464,1171,329.464z"/>
		<path fill="#2D2C86" d="M974.904,408.679c-8.137,0-14.732,6.859-14.732,15.321s6.596,15.321,14.732,15.321
			c8.136,0,14.731-6.859,14.731-15.321S983.04,408.679,974.904,408.679z M974.904,431.661c-4.062,0-7.366-3.437-7.366-7.661
			c0-4.224,3.304-7.66,7.366-7.66c4.061,0,7.365,3.437,7.365,7.66C982.27,428.225,978.965,431.661,974.904,431.661z"/>
		<path fill="#2D2C86" d="M752.198,337.596c-8.137,0-14.732,6.859-14.732,15.32c0,8.463,6.596,15.322,14.732,15.322
			c8.136,0,14.731-6.859,14.731-15.322C766.93,344.455,760.334,337.596,752.198,337.596z M752.198,360.578
			c-4.062,0-7.366-3.438-7.366-7.662c0-4.223,3.304-7.66,7.366-7.66c4.061,0,7.365,3.438,7.365,7.66
			C759.563,357.141,756.259,360.578,752.198,360.578z"/>
		<path fill="#2D2C86" d="M737.466,149.467c-8.137,0-14.732,6.859-14.732,15.321s6.596,15.321,14.732,15.321
			c8.136,0,14.731-6.859,14.731-15.321S745.602,149.467,737.466,149.467z M737.466,172.449c-4.062,0-7.366-3.437-7.366-7.661
			c0-4.224,3.304-7.66,7.366-7.66c4.061,0,7.365,3.437,7.365,7.66C744.831,169.013,741.526,172.449,737.466,172.449z"/>
		<path fill="#2D2C86" d="M121,233.441c-8.137,0-14.732,6.859-14.732,15.321s6.596,15.321,14.732,15.321
			c8.136,0,14.731-6.859,14.731-15.321S129.136,233.441,121,233.441z M121,256.424c-4.062,0-7.366-3.437-7.366-7.661
			c0-4.224,3.304-7.66,7.366-7.66c4.061,0,7.365,3.437,7.365,7.66C128.365,252.987,125.061,256.424,121,256.424z"/>
		<path fill="#2D2C86" d="M401.482,75.803c-8.137,0-14.732,6.859-14.732,15.321s6.596,15.321,14.732,15.321
			c8.136,0,14.731-6.859,14.731-15.321S409.618,75.803,401.482,75.803z M401.482,98.785c-4.062,0-7.366-3.437-7.366-7.661
			c0-4.224,3.304-7.66,7.366-7.66c4.061,0,7.365,3.437,7.365,7.66C408.848,95.349,405.543,98.785,401.482,98.785z"/>
		<path fill="#2D2C86" d="M248.086,149.467c-8.137,0-14.732,6.859-14.732,15.321s6.596,15.321,14.732,15.321
			c8.136,0,14.731-6.859,14.731-15.321S256.222,149.467,248.086,149.467z M248.086,172.449c-4.062,0-7.366-3.437-7.366-7.661
			c0-4.224,3.304-7.66,7.366-7.66c4.061,0,7.365,3.437,7.365,7.66C255.451,169.013,252.146,172.449,248.086,172.449z"/>
		<polygon fill="#2D2C86" points="891,225.803 891,256.445 905.731,241.124 		"/>
		<polygon fill="#2D2C86" points="618.312,424 648.955,424 633.635,409.268 		"/>
		<polygon fill="#2D2C86" points="232,352.445 232,321.803 217.269,337.124 		"/>
		<polygon fill="#2D2C86" points="938,180.445 938,149.803 923.269,165.124 		"/>
		<polygon fill="#2D2C86" points="990,297.445 990,266.803 975.269,282.124 		"/>
		<polygon fill="#2D2C86" points="1034,532.445 1034,501.803 1019.269,517.124 		"/>
		<polygon fill="#2D2C86" points="65,502.445 65,471.803 50.269,487.124 		"/>
		<polygon fill="#2D2C86" points="422,164.803 422,195.445 436.731,180.124 		"/>
		<polygon fill="#2D2C86" points="58,96.803 58,127.445 72.731,112.124 		"/>
		<polygon fill="#2D2C86" points="89,613.445 89,582.803 74.269,598.124 		"/>
		<polygon fill="#2D2C86" points="1004.312,623 1034.955,623 1019.635,608.268 		"/>
		<polygon fill="#2D2C86" points="737.954,510 707.312,510 722.632,524.732 		"/>
		<polygon fill="#2D2C86" points="650,273.445 650,242.803 635.269,258.124 		"/>
		<polygon fill="#2D2C86" points="857,660.445 857,629.803 842.269,645.124 		"/>
		<polygon fill="#2D2C86" points="615,613.445 615,582.803 600.269,598.124 		"/>
		<polygon fill="#2D2C86" points="181.312,652 211.955,652 196.635,637.268 		"/>
		<polygon fill="#2D2C86" points="435.312,322 465.955,322 450.635,307.268 		"/>
		<polygon fill="#2D2C86" points="182,511.803 182,542.445 196.731,527.124 		"/>
		<polygon fill="#2D2C86" points="790,87.445 790,56.803 775.269,72.124 		"/>
		<polygon fill="#2D2C86" points="657.312,49 687.955,49 672.635,34.269 		"/>
		<polygon fill="#2D2C86" points="871,402.445 871,371.803 856.269,387.124 		"/>
		<polygon fill="#2D2C86" points="512,222.445 512,191.803 497.269,207.124 		"/>
		<polygon fill="#2D2C86" points="312,134.445 312,103.803 297.269,119.124 		"/>
		<polygon fill="#2D2C86" points="190,57.445 190,26.803 175.269,42.124 		"/>
	</g>
</g>
<g id="Layer_3">
</g>
<g id="Layer_2">
</g>
</svg>
