<?xml version="1.0" encoding="utf-8"?>
<!-- Generator: Adobe Illustrator 16.0.0, SVG Export Plug-In . SVG Version: 6.00 Build 0)  -->
<!DOCTYPE svg PUBLIC "-//W3C//DTD SVG 1.1//EN" "http://www.w3.org/Graphics/SVG/1.1/DTD/svg11.dtd">
<svg version="1.1" id="Layer_1" xmlns="http://www.w3.org/2000/svg" xmlns:xlink="http://www.w3.org/1999/xlink" x="0px" y="0px"
	 width="960px" height="953px" viewBox="0 0 960 953" enable-background="new 0 0 960 953" xml:space="preserve">
<g>
	<polygon fill="#FB4D5B" points="413.318,827.376 389.371,848.62 481.563,952.304 481.564,952.303 389.373,848.62 	"/>
	<path fill="#FB4D5B" d="M560,79.998c0,35.061-22.175,64.868-53.871,75.675c31.697-10.808,53.873-40.614,53.873-75.675
		c0-44.184-35.804-79.998-80-79.998l0,0C524.197,0,560,35.814,560,79.998z"/>
	<path fill="#FB4D5B" d="M560,630.663c0,35.062-22.175,64.868-53.871,75.676c31.697-10.808,53.873-40.614,53.873-75.676
		c0-44.184-35.804-79.998-80-79.998l0,0C524.197,550.666,560,586.479,560,630.663z"/>
	<polygon fill="#FB4D5B" points="546.531,827.562 570.785,848.427 526.175,900.365 570.786,848.427 	"/>
	<polygon fill="#FB4D5B" points="80,544 48,544 48,640 304,640 304,608 80,608 	"/>
	<path fill="#FB4D5B" d="M80,256h383.993h32.002H776v-32H496v-65.598c3.469-0.696,6.85-1.611,10.129-2.729
		C537.825,144.866,560,115.059,560,79.998C560,35.814,524.197,0,480.002,0c-0.001,0-0.001,0-0.001,0
		c-41.435,0-75.487,31.477-79.582,71.818c-0.273,2.689-0.413,5.418-0.413,8.18c0,38.688,26.994,70.979,63.994,78.404V224H48v96h32
		V256z M432.004,79.998c0-26.458,21.526-47.997,47.996-47.997c26.458,0,47.996,21.539,47.996,47.997
		c0,26.47-21.538,48.002-47.996,48.002C453.53,128,432.004,106.468,432.004,79.998z"/>
	<polygon fill="#FB4D5B" points="880,608 640,608 640,640 912,640 912,352 880,352 	"/>
	<path fill="#FB4D5B" d="M895.997,170.663c-35.357,0-64.004,28.646-64.004,64.003s28.646,64.003,64.004,64.003
		c35.356,0,64.003-28.646,64.003-64.003S931.354,170.663,895.997,170.663z"/>
	<path fill="#FB4D5B" d="M127.994,430.669c0-35.363-28.634-64.003-63.991-64.003C28.635,366.666,0,395.306,0,430.669
		c0,35.356,28.635,63.997,64.003,63.997C99.36,494.666,127.994,466.025,127.994,430.669z"/>
	<path fill="#FB4D5B" d="M546.531,827.562L496,886.376V709.068c3.469-0.696,6.85-1.611,10.129-2.729
		C537.825,695.531,560,665.726,560,630.663c0-44.184-35.803-79.997-79.998-79.998c-0.001,0-0.001,0-0.001,0
		c-41.435,0-75.487,31.477-79.582,71.818c-0.273,2.689-0.413,5.418-0.413,8.18c0,38.689,26.994,70.979,63.994,78.405v175.359
		l-50.682-57.052l-23.945,21.244l92.191,103.683v0.001l44.61-51.938l44.61-51.938L546.531,827.562z M432.004,630.663
		c0-26.457,21.526-47.996,47.996-47.996c26.458,0,47.996,21.539,47.996,47.996c0,26.471-21.538,48.003-47.996,48.003
		C453.53,678.666,432.004,657.134,432.004,630.663z"/>
</g>
</svg>
