<?xml version="1.0" encoding="utf-8"?>
<!-- Generator: Adobe Illustrator 16.0.0, SVG Export Plug-In . SVG Version: 6.00 Build 0)  -->
<!DOCTYPE svg PUBLIC "-//W3C//DTD SVG 1.1//EN" "http://www.w3.org/Graphics/SVG/1.1/DTD/svg11.dtd">
<svg version="1.1" id="Layer_1" xmlns="http://www.w3.org/2000/svg" xmlns:xlink="http://www.w3.org/1999/xlink" x="0px" y="0px"
	 width="960px" height="830px" viewBox="0 0 960 830" enable-background="new 0 0 960 830" xml:space="preserve">
<path fill="#E1E22D" d="M294.545,0c-66.016,0-119.998,53.985-119.998,120c0,66.016,53.982,120,119.998,120
	c58.589,0,107.652-42.472,117.956-98.181h378.407c69.88,0,125.456,55.575,125.456,125.455c0,69.878-55.576,125.454-125.456,125.454
	H169.092C75.794,392.728,0,468.52,0,561.819c0,93.299,75.794,169.09,169.092,169.09h258.409l-61.023,61.024
	c-8.64,8.398-8.835,22.215-0.434,30.854c8.401,8.64,22.216,8.835,30.854,0.434c0.205-0.197,0.404-0.399,0.602-0.606l97.841-97.841
	c8.567-8.478,8.642-22.291,0.164-30.858c-0.055-0.055-0.109-0.109-0.164-0.164l-98.181-98.183c-0.428-0.59-0.882-1.161-1.365-1.703
	c-8.943-8.192-22.833-7.581-31.022,1.362c-8.19,8.944-7.579,22.831,1.364,31.023l61.364,61.022H169.092
	c-69.88,0-125.456-55.576-125.456-125.454c0-69.88,55.576-125.455,125.456-125.455h621.816c93.301,0,169.092-75.792,169.092-169.091
	c0-93.3-75.791-169.091-169.092-169.091H412.501C402.197,42.473,353.134,0,294.545,0z M294.545,43.637
	c42.434,0,76.364,33.931,76.364,76.363c0,42.433-33.931,76.363-76.364,76.363c-42.433,0-76.361-33.93-76.361-76.363
	C218.184,77.568,252.112,43.637,294.545,43.637z M665.455,589.091c-66.016,0-120.001,53.984-120.001,120
	s53.985,120.001,120.001,120.001s120-53.985,120-120.001S731.471,589.091,665.455,589.091z M665.455,632.727
	c42.433,0,76.361,33.932,76.361,76.364s-33.929,76.364-76.361,76.364c-42.434,0-76.364-33.932-76.364-76.364
	S623.021,632.727,665.455,632.727z"/>
</svg>
