<?xml version="1.0" encoding="utf-8"?>
<!-- Generator: Adobe Illustrator 16.0.0, SVG Export Plug-In . SVG Version: 6.00 Build 0)  -->
<!DOCTYPE svg PUBLIC "-//W3C//DTD SVG 1.1//EN" "http://www.w3.org/Graphics/SVG/1.1/DTD/svg11.dtd">
<svg version="1.1" id="Layer_1" xmlns="http://www.w3.org/2000/svg" xmlns:xlink="http://www.w3.org/1999/xlink" x="0px" y="0px"
	 width="960px" height="1134px" viewBox="0 0 960 1134" enable-background="new 0 0 960 1134" xml:space="preserve">
<g>
	<linearGradient id="SVGID_1_" gradientUnits="userSpaceOnUse" x1="658.7246" y1="782.085" x2="440.1851" y2="1093.5038">
		<stop  offset="0" style="stop-color:#1FE3A9"/>
		<stop  offset="1" style="stop-color:#1FD0E7"/>
	</linearGradient>
	<circle fill-rule="evenodd" clip-rule="evenodd" fill="url(#SVGID_1_)" cx="548.175" cy="939.618" r="193.954"/>
	<linearGradient id="SVGID_2_" gradientUnits="userSpaceOnUse" x1="303.2422" y1="453.0576" x2="303.2422" y2="1059.543">
		<stop  offset="0" style="stop-color:#FDD603"/>
		<stop  offset="1" style="stop-color:#FC71C8"/>
	</linearGradient>
	<circle fill-rule="evenodd" clip-rule="evenodd" fill="url(#SVGID_2_)" cx="303.243" cy="748.514" r="303.243"/>
	<linearGradient id="SVGID_3_" gradientUnits="userSpaceOnUse" x1="711.8652" y1="62.9946" x2="289.2697" y2="854.6171">
		<stop  offset="0" style="stop-color:#15BAFE"/>
		<stop  offset="1" style="stop-color:#046AFE"/>
	</linearGradient>
	<circle fill="url(#SVGID_3_)" cx="499.851" cy="460.148" r="460.149"/>
	<g>
		<path fill-rule="evenodd" clip-rule="evenodd" fill="#FEFEFE" d="M647.591,589.982c0.618,9.272,2.333,18.439,2.245,27.789
			c-0.223,23.485-11.246,34.922-34.751,36.29c-29.025,1.691-58.083,1.411-87.128,1.845c-18.144,0.271-36.286,0.466-54.429,0.693
			c-24.027-0.392-48.055-0.78-72.081-1.18c-12.468-0.209-24.909-0.568-37.258-2.7c-21.425-3.696-29.056-21.786-24.794-40.484
			c1.15-5.044,1.32-10.312,1.939-15.478c2.628-12.135,4.81-24.389,7.987-36.379c4.983-18.808,13.013-35.791,31.41-45.462
			c16.429-5.819,32.753-11.965,49.315-17.377c20.904-6.832,29.415-21.971,30.18-42.788c0.321-1.532,0.661-3.062,0.96-4.601
			c0.881-4.529-0.709-5.765-5.411-5.225c-5.712,0.655-11.596,1.896-17.453,0.075c0.953-2.964,4.401-3.698,4.911-7.115
			c-9.913-1.896-19.806-3.787-29.528-5.646c-0.081-1.022-0.3-1.658-0.118-1.812c11.134-9.326,11.799-20.26,7.624-33.72
			c-6.72-21.656-7.628-44.116-0.488-65.895c4.202-12.816,10.794-24.851,16.312-37.237c7.88-12.912,18.121-22.102,34.358-21.995
			c2.541,0.016,5.05,0.159,7.246,1.433c2.572,1.493,4.209,0.352,5.676-1.582c6.196-8.163,15.398-8.162,23.923-7.445
			c23.131,1.943,38.942,15.114,49.871,34.905c1.074,1.949,2.334,3.797,3.509,5.69c6.452,14.082,11.408,28.499,13.344,44.071
			c2.189,17.612-2.636,34.295-5.123,51.284c-1.658,11.313-3.736,22.326,9.328,29.899c-10.286,4.848-20.044,6.484-29.811,8.829
			c1.087,3.552,5.033,4.475,6.733,8.179c-5.144-0.442-9.456-0.613-13.706-1.219c-11.188-1.593-11.404-1.642-10.096,9.636
			c1.229,10.591,2.774,21.2,10.362,29.627c3.286,5.068,8.541,7.459,13.808,9.462c11.23,4.275,22.479,8.603,33.979,12.05
			c29.388,8.813,46.435,28.485,52.494,58.158C644.654,572.999,646.047,581.506,647.591,589.982z"/>
		<path fill-rule="evenodd" clip-rule="evenodd" fill="#FEFEFE" d="M161.907,555.713c10.824-13.513,26.495-19.68,41.223-27.324
			c14.07-7.304,28.439-14.042,41.74-22.813c4.65-3.065,7.091-7.131,8.882-11.992c3.467-8.622,2.116-17.895,3.605-26.785
			c0.248-1.478-0.522-2.633-1.496-3.638c-7.291-7.519-10.172-16.977-11.917-26.95c-0.348-1.993-0.816-3.825-2.574-5.331
			c-10.129-8.68-9.412-20.302-8.396-31.962c0.04-0.45,0.007-1.13,0.271-1.305c10.541-6.962,1.903-16.693,3.622-24.911
			c0.029-4.087,0.361-8.199,0.038-12.26c-1.95-24.5,24.067-55.419,57.729-49.557c12.307,2.144,23.861,5.097,33.493,12.937
			c11.617,9.457,15.343,23.064,16.876,37.2c1.028,9.479,0.887,19.081-0.786,28.552c-0.506,2.859-0.901,5.068,2.975,6.151
			c2.986,0.835,3.343,4.17,3.226,6.909c-0.414,9.558-1.058,19.097-7.067,27.219c-4.557,0.747-4.444,4.728-4.964,7.829
			c-1.622,9.648-5.096,18.323-12.099,25.334c-1.702,1.704-2.651,3.369-2.309,5.983c0.767,5.842,1.276,11.728,1.666,17.609
			c0.799,12.005,7.468,19.507,18.091,24.083c1.522,0.95,2.984,2.019,4.579,2.82c2.482,1.248,2.527,2.394,0.729,4.565
			c-17.569,21.2-22.574,47.065-26.912,73.159c-1.447,8.961-3.12,17.895-4.237,26.896c-0.472,3.791-1.373,5.643-5.66,5.634
			c-45.695-0.081-91.401,1.201-137.07-1.26c-3.38-0.182-6.782-0.829-10.067-1.671c-12.354-3.166-16.226-9.362-14.35-22.017
			c1.815-12.243,2.342-24.68,7.071-36.425C158.874,559.776,161.671,558.58,161.907,555.713z"/>
		<path fill-rule="evenodd" clip-rule="evenodd" fill="#FEFEFE" d="M746.796,481.959c0.608,9.326,6.983,14.055,14.327,18.062
			c15.998,8.736,32.986,15.35,49.423,23.142c16.776,7.952,31.881,17.934,36.154,37.719c3.079,14.255,3.706,28.778,0.948,43.198
			c-2.036,10.652-10.486,16.813-23.884,18.589c-9.728,1.29-19.516,0.976-29.269,1.524c-37.412-0.205-74.826-0.618-112.236-0.428
			c-7.105,0.036-9.971-1.837-10.393-9.015c-0.409-6.969-2.092-13.865-3.215-20.793c-5.298-31.338-10.715-62.625-36.61-85.18
			c2.055-1.27,3.759-2.324,5.465-3.38c23.581-8.487,33.806-25.305,30.759-50.756c-0.152-1.261-0.865-2.62-1.703-3.605
			c-8.186-9.633-7.226-23.439-16.078-33.265c-4.772-5.297-4.752-14.435-5.941-22.044c-0.531-3.402-0.171-8.039,3.289-8.867
			c6.056-1.45,4.23-5.281,4.042-8.815c-0.938-17.674-2.216-35.353,1.473-52.897c2.395-8.201,7.161-13.245,16.172-14.763
			c5.997-1.012,10.326-6.48,16.307-8.475c21.316-7.107,56.539-3.004,70.599,21.352c4.978,8.622,6.554,18.093,7.562,27.741
			c0.107,1.023-0.24,2.556-0.955,3.131c-7.229,5.814-4.446,13.96-5.149,21.287c-0.487,4.749-1.935,9.445,3.999,12.613
			c2.328,1.243,2.238,5.232,1.773,8.236c-1.11,7.172-1.282,15.406-5.476,20.81c-6.498,8.368-6.601,18.747-11.464,27.299
			C739.497,457.073,743.366,469.448,746.796,481.959z"/>
	</g>
</g>
</svg>
