<svg xmlns="http://www.w3.org/2000/svg" style="display: none;">
  
    <symbol id="icon-bolt" viewBox="0 0 512 512">
      <path d="m381 162c3 4 4 8 2 12l-154 331c-3 5-7 7-12 7-1 0-3 0-4-1-4-1-6-2-8-5-1-3-2-6-1-9l56-230-116 28c0 1-2 1-3 1-4 0-7-1-9-3-3-3-5-7-4-12l58-235c0-3 2-5 4-7 3-2 5-2 8-2l94 0c4 0 7 1 9 3 3 3 4 5 4 9 0 1-1 3-2 5l-48 132 113-28c1 0 2-1 3-1 4 0 7 2 10 5z"/>
    </symbol>
  
    <symbol id="icon-behance" viewBox="0 0 512 512">
      <path d="m178 166c1 3 2 6 3 9-1-3-2-6-3-9-2-4-5-8-10-11-4-2-8-4-12-5 4 1 8 3 12 5 5 3 8 7 10 11z m4 18c0 0 0 0 0 0 0 8-1 14-3 20 2-6 3-12 3-20z m-4 163c-4 3-10 5-16 7 6-2 12-3 16-7 5-3 8-7 11-12 2-6 4-13 4-21 0 0 0 0 0 0 0 8-2 15-4 21-3 5-6 9-11 12z m27-109c14-7 26-16 32-26 8-10 12-24 12-40 0-14-3-26-7-36-5-11-11-19-21-24-9-6-19-10-31-12-13-4-27-5-41-5l-149 0 0 313 152 0c14 0 27-2 41-5 14-4 26-9 36-16 11-7 20-17 25-29 6-11 10-25 10-40 0-20-6-37-15-51-9-13-24-23-44-29z m-136-90l66 0c7 0 12 0 18 1 1 0 2 0 3 1 4 1 8 3 12 5 5 3 8 7 10 11 1 3 3 6 3 9 1 3 1 6 1 9 0 0 0 0 0 0 0 0 0 0 0 0 0 8-1 14-4 20-2 3-4 7-8 9-8 6-18 9-30 9l-71 0z m124 166c0 8-2 15-4 21-3 5-7 9-11 12-5 4-10 6-16 7-6 1-12 2-19 2l-74 0 0-87 75 0c15 0 27 3 36 10 9 8 13 19 13 35 0 0 0 0 0 0 0 0 0 0 0 0z m316-53c-4-16-11-31-20-44-9-13-21-22-36-30-14-8-31-12-51-12-18 0-33 4-47 9-14 6-27 15-37 25-10 12-18 24-24 39-5 15-8 31-8 48 0 18 3 34 8 49 5 15 13 27 23 37 10 12 22 20 36 25 15 6 31 10 49 10 26 0 48-7 66-19 18-12 32-32 41-59l-56 0c-2 8-7 14-17 21-9 5-20 9-33 9-18 0-31-5-41-14-9-9-15-26-15-45l164 0c2-18 0-34-2-49z m-161 12c0-6 1-10 2-15 1-6 3-12 8-17 4-4 9-9 16-12 7-4 15-6 25-6 15 0 27 5 35 13 8 8 14 18 16 37z m-14-158l127 0 0 31-127 0z"/>
    </symbol>
  
    <symbol id="icon-facebook" viewBox="0 0 512 512">
      <path d="m484 0l-456 0c-15 0-28 13-28 29l0 455c0 16 13 28 28 28l246 0 0-197-67 0 0-79 67 0 0-56c0-66 41-102 100-102 28 0 52 2 60 3l0 69-42 0c-32 0-39 15-39 37l0 49 77 0-10 79-67 0 0 197 131 0c15 0 28-12 28-28l0-455c0-16-13-29-28-29z"/>
    </symbol>
  
    <symbol id="icon-github" viewBox="0 0 512 512">
      <path d="m256 6c-141 0-256 115-256 256 0 113 73 209 175 243 13 3 18-5 18-12 0-6-1-26-1-48-71 16-86-30-86-30-12-30-28-37-28-37-24-16 1-16 1-16 26 2 39 26 39 26 23 40 60 28 75 22 2-17 9-28 16-35-57-6-116-28-116-126 0-28 10-51 26-69-3-6-11-32 2-67 0 0 22-7 71 26 20-6 42-9 64-9 22 0 44 3 64 9 49-33 70-26 70-26 14 35 6 61 3 67 16 18 26 41 26 69 0 98-60 120-117 126 10 8 18 24 18 48 0 34-1 61-1 70 0 7 5 15 18 12 102-34 175-130 175-243 0-141-115-256-256-256z m-159 368c-1 1-3 1-4 1-2-1-3-3-3-4 1-2 3-2 5-1 2 1 3 3 2 4z m10 11c-1 2-3 1-5-1-2-2-2-4-1-5 2-1 4-1 6 1 1 2 2 4 0 5z m10 15c-1 1-4 0-5-2-2-2-2-5 0-6 1-1 4 0 5 2 2 2 2 5 0 6z m14 14c-1 2-4 2-6-1-3-2-3-5-2-6 2-2 5-1 7 1 2 2 3 5 1 6z m19 9c0 2-3 3-6 2-3-1-5-4-4-6 0-2 3-2 6-2 3 1 5 4 4 6z m21 1c0 2-2 4-5 4-3 0-6-2-6-4 0-2 3-3 6-4 3 0 5 2 5 4z m20-3c0 2-2 4-5 5-3 0-6-1-6-3-1-2 2-4 5-5 3 0 5 1 6 3z"/>
    </symbol>
  
    <symbol id="icon-instagram" viewBox="0 0 512 512">
      <path d="m0 340c0-56 0-112 0-168 0-2 1-3 1-5 0-20 1-40 6-59 11-44 36-75 78-93 23-10 46-13 71-14 5 0 10-1 16-1 56 0 112 0 168 0 2 0 4 1 5 1 16 1 33 1 49 4 59 11 96 45 111 104 6 25 6 51 7 76 0 50 0 101-1 151 0 20-1 39-4 59-11 58-46 95-103 110-25 6-51 7-77 7-53 0-106 0-160-1-20 0-40-1-59-6-43-11-75-36-93-76-10-23-13-48-14-73 0-5-1-10-1-16z m256 126c0 0 0 0 0-1 21 0 43 1 64 0 20 0 40-1 60-3 20-2 37-9 52-22 21-18 29-42 31-68 2-30 2-60 3-90 0-30 0-60-1-90 0-20-1-40-3-60-2-19-9-37-22-52-18-21-41-29-68-31-30-2-60-2-90-3-30 0-60 0-90 1-20 0-40 1-60 3-19 2-37 9-52 22-21 18-29 41-31 68-2 30-2 60-3 90 0 30 0 60 1 90 0 22 1 44 4 66 6 37 28 63 64 73 13 3 25 5 38 5 34 1 69 2 103 2z m132-210c0 73-59 132-132 132-73-1-132-60-132-132 1-73 60-132 133-132 72 1 131 60 131 132z m-132-85c-47 0-85 38-85 84 0 48 38 86 84 86 48 0 86-38 86-84 0-48-38-86-85-86z m168-52c0 17-14 31-31 31-17 0-31-14-31-31 0-17 14-30 30-30 18-1 31 13 32 30z"/>
    </symbol>
  
    <symbol id="icon-linkedin" viewBox="0 0 512 512">
      <path d="m474 36l-436 0c-21 0-38 17-38 37l0 438c0 20 17 37 38 37l436 0c21 0 38-17 38-37l0-438c0-20-17-37-38-37z m-322 436l-76 0 0-244 76 0z m-38-277c-24 0-44-20-44-44 0-25 20-45 44-45 24 0 44 20 44 45 0 24-20 44-44 44z m322 277l-76 0 0-119c0-28 0-64-39-64-40 0-46 31-46 62l0 121-75 0 0-244 72 0 0 33 1 0c10-19 35-39 72-39 77 0 91 50 91 116z"/>
    </symbol>
  
    <symbol id="icon-medium" viewBox="0 0 512 512">
      <path d="m171 294c0 55 0 110 0 165 0 3 0 6-1 9-1 7-5 9-12 7-2-1-4-2-7-3-45-23-90-46-136-68-10-5-15-12-15-25 0-109 0-219 0-329 0-14 3-15 15-9 49 24 98 49 147 73 7 4 9 7 9 15-1 55 0 110 0 165z m179 87c-2-3-3-5-5-8-34-55-68-111-102-166-3-5-3-9 0-14 31-50 62-100 92-150 5-7 9-9 17-5 50 26 101 51 151 76 5 3 9 4 5 11-52 84-104 169-156 253 0 1-1 1-2 3z m162-230c0 3 0 5 0 8 0 100 0 200 0 300 0 3 0 6 0 9-2 6-6 9-12 7-2-1-3-1-5-2-45-22-89-45-134-67-2-1-3-2-5-4 51-84 103-168 154-252 1 1 1 1 2 1z m-325-6c51 84 102 166 153 249-3-1-5-1-7-2-47-24-94-47-141-71-4-2-6-3-6-8 0-55 0-109 0-163 0-1 0-2 1-5z"/>
    </symbol>
  
    <symbol id="icon-pinterest" viewBox="0 0 512 512">
      <path d="m256 0c-141 0-256 115-256 256 0 108 67 201 163 238-3-20-5-51 1-73 4-20 30-127 30-127 0 0-8-16-8-38 0-36 21-62 46-62 22 0 33 16 33 36 0 22-14 54-22 85-6 25 13 46 38 46 46 0 81-48 81-117 0-61-44-104-107-104-73 0-116 54-116 111 0 22 9 45 19 58 2 3 3 5 2 8-2 8-6 25-7 29-1 4-4 5-9 3-31-15-51-62-51-99 0-81 58-155 169-155 88 0 157 63 157 148 0 88-55 159-132 159-26 0-51-13-59-29 0 0-13 48-16 60-6 23-21 51-32 68 24 7 50 11 76 11 141 0 256-115 256-256 0-141-115-256-256-256"/>
    </symbol>
  
    <symbol id="icon-trello" viewBox="0 0 512 512">
      <path d="m448 0l-384 0c-35 0-64 29-64 64l0 384c0 35 29 64 64 64l384 0c35 0 64-29 64-64l0-384c0-35-29-64-64-64z m-225 388c0 17-14 31-31 31l-95 0c-17 0-30-14-30-31l0-291c0-17 13-30 30-30l95 0c17 0 31 13 31 30z m222-128c0 17-13 31-30 31l-95 0c-17 0-31-14-31-31l0-163c0-17 14-30 31-30l95 0c17 0 30 13 30 30z"/>
    </symbol>
  
    <symbol id="icon-twitter" viewBox="0 0 512 512">
      <path d="m512 97c-19 9-39 14-60 17 21-13 38-34 46-58-21 12-43 20-67 25-19-20-46-33-77-33-58 0-105 47-105 105 0 8 1 16 3 24-87-4-165-46-216-110-9 16-15 34-15 53 0 36 19 69 47 87-17 0-33-5-47-13 0 1 0 1 0 2 0 51 36 93 84 103-9 2-18 3-28 3-7 0-13 0-20-2 14 42 53 72 98 73-35 28-81 45-130 45-8 0-17 0-25-1 46 30 102 47 161 47 193 0 299-160 299-299 0-4 0-9-1-13 21-15 39-34 53-55z"/>
    </symbol>
  
    <symbol id="icon-share" viewBox="0 0 512 512">
      <path d="m384 333c21 0 39 7 54 22c15 14 23 33 23 55c0 21-8 39-23 54c-15 15-33 22-54 22c-21 0-39-7-54-22c-15-15-23-33-23-54c0-2 0-5 1-8c0-2 0-4 0-6c0 0-133-80-133-80c-14 11-30 17-47 17c-21 0-39-8-54-23c-15-15-23-33-23-54c0-21 8-39 23-54c15-15 33-23 54-23c18 0 34 5 47 16c0 0 133-80 133-80c0-2 0-4 0-6c-1-3-1-5-1-7c0-21 8-39 23-54c15-15 33-22 54-22c21 0 39 7 54 22c15 14 23 33 23 54c0 22-8 40-23 55c-15 15-33 22-54 22c-18 0-33-5-46-16c0 0-134 80-134 80c0 2 1 7 1 13c0 5-1 10-1 12c0 0 134 80 134 80c12-10 28-15 46-15"/>
    </symbol>
  
    <symbol id="icon-plus" viewBox="0 0 512 512">
      <path d="m432 203l-123 0l0-123c0-5-5-10-10-10l-86 0c-5 0-10 5-10 10l0 123l-123 0c-5 0-10 5-10 10l0 86c0 3 1 5 3 7c2 2 4 3 7 3l123 0l0 123c0 3 1 5 3 7c2 2 4 3 7 3l86 0c3 0 5-1 7-3c2-2 3-4 3-7l0-123l123 0c3 0 5-1 7-3c2-2 3-4 3-7l0-86c0-5-5-10-10-10z"/>
    </symbol>
  
    <symbol id="icon-blog" viewBox="0 0 512 512">
      <path d="m183 366c0-10-4-19-11-26-7-7-16-11-26-11-10 0-18 4-26 11-7 7-10 16-10 26 0 10 3 18 10 26 8 7 16 10 26 10 10 0 19-3 26-10 7-8 11-16 11-26z m100 27c-2-45-19-82-50-114-32-31-69-48-114-50-2 0-5 1-6 2-2 2-3 5-3 7l0 37c0 2 1 4 2 6 2 2 4 3 6 3 30 2 55 13 76 34 21 21 32 46 34 76 0 2 1 4 3 6 2 1 4 2 6 2l37 0c2 0 5-1 7-3 1-1 2-4 2-6z m110 0c-1-29-6-58-16-85-10-27-23-52-40-74-17-23-36-42-59-59-22-17-47-30-74-40-27-10-56-15-85-16-3 0-5 1-6 3-2 2-3 4-3 6l0 37c0 2 1 4 2 6 2 2 4 3 7 3 38 1 74 12 108 32 33 20 59 46 79 79 20 34 31 70 32 108 0 3 1 5 3 7 2 1 4 2 6 2l37 0c2 0 4-1 6-3 2-1 3-3 3-6z m82-274l0 274c0 23-8 42-24 58-16 16-35 24-58 24l-274 0c-23 0-42-8-58-24-16-16-24-35-24-58l0-274c0-23 8-42 24-58 16-16 35-24 58-24l274 0c23 0 42 8 58 24 16 16 24 35 24 58z"/>
    </symbol>
  
    <symbol id="icon-power" viewBox="0 0 512 512">
      <path d="m287 205l-1 7 1-7 45-192c0-1 0-1 0-2 0 1 0 1 0 2z m-37 86c0 0 0-1 0-2 0 1 0 1 0 2l-28 122-8 33 0-1 8-32z m121-79c3 0 7 3 9 6 1 2 1 4 1 6 0-2 0-4-1-6-2-3-6-6-9-6z m-239 82c-1-1-1-3-1-5 0 2 0 4 1 5 2 4 6 6 9 6-3 0-7-2-9-6z m93 13l-45 192c0 1 0 2 0 2 0 0 0-1 0-2z m37-86c0 1 0 1 0 2 0-1 0-1 0-2l28-122 8-32 0 0-8 32z m150-44c2 0 4-1 5-2l57-33c5-2 7-9 4-14-2-3-6-5-9-5-2 0-4 0-6 1l-56 33c-5 3-7 9-4 14 2 4 5 6 9 6z m-311 158c-1 0-3 0-5 1l-58 34c-5 3-7 9-4 14 2 3 6 5 9 5 2 0 4 0 6-1l58-34c5-2 6-9 3-14-1-3-5-5-9-5z m-15-80c0-6-4-11-10-11l-66 0c-5 0-10 5-10 11 0 5 5 11 10 11l66 0c6 0 10-6 10-11z m21-97l-58-34c-2-1-4-1-6-1-3 0-7 2-9 5-1 2-1 5-1 8 1 3 3 5 5 6l58 34c2 1 4 1 5 1 4 0 8-2 9-5 2-2 2-5 2-8-1-3-3-5-5-6z m394 86l-65 0c-6 0-10 5-10 11 0 5 4 11 10 11l65 0c6 0 11-6 11-11 0-6-5-11-11-11z m-27 126l-57-33c-1-1-3-1-5-1-4 0-7 2-9 5-3 5-1 11 4 14l56 33c2 1 4 1 6 1 3 0 7-2 9-5 1-2 1-5 1-8-1-3-3-5-5-6z m-103-163l-85 0 1-4 45-191c0-1 0-1 0-2 0-4-2-8-6-9-2-1-3-1-5-1-3 0-6 2-8 5l-180 278c-1 2-2 4-2 6 0 2 0 3 1 4 2 4 6 6 9 6l85 0-1 7-45 193c0 1 0 1 0 2 0 4 2 8 6 10 2 1 3 1 5 1 3 0 6-2 8-5l180-278c1-2 2-4 2-5 0-2 0-7-1-8-2-4-6-9-9-9z m-26 36l-113 175-18 28 0-1 0 1 8-33 28-122c0-1 0-1 0-2 0-2-1-6-2-7-2-3-5-5-8-5l-79 0 6-9 113-174 18-28 0 1 0 0-8 32-28 122c0 1 0 1 0 2 0 2 1 5 2 7 2 2 5 3 8 3l79 0z"/>
    </symbol>
  
</svg>
