<?xml version="1.0" encoding="utf-8"?>
<!-- Generator: Adobe Illustrator 16.0.0, SVG Export Plug-In . SVG Version: 6.00 Build 0)  -->
<!DOCTYPE svg PUBLIC "-//W3C//DTD SVG 1.1//EN" "http://www.w3.org/Graphics/SVG/1.1/DTD/svg11.dtd">
<svg version="1.1" id="Layer_1" xmlns="http://www.w3.org/2000/svg" xmlns:xlink="http://www.w3.org/1999/xlink" x="0px" y="0px"
	 width="960px" height="1024px" viewBox="0 0 960 1024" enable-background="new 0 0 960 1024" xml:space="preserve">
<g id="Layer_3">
	<path fill="#2D2C86" d="M388.709,1023.186c-7.908,0-15.023-3.747-19.498-10.324c-6.057-8.873-14.323-20.991,46.776-178.552
		l-28.943-2.638c-10.531-0.95-19.553-6.428-24.728-15.022c-5.175-8.608-5.806-19.15-1.728-28.896l78.424-187.438
		c6.188-14.813,22.394-25.564,38.508-25.564l75.761,1.604c10.777,0.22,20.192,5.175,25.839,13.59
		c5.643,8.379,6.685,18.963,2.857,29.015l-36.866,96.767l29.217,2.635c11.534,1.024,20.677,7.137,25.121,16.736
		c4.437,9.539,3.175,20.474-3.469,29.957c-10.953,15.561-49.728,70.499-89.396,124.732
		C409.03,1023.186,402.219,1023.186,388.709,1023.186z M435.83,791.949c10.462,0.951,19.456,6.385,24.686,14.885
		c5.244,8.487,6.04,18.961,2.21,28.721c-10.572,26.927-20.977,54.809-29.806,79.799c30.713-40.699,71.254-96.467,112.884-155.39
		l-20.236-1.871c-10.394-0.931-19.374-6.329-24.659-14.771c-5.285-8.446-6.164-18.905-2.43-28.677l36.053-94.655l-55.592-1.234
		l-71.354,170.588L435.83,791.949z"/>
	<path fill="#2D2C86" d="M853.702,235.67c1.017-7.347,1.552-14.73,1.552-22.132c0-85.098-65.159-154.323-145.229-154.323
		c-18.98,0-37.621,3.957-55.019,11.546C624.706,27.119,572.823,0,516.436,0c-52.241,0-100.704,23.146-131.777,61.659
		c-15.951-7.608-33.033-11.546-50.414-11.546c-54.013,0-101.518,37.317-122.467,93.502c-7.674-1.596-15.45-2.405-23.284-2.405
		c-73.797,0-133.839,70.239-133.839,156.588c0,4.764,0.18,9.528,0.552,14.265C20.784,336.639,0,376.072,0,418.506
		c0,72.535,60.053,131.561,133.85,131.561l695.21-0.138C902.485,548.061,960,478.344,960,391.186
		C959.997,314.766,914.328,250.786,853.702,235.67z M516.144,325.862c11.298,0,20.457,9.159,20.457,20.456
		c0,11.298-9.159,20.457-20.457,20.457s-20.457-9.159-20.457-20.457C495.687,335.021,504.849,325.862,516.144,325.862z
		 M399.284,390.521c11.297,0,20.456,9.159,20.456,20.457c0,11.297-9.159,20.456-20.456,20.456c-11.298,0-20.457-9.159-20.457-20.456
		C378.827,399.681,387.986,390.521,399.284,390.521z M93.044,346.164l15.568-8.332l-2.992-17.439
		c-1.278-7.385-1.921-14.993-1.921-22.614c0-59.298,38.042-107.544,84.794-107.544c9.884,0,19.743,2.279,29.297,6.798l28.216,13.317
		l6.271-30.574c9.748-47.477,43.453-80.634,81.967-80.634c14.921,0,29.737,5.188,42.809,15.021l2.824,2.116v147.261H254.432
		c-7.853-17.807-25.617-30.272-46.336-30.272c-27.995,0-50.689,22.708-50.689,50.688c0,27.995,22.694,50.703,50.689,50.703
		c20.719,0,38.455-12.449,46.325-30.258H379.88v59.322c-11.545,5.111-20.812,14.361-25.907,25.896H54.6
		C61.602,371.454,74.963,355.869,93.044,346.164z M228.812,284.948c0,11.298-9.159,20.457-20.457,20.457
		c-11.297,0-20.456-9.159-20.456-20.457c0-11.297,9.159-20.456,20.456-20.456C219.652,264.492,228.812,273.651,228.812,284.948z
		 M629.44,500.922l-495.597,0.083c-42.533,0-77.503-30.727-83.543-70.484h303.7c7.853,17.792,25.62,30.246,46.309,30.246
		c28.022,0,50.703-22.696,50.703-50.689c0-20.702-12.441-38.458-30.25-46.312V98.58h-2.207c17.71-25.4,45.788-42.562,77.641-47.725
		v247.929c-17.806,7.869-30.26,25.62-30.26,46.324c0,27.982,22.693,50.688,50.689,50.688c27.995,0,50.7-22.708,50.7-50.688
		c0-20.704-12.463-38.455-30.271-46.324V50.938c38.045,6.305,70.818,29.616,86.524,63.211l12.19,26.044l23.782-16.144
		c15.225-10.325,32.691-15.775,50.473-15.775c53.021,0,96.188,47.229,96.188,105.265c0,11.752-1.965,23.49-5.657,34.956H696.183
		c-7.853-17.795-25.604-30.264-46.324-30.264c-27.979,0-50.689,22.711-50.689,50.689c0,20.705,12.466,38.455,30.271,46.339V500.922
		L629.44,500.922z M649.704,289.649c-11.298,0-20.457-9.159-20.457-20.457c0-11.297,9.159-20.456,20.457-20.456
		c11.297,0,20.456,9.159,20.456,20.456C670.16,280.49,661.001,289.649,649.704,289.649z M782.062,343.75
		c-28.028,0-50.694,22.684-50.694,50.69c0,27.992,22.666,50.689,50.694,50.689c20.702,0,38.47-12.455,46.337-30.261h80.492
		c-8.36,48.193-41.434,85.028-80.479,85.998l-158.099,0.027V315.259c11.534-5.078,20.788-14.348,25.894-25.894h160.887v-0.355
		c27.529,14.018,47.986,46.121,52.733,84.987h-81.427C820.519,356.199,802.765,343.75,782.062,343.75z M801.836,396.165
		c0,11.297-9.159,20.456-20.456,20.456c-11.298,0-20.457-9.159-20.457-20.456c0-11.298,9.159-20.457,20.457-20.457
		C792.677,375.708,801.836,384.867,801.836,396.165z"/>
</g>
</svg>
