<svg xmlns="http://www.w3.org/2000/svg" width="960" height="960" viewBox="0 0 960 960"><path d="M480.4 0C744.8 0.6 959.9 216.2 960 479.9c0.1 262.8-215.2 483.5-486.2 480.1C211.7 956.7-0.7 742.3 0 478.8 0.7 214.1 216.4-0.6 480.4 0zM480.4 339.7c-0.8-0.3-1.1-0.4-1.2-0.5 -1-1.8-2-3.6-3-5.5 -11.7-22.7-25.8-43.7-47.9-57.4 -34.3-21.3-72.1-25.6-110.8-17.8 -75.7 15.4-126.9 92.4-113.8 168.7 5.7 33.2 18.2 63.5 35.2 92.2 30.6 51.7 70.7 95.4 116 134.4 34.1 29.3 71 54.6 111.9 73.8 9 4.2 16.8 5.4 25.6 0.1 5.3-3.2 11.3-5.3 16.8-8.2 40.2-20.9 76.3-47.6 109.8-78 45.7-41.5 85.5-87.8 113.4-143.4 17.3-34.5 29.2-70.6 24.3-110 -6.9-55.9-36.3-96.3-86.9-120.6 -30.6-14.7-63.2-14.9-96.1-8.2 -29.8 6.1-54.1 20.9-72.4 45.4C493.2 315.7 486.5 327.3 480.4 339.7z" fill="#F32C4C"/><path d="M480.4 339.7c6.1-12.4 12.8-24.1 20.9-35 18.3-24.5 42.6-39.4 72.4-45.4 32.8-6.7 65.4-6.5 96.1 8.2 50.5 24.3 79.9 64.7 86.9 120.6 4.9 39.4-7 75.5-24.3 110 -27.9 55.5-67.7 101.8-113.4 143.4 -33.4 30.4-69.6 57.1-109.8 78 -5.5 2.9-11.5 4.9-16.8 8.2 -8.7 5.3-16.6 4.2-25.6-0.1 -40.9-19.2-77.8-44.4-111.9-73.8 -45.3-39-85.4-82.6-116-134.4 -17-28.7-29.5-59-35.2-92.2 -13.1-76.3 38.1-153.3 113.8-168.7 38.8-7.9 76.5-3.5 110.8 17.8 22.1 13.7 36.2 34.7 47.9 57.4 1 1.8 2 3.6 3 5.5C479.3 339.4 479.6 339.4 480.4 339.7z" fill="#FEFEFE"/></svg>