<?xml version="1.0" encoding="utf-8"?>
<!-- Generator: Adobe Illustrator 16.0.0, SVG Export Plug-In . SVG Version: 6.00 Build 0)  -->
<!DOCTYPE svg PUBLIC "-//W3C//DTD SVG 1.1//EN" "http://www.w3.org/Graphics/SVG/1.1/DTD/svg11.dtd">
<svg version="1.1" id="Layer_1" xmlns="http://www.w3.org/2000/svg" xmlns:xlink="http://www.w3.org/1999/xlink" x="0px" y="0px"
	 width="960px" height="1082px" viewBox="0 0 960 1082" enable-background="new 0 0 960 1082" xml:space="preserve">
<g>
	<path fill="#1EE29C" d="M45.812,395.196c13.82,7.977,29.495,12.193,45.329,12.193c26.947,0,52.704-12.098,70.049-32.636
		l59.82,34.533l-41.982,7.099l5.365,31.871l105.529-17.853l-37.305-100.308l-30.296,11.255l14.85,39.94l-59.817-34.525
		c15.015-41.449-1.503-87.95-39.981-110.149c-13.91-8.038-29.712-12.285-45.697-12.285c-32.652,0-63.063,17.548-79.363,45.793
		c-12.23,21.177-15.484,45.851-9.15,69.479C9.488,363.226,24.635,382.968,45.812,395.196z M91.567,362.812
		c-25.355,0-45.981-20.983-45.981-46.774c0-25.791,20.626-46.774,45.981-46.774c25.357,0,45.984,20.984,45.984,46.774
		C137.552,341.828,116.925,362.812,91.567,362.812z"/>
	<path fill="#1EE29C" d="M464.016,181.253l0.004,69.066l-27.14-32.805l-24.919,20.579l68.229,82.462l68.216-82.458l-24.9-20.61
		l-27.164,32.83l-0.006-69.065c43.401-7.72,75.411-45.276,75.399-89.701c0.009-24.447-9.513-47.436-26.806-64.732
		S504.648,0,480.175,0c-50.482,0-91.553,41.069-91.553,91.548C388.625,135.977,420.632,173.535,464.016,181.253z M435.136,80.029
		c3.303-11.961,11.089-21.995,21.925-28.251c7.219-4.167,15.393-6.37,23.634-6.37c16.473,0,31.75,8.738,39.87,22.805
		c6.133,10.621,7.697,23.037,4.407,34.961c-3.3,11.96-11.087,21.993-21.923,28.249c-7.218,4.167-15.391,6.369-23.635,6.369
		c-16.471,0-31.748-8.738-39.869-22.802C433.41,104.37,431.845,91.953,435.136,80.029z"/>
	<path fill="#1EE29C" d="M781.921,416.864l-42.094-6.583l59.375-35.289c17.329,19.997,42.814,31.773,69.322,31.773
		c16.238,0,32.254-4.419,46.31-12.776c21.019-12.486,35.918-32.415,41.951-56.115c6.037-23.704,2.478-48.335-10.013-69.355
		c-16.421-27.636-46.615-44.803-78.802-44.803c-16.384,0-32.522,4.443-46.677,12.854c-38.194,22.702-54.13,69.405-38.603,110.643
		l-59.372,35.283l14.34-40.087l-30.423-10.916l-36.039,100.779l105.732,16.528L781.921,416.864z M827.157,292.321
		c8.059-14.375,23.45-23.304,40.164-23.304c8.037,0,16.031,2.1,23.119,6.075c10.916,6.12,18.827,16.053,22.278,27.971
		c3.441,11.881,2.031,24.315-3.965,35.012c-8.059,14.378-23.45,23.309-40.167,23.309c-8.038,0-16.035-2.101-23.123-6.075
		c-10.916-6.12-18.826-16.053-22.277-27.971C819.748,315.456,821.158,303.021,827.157,292.321z"/>
	<path fill="#1EE29C" d="M179.38,664.73l41.982,7.1l-59.82,34.536c-17.342-20.539-43.102-32.641-70.049-32.641
		c-15.834,0-31.509,4.219-45.329,12.197C24.987,698.146,9.841,717.889,3.51,741.512c-6.33,23.626-3.083,48.301,9.15,69.478
		c16.304,28.246,46.718,45.792,79.371,45.792c15.981,0,31.783-4.246,45.69-12.277c38.485-22.207,55.002-68.71,39.981-110.152
		l59.82-34.53l-14.847,39.936l30.29,11.269l37.307-100.319l-105.531-17.85L179.38,664.73z M137.907,765.08
		c0,25.791-20.63,46.773-45.984,46.773c-25.355,0-45.984-20.982-45.984-46.773s20.629-46.776,45.984-46.776
		C117.277,718.304,137.907,739.289,137.907,765.08z"/>
	<path fill="#1EE29C" d="M496.685,899.857l0.007-69.063l27.16,32.823l24.903-20.605l-68.219-82.459l-68.229,82.463l24.918,20.58
		l27.144-32.805l-0.004,69.066c-43.384,7.722-75.394,45.279-75.396,89.708c0,50.478,41.067,91.545,91.564,91.545h0.019
		c24.452,0,47.441-9.525,64.73-26.817c17.29-17.296,26.809-40.282,26.803-64.728C572.097,945.136,540.087,907.579,496.685,899.857z
		 M520.917,1012.9c-8.12,14.064-23.396,22.804-39.867,22.804c-8.244,0-16.419-2.205-23.636-6.37
		c-22.334-12.896-30.195-41.25-17.517-63.21c8.122-14.067,23.397-22.807,39.875-22.807c8.241,0,16.412,2.202,23.626,6.368
		C525.735,962.584,533.593,990.941,520.917,1012.9z"/>
	<path fill="#1EE29C" d="M957.132,743.235c-6.033-23.704-20.936-43.634-41.952-56.119c-14.058-8.358-30.07-12.774-46.306-12.774
		c-26.505,0-51.993,11.775-69.326,31.771l-59.374-35.288l42.094-6.58l-4.991-31.939l-105.733,16.535l36.039,100.777l30.424-10.91
		l-14.343-40.093l59.374,35.288c-15.526,41.234,0.408,87.933,38.604,110.638c14.153,8.412,30.296,12.855,46.68,12.855
		c32.187,0,62.378-17.169,78.792-44.806C959.608,791.569,963.168,766.938,957.132,743.235z M913.071,778.052
		c-3.451,11.918-11.362,21.851-22.278,27.968c-7.088,3.974-15.082,6.076-23.119,6.076c-16.718,0-32.108-8.931-40.164-23.311
		c-5.999-10.697-7.413-23.128-3.971-35.009c3.448-11.915,11.358-21.848,22.278-27.968c7.087-3.977,15.084-6.077,23.121-6.077
		c16.718,0,32.109,8.931,40.168,23.308C915.103,753.737,916.513,766.171,913.071,778.052z"/>
	<path fill="#1EE29C" d="M480.178,373.834c-91.763,0-166.417,74.653-166.417,166.415c0,91.76,74.654,166.414,166.417,166.414
		c91.759,0,166.409-74.654,166.409-166.414C646.587,448.487,571.937,373.834,480.178,373.834z M480.172,662.671
		c-64.988,0-117.856-52.872-117.856-117.856s52.868-117.853,117.856-117.853c64.983,0,117.852,52.868,117.852,117.853
		S545.155,662.671,480.172,662.671z"/>
</g>
</svg>
