<svg xmlns="http://www.w3.org/2000/svg" width="960" height="480" viewBox="0 0 960 480"><path d="M948.8 279.3H673.8c-13.6 0-21.6 1.5-27.6 2.6 -9.2 1.8-11.4 2.1-33.2-10.6 -23.1-13.5-24.5-14.3-30.9-9.5 -0.2 0.1-0.3 0.2-0.5 0.4 -1.5-0.3-3.5-0.8-6.1-1.5 -24.3-6.6-34.3 8.7-41.5 19.9 -7.3 11.2-13.5 20.8-34.1 20.8 -13.3 0-15.9-6.3-20-24.1 -0.2-0.7-0.3-1.4-0.5-2.1 19.4-5.8 37.8-15.2 48.2-28.9 9.8-12.8 12.4-23.4 7.6-31.3 -1.8-3-7.3-9.7-19.9-7.6 -14.1 2.3-34.9 15.8-50.3 39.3 -1-0.8-2.2-1.5-3.4-2.2 -9.5-5.3-21.6-5.1-38.1 0.6 -3.7 1.3-7.5 2.7-10.9 4.3 -2.4-16.9-7.1-31.5-13.5-42.4 0.3-4.9-0.5-8.6-2.5-12.2 -4.4-7.7-12.4-9.5-21.6-11.5 -6.7-1.4-15.1-3.3-26-7.6 -10.5-4.2-18.4-2.1-23 0.5 -15.1 8.2-19.6 30.3-25.3 58.4 -1.5 7.6-3.1 14.8-4.7 21.7 -7.4-15-16.2-24.7-24.9-30.8 0.6-13.2-1.4-26.9-7.8-40.9 -2.4-5.3-9.9-21.6-24.2-20.1 -1.5 0.2-3 0.5-4.5 1 4-52.4-1.4-64.2-13.3-67.1 -17.4-4.3-32 12.2-98.7 187.9 -4.7 12.3-8.7 23.6-12.3 34 -4.2-15.7-8.2-31.5-11.9-47.3 25-71.2 39.2-149.8 10-217.9C92.6 17.7 78.3-5.9 60.6 1.3 31.9 13.1 46.9 145.7 75.8 271.2c-14 38.9-31.2 75.6-45.7 106.6C4.8 431.9-7.9 459 5.3 473.1c4.2 4.5 9.6 5.9 15 5.9 7.6 0 15.2-2.9 19-4.4 12.2-4.7 21.8-8.1 29.3-10.8 30.9-10.9 35-13.4 39.3-41.8 0.9-5.8 1.9-13 3.8-22.4 3.7 10.9 7.5 21.2 11.2 30.7 2.3 5.7 8.7 8.5 14.4 6.3 5.7-2.2 8.5-8.7 6.3-14.4 -7.8-19.9-15.2-41.2-21.9-63.2 5.1-17.5 12.1-38.7 22-64.7 33.5-88.3 56.9-143.6 70-165.1 0.5 12.3-0.4 36.4-6.1 84 -0.2 1.3-0.3 2.7-0.5 4 -0.8 2.9-1.6 5.9-2.4 9.1 -3.3 2.2-6.5 4.6-9.6 7.4 -24.7 22.1-35.8 56.5-28.3 87.7 1.7 7.3 5.4 22.5 18 22.5 0 0 0 0 0.1 0 11.1-0.1 16.5-10.1 24-39 0.8 4.9 1.7 9.7 2.8 14.3 -0.9 5.3-0.2 10.2 2.8 14.7 0.5 0.7 1 1.4 1.6 2 9.8 32.2 25.2 55.1 42.1 65.6 12.4 7.7 25.4 8.2 35.8 1.4 18.5-12.1 25-44.8 18.1-92 -1-6.5-2.1-12.6-3.3-18.3 7-17.4 10.9-36.8 14.2-53.6 3.4-16.9 8.1-40 14-43.2 1-0.6 3.3 0.2 4.2 0.6 2.5 1 5 1.9 7.3 2.7 -6.2 8.6-10.9 21.4-14.1 38.4 -6.2 33.2 0.7 59 14.1 76.9 -1.6 10-2.9 20.1-3.8 30 -4.8 51.3 3.5 61.5 12.2 64.6 16 5.8 27.9-15.3 41.9-51.3 1.7-4.5 3.4-9 4.8-13.5 25.3 1.4 51.3-11 62.7-39.1 5.7 10.1 15.5 18.6 34 18.6 32.7 0 44.8-18.6 52.8-31 7.3-11.2 8.9-12.8 17-10.5 9.4 2.6 16.3 3.8 21.4 2.2 2.8 1.6 6.4 3.7 10.6 6.2 26.7 15.6 33.8 16 48.6 13.2 5.3-1 11.9-2.2 23.4-2.2h275c6.2 0 11.1-5 11.1-11.1C960 284.3 955 279.3 948.8 279.3zM509.8 233.2c-3.7 4.7-9 8.8-15.2 12.1C500 239.8 505.4 235.8 509.8 233.2zM68.7 26.5c3.8 5.1 10.1 15.7 19.5 37.6 21.6 50.4 16.5 108.7 0.9 165C70.4 135.5 62.8 51.8 68.7 26.5zM85.9 418.8c-2.4 16.2-2.4 16.2-24.7 24.1 -7.7 2.7-17.5 6.2-30 11 -4.4 1.7-7.2 2.4-9 2.7 0.9-11.3 15.3-42 28.1-69.4 10.9-23.3 23.3-49.7 34.8-78 4.4 17 8.9 33.6 13.6 49.5C90.4 388.2 87.7 406.7 85.9 418.8zM186.6 301.5c0-11 2.9-21.2 7.2-29.9C191.6 281.5 189 292.3 186.6 301.5zM240.8 189.2c0.7 1.1 1.5 2.7 2.4 4.7 3.4 7.4 5.1 14.8 5.6 22.2 -3-0.5-6.1-0.8-9.2-0.8 -3 0-6.1 0.2-9.1 0.7C234.1 204.3 237.6 194.4 240.8 189.2zM227.6 239.6c6.6-2.3 13.3-2.7 19.5-1.2 -3.6 16.3-11.5 31.7-18.9 45C227 270.1 226.7 255.5 227.6 239.6zM234.6 321.1c-0.1-0.4-0.2-0.7-0.3-1.1 1.9-5 6.5-13.3 10.1-19.7 7.5-13.4 16.9-30.1 22.4-48.7 7.7 9 13.9 22.3 18.3 39.2 -7.8 16.7-18.8 27.7-36.2 29.8C241.5 321.4 237.1 321.3 234.6 321.1zM281.6 384.4c-2.9 2-6.9 1.4-11.9-1.7 -9-5.6-19.5-18.8-27.8-39.2 3.2-0.1 6.5-0.5 9.6-0.8 17.1-2 29.7-9.6 39.3-20.2C295.3 360.5 288.8 379.6 281.6 384.4zM355.7 277.4c-2.1-10.2-2.3-22.1 0.3-35.8 4.7-25.2 11.9-32.4 14.2-33.1 0.1 0 0.2 0 0.3 0 1 0 2.9 1.1 5 3.5 0.1 0.1 0.2 0.2 0.2 0.3 -1.9 7.2-5.6 18.5-10 31.6l-2.8 8.3C360.4 259.9 357.9 268.5 355.7 277.4zM377.7 349.7c-5.2 13.4-9.3 22.2-12.4 28.1 -0.4-10.7 0.4-26.7 2.7-44.9 4.3 2.7 8.8 4.9 13.4 6.7C380.3 342.9 379.1 346.3 377.7 349.7zM387.4 317.9c-5.6-2.4-10.9-5.8-15.5-10.2 3-16.3 7-33.1 12.2-48.5l2.8-8.3c0.8-2.3 1.5-4.5 2.2-6.6C393 263.5 393.8 289 387.4 317.9zM448 288.1c-5 23-21.9 33-38.7 33.9 3-14 4.6-27.7 5-40.6 8.4 1.6 21.1 1.8 35.3 0.1C449 283.6 448.5 285.8 448 288.1z" fill="#2D2C86"/></svg>