<svg xmlns="http://www.w3.org/2000/svg" style="display: none;">
  
    <symbol id="icon-design" viewBox="0 0 512 512">
      <path d="m506 277l-147 0c-7 0-11 1-14 1-5 1-6 2-18-5-12-7-13-8-17-5 0 0 0 0 0 0-1 0-2-1-3-1-13-3-18 5-22 11-4 6-7 11-18 11-7 0-9-4-11-13 0 0 0-1 0-1 10-3 20-8 25-16 6-6 7-12 5-16-1-2-4-5-11-4-8 1-19 8-27 21 0-1-1-1-2-2-5-2-11-2-20 1-2 0-4 1-6 2-1-9-4-17-7-23 0-2 0-4-1-6-3-4-7-5-12-6-4-1-8-2-14-4-5-2-10-1-12 0-8 4-10 16-14 31 0 4-1 8-2 12-4-8-9-13-13-17 0-7-1-14-4-22-2-2-6-11-13-10-1 0-2 0-3 0 2-28-1-34-7-35-9-3-17 6-52 100-3 6-5 12-7 18-2-8-4-17-6-25 13-38 21-80 5-117-9-20-16-32-26-28-15 6-7 77 8 144-7 20-16 40-24 56-13 29-20 44-13 51 2 3 5 4 8 4 4 0 8-2 10-3 6-2 12-4 16-6 16-5 18-7 21-22 0-3 1-7 2-12 2 6 4 11 6 17 1 3 4 4 7 3 3-1 5-5 4-8-5-10-8-22-12-33 3-10 6-21 12-35 17-47 30-77 37-88 0 6 0 19-3 45 0 0 0 1-1 2 0 1 0 3-1 5-2 1-3 2-5 4-13 11-19 30-15 46 1 4 3 12 9 12 1 0 1 0 1 0 5 0 8-5 12-20 1 2 1 5 2 7-1 3 0 6 1 8 1 1 1 1 1 1 5 17 14 30 23 35 6 4 13 5 19 1 10-7 13-24 9-49 0-4-1-7-1-10 3-9 5-20 7-29 2-9 4-21 8-23 0 0 1 1 2 1 1 0 2 1 4 1-4 5-6 12-8 21-3 17 1 31 8 41-1 5-2 10-2 16-3 27 2 32 6 34 9 3 15-8 23-27 0-3 1-5 2-7 14 0 27-6 34-21 3 5 8 10 18 10 17 0 24-10 28-17 4-6 5-7 9-5 5 1 9 2 11 1 2 1 4 2 6 3 14 8 18 9 26 7 3 0 6-1 12-1l147 0c3 0 6-3 6-6 0-3-3-6-6-6z m-234-25c-2 3-5 5-8 7 3-3 6-5 8-7z m-235-110c2 3 5 8 10 20 12 27 9 58 1 88-10-50-15-94-11-108z m9 209c-1 9-1 9-13 13-4 2-10 4-16 6-3 1-4 1-5 2 0-6 8-23 15-37 6-13 12-27 18-42 3 9 5 18 8 26-5 16-6 26-7 32z m54-62c0-6 1-11 3-16-1 5-2 11-3 16z m28-60c1 1 1 1 2 2 2 4 2 8 3 12-2 0-4 0-5 0-2 0-3 0-5 0 2-6 4-11 5-14z m-7 27c4-1 7-2 11-1-2 9-6 17-10 24-1-7-1-15-1-23z m4 43c0 0 0 0 0 0 1-3 3-7 5-11 4-7 9-16 12-26 4 5 8 12 10 21-4 9-10 15-19 16-4 0-7 0-8 0z m25 34c-1 1-4 1-6-1-5-3-11-10-15-21 2 0 3 0 5 0 9-1 16-5 21-11 2 20-1 30-5 33z m40-57c-1-5-1-12 0-19 2-14 6-17 7-18 1 0 1 0 1 0 0 0 1 1 2 2 0 0 0 0 0 0-1 4-3 10-5 17l-1 5c-2 4-3 8-4 13z m11 38c-2 8-4 12-6 15 0-5 0-14 1-23 3 1 5 2 7 3 0 2-1 4-2 5z m6-16c-3-2-6-4-9-6 2-9 4-18 7-26l1-4c1-1 1-3 1-4 3 11 3 24 0 40z m32-16c-3 12-12 17-21 18 2-8 3-15 3-22 4 1 11 1 19 0-1 1-1 2-1 4z"/>
    </symbol>
  
    <symbol id="icon-research" viewBox="0 0 512 512">
      <path d="m157 35c-35 0-64 28-64 64 0 35 29 64 64 64 31 0 58-23 63-53l202 0c37 0 67 30 67 67 0 37-30 67-67 67l-332 0c-50 0-90 41-90 90 0 50 40 90 90 90l138 0-33 33c-4 5-4 12 0 16 5 5 12 5 17 1 0 0 0 0 0-1l52-52c5-4 5-12 0-16 0 0 0 0 0 0l-52-53c0 0-1 0-1-1-5-4-12-4-16 1-5 5-4 12 0 17l33 32-138 0c-37 0-67-29-67-67 0-37 30-67 67-67l332 0c50 0 90-40 90-90 0-50-40-90-90-90l-202 0c-5-30-32-52-63-52z m0 23c23 0 41 18 41 41 0 22-18 40-41 40-23 0-41-18-41-40 0-23 18-41 41-41z m198 291c-35 0-64 29-64 64 0 35 29 64 64 64 35 0 64-29 64-64 0-35-29-64-64-64z m0 23c23 0 41 18 41 41 0 22-18 41-41 41-23 0-41-19-41-41 0-23 18-41 41-41z"/>
    </symbol>
  
    <symbol id="icon-content" viewBox="0 0 512 512">
      <path d="m176 221c0 10 3 21 7 30 4 10 10 18 17 26 7 7 16 13 25 17 10 4 20 6 31 6 11 0 21-2 31-6 9-4 18-10 25-17 7-8 13-16 17-26 4-9 7-20 7-30 0-11-3-22-7-31-4-10-10-18-17-26-7-7-16-13-25-17-10-4-20-6-31-6-11 0-21 2-31 6-9 4-18 10-25 17-7 8-13 16-17 26-4 9-7 20-7 31z m36-44c12-12 28-18 44-18 16 0 32 6 44 18 11 12 17 27 17 44 0 16-6 31-17 43-12 12-28 18-44 18-16 0-32-6-44-18-11-12-17-27-17-43 0-17 6-32 17-44z m-79-47c6 0 12-2 18-5l2-1 1 2 13 13 0 0c2 2 4 2 7 2 2 0 5 0 6-2 4-4 4-9 0-13l0 0c0 0 0 0 0 0l0 0 0 0-13-13-2-2 1-1c3-6 5-12 5-19 0-10-4-20-11-27-8-7-17-11-27-11-11 0-20 4-27 11-8 7-12 17-12 27 0 10 4 20 12 27 7 8 16 12 27 12z m0-59c11 0 20 9 20 20 0 12-9 21-20 21-12 0-21-9-21-21 0-11 9-20 21-20z m112 4l2 1 0 27c0 5 4 9 9 9l0 0c5 0 9-4 9-9l0-27 2-1c16-5 27-20 27-37 0-10-4-19-11-27-7-7-17-11-27-11-10 0-20 4-27 11-7 8-11 17-11 27 0 17 11 32 27 37z m11-57c11 0 20 9 20 20 0 12-9 21-20 21-11 0-20-9-20-21 0-11 9-20 20-20z m82 123c2 0 5 0 6-2l0 0c0 0 0 0 1 0l14-15 2 1c6 3 12 5 18 5 11 0 20-4 27-12 8-7 12-17 12-27 0-10-4-20-12-27-7-7-16-11-27-11-10 0-19 4-27 11-7 7-11 17-11 27 0 7 2 13 5 19l1 1-2 2-13 13 0 0 0 0c-4 3-4 9 0 13 1 2 4 2 6 2z m41-70c12 0 21 9 21 20 0 12-9 21-21 21-11 0-20-9-20-21 0-11 9-20 20-20z m-262 160l0-2 27 0 1 0c4 0 9-3 9-8 0-3-1-5-3-7-2-2-4-2-6-2l0 0 0-1 0 0 0 0-1 1-27 0-1-2c-2-8-7-15-13-20-7-5-15-8-23-8-10 0-20 4-27 11-8 8-12 17-12 28 0 10 4 19 12 27 7 7 17 11 27 11 8 0 16-3 23-8 6-5 11-12 14-20z m-37 10c-12 0-21-9-21-20 0-12 9-21 21-21 11 0 20 9 20 21 0 11-9 20-20 20z m299 137c-16-16-35-28-55-36-22-9-45-13-68-13-23 0-46 4-68 13-20 8-39 20-55 36-16 15-28 33-37 53-9 20-13 42-13 65l0 6c0 5 4 10 9 10l282 0 0 0c5 0 9-4 9-9 0-3-1-5-3-7-2-1-4-2-6-2l0 0 0 0 0 0 0 0 0 0-273 0 0-3c2-39 18-75 47-102 29-27 67-42 108-42 21 0 42 4 61 12 18 7 35 18 49 32 14 13 25 29 33 47 8 18 12 38 12 58l0 7c0 2 1 4 3 6 2 2 4 3 6 3l0 0c5 0 10-4 10-9l0-7c0-23-5-45-14-65-9-20-21-38-37-53z m80-185c-7-7-17-11-27-11-8 0-16 3-23 8-6 5-11 12-13 20l-1 2-27 0 0-1c-1 0-1 0-1 0 0 0 0 0 0 0-3 1-5 2-7 3-1 2-2 5-2 7 0 5 4 9 9 9 0 0 0-1 0-1l1 0 27 0 0 2c3 8 8 15 14 20 7 5 15 8 23 8 10 0 20-4 27-11 8-8 12-17 12-27 0-11-4-20-12-28z m-27 48c-11 0-20-9-20-20 0-12 9-21 20-21 12 0 21 9 21 21 0 11-9 20-21 20z"/>
    </symbol>
  
    <symbol id="icon-brainstorm" viewBox="0 0 512 512">
      <path d="m210 512c-4 0-7-2-9-6-3-4-8-10 23-89l-14-1c-6-1-10-3-13-8-2-4-3-9-1-14l40-94c3-7 11-13 19-13l38 1c5 0 10 3 13 7 2 4 3 9 1 14l-18 49 14 1c6 1 11 4 13 9 2 4 1 10-2 15-5 7-25 35-45 62-48 67-52 67-59 67z m24-116c5 0 10 3 12 7 3 5 3 10 1 15-5 13-10 27-15 40 16-21 36-49 57-78l-10-1c-5 0-10-3-13-7-2-5-3-10-1-15l18-47-28-1-35 86z m209-278c0-4 1-8 1-11 0-43-33-77-73-77-9 0-19 2-27 5-16-21-42-35-70-35-26 0-50 12-66 31-8-4-16-6-25-6-27 0-51 19-61 47-4-1-8-1-12-1-37 0-67 35-67 78 0 2 0 5 1 7-18 12-28 32-28 53 0 37 30 66 67 66l348 0c36-1 65-36 65-79 0-39-23-71-53-78z m-169 45c6 0 10 5 10 10 0 6-4 10-10 10-6 0-10-4-10-10 0-5 4-10 10-10z m-58 32c5 0 10 5 10 10 0 6-5 11-10 11-6 0-11-5-11-11 0-5 5-10 11-10z m-153-22l7-4-1-9c-1-3-1-7-1-11 0-30 19-54 42-54 5 0 10 1 15 4l14 6 3-15c5-24 22-40 41-40 8 0 15 2 22 7l1 1 0 74-63 0c-4-9-13-15-23-15-14 0-25 11-25 25 0 14 11 25 25 25 10 0 19-6 23-15l63 0 0 30c-6 2-10 7-13 13l-150 0c4-9 10-17 20-22z m67-31c0 6-4 11-10 11-5 0-10-5-10-11 0-5 5-10 10-10 6 0 10 5 10 10z m201 108l-248 1c-21 0-39-16-42-36l152 0c4 9 13 15 23 15 14 0 26-11 26-25 0-10-7-19-16-23l0-133-1 0c9-12 23-21 39-24l0 124c-9 4-15 13-15 24 0 14 11 25 25 25 14 0 26-11 26-25 0-11-7-20-15-24l0-124c19 4 35 15 43 32l6 13 12-8c7-5 16-8 25-8 27 0 48 24 48 53 0 6-1 12-3 17l-52 0c-4-9-13-15-23-15-14 0-25 11-25 25 0 11 6 20 15 24z m10-105c-6 0-10-5-10-10 0-6 4-11 10-11 6 0 10 5 10 11 0 5-4 10-10 10z m66 27c-14 0-25 11-25 25 0 14 11 26 25 26 10 0 19-7 23-16l40 0c-4 25-20 43-40 43l-79 0 0-92c6-3 11-8 13-13l81 0 0 0c13 7 24 23 26 42l-41 0c-4-9-13-15-23-15z m10 26c0 6-5 10-10 10-6 0-11-4-11-10 0-6 5-10 11-10 5 0 10 4 10 10z"/>
    </symbol>
  
    <symbol id="icon-organization" viewBox="0 0 512 512">
      <path d="m481 0l-48 36-48 113-39 0-15-33 10 0c18 0 33-15 33-33l0-33 16 0 0-50-49 0 0 50 16 0 0 33c0 9-7 16-16 16l-18 0-21-46 25-12-82-36-20 68c0-40-34-73-74-73-41 0-74 33-74 74 0 25 12 48 33 62l0 13-20 0-2 6c-4 21-4 42-1 64l-56 100 62 14 0 104 83 0 0 75 198 0 0-115c57-41 91-107 91-177l0-30c0-12-2-23-4-35l-1-6-16 0 37-90z m-124 17l17 0 0 16-17 0z m108 27l-10-4 10-7z m-137 105l-31 0-15-33 31 0z m-65-33l15 33-36 0 0-17c0-9 7-16 16-16z m-8-88l33 14-8 4 25 53-31 0-20-44-8 4z m-9 49l10 22c-17 1-31 16-31 33l0 17-33 0 0-13c17-11 28-28 32-48z m-124 47c-18-10-29-29-29-50 0-32 26-57 58-57 32 0 58 25 58 57 0 21-11 40-29 50l-4 3 0 22-17 0 0-51c10-4 17-13 17-24 0-13-11-24-25-24-14 0-25 11-25 24 0 11 7 20 17 24l0 51-17 0 0-22z m21-50c0-4 3-8 8-8 4 0 8 4 8 8 0 5-4 9-8 9-5 0-8-4-8-9z m305 116l0 30c0 66-32 128-87 166l-4 2 0 107-165 0 0-74-82 0 0-101-54-12 48-86 0-3c-3-18-3-36-1-54l343 0c1 8 2 17 2 25z m-45-41l41-96 18 9-36 87z m-236 66c-13 0-24-11-24-25l-17 0c0 23 19 41 41 41 23 0 42-18 42-41l-17 0c0 14-11 25-25 25z"/>
    </symbol>
  
    <symbol id="icon-spaces" viewBox="0 0 512 512">
      <path d="m220 443l-12 11 49 56 0 0-49-56z m79-398c0 18-12 34-29 40 17-6 29-22 29-40 0-24-19-43-43-43 24 0 43 19 43 43z m0 293c0 19-12 35-29 41 17-6 29-22 29-41 0-23-19-42-43-42 24 0 43 19 43 42z m-8 105l13 11-23 28 23-28z m-248-151l-17 0 0 51 136 0 0-17-119 0z m0-154l371 0 0-17-149 0 0-35c1 0 3-1 5-1 17-6 29-22 29-40 0-24-19-43-43-43-22 0-40 17-42 38-1 2-1 3-1 5 0 20 15 37 34 41l0 35-221 0 0 52 17 0z m187-93c0-15 12-26 26-26 14 0 26 11 26 26 0 14-12 25-26 25-14 0-26-11-26-25z m239 281l-128 0 0 17 145 0 0-153-17 0z m9-233c-19 0-34 15-34 34 0 19 15 34 34 34 19 0 34-15 34-34 0-19-15-34-34-34z m-410 139c0-19-15-35-34-35-19 0-34 16-34 35 0 18 15 34 34 34 19 0 34-16 34-34z m223 211l-26 32 0-95c1 0 3-1 5-1 17-6 29-22 29-41 0-23-19-42-43-42-22 0-40 16-42 38-1 1-1 3-1 4 0 21 15 38 34 42l0 94-27-31-12 11 49 56 24-28 23-28z m-61-105c0-14 12-25 26-25 14 0 26 11 26 25 0 14-12 26-26 26-14 0-26-12-26-26z"/>
    </symbol>
  
    <symbol id="icon-learning" viewBox="0 0 512 512">
      <path d="m324 160c2-4 3-8 1-12-2-4-5-6-10-7l-17-1 19-49c1-4 1-8-1-11-2-4-6-6-11-6l-35 0c-7 0-14 4-17 10l-37 89c-1 4-1 8 1 12 2 3 6 5 10 6l17 1-1 3c-29 73-25 79-23 82 2 3 5 4 8 4 5 0 8 0 54-62 17-24 35-49 42-59z m-82 85l4-13c5-12 10-25 15-38 1-4 1-8-1-12-2-3-6-5-10-6l-17-1 36-85 31 1-18 47c-2 4-2 9 1 12 2 3 5 5 10 6l13 1-2 3c-20 28-39 54-54 74z m230-55c0-104-84-189-187-190-1 0-1 0-2 0-89 0-167 64-186 152-5 22-5 44-2 67l-55 100 62 17 0 102 82 0 0 57 16 0 0-74-82 0 0-97-54-16 48-86 0-3c-4-22-3-43 1-64 17-81 90-140 172-138 94 1 171 78 171 173l0 30c0 66-33 128-87 166l-4 2 0 107 17 0 0-98c57-41 91-107 90-177z m-107 305l-181 0 0 17 198 0 0-17z"/>
    </symbol>
  
    <symbol id="icon-participation" viewBox="0 0 512 512">
      <path d="m51 187c6 4 14 6 21 6 13 0 25-6 33-16l28 17-19 3 2 15 50-8-18-48-14 6 7 18-28-16c7-20-1-42-19-52-7-4-14-6-22-6-15 0-30 8-37 22-6 10-8 22-5 33 3 11 11 20 21 26z m21-15c-12 0-22-10-22-22 0-13 10-23 22-23 12 0 22 10 22 23 0 12-10 22-22 22z m176-86l0 32-12-15-12 10 32 39 32-39-11-10-13 15 0-32c20-4 35-22 35-43 0-11-4-22-12-30-8-8-19-13-31-13-24 0-43 19-43 43 0 21 15 39 35 43z m-13-48c1-6 5-11 10-13 4-2 7-4 11-4 8 0 15 5 19 11 3 5 4 11 2 17-1 5-5 10-10 13-4 2-7 3-11 3-8 0-15-4-19-11-3-5-4-10-2-16z m164 159l-20-3 28-17c8 10 20 15 33 15 8 0 15-2 22-6 10-5 17-15 20-26 2-11 1-23-5-33-8-13-22-21-37-21-8 0-16 2-22 6-19 11-26 33-19 52l-28 17 7-19-14-5-18 48 51 7z m21-59c4-6 11-11 19-11 4 0 8 1 11 3 5 3 9 8 11 13 1 6 1 12-2 17-4 7-11 11-19 11-4 0-8-1-11-3-5-3-9-7-11-13-1-6-1-12 2-17z m-306 177l20 3-29 16c-8-9-20-15-33-15-7 0-15 2-21 6-10 5-17 15-20 26-3 11-2 23 4 33 8 13 22 21 37 21 8 0 15-2 22-5 18-11 26-33 19-53l28-16-7 19 15 5 17-47-50-9z m-20 47c0 12-10 22-22 22-12 0-21-10-21-22 0-12 9-22 21-22 12 0 22 10 22 22z m170 64l0-33 13 16 12-10-33-39-32 39 12 10 13-16 0 33c-21 3-36 21-36 42 0 24 19 44 43 44l0 0c12 0 23-5 31-13 8-8 13-19 13-31 0-21-16-39-36-42z m11 53c-3 7-11 11-19 11-3 0-7-1-11-3-10-6-14-19-8-30 4-6 11-11 19-11 4 0 8 1 11 3 11 6 14 20 8 30z m207-127c-3-12-10-21-20-27-7-4-14-6-22-6-13 0-25 6-33 15l-28-17 20-3-2-15-50 8 17 48 14-5-7-19 28 16c-7 20 1 42 19 53 6 4 14 6 22 6 15 0 29-8 37-21 6-10 8-22 5-33z m-21 16c-2 6-5 11-11 13-3 2-7 3-11 3-7 0-15-4-19-11-2-5-3-11-1-16 1-6 5-11 10-14 3-1 7-2 11-2 8 0 15 4 19 11 3 5 4 11 2 16z m-205-191c-43 0-79 35-79 79 0 43 36 78 79 78 44 0 79-35 79-78 0-44-35-79-79-79z m0 137c-31 0-56-25-56-56 0-31 25-56 56-56 31 0 56 25 56 56 0 31-25 56-56 56z"/>
    </symbol>
  
    <symbol id="icon-bolt" viewBox="0 0 512 512">
      <path d="m381 162c3 4 4 8 2 12l-154 331c-3 5-7 7-12 7-1 0-3 0-4-1-4-1-6-2-8-5-1-3-2-6-1-9l56-230-116 28c0 1-2 1-3 1-4 0-7-1-9-3-3-3-5-7-4-12l58-235c0-3 2-5 4-7 3-2 5-2 8-2l94 0c4 0 7 1 9 3 3 3 4 5 4 9 0 1-1 3-2 5l-48 132 113-28c1 0 2-1 3-1 4 0 7 2 10 5z"/>
    </symbol>
  
    <symbol id="icon-power" viewBox="0 0 512 512">
      <path d="m287 205l-1 7 1-7 45-192c0-1 0-1 0-2 0 1 0 1 0 2z m-37 86c0 0 0-1 0-2 0 1 0 1 0 2l-28 122-8 33 0-1 8-32z m121-79c3 0 7 3 9 6 1 2 1 4 1 6 0-2 0-4-1-6-2-3-6-6-9-6z m-239 82c-1-1-1-3-1-5 0 2 0 4 1 5 2 4 6 6 9 6-3 0-7-2-9-6z m93 13l-45 192c0 1 0 2 0 2 0 0 0-1 0-2z m37-86c0 1 0 1 0 2 0-1 0-1 0-2l28-122 8-32 0 0-8 32z m150-44c2 0 4-1 5-2l57-33c5-2 7-9 4-14-2-3-6-5-9-5-2 0-4 0-6 1l-56 33c-5 3-7 9-4 14 2 4 5 6 9 6z m-311 158c-1 0-3 0-5 1l-58 34c-5 3-7 9-4 14 2 3 6 5 9 5 2 0 4 0 6-1l58-34c5-2 6-9 3-14-1-3-5-5-9-5z m-15-80c0-6-4-11-10-11l-66 0c-5 0-10 5-10 11 0 5 5 11 10 11l66 0c6 0 10-6 10-11z m21-97l-58-34c-2-1-4-1-6-1-3 0-7 2-9 5-1 2-1 5-1 8 1 3 3 5 5 6l58 34c2 1 4 1 5 1 4 0 8-2 9-5 2-2 2-5 2-8-1-3-3-5-5-6z m394 86l-65 0c-6 0-10 5-10 11 0 5 4 11 10 11l65 0c6 0 11-6 11-11 0-6-5-11-11-11z m-27 126l-57-33c-1-1-3-1-5-1-4 0-7 2-9 5-3 5-1 11 4 14l56 33c2 1 4 1 6 1 3 0 7-2 9-5 1-2 1-5 1-8-1-3-3-5-5-6z m-103-163l-85 0 1-4 45-191c0-1 0-1 0-2 0-4-2-8-6-9-2-1-3-1-5-1-3 0-6 2-8 5l-180 278c-1 2-2 4-2 6 0 2 0 3 1 4 2 4 6 6 9 6l85 0-1 7-45 193c0 1 0 1 0 2 0 4 2 8 6 10 2 1 3 1 5 1 3 0 6-2 8-5l180-278c1-2 2-4 2-5 0-2 0-7-1-8-2-4-6-9-9-9z m-26 36l-113 175-18 28 0-1 0 1 8-33 28-122c0-1 0-1 0-2 0-2-1-6-2-7-2-3-5-5-8-5l-79 0 6-9 113-174 18-28 0 1 0 0-8 32-28 122c0 1 0 1 0 2 0 2 1 5 2 7 2 2 5 3 8 3l79 0z"/>
    </symbol>
  
    <symbol id="icon-bkg-arrow-down" viewBox="0 0 512 512">
      <path d="m511 129c0-1 0-1 0-1 0 0-1 0-1 0 0 0 0 0 0 0-1 0-1 0-2 1 0 0 0 0 0 0-1 0-2 0-3 0 0 0 0 0 0 0-1 1-1 1-2 1 0 0 0 0 0 0-1 0-1 0-1 1 0 0-1 0-1 0 0 0 0 0-1 1 0 0 0 0 0 0 0 0-1 0-1 0l-244 209-244-209c0 0-1 0-1 0 0 0 0 0 0 0 0 0-1-1-1-1 0 0 0 0-1 0 0 0 0 0 0-1 0 0-1 0-1 0 0 0 0 0-1 0 0 0 0 0 0-1-1 0-1 0-1 0 0 0-1 0-1 0-1 0-2 0-3 0 0-1 0-1 0-1 0 0-1-1-1-1 0 0 0 0 0 0l0 40 255 217 255-217 2 1 0-39c0 0 0 0-1 0z"/>
    </symbol>
  
    <symbol id="icon-behance" viewBox="0 0 512 512">
      <path d="m178 166c1 3 2 6 3 9-1-3-2-6-3-9-2-4-5-8-10-11-4-2-8-4-12-5 4 1 8 3 12 5 5 3 8 7 10 11z m4 18c0 0 0 0 0 0 0 8-1 14-3 20 2-6 3-12 3-20z m-4 163c-4 3-10 5-16 7 6-2 12-3 16-7 5-3 8-7 11-12 2-6 4-13 4-21 0 0 0 0 0 0 0 8-2 15-4 21-3 5-6 9-11 12z m27-109c14-7 26-16 32-26 8-10 12-24 12-40 0-14-3-26-7-36-5-11-11-19-21-24-9-6-19-10-31-12-13-4-27-5-41-5l-149 0 0 313 152 0c14 0 27-2 41-5 14-4 26-9 36-16 11-7 20-17 25-29 6-11 10-25 10-40 0-20-6-37-15-51-9-13-24-23-44-29z m-136-90l66 0c7 0 12 0 18 1 1 0 2 0 3 1 4 1 8 3 12 5 5 3 8 7 10 11 1 3 3 6 3 9 1 3 1 6 1 9 0 0 0 0 0 0 0 0 0 0 0 0 0 8-1 14-4 20-2 3-4 7-8 9-8 6-18 9-30 9l-71 0z m124 166c0 8-2 15-4 21-3 5-7 9-11 12-5 4-10 6-16 7-6 1-12 2-19 2l-74 0 0-87 75 0c15 0 27 3 36 10 9 8 13 19 13 35 0 0 0 0 0 0 0 0 0 0 0 0z m316-53c-4-16-11-31-20-44-9-13-21-22-36-30-14-8-31-12-51-12-18 0-33 4-47 9-14 6-27 15-37 25-10 12-18 24-24 39-5 15-8 31-8 48 0 18 3 34 8 49 5 15 13 27 23 37 10 12 22 20 36 25 15 6 31 10 49 10 26 0 48-7 66-19 18-12 32-32 41-59l-56 0c-2 8-7 14-17 21-9 5-20 9-33 9-18 0-31-5-41-14-9-9-15-26-15-45l164 0c2-18 0-34-2-49z m-161 12c0-6 1-10 2-15 1-6 3-12 8-17 4-4 9-9 16-12 7-4 15-6 25-6 15 0 27 5 35 13 8 8 14 18 16 37z m-14-158l127 0 0 31-127 0z"/>
    </symbol>
  
    <symbol id="icon-facebook" viewBox="0 0 512 512">
      <path d="m484 0l-456 0c-15 0-28 13-28 29l0 455c0 16 13 28 28 28l246 0 0-197-67 0 0-79 67 0 0-56c0-66 41-102 100-102 28 0 52 2 60 3l0 69-42 0c-32 0-39 15-39 37l0 49 77 0-10 79-67 0 0 197 131 0c15 0 28-12 28-28l0-455c0-16-13-29-28-29z"/>
    </symbol>
  
    <symbol id="icon-github" viewBox="0 0 512 512">
      <path d="m256 6c-141 0-256 115-256 256 0 113 73 209 175 243 13 3 18-5 18-12 0-6-1-26-1-48-71 16-86-30-86-30-12-30-28-37-28-37-24-16 1-16 1-16 26 2 39 26 39 26 23 40 60 28 75 22 2-17 9-28 16-35-57-6-116-28-116-126 0-28 10-51 26-69-3-6-11-32 2-67 0 0 22-7 71 26 20-6 42-9 64-9 22 0 44 3 64 9 49-33 70-26 70-26 14 35 6 61 3 67 16 18 26 41 26 69 0 98-60 120-117 126 10 8 18 24 18 48 0 34-1 61-1 70 0 7 5 15 18 12 102-34 175-130 175-243 0-141-115-256-256-256z m-159 368c-1 1-3 1-4 1-2-1-3-3-3-4 1-2 3-2 5-1 2 1 3 3 2 4z m10 11c-1 2-3 1-5-1-2-2-2-4-1-5 2-1 4-1 6 1 1 2 2 4 0 5z m10 15c-1 1-4 0-5-2-2-2-2-5 0-6 1-1 4 0 5 2 2 2 2 5 0 6z m14 14c-1 2-4 2-6-1-3-2-3-5-2-6 2-2 5-1 7 1 2 2 3 5 1 6z m19 9c0 2-3 3-6 2-3-1-5-4-4-6 0-2 3-2 6-2 3 1 5 4 4 6z m21 1c0 2-2 4-5 4-3 0-6-2-6-4 0-2 3-3 6-4 3 0 5 2 5 4z m20-3c0 2-2 4-5 5-3 0-6-1-6-3-1-2 2-4 5-5 3 0 5 1 6 3z"/>
    </symbol>
  
    <symbol id="icon-instagram" viewBox="0 0 512 512">
      <path d="m0 340c0-56 0-112 0-168 0-2 1-3 1-5 0-20 1-40 6-59 11-44 36-75 78-93 23-10 46-13 71-14 5 0 10-1 16-1 56 0 112 0 168 0 2 0 4 1 5 1 16 1 33 1 49 4 59 11 96 45 111 104 6 25 6 51 7 76 0 50 0 101-1 151 0 20-1 39-4 59-11 58-46 95-103 110-25 6-51 7-77 7-53 0-106 0-160-1-20 0-40-1-59-6-43-11-75-36-93-76-10-23-13-48-14-73 0-5-1-10-1-16z m256 126c0 0 0 0 0-1 21 0 43 1 64 0 20 0 40-1 60-3 20-2 37-9 52-22 21-18 29-42 31-68 2-30 2-60 3-90 0-30 0-60-1-90 0-20-1-40-3-60-2-19-9-37-22-52-18-21-41-29-68-31-30-2-60-2-90-3-30 0-60 0-90 1-20 0-40 1-60 3-19 2-37 9-52 22-21 18-29 41-31 68-2 30-2 60-3 90 0 30 0 60 1 90 0 22 1 44 4 66 6 37 28 63 64 73 13 3 25 5 38 5 34 1 69 2 103 2z m132-210c0 73-59 132-132 132-73-1-132-60-132-132 1-73 60-132 133-132 72 1 131 60 131 132z m-132-85c-47 0-85 38-85 84 0 48 38 86 84 86 48 0 86-38 86-84 0-48-38-86-85-86z m168-52c0 17-14 31-31 31-17 0-31-14-31-31 0-17 14-30 30-30 18-1 31 13 32 30z"/>
    </symbol>
  
    <symbol id="icon-linkedin" viewBox="0 0 512 512">
      <path d="m474 36l-436 0c-21 0-38 17-38 37l0 438c0 20 17 37 38 37l436 0c21 0 38-17 38-37l0-438c0-20-17-37-38-37z m-322 436l-76 0 0-244 76 0z m-38-277c-24 0-44-20-44-44 0-25 20-45 44-45 24 0 44 20 44 45 0 24-20 44-44 44z m322 277l-76 0 0-119c0-28 0-64-39-64-40 0-46 31-46 62l0 121-75 0 0-244 72 0 0 33 1 0c10-19 35-39 72-39 77 0 91 50 91 116z"/>
    </symbol>
  
    <symbol id="icon-medium" viewBox="0 0 512 512">
      <path d="m171 294c0 55 0 110 0 165 0 3 0 6-1 9-1 7-5 9-12 7-2-1-4-2-7-3-45-23-90-46-136-68-10-5-15-12-15-25 0-109 0-219 0-329 0-14 3-15 15-9 49 24 98 49 147 73 7 4 9 7 9 15-1 55 0 110 0 165z m179 87c-2-3-3-5-5-8-34-55-68-111-102-166-3-5-3-9 0-14 31-50 62-100 92-150 5-7 9-9 17-5 50 26 101 51 151 76 5 3 9 4 5 11-52 84-104 169-156 253 0 1-1 1-2 3z m162-230c0 3 0 5 0 8 0 100 0 200 0 300 0 3 0 6 0 9-2 6-6 9-12 7-2-1-3-1-5-2-45-22-89-45-134-67-2-1-3-2-5-4 51-84 103-168 154-252 1 1 1 1 2 1z m-325-6c51 84 102 166 153 249-3-1-5-1-7-2-47-24-94-47-141-71-4-2-6-3-6-8 0-55 0-109 0-163 0-1 0-2 1-5z"/>
    </symbol>
  
    <symbol id="icon-pinterest" viewBox="0 0 512 512">
      <path d="m256 0c-141 0-256 115-256 256 0 108 67 201 163 238-3-20-5-51 1-73 4-20 30-127 30-127 0 0-8-16-8-38 0-36 21-62 46-62 22 0 33 16 33 36 0 22-14 54-22 85-6 25 13 46 38 46 46 0 81-48 81-117 0-61-44-104-107-104-73 0-116 54-116 111 0 22 9 45 19 58 2 3 3 5 2 8-2 8-6 25-7 29-1 4-4 5-9 3-31-15-51-62-51-99 0-81 58-155 169-155 88 0 157 63 157 148 0 88-55 159-132 159-26 0-51-13-59-29 0 0-13 48-16 60-6 23-21 51-32 68 24 7 50 11 76 11 141 0 256-115 256-256 0-141-115-256-256-256"/>
    </symbol>
  
    <symbol id="icon-trello" viewBox="0 0 512 512">
      <path d="m448 0l-384 0c-35 0-64 29-64 64l0 384c0 35 29 64 64 64l384 0c35 0 64-29 64-64l0-384c0-35-29-64-64-64z m-225 388c0 17-14 31-31 31l-95 0c-17 0-30-14-30-31l0-291c0-17 13-30 30-30l95 0c17 0 31 13 31 30z m222-128c0 17-13 31-30 31l-95 0c-17 0-31-14-31-31l0-163c0-17 14-30 31-30l95 0c17 0 30 13 30 30z"/>
    </symbol>
  
    <symbol id="icon-twitter" viewBox="0 0 512 512">
      <path d="m512 97c-19 9-39 14-60 17 21-13 38-34 46-58-21 12-43 20-67 25-19-20-46-33-77-33-58 0-105 47-105 105 0 8 1 16 3 24-87-4-165-46-216-110-9 16-15 34-15 53 0 36 19 69 47 87-17 0-33-5-47-13 0 1 0 1 0 2 0 51 36 93 84 103-9 2-18 3-28 3-7 0-13 0-20-2 14 42 53 72 98 73-35 28-81 45-130 45-8 0-17 0-25-1 46 30 102 47 161 47 193 0 299-160 299-299 0-4 0-9-1-13 21-15 39-34 53-55z"/>
    </symbol>
  
    <symbol id="icon-share" viewBox="0 0 512 512">
      <path d="m384 333c21 0 39 7 54 22c15 14 23 33 23 55c0 21-8 39-23 54c-15 15-33 22-54 22c-21 0-39-7-54-22c-15-15-23-33-23-54c0-2 0-5 1-8c0-2 0-4 0-6c0 0-133-80-133-80c-14 11-30 17-47 17c-21 0-39-8-54-23c-15-15-23-33-23-54c0-21 8-39 23-54c15-15 33-23 54-23c18 0 34 5 47 16c0 0 133-80 133-80c0-2 0-4 0-6c-1-3-1-5-1-7c0-21 8-39 23-54c15-15 33-22 54-22c21 0 39 7 54 22c15 14 23 33 23 54c0 22-8 40-23 55c-15 15-33 22-54 22c-18 0-33-5-46-16c0 0-134 80-134 80c0 2 1 7 1 13c0 5-1 10-1 12c0 0 134 80 134 80c12-10 28-15 46-15"/>
    </symbol>
  
    <symbol id="icon-plus" viewBox="0 0 512 512">
      <path d="m432 203l-123 0l0-123c0-5-5-10-10-10l-86 0c-5 0-10 5-10 10l0 123l-123 0c-5 0-10 5-10 10l0 86c0 3 1 5 3 7c2 2 4 3 7 3l123 0l0 123c0 3 1 5 3 7c2 2 4 3 7 3l86 0c3 0 5-1 7-3c2-2 3-4 3-7l0-123l123 0c3 0 5-1 7-3c2-2 3-4 3-7l0-86c0-5-5-10-10-10z"/>
    </symbol>
  
</svg>
