<?xml version="1.0" encoding="utf-8"?>
<!-- Generator: Adobe Illustrator 16.0.0, SVG Export Plug-In . SVG Version: 6.00 Build 0)  -->
<!DOCTYPE svg PUBLIC "-//W3C//DTD SVG 1.1//EN" "http://www.w3.org/Graphics/SVG/1.1/DTD/svg11.dtd">
<svg version="1.1" id="Layer_1" xmlns="http://www.w3.org/2000/svg" xmlns:xlink="http://www.w3.org/1999/xlink" x="0px" y="0px"
	 width="960px" height="1135px" viewBox="0 0 960 1135" enable-background="new 0 0 960 1135" xml:space="preserve">
<g>
	<g>
		<path fill="#2D2C86" d="M630.263,354.822c5.924-8.458,7.094-18.114,3.203-26.483c-3.914-8.438-12.041-13.8-22.299-14.711
			l-37.086-3.347l40.941-107.452c3.434-9.025,2.53-18.464-2.479-25.894c-5.021-7.477-13.434-11.872-23.09-12.068l-79.382-1.687
			c-14.879,0.001-29.937,9.996-35.698,23.765l-82.156,196.39c-3.666,8.749-3.126,18.165,1.479,25.838
			c4.607,7.648,12.675,12.524,22.128,13.371l36.832,3.35l-2.359,6.086c-63.075,162.668-54.595,175.098-49.526,182.525
			c3.745,5.506,9.709,8.661,16.362,8.661c11.718,0,18.792,0,119.525-137.733C576.182,431.393,615.286,376.091,630.263,354.822z
			 M448.217,543.469l10.596-29.989c9.401-26.6,20.221-55.567,31.289-83.767c3.445-8.785,2.744-18.153-1.921-25.702
			c-4.677-7.589-12.74-12.431-22.13-13.289l-36.266-3.35l78.629-187.994l68.582,1.521l-40.27,105.68
			c-3.362,8.814-2.588,18.178,2.123,25.693c4.725,7.545,12.777,12.348,22.092,13.178l29.698,2.75l-4.909,6.951
			c-42.855,60.671-85.995,120.056-118.354,162.93L448.217,543.469z"/>
	</g>
	<g>
		<path fill="#2D2C86" d="M959.814,420.709c0-229.04-186.299-417.745-415.247-420.672C542.775,0.019,541.006,0,539.23,0
			C341.541,0,168.748,140.815,127.153,336.676c-10.285,48.331-11.568,98.178-3.845,148.3L0.268,706.275L138,745.436V970h183v128h35
			V933H173V717.841l-119.039-34.04l107.494-192.146l-1.053-6.367c-8.068-47.708-7.231-95.141,2.54-140.999
			C201.281,163.671,361.574,34.2,544.059,36.634C753.1,39.306,923.161,211.615,923.161,420.725l0.054,66.776
			c0.092,146.615-72.189,283.865-193.202,367.145L722,860.118V1098h0.214h36.6H759V879.226
			c126-90.603,201.003-236.303,200.911-391.757L959.814,420.709z"/>
		<polygon fill="#2D2C86" points="722.214,1098 721.63,1098 356.224,1098 355.686,1098 321,1098 321,1134.23 321,1135 759,1135 
			759,1098 758.813,1098 		"/>
	</g>
</g>
</svg>
