<?xml version="1.0" encoding="utf-8"?>
<!-- Generator: Adobe Illustrator 16.0.0, SVG Export Plug-In . SVG Version: 6.00 Build 0)  -->
<!DOCTYPE svg PUBLIC "-//W3C//DTD SVG 1.1//EN" "http://www.w3.org/Graphics/SVG/1.1/DTD/svg11.dtd">
<svg version="1.1" id="Layer_1" xmlns="http://www.w3.org/2000/svg" xmlns:xlink="http://www.w3.org/1999/xlink" x="0px" y="0px"
	 width="960px" height="1092px" viewBox="0 0 960 1092" enable-background="new 0 0 960 1092" xml:space="preserve">
<g>
	<path fill="#2D2C86" d="M960,0L857.661,76.754L754.74,316.915H671.97l-32.502-70.437h21.227c38.836,0,70.42-31.584,70.42-70.42
		v-70.42h35.219V0H660.694v105.638h35.219v70.42c0,19.427-15.792,35.219-35.219,35.219h-37.478l-45.011-97.522l53.922-26.943
		L455.594,11.143l-41.492,145.215C412.973,69.943,342.421,0,255.751,0C168.374,0,97.293,71.073,97.293,158.449
		c0,52.81,26.74,102.33,70.429,131.611v26.846h-42.648l-2.743,14.283c-8.558,44.385-9.343,89.917-2.355,135.404L0,680.642
		l132.785,30.278v221.872h176.066v158.458h422.545V845.9C852.774,758.72,924.887,618.541,924.8,468.994l-0.036-64.227
		c0-24.208-2.275-48.91-6.792-73.437l-2.63-14.425h-34.565L960,126.759V0z M695.913,35.21h35.201v35.21h-35.201V35.21z
		 M924.8,94.734l-19.479-9.74L924.8,70.42V94.734z M633.187,316.906h-66.785l-32.007-70.428h66.29L633.187,316.906z
		 M495.717,246.478l32.008,70.437h-78.307v-35.219c0-19.418,15.792-35.218,35.218-35.218H495.717z M478.452,59.259l69.987,29.987
		l-16.515,8.276l52.51,113.755h-66.044l-42.911-94.364l-15.758,7.87L478.452,59.259z M458.575,164.756l21.35,46.988
		c-36.612,2.462-65.718,32.714-65.718,69.952v35.21h-70.428v-26.846c35.236-23.609,59.145-60.46,67.208-101.501L458.575,164.756z
		 M194.152,265.058c-38.023-22.021-61.65-62.868-61.65-106.608c0-67.941,55.308-123.239,123.249-123.239
		c67.948,0,123.247,55.298,123.247,123.239c0,43.741-23.626,84.605-61.642,106.626l-8.787,5.073v46.749h-35.21V208.013
		c20.433-7.288,35.21-26.652,35.21-49.582c0-29.114-23.697-52.81-52.818-52.81c-29.114,0-52.82,23.696-52.82,52.81
		c0,22.929,14.777,42.294,35.21,49.582v108.885h-35.21v-46.749L194.152,265.058z M238.141,158.449
		c0-9.714,7.887-17.601,17.61-17.601c9.722,0,17.608,7.887,17.608,17.601c0,9.722-7.887,17.609-17.608,17.609
		C246.027,176.058,238.141,168.153,238.141,158.449z M889.546,404.785l0.034,64.244c0.106,141.042-69.361,273.086-185.78,353.228
		l-7.622,5.25v228.524H344.044V897.583H167.985V682.82L53.736,656.786l102.992-183.77l-1.032-6.122
		c-6.537-38.519-6.96-77.063-1.252-114.796h13.277h176.058h541.92C888.257,369.761,889.546,387.405,889.546,404.785z
		 M793.029,316.906l87.765-204.774l39.029,19.506l-77.177,185.269H793.029z"/>
	<path fill="#2D2C86" d="M290.969,457.755c-29.132,0-52.828-23.697-52.828-52.812h-35.21c0,48.541,39.498,88.029,88.038,88.029
		s88.029-39.488,88.029-88.029h-35.219C343.779,434.058,320.083,457.755,290.969,457.755z"/>
</g>
</svg>
