<svg xmlns="http://www.w3.org/2000/svg" xmlns:xlink="http://www.w3.org/1999/xlink" width="960" height="138" viewBox="0 0 960 138"><path fill-rule="evenodd" clip-rule="evenodd" d="M-1594.34 146.298v-20.63c0-14.314.07-28.625-.037-42.936-.082-10.252-4.16-16.724-11.624-19.01-8.26-2.52-17.72.662-22.496 9.08-2.996 5.276-5.262 11.625-5.61 17.62-.928 16.006-.644 32.082-.834 48.134-.024 2.433-.003 4.87-.003 7.7h-24.483V42.82h24.61v10.672c9.702-8.86 19.866-13.856 32-14.03 12.594-.177 22.64 4.628 29.854 15.387 12.913-14.85 29.083-18.29 47.15-13.546 13.49 3.54 21.485 13.965 21.963 30.277.722 24.737.19 49.514.19 74.674h-24.792v-5.327-53.4c0-1.394.007-2.793-.006-4.186-.108-10.713-4.287-17.752-11.883-20.02-8.608-2.566-19.197 1.133-23.735 9.963-2.984 5.812-4.757 12.792-5.055 19.338-.72 15.852-.26 31.754-.274 47.635-.004 1.895 0 3.786 0 6.042h-24.937zM-1271.363 146.356h-24.59v-5.474-52.32c0-.696.008-1.395 0-2.093-.14-14.883-6.122-22.554-18.237-23.37-12.938-.87-25.515 8.7-26.718 21.384-.953 10.028-.598 20.186-.71 30.288-.12 10.112-.098 20.228-.154 30.34-.003.312-.22.626-.448 1.237h-24.01V.014h24.402v52.547c2.078-1.508 3.268-2.322 4.406-3.2 12.804-9.848 27.175-12.222 42.497-8.123 13.514 3.618 22.537 14.546 23.01 29.08.72 22.298.42 44.628.552 66.95.012 2.932 0 5.86 0 9.086zM-1788.544 146.655h-30.358s-21.588-31.946-31.937-47.276c-4.688 4.985-9.158 9.543-13.338 14.35-.854.983-.837 2.913-.854 4.407-.067 9.242-.034 18.482-.034 28.12h-24.33V.003h24.202v81.89c2.136-1.83 3.418-2.797 4.562-3.918 11.1-10.862 36.26-35.47 36.26-35.47h30.8c-13.44 13.4-26.225 26.155-39.174 39.068 14.898 21.934 29.24 43.055 44.202 65.083zM-1457.178 42.87c0 6.974-.035 13.565.003 20.157.087 14.476-.298 28.98.47 43.424.66 12.372 6.623 18.2 17.355 19.1 11.615.972 21.74-5.307 24.504-16.03 1.46-5.68 2.086-11.694 2.188-17.572.287-16.195.1-32.404.1-49.028h24.815v103.404h-24.693v-9.764c-1.646 1.13-2.725 1.805-3.74 2.573-12.847 9.714-27.268 12.006-42.606 8.323-13.005-3.122-22.08-13.736-22.745-27.405-.838-17.235-.685-34.523-.877-51.79-.097-8.34-.02-16.688-.02-25.39h25.246zM-1225.762 146.368h-24.973V42.874h24.615l.702 10.73c10.103-11.17 22.282-15.003 36.175-13.923 16.242 1.258 27.972 12.264 28.655 28.518.84 20.028.447 40.108.57 60.162.035 5.9.005 11.798.005 17.99h-24.584v-5.467c0-17.446.02-34.894-.022-52.335-.008-2.605-.107-5.248-.544-7.806-1.763-10.344-6.152-15.54-13.886-16.73-9.628-1.48-18.956 3.026-22.746 12.03-2.05 4.863-3.347 10.376-3.52 15.646-.527 16.206-.35 32.44-.447 48.662-.007 1.883 0 3.765 0 6.018z"/><path d="M-2120 80h209v25h-209zM-1745.082 148.825c-14.89-2.414-26.69-9.856-34.43-22.79-11.57-19.335-12.29-39.42-2.185-59.58 6.05-12.076 15.73-20.38 28.687-24.446 12.95-4.064 25.898-3.715 38.547 1.33 14.75 5.88 25.188 16.18 29.994 31.423 5.234 16.59 4.126 32.967-4.008 48.47-7.5 14.29-19.42 22.88-35.4 25.6-3.402.58-12.842 1.84-21.204-.008zm10.77-21.958c10.812-.093 18.792-5.042 23.155-14.783 5.542-12.367 5.197-24.93-1.418-36.857-5.54-9.99-14.506-14.238-25.798-13.21-10.37.943-17.562 6.556-21.35 16.157-4.095 10.385-3.823 20.94.182 31.308 4.24 10.98 13.785 17.435 25.23 17.385z"/><g fill="#1EE29C"><path fill-rule="evenodd" clip-rule="evenodd" d="M-1060 0h117v469h-117z"/><path d="M-334.29 118.188c64.593 0 117.145 52.55 117.145 117.145 0 64.594-52.553 117.145-117.146 117.145s-117.146-52.55-117.146-117.145 52.55-117.145 117.145-117.145m0-117.145c-129.396 0-234.29 104.895-234.29 234.29 0 129.394 104.895 234.288 234.29 234.288C-204.9 469.62-100 364.728-100 235.333c0-129.394-104.9-234.29-234.29-234.29z"/><path fill-rule="evenodd" clip-rule="evenodd" d="M-638 469.62l-234.29-234.288L-638 1.042"/></g><g><defs><path id="a" d="M411.828.15H308.23l-.346.232v137.23h35.278V34.802l34.212 34.423 34.21-34.42V137.61h35.276V.382l-.502-.232z"/></defs><clipPath id="b"><use xlink:href="#a" overflow="visible"/></clipPath><g clip-path="url(#b)"><defs><path id="c" d="M-535.235-1681.22h2031.692v7054.487H-535.235z"/></defs><clipPath id="d"><use xlink:href="#c" overflow="visible"/></clipPath><path clip-path="url(#d)" fill="#2D2C86" d="M300.83-6.904h153.084v151.57H300.83z"/></g><defs><path id="e" d="M584.768 103.513h-69.49V.15h-34.21v137.462h137.909V.15h-34.208z"/></defs><clipPath id="f"><use xlink:href="#e" overflow="visible"/></clipPath><g clip-path="url(#f)"><defs><path id="g" d="M-535.235-1681.22h2031.692v7054.487H-535.235z"/></defs><clipPath id="h"><use xlink:href="#g" overflow="visible"/></clipPath><path clip-path="url(#h)" fill="#2D2C86" d="M474.015-6.904H626.03v151.57H474.016z"/></g><defs><path id="i" d="M754.745 49.168h-69.49V.15h-34.21V137.612h34.21V83.267h69.49v54.345h34.208V.15h-34.208z"/></defs><clipPath id="j"><use xlink:href="#i" overflow="visible"/></clipPath><g clip-path="url(#j)"><defs><path id="k" d="M-535.235-1681.22h2031.692v7054.487H-535.235z"/></defs><clipPath id="l"><use xlink:href="#k" overflow="visible"/></clipPath><path clip-path="url(#l)" fill="#2D2C86" d="M643.99-6.904H796.01v151.57H643.99z"/></g><g><defs><path id="m" d="M960 .15h-34.21v62.143L863.787.15h-34.21v137.462h34.21V98.184h62.005v39.428H960z"/></defs><clipPath id="n"><use xlink:href="#m" overflow="visible"/></clipPath><g clip-path="url(#n)"><defs><path id="o" d="M-535.235-1681.22h2031.692v7054.487H-535.235z"/></defs><clipPath id="p"><use xlink:href="#o" overflow="visible"/></clipPath><path clip-path="url(#p)" fill="#2D2C86" d="M822.522-6.904h146.17v151.57h-146.17z"/></g></g><g><defs><path id="q" d="M124.01 137.687V0L54.942 68.844z"/></defs><clipPath id="r"><use xlink:href="#q" overflow="visible"/></clipPath><g clip-path="url(#r)"><defs><path id="s" d="M-535.235-1681.22h2031.692v7054.487H-535.235z"/></defs><clipPath id="t"><use xlink:href="#s" overflow="visible"/></clipPath><path clip-path="url(#t)" fill="#2D2C86" d="M47.89-7.055h83.175V144.74H47.89z"/></g></g><g><defs><path id="u" d="M213.435 0C175.29 0 144.37 30.824 144.37 68.844c0 38.02 30.92 68.843 69.065 68.843 38.144 0 69.064-30.822 69.064-68.843C282.5 30.824 251.577 0 213.434 0m0 103.265c-19.043 0-34.535-15.442-34.535-34.42 0-18.982 15.492-34.422 34.535-34.422 19.04 0 34.532 15.44 34.532 34.42 0 18.98-15.49 34.422-34.532 34.422"/></defs><clipPath id="v"><use xlink:href="#u" overflow="visible"/></clipPath><g clip-path="url(#v)"><defs><path id="w" d="M-535.235-1681.22h2031.692v7054.487H-535.235z"/></defs><clipPath id="x"><use xlink:href="#w" overflow="visible"/></clipPath><path clip-path="url(#x)" fill="#2D2C86" d="M137.313-7.055h152.24V144.74h-152.24z"/></g></g><g><defs><path id="y" d="M0 .15h34.208v137.462H0z"/></defs><clipPath id="z"><use xlink:href="#y" overflow="visible"/></clipPath><g clip-path="url(#z)"><defs><path id="A" d="M-535.235-1681.22h2031.692v7054.487H-535.235z"/></defs><clipPath id="B"><use xlink:href="#A" overflow="visible"/></clipPath><path clip-path="url(#B)" fill="#2D2C86" d="M-7.055-6.904h48.318v151.57H-7.055z"/></g></g></g><path fill="#2D2C86" d="M1060 0h960v960h-960z"/><g fill="#1EE29C"><path fill-rule="evenodd" clip-rule="evenodd" d="M1220 323h82v311h-82z"/><path d="M1703.717 402.03c43.088 0 78.14 35.05 78.14 78.127 0 43.092-35.052 78.142-78.14 78.142-43.08 0-78.132-35.05-78.132-78.143 0-43.077 35.05-78.128 78.132-78.128m0-78.142c-86.31 0-156.274 69.96-156.274 156.27s69.964 156.285 156.274 156.285c86.316 0 156.283-69.976 156.283-156.285s-69.967-156.27-156.283-156.27z"/><path fill-rule="evenodd" clip-rule="evenodd" d="M1508 636.442l-156.278-156.285L1508 323.887"/></g></svg>