<?xml version="1.0" encoding="utf-8"?>
<!-- Generator: Adobe Illustrator 16.0.0, SVG Export Plug-In . SVG Version: 6.00 Build 0)  -->
<!DOCTYPE svg PUBLIC "-//W3C//DTD SVG 1.1//EN" "http://www.w3.org/Graphics/SVG/1.1/DTD/svg11.dtd">
<svg version="1.1" id="Layer_1" xmlns="http://www.w3.org/2000/svg" xmlns:xlink="http://www.w3.org/1999/xlink" x="0px" y="0px"
	 width="960px" height="138px" viewBox="0 0 960 138" enable-background="new 0 0 960 138" xml:space="preserve">
<g>
	<g>
		<path fill-rule="evenodd" clip-rule="evenodd" fill="#1EE29C" d="M-1731.661,192.551c0-9.332,0-18.244,0-27.153
			c0-18.839,0.092-37.675-0.047-56.51c-0.108-13.493-5.477-22.011-15.299-25.02c-10.871-3.316-23.322,0.872-29.607,11.952
			c-3.943,6.943-6.925,15.298-7.383,23.189c-1.223,21.067-0.849,42.224-1.099,63.352c-0.032,3.202-0.004,6.409-0.004,10.135
			c-10.794,0-21.22,0-32.223,0c0-45.178,0-90.446,0-136.137c10.763,0,21.224,0,32.392,0c0,4.199,0,8.232,0,14.046
			c12.768-11.66,26.146-18.237,42.116-18.464c16.575-0.234,29.797,6.091,39.293,20.251c16.996-19.544,38.278-24.073,62.059-17.828
			c17.754,4.661,28.277,18.381,28.906,39.85c0.948,32.557,0.246,65.167,0.246,98.281c-10.662,0-21.105,0-32.628,0
			c0-2.179,0-4.592,0-7.011c0-23.425,0-46.853,0-70.283c0-1.835,0.009-3.677-0.008-5.509c-0.143-14.101-5.643-23.366-15.64-26.35
			c-11.329-3.379-25.265,1.49-31.238,13.112c-3.928,7.65-6.261,16.835-6.653,25.452c-0.947,20.862-0.341,41.792-0.361,62.694
			c-0.005,2.494,0,4.982,0,7.951C-1709.719,192.551-1720.166,192.551-1731.661,192.551z"/>
	</g>
	<g>
		<path fill-rule="evenodd" clip-rule="evenodd" fill="#1EE29C" d="M-1306.572,192.628c-10.888,0-21.125,0-32.365,0
			c0-2.368,0-4.785,0-7.204c0-22.955,0-45.907,0-68.863c0-0.915,0.012-1.834,0-2.753c-0.183-19.587-8.056-29.684-24.002-30.755
			c-17.028-1.146-33.581,11.449-35.164,28.143c-1.255,13.199-0.787,26.567-0.936,39.864c-0.158,13.31-0.128,26.623-0.202,39.933
			c-0.004,0.41-0.288,0.824-0.59,1.628c-10.301,0-20.736,0-31.603,0c0-64.159,0-128.08,0-192.598c10.5,0,20.892,0,32.119,0
			c0,22.575,0,45.149,0,69.161c2.735-1.985,4.301-3.057,5.799-4.211c16.852-12.962,35.767-16.087,55.934-10.692
			c17.785,4.763,29.662,19.146,30.282,38.276c0.95,29.347,0.555,58.737,0.728,88.117
			C-1306.555,184.528-1306.572,188.383-1306.572,192.628z"/>
	</g>
	<g>
		<path fill-rule="evenodd" clip-rule="evenodd" fill="#1EE29C" d="M-1987.262,193.021c-13.19,0-39.957,0-39.957,0
			s-28.414-42.045-42.034-62.223c-6.171,6.563-12.054,12.562-17.556,18.889c-1.124,1.292-1.103,3.833-1.124,5.798
			c-0.088,12.164-0.044,24.325-0.044,37.011c-10.777,0-21.181,0-32.023,0c0-64.002,0-127.96,0-192.496c10.436,0,20.799,0,31.854,0
			c0,35.508,0,70.767,0,107.778c2.812-2.407,4.499-3.681,6.003-5.156c14.61-14.296,47.724-46.685,47.724-46.685s28.256,0,40.538,0
			c-17.688,17.637-34.516,34.425-51.56,51.421C-2025.831,136.23-2006.953,164.029-1987.262,193.021z"/>
	</g>
	<g>
		<path fill-rule="evenodd" clip-rule="evenodd" fill="#1EE29C" d="M-1551.133,56.424c0,9.177-0.046,17.853,0.004,26.529
			c0.114,19.053-0.392,38.14,0.619,57.153c0.868,16.282,8.716,23.952,22.842,25.137c15.287,1.28,28.612-6.984,32.251-21.099
			c1.921-7.473,2.745-15.39,2.88-23.126c0.378-21.315,0.133-42.648,0.133-64.528c11.087,0,21.684,0,32.659,0
			c0,45.376,0,90.519,0,136.095c-10.795,0-21.432,0-32.5,0c0-4.098,0-7.937,0-12.85c-2.166,1.486-3.586,2.375-4.923,3.387
			c-16.908,12.785-35.888,15.801-56.076,10.955c-17.117-4.109-29.062-18.079-29.937-36.07c-1.103-22.685-0.901-45.439-1.154-68.165
			c-0.127-10.979-0.024-21.963-0.024-33.418C-1573.222,56.424-1562.772,56.424-1551.133,56.424z"/>
	</g>
	<g>
		<path fill-rule="evenodd" clip-rule="evenodd" fill="#1EE29C" d="M-1246.553,192.643c-11.586,0-22.07,0-32.868,0
			c0-45.493,0-90.608,0-136.214c10.802,0,21.242,0,32.397,0c0.284,4.349,0.569,8.719,0.924,14.123
			c13.297-14.701,29.327-19.746,47.612-18.325c21.377,1.654,36.814,16.14,37.715,37.533c1.104,26.36,0.588,52.789,0.749,79.182
			c0.048,7.765,0.008,15.528,0.008,23.679c-10.871,0-21.118,0-32.356,0c0-2.36,0-4.777,0-7.196c0-22.962,0.025-45.925-0.029-68.882
			c-0.012-3.428-0.144-6.906-0.718-10.274c-2.32-13.615-8.098-20.453-18.275-22.02c-12.672-1.948-24.949,3.983-29.938,15.833
			c-2.698,6.402-4.405,13.658-4.633,20.595c-0.693,21.33-0.458,42.698-0.588,64.046
			C-1246.563,187.201-1246.553,189.678-1246.553,192.643z"/>
	</g>
	<g id="caBLst.tif_1_">
		<g>
			<path fill="#1EE29C" d="M-1930.06,195.877c-19.596-3.176-35.127-12.972-45.316-29.996c-15.226-25.447-16.172-51.882-2.874-78.416
				c7.964-15.893,20.703-26.823,37.756-32.174c17.043-5.347,34.086-4.888,50.734,1.751c19.411,7.74,33.152,21.298,39.477,41.359
				c6.887,21.836,5.428,43.389-5.276,63.794c-9.87,18.809-25.559,30.112-46.593,33.693
				C-1906.629,196.649-1919.054,198.31-1930.06,195.877z M-1915.883,166.977c14.229-0.122,24.731-6.635,30.475-19.457
				c7.293-16.276,6.84-32.812-1.867-48.509c-7.29-13.147-19.093-18.739-33.955-17.389c-13.65,1.242-23.114,8.63-28.099,21.267
				c-5.391,13.668-5.034,27.56,0.238,41.206C-1943.506,158.545-1930.946,167.042-1915.883,166.977z"/>
		</g>
	</g>
</g>
<g>
	<g>
		<path fill-rule="evenodd" clip-rule="evenodd" fill="#1EE29C" d="M-1594.341-62.702c0-7.09,0-13.862,0-20.63
			c0-14.314,0.07-28.625-0.036-42.936c-0.082-10.252-4.161-16.724-11.624-19.01c-8.26-2.52-17.72,0.662-22.495,9.081
			c-2.996,5.275-5.262,11.624-5.609,17.619c-0.929,16.006-0.645,32.082-0.835,48.134c-0.024,2.433-0.003,4.869-0.003,7.7
			c-8.201,0-16.123,0-24.483,0c0-34.326,0-68.72,0-103.436c8.177,0,16.126,0,24.611,0c0,3.19,0,6.255,0,10.672
			c9.701-8.859,19.865-13.856,31.999-14.029c12.594-0.178,22.64,4.627,29.854,15.386c12.913-14.849,29.083-18.29,47.151-13.545
			c13.489,3.541,21.484,13.965,21.962,30.277c0.721,24.736,0.188,49.513,0.188,74.673c-8.102,0-16.036,0-24.791,0
			c0-1.656,0-3.489,0-5.327c0-17.798,0-35.598,0-53.4c0-1.394,0.007-2.793-0.006-4.186c-0.108-10.714-4.287-17.753-11.883-20.02
			c-8.607-2.567-19.196,1.132-23.734,9.962c-2.984,5.812-4.757,12.792-5.055,19.338c-0.72,15.851-0.259,31.753-0.274,47.634
			c-0.004,1.895,0,3.786,0,6.042C-1577.67-62.702-1585.607-62.702-1594.341-62.702z"/>
	</g>
	<g>
		<path fill-rule="evenodd" clip-rule="evenodd" fill="#1EE29C" d="M-1271.363-62.644c-8.272,0-16.051,0-24.591,0
			c0-1.799,0-3.635,0-5.474c0-17.44,0-34.879,0-52.321c0-0.695,0.009-1.394,0-2.092c-0.139-14.882-6.121-22.553-18.236-23.368
			c-12.938-0.871-25.515,8.699-26.718,21.383c-0.953,10.028-0.598,20.186-0.711,30.288c-0.12,10.112-0.097,20.228-0.153,30.34
			c-0.003,0.312-0.219,0.626-0.448,1.237c-7.826,0-15.755,0-24.011,0c0-48.747,0-97.314,0-146.334c7.978,0,15.873,0,24.403,0
			c0,17.152,0,34.304,0,52.547c2.078-1.508,3.268-2.322,4.406-3.199c12.804-9.849,27.175-12.223,42.497-8.124
			c13.514,3.619,22.537,14.547,23.009,29.082c0.722,22.297,0.421,44.627,0.553,66.95
			C-1271.351-68.798-1271.363-65.869-1271.363-62.644z"/>
	</g>
	<g>
		<path fill-rule="evenodd" clip-rule="evenodd" fill="#1EE29C" d="M-1788.544-62.345c-10.021,0-30.358,0-30.358,0
			s-21.588-31.946-31.937-47.276c-4.689,4.986-9.159,9.544-13.339,14.352c-0.854,0.982-0.837,2.912-0.854,4.406
			c-0.067,9.242-0.034,18.482-0.034,28.121c-8.188,0-16.093,0-24.331,0c0-48.628,0-97.223,0-146.256c7.929,0,15.803,0,24.203,0
			c0,26.979,0,53.768,0,81.889c2.136-1.829,3.418-2.796,4.562-3.917c11.101-10.862,36.26-35.471,36.26-35.471s21.468,0,30.8,0
			c-13.439,13.4-26.225,26.156-39.174,39.069C-1817.848-105.494-1803.505-84.373-1788.544-62.345z"/>
	</g>
	<g>
		<path fill-rule="evenodd" clip-rule="evenodd" fill="#1EE29C" d="M-1457.178-166.129c0,6.973-0.035,13.564,0.003,20.156
			c0.087,14.476-0.298,28.979,0.471,43.424c0.659,12.371,6.622,18.198,17.354,19.099c11.615,0.972,21.739-5.307,24.504-16.031
			c1.46-5.678,2.086-11.693,2.188-17.571c0.287-16.195,0.101-32.404,0.101-49.028c8.424,0,16.475,0,24.814,0
			c0,34.477,0,68.775,0,103.404c-8.202,0-16.284,0-24.693,0c0-3.114,0-6.03,0-9.764c-1.646,1.129-2.725,1.805-3.74,2.573
			c-12.847,9.714-27.268,12.006-42.606,8.323c-13.005-3.122-22.08-13.736-22.745-27.405c-0.838-17.236-0.685-34.524-0.877-51.791
			c-0.097-8.341-0.019-16.688-0.019-25.391C-1473.961-166.129-1466.021-166.129-1457.178-166.129z"/>
	</g>
	<g>
		<path fill-rule="evenodd" clip-rule="evenodd" fill="#1EE29C" d="M-1225.762-62.632c-8.803,0-16.769,0-24.973,0
			c0-34.565,0-68.843,0-103.494c8.207,0,16.14,0,24.615,0c0.216,3.304,0.433,6.625,0.702,10.73
			c10.103-11.17,22.282-15.003,36.175-13.923c16.242,1.257,27.972,12.263,28.655,28.517c0.84,20.028,0.447,40.108,0.569,60.162
			c0.036,5.9,0.006,11.798,0.006,17.991c-8.26,0-16.045,0-24.584,0c0-1.793,0-3.629,0-5.468c0-17.446,0.02-34.894-0.022-52.335
			c-0.009-2.605-0.108-5.248-0.545-7.806c-1.763-10.344-6.152-15.54-13.886-16.73c-9.628-1.48-18.956,3.026-22.746,12.029
			c-2.05,4.864-3.347,10.377-3.52,15.647c-0.527,16.206-0.349,32.441-0.447,48.662C-1225.77-66.767-1225.762-64.885-1225.762-62.632
			z"/>
	</g>
	<g>
		<rect x="-2120" y="-129" fill="#1EE29C" width="209" height="25"/>
	</g>
	<g id="caBLst.tif_2_">
		<g>
			<path fill="#1EE29C" d="M-1745.082-60.175c-14.889-2.414-26.689-9.856-34.431-22.791c-11.569-19.334-12.288-39.419-2.184-59.58
				c6.051-12.075,15.73-20.38,28.687-24.445c12.949-4.063,25.898-3.714,38.547,1.33c14.749,5.881,25.188,16.182,29.994,31.424
				c5.233,16.591,4.125,32.967-4.009,48.47c-7.499,14.291-19.419,22.879-35.401,25.6
				C-1727.28-59.588-1736.72-58.326-1745.082-60.175z M-1734.311-82.133c10.811-0.093,18.791-5.042,23.154-14.783
				c5.542-12.367,5.197-24.931-1.418-36.857c-5.539-9.989-14.506-14.238-25.798-13.211c-10.371,0.944-17.562,6.557-21.349,16.158
				c-4.096,10.385-3.824,20.939,0.181,31.308C-1755.299-88.539-1745.755-82.083-1734.311-82.133z"/>
		</g>
	</g>
</g>
<g>
	<rect x="-1060" fill-rule="evenodd" clip-rule="evenodd" fill="#1EE29C" width="117" height="469"/>
	<path fill="#1EE29C" d="M-334.291,118.188c64.594,0,117.146,52.55,117.146,117.145c0,64.594-52.553,117.145-117.146,117.145
		s-117.145-52.551-117.145-117.145C-451.436,170.738-398.885,118.188-334.291,118.188 M-334.291,1.043
		c-129.395,0-234.288,104.895-234.288,234.289c0,129.395,104.894,234.289,234.288,234.289C-204.899,469.621-100,364.727-100,235.332
		C-100,105.938-204.899,1.043-334.291,1.043L-334.291,1.043z"/>
	<polygon fill-rule="evenodd" clip-rule="evenodd" fill="#1EE29C" points="-638,469.621 -872.289,235.332 -638,1.043 	"/>
</g>
<g>
	<g>
		<defs>
			<polygon id="SVGID_1_" points="411.828,0.15 342.761,0.15 308.229,0.15 307.884,0.382 307.884,137.612 343.162,137.612 
				343.162,34.802 377.374,69.225 411.583,34.804 411.583,137.612 446.86,137.612 446.86,0.383 446.86,0.382 446.358,0.15 			"/>
		</defs>
		<use xlink:href="#SVGID_1_"  overflow="visible" fill-rule="evenodd" clip-rule="evenodd" fill="#FB4D5B"/>
		<clipPath id="SVGID_2_">
			<use xlink:href="#SVGID_1_"  overflow="visible"/>
		</clipPath>
		<g clip-path="url(#SVGID_2_)">
			<defs>
				<rect id="SVGID_3_" x="-535.235" y="-1681.219" width="2031.692" height="7054.486"/>
			</defs>
			<use xlink:href="#SVGID_3_"  overflow="visible" fill="#FB4D5B"/>
			<clipPath id="SVGID_4_">
				<use xlink:href="#SVGID_3_"  overflow="visible"/>
			</clipPath>
			<rect x="300.829" y="-6.904" clip-path="url(#SVGID_4_)" fill="#FB4D5B" width="153.085" height="151.571"/>
		</g>
	</g>
	<g>
		<defs>
			<polygon id="SVGID_5_" points="584.768,103.513 515.278,103.513 515.278,0.15 481.069,0.15 481.069,103.647 481.069,137.612 
				515.427,137.612 584.491,137.612 618.976,137.612 618.976,103.647 618.976,0.15 584.768,0.15 			"/>
		</defs>
		<use xlink:href="#SVGID_5_"  overflow="visible" fill-rule="evenodd" clip-rule="evenodd" fill="#FB4D5B"/>
		<clipPath id="SVGID_6_">
			<use xlink:href="#SVGID_5_"  overflow="visible"/>
		</clipPath>
		<g clip-path="url(#SVGID_6_)">
			<defs>
				<rect id="SVGID_7_" x="-535.235" y="-1681.219" width="2031.692" height="7054.486"/>
			</defs>
			<use xlink:href="#SVGID_7_"  overflow="visible" fill="#FB4D5B"/>
			<clipPath id="SVGID_8_">
				<use xlink:href="#SVGID_7_"  overflow="visible"/>
			</clipPath>
			<rect x="474.015" y="-6.904" clip-path="url(#SVGID_8_)" fill="#FB4D5B" width="152.016" height="151.571"/>
		</g>
	</g>
	<g>
		<defs>
			<polygon id="SVGID_9_" points="754.745,49.168 685.255,49.168 685.255,0.15 651.046,0.15 651.046,49.262 651.046,83.683 
				651.046,137.612 685.255,137.612 685.255,83.267 754.745,83.267 754.745,137.612 788.953,137.612 788.953,83.683 788.953,49.262 
				788.953,0.15 754.745,0.15 			"/>
		</defs>
		<use xlink:href="#SVGID_9_"  overflow="visible" fill-rule="evenodd" clip-rule="evenodd" fill="#FB4D5B"/>
		<clipPath id="SVGID_10_">
			<use xlink:href="#SVGID_9_"  overflow="visible"/>
		</clipPath>
		<g clip-path="url(#SVGID_10_)">
			<defs>
				<rect id="SVGID_11_" x="-535.235" y="-1681.219" width="2031.692" height="7054.486"/>
			</defs>
			<use xlink:href="#SVGID_11_"  overflow="visible" fill="#FB4D5B"/>
			<clipPath id="SVGID_12_">
				<use xlink:href="#SVGID_11_"  overflow="visible"/>
			</clipPath>
			<rect x="643.991" y="-6.904" clip-path="url(#SVGID_12_)" fill="#FB4D5B" width="152.017" height="151.571"/>
		</g>
	</g>
	<g>
		<defs>
			<polygon id="SVGID_13_" points="960,0.15 925.791,0.15 925.791,62.293 863.786,0.15 829.577,0.15 829.577,137.612 
				863.786,137.612 863.786,98.184 925.791,98.184 925.791,137.612 960,137.612 			"/>
		</defs>
		<use xlink:href="#SVGID_13_"  overflow="visible" fill-rule="evenodd" clip-rule="evenodd" fill="#FB4D5B"/>
		<clipPath id="SVGID_14_">
			<use xlink:href="#SVGID_13_"  overflow="visible"/>
		</clipPath>
		<g clip-path="url(#SVGID_14_)">
			<defs>
				<rect id="SVGID_15_" x="-535.235" y="-1681.219" width="2031.692" height="7054.486"/>
			</defs>
			<use xlink:href="#SVGID_15_"  overflow="visible" fill="#FB4D5B"/>
			<clipPath id="SVGID_16_">
				<use xlink:href="#SVGID_15_"  overflow="visible"/>
			</clipPath>
			<rect x="822.522" y="-6.904" clip-path="url(#SVGID_16_)" fill="#FB4D5B" width="146.171" height="151.571"/>
		</g>
	</g>
	<g>
		<defs>
			<polygon id="SVGID_17_" points="124.01,137.687 124.01,0 54.942,68.844 			"/>
		</defs>
		<use xlink:href="#SVGID_17_"  overflow="visible" fill-rule="evenodd" clip-rule="evenodd" fill="#FB4D5B"/>
		<clipPath id="SVGID_18_">
			<use xlink:href="#SVGID_17_"  overflow="visible"/>
		</clipPath>
		<g clip-path="url(#SVGID_18_)">
			<defs>
				<rect id="SVGID_19_" x="-535.235" y="-1681.219" width="2031.692" height="7054.486"/>
			</defs>
			<use xlink:href="#SVGID_19_"  overflow="visible" fill="#FB4D5B"/>
			<clipPath id="SVGID_20_">
				<use xlink:href="#SVGID_19_"  overflow="visible"/>
			</clipPath>
			<rect x="47.889" y="-7.055" clip-path="url(#SVGID_20_)" fill="#FB4D5B" width="83.176" height="151.796"/>
		</g>
	</g>
	<g>
		<defs>
			<path id="SVGID_21_" d="M213.435,0c-38.145,0-69.065,30.824-69.065,68.844c0,38.021,30.921,68.843,69.065,68.843
				c38.144,0,69.064-30.822,69.064-68.843C282.499,30.824,251.578,0,213.435,0 M213.435,103.265
				c-19.043,0-34.535-15.442-34.535-34.421c0-18.981,15.492-34.421,34.535-34.421c19.041,0,34.532,15.44,34.532,34.421
				C247.967,87.823,232.476,103.265,213.435,103.265"/>
		</defs>
		<use xlink:href="#SVGID_21_"  overflow="visible" fill-rule="evenodd" clip-rule="evenodd" fill="#FB4D5B"/>
		<clipPath id="SVGID_22_">
			<use xlink:href="#SVGID_21_"  overflow="visible"/>
		</clipPath>
		<g clip-path="url(#SVGID_22_)">
			<defs>
				<rect id="SVGID_23_" x="-535.235" y="-1681.219" width="2031.692" height="7054.486"/>
			</defs>
			<use xlink:href="#SVGID_23_"  overflow="visible" fill="#FB4D5B"/>
			<clipPath id="SVGID_24_">
				<use xlink:href="#SVGID_23_"  overflow="visible"/>
			</clipPath>
			<rect x="137.313" y="-7.055" clip-path="url(#SVGID_24_)" fill="#FB4D5B" width="152.24" height="151.796"/>
		</g>
	</g>
	<g>
		<defs>
			<rect id="SVGID_25_" y="0.15" width="34.208" height="137.462"/>
		</defs>
		<use xlink:href="#SVGID_25_"  overflow="visible" fill-rule="evenodd" clip-rule="evenodd" fill="#FB4D5B"/>
		<clipPath id="SVGID_26_">
			<use xlink:href="#SVGID_25_"  overflow="visible"/>
		</clipPath>
		<g clip-path="url(#SVGID_26_)">
			<defs>
				<rect id="SVGID_27_" x="-535.235" y="-1681.219" width="2031.692" height="7054.486"/>
			</defs>
			<use xlink:href="#SVGID_27_"  overflow="visible" fill="#FB4D5B"/>
			<clipPath id="SVGID_28_">
				<use xlink:href="#SVGID_27_"  overflow="visible"/>
			</clipPath>
			<rect x="-7.055" y="-6.904" clip-path="url(#SVGID_28_)" fill="#FB4D5B" width="48.318" height="151.571"/>
		</g>
	</g>
</g>
<rect x="1060" fill="#2D2C86" width="960" height="960"/>
<g>
	<rect x="1220" y="323" fill-rule="evenodd" clip-rule="evenodd" fill="#1EE29C" width="82" height="311"/>
	<path fill="#1EE29C" d="M1703.717,402.029c43.088,0,78.141,35.051,78.141,78.128c0,43.092-35.053,78.142-78.141,78.142
		c-43.081,0-78.132-35.05-78.132-78.142C1625.585,437.08,1660.636,402.029,1703.717,402.029 M1703.717,323.888
		c-86.311,0-156.274,69.96-156.274,156.27s69.964,156.285,156.274,156.285c86.316,0,156.283-69.976,156.283-156.285
		S1790.033,323.888,1703.717,323.888L1703.717,323.888z"/>
	<polygon fill-rule="evenodd" clip-rule="evenodd" fill="#1EE29C" points="1508,636.442 1351.722,480.157 1508,323.888 	"/>
</g>
</svg>
