<svg xmlns="http://www.w3.org/2000/svg" width="960" height="470" viewBox="0 0 960 470"><style>.a{fill:#1EE29C;}</style><rect width="117" height="469" class="a"/><path d="M725.7 118.2c64.6 0 117.1 52.6 117.1 117.1 0 64.6-52.6 117.1-117.1 117.1s-117.1-52.6-117.1-117.1C608.6 170.7 661.1 118.2 725.7 118.2M725.7 1c-129.4 0-234.3 104.9-234.3 234.3 0 129.4 104.9 234.3 234.3 234.3C855.1 469.6 960 364.7 960 235.3 960 105.9 855.1 1 725.7 1L725.7 1z" class="a"/><polygon points="422 469.6 187.7 235.3 422 1 " class="a"/></svg>