<svg xmlns="http://www.w3.org/2000/svg" width="960" height="150" viewBox="0 0 960 150"><path d="M525.7 146.3c0-7.1 0-13.9 0-20.6 0-14.3 0.1-28.6 0-42.9 -0.1-10.3-4.2-16.7-11.6-19 -8.3-2.5-17.7 0.7-22.5 9.1 -3 5.3-5.3 11.6-5.6 17.6 -0.9 16-0.6 32.1-0.8 48.1 0 2.4 0 4.9 0 7.7 -8.2 0-16.1 0-24.5 0 0-34.3 0-68.7 0-103.4 8.2 0 16.1 0 24.6 0 0 3.2 0 6.3 0 10.7 9.7-8.9 19.9-13.9 32-14 12.6-0.2 22.6 4.6 29.9 15.4 12.9-14.8 29.1-18.3 47.2-13.5 13.5 3.5 21.5 14 22 30.3 0.7 24.7 0.2 49.5 0.2 74.7 -8.1 0-16 0-24.8 0 0-1.7 0-3.5 0-5.3 0-17.8 0-35.6 0-53.4 0-1.4 0-2.8 0-4.2 -0.1-10.7-4.3-17.8-11.9-20 -8.6-2.6-19.2 1.1-23.7 10 -3 5.8-4.8 12.8-5.1 19.3 -0.7 15.9-0.3 31.8-0.3 47.6 0 1.9 0 3.8 0 6C542.3 146.3 534.4 146.3 525.7 146.3z"/><path d="M848.6 146.4c-8.3 0-16.1 0-24.6 0 0-1.8 0-3.6 0-5.5 0-17.4 0-34.9 0-52.3 0-0.7 0-1.4 0-2.1 -0.1-14.9-6.1-22.6-18.2-23.4 -12.9-0.9-25.5 8.7-26.7 21.4 -1 10-0.6 20.2-0.7 30.3 -0.1 10.1-0.1 20.2-0.2 30.3 0 0.3-0.2 0.6-0.4 1.2 -7.8 0-15.8 0-24 0 0-48.7 0-97.3 0-146.3 8 0 15.9 0 24.4 0 0 17.2 0 34.3 0 52.5 2.1-1.5 3.3-2.3 4.4-3.2 12.8-9.8 27.2-12.2 42.5-8.1 13.5 3.6 22.5 14.5 23 29.1 0.7 22.3 0.4 44.6 0.6 67C848.6 140.2 848.6 143.1 848.6 146.4z"/><path d="M331.5 146.7c-10 0-30.4 0-30.4 0s-21.6-31.9-31.9-47.3c-4.7 5-9.2 9.5-13.3 14.4 -0.9 1-0.8 2.9-0.9 4.4 -0.1 9.2 0 18.5 0 28.1 -8.2 0-16.1 0-24.3 0 0-48.6 0-97.2 0-146.3 7.9 0 15.8 0 24.2 0 0 27 0 53.8 0 81.9 2.1-1.8 3.4-2.8 4.6-3.9 11.1-10.9 36.3-35.5 36.3-35.5s21.5 0 30.8 0c-13.4 13.4-26.2 26.2-39.2 39.1C302.2 103.5 316.5 124.6 331.5 146.7z"/><path d="M662.8 42.9c0 7 0 13.6 0 20.2 0.1 14.5-0.3 29 0.5 43.4 0.7 12.4 6.6 18.2 17.4 19.1 11.6 1 21.7-5.3 24.5-16 1.5-5.7 2.1-11.7 2.2-17.6 0.3-16.2 0.1-32.4 0.1-49 8.4 0 16.5 0 24.8 0 0 34.5 0 68.8 0 103.4 -8.2 0-16.3 0-24.7 0 0-3.1 0-6 0-9.8 -1.6 1.1-2.7 1.8-3.7 2.6 -12.8 9.7-27.3 12-42.6 8.3 -13-3.1-22.1-13.7-22.7-27.4 -0.8-17.2-0.7-34.5-0.9-51.8 -0.1-8.3 0-16.7 0-25.4C646 42.9 654 42.9 662.8 42.9z"/><path d="M894.2 146.4c-8.8 0-16.8 0-25 0 0-34.6 0-68.8 0-103.5 8.2 0 16.1 0 24.6 0 0.2 3.3 0.4 6.6 0.7 10.7 10.1-11.2 22.3-15 36.2-13.9 16.2 1.3 28 12.3 28.7 28.5 0.8 20 0.4 40.1 0.6 60.2 0 5.9 0 11.8 0 18 -8.3 0-16 0-24.6 0 0-1.8 0-3.6 0-5.5 0-17.4 0-34.9 0-52.3 0-2.6-0.1-5.2-0.5-7.8 -1.8-10.3-6.2-15.5-13.9-16.7 -9.6-1.5-19 3-22.7 12 -2 4.9-3.3 10.4-3.5 15.6 -0.5 16.2-0.3 32.4-0.4 48.7C894.2 142.2 894.2 144.1 894.2 146.4z"/><rect y="80" width="209" height="25"/><path d="M374.9 148.8c-14.9-2.4-26.7-9.9-34.4-22.8 -11.6-19.3-12.3-39.4-2.2-59.6 6.1-12.1 15.7-20.4 28.7-24.4 12.9-4.1 25.9-3.7 38.5 1.3 14.7 5.9 25.2 16.2 30 31.4 5.2 16.6 4.1 33-4 48.5 -7.5 14.3-19.4 22.9-35.4 25.6C392.7 149.4 383.3 150.7 374.9 148.8zM385.7 126.9c10.8-0.1 18.8-5 23.2-14.8 5.5-12.4 5.2-24.9-1.4-36.9 -5.5-10-14.5-14.2-25.8-13.2 -10.4 0.9-17.6 6.6-21.3 16.2 -4.1 10.4-3.8 20.9 0.2 31.3C364.7 120.5 374.2 126.9 385.7 126.9z"/></svg>