<?xml version="1.0" encoding="utf-8"?>
<!-- Generator: Adobe Illustrator 16.0.0, SVG Export Plug-In . SVG Version: 6.00 Build 0)  -->
<!DOCTYPE svg PUBLIC "-//W3C//DTD SVG 1.1//EN" "http://www.w3.org/Graphics/SVG/1.1/DTD/svg11.dtd">
<svg version="1.1" id="Layer_1" xmlns="http://www.w3.org/2000/svg" xmlns:xlink="http://www.w3.org/1999/xlink" x="0px" y="0px"
	 width="960px" height="138px" viewBox="0 0 960 138" enable-background="new 0 0 960 138" xml:space="preserve">
<g>
	<g>
		<defs>
			<polygon id="SVGID_1_" points="411.828,0.15 342.761,0.15 308.229,0.15 307.884,0.382 307.884,137.612 343.162,137.612 
				343.162,34.802 377.374,69.225 411.583,34.804 411.583,137.612 446.86,137.612 446.86,0.383 446.86,0.382 446.358,0.15 			"/>
		</defs>
		<use xlink:href="#SVGID_1_"  overflow="visible" fill-rule="evenodd" clip-rule="evenodd" fill="#1EE29C"/>
		<clipPath id="SVGID_2_">
			<use xlink:href="#SVGID_1_"  overflow="visible"/>
		</clipPath>
		<g clip-path="url(#SVGID_2_)">
			<defs>
				<rect id="SVGID_3_" x="-535.235" y="-1681.219" width="2031.692" height="7054.486"/>
			</defs>
			<use xlink:href="#SVGID_3_"  overflow="visible" fill="#1EE29C"/>
			<clipPath id="SVGID_4_">
				<use xlink:href="#SVGID_3_"  overflow="visible"/>
			</clipPath>
			<rect x="300.829" y="-6.904" clip-path="url(#SVGID_4_)" fill="#1EE29C" width="153.085" height="151.571"/>
		</g>
	</g>
	<g>
		<defs>
			<polygon id="SVGID_5_" points="584.768,103.513 515.278,103.513 515.278,0.15 481.069,0.15 481.069,103.647 481.069,137.612 
				515.427,137.612 584.491,137.612 618.976,137.612 618.976,103.647 618.976,0.15 584.768,0.15 			"/>
		</defs>
		<use xlink:href="#SVGID_5_"  overflow="visible" fill-rule="evenodd" clip-rule="evenodd" fill="#1EE29C"/>
		<clipPath id="SVGID_6_">
			<use xlink:href="#SVGID_5_"  overflow="visible"/>
		</clipPath>
		<g clip-path="url(#SVGID_6_)">
			<defs>
				<rect id="SVGID_7_" x="-535.235" y="-1681.219" width="2031.692" height="7054.486"/>
			</defs>
			<use xlink:href="#SVGID_7_"  overflow="visible" fill="#1EE29C"/>
			<clipPath id="SVGID_8_">
				<use xlink:href="#SVGID_7_"  overflow="visible"/>
			</clipPath>
			<rect x="474.015" y="-6.904" clip-path="url(#SVGID_8_)" fill="#1EE29C" width="152.016" height="151.571"/>
		</g>
	</g>
	<g>
		<defs>
			<polygon id="SVGID_9_" points="754.745,49.168 685.255,49.168 685.255,0.15 651.046,0.15 651.046,49.262 651.046,83.683 
				651.046,137.612 685.255,137.612 685.255,83.267 754.745,83.267 754.745,137.612 788.953,137.612 788.953,83.683 788.953,49.262 
				788.953,0.15 754.745,0.15 			"/>
		</defs>
		<use xlink:href="#SVGID_9_"  overflow="visible" fill-rule="evenodd" clip-rule="evenodd" fill="#1EE29C"/>
		<clipPath id="SVGID_10_">
			<use xlink:href="#SVGID_9_"  overflow="visible"/>
		</clipPath>
		<g clip-path="url(#SVGID_10_)">
			<defs>
				<rect id="SVGID_11_" x="-535.235" y="-1681.219" width="2031.692" height="7054.486"/>
			</defs>
			<use xlink:href="#SVGID_11_"  overflow="visible" fill="#1EE29C"/>
			<clipPath id="SVGID_12_">
				<use xlink:href="#SVGID_11_"  overflow="visible"/>
			</clipPath>
			<rect x="643.991" y="-6.904" clip-path="url(#SVGID_12_)" fill="#1EE29C" width="152.017" height="151.571"/>
		</g>
	</g>
	<g>
		<defs>
			<polygon id="SVGID_13_" points="960,0.15 925.791,0.15 925.791,62.293 863.786,0.15 829.577,0.15 829.577,137.612 
				863.786,137.612 863.786,98.184 925.791,98.184 925.791,137.612 960,137.612 			"/>
		</defs>
		<use xlink:href="#SVGID_13_"  overflow="visible" fill-rule="evenodd" clip-rule="evenodd" fill="#1EE29C"/>
		<clipPath id="SVGID_14_">
			<use xlink:href="#SVGID_13_"  overflow="visible"/>
		</clipPath>
		<g clip-path="url(#SVGID_14_)">
			<defs>
				<rect id="SVGID_15_" x="-535.235" y="-1681.219" width="2031.692" height="7054.486"/>
			</defs>
			<use xlink:href="#SVGID_15_"  overflow="visible" fill="#1EE29C"/>
			<clipPath id="SVGID_16_">
				<use xlink:href="#SVGID_15_"  overflow="visible"/>
			</clipPath>
			<rect x="822.522" y="-6.904" clip-path="url(#SVGID_16_)" fill="#1EE29C" width="146.171" height="151.571"/>
		</g>
	</g>
	<g>
		<defs>
			<polygon id="SVGID_17_" points="124.01,137.687 124.01,0 54.942,68.844 			"/>
		</defs>
		<use xlink:href="#SVGID_17_"  overflow="visible" fill-rule="evenodd" clip-rule="evenodd" fill="#1EE29C"/>
		<clipPath id="SVGID_18_">
			<use xlink:href="#SVGID_17_"  overflow="visible"/>
		</clipPath>
		<g clip-path="url(#SVGID_18_)">
			<defs>
				<rect id="SVGID_19_" x="-535.235" y="-1681.219" width="2031.692" height="7054.486"/>
			</defs>
			<use xlink:href="#SVGID_19_"  overflow="visible" fill="#1EE29C"/>
			<clipPath id="SVGID_20_">
				<use xlink:href="#SVGID_19_"  overflow="visible"/>
			</clipPath>
			<rect x="47.889" y="-7.055" clip-path="url(#SVGID_20_)" fill="#1EE29C" width="83.176" height="151.796"/>
		</g>
	</g>
	<g>
		<defs>
			<path id="SVGID_21_" d="M213.435,0c-38.145,0-69.065,30.824-69.065,68.844c0,38.021,30.921,68.843,69.065,68.843
				c38.144,0,69.064-30.822,69.064-68.843C282.499,30.824,251.578,0,213.435,0 M213.435,103.265
				c-19.043,0-34.535-15.442-34.535-34.421c0-18.981,15.492-34.421,34.535-34.421c19.041,0,34.532,15.44,34.532,34.421
				C247.967,87.823,232.476,103.265,213.435,103.265"/>
		</defs>
		<use xlink:href="#SVGID_21_"  overflow="visible" fill-rule="evenodd" clip-rule="evenodd" fill="#1EE29C"/>
		<clipPath id="SVGID_22_">
			<use xlink:href="#SVGID_21_"  overflow="visible"/>
		</clipPath>
		<g clip-path="url(#SVGID_22_)">
			<defs>
				<rect id="SVGID_23_" x="-535.235" y="-1681.219" width="2031.692" height="7054.486"/>
			</defs>
			<use xlink:href="#SVGID_23_"  overflow="visible" fill="#1EE29C"/>
			<clipPath id="SVGID_24_">
				<use xlink:href="#SVGID_23_"  overflow="visible"/>
			</clipPath>
			<rect x="137.313" y="-7.055" clip-path="url(#SVGID_24_)" fill="#1EE29C" width="152.24" height="151.796"/>
		</g>
	</g>
	<g>
		<defs>
			<rect id="SVGID_25_" y="0.15" width="34.208" height="137.462"/>
		</defs>
		<use xlink:href="#SVGID_25_"  overflow="visible" fill-rule="evenodd" clip-rule="evenodd" fill="#1EE29C"/>
		<clipPath id="SVGID_26_">
			<use xlink:href="#SVGID_25_"  overflow="visible"/>
		</clipPath>
		<g clip-path="url(#SVGID_26_)">
			<defs>
				<rect id="SVGID_27_" x="-535.235" y="-1681.219" width="2031.692" height="7054.486"/>
			</defs>
			<use xlink:href="#SVGID_27_"  overflow="visible" fill="#1EE29C"/>
			<clipPath id="SVGID_28_">
				<use xlink:href="#SVGID_27_"  overflow="visible"/>
			</clipPath>
			<rect x="-7.055" y="-6.904" clip-path="url(#SVGID_28_)" fill="#1EE29C" width="48.318" height="151.571"/>
		</g>
	</g>
</g>
</svg>
