<svg width="640" height="413" viewBox="0 0 640 413" fill="none" xmlns="http://www.w3.org/2000/svg">
<path d="M201.741 29.9378L87.5172 144.589L87.5172 144.587L87.5173 1.5302e-05L1.52588e-05 0L5.13144e-06 57.9217L-1.62981e-05 180.485L-1.62985e-05 180.487L-2.51749e-05 231.254L-2.51751e-05 231.255L-4.22948e-05 329.168L-5.68792e-05 412.581L87.5172 412.581L87.5172 267.154L87.5172 267.152L201.741 381.8L262.81 320.519L148.055 205.869L262.864 91.2203L201.741 29.9378Z" fill="white"/>
<path d="M466.665 33.3106C370.938 33.3106 293.336 110.912 293.336 206.641C293.336 302.371 370.938 379.973 466.665 379.973C562.392 379.973 640 302.371 640 206.641C640 110.912 562.392 33.3106 466.665 33.3106ZM466.665 293.306C418.877 293.306 380 254.429 380 206.641C380 158.854 418.877 119.977 466.665 119.977C514.453 119.977 553.332 158.854 553.332 206.641C553.332 254.429 514.453 293.306 466.665 293.306Z" fill="white"/>
</svg>
