<?xml version="1.0" encoding="utf-8"?>
<!-- Generator: Adobe Illustrator 16.0.0, SVG Export Plug-In . SVG Version: 6.00 Build 0)  -->
<!DOCTYPE svg PUBLIC "-//W3C//DTD SVG 1.1//EN" "http://www.w3.org/Graphics/SVG/1.1/DTD/svg11.dtd">
<svg version="1.1" id="Layer_1" xmlns="http://www.w3.org/2000/svg" xmlns:xlink="http://www.w3.org/1999/xlink" x="0px" y="0px"
	 width="960px" height="256px" viewBox="0 0 960 256" enable-background="new 0 0 960 256" xml:space="preserve">
<g>
	<g>
		<defs>
			<polygon id="SVGID_37_" points="2158.698,1019.365 2089.208,1019.365 2089.208,970.348 2054.999,970.348 2054.999,1019.459 
				2054.999,1053.881 2054.999,1107.811 2089.208,1107.811 2089.208,1053.465 2158.698,1053.465 2158.698,1107.811 
				2192.906,1107.811 2192.906,1053.881 2192.906,1019.459 2192.906,970.348 2158.698,970.348 			"/>
		</defs>
		<use xlink:href="#SVGID_37_"  overflow="visible" fill-rule="evenodd" clip-rule="evenodd" fill="#FB4D5B"/>
		<clipPath id="SVGID_2_">
			<use xlink:href="#SVGID_37_"  overflow="visible"/>
		</clipPath>
		<g clip-path="url(#SVGID_2_)">
			<defs>
				<rect id="SVGID_39_" x="868.718" y="-711.021" width="2031.692" height="7054.486"/>
			</defs>
			<use xlink:href="#SVGID_39_"  overflow="visible" fill="#FB4D5B"/>
			<clipPath id="SVGID_4_">
				<use xlink:href="#SVGID_39_"  overflow="visible"/>
			</clipPath>
		</g>
	</g>
	<g>
		<defs>
			<polygon id="SVGID_41_" points="2363.953,970.348 2329.744,970.348 2329.744,1032.491 2267.739,970.348 2233.53,970.348 
				2233.53,1107.811 2267.739,1107.811 2267.739,1068.381 2329.744,1068.381 2329.744,1107.811 2363.953,1107.811 			"/>
		</defs>
		<use xlink:href="#SVGID_41_"  overflow="visible" fill-rule="evenodd" clip-rule="evenodd" fill="#FB4D5B"/>
		<clipPath id="SVGID_6_">
			<use xlink:href="#SVGID_41_"  overflow="visible"/>
		</clipPath>
		<g clip-path="url(#SVGID_6_)">
			<defs>
				<rect id="SVGID_43_" x="868.718" y="-711.021" width="2031.692" height="7054.486"/>
			</defs>
			<use xlink:href="#SVGID_43_"  overflow="visible" fill="#FB4D5B"/>
			<clipPath id="SVGID_8_">
				<use xlink:href="#SVGID_43_"  overflow="visible"/>
			</clipPath>
		</g>
	</g>
</g>
<g>
	<g>
		<g>
			<path fill-rule="evenodd" clip-rule="evenodd" fill="#FFFFFF" d="M132.847,192.39c-13.196,0-39.989,0-39.989,0
				s-28.434-41.5-42.072-61.667c-6.177,6.563-12.062,12.561-17.569,18.885c-1.126,1.288-1.096,3.829-1.126,5.79
				c-0.084,12.162-0.042,24.312-0.042,36.992c-10.785,0-21.191,0-32.047,0C0,128.428,0,64.501,0,0c10.442,0,20.815,0,31.878,0
				c0,35.497,0,70.728,0,107.722c2.823-2.402,4.502-3.68,6.014-5.157C52.51,88.279,85.655,55.911,85.655,55.911s28.271,0,40.565,0
				c-17.699,17.626-34.542,34.401-51.598,51.392C94.246,136.152,113.135,163.415,132.847,192.39z"/>
		</g>
		<g id="caBLst.tif_15_">
			<g>
				<path fill="#FFFFFF" d="M190.091,196.028c-19.607-3.18-35.153-12.969-45.352-29.979c-15.238-25.435-16.184-51.856-2.877-78.375
					c7.977-15.881,20.722-26.805,37.785-32.154c17.06-5.346,34.113-4.89,50.779,1.745c19.427,7.737,33.181,21.288,39.504,41.337
					c6.899,21.831,5.437,43.367-5.279,63.762c-9.873,18.794-25.579,30.094-46.629,33.675
					C213.542,196.799,201.11,198.455,190.091,196.028z M204.286,167.141c14.237-0.122,24.751-6.631,30.493-19.449
					c7.306-16.266,6.846-32.791-1.87-48.477c-7.29-13.141-19.108-18.729-33.983-17.379c-13.655,1.24-23.131,8.622-28.116,21.25
					c-5.395,13.663-5.038,27.545,0.242,41.184C176.637,158.716,189.208,167.207,204.286,167.141z"/>
			</g>
		</g>
		<g>
			<rect y="224" fill="#FFFFFF" width="274" height="32"/>
		</g>
	</g>
	<g>
		<path fill-rule="evenodd" clip-rule="evenodd" fill="#FFFFFF" d="M387.907,192.698c0-9.338,0-18.257,0-27.175
			c0-18.852,0.094-37.704-0.047-56.552c-0.108-13.502-5.482-22.027-15.312-25.039c-10.879-3.318-23.34,0.873-29.629,11.962
			c-3.946,6.949-6.932,15.308-7.39,23.207c-1.223,21.083-0.849,42.255-1.098,63.397c-0.035,3.206-0.005,6.416-0.005,10.144
			c-10.803,0-21.236,0-32.248,0c0-45.212,0-90.513,0-136.24c10.771,0,21.239,0,32.415,0c0,4.203,0,8.239,0,14.056
			c12.778-11.667,26.167-18.25,42.149-18.478c16.589-0.234,29.819,6.095,39.323,20.267c17.008-19.56,38.307-24.092,62.104-17.843
			c17.768,4.666,28.299,18.395,28.928,39.88c0.949,32.583,0.247,65.216,0.247,98.355c-10.671,0-21.122,0-32.654,0
			c0-2.18,0-4.594,0-7.015c0-23.443,0-46.889,0-70.337c0-1.836,0.01-3.678-0.008-5.514c-0.142-14.11-5.646-23.383-15.651-26.368
			c-11.338-3.382-25.285,1.49-31.261,13.121c-3.933,7.658-6.267,16.851-6.658,25.473c-0.949,20.878-0.342,41.825-0.363,62.744
			c-0.005,2.493,0,4.985,0,7.956C409.866,192.698,399.409,192.698,387.907,192.698z"/>
	</g>
	<g>
		<path fill-rule="evenodd" clip-rule="evenodd" fill="#FFFFFF" d="M813.317,192.776c-10.896,0-21.141,0-32.389,0
			c0-2.374,0-4.791,0-7.211c0-22.972,0-45.941,0-68.915c0-0.916,0.013-1.837,0-2.755c-0.183-19.603-8.061-29.707-24.02-30.779
			c-17.041-1.148-33.608,11.458-35.192,28.165c-1.255,13.21-0.788,26.587-0.937,39.893c-0.157,13.319-0.128,26.645-0.201,39.964
			c-0.003,0.41-0.288,0.824-0.59,1.629c-10.31,0-20.753,0-31.625,0c0-64.208,0-128.177,0-192.745c10.505,0,20.906,0,32.143,0
			c0,22.592,0,45.184,0,69.211c2.736-1.986,4.302-3.059,5.803-4.213c16.864-12.972,35.794-16.1,55.975-10.7
			c17.8,4.766,29.686,19.16,30.308,38.306c0.95,29.369,0.554,58.781,0.726,88.185C813.336,184.668,813.317,188.524,813.317,192.776z
			"/>
	</g>
	<g>
		<path fill-rule="evenodd" clip-rule="evenodd" fill="#FFFFFF" d="M568.571,56.467c0,9.184-0.046,17.867,0.004,26.548
			c0.114,19.067-0.392,38.169,0.621,57.196c0.868,16.297,8.723,23.971,22.857,25.157c15.3,1.282,28.635-6.988,32.274-21.114
			c1.924-7.478,2.749-15.401,2.884-23.143c0.378-21.332,0.135-42.681,0.135-64.578c11.094,0,21.698,0,32.684,0
			c0,45.412,0,90.588,0,136.197c-10.804,0-21.45,0-32.524,0c0-4.1,0-7.942,0-12.858c-2.169,1.487-3.59,2.377-4.929,3.389
			c-16.921,12.795-35.915,15.815-56.117,10.964c-17.132-4.114-29.084-18.093-29.96-36.099c-1.104-22.701-0.9-45.473-1.155-68.215
			c-0.127-10.986-0.023-21.982-0.023-33.444C546.467,56.467,556.923,56.467,568.571,56.467z"/>
	</g>
	<g>
		<path fill-rule="evenodd" clip-rule="evenodd" fill="#FFFFFF" d="M873.383,192.789c-11.595,0-22.087,0-32.892,0
			c0-45.528,0-90.676,0-136.318c10.811,0,21.258,0,32.421,0c0.284,4.353,0.569,8.725,0.926,14.134
			c13.305-14.712,29.349-19.76,47.646-18.339c21.393,1.656,36.842,16.151,37.744,37.561c1.105,26.379,0.59,52.829,0.749,79.243
			c0.047,7.77,0.006,15.54,0.006,23.697c-10.877,0-21.131,0-32.38,0c0-2.364,0-4.782,0-7.202c0-22.98,0.027-45.959-0.027-68.933
			c-0.012-3.434-0.146-6.913-0.718-10.283c-2.323-13.626-8.105-20.468-18.292-22.035c-12.68-1.95-24.969,3.984-29.96,15.843
			c-2.698,6.408-4.406,13.668-4.634,20.611c-0.694,21.346-0.46,42.731-0.59,64.095C873.373,187.342,873.383,189.821,873.383,192.789
			z"/>
	</g>
</g>
</svg>
