<?xml version="1.0" encoding="utf-8"?>
<!-- Generator: Adobe Illustrator 16.0.0, SVG Export Plug-In . SVG Version: 6.00 Build 0)  -->
<!DOCTYPE svg PUBLIC "-//W3C//DTD SVG 1.1//EN" "http://www.w3.org/Graphics/SVG/1.1/DTD/svg11.dtd">
<svg version="1.1" id="Layer_1" xmlns="http://www.w3.org/2000/svg" xmlns:xlink="http://www.w3.org/1999/xlink" x="0px" y="0px"
	 width="960px" height="251px" viewBox="0 0 960 251" enable-background="new 0 0 960 251" xml:space="preserve">
<g>
	<g>
		<defs>
			<polygon id="SVGID_37_" points="2158.698,1019.365 2089.208,1019.365 2089.208,970.348 2054.999,970.348 2054.999,1019.459 
				2054.999,1053.881 2054.999,1107.811 2089.208,1107.811 2089.208,1053.465 2158.698,1053.465 2158.698,1107.811 
				2192.906,1107.811 2192.906,1053.881 2192.906,1019.459 2192.906,970.348 2158.698,970.348 			"/>
		</defs>
		<use xlink:href="#SVGID_37_"  overflow="visible" fill-rule="evenodd" clip-rule="evenodd" fill="#FB4D5B"/>
		<clipPath id="SVGID_2_">
			<use xlink:href="#SVGID_37_"  overflow="visible"/>
		</clipPath>
		<g clip-path="url(#SVGID_2_)">
			<defs>
				<rect id="SVGID_39_" x="868.718" y="-711.021" width="2031.692" height="7054.486"/>
			</defs>
			<use xlink:href="#SVGID_39_"  overflow="visible" fill="#FB4D5B"/>
			<clipPath id="SVGID_4_">
				<use xlink:href="#SVGID_39_"  overflow="visible"/>
			</clipPath>
		</g>
	</g>
	<g>
		<defs>
			<polygon id="SVGID_41_" points="2363.953,970.348 2329.744,970.348 2329.744,1032.491 2267.739,970.348 2233.53,970.348 
				2233.53,1107.811 2267.739,1107.811 2267.739,1068.381 2329.744,1068.381 2329.744,1107.811 2363.953,1107.811 			"/>
		</defs>
		<use xlink:href="#SVGID_41_"  overflow="visible" fill-rule="evenodd" clip-rule="evenodd" fill="#FB4D5B"/>
		<clipPath id="SVGID_6_">
			<use xlink:href="#SVGID_41_"  overflow="visible"/>
		</clipPath>
		<g clip-path="url(#SVGID_6_)">
			<defs>
				<rect id="SVGID_43_" x="868.718" y="-711.021" width="2031.692" height="7054.486"/>
			</defs>
			<use xlink:href="#SVGID_43_"  overflow="visible" fill="#FB4D5B"/>
			<clipPath id="SVGID_8_">
				<use xlink:href="#SVGID_43_"  overflow="visible"/>
			</clipPath>
		</g>
	</g>
</g>
<g>
	<g>
		<path fill-rule="evenodd" clip-rule="evenodd" fill="#FFFFFF" d="M388.879,192.368c0-9.323,0-18.227,0-27.127
			c0-18.821,0.094-37.639-0.047-56.457c-0.107-13.48-5.472-21.99-15.284-24.996c-10.861-3.312-23.3,0.871-29.579,11.94
			c-3.939,6.936-6.919,15.284-7.376,23.167c-1.221,21.046-0.848,42.184-1.097,63.292c-0.033,3.199-0.004,6.402-0.004,10.125
			c-10.784,0-21.199,0-32.193,0c0-45.135,0-90.361,0-136.009c10.752,0,21.205,0,32.36,0c0,4.195,0,8.226,0,14.033
			c12.756-11.647,26.122-18.22,42.077-18.446c16.56-0.234,29.77,6.084,39.256,20.231c16.979-19.524,38.241-24.051,61.999-17.811
			c17.738,4.656,28.252,18.362,28.879,39.811c0.949,32.526,0.248,65.106,0.248,98.188c-10.654,0-21.087,0-32.599,0
			c0-2.177,0-4.587,0-7.004c0-23.403,0-46.808,0-70.217c0-1.833,0.009-3.673-0.008-5.503c-0.143-14.088-5.637-23.344-15.625-26.326
			c-11.317-3.375-25.241,1.49-31.208,13.101c-3.924,7.643-6.256,16.819-6.646,25.428c-0.947,20.843-0.341,41.752-0.362,62.635
			c-0.004,2.492,0,4.978,0,7.944C410.8,192.368,400.363,192.368,388.879,192.368z"/>
	</g>
	<g>
		<path fill-rule="evenodd" clip-rule="evenodd" fill="#FFFFFF" d="M813.566,192.444c-10.878,0-21.105,0-32.334,0
			c0-2.366,0-4.78,0-7.197c0-22.933,0-45.864,0-68.798c0-0.915,0.012-1.833,0-2.751c-0.183-19.568-8.048-29.655-23.979-30.726
			c-17.013-1.145-33.55,11.439-35.132,28.116c-1.252,13.187-0.785,26.543-0.934,39.826c-0.158,13.297-0.129,26.598-0.203,39.895
			c-0.004,0.41-0.287,0.823-0.588,1.627c-10.291,0-20.717,0-31.572,0c0-64.098,0-127.96,0-192.417c10.489,0,20.871,0,32.088,0
			c0,22.554,0,45.107,0,69.095c2.731-1.983,4.296-3.054,5.793-4.207c16.837-12.95,35.732-16.072,55.88-10.682
			c17.77,4.757,29.635,19.126,30.256,38.238c0.949,29.32,0.553,58.682,0.726,88.035
			C813.584,184.352,813.566,188.204,813.566,192.444z"/>
	</g>
	<g>
		<path fill-rule="evenodd" clip-rule="evenodd" fill="#FFFFFF" d="M133.52,192.837c-13.177,0-39.92,0-39.92,0
			s-28.384-42.006-41.994-62.165c-6.165,6.557-12.042,12.55-17.538,18.871c-1.124,1.292-1.101,3.829-1.124,5.793
			c-0.087,12.152-0.043,24.302-0.043,36.976c-10.768,0-21.161,0-31.993,0c0-63.941,0-127.84,0-192.313c10.426,0,20.78,0,31.823,0
			c0,35.473,0,70.699,0,107.675c2.81-2.404,4.496-3.677,5.999-5.151c14.596-14.282,47.679-46.641,47.679-46.641s28.229,0,40.499,0
			c-17.671,17.62-34.483,34.392-51.512,51.373C94.987,136.1,113.846,163.873,133.52,192.837z"/>
	</g>
	<g>
		<path fill-rule="evenodd" clip-rule="evenodd" fill="#FFFFFF" d="M569.236,56.369c0,9.169-0.046,17.836,0.004,26.504
			c0.114,19.035-0.391,38.104,0.619,57.099c0.867,16.267,8.708,23.929,22.82,25.114c15.272,1.278,28.586-6.978,32.221-21.079
			c1.919-7.465,2.741-15.375,2.877-23.104c0.378-21.294,0.132-42.607,0.132-64.467c11.078,0,21.664,0,32.63,0
			c0,45.333,0,90.433,0,135.966c-10.785,0-21.413,0-32.47,0c0-4.094,0-7.928,0-12.838c-2.164,1.484-3.583,2.374-4.919,3.383
			c-16.893,12.773-35.854,15.787-56.023,10.945c-17.101-4.105-29.033-18.062-29.908-36.035c-1.101-22.665-0.898-45.397-1.152-68.101
			c-0.127-10.969-0.024-21.942-0.024-33.388C547.17,56.369,557.608,56.369,569.236,56.369z"/>
	</g>
	<g>
		<path fill-rule="evenodd" clip-rule="evenodd" fill="#FFFFFF" d="M873.529,192.46c-11.575,0-22.049,0-32.838,0
			c0-45.45,0-90.523,0-136.087c10.793,0,21.223,0,32.367,0c0.284,4.345,0.569,8.711,0.924,14.11
			c13.283-14.688,29.299-19.726,47.566-18.309c21.356,1.653,36.779,16.126,37.679,37.499c1.105,26.335,0.589,52.738,0.749,79.107
			c0.048,7.757,0.008,15.513,0.008,23.657c-10.86,0-21.099,0-32.326,0c0-2.359,0-4.772,0-7.189c0-22.94,0.026-45.882-0.028-68.817
			c-0.012-3.425-0.144-6.9-0.717-10.264c-2.318-13.602-8.091-20.434-18.26-22c-12.659-1.945-24.925,3.98-29.909,15.82
			c-2.695,6.395-4.4,13.643-4.626,20.574c-0.693,21.31-0.459,42.657-0.589,63.986C873.52,187.023,873.529,189.497,873.529,192.46z"
			/>
	</g>
	<g>
		<rect y="218" fill="#FFFFFF" width="275" height="33"/>
	</g>
	<g id="caBLst.tif_3_">
		<g>
			<path fill="#FFFFFF" d="M190.668,195.691c-19.576-3.174-35.094-12.96-45.272-29.968c-15.212-25.423-16.156-51.834-2.871-78.342
				c7.956-15.878,20.683-26.798,37.719-32.144c17.027-5.341,34.055-4.884,50.687,1.749c19.393,7.732,33.121,21.279,39.439,41.32
				c6.881,21.816,5.423,43.349-5.271,63.734c-9.86,18.791-25.535,30.084-46.549,33.662
				C214.077,196.462,201.664,198.121,190.668,195.691z M204.832,166.818c14.215-0.122,24.708-6.63,30.446-19.439
				c7.287-16.261,6.833-32.782-1.865-48.463c-7.283-13.133-19.075-18.723-33.923-17.372c-13.638,1.24-23.092,8.62-28.072,21.246
				c-5.385,13.655-5.027,27.533,0.238,41.167C177.234,158.395,189.784,166.883,204.832,166.818z"/>
		</g>
	</g>
</g>
</svg>
