<?xml version="1.0" encoding="utf-8"?>
<!-- Generator: Adobe Illustrator 16.0.0, SVG Export Plug-In . SVG Version: 6.00 Build 0)  -->
<!DOCTYPE svg PUBLIC "-//W3C//DTD SVG 1.1//EN" "http://www.w3.org/Graphics/SVG/1.1/DTD/svg11.dtd">
<svg version="1.1" xmlns="http://www.w3.org/2000/svg" xmlns:xlink="http://www.w3.org/1999/xlink" x="0px" y="0px" width="960px"
	 height="385px" viewBox="0 0 960 385" enable-background="new 0 0 960 385" xml:space="preserve">
<g id="Layer_1">
	<g>
		<g>
			<path d="M302.065,182.146c-55.692,0-101.017,45.324-101.017,101.014c0,55.694,45.324,101.041,101.017,101.041
				c53.437,0,98.579-46.284,98.579-101.041C400.645,228.407,355.502,182.146,302.065,182.146z M346.976,329.481
				c-12.054,12.652-27.997,19.602-44.91,19.602c-36.368,0-65.949-29.556-65.949-65.924c0-36.367,29.581-65.947,65.949-65.947
				c16.913,0,32.856,6.975,44.91,19.627c11.996,12.567,18.604,29.02,18.604,46.32C365.58,300.487,358.972,316.914,346.976,329.481z"
				/>
			<path d="M671.513,183.228l-78.992,199.487h189.272L708.01,183.228H671.513z M673.854,351.87H640.88l48.449-127.07l17.924,51.506
				L673.854,351.87z M725.354,323.28l10.771,28.59h-23.178L725.354,323.28z"/>
			<path d="M154.023,326.833c-0.217,0.203-20.888,22.159-52.766,22.159c-35.734,0-62.689-28.872-62.689-67.143
				c0-37.549,26.254-64.791,62.439-64.791c29.075,0,49.183,18.383,49.371,18.562l5.114,4.791l19.301-29.118l-3.188-3.42
				c-1.021-1.075-25.082-26.242-71.658-26.242C42.977,181.632,0,224.84,0,282.12c0,28.041,9.983,53.9,28.116,72.758
				c18.468,19.221,44.159,29.812,72.373,29.812c48.486,0,75.113-30.098,76.233-31.396l3.131-3.579l-20.996-28.121L154.023,326.833z"
				/>
			<polygon points="474.332,183.228 433.213,183.228 433.213,382.715 554.536,382.715 554.536,345.69 474.332,345.69 			"/>
			<path d="M935.449,277.153c10.95-9.319,17.229-24.178,17.229-39.932c0-31.738-23.984-53.994-59.621-53.994h-70.022v199.487h71.603
				c39.101,0,65.362-23.984,65.362-59.032C960,303.486,950.635,285.961,935.449,277.153z M858.001,220.254h34.511
				c13.882,0,21.845,8.673,21.845,22.223c0,13.418-8.356,23.012-21.299,23.012h-35.057V220.254z M895.953,345.69h-37.952v-49.382
				h37.677c15.837,0,26.051,9.17,26.051,24.826C921.729,337.143,912.083,345.69,895.953,345.69z"/>
		</g>
		<g>
			<g>
				<path d="M321.435,85.105c0.335,1.684-0.883,2.609-3.663,2.777c-1.854,0.083-3.747-0.715-5.685-2.399
					c-1.602-1.433-2.863-3.746-3.788-6.946c-0.844-2.947-1.349-7.115-1.517-12.505c-0.17-6.063-0.464-10.232-0.885-12.506
					c-1.096,3.788-2.905,9.432-5.431,16.926c-1.517,4.126-2.443,6.486-2.779,7.074c-1.348,2.611-3.031,3.788-5.054,3.536
					c-4.041-0.925-7.157-3.198-9.346-6.82c-1.434-2.356-2.78-6.105-4.042-11.243c-1.348-5.641-2.485-9.429-3.411-11.368
					c-3.622,17.602-7.497,30.738-11.621,39.412c-0.59,1.262-2.359,1.177-5.305-0.253c-2.444-1.182-3.665-2.865-3.665-5.054
					c0-0.757,0.885-3.452,2.654-8.084c0.758-2.021,3.703-11.747,8.842-29.178c1.768-6.064,3.619-16.717,5.558-31.959
					c0.168-0.167,0.588-1.052,1.263-2.653c0.42-1.178,1.179-1.769,2.274-1.769c2.862,0,4.841,0.549,5.937,1.642
					c0,2.445,0.398,6.381,1.199,11.812c0.8,5.432,1.201,9.537,1.201,12.315c0.758,4.718,1.472,9.475,2.146,14.274
					c0.926,5.39,2.61,9.81,5.054,13.264c8.084-22.485,13.22-40.253,15.41-53.307c0.335-1.345,1.6-2.021,3.789-2.021
					c3.115,0,4.884,1.012,5.306,3.032c0.588,3.031,0.884,6.525,0.884,10.484c0,1.263-0.085,4.041-0.253,8.335
					c-0.084,3.455-0.084,6.275,0,8.465C317.266,58.158,318.908,73.063,321.435,85.105z"/>
				<path d="M373.224,76.895c0.506,1.349,0.758,2.526,0.758,3.537c0,1.686-0.716,3.158-2.147,4.422
					c-1.434,1.262-2.401,1.85-2.905,1.768c-4.128-0.759-6.737-4.084-7.831-9.979c-1.181-6.398-2.571-11.747-4.169-16.041
					c-2.863,0.251-5.728,0.504-8.589,0.757c-3.286,0.422-5.854,1.433-7.706,3.031c-0.929,2.611-2.147,7.244-3.662,13.896
					c-1.434,6.146-2.824,10.819-4.17,14.021c-0.675,1.516-2.104,1.936-4.294,1.263c-2.779-0.927-4.253-2.189-4.421-3.788
					c-0.253-3.202,0.674-7.495,2.778-12.885c2.527-6.146,3.917-10.524,4.168-13.138c0.084-0.758-0.463-1.599-1.641-2.525
					c-1.182-0.926-1.77-1.642-1.77-2.147c0-0.42,0.19-0.862,0.568-1.327c0.379-0.461,1.263-0.841,2.652-1.136
					c1.391-0.294,2.168-0.737,2.337-1.327c1.517-4.21,3.917-12.041,7.2-23.495c2.78-9.935,5.263-17.558,7.453-22.862
					c0.506-1.179,1.558-1.769,3.157-1.769c1.179,0,2.23,0.378,3.159,1.137c2.355,2.021,3.871,5.052,4.547,9.096
					c0.505,3.453,0.967,6.905,1.39,10.357C364.296,47.632,368.676,64.01,373.224,76.895z M354.782,52.769
					c-0.253-3.115-0.803-6.61-1.644-10.483c-0.843-3.368-1.643-6.736-2.399-10.107c-2.526,6.991-4.718,13.98-6.568,20.97
					C345.517,52.895,349.054,52.769,354.782,52.769z"/>
				<path d="M414.275,55.042c-0.843,1.938-1.643,3.874-2.4,5.81c-1.011,2.273-2.105,4.087-3.284,5.433
					c-2.611,3.283-5.222,6.526-7.831,9.726c-3.117,3.875-5.937,6.568-8.464,8.085c-0.843,1.011-1.769,2.062-2.778,3.157
					c-1.011,1.093-2.021,1.643-3.032,1.643c-0.506,0-1.095-0.127-1.769-0.379c-0.674-0.253-1.411-0.55-2.21-0.885
					c-0.801-0.338-1.37-0.884-1.706-1.642c-0.253-3.537-0.379-7.325-0.379-11.369c0-4.124,0.168-10.272,0.506-18.442
					c0.335-8.166,0.505-14.313,0.505-18.441c0-5.474-0.211-10.484-0.632-15.031c-0.085-0.082-1.011-1.052-2.778-2.906
					c-1.095-1.094-1.642-2.104-1.642-3.03c0-0.42,0.082-0.841,0.253-1.264c0.42-1.011,1.346-1.599,2.778-1.77
					c1.093-0.167,2.188-0.294,3.284-0.379c7.074,1.517,14.483,5.476,22.231,11.875c2.021,1.686,3.663,3.454,4.927,5.305
					c4.042,5.98,6.063,11.58,6.063,16.801C415.918,50.032,415.369,52.601,414.275,55.042z M405.18,41.526
					c-0.758-5.305-5.264-9.979-13.515-14.021c-0.591,14.064-0.759,28.97-0.506,44.717c9.516-9.517,14.273-18.569,14.273-27.159
					C405.433,43.884,405.348,42.706,405.18,41.526z"/>
				<path d="M465.306,19.799c-3.115,1.264-7.706,2.739-13.769,4.422c-6.063,1.686-10.654,3.158-13.769,4.422
					c-0.757,2.189-1.306,7.073-1.642,14.652c1.347,0.505,2.904,0.757,4.674,0.757c1.264,0,3.241-0.209,5.937-0.631
					c2.695-0.421,4.673-0.632,5.937-0.632c2.357,0,4.378,0.506,6.063,1.515c1.179,1.688,1.769,2.78,1.769,3.286
					c0,0.589-0.296,1.054-0.884,1.389c-0.171,0.085-0.759,0.675-1.77,1.768c-0.675,0.759-1.515,1.097-2.524,1.011
					c-1.77,0.424-5.013,0.676-9.729,0.759c-3.958,0.085-7.116,0.591-9.473,1.517c-1.602,6.231-2.4,11.159-2.4,14.777
					c0,2.444,0.335,4.38,1.011,5.811c3.958,2.779,10.82,3.96,20.591,3.538c0.673,0,1.389-0.317,2.146-0.948
					c0.758-0.632,1.39-0.947,1.896-0.947c2.357-0.506,3.916,1.264,4.673,5.305c0.253,1.349,0.021,2.589-0.693,3.727
					c-0.718,1.138-1.749,1.747-3.095,1.831c-10.189,0.337-19.033-0.463-26.527-2.398c-2.357-0.591-4.506-1.896-6.442-3.917
					c-1.937-2.02-3.03-4.294-3.283-6.82c-0.758-7.325-0.758-13.895,0-19.704c-2.359-1.6-3.41-3.16-3.159-4.675
					c0.084-0.758,0.737-1.453,1.959-2.085c1.22-0.631,1.915-1.282,2.085-1.958c0.168-0.673,0.504-4.673,1.01-11.999
					c-4.717-0.927-7.031-2.694-6.946-5.306c0.082-2.442,1.557-4.378,4.42-5.811c2.693-1.093,5.388-2.189,8.084-3.284
					c3.114-1.599,7.03-3.031,11.748-4.295c4.124-1.094,8.252-2.146,12.379-3.156c0.421-0.084,0.925-0.127,1.516-0.127
					c2.273,0,4.926,0.884,7.957,2.651c0.083,0.338,0.294,0.97,0.632,1.896c0.336,0.927,0.506,1.601,0.506,2.021
					C466.19,18.832,465.894,19.379,465.306,19.799z"/>
				<path d="M586.062,17.904c1.936,0.928,2.905,2.273,2.905,4.043c0,1.18-0.505,2.778-1.517,4.799
					c-1.262,2.697-1.938,4.212-2.021,4.549c-2.021,6.231-3.937,15.707-5.747,28.421c-1.812,12.717-3.643,22.063-5.494,28.041
					c-0.506,1.685-1.938,2.527-4.295,2.527c-1.096,0-2.064-0.211-2.905-0.632c-3.117-1.602-5.349-4.717-6.695-9.348
					c-0.084-0.42-0.884-4.63-2.399-12.631c-0.759-4.211-1.475-8.716-2.147-13.516c-1.18,2.357-2.737,8.209-4.674,17.558
					c-1.686,8.084-3.662,13.22-5.938,15.409c-0.674,0.673-1.853,0.758-3.537,0.253c-2.525-0.337-4.211-1.852-5.052-4.547
					c-0.506-2.357-1.011-4.714-1.516-7.074c-1.516-6.062-2.717-15.493-3.6-28.294c-0.885-12.799-2.085-22.147-3.601-28.042
					c-0.253-1.011-0.126-1.978,0.379-2.905c0.506-0.926,1.22-1.431,2.147-1.517c0.673-0.167,1.346-0.252,2.021-0.252
					c2.357,0,4.169,1.055,5.433,3.157c1.346,7.074,2.946,20.842,4.8,41.307c0.673-1.432,1.453-4.106,2.336-8.021
					c0.885-3.917,1.747-6.759,2.591-8.527c0.757-3.198,1.472-6.397,2.146-9.6c1.01-3.872,3.114-5.811,6.316-5.811
					c0.841,0,1.768,0.127,2.779,0.379c0.082,0.506,0.461,0.803,1.136,0.885c0.673,0.085,1.052,0.212,1.137,0.379
					c1.853,4.127,3.241,9.643,4.169,16.547c1.431,9.77,2.314,15.41,2.652,16.926c1.347-7.493,2.735-14.945,4.169-22.357
					c1.769-8.673,4.042-15.745,6.82-21.221c0.588-1.094,1.811-1.642,3.663-1.642C583.872,17.147,585.052,17.4,586.062,17.904z"/>
				<path d="M608.673,19.042c0.167,2.443,0.253,4.97,0.253,7.578c0,5.728-0.591,14.359-1.769,25.896
					c-1.181,11.538-1.769,20.254-1.769,26.148c0,2.189,0.041,4.335,0.126,6.441c-0.759,2.356-2.399,3.492-4.926,3.41
					c-3.622-0.171-5.602-1.727-5.937-4.674c-0.338-2.947-0.506-6.062-0.506-9.347c0-5.727,0.695-14.273,2.084-25.643
					c1.39-11.368,2.085-19.873,2.085-25.516c0-2.189-0.085-4.338-0.253-6.442c0.841-1.599,2.273-2.4,4.294-2.4
					c1.6,0,3.199,0.464,4.801,1.39c0.335-0.253,0.588-0.379,0.757-0.379c0.253,0,0.379,0.423,0.379,1.264
					c-0.085,1.011-0.085,1.601,0,1.768C608.377,18.789,608.504,18.958,608.673,19.042z"/>
				<path d="M679.409,4.264c-0.758,3.03-2.19,4.799-4.295,5.305c-5.474,1.349-14.989,3.116-28.547,5.305
					c-1.685,20.97-2.525,38.444-2.525,52.421c0,5.307,0.082,10.529,0.253,15.663c0.082,1.6,0,2.82-0.253,3.664
					c-0.423,1.345-1.264,1.977-2.527,1.895c-2.442-0.086-4.465-1.117-6.063-3.096c-1.601-1.979-2.484-4.188-2.652-6.63
					c-0.169-3.115-0.253-6.399-0.253-9.854c0-5.558,0.379-14.355,1.138-26.399c0.758-11.535,1.093-20.336,1.011-26.399
					c-2.274-0.168-5.433,0.044-9.474,0.632c-4.634,0.675-7.832,1.011-9.601,1.011c-4.125,0-7.494-1.104-10.105-3.312
					c-1.01-2.206-1.515-3.354-1.515-3.439c0-0.593,0.295-1.229,0.883-1.909c2.696-0.934,8.211-1.782,16.548-2.548
					c7.327-0.765,12.8-2.121,16.422-4.076c2.946,1.011,6.315,1.517,10.104,1.517s7.409-0.462,10.863-1.391
					c1.01-0.082,3.578-0.673,7.705-1.768c3.031-0.758,5.558-1.011,7.579-0.758c1.515,0,2.147,0.632,1.895,1.894
					C678.272,1.988,679.409,2.747,679.409,4.264z"/>
				<path d="M705.809,12.347c-0.17,7.496-1.39,19.369-3.663,35.622c-2.105,15.409-3.158,27.241-3.158,35.494
					c0,2.61,0.083,5.094,0.253,7.453c0,0.588-0.253,1.155-0.758,1.705c-0.506,0.547-1.095,0.82-1.769,0.82
					c-2.358,0-3.916-0.211-4.674-0.631c-3.2-1.854-4.8-5.349-4.8-10.484c0-1.012,0.063-2.59,0.189-4.736
					c0.127-2.147,0.189-3.727,0.189-4.736c0-1.685,0.209-4.253,0.631-7.706c0.421-3.452,0.632-6.104,0.632-7.959
					c-1.18,0.085-2.801-0.082-4.862-0.505c-2.064-0.421-3.56-0.631-4.485-0.631c-1.095,0-2.146,0.169-3.157,0.504
					c-2.021,6.654-3.201,16.466-3.537,29.433c-2.863,1.179-5.643,1.052-8.337-0.379c-1.938-1.01-2.905-3.032-2.905-6.063
					c0-0.673,0.063-1.58,0.189-2.716c0.127-1.136,0.189-1.832,0.189-2.085c0.253-4.547,1.221-13.557,2.905-27.03
					c1.432-11.284,2.104-20.252,2.021-26.906c0-0.926,0.653-1.515,1.959-1.768c1.304-0.253,2.04-0.506,2.21-0.758
					c0.506,0.59,1.726,1.095,3.664,1.515c1.599,0.338,2.567,1.096,2.905,2.274c0.673,2.106,1.011,4.465,1.011,7.074
					c0,1.854-0.274,4.779-0.821,8.779c-0.55,4-0.821,7.053-0.821,9.157c1.011,0.759,2.273,1.222,3.789,1.391
					c1.012,0.169,2.441,0.21,4.294,0.125c2.442-0.168,3.916-0.252,4.422-0.252c2.104-8.843,3.957-20.294,5.558-34.359
					c0.335-2.945,1.391-4.42,3.158-4.42C702.692,9.147,705.219,10.073,705.809,12.347z"/>
			</g>
			<g>
				<path d="M237.4,127.395c0,0,1.885-0.146,5.416-0.421c3.533-0.262,8.712-0.704,15.309-1.152
					c6.596-0.453,14.604-1.001,23.792-1.632c9.188-0.602,19.554-1.285,30.866-1.932c11.312-0.677,23.564-1.41,36.528-2.073
					c12.965-0.686,26.634-1.452,40.781-2.085c14.146-0.643,28.761-1.421,43.617-2.003c14.855-0.61,29.948-1.232,45.04-1.853
					c15.096-0.53,30.191-1.06,45.051-1.581c14.858-0.563,29.488-0.887,43.644-1.324c14.154-0.442,27.841-0.728,40.82-1.022
					c12.978-0.323,25.251-0.53,36.58-0.709c11.329-0.214,21.718-0.325,30.925-0.419c9.208-0.068,17.236-0.129,23.848-0.18
					c6.611-0.053,11.809-0.005,15.351-0.012c3.543,0.007,5.433,0.009,5.433,0.009s-1.884,0.147-5.416,0.422
					c-3.533,0.264-8.711,0.705-15.309,1.155c-6.594,0.454-14.604,1.004-23.79,1.636c-9.189,0.605-19.556,1.285-30.868,1.934
					c-11.31,0.683-23.563,1.41-36.528,2.074c-12.964,0.692-26.633,1.449-40.781,2.083c-14.146,0.64-28.758,1.431-43.616,1.998
					c-14.856,0.609-29.948,1.229-45.04,1.849c-15.096,0.529-30.192,1.058-45.052,1.577c-14.857,0.55-29.488,0.885-43.643,1.319
					c-14.154,0.444-27.843,0.72-40.821,1.021c-12.978,0.324-25.25,0.524-36.58,0.71c-11.329,0.216-21.717,0.322-30.924,0.421
					c-9.21,0.069-17.236,0.131-23.848,0.183c-6.611,0.053-11.81,0.007-15.352,0.013C239.291,127.396,237.4,127.395,237.4,127.395z"
					/>
			</g>
		</g>
	</g>
</g>
<g id="Layer_2">
</g>
</svg>
