<svg xmlns="http://www.w3.org/2000/svg" width="960" height="385" viewBox="0 0 960 385"><style>.a{fill:#FEFEFE;}.b{fill:#FFF;}.c{fill:none;stroke-width:20;stroke:#1EE29C;}.d{fill:#1EE29C;}.e{fill:#24C398;}</style><path d="M-111.2-965.7h-275c-13.6 0-21.6 1.5-27.6 2.6 -9.2 1.8-11.4 2.1-33.2-10.6 -23.1-13.5-24.5-14.3-30.9-9.5 -0.2 0.1-0.3 0.2-0.5 0.4 -1.5-0.3-3.5-0.8-6.1-1.5 -24.3-6.6-34.3 8.7-41.5 19.9 -7.3 11.2-13.5 20.8-34.1 20.8 -13.3 0-15.9-6.3-20-24.1 -0.2-0.7-0.3-1.4-0.5-2.1 19.4-5.8 37.8-15.2 48.2-28.9 9.8-12.8 12.4-23.4 7.6-31.3 -1.8-3-7.3-9.7-19.9-7.6 -14.1 2.3-34.9 15.8-50.3 39.3 -1-0.8-2.2-1.5-3.4-2.2 -9.5-5.3-21.6-5.1-38.1 0.6 -3.7 1.3-7.5 2.7-10.9 4.3 -2.4-16.9-7.1-31.5-13.5-42.4 0.3-4.9-0.5-8.6-2.5-12.2 -4.4-7.7-12.4-9.5-21.6-11.5 -6.7-1.4-15.1-3.3-26-7.6 -10.5-4.2-18.4-2.1-23 0.5 -15.1 8.2-19.6 30.3-25.3 58.4 -1.5 7.6-3.1 14.8-4.7 21.7 -7.4-15-16.2-24.7-24.9-30.8 0.6-13.2-1.4-26.9-7.8-40.9 -2.4-5.3-9.9-21.6-24.2-20.1 -1.5 0.2-3 0.5-4.5 1 4-52.4-1.4-64.2-13.3-67.1 -17.4-4.3-32 12.2-98.7 187.9 -4.7 12.3-8.7 23.6-12.3 34 -4.2-15.7-8.2-31.5-11.9-47.3 25-71.2 39.2-149.8 10-217.9 -16.1-37.7-30.5-61.2-48.1-54 -28.7 11.8-13.7 144.4 15.2 269.9 -14 38.9-31.2 75.6-45.7 106.6 -25.3 54.1-38 81.3-24.9 95.4 4.2 4.5 9.6 5.9 15 5.9 7.6 0 15.2-2.9 19-4.4 12.2-4.7 21.8-8.1 29.3-10.8 30.9-10.9 35-13.4 39.3-41.8 0.9-5.8 1.9-13 3.8-22.4 3.7 10.9 7.5 21.2 11.2 30.7 2.3 5.7 8.7 8.5 14.4 6.3 5.7-2.2 8.5-8.7 6.3-14.4 -7.8-19.9-15.2-41.2-21.9-63.2 5.1-17.5 12.1-38.7 22-64.7 33.5-88.3 56.9-143.6 70-165.1 0.5 12.3-0.4 36.4-6.1 84 -0.2 1.3-0.3 2.7-0.5 4 -0.8 2.9-1.6 5.9-2.4 9.1 -3.3 2.2-6.5 4.6-9.6 7.4 -24.7 22.1-35.8 56.5-28.3 87.7 1.7 7.3 5.4 22.5 18 22.5 0 0 0 0 0.1 0 11.1-0.1 16.5-10.1 24-39 0.8 4.9 1.7 9.7 2.8 14.3 -0.9 5.3-0.2 10.2 2.8 14.7 0.5 0.7 1 1.4 1.6 2 9.8 32.2 25.2 55.1 42.1 65.6 12.4 7.7 25.4 8.2 35.8 1.4 18.5-12.1 25-44.8 18.1-92 -1-6.5-2.1-12.6-3.3-18.3 7-17.4 10.9-36.8 14.2-53.6 3.4-16.9 8.1-40 14-43.2 1-0.6 3.3 0.2 4.2 0.6 2.5 1 5 1.9 7.3 2.7 -6.2 8.6-10.9 21.4-14.1 38.4 -6.2 33.2 0.7 59 14.1 76.9 -1.6 10-2.9 20.1-3.8 30 -4.8 51.3 3.5 61.5 12.2 64.6 16 5.8 27.9-15.3 41.9-51.3 1.7-4.5 3.4-9 4.8-13.5 25.3 1.4 51.3-11 62.7-39.1 5.7 10.1 15.5 18.6 34 18.6 32.7 0 44.8-18.6 52.8-31 7.3-11.2 8.9-12.8 17-10.5 9.4 2.6 16.3 3.8 21.4 2.2 2.8 1.6 6.4 3.7 10.6 6.2 26.7 15.6 33.8 16 48.6 13.2 5.3-1 11.9-2.2 23.4-2.2h275c6.2 0 11.1-5 11.1-11.1C-100-960.7-105-965.7-111.2-965.7zM-550.2-1011.8c-3.7 4.7-9 8.8-15.2 12.1C-560-1005.2-554.6-1009.2-550.2-1011.8zM-991.3-1218.5c3.8 5.1 10.1 15.7 19.5 37.6 21.6 50.4 16.5 108.7 0.9 165C-989.6-1109.5-997.2-1193.2-991.3-1218.5zM-974.1-826.2c-2.4 16.2-2.4 16.2-24.7 24.1 -7.7 2.7-17.5 6.2-30 11 -4.4 1.7-7.2 2.4-9 2.7 0.9-11.3 15.3-42 28.1-69.4 10.9-23.3 23.3-49.7 34.8-78 4.4 17 8.9 33.6 13.6 49.5C-969.6-856.8-972.3-838.3-974.1-826.2zM-873.4-943.5c0-11 2.9-21.2 7.2-29.9C-868.4-963.5-871-952.7-873.4-943.5zM-819.2-1055.8c0.7 1.1 1.5 2.7 2.4 4.7 3.4 7.4 5.1 14.8 5.6 22.2 -3-0.5-6.1-0.8-9.2-0.8 -3 0-6.1 0.2-9.1 0.7C-825.9-1040.7-822.4-1050.6-819.2-1055.8zM-832.4-1005.4c6.6-2.3 13.3-2.7 19.5-1.2 -3.6 16.3-11.5 31.7-18.9 45C-833-974.9-833.3-989.5-832.4-1005.4zM-825.4-923.9c-0.1-0.4-0.2-0.7-0.3-1.1 1.9-5 6.5-13.3 10.1-19.7 7.5-13.4 16.9-30.1 22.4-48.7 7.7 9 13.9 22.3 18.3 39.2 -7.8 16.7-18.8 27.7-36.2 29.8C-818.5-923.6-822.9-923.7-825.4-923.9zM-778.4-860.6c-2.9 2-6.9 1.4-11.9-1.7 -9-5.6-19.5-18.8-27.8-39.2 3.2-0.1 6.5-0.5 9.6-0.8 17.1-2 29.7-9.6 39.3-20.2C-764.7-884.5-771.2-865.4-778.4-860.6zM-704.3-967.6c-2.1-10.2-2.3-22.1 0.3-35.8 4.7-25.2 11.9-32.4 14.2-33.1 0.1 0 0.2 0 0.3 0 1 0 2.9 1.1 5 3.5 0.1 0.1 0.2 0.2 0.2 0.3 -1.9 7.2-5.6 18.5-10 31.6l-2.8 8.3C-699.6-985.1-702.1-976.5-704.3-967.6zM-682.3-895.3c-5.2 13.4-9.3 22.2-12.4 28.1 -0.4-10.7 0.4-26.7 2.7-44.9 4.3 2.7 8.8 4.9 13.4 6.7C-679.7-902.1-680.9-898.7-682.3-895.3zM-672.6-927.1c-5.6-2.4-10.9-5.8-15.5-10.2 3-16.3 7-33.1 12.2-48.5l2.8-8.3c0.8-2.3 1.5-4.5 2.2-6.6C-667-981.5-666.2-956-672.6-927.1zM-612-956.9c-5 23-21.9 33-38.7 33.9 3-14 4.6-27.7 5-40.6 8.4 1.6 21.1 1.8 35.3 0.1C-611-961.4-611.5-959.2-612-956.9z"/><path d="M294.5-1245c-66 0-120 54-120 120 0 66 54 120 120 120 58.6 0 107.7-42.5 118-98.2h378.4c69.9 0 125.5 55.6 125.5 125.5 0 69.9-55.6 125.5-125.5 125.5H169.1C75.8-852.3 0-776.5 0-683.2c0 93.3 75.8 169.1 169.1 169.1h258.4l-61 61c-8.6 8.4-8.8 22.2-0.4 30.9 8.4 8.6 22.2 8.8 30.9 0.4 0.2-0.2 0.4-0.4 0.6-0.6l97.8-97.8c8.6-8.5 8.6-22.3 0.2-30.9 -0.1-0.1-0.1-0.1-0.2-0.2l-98.2-98.2c-0.4-0.6-0.9-1.2-1.4-1.7 -8.9-8.2-22.8-7.6-31 1.4 -8.2 8.9-7.6 22.8 1.4 31l61.4 61H169.1c-69.9 0-125.5-55.6-125.5-125.5 0-69.9 55.6-125.5 125.5-125.5h621.8c93.3 0 169.1-75.8 169.1-169.1 0-93.3-75.8-169.1-169.1-169.1H412.5C402.2-1202.5 353.1-1245 294.5-1245zM294.5-1201.4c42.4 0 76.4 33.9 76.4 76.4 0 42.4-33.9 76.4-76.4 76.4 -42.4 0-76.4-33.9-76.4-76.4C218.2-1167.4 252.1-1201.4 294.5-1201.4zM665.5-655.9c-66 0-120 54-120 120s54 120 120 120 120-54 120-120S731.5-655.9 665.5-655.9zM665.5-612.3c42.4 0 76.4 33.9 76.4 76.4s-33.9 76.4-76.4 76.4c-42.4 0-76.4-33.9-76.4-76.4S623-612.3 665.5-612.3z"/><path d="M1362.2-751.9c0 23.9 4.7 47.2 14 69.1 9 21.2 21.8 40.2 38.2 56.6 16.4 16.4 35.4 29.2 56.6 38.2 21.9 9.3 45.2 14 69.1 14 23.9 0 47.2-4.7 69.1-14 21.2-9 40.2-21.8 56.6-38.2 16.4-16.4 29.2-35.4 38.2-56.5 9.3-21.9 14-45.2 14-69.1 0-23.9-4.7-47.2-14-69.1 -9-21.2-21.8-40.2-38.2-56.6 -16.4-16.4-35.4-29.2-56.6-38.2 -21.9-9.3-45.2-14-69.1-14 -23.9 0-47.2 4.7-69.1 14 -21.2 9-40.2 21.8-56.6 38.2 -16.4 16.4-29.2 35.4-38.2 56.6C1366.9-799 1362.2-775.8 1362.2-751.9zM1442.7-849.2c25.9-25.9 60.4-40.1 97.3-40.1s71.4 14.3 97.3 40.1c25.9 25.9 40.1 60.4 40.1 97.3s-14.3 71.4-40.1 97.3c-25.9 25.9-60.4 40.1-97.3 40.1s-71.4-14.3-97.3-40.1c-25.9-25.9-40.1-60.4-40.1-97.3S1416.8-823.3 1442.7-849.2z"/><path d="M1264.1-955c14.4 0 28-3.5 40.6-10.3l4-2.2 3.2 3.2 30 29.6 0 0 0 0c3.8 3.9 9 6.1 14.5 6.1 5.3 0 10.3-2 14.1-5.7 8-7.8 8.2-20.6 0.4-28.5l0 0c-0.2-0.2-0.4-0.4-0.6-0.6l0 0 0 0 -29.6-29.1 -3.3-3.2 2.2-4c6.8-12.4 10.3-26.6 10.3-41 0-22.8-9-44.3-25.3-60.6 -16.3-16.3-37.8-25.3-60.6-25.3s-44.3 9-60.6 25.3c-16.3 16.3-25.3 37.8-25.3 60.6 0 22.8 9 44.3 25.3 60.6C1219.8-964 1241.3-955 1264.1-955zM1264.1-1086.4c25.5 0 45.5 20 45.5 45.5 0 25.5-20 45.5-45.5 45.5 -25.5 0-45.5-20-45.5-45.5C1218.6-1066.4 1238.6-1086.4 1264.1-1086.4z"/><path d="M1515.6-1076.7l4.4 1.3v4.5 56.2 0 0c0 11.1 8.7 20.3 19.8 20.5l0.1 0c11 0 20-8.9 20-19.9v-0.7 -56.2 -4.5l4.4-1.3c36.1-10.9 61.4-44.8 61.4-82.4 0-22.8-8.9-44.3-25.2-60.6 -16.3-16.3-37.8-25.3-60.6-25.3 -22.8 0-44.3 9-60.6 25.3 -16.3 16.3-25.2 37.8-25.2 60.6C1454.2-1121.5 1479.4-1087.6 1515.6-1076.7zM1540-1204.6c25.5 0 45.5 20 45.5 45.5 0 25.5-20 45.5-45.5 45.5 -25.5 0-45.5-20-45.5-45.5C1494.5-1184.6 1514.5-1204.6 1540-1204.6z"/><path d="M1723.6-928.6c5.2 0 10.1-2 13.9-5.5l0.2-0.2c0.1-0.1 0.2-0.2 0.3-0.3l0.1-0.1 0.1-0.1 29.6-29.6 3.2-3.2 4 2.2c12.5 6.9 26.2 10.3 41 10.3 22.8 0 44.3-9 60.6-25.3 16.3-16.3 25.3-37.8 25.3-60.6 0-22.8-9-44.3-25.3-60.6 -16.3-16.3-37.8-25.3-60.6-25.3 -22.8 0-44.3 9-60.6 25.3 -16.3 16.3-25.3 37.8-25.3 60.6 0 14.4 3.6 28.6 10.3 41l2.2 4 -3.3 3.2 -29.6 29.1 0 0 0 0c-8.1 7.7-8.4 20.5-0.7 28.6C1712.8-930.8 1718-928.6 1723.6-928.6zM1815.9-1086.4c25.5 0 45.5 20 45.5 45.5 0 25.5-20 45.5-45.5 45.5 -25.5 0-45.5-20-45.5-45.5C1770.4-1066.4 1790.4-1086.4 1815.9-1086.4z"/><path d="M1228.3-727.5l1.3-4.5h4.5 56.2 0 0l0.3 0.2c11 0 20-8.9 20.2-19.8 0.1-5.4-2-10.4-5.7-14.3 -3.8-3.9-8.8-6-14.2-6h-0.1l-0.1 0 -0.1 0 -0.1 0 -0.1 0h-0.1 -56.7 -4.5l-1.3-4.3c-5.3-17.3-16.1-32.9-30.6-43.9 -15-11.4-32.8-17.5-51.4-17.5 -22.8 0-44.3 9-60.6 25.3 -16.3 16.3-25.3 37.8-25.3 60.6 0 22.8 9 44.3 25.3 60.6 16.3 16.3 37.8 25.3 60.6 25.3 18.8 0 36.7-6.1 51.8-17.5C1212.3-694.5 1223.2-710.2 1228.3-727.5zM1145.9-706.4c-25.5 0-45.5-20-45.5-45.5 0-25.5 20-45.5 45.5-45.5 25.5 0 45.5 20 45.5 45.5C1191.4-726.4 1171.4-706.4 1145.9-706.4z"/><path d="M1814.4-400.1c-35.6-34.3-77.1-61.1-123.4-79.9 -47.8-19.4-98.6-29.3-151-29.3 -52.4 0-103.2 9.8-151 29.3 -46.2 18.8-87.7 45.7-123.4 79.9 -35.7 34.3-63.6 74.2-83.2 118.7C1162.2-235.3 1152-186.3 1152-135.7v14.4c0 11.1 9 20.3 20.2 20.3h630.6 0 0l0.3 0c11 0 20-9 20.2-19.9 0.1-5.4-1.9-10.3-5.7-14.1 -3.8-3.9-8.8-5.9-14.2-5.9h-0.1l-0.1-0.2 -0.1-0.1 -0.1 0.2 -0.1 0.2h-0.1 -603.1 -6.3l0.2-6.5c3.3-86.9 40.5-167.9 104.8-227.9 64.6-60.2 150.4-93.5 241.6-93.5 47.3 0 93 8.7 135.9 26 41.4 16.7 78.6 40.7 110.4 71.2 31.8 30.5 56.4 66.2 73.9 105.9 18 41.1 26.8 84.9 26.8 130.1v14.4 0 0c0 5.4 2.3 10.5 6 14.4 3.8 3.9 9 6 14.4 6.1l0.4 0c11 0 20.2-8.9 20.2-19.9v-0.7 -14.4c0-50.6-10.2-99.7-30.5-145.8C1878-325.9 1850-365.9 1814.4-400.1z"/><path d="M1994.7-812.5c-16.3-16.3-37.8-25.3-60.6-25.3 -18.7 0-36.4 6-51.4 17.4 -14.5 11-25.4 26.7-30.6 44l-1.3 4.3h-4.5 -56.7 -0.1l-0.1 0c-0.3 0-0.6 0-1 0 -0.3 0-0.7 0-1 0 -5.4 0.3-10.3 2.6-14 6.6 -3.6 4-5.5 9.2-5.2 14.6 0.5 10.8 9.4 19.3 20.2 19.3 0.3 0 0.6-0.2 1-0.2l0.1-0.2h0.1 56.2 4.5l1.3 4.5c5.2 17.3 16.1 33 30.7 44 15.1 11.4 33 17.4 51.8 17.4 22.8 0 44.3-9 60.6-25.2 16.3-16.3 25.3-37.8 25.3-60.6C2020-774.7 2011-796.2 1994.7-812.5zM1934.1-706.4c-25.5 0-45.5-20-45.5-45.5 0-25.5 20-45.5 45.5-45.5 25.5 0 45.5 20 45.5 45.5C1979.6-726.4 1959.6-706.4 1934.1-706.4z"/><linearGradient gradientUnits="userSpaceOnUse" x1="2778.7" y1="-462.9" x2="2560.2" y2="-151.5"><stop offset="0" stop-color="#1FE3A9"/><stop offset="1" stop-color="#1FD0E7"/></linearGradient><circle cx="2668.2" cy="-305.4" r="194" fill="url(#SVGID_1_)"/><linearGradient gradientUnits="userSpaceOnUse" x1="2423.2" y1="-791.9" x2="2423.2" y2="-185.5"><stop offset="0" stop-color="#FDD603"/><stop offset="1" stop-color="#FC71C8"/></linearGradient><circle cx="2423.2" cy="-496.5" r="303.2" fill="url(#SVGID_2_)"/><linearGradient gradientUnits="userSpaceOnUse" x1="2831.9" y1="-1182" x2="2409.3" y2="-390.4"><stop offset="0" stop-color="#15BAFE"/><stop offset="1" stop-color="#046AFE"/></linearGradient><circle cx="2619.9" cy="-784.9" r="460.1" fill="url(#SVGID_3_)"/><path d="M2767.6-655c0.6 9.3 2.3 18.4 2.2 27.8 -0.2 23.5-11.2 34.9-34.8 36.3 -29 1.7-58.1 1.4-87.1 1.8 -18.1 0.3-36.3 0.5-54.4 0.7 -24-0.4-48.1-0.8-72.1-1.2 -12.5-0.2-24.9-0.6-37.3-2.7 -21.4-3.7-29.1-21.8-24.8-40.5 1.2-5 1.3-10.3 1.9-15.5 2.6-12.1 4.8-24.4 8-36.4 5-18.8 13-35.8 31.4-45.5 16.4-5.8 32.8-12 49.3-17.4 20.9-6.8 29.4-22 30.2-42.8 0.3-1.5 0.7-3.1 1-4.6 0.9-4.5-0.7-5.8-5.4-5.2 -5.7 0.7-11.6 1.9-17.5 0.1 1-3 4.4-3.7 4.9-7.1 -9.9-1.9-19.8-3.8-29.5-5.6 -0.1-1-0.3-1.7-0.1-1.8 11.1-9.3 11.8-20.3 7.6-33.7 -6.7-21.7-7.6-44.1-0.5-65.9 4.2-12.8 10.8-24.9 16.3-37.2 7.9-12.9 18.1-22.1 34.4-22 2.5 0 5.1 0.2 7.2 1.4 2.6 1.5 4.2 0.4 5.7-1.6 6.2-8.2 15.4-8.2 23.9-7.4 23.1 1.9 38.9 15.1 49.9 34.9 1.1 1.9 2.3 3.8 3.5 5.7 6.5 14.1 11.4 28.5 13.3 44.1 2.2 17.6-2.6 34.3-5.1 51.3 -1.7 11.3-3.7 22.3 9.3 29.9 -10.3 4.8-20 6.5-29.8 8.8 1.1 3.6 5 4.5 6.7 8.2 -5.1-0.4-9.5-0.6-13.7-1.2 -11.2-1.6-11.4-1.6-10.1 9.6 1.2 10.6 2.8 21.2 10.4 29.6 3.3 5.1 8.5 7.5 13.8 9.5 11.2 4.3 22.5 8.6 34 12.1 29.4 8.8 46.4 28.5 52.5 58.2C2764.7-672 2766-663.5 2767.6-655z" class="a"/><path d="M2281.9-689.3c10.8-13.5 26.5-19.7 41.2-27.3 14.1-7.3 28.4-14 41.7-22.8 4.7-3.1 7.1-7.1 8.9-12 3.5-8.6 2.1-17.9 3.6-26.8 0.2-1.5-0.5-2.6-1.5-3.6 -7.3-7.5-10.2-17-11.9-26.9 -0.3-2-0.8-3.8-2.6-5.3 -10.1-8.7-9.4-20.3-8.4-32 0-0.4 0-1.1 0.3-1.3 10.5-7 1.9-16.7 3.6-24.9 0-4.1 0.4-8.2 0-12.3 -1.9-24.5 24.1-55.4 57.7-49.6 12.3 2.1 23.9 5.1 33.5 12.9 11.6 9.5 15.3 23.1 16.9 37.2 1 9.5 0.9 19.1-0.8 28.6 -0.5 2.9-0.9 5.1 3 6.2 3 0.8 3.3 4.2 3.2 6.9 -0.4 9.6-1.1 19.1-7.1 27.2 -4.6 0.7-4.4 4.7-5 7.8 -1.6 9.6-5.1 18.3-12.1 25.3 -1.7 1.7-2.7 3.4-2.3 6 0.8 5.8 1.3 11.7 1.7 17.6 0.8 12 7.5 19.5 18.1 24.1 1.5 1 3 2 4.6 2.8 2.5 1.2 2.5 2.4 0.7 4.6 -17.6 21.2-22.6 47.1-26.9 73.2 -1.4 9-3.1 17.9-4.2 26.9 -0.5 3.8-1.4 5.6-5.7 5.6 -45.7-0.1-91.4 1.2-137.1-1.3 -3.4-0.2-6.8-0.8-10.1-1.7 -12.4-3.2-16.2-9.4-14.3-22 1.8-12.2 2.3-24.7 7.1-36.4C2278.9-685.2 2281.7-686.4 2281.9-689.3z" class="a"/><path d="M2866.8-763c0.6 9.3 7 14.1 14.3 18.1 16 8.7 33 15.4 49.4 23.1 16.8 8 31.9 17.9 36.2 37.7 3.1 14.3 3.7 28.8 0.9 43.2 -2 10.7-10.5 16.8-23.9 18.6 -9.7 1.3-19.5 1-29.3 1.5 -37.4-0.2-74.8-0.6-112.2-0.4 -7.1 0-10-1.8-10.4-9 -0.4-7-2.1-13.9-3.2-20.8 -5.3-31.3-10.7-62.6-36.6-85.2 2.1-1.3 3.8-2.3 5.5-3.4 23.6-8.5 33.8-25.3 30.8-50.8 -0.2-1.3-0.9-2.6-1.7-3.6 -8.2-9.6-7.2-23.4-16.1-33.3 -4.8-5.3-4.8-14.4-5.9-22 -0.5-3.4-0.2-8 3.3-8.9 6.1-1.4 4.2-5.3 4-8.8 -0.9-17.7-2.2-35.4 1.5-52.9 2.4-8.2 7.2-13.2 16.2-14.8 6-1 10.3-6.5 16.3-8.5 21.3-7.1 56.5-3 70.6 21.4 5 8.6 6.6 18.1 7.6 27.7 0.1 1-0.2 2.6-1 3.1 -7.2 5.8-4.4 14-5.1 21.3 -0.5 4.7-1.9 9.4 4 12.6 2.3 1.2 2.2 5.2 1.8 8.2 -1.1 7.2-1.3 15.4-5.5 20.8 -6.5 8.4-6.6 18.7-11.5 27.3C2859.5-787.9 2863.4-775.6 2866.8-763z" class="a"/><path d="M-579.6 0C-315.2 0.6-100.1 216.2-100 479.9c0.1 262.8-215.2 483.5-486.2 480.1 -262.1-3.3-474.5-217.7-473.8-481.2C-1059.3 214.1-843.6-0.6-579.6 0zM-579.6 339.7c-0.8-0.3-1.1-0.4-1.2-0.5 -1-1.8-2-3.6-3-5.5 -11.7-22.7-25.8-43.7-47.9-57.4 -34.3-21.3-72.1-25.6-110.8-17.8 -75.7 15.4-126.9 92.4-113.8 168.7 5.7 33.2 18.2 63.5 35.2 92.2 30.6 51.7 70.7 95.4 116 134.4 34.1 29.3 71 54.6 111.9 73.8 9 4.2 16.8 5.4 25.6 0.1 5.3-3.2 11.3-5.3 16.8-8.2 40.2-20.9 76.3-47.6 109.8-78 45.7-41.5 85.5-87.8 113.4-143.4 17.3-34.5 29.2-70.6 24.3-110 -6.9-55.9-36.3-96.3-86.9-120.6 -30.6-14.7-63.2-14.9-96.1-8.2 -29.8 6.1-54.1 20.9-72.4 45.4C-566.8 315.7-573.5 327.3-579.6 339.7z" fill="#F32C4C"/><path d="M-579.6 339.7c6.1-12.4 12.8-24.1 20.9-35 18.3-24.5 42.6-39.4 72.4-45.4 32.8-6.7 65.4-6.5 96.1 8.2 50.5 24.3 79.9 64.7 86.9 120.6 4.9 39.4-7 75.5-24.3 110 -27.9 55.5-67.7 101.8-113.4 143.4 -33.4 30.4-69.6 57.1-109.8 78 -5.5 2.9-11.5 4.9-16.8 8.2 -8.7 5.3-16.6 4.2-25.6-0.1 -40.9-19.2-77.8-44.4-111.9-73.8 -45.3-39-85.4-82.6-116-134.4 -17-28.7-29.5-59-35.2-92.2 -13.1-76.3 38.1-153.3 113.8-168.7 38.8-7.9 76.5-3.5 110.8 17.8 22.1 13.7 36.2 34.7 47.9 57.4 1 1.8 2 3.6 3 5.5C-580.7 339.4-580.4 339.4-579.6 339.7z" class="a"/><path d="M302.1 182.1c-55.7 0-101 45.3-101 101 0 55.7 45.3 101 101 101 53.4 0 98.6-46.3 98.6-101C400.6 228.4 355.5 182.1 302.1 182.1zM347 329.5c-12.1 12.7-28 19.6-44.9 19.6 -36.4 0-65.9-29.6-65.9-65.9 0-36.4 29.6-65.9 65.9-65.9 16.9 0 32.9 7 44.9 19.6 12 12.6 18.6 29 18.6 46.3C365.6 300.5 359 316.9 347 329.5z" class="b"/><path d="M671.5 183.2l-79 199.5h189.3L708 183.2H671.5zM673.9 351.9H640.9l48.4-127.1 17.9 51.5L673.9 351.9zM725.4 323.3l10.8 28.6h-23.2L725.4 323.3z" class="b"/><path d="M154 326.8c-0.2 0.2-20.9 22.2-52.8 22.2 -35.7 0-62.7-28.9-62.7-67.1 0-37.5 26.3-64.8 62.4-64.8 29.1 0 49.2 18.4 49.4 18.6l5.1 4.8 19.3-29.1 -3.2-3.4c-1-1.1-25.1-26.2-71.7-26.2C43 181.6 0 224.8 0 282.1c0 28 10 53.9 28.1 72.8 18.5 19.2 44.2 29.8 72.4 29.8 48.5 0 75.1-30.1 76.2-31.4l3.1-3.6 -21-28.1L154 326.8z" class="b"/><polygon points="474.3 183.2 433.2 183.2 433.2 382.7 554.5 382.7 554.5 345.7 474.3 345.7 " class="b"/><path d="M935.4 277.2c11-9.3 17.2-24.2 17.2-39.9 0-31.7-24-54-59.6-54h-70v199.5h71.6c39.1 0 65.4-24 65.4-59C960 303.5 950.6 286 935.4 277.2zM858 220.3h34.5c13.9 0 21.8 8.7 21.8 22.2 0 13.4-8.4 23-21.3 23h-35.1V220.3zM896 345.7h-38v-49.4h37.7c15.8 0 26.1 9.2 26.1 24.8C921.7 337.1 912.1 345.7 896 345.7z" class="b"/><path d="M321.4 85.1c0.3 1.7-0.9 2.6-3.7 2.8 -1.9 0.1-3.7-0.7-5.7-2.4 -1.6-1.4-2.9-3.7-3.8-6.9 -0.8-2.9-1.3-7.1-1.5-12.5 -0.2-6.1-0.5-10.2-0.9-12.5 -1.1 3.8-2.9 9.4-5.4 16.9 -1.5 4.1-2.4 6.5-2.8 7.1 -1.3 2.6-3 3.8-5.1 3.5 -4-0.9-7.2-3.2-9.3-6.8 -1.4-2.4-2.8-6.1-4-11.2 -1.3-5.6-2.5-9.4-3.4-11.4 -3.6 17.6-7.5 30.7-11.6 39.4 -0.6 1.3-2.4 1.2-5.3-0.3 -2.4-1.2-3.7-2.9-3.7-5.1 0-0.8 0.9-3.5 2.7-8.1 0.8-2 3.7-11.7 8.8-29.2 1.8-6.1 3.6-16.7 5.6-32 0.2-0.2 0.6-1.1 1.3-2.7 0.4-1.2 1.2-1.8 2.3-1.8 2.9 0 4.8 0.5 5.9 1.6 0 2.4 0.4 6.4 1.2 11.8 0.8 5.4 1.2 9.5 1.2 12.3 0.8 4.7 1.5 9.5 2.1 14.3 0.9 5.4 2.6 9.8 5.1 13.3 8.1-22.5 13.2-40.3 15.4-53.3 0.3-1.3 1.6-2 3.8-2 3.1 0 4.9 1 5.3 3 0.6 3 0.9 6.5 0.9 10.5 0 1.3-0.1 4-0.3 8.3 -0.1 3.5-0.1 6.3 0 8.5C317.3 58.2 318.9 73.1 321.4 85.1z" class="b"/><path d="M373.2 76.9c0.5 1.3 0.8 2.5 0.8 3.5 0 1.7-0.7 3.2-2.1 4.4 -1.4 1.3-2.4 1.9-2.9 1.8 -4.1-0.8-6.7-4.1-7.8-10 -1.2-6.4-2.6-11.7-4.2-16 -2.9 0.3-5.7 0.5-8.6 0.8 -3.3 0.4-5.9 1.4-7.7 3 -0.9 2.6-2.1 7.2-3.7 13.9 -1.4 6.1-2.8 10.8-4.2 14 -0.7 1.5-2.1 1.9-4.3 1.3 -2.8-0.9-4.3-2.2-4.4-3.8 -0.3-3.2 0.7-7.5 2.8-12.9 2.5-6.1 3.9-10.5 4.2-13.1 0.1-0.8-0.5-1.6-1.6-2.5 -1.2-0.9-1.8-1.6-1.8-2.1 0-0.4 0.2-0.9 0.6-1.3 0.4-0.5 1.3-0.8 2.7-1.1 1.4-0.3 2.2-0.7 2.3-1.3 1.5-4.2 3.9-12 7.2-23.5 2.8-9.9 5.3-17.6 7.5-22.9 0.5-1.2 1.6-1.8 3.2-1.8 1.2 0 2.2 0.4 3.2 1.1 2.4 2 3.9 5.1 4.5 9.1 0.5 3.5 1 6.9 1.4 10.4C364.3 47.6 368.7 64 373.2 76.9zM354.8 52.8c-0.3-3.1-0.8-6.6-1.6-10.5 -0.8-3.4-1.6-6.7-2.4-10.1 -2.5 7-4.7 14-6.6 21C345.5 52.9 349.1 52.8 354.8 52.8z" class="b"/><path d="M414.3 55c-0.8 1.9-1.6 3.9-2.4 5.8 -1 2.3-2.1 4.1-3.3 5.4 -2.6 3.3-5.2 6.5-7.8 9.7 -3.1 3.9-5.9 6.6-8.5 8.1 -0.8 1-1.8 2.1-2.8 3.2 -1 1.1-2 1.6-3 1.6 -0.5 0-1.1-0.1-1.8-0.4 -0.7-0.3-1.4-0.5-2.2-0.9 -0.8-0.3-1.4-0.9-1.7-1.6 -0.3-3.5-0.4-7.3-0.4-11.4 0-4.1 0.2-10.3 0.5-18.4 0.3-8.2 0.5-14.3 0.5-18.4 0-5.5-0.2-10.5-0.6-15 -0.1-0.1-1-1.1-2.8-2.9 -1.1-1.1-1.6-2.1-1.6-3 0-0.4 0.1-0.8 0.3-1.3 0.4-1 1.3-1.6 2.8-1.8 1.1-0.2 2.2-0.3 3.3-0.4 7.1 1.5 14.5 5.5 22.2 11.9 2 1.7 3.7 3.5 4.9 5.3 4 6 6.1 11.6 6.1 16.8C415.9 50 415.4 52.6 414.3 55zM405.2 41.5c-0.8-5.3-5.3-10-13.5-14 -0.6 14.1-0.8 29-0.5 44.7 9.5-9.5 14.3-18.6 14.3-27.2C405.4 43.9 405.3 42.7 405.2 41.5z" class="b"/><path d="M465.3 19.8c-3.1 1.3-7.7 2.7-13.8 4.4 -6.1 1.7-10.7 3.2-13.8 4.4 -0.8 2.2-1.3 7.1-1.6 14.7 1.3 0.5 2.9 0.8 4.7 0.8 1.3 0 3.2-0.2 5.9-0.6 2.7-0.4 4.7-0.6 5.9-0.6 2.4 0 4.4 0.5 6.1 1.5 1.2 1.7 1.8 2.8 1.8 3.3 0 0.6-0.3 1.1-0.9 1.4 -0.2 0.1-0.8 0.7-1.8 1.8 -0.7 0.8-1.5 1.1-2.5 1 -1.8 0.4-5 0.7-9.7 0.8 -4 0.1-7.1 0.6-9.5 1.5 -1.6 6.2-2.4 11.2-2.4 14.8 0 2.4 0.3 4.4 1 5.8 4 2.8 10.8 4 20.6 3.5 0.7 0 1.4-0.3 2.1-0.9 0.8-0.6 1.4-0.9 1.9-0.9 2.4-0.5 3.9 1.3 4.7 5.3 0.3 1.3 0 2.6-0.7 3.7 -0.7 1.1-1.7 1.7-3.1 1.8 -10.2 0.3-19-0.5-26.5-2.4 -2.4-0.6-4.5-1.9-6.4-3.9 -1.9-2-3-4.3-3.3-6.8 -0.8-7.3-0.8-13.9 0-19.7 -2.4-1.6-3.4-3.2-3.2-4.7 0.1-0.8 0.7-1.5 2-2.1 1.2-0.6 1.9-1.3 2.1-2 0.2-0.7 0.5-4.7 1-12 -4.7-0.9-7-2.7-6.9-5.3 0.1-2.4 1.6-4.4 4.4-5.8 2.7-1.1 5.4-2.2 8.1-3.3 3.1-1.6 7-3 11.7-4.3 4.1-1.1 8.3-2.1 12.4-3.2 0.4-0.1 0.9-0.1 1.5-0.1 2.3 0 4.9 0.9 8 2.7 0.1 0.3 0.3 1 0.6 1.9 0.3 0.9 0.5 1.6 0.5 2C466.2 18.8 465.9 19.4 465.3 19.8z" class="b"/><path d="M586.1 17.9c1.9 0.9 2.9 2.3 2.9 4 0 1.2-0.5 2.8-1.5 4.8 -1.3 2.7-1.9 4.2-2 4.5 -2 6.2-3.9 15.7-5.7 28.4 -1.8 12.7-3.6 22.1-5.5 28 -0.5 1.7-1.9 2.5-4.3 2.5 -1.1 0-2.1-0.2-2.9-0.6 -3.1-1.6-5.3-4.7-6.7-9.3 -0.1-0.4-0.9-4.6-2.4-12.6 -0.8-4.2-1.5-8.7-2.1-13.5 -1.2 2.4-2.7 8.2-4.7 17.6 -1.7 8.1-3.7 13.2-5.9 15.4 -0.7 0.7-1.9 0.8-3.5 0.3 -2.5-0.3-4.2-1.9-5.1-4.5 -0.5-2.4-1-4.7-1.5-7.1 -1.5-6.1-2.7-15.5-3.6-28.3 -0.9-12.8-2.1-22.1-3.6-28 -0.3-1-0.1-2 0.4-2.9 0.5-0.9 1.2-1.4 2.1-1.5 0.7-0.2 1.3-0.3 2-0.3 2.4 0 4.2 1.1 5.4 3.2 1.3 7.1 2.9 20.8 4.8 41.3 0.7-1.4 1.5-4.1 2.3-8 0.9-3.9 1.7-6.8 2.6-8.5 0.8-3.2 1.5-6.4 2.1-9.6 1-3.9 3.1-5.8 6.3-5.8 0.8 0 1.8 0.1 2.8 0.4 0.1 0.5 0.5 0.8 1.1 0.9 0.7 0.1 1.1 0.2 1.1 0.4 1.9 4.1 3.2 9.6 4.2 16.5 1.4 9.8 2.3 15.4 2.7 16.9 1.3-7.5 2.7-14.9 4.2-22.4 1.8-8.7 4-15.7 6.8-21.2 0.6-1.1 1.8-1.6 3.7-1.6C583.9 17.1 585.1 17.4 586.1 17.9z" class="b"/><path d="M608.7 19c0.2 2.4 0.3 5 0.3 7.6 0 5.7-0.6 14.4-1.8 25.9 -1.2 11.5-1.8 20.3-1.8 26.1 0 2.2 0 4.3 0.1 6.4 -0.8 2.4-2.4 3.5-4.9 3.4 -3.6-0.2-5.6-1.7-5.9-4.7 -0.3-2.9-0.5-6.1-0.5-9.3 0-5.7 0.7-14.3 2.1-25.6 1.4-11.4 2.1-19.9 2.1-25.5 0-2.2-0.1-4.3-0.3-6.4 0.8-1.6 2.3-2.4 4.3-2.4 1.6 0 3.2 0.5 4.8 1.4 0.3-0.3 0.6-0.4 0.8-0.4 0.3 0 0.4 0.4 0.4 1.3 -0.1 1-0.1 1.6 0 1.8C608.4 18.8 608.5 19 608.7 19z" class="b"/><path d="M679.4 4.3c-0.8 3-2.2 4.8-4.3 5.3 -5.5 1.3-15 3.1-28.5 5.3 -1.7 21-2.5 38.4-2.5 52.4 0 5.3 0.1 10.5 0.3 15.7 0.1 1.6 0 2.8-0.3 3.7 -0.4 1.3-1.3 2-2.5 1.9 -2.4-0.1-4.5-1.1-6.1-3.1 -1.6-2-2.5-4.2-2.7-6.6 -0.2-3.1-0.3-6.4-0.3-9.9 0-5.6 0.4-14.4 1.1-26.4 0.8-11.5 1.1-20.3 1-26.4 -2.3-0.2-5.4 0-9.5 0.6 -4.6 0.7-7.8 1-9.6 1 -4.1 0-7.5-1.1-10.1-3.3 -1-2.2-1.5-3.4-1.5-3.4 0-0.6 0.3-1.2 0.9-1.9 2.7-0.9 8.2-1.8 16.5-2.5 7.3-0.8 12.8-2.1 16.4-4.1 2.9 1 6.3 1.5 10.1 1.5s7.4-0.5 10.9-1.4c1-0.1 3.6-0.7 7.7-1.8 3-0.8 5.6-1 7.6-0.8 1.5 0 2.1 0.6 1.9 1.9C678.3 2 679.4 2.7 679.4 4.3z" class="b"/><path d="M705.8 12.3c-0.2 7.5-1.4 19.4-3.7 35.6 -2.1 15.4-3.2 27.2-3.2 35.5 0 2.6 0.1 5.1 0.3 7.5 0 0.6-0.3 1.2-0.8 1.7 -0.5 0.5-1.1 0.8-1.8 0.8 -2.4 0-3.9-0.2-4.7-0.6 -3.2-1.9-4.8-5.3-4.8-10.5 0-1 0.1-2.6 0.2-4.7 0.1-2.1 0.2-3.7 0.2-4.7 0-1.7 0.2-4.3 0.6-7.7 0.4-3.5 0.6-6.1 0.6-8 -1.2 0.1-2.8-0.1-4.9-0.5 -2.1-0.4-3.6-0.6-4.5-0.6 -1.1 0-2.1 0.2-3.2 0.5 -2 6.7-3.2 16.5-3.5 29.4 -2.9 1.2-5.6 1.1-8.3-0.4 -1.9-1-2.9-3-2.9-6.1 0-0.7 0.1-1.6 0.2-2.7 0.1-1.1 0.2-1.8 0.2-2.1 0.3-4.5 1.2-13.6 2.9-27 1.4-11.3 2.1-20.3 2-26.9 0-0.9 0.7-1.5 2-1.8 1.3-0.3 2-0.5 2.2-0.8 0.5 0.6 1.7 1.1 3.7 1.5 1.6 0.3 2.6 1.1 2.9 2.3 0.7 2.1 1 4.5 1 7.1 0 1.9-0.3 4.8-0.8 8.8 -0.5 4-0.8 7.1-0.8 9.2 1 0.8 2.3 1.2 3.8 1.4 1 0.2 2.4 0.2 4.3 0.1 2.4-0.2 3.9-0.3 4.4-0.3 2.1-8.8 4-20.3 5.6-34.4 0.3-2.9 1.4-4.4 3.2-4.4C702.7 9.1 705.2 10.1 705.8 12.3z" class="b"/><path d="M237.4 127.4c0 0 1.9-0.1 5.4-0.4 3.5-0.3 8.7-0.7 15.3-1.2 6.6-0.5 14.6-1 23.8-1.6 9.2-0.6 19.6-1.3 30.9-1.9 11.3-0.7 23.6-1.4 36.5-2.1 13-0.7 26.6-1.5 40.8-2.1 14.1-0.6 28.8-1.4 43.6-2 14.9-0.6 29.9-1.2 45-1.9 15.1-0.5 30.2-1.1 45.1-1.6 14.9-0.6 29.5-0.9 43.6-1.3 14.2-0.4 27.8-0.7 40.8-1 13-0.3 25.3-0.5 36.6-0.7 11.3-0.2 21.7-0.3 30.9-0.4 9.2-0.1 17.2-0.1 23.8-0.2 6.6-0.1 11.8 0 15.4 0 3.5 0 5.4 0 5.4 0s-1.9 0.1-5.4 0.4c-3.5 0.3-8.7 0.7-15.3 1.2 -6.6 0.5-14.6 1-23.8 1.6 -9.2 0.6-19.6 1.3-30.9 1.9 -11.3 0.7-23.6 1.4-36.5 2.1 -13 0.7-26.6 1.4-40.8 2.1 -14.1 0.6-28.8 1.4-43.6 2 -14.9 0.6-29.9 1.2-45 1.8 -15.1 0.5-30.2 1.1-45.1 1.6 -14.9 0.6-29.5 0.9-43.6 1.3 -14.2 0.4-27.8 0.7-40.8 1 -13 0.3-25.2 0.5-36.6 0.7 -11.3 0.2-21.7 0.3-30.9 0.4 -9.2 0.1-17.2 0.1-23.8 0.2 -6.6 0.1-11.8 0-15.4 0C239.3 127.4 237.4 127.4 237.4 127.4z" class="b"/><path d="M3080 0l-102.3 76.8L2874.7 316.9h-82.8l-32.5-70.4h21.2c38.8 0 70.4-31.6 70.4-70.4v-70.4h35.2V0h-105.6v105.6h35.2v70.4c0 19.4-15.8 35.2-35.2 35.2h-37.5l-45-97.5 53.9-26.9 -176.5-75.7 -41.5 145.2C2533 69.9 2462.4 0 2375.8 0c-87.4 0-158.5 71.1-158.5 158.4 0 52.8 26.7 102.3 70.4 131.6v26.8h-42.6l-2.7 14.3c-8.6 44.4-9.3 89.9-2.4 135.4L2120 680.6l132.8 30.3v221.9h176.1v158.5h422.5V845.9c121.4-87.2 193.5-227.4 193.4-376.9l0-64.2c0-24.2-2.3-48.9-6.8-73.4l-2.6-14.4h-34.6L3080 126.8V0zM2815.9 35.2h35.2v35.2h-35.2V35.2zM3044.8 94.7l-19.5-9.7L3044.8 70.4V94.7zM2753.2 316.9h-66.8l-32-70.4h66.3L2753.2 316.9zM2615.7 246.5l32 70.4h-78.3v-35.2c0-19.4 15.8-35.2 35.2-35.2H2615.7zM2598.5 59.3l70 30 -16.5 8.3 52.5 113.8h-66l-42.9-94.4 -15.8 7.9L2598.5 59.3zM2578.6 164.8l21.4 47c-36.6 2.5-65.7 32.7-65.7 70v35.2h-70.4v-26.8c35.2-23.6 59.1-60.5 67.2-101.5L2578.6 164.8zM2314.2 265.1c-38-22-61.6-62.9-61.6-106.6 0-67.9 55.3-123.2 123.2-123.2 67.9 0 123.2 55.3 123.2 123.2 0 43.7-23.6 84.6-61.6 106.6l-8.8 5.1v46.7h-35.2V208c20.4-7.3 35.2-26.7 35.2-49.6 0-29.1-23.7-52.8-52.8-52.8 -29.1 0-52.8 23.7-52.8 52.8 0 22.9 14.8 42.3 35.2 49.6v108.9h-35.2v-46.7L2314.2 265.1zM2358.1 158.4c0-9.7 7.9-17.6 17.6-17.6 9.7 0 17.6 7.9 17.6 17.6 0 9.7-7.9 17.6-17.6 17.6C2366 176.1 2358.1 168.2 2358.1 158.4zM3009.5 404.8l0 64.2c0.1 141-69.4 273.1-185.8 353.2l-7.6 5.3v228.5h-352.1V897.6h-176.1V682.8l-114.2-26 103-183.8 -1-6.1c-6.5-38.5-7-77.1-1.3-114.8h13.3 176.1 541.9C3008.3 369.8 3009.5 387.4 3009.5 404.8zM2913 316.9l87.8-204.8 39 19.5 -77.2 185.3H2913z"/><path d="M2411 457.8c-29.1 0-52.8-23.7-52.8-52.8h-35.2c0 48.5 39.5 88 88 88s88-39.5 88-88h-35.2C2463.8 434.1 2440.1 457.8 2411 457.8z"/><path d="M1448.7 1023.2c-7.9 0-15-3.7-19.5-10.3 -6.1-8.9-14.3-21 46.8-178.6l-28.9-2.6c-10.5-0.9-19.6-6.4-24.7-15 -5.2-8.6-5.8-19.1-1.7-28.9l78.4-187.4c6.2-14.8 22.4-25.6 38.5-25.6l75.8 1.6c10.8 0.2 20.2 5.2 25.8 13.6 5.6 8.4 6.7 19 2.9 29l-36.9 96.8 29.2 2.6c11.5 1 20.7 7.1 25.1 16.7 4.4 9.5 3.2 20.5-3.5 30 -11 15.6-49.7 70.5-89.4 124.7C1469 1023.2 1462.2 1023.2 1448.7 1023.2zM1495.8 791.9c10.5 1 19.5 6.4 24.7 14.9 5.2 8.5 6 19 2.2 28.7 -10.6 26.9-21 54.8-29.8 79.8 30.7-40.7 71.3-96.5 112.9-155.4l-20.2-1.9c-10.4-0.9-19.4-6.3-24.7-14.8 -5.3-8.4-6.2-18.9-2.4-28.7l36.1-94.7 -55.6-1.2 -71.4 170.6L1495.8 791.9z"/><path d="M1913.7 235.7c1-7.3 1.6-14.7 1.6-22.1 0-85.1-65.2-154.3-145.2-154.3 -19 0-37.6 4-55 11.5C1684.7 27.1 1632.8 0 1576.4 0c-52.2 0-100.7 23.1-131.8 61.7 -16-7.6-33-11.5-50.4-11.5 -54 0-101.5 37.3-122.5 93.5 -7.7-1.6-15.4-2.4-23.3-2.4 -73.8 0-133.8 70.2-133.8 156.6 0 4.8 0.2 9.5 0.6 14.3 -34.4 24.6-55.2 64-55.2 106.4 0 72.5 60.1 131.6 133.9 131.6l695.2-0.1c73.4-1.9 130.9-71.6 130.9-158.7C2020 314.8 1974.3 250.8 1913.7 235.7zM1576.1 325.9c11.3 0 20.5 9.2 20.5 20.5 0 11.3-9.2 20.5-20.5 20.5s-20.5-9.2-20.5-20.5C1555.7 335 1564.8 325.9 1576.1 325.9zM1459.3 390.5c11.3 0 20.5 9.2 20.5 20.5 0 11.3-9.2 20.5-20.5 20.5 -11.3 0-20.5-9.2-20.5-20.5C1438.8 399.7 1448 390.5 1459.3 390.5zM1153 346.2l15.6-8.3 -3-17.4c-1.3-7.4-1.9-15-1.9-22.6 0-59.3 38-107.5 84.8-107.5 9.9 0 19.7 2.3 29.3 6.8l28.2 13.3 6.3-30.6c9.7-47.5 43.5-80.6 82-80.6 14.9 0 29.7 5.2 42.8 15l2.8 2.1v147.3h-125.4c-7.9-17.8-25.6-30.3-46.3-30.3 -28 0-50.7 22.7-50.7 50.7 0 28 22.7 50.7 50.7 50.7 20.7 0 38.5-12.4 46.3-30.3h125.5v59.3c-11.5 5.1-20.8 14.4-25.9 25.9H1114.6C1121.6 371.5 1135 355.9 1153 346.2zM1288.8 284.9c0 11.3-9.2 20.5-20.5 20.5 -11.3 0-20.5-9.2-20.5-20.5 0-11.3 9.2-20.5 20.5-20.5C1279.7 264.5 1288.8 273.7 1288.8 284.9zM1689.4 500.9l-495.6 0.1c-42.5 0-77.5-30.7-83.5-70.5h303.7c7.9 17.8 25.6 30.2 46.3 30.2 28 0 50.7-22.7 50.7-50.7 0-20.7-12.4-38.5-30.2-46.3V98.6h-2.2c17.7-25.4 45.8-42.6 77.6-47.7v247.9c-17.8 7.9-30.3 25.6-30.3 46.3 0 28 22.7 50.7 50.7 50.7 28 0 50.7-22.7 50.7-50.7 0-20.7-12.5-38.5-30.3-46.3V50.9c38 6.3 70.8 29.6 86.5 63.2l12.2 26 23.8-16.1c15.2-10.3 32.7-15.8 50.5-15.8 53 0 96.2 47.2 96.2 105.3 0 11.8-2 23.5-5.7 35h-104.4c-7.9-17.8-25.6-30.3-46.3-30.3 -28 0-50.7 22.7-50.7 50.7 0 20.7 12.5 38.5 30.3 46.3V500.9L1689.4 500.9zM1709.7 289.6c-11.3 0-20.5-9.2-20.5-20.5 0-11.3 9.2-20.5 20.5-20.5 11.3 0 20.5 9.2 20.5 20.5C1730.2 280.5 1721 289.6 1709.7 289.6zM1842.1 343.8c-28 0-50.7 22.7-50.7 50.7 0 28 22.7 50.7 50.7 50.7 20.7 0 38.5-12.5 46.3-30.3h80.5c-8.4 48.2-41.4 85-80.5 86l-158.1 0V315.3c11.5-5.1 20.8-14.3 25.9-25.9h160.9v-0.4c27.5 14 48 46.1 52.7 85h-81.4C1880.5 356.2 1862.8 343.8 1842.1 343.8zM1861.8 396.2c0 11.3-9.2 20.5-20.5 20.5 -11.3 0-20.5-9.2-20.5-20.5 0-11.3 9.2-20.5 20.5-20.5C1852.7 375.7 1861.8 384.9 1861.8 396.2z"/><polygon points="-646.7 2019.4 -670.6 2040.6 -578.4 2144.3 -578.4 2144.3 -670.6 2040.6 "/><path d="M-500 1272c0 35.1-22.2 64.9-53.9 75.7 31.7-10.8 53.9-40.6 53.9-75.7 0-44.2-35.8-80-80-80l0 0C-535.8 1192-500 1227.8-500 1272z"/><path d="M-500 1822.7c0 35.1-22.2 64.9-53.9 75.7 31.7-10.8 53.9-40.6 53.9-75.7 0-44.2-35.8-80-80-80l0 0C-535.8 1742.7-500 1778.5-500 1822.7z"/><polygon points="-513.5 2019.6 -489.2 2040.4 -533.8 2092.4 -489.2 2040.4 "/><polygon points="-980 1736 -1012 1736 -1012 1832 -756 1832 -756 1800 -980 1800 "/><path d="M-980 1448h384 32H-284v-32h-280v-65.6c3.5-0.7 6.9-1.6 10.1-2.7 31.7-10.8 53.9-40.6 53.9-75.7 0-44.2-35.8-80-80-80h0c-41.4 0-75.5 31.5-79.6 71.8 -0.3 2.7-0.4 5.4-0.4 8.2 0 38.7 27 71 64 78.4V1416h-416v96h32V1448zM-628 1272c0-26.5 21.5-48 48-48 26.5 0 48 21.5 48 48 0 26.5-21.5 48-48 48C-606.5 1320-628 1298.5-628 1272z"/><polygon points="-180 1800 -420 1800 -420 1832 -148 1832 -148 1544 -180 1544 "/><path d="M-164 1362.7c-35.4 0-64 28.6-64 64 0 35.4 28.6 64 64 64 35.4 0 64-28.6 64-64C-100 1391.3-128.6 1362.7-164 1362.7z"/><path d="M-932 1622.7c0-35.4-28.6-64-64-64 -35.4 0-64 28.6-64 64 0 35.4 28.6 64 64 64C-960.6 1686.7-932 1658-932 1622.7z"/><path d="M-513.5 2019.6L-564 2078.4v-177.3c3.5-0.7 6.9-1.6 10.1-2.7 31.7-10.8 53.9-40.6 53.9-75.7 0-44.2-35.8-80-80-80h0c-41.4 0-75.5 31.5-79.6 71.8 -0.3 2.7-0.4 5.4-0.4 8.2 0 38.7 27 71 64 78.4v175.4l-50.7-57.1 -23.9 21.2 92.2 103.7v0l44.6-51.9 44.6-51.9L-513.5 2019.6zM-628 1822.7c0-26.5 21.5-48 48-48 26.5 0 48 21.5 48 48 0 26.5-21.5 48-48 48C-606.5 1870.7-628 1849.1-628 1822.7z"/><path d="M630.3 1546.8c5.9-8.5 7.1-18.1 3.2-26.5 -3.9-8.4-12-13.8-22.3-14.7l-37.1-3.3 40.9-107.5c3.4-9 2.5-18.5-2.5-25.9 -5-7.5-13.4-11.9-23.1-12.1l-79.4-1.7c-14.9 0-29.9 10-35.7 23.8l-82.2 196.4c-3.7 8.7-3.1 18.2 1.5 25.8 4.6 7.6 12.7 12.5 22.1 13.4l36.8 3.4 -2.4 6.1c-63.1 162.7-54.6 175.1-49.5 182.5 3.7 5.5 9.7 8.7 16.4 8.7 11.7 0 18.8 0 119.5-137.7C576.2 1623.4 615.3 1568.1 630.3 1546.8zM448.2 1735.5l10.6-30c9.4-26.6 20.2-55.6 31.3-83.8 3.4-8.8 2.7-18.2-1.9-25.7 -4.7-7.6-12.7-12.4-22.1-13.3l-36.3-3.3 78.6-188 68.6 1.5 -40.3 105.7c-3.4 8.8-2.6 18.2 2.1 25.7 4.7 7.5 12.8 12.3 22.1 13.2l29.7 2.8 -4.9 7c-42.9 60.7-86 120.1-118.4 162.9L448.2 1735.5z"/><path d="M959.8 1612.7c0-229-186.3-417.7-415.2-420.7 -1.8 0-3.6 0-5.3 0 -197.7 0-370.5 140.8-412.1 336.7 -10.3 48.3-11.6 98.2-3.8 148.3L0.3 1898.3 138 1937.4V2162h183v128h35v-165H173v-215.2l-119-34 107.5-192.1 -1.1-6.4c-8.1-47.7-7.2-95.1 2.5-141 38.3-180.6 198.6-310.1 381.1-307.7 209 2.7 379.1 175 379.1 384.1l0.1 66.8c0.1 146.6-72.2 283.9-193.2 367.1l-8 5.5V2290h0.2 36.6H759v-218.8c126-90.6 201-236.3 200.9-391.8L959.8 1612.7z"/><polygon points="722.2 2290 721.6 2290 356.2 2290 355.7 2290 321 2290 321 2326.2 321 2327 759 2327 759 2290 758.8 2290 "/><path d="M1105.8 1587.2c13.8 8 29.5 12.2 45.3 12.2 26.9 0 52.7-12.1 70-32.6l59.8 34.5 -42 7.1 5.4 31.9 105.5-17.9 -37.3-100.3 -30.3 11.3 14.9 39.9 -59.8-34.5c15-41.4-1.5-88-40-110.1 -13.9-8-29.7-12.3-45.7-12.3 -32.7 0-63.1 17.5-79.4 45.8 -12.2 21.2-15.5 45.9-9.1 69.5C1069.5 1555.2 1084.6 1575 1105.8 1587.2zM1151.6 1554.8c-25.4 0-46-21-46-46.8s20.6-46.8 46-46.8c25.4 0 46 21 46 46.8S1176.9 1554.8 1151.6 1554.8z"/><path d="M1524 1373.3l0 69.1 -27.1-32.8 -24.9 20.6 68.2 82.5 68.2-82.5 -24.9-20.6 -27.2 32.8 0-69.1c43.4-7.7 75.4-45.3 75.4-89.7 0-24.4-9.5-47.4-26.8-64.7 -17.3-17.3-40.3-26.8-64.8-26.8 -50.5 0-91.6 41.1-91.6 91.5C1448.6 1328 1480.6 1365.5 1524 1373.3zM1495.1 1272c3.3-12 11.1-22 21.9-28.3 7.2-4.2 15.4-6.4 23.6-6.4 16.5 0 31.8 8.7 39.9 22.8 6.1 10.6 7.7 23 4.4 35 -3.3 12-11.1 22-21.9 28.3 -7.2 4.2-15.4 6.4-23.6 6.4 -16.5 0-31.7-8.7-39.9-22.8C1493.4 1296.4 1491.8 1284 1495.1 1272z"/><path d="M1841.9 1608.9l-42.1-6.6 59.4-35.3c17.3 20 42.8 31.8 69.3 31.8 16.2 0 32.3-4.4 46.3-12.8 21-12.5 35.9-32.4 42-56.1 6-23.7 2.5-48.3-10-69.4 -16.4-27.6-46.6-44.8-78.8-44.8 -16.4 0-32.5 4.4-46.7 12.9 -38.2 22.7-54.1 69.4-38.6 110.6l-59.4 35.3 14.3-40.1 -30.4-10.9 -36 100.8 105.7 16.5L1841.9 1608.9zM1887.2 1484.3c8.1-14.4 23.5-23.3 40.2-23.3 8 0 16 2.1 23.1 6.1 10.9 6.1 18.8 16.1 22.3 28 3.4 11.9 2 24.3-4 35 -8.1 14.4-23.5 23.3-40.2 23.3 -8 0-16-2.1-23.1-6.1 -10.9-6.1-18.8-16.1-22.3-28C1879.7 1507.5 1881.2 1495 1887.2 1484.3z"/><path d="M1239.4 1856.7l42 7.1 -59.8 34.5c-17.3-20.5-43.1-32.6-70-32.6 -15.8 0-31.5 4.2-45.3 12.2 -21.2 12.2-36.3 32-42.7 55.6 -6.3 23.6-3.1 48.3 9.2 69.5 16.3 28.2 46.7 45.8 79.4 45.8 16 0 31.8-4.2 45.7-12.3 38.5-22.2 55-68.7 40-110.2l59.8-34.5 -14.8 39.9 30.3 11.3 37.3-100.3 -105.5-17.8L1239.4 1856.7zM1197.9 1957.1c0 25.8-20.6 46.8-46 46.8 -25.4 0-46-21-46-46.8s20.6-46.8 46-46.8C1177.3 1910.3 1197.9 1931.3 1197.9 1957.1z"/><path d="M1556.7 2091.9l0-69.1 27.2 32.8 24.9-20.6 -68.2-82.5 -68.2 82.5 24.9 20.6 27.1-32.8 0 69.1c-43.4 7.7-75.4 45.3-75.4 89.7 0 50.5 41.1 91.5 91.6 91.5h0c24.5 0 47.4-9.5 64.7-26.8 17.3-17.3 26.8-40.3 26.8-64.7C1632.1 2137.1 1600.1 2099.6 1556.7 2091.9zM1580.9 2204.9c-8.1 14.1-23.4 22.8-39.9 22.8 -8.2 0-16.4-2.2-23.6-6.4 -22.3-12.9-30.2-41.2-17.5-63.2 8.1-14.1 23.4-22.8 39.9-22.8 8.2 0 16.4 2.2 23.6 6.4C1585.7 2154.6 1593.6 2182.9 1580.9 2204.9z"/><path d="M2017.1 1935.2c-6-23.7-20.9-43.6-42-56.1 -14.1-8.4-30.1-12.8-46.3-12.8 -26.5 0-52 11.8-69.3 31.8l-59.4-35.3 42.1-6.6 -5-31.9 -105.7 16.5 36 100.8 30.4-10.9 -14.3-40.1 59.4 35.3c-15.5 41.2 0.4 87.9 38.6 110.6 14.2 8.4 30.3 12.9 46.7 12.9 32.2 0 62.4-17.2 78.8-44.8C2019.6 1983.6 2023.2 1958.9 2017.1 1935.2zM1973.1 1970.1c-3.5 11.9-11.4 21.9-22.3 28 -7.1 4-15.1 6.1-23.1 6.1 -16.7 0-32.1-8.9-40.2-23.3 -6-10.7-7.4-23.1-4-35 3.4-11.9 11.4-21.8 22.3-28 7.1-4 15.1-6.1 23.1-6.1 16.7 0 32.1 8.9 40.2 23.3C1975.1 1945.7 1976.5 1958.2 1973.1 1970.1z"/><path d="M1540.2 1565.8c-91.8 0-166.4 74.7-166.4 166.4 0 91.8 74.7 166.4 166.4 166.4 91.8 0 166.4-74.7 166.4-166.4C1706.6 1640.5 1631.9 1565.8 1540.2 1565.8zM1540.2 1854.7c-65 0-117.9-52.9-117.9-117.9s52.9-117.9 117.9-117.9c65 0 117.9 52.9 117.9 117.9S1605.2 1854.7 1540.2 1854.7z"/><path d="M3718.5-860.1l-3.1 12.8 3.1-12.8 83.4-360.6c0.3-1.3 0.4-2.5 0.5-3.8 -0.1 1.2-0.2 2.3-0.5 3.4L3718.5-860.1z"/><path d="M3648.5-698.5c0.4-1.5 0.5-3.1 0.5-4.6 0 1.3-0.2 2.6-0.5 4l-52.7 228.5 -14.1 61 0.1-0.3 14-60.3L3648.5-698.5z"/><path d="M3874.8-847.4c7.2 0 13.8 4.7 17.3 11 1.8 3.2 2.5 6.9 2.4 10.5 0.1-3.7-0.6-7.3-2.4-10.5C3888.6-842.7 3882-847.4 3874.8-847.4z"/><path d="M3427.9-693.4c-1.7-3.1-2.5-6.7-2.4-10.3 -0.1 3.6 0.6 7.2 2.4 10.4 3.4 6.4 10.1 11.1 17.3 11.1C3438-682.3 3431.4-687 3427.9-693.4z"/><path d="M3601.5-669.6l-83.4 360.6c-0.3 1.3-0.4 2.5-0.4 3.8 0.1-1.1 0.2-2.3 0.4-3.4L3601.5-669.6z"/><path d="M3671.5-831.2c-0.4 1.5-0.5 3.1-0.5 4.6 0-1.3 0.2-2.6 0.5-4l52.8-228.5 14.1-60.9 -0.1 0.2 -13.9 60.3L3671.5-831.2z"/><path d="M3952.4-914c3.4 0 6.8-0.9 9.8-2.6l106.3-61.4c9.4-5.4 12.6-17.5 7.2-26.9 -3.5-6.1-10.1-9.9-17.1-9.9 -3.4 0-6.8 0.9-9.8 2.7L3942.5-950.7c-9.4 5.4-12.7 17.5-7.3 26.9C3938.8-917.7 3945.3-914 3952.4-914z"/><path d="M3370-617.2c-3.4 0-6.8 0.9-9.8 2.7l-108.7 62.8c-9.4 5.4-12.6 17.5-7.2 26.9 3.5 6 10.1 9.8 17.1 9.8 3.5 0 6.8-0.9 9.8-2.6l108.7-62.8c9.4-5.4 12.6-17.5 7.2-26.9C3383.6-613.4 3377.1-617.2 3370-617.2z"/><path d="M3342.1-767.5c0-10.8-8.8-20.5-19.7-20.5h-122.8c-10.8 0-19.7 9.7-19.7 20.5 0 10.9 8.8 20.5 19.7 20.5h122.8C3333.3-747 3342.1-756.6 3342.1-767.5z"/><path d="M3379.9-949.3l-108.7-62.8c-3-1.8-6.4-2.7-9.8-2.7 -7 0-13.5 3.8-17.1 9.9 -2.6 4.5-3.3 9.8-1.9 14.9 1.4 5.1 4.6 9.3 9.2 11.9l108.7 62.8c3 1.7 6.4 2.6 9.8 2.6 7.1 0 13.6-3.8 17.1-9.8 2.6-4.6 3.3-9.9 2-14.9C3387.7-942.5 3384.5-946.7 3379.9-949.3z"/><path d="M4120.3-788h-122.7c-10.8 0-19.7 9.7-19.7 20.5 0 10.9 8.8 20.5 19.7 20.5h122.7c10.9 0 19.7-9.6 19.7-20.5C4140-778.3 4131.2-788 4120.3-788z"/><path d="M4068.5-551.8l-106.3-61.4c-3-1.7-6.4-2.7-9.8-2.7 -7 0-13.6 3.8-17.1 9.9 -5.4 9.4-2.2 21.4 7.2 26.9l106.3 61.3c3 1.7 6.3 2.6 9.8 2.6 7 0 13.6-3.8 17.1-9.8 2.6-4.5 3.3-9.9 2-14.9C4076.3-544.9 4073-549.2 4068.5-551.8z"/><path d="M3874.8-856h-145.6 -13.8l3.1-8.5 83.4-358.8c0.2-1.1 0.4-1.2 0.5-2.3 0.3-8-4.3-15-12-18.2 -2.5-1-5-1.3-7.6-1.3 -6.7 0-12.9 3.6-16.5 9.2l-337.6 521.9c-2 3-3 6.6-3.2 10.2 -0.1 3.6 0.7 5.9 2.4 9 3.4 6.3 10.1 9.7 17.3 9.7h145.6 13.8l-3.1 14 -83.4 361.6c-0.2 1.1-0.4 2.6-0.4 3.7 -0.3 8 4.3 15.7 12 18.9 2.5 1 5 1.7 7.7 1.7 6.7 0 12.9-3.3 16.5-9l337.6-521.6c2-3 3-6.7 3.2-10.3 0.1-3.7-0.6-11.6-2.4-14.8C3888.6-847 3882-856 3874.8-856zM3827.6-790.3l-211.9 328.5 -34 52.6 0.1-0.7 -0.1 0.2 14.1-61 52.7-228.5c0.3-1.4 0.5-2.7 0.5-4 -0.1-4.1-1.5-10.6-4.3-14.1 -3.7-4.7-9.4-8.8-15.4-8.8h-127.7 -20.2l11-15.6 211.9-327.4 34-52.1 -0.1 1 0.1-0.1 -14.1 61 -52.8 228.5c-0.3 1.4-0.4 2.7-0.5 4 0 4.1 1.5 8.5 4.3 12 3.7 4.7 9.4 6.7 15.4 6.7h127.7 20.2L3827.6-790.3z"/><polyline points="3334 106 3458 0 3582 106 " class="c"/><polyline points="3582 106 3706 0 3830 106 " class="c"/><polyline points="3830 106 3954 0 4078 106 " class="c"/><polyline points="4078 106 4202 0 4326 106 " class="c"/><polyline points="4326 106 4450 0 4574 106 " class="c"/><polyline points="4574 106 4698 0 4822 106 " class="c"/><polyline points="4822 106 4946 0 5070 106 " class="c"/><polyline points="5070 106 5194 0 5318 106 " class="c"/><path d="M3327.9 344.3c-2.9 3.4-2.5 8.4 0.9 11.3l4.2 3.6v-17.6C3331.1 341.8 3329.3 342.7 3327.9 344.3z" class="d"/><path d="M5324.1 344.3c-2.9-3.4-7.9-3.8-11.3-0.9L5194 445l-118.8-101.6c0 0-0.1-0.1-0.1-0.1 -0.1-0.1-0.2-0.2-0.3-0.2 -0.1-0.1-0.2-0.1-0.3-0.2 -0.1-0.1-0.2-0.1-0.3-0.2 -0.1-0.1-0.2-0.1-0.3-0.2 -0.1-0.1-0.2-0.1-0.3-0.2 -0.1-0.1-0.3-0.1-0.4-0.2 -0.1 0-0.2-0.1-0.3-0.1 -0.2-0.1-0.3-0.1-0.5-0.2 -0.1 0-0.1 0-0.2-0.1 -0.5-0.1-1-0.2-1.4-0.3 -0.1 0-0.2 0-0.2 0 -0.1 0-0.3 0-0.4 0 0 0 0 0-0.1 0 -0.2 0-0.4 0-0.6 0 -0.1 0-0.1 0-0.2 0 -0.5 0.1-1.1 0.2-1.6 0.3 0 0-0.1 0-0.1 0.1 -0.2 0.1-0.4 0.1-0.6 0.2 -0.1 0-0.2 0.1-0.3 0.1 -0.2 0.1-0.3 0.2-0.5 0.2 -0.1 0.1-0.2 0.1-0.3 0.2 -0.1 0.1-0.2 0.2-0.4 0.2 -0.1 0.1-0.2 0.2-0.3 0.3 -0.1 0.1-0.1 0.1-0.2 0.2L4946 445l-118.8-101.6c0 0-0.1-0.1-0.1-0.1 -0.1-0.1-0.2-0.2-0.3-0.2 -0.1-0.1-0.2-0.1-0.3-0.2 -0.1-0.1-0.2-0.1-0.3-0.2 -0.1-0.1-0.2-0.1-0.3-0.2 -0.1-0.1-0.2-0.1-0.3-0.2 -0.1-0.1-0.3-0.1-0.4-0.2 -0.1 0-0.2-0.1-0.3-0.1 -0.2-0.1-0.3-0.1-0.5-0.2 -0.1 0-0.1 0-0.2-0.1 -0.5-0.1-1-0.2-1.5-0.3 -0.1 0-0.2 0-0.2 0 -0.1 0-0.3 0-0.4 0 0 0 0 0-0.1 0 -0.2 0-0.4 0-0.7 0 0 0-0.1 0-0.1 0 -0.5 0.1-1.1 0.2-1.6 0.3 0 0-0.1 0-0.1 0.1 -0.2 0.1-0.4 0.1-0.6 0.2 -0.1 0-0.2 0.1-0.3 0.1 -0.2 0.1-0.3 0.2-0.5 0.2 -0.1 0.1-0.2 0.1-0.3 0.2 -0.1 0.1-0.2 0.2-0.4 0.2 -0.1 0.1-0.2 0.2-0.3 0.3 -0.1 0.1-0.1 0.1-0.2 0.2L4698 445l-118.8-101.6c0 0-0.1-0.1-0.1-0.1 -0.1-0.1-0.2-0.2-0.3-0.2 -0.1-0.1-0.2-0.1-0.3-0.2 -0.1-0.1-0.2-0.1-0.3-0.2 -0.1-0.1-0.2-0.1-0.3-0.2 -0.1-0.1-0.2-0.1-0.3-0.2 -0.1-0.1-0.3-0.1-0.4-0.2 -0.1 0-0.2-0.1-0.3-0.1 -0.2-0.1-0.3-0.1-0.5-0.2 -0.1 0-0.1 0-0.2-0.1 -0.5-0.1-1-0.2-1.5-0.3 -0.1 0-0.2 0-0.2 0 -0.1 0-0.3 0-0.4 0 0 0 0 0-0.1 0 -0.2 0-0.4 0-0.7 0 0 0-0.1 0-0.1 0 -0.5 0.1-1.1 0.2-1.6 0.3 0 0-0.1 0-0.1 0.1 -0.2 0.1-0.4 0.2-0.6 0.2 -0.1 0-0.2 0.1-0.3 0.1 -0.2 0.1-0.3 0.2-0.5 0.2 -0.1 0.1-0.2 0.1-0.3 0.2 -0.1 0.1-0.3 0.2-0.4 0.2 -0.1 0.1-0.2 0.2-0.3 0.3 -0.1 0.1-0.1 0.1-0.2 0.2L4450 445l-118.8-101.6c0 0-0.1-0.1-0.1-0.1 -0.1-0.1-0.2-0.2-0.3-0.2 -0.1-0.1-0.2-0.1-0.3-0.2 -0.1-0.1-0.2-0.1-0.3-0.2 -0.1-0.1-0.2-0.1-0.3-0.2 -0.1-0.1-0.2-0.1-0.3-0.2 -0.1-0.1-0.3-0.1-0.4-0.2 -0.1 0-0.2-0.1-0.3-0.1 -0.2-0.1-0.3-0.1-0.5-0.2 -0.1 0-0.1 0-0.2-0.1 -0.5-0.1-1-0.2-1.4-0.3 -0.1 0-0.2 0-0.2 0 -0.1 0-0.3 0-0.4 0 0 0 0 0-0.1 0 -0.2 0-0.4 0-0.6 0 -0.1 0-0.1 0-0.2 0 -0.5 0.1-1.1 0.2-1.6 0.3 0 0-0.1 0-0.1 0.1 -0.2 0.1-0.4 0.1-0.6 0.2 -0.1 0-0.2 0.1-0.3 0.1 -0.2 0.1-0.3 0.2-0.5 0.2 -0.1 0.1-0.2 0.1-0.3 0.2 -0.1 0.1-0.2 0.2-0.4 0.2 -0.1 0.1-0.2 0.2-0.3 0.3 -0.1 0.1-0.1 0.1-0.2 0.2L4202 445l-118.8-101.6c0 0-0.1-0.1-0.1-0.1 -0.1-0.1-0.2-0.2-0.3-0.2 -0.1-0.1-0.2-0.1-0.3-0.2 -0.1-0.1-0.2-0.1-0.3-0.2 -0.1-0.1-0.2-0.1-0.3-0.2 -0.1-0.1-0.2-0.1-0.3-0.2 -0.1-0.1-0.3-0.1-0.4-0.2 -0.1 0-0.2-0.1-0.3-0.1 -0.2-0.1-0.3-0.1-0.5-0.2 -0.1 0-0.1 0-0.2-0.1 0 0-0.1 0-0.1 0v20L4202 466l124-106 124 106 124-106 124 106 124-106 124 106 124-106 124 106 129.2-110.4C5326.6 352.7 5327 347.6 5324.1 344.3z" class="d"/><path d="M3830.7 341.5c-0.1 0-0.2 0-0.2 0 -0.1 0-0.3 0-0.4 0 0 0 0 0-0.1 0 -0.2 0-0.4 0-0.7 0 0 0-0.1 0-0.1 0 -0.5 0.1-1.1 0.2-1.6 0.3 0 0-0.1 0-0.1 0.1 -0.2 0.1-0.4 0.2-0.6 0.2 -0.1 0-0.2 0.1-0.3 0.1 -0.2 0.1-0.3 0.2-0.5 0.2 -0.1 0.1-0.2 0.1-0.3 0.2 -0.1 0.1-0.3 0.2-0.4 0.2 -0.1 0.1-0.2 0.2-0.3 0.3 -0.1 0.1-0.1 0.1-0.2 0.2L3706 445l-118.8-101.6c0 0-0.1-0.1-0.1-0.1 -0.1-0.1-0.2-0.2-0.3-0.2 -0.1-0.1-0.2-0.1-0.3-0.2 -0.1-0.1-0.2-0.1-0.3-0.2 -0.1-0.1-0.2-0.1-0.3-0.2 -0.1-0.1-0.2-0.1-0.3-0.2 -0.1-0.1-0.3-0.1-0.4-0.2 -0.1 0-0.2-0.1-0.3-0.1 -0.2-0.1-0.3-0.1-0.5-0.2 -0.1 0-0.1 0-0.2-0.1 -0.5-0.1-1-0.2-1.4-0.3 -0.1 0-0.2-0.2-0.2-0.2 -0.1 0-0.3-0.3-0.4-0.3H3582v19l124 106 124-106 1 0.9v-19.3C3830.9 341.5 3830.8 341.5 3830.7 341.5z" class="d"/><path d="M4080 303h-249 -249 -249v38.5 17.6V567h249 249 249V361.7v-20V303zM3830 360l-124 106 -124-106v-19h0c0.1 0 0.3 0.2 0.4 0.3 0.1 0 0.2 0.1 0.2 0.1 0.5 0 1 0.2 1.5 0.3 0.1 0 0.1 0.1 0.2 0.1 0.2 0.1 0.3 0.1 0.5 0.2 0.1 0 0.2 0.1 0.3 0.1 0.1 0.1 0.3 0.1 0.4 0.2 0.1 0.1 0.2 0.1 0.3 0.2 0.1 0.1 0.2 0.1 0.3 0.2 0.1 0.1 0.2 0.1 0.3 0.2 0.1 0.1 0.2 0.1 0.3 0.2 0.1 0.1 0.2 0.2 0.3 0.2 0 0 0.1 0.1 0.1 0.1L3706 445l118.8-101.6c0.1-0.1 0.1-0.1 0.2-0.2 0.1-0.1 0.2-0.2 0.3-0.3 0.1-0.1 0.2-0.2 0.4-0.2 0.1-0.1 0.2-0.1 0.3-0.2 0.2-0.1 0.3-0.2 0.5-0.2 0.1 0 0.2-0.1 0.3-0.1 0.2-0.1 0.4-0.2 0.6-0.2 0 0 0.1 0 0.1 0 0.5-0.2 1.1-0.3 1.6-0.3 0 0 0.1 0 0.1 0 0.2 0 0.4 0 0.7 0 0 0 0 0 0.1 0 0.1 0 0.3 0 0.4 0 0.1 0 0.2 0 0.2 0 0.1 0 0.2 0 0.3 0v19.3L3830 360z" fill="#F00"/><polygon points="4719 -296.1 4240 -662 4240 -547 4711.3 -188 4718.9 -181.6 4726.6 -188 5200 -547 5200 -662 " class="e"/><polygon points="4717.9 -104.5 4240 -503 4240 -419.7 4717.9 -21.2 5200 -419.1 5200 -503 " class="e"/><polygon points="4719 -956.1 4240 -1245 4240 -1053 4711.3 -771 4718.9 -764.6 4726.6 -771 5200 -1053 5200 -1245 " fill="#FB4D5B"/><path d="M1766.6-2353.1c0-10.5 0-20.2 0-30.4 3.4-0.2 6.5-0.3 10.1-0.5 0.5-3.9 1-7.7 1.6-12.1 -4.2 0-7.8 0-12.4 0 0.5-4.2-0.2-9 1.8-11.2 2-2.3 6.8-2 10.8-3 -0.1 0.2 0.3-0.1 0.2-0.4 -0.5-3.3 2.5-7.8-1.8-9.8 -6.4-2.9-17.8 0.5-20.5 6.2 -1.7 3.4-2 7.6-2.6 11.5 -0.3 1.9-0.1 4-0.1 6.4 -3.5 0.2-6.8 0.3-10.3 0.5 0 3.9 0 7.6 0 11.8 3.3 0.2 6.5 0.4 10 0.6 0 10.1 0 19.8 0 29.9 -0.7 0.1-1.5 0.4-2.3 0.4 -11.3 0-22.7 0-34 0.1 -4.1 0-6.1-1.7-6.1-6 0.1-22.7 0-45.3 0-68 0-4.2 2-6 6.2-6 22.5 0.1 45 0.1 67.5 0 4.5 0 6.3 2 6.2 6.4 -0.1 22.5-0.1 45 0 67.5 0 3.5-1.2 5.9-5.1 6C1779.6-2353 1773.3-2353.1 1766.6-2353.1z"/><path d="M2222.9-2353.2c-26.8 0-53 0-79.5 0 -0.1-1.5-0.3-2.9-0.3-4.4 0-20.5 0-41 0-61.5 0-6.4 1.6-8 7.9-8 21.3 0 42.7 0 64 0 6.3 0 7.9 1.6 8 8 0 20.7 0 41.3 0 62C2222.9-2356 2222.9-2354.8 2222.9-2353.2zM2174.4-2397.3c0 13 0 25.4 0 37.9 4 0 7.5 0 11.6 0 0-6.6-0.2-12.9 0.1-19.1 0.1-2.5 0.8-5.6 2.4-7.2 1.4-1.4 4.8-2.1 6.6-1.4 1.8 0.7 3.5 3.6 3.6 5.7 0.4 7.2 0.2 14.5 0.2 22 4.5 0 8.2 0 11.9 0 0-9.2 0.5-18-0.1-26.7 -0.8-9.9-9.7-14.9-18.9-11.2 -2 0.8-3.7 2-5.3 2.9C2183.3-2399.8 2178.5-2396.2 2174.4-2397.3zM2166.6-2359.3c0-12.8 0-25.2 0-37.6 -4 0-7.7 0-11.3 0 0 12.7 0 25.1 0 37.6C2159.1-2359.3 2162.6-2359.3 2166.6-2359.3zM2167.8-2409.5c0-3.6-3.4-7-7.1-6.9 -3.9 0-6.9 3.1-6.9 7 0 3.8 3.1 7 6.9 7C2164.5-2402.5 2167.9-2405.9 2167.8-2409.5z"/><path d="M2460.3-2355.1c2.1-6 4.3-12.1 6.4-18.1 10.2 4.7 18.2 3.3 24.2-4.5 7.2-9.3 7.5-23.2 0.7-31.6 -6.6-8.1-18-11.1-29.1-7.7 -9.8 3-16 10.7-17 21.2 -0.7 7.3 2.7 14.1 9.6 17.7 0-2.9 0.7-5.6-0.1-7.6 -3.4-8.7-2.4-15.7 3.6-20.9 5.9-5.1 15.5-5.8 21.9-1.6 6.1 4 8.5 12 5.9 20.6 -1.5 5.2-4.1 9.6-10 10.6 -5.3 0.9-8.4-2.4-7.2-7.7 0.9-3.7 2.2-7.3 2.9-11.1 0.6-3 0-6.4-3.5-6.5 -2.3-0.1-5.2 1.6-6.9 3.3 -1.3 1.3-2.1 4.2-1.6 6 1.8 6.9-0.9 13.1-2.1 19.5 -1 5.4-1.8 10.8-2.7 16.2 -14.4-1.7-26.9-24.2-23.4-43.1 4.2-22.7 26.8-37.1 49.2-31.3 22.1 5.7 34.9 29.2 27.9 50.8C2502.2-2360.2 2478.5-2347.7 2460.3-2355.1z"/><path d="M1893.9-2405.4c0.1-2.3 0.1-4.1 0.3-5.8 1.4-10.8 13.5-17.7 22.9-12.4 5.2 2.9 9.3 3.3 14.8 1.1 -1.5 2.1-3 4.3-4.8 6.9 2.3-0.4 4.2-0.7 6.2-1.1 0 0.3 0.1 0.7 0 0.7 -5.8 4.4-6.5 10.7-7.5 17.3 -5 30.4-38.9 47.2-66.5 33.1 -0.7-0.4-1.3-0.9-2.5-1.7 4.3-0.7 8-0.9 11.5-1.9 3.5-1.1 6.8-3 10.1-5 -6.5-1.9-11.6-4.8-13.9-11.4 1.8-0.2 3.4-0.3 6.1-0.5 -7.1-3.5-11.7-7.9-11.9-15.7 2 0.3 3.7 0.6 6.3 1 -6.3-6.5-8.4-13.1-4.3-21.3C1869.6-2412.2 1880.1-2406.3 1893.9-2405.4z"/><path d="M2038.6-2352.7c-7.4-0.4-14.5-0.3-21.3-1.4 -9.9-1.5-16.6-7.9-17.3-17.9 -0.9-13.4-1.2-27-0.3-40.3 0.8-12.4 8-19.3 20.8-20.1 13.1-0.8 26.3-0.4 39.4 0.5 9.9 0.6 17.2 7.4 17.8 17.2 0.9 14.7 0.8 29.6-0.1 44.3 -0.5 8.8-7.8 15.1-17.1 16.4C2053.2-2353.1 2045.7-2353.1 2038.6-2352.7zM2038-2359.8c6.8-0.3 13.2-0.5 19.7-1 8.2-0.7 13.1-5.1 13.4-13.3 0.5-12.6 0.4-25.2 0-37.8 -0.3-7.8-5.2-12.9-13-13.2 -12.6-0.5-25.2-0.4-37.8 0 -8.1 0.3-13.1 5.1-13.4 13.3 -0.5 12.9-0.3 25.9 0.1 38.8 0.2 6.8 4.9 11.3 11.8 12.1C2025.3-2360.2 2031.8-2360.1 2038-2359.8z"/><path d="M2575.1-2427.6c8.9 4.4 17.1 8.4 25.1 12.6 0.9 0.5 1.5 2.2 1.5 3.4 0.1 16.8 0 33.6 0 50.4 0 0.6-0.4 1.2-0.9 2.8 -4-2-7.6-4.4-11.5-5.6 -11.7-3.5-15.8-10.6-14.4-22.8 1.3-11.5 0.3-23.2 0.3-34.9C2575.1-2423.3 2575.1-2424.9 2575.1-2427.6z"/><path d="M2319.7-2395.9c6.9 4.2 9.3 8.9 8.2 15.1 -1 5.9-5.3 10.3-12.6 10.7 -9.1 0.6-18.2 0.1-27.7 0.1 0-15.6 0-31.6 0-47.8 9.2 0 18.3-0.4 27.3 0.2 4.4 0.2 8.7 1.9 10.3 7.2C2327-2404.2 2324.9-2399.7 2319.7-2395.9zM2298.2-2390.9c0 4.8 0 9.1 0 14.1 4.9-0.3 9.4-0.3 13.8-0.8 3.7-0.4 5.3-3 5.2-6.7 -0.1-3.8-2-6.2-5.6-6.5C2307.2-2391.2 2302.7-2390.9 2298.2-2390.9zM2298-2397.8c4.9-0.3 9.3 0 13.4-1.1 1.8-0.5 3.8-3.8 3.8-5.8 0-1.7-2.6-4.6-4.4-4.9 -4.1-0.7-8.4-0.2-12.8-0.2C2298-2405.6 2298-2402.2 2298-2397.8z"/><path d="M2629.7-2373.6c-5.5-8.9-10.7-17.2-15.6-25.6 -0.8-1.3-0.6-3.9 0.2-5.3 3.8-6.7 7.9-13.1 11.9-19.6 1.2-2 2.3-3.5 5.1-2 7.5 3.9 15.1 7.6 23.5 11.8C2646.4-2400.8 2638.2-2387.5 2629.7-2373.6z"/><path d="M2366.4-2384.6c-8.2 0-16.6 0-25 0 -0.4 0.5-0.7 1-1.1 1.6 1.7 2.3 3.1 5.9 5.3 6.6 2.9 1 6.7 0 9.9-0.8 3.2-0.8 6.2-2.5 10.1-4.1 -1.4 9.4-9.3 14.3-18.6 13.1 -10.6-1.4-16.6-10.2-15-21.9 1.3-9.9 9.8-16.5 19.8-15.3C2361.8-2404.1 2367.7-2396.1 2366.4-2384.6zM2356.7-2390.3c-0.2-5.4-2.7-8-7.5-7.9 -4.9 0.1-7.4 2.7-7.2 8.1 3.4 0 6.9 0 10.3 0C2353.8-2390.1 2355.3-2390.2 2356.7-2390.3z"/><path d="M2654.7-2407.8c0 16.1 0 32.2 0 49.7 -8.3-4.1-15.9-7.9-24.1-11.9 7.9-12.9 15.5-25.5 23.2-38C2654.2-2408 2654.4-2407.9 2654.7-2407.8z"/><path d="M2605.1-2408.7c7.3 11.9 14.6 23.9 22 35.8 -0.2 0.3-0.4 0.5-0.7 0.8 -6.9-3.5-13.7-6.9-20.5-10.5 -0.9-0.5-1.7-2-1.7-3.1 -0.1-7.6-0.1-15.2-0.1-22.7C2604.4-2408.6 2604.7-2408.7 2605.1-2408.7z"/><path d="M2339.7-2414.8c6.4 0 12.5 0 18.6 0 0.7 4.4 0.7 4.4-3 4.5 -4.1 0.1-8.3-0.1-12.4 0.1C2339.7-2410.1 2338.7-2411.4 2339.7-2414.8z"/><path d="M2059.3-2392.9c-0.1 11.4-8.8 20.2-20.2 20.2 -11.6 0-20.6-8.9-20.5-20.4 0.1-11.6 9.1-20.4 20.7-20.2C2050.7-2413.2 2059.4-2404.3 2059.3-2392.9zM2052.2-2392.7c0.1-7.5-5.6-13.4-13-13.5 -7.5-0.1-13.4 5.6-13.5 12.9 -0.1 7.5 5.6 13.5 12.9 13.6C2046.2-2379.7 2052.2-2385.4 2052.2-2392.7z"/><path d="M2067.2-2414.5c-3.2 2.3-5.1 4.7-6.5 4.4 -1.8-0.3-3.3-2.8-4.9-4.3 1.5-1.5 2.8-4.1 4.4-4.2C2062-2418.7 2063.9-2416.6 2067.2-2414.5z"/><path d="M7813-2160h-853.7c-29.3 0-53.3 24.4-53.3 53.7v853.7c0 29.2 24.1 52.6 53.3 52.6H7420v-370h-126v-148h126v-104.9c0-123.9 76.2-191.4 186.8-191.4 53 0 97.2 3.9 112.2 5.7v129.5l-78 0c-60.1 0-73 28.6-73 70.5V-1718h143.9l-18.7 148H7568v370h245c29.2 0 53-23.4 53-52.6v-853.7C7866-2135.6 7842.3-2160 7813-2160z"/><path d="M5779.9-1245C5514.9-1245 5300-1030.2 5300-765.2c0 212 137.5 391.9 328.1 455.3 24 4.4 32.8-10.4 32.8-23.1 0-11.4-0.4-49.2-0.7-89.3 -133.5 29-161.7-56.6-161.7-56.6 -21.8-55.5-53.3-70.2-53.3-70.2 -43.5-29.8 3.3-29.2 3.3-29.2 48.2 3.4 73.5 49.5 73.5 49.5 42.8 73.4 112.3 52.1 139.6 39.9 4.3-31 16.7-52.2 30.5-64.2 -106.6-12.1-218.6-53.3-218.6-237.1 0-52.4 18.7-95.2 49.4-128.8 -5-12.1-21.4-60.9 4.6-127 0 0 40.3-12.9 132 49.2 38.3-10.6 79.3-16 120.1-16.2 40.8 0.2 81.9 5.5 120.2 16.2 91.6-62.1 131.8-49.2 131.8-49.2 26.1 66.1 9.7 114.9 4.7 127 30.8 33.6 49.4 76.4 49.4 128.8 0 184.3-112.3 224.9-219.1 236.8 17.2 14.9 32.5 44.1 32.5 88.9 0 64.2-0.6 115.9-0.6 131.7 0 12.8 8.6 27.7 33 23 190.6-63.5 327.9-243.3 327.9-455.3C6259.7-1030.2 6044.9-1245 5779.9-1245z"/><path d="M5481.8-556c-1.1 2.4-4.8 3.1-8.2 1.5 -3.5-1.6-5.4-4.8-4.3-7.2 1-2.5 4.8-3.1 8.3-1.5C5481-561.7 5482.9-558.4 5481.8-556L5481.8-556zM5475.8-560.4"/><path d="M5501.2-534.4c-2.3 2.1-6.8 1.1-9.8-2.2 -3.1-3.3-3.7-7.8-1.4-10 2.4-2.1 6.7-1.1 9.8 2.2C5503-541 5503.6-536.5 5501.2-534.4L5501.2-534.4zM5496.6-539.3"/><path d="M5520.1-506.7c-2.9 2-7.7 0.1-10.7-4.1 -2.9-4.3-2.9-9.4 0.1-11.4 3-2 7.7-0.2 10.7 4C5523.1-513.9 5523.1-508.8 5520.1-506.7L5520.1-506.7zM5520.1-506.7"/><path d="M5546-480c-2.6 2.9-8.2 2.1-12.3-1.8 -4.2-3.9-5.4-9.4-2.7-12.3 2.7-2.9 8.3-2.1 12.4 1.8C5547.6-488.4 5548.8-482.9 5546-480L5546-480zM5546-480"/><path d="M5581.8-464.5c-1.2 3.8-6.5 5.5-12 3.9 -5.4-1.6-9-6-7.9-9.8 1.1-3.8 6.6-5.6 12-3.9C5579.4-472.7 5582.9-468.4 5581.8-464.5L5581.8-464.5zM5581.8-464.5"/><path d="M5621.1-461.7c0.1 4-4.5 7.2-10.2 7.3 -5.7 0.1-10.4-3.1-10.4-7 0-4 4.5-7.2 10.2-7.3C5616.4-468.8 5621.1-465.6 5621.1-461.7L5621.1-461.7zM5621.1-461.7"/><path d="M5657.6-467.9c0.7 3.9-3.3 7.8-8.9 8.9 -5.6 1-10.7-1.4-11.4-5.2 -0.7-4 3.3-7.9 8.9-8.9C5651.8-474.1 5656.9-471.8 5657.6-467.9L5657.6-467.9zM5657.6-467.9"/><path d="M7220-911.3c0-105.4 0-210.8 0-316.2 0.5-3 1.4-6 1.5-9 1.1-37.1 2.8-74.1 11.9-110.4 20.5-81.7 67.9-141.2 145.9-174.9 42.3-18.3 87.2-23.6 132.7-25.5 10-0.4 19.9-1.4 29.9-2.2 105.4 0 210.8 0 316.2 0 3 0.5 6 1.3 9 1.6 30.6 2.7 61.7 2.7 91.7 8.3 109.7 20.6 180.1 84.8 208 193.7 12.1 47.2 12.2 95.6 12.6 143.7 0.9 94.2 0.7 188.5-0.7 282.7 -0.5 36.7-2.1 73.9-8.8 109.8 -20.3 109.3-84.8 179.3-193.4 207.1 -46.8 12-94.9 12.3-142.7 12.6 -99.9 0.7-199.9-0.3-299.8-1 -37.8-0.3-75.5-2.5-112.3-11.9 -80.2-20.4-139.1-66.8-173-143.1 -19.1-43-24.7-88.9-26.6-135.4C7221.8-891.4 7220.7-901.3 7220-911.3zM7700.1-675.2c0-0.5 0-1 0-1.5 40 0 80 0.8 120-0.2 37.7-1 75.5-2.3 113-6.2 36.2-3.7 69.5-16.5 97.5-41.1 38.5-33.8 54.7-78.3 57.8-127.4 3.4-56.3 4.3-112.8 5-169.3 0.7-56.2 0.5-112.4-0.7-168.5 -0.8-37.7-2.4-75.5-6.2-113 -3.7-35.9-16.3-68.9-40.5-96.8 -33.9-39-78.5-55.4-128-58.5 -56.3-3.4-112.8-4.3-169.3-5 -56.2-0.7-112.4-0.5-168.5 0.7 -37.7 0.8-75.5 2.4-113 6.2 -35.9 3.7-68.9 16.3-96.8 40.5 -39 33.9-55.4 78.5-58.5 128 -3.4 56.3-4.3 112.8-5 169.3 -0.7 56.2-0.7 112.4 0.7 168.5 1.1 41.5 1.9 83.3 8.3 124.2 10.9 69.8 51.4 117 120.6 135.8 22.7 6.2 46.8 9.3 70.4 10.2C7571.3-676.9 7635.7-676.4 7700.1-675.2z"/><path d="M7946.8-1069c-0.1 136.5-110.8 246.6-247.6 246.3 -135.9-0.3-246-110.9-245.8-247.1 0.1-136.5 110.8-246.6 247.6-246.3C7836.9-1315.9 7946.9-1205.3 7946.8-1069zM7700.9-1229.1c-88.2 0-160.4 71.2-160.5 158.2 -0.1 88.9 71 161.2 158.4 161.2 88.8 0 160.9-71.1 161-158.7C7859.8-1157.1 7788.6-1229.1 7700.9-1229.1z"/><path d="M8014.1-1325.7c0.1 32.1-25.9 58.1-57.9 58.1 -31.8 0-58-26.4-57.9-58.3 0.2-31.6 26-57.4 57.6-57.5C7988.1-1383.6 8014-1357.9 8014.1-1325.7z"/><path d="M7841-889.7h-818.1c-39.1 0-70.8 31-70.8 69.2V1.1c0 38.2 31.7 69.3 70.8 69.3h818.1c39.1 0 71-31 71-69.3v-821.5C7912-858.7 7880.1-889.7 7841-889.7zM7236.8-71.6h-142.5v-458.1h142.5V-71.6zM7165.5-592.4c-45.7 0-82.6-37-82.6-82.6 0-45.6 36.9-82.6 82.6-82.6 45.6 0 82.5 37 82.5 82.6C7248.1-629.3 7211.1-592.4 7165.5-592.4zM7770-71.6h-142.4v-222.8c0-53.1-0.9-121.5-74-121.5 -74.1 0-85.4 57.9-85.4 117.7V-71.6h-142.2v-458.1h136.5v62.6h1.9c19-36 65.5-74 134.7-74 144.2 0 170.8 94.9 170.8 218.2V-71.6z"/><path d="M6813.3-1765.3c0 102.9 0 205.9 0 308.8 0 5.9 0.5 11.9-0.8 17.5 -2.7 11.9-10.2 17.2-22.5 12.6 -4.5-1.7-8.8-3.9-13-6 -84.8-42.4-169.4-85.1-254.5-127 -20.1-9.9-29.1-23.5-29.1-46.3 0.5-205.9 0.3-411.8 0.3-617.7 0-25.8 4.7-28.7 27.8-17.2 92 46 183.8 92.3 276 137.8 12.5 6.2 16.2 13.6 16.2 27.1C6813-1972.3 6813.3-1868.8 6813.3-1765.3z"/><path d="M7150-1602.9c-3.8-5.7-6.8-10-9.5-14.4 -63.9-103.9-127.6-207.9-191.8-311.6 -5.9-9.5-5.6-16.1 0.2-25.5 58.1-93.7 115.9-187.6 173.1-281.8 8.4-13.8 16-16.7 30.8-9.2 94.5 48 189.3 95.2 284 142.6 9.2 4.6 17 7.6 8.8 20.8 -97.4 157.7-194.3 315.7-291.3 473.6C7153.4-1607.1 7152.3-1605.9 7150-1602.9z"/><path d="M7453.3-2033.9c0 5.1 0 10.1 0 15.2 0 187.7 0 375.5 0 563.2 0 5.3 0.5 10.8-0.6 15.9 -2.6 11.9-9.6 17.6-22.1 13.1 -3-1.1-5.9-2.4-8.8-3.9 -83.8-41.9-167.7-83.9-251.5-125.8 -3.2-1.6-6.2-3.7-10.3-6.2 97.1-158 193.7-315.2 290.3-472.5C7451.2-2034.5 7452.3-2034.2 7453.3-2033.9z"/><path d="M6843.7-2045.1c96.4 157 191 310.8 287.3 467.7 -6.4-2.3-10-3.1-13.3-4.8 -88.1-44.1-176.2-88.3-264.3-132.3 -7.2-3.6-11.4-7.1-11.4-16.4 0.4-101.9 0.3-203.7 0.3-305.6C6842.3-2038 6842.8-2039.5 6843.7-2045.1z"/><path d="M6706-262.1c-265.1 0-480 214.9-480 480 0 203.4 126.5 377.2 305.1 447.1 -4.2-38-8-96.4 1.7-137.8 8.7-37.5 56.3-238.6 56.3-238.6s-14.4-28.8-14.4-71.3c0-66.7 38.7-116.6 86.9-116.6 41 0 60.7 30.7 60.7 67.6 0 41.2-26.2 102.8-39.8 159.8 -11.3 47.8 24 86.7 71.1 86.7 85.3 0 150.9-90 150.9-219.8 0-114.9-82.6-195.3-200.5-195.3 -136.6 0-216.7 102.4-216.7 208.3 0 41.3 15.9 85.5 35.7 109.5 3.9 4.8 4.5 8.9 3.3 13.8 -3.6 15.2-11.7 47.8-13.3 54.4 -2.1 8.8-7 10.7-16 6.4 -59.9-27.9-97.4-115.6-97.4-186 0-151.4 110-290.5 317.2-290.5 166.5 0 295.9 118.7 295.9 277.2 0 165.4-104.3 298.6-249.1 298.6 -48.6 0-94.4-25.3-110-55.1 0 0-24.1 91.6-29.9 114.1 -10.8 41.7-40.1 94-59.7 125.8 44.9 13.9 92.6 21.4 142.1 21.4 265.1 0 480-214.9 480-480C7186-47.2 6971.1-262.1 6706-262.1"/><path d="M8157.8-735.6c-35.3 15.7-73.3 26.2-113.1 31 40.7-24.4 71.9-63 86.6-108.9 -38 22.6-80.2 39-125 47.8 -35.9-38.3-87.1-62.2-143.7-62.2 -108.8 0-196.9 88.2-196.9 196.9 0 15.4 1.7 30.5 5.1 44.9 -163.7-8.2-308.7-86.6-405.9-205.7 -16.9 29.1-26.7 62.9-26.7 99 0 68.3 34.8 128.6 87.6 163.9 -32.3-1-62.6-9.9-89.2-24.6 0 0.8 0 1.6 0 2.5 0 95.4 67.9 175 158 193.1 -16.5 4.5-33.9 6.9-51.9 6.9 -12.7 0-25-1.2-37-3.5 25.1 78.2 97.8 135.2 183.9 136.8 -67.4 52.8-152.3 84.3-244.6 84.3 -15.9 0-31.6-0.9-47-2.7 87.1 55.9 190.6 88.5 301.8 88.5 362.2 0 560.3-300 560.3-560.3 0-8.5-0.2-17-0.6-25.5C8098-661.5 8131.4-696.1 8157.8-735.6z"/><path d="M5498.3-1478.5c8.2 0 15.7 0.6 22.7 2.5 6.9 1.3 12.6 3.8 17.6 6.9 5 3.1 8.8 7.6 11.3 13.2 2.5 5.7 3.8 12.6 3.8 20.2 0 8.8-1.9 16.4-6.3 22 -3.8 5.7-10.1 10.7-17.6 14.5 10.7 3.1 18.9 8.8 23.9 16.4 5 7.6 8.2 17 8.2 27.7 0 8.8-1.9 16.4-5 22.7 -3.1 6.3-8.2 12-13.9 15.7 -5.7 3.8-12.6 6.9-20.2 8.8 -7.6 1.9-15.1 3.1-22.7 3.1h-84.4v-173.8H5498.3zM5493.2-1407.9c6.9 0 12.6-1.9 17-5 4.4-3.1 6.3-8.8 6.3-15.7 0-3.8-0.6-7.6-1.9-10.1 -1.3-2.5-3.1-4.4-5.7-6.3 -2.5-1.3-5-2.5-8.2-3.1s-6.3-0.6-10.1-0.6h-36.5v40.9H5493.2L5493.2-1407.9zM5495.1-1333.6c3.8 0 7.6-0.6 10.7-1.3 3.1-0.6 6.3-1.9 8.8-3.8 2.5-1.9 4.4-3.8 6.3-6.9 1.3-3.1 2.5-6.9 2.5-11.3 0-8.8-2.5-15.1-7.6-19.5 -5-3.8-12-5.7-20.2-5.7h-41.6v48.5H5495.1zM5616.7-1334.3c5 5 12.6 7.6 22.7 7.6 6.9 0 13.2-1.9 18.3-5 5-3.8 8.2-7.6 9.4-11.3h30.9c-5 15.1-12.6 25.8-22.7 32.7 -10.1 6.3-22 10.1-36.5 10.1 -10.1 0-18.9-1.9-27.1-5 -8.2-3.1-14.5-7.6-20.2-13.8 -5.7-5.7-10.1-12.6-12.6-20.8 -3.1-8.2-4.4-17-4.4-27.1 0-9.4 1.3-18.3 4.4-26.4 3.1-8.2 7.6-15.1 13.2-21.4 5.7-5.7 12.6-10.7 20.2-13.9 8.2-3.1 16.4-5 26.5-5 10.7 0 20.2 1.9 28.3 6.3 8.2 4.4 14.5 9.4 19.5 17 5 6.9 8.8 15.1 11.3 23.9 1.3 8.8 1.9 17.6 1.3 27.7h-91.3C5607.9-1348.7 5611.6-1339.3 5616.7-1334.3L5616.7-1334.3zM5656.3-1400.4c-4.4-4.4-11.3-6.9-19.5-6.9 -5.7 0-10.1 1.3-13.9 3.1 -3.8 1.9-6.3 4.4-8.8 6.9 -2.5 2.5-3.8 5.7-4.4 8.8s-1.3 5.7-1.3 8.2h56.7C5663.9-1389.7 5660.8-1396 5656.3-1400.4L5656.3-1400.4zM5748.3-1478.5v65.5h0.6c4.4-7.6 10.1-12.6 17-15.7 6.9-3.1 13.2-5 20.2-5 9.4 0 17 1.3 22.7 3.8s10.7 6.3 13.9 10.7c3.1 4.4 5.7 10.1 6.9 16.4 1.3 6.3 1.9 13.2 1.9 21.4v77.5h-34.6v-71.2c0-10.7-1.9-18.3-5-23.3 -3.1-5-8.8-7.6-17-7.6 -9.4 0-16.4 3.1-20.2 8.2 -4.4 5.7-6.3 15.1-6.3 27.7v66.1h-34.6v-174.4H5748.3zM5856.6-1411.7c3.8-5.7 8.2-9.4 13.9-13.2 5.7-3.1 12-5.7 18.9-6.9 6.9-1.3 13.8-1.9 20.8-1.9 6.3 0 12.6 0.6 19.5 1.3 6.3 0.6 12.6 2.5 17.6 5 5.7 2.5 9.4 6.3 13.2 10.7 3.1 4.4 5 10.7 5 18.3v66.1c0 5.7 0.6 11.3 1.3 16.4 0.6 5 2.5 9.4 4.4 12h-35.3c-1.3-1.3-1.9-3.8-2.5-5.7 -0.6-1.9-0.6-4.4-0.6-6.3 -5.7 5.7-12 9.4-19.5 12 -7.6 2.5-15.1 3.1-22.7 3.1 -6.3 0-11.3-0.6-17-2.5 -5-1.3-9.4-3.8-13.9-6.9 -3.8-3.1-6.9-6.9-9.4-12 -1.9-5-3.1-10.1-3.1-17 0-6.9 1.3-13.2 3.8-17.6 2.5-4.4 5.7-8.2 9.4-11.3 3.8-2.5 8.8-5 13.9-6.3 5-1.3 10.1-2.5 15.7-3.1l15.1-1.9c5-0.6 9.4-1.3 13.2-1.9 3.8-1.3 6.9-2.5 9.4-4.4 2.5-1.9 3.1-4.4 3.1-8.2 0-3.8-0.6-6.9-1.9-8.8 -1.3-1.9-3.1-3.8-5-5 -1.9-1.3-4.4-1.9-6.9-2.5 -2.5-0.6-5.7-0.6-8.8-0.6 -6.9 0-12 1.3-15.7 4.4s-6.3 8.2-6.9 14.5h-34.6C5850.9-1399.8 5853.5-1406.7 5856.6-1411.7L5856.6-1411.7zM5925.3-1362.6c-1.9 0.6-4.4 1.3-6.9 1.9 -2.5 0.6-5 0.6-8.2 1.3 -2.5 0.6-5.7 0.6-8.2 1.3l-7.6 1.9c-2.5 0.6-5 1.9-6.3 3.1 -1.9 1.3-3.1 3.1-4.4 5 -1.9 2.5-1.9 5-1.9 8.2s0.6 5.7 1.9 7.6c1.3 1.9 2.5 3.8 4.4 5 1.9 1.3 4.4 1.9 6.9 2.5 2.5 0.6 5 0.6 8.2 0.6 6.9 0 12-1.3 15.7-3.1 3.8-2.5 6.3-5 8.2-8.2 1.9-3.1 3.1-6.3 3.1-9.4 0.6-3.1 0.6-5.7 0.6-7.6v-13.2C5929-1364.5 5927.2-1363.2 5925.3-1362.6L5925.3-1362.6zM6017.8-1430.6v17.6h0.6c4.4-7.6 10.1-12.6 17-15.7 6.9-3.1 14.5-5 21.4-5 9.4 0 17 1.3 22.7 3.8 6.3 2.5 10.7 6.3 13.9 10.7 3.1 4.4 5.7 10.1 7.6 16.4 1.3 6.3 1.9 13.2 1.9 21.4v77.5h-34.6v-71.2c0-10.7-1.9-18.3-5-23.3s-8.8-8.2-17.6-8.2c-9.4 0-16.4 3.8-20.8 9.4 -4.4 5.7-6.3 15.1-6.3 27.7v66.1h-34.6v-127.2H6017.8zM6180.3-1407.9c-5.7 0-10.1 1.3-13.8 3.8 -3.8 2.5-6.9 5.7-9.4 10.1 -2.5 3.8-3.8 8.2-5 13.2 -1.3 5-1.3 9.4-1.3 14.5 0 4.4 0.6 9.4 1.3 13.8 1.3 5 2.5 8.8 5 12.6 2.5 3.8 5 6.9 8.8 9.4 3.8 2.5 8.2 3.8 13.8 3.8 8.2 0 14.5-2.5 19.5-6.9 4.4-4.4 7.6-10.7 8.2-18.9h33.4c-2.5 17-8.8 29.6-19.5 38.4 -10.7 8.8-24.6 13.2-41.6 13.2 -9.4 0-18.3-1.9-25.8-5 -8.2-3.1-14.5-7.6-20.2-13.2 -5.7-5.7-10.1-12.6-13.2-20.2 -3.1-8.2-4.4-16.4-4.4-25.8 0-10.1 1.3-18.9 4.4-27.1 3.1-8.2 6.9-15.7 12.6-22 5.7-6.3 12.6-10.7 20.2-14.5 8.2-3.1 17-5 27.1-5 7.6 0 14.5 1.3 21.4 3.1 6.9 1.9 13.2 5 18.3 8.8 5.7 3.8 10.1 8.8 13.2 15.1 3.1 5.7 5 13.2 5.7 21.4h-34C6203.6-1400.4 6195.4-1407.9 6180.3-1407.9L6180.3-1407.9zM5600.9-1466.5h70.5v17h-70.5V-1466.5zM6293.1-1334.3c5 5 13.2 7.6 22.7 7.6 6.9 0 13.2-1.9 18.3-5 5-3.8 8.2-7.6 9.4-11.3h30.2c-5 15.1-12.6 25.8-22.7 32.7 -10.1 6.3-22 10.1-36.5 10.1 -10.1 0-18.9-1.9-27.1-5 -7.8-2.9-14.7-7.6-20.1-13.8 -5.7-5.7-10.1-12.6-12.6-20.8 -3.1-8.2-4.4-17-4.4-27.1 0-9.4 1.3-18.3 4.4-26.4 3-7.9 7.5-15.2 13.2-21.4 5.7-5.7 12.6-10.7 20.2-13.9 8.2-3.1 17-5 26.5-5 10.7 0 20.1 1.9 27.7 6.3 8.2 4.4 14.5 9.4 19.5 17 5 6.9 8.8 15.1 11.3 23.9 2.5 8.8 3.1 18.3 2.5 28.3h-91.3C6284.2-1348.7 6288-1339.3 6293.1-1334.3L6293.1-1334.3zM6333.4-1400.4c-4.4-4.4-11.3-6.9-19.5-6.9 -5.7 0-10.1 1.3-13.9 3.1 -3.8 1.9-6.9 4.4-8.8 6.9 -1.9 2.5-3.8 5.7-4.4 8.8 -0.6 3.1-1.3 5.7-1.3 8.2h56.7C6340.3-1389.7 6337.1-1396 6333.4-1400.4L6333.4-1400.4z"/><path d="M5724.1-2046.3c2.3 4.6 3.9 10.3 5 16.7 -1.1-6.3-2.7-12.1-5-16.7 -4.3-8.5-10.7-15-19.2-21.4 -7.2-3.6-14.5-7.3-23-9.6 8.5 2.4 15.8 6.1 23 9.7C5713.4-2061.2 5719.8-2054.8 5724.1-2046.3z"/><path d="M5732-2012.1c0 0 0 0 0 0 0 13.8-2.2 26.1-7.1 36.1C5729.8-1986 5732-1998.3 5732-2012.1z"/><path d="M5724.1-1707.4c-8.5 6.4-19.2 10.3-29.9 12.5 10.7-2.2 21.3-5.8 29.9-12.2 8.5-6.4 13.9-12.8 20.3-23.5 4.3-10.7 7.5-23.4 7.5-38.3 0 0 0 0 0-0.1 0 14.9-3.3 27.5-7.5 38.2C5738.1-1720.1 5732.6-1713.8 5724.1-1707.4z"/><path d="M5775.3-1911.9c25.6-12.8 46.9-29.9 59.7-49 14.9-19.2 21.3-44.8 21.3-74.7 0-25.6-4.3-49.1-12.8-68.3 -8.5-19.2-21.3-34.1-38.4-44.8 -17.1-10.7-36.3-18.4-59.7-22.7 -23.5-6.4-49.1-7.7-76.8-7.7H5390v586h285c25.6 0 51.2-3.8 76.8-10.1 25.6-6.4 49.1-16.8 68.3-29.6 19.2-12.8 36.3-31.9 46.9-53.2 10.7-21.3 17.1-46.9 17.1-76.7 0-36.3-10.7-68.2-27.7-93.8C5839.3-1882.1 5811.6-1901.2 5775.3-1911.9zM5519-2081h124.1c12.8 0 23.5 0.3 34.1 2.4 1.6 0.3 3.2 0.8 4.7 1.2 8.5 2.3 15.8 6 23 9.7 8.5 6.4 14.9 12.9 19.2 21.4 2.3 4.6 4.7 10.4 5.7 16.7 0.9 5.5 2.2 11.5 2.2 17.4 0 0 0 0 0 0 0 0 0 0 0 0 0 13.8-3 26.1-7.9 36.1 -3.4 6.9-8.4 12.7-14.6 17.1 -14.9 10.7-34.5 16.9-58 16.9H5519V-2081zM5752-1768.9c0 14.9-3.3 27.6-7.5 38.3 -6.4 10.7-12.3 17.1-20.8 23.5 -8.5 6.4-19 10.2-29.6 12.3 -10.7 2.1-23.2 3.8-36 3.8H5519v-163h141.1c27.7 0 50.2 6.2 67.3 19 17.1 14.9 24.6 36.2 24.6 66 0 0 0 0 0 0C5752-1768.9 5752-1768.9 5752-1768.9z"/><path d="M6344.8-1869.5c-8.5-29.9-21.3-57.4-38.4-80.9 -17.1-25.6-38.4-42.6-66.1-57.5 -27.7-14.9-59.7-21.3-96-21.3 -34.1 0-61.9 6.4-89.6 17.1 -25.6 10.7-49.1 27.7-68.3 46.9 -19.2 21.3-34.1 44.8-44.8 72.5 -10.7 27.8-14.9 57.6-14.9 89.6 0 34.1 4.3 64 14.9 91.7 8.5 27.7 23.5 51.2 42.7 70.4 19.2 21.3 40.5 36.2 68.3 46.9 27.7 10.7 57.6 17.1 91.7 17.1 49.1 0 89.6-12.8 123.7-34.1 34.1-23.4 59.7-59.9 76.8-110.9h-104.5c-4.3 14-14.9 25.6-32 38.4 -17.1 10.7-38.4 17-61.9 17 -34.1 0-59.7-8.9-76.8-25.9 -17.1-17.1-29.9-49.5-29.9-83.5h309.3C6351.2-1810 6349.1-1839.7 6344.8-1869.5zM6041.9-1847c0-10 2.1-17.5 4.3-28.2 2.1-10.7 6.4-21.7 14.9-30.3 8.5-8.6 17.1-17.1 29.9-23.5 12.8-6.4 27.7-10.7 46.9-10.7 27.7 0 51.2 9 66.1 23.9 14.9 14.9 25.6 34.7 29.9 68.7H6041.9z"/><rect x="6017" y="-2142" width="237" height="58"/><path d="M7194-765h-720c-66.3 0-120 53.8-120 120V75C6354 141.3 6407.8 195 6474 195h720c66.3 0 120-53.8 120-120v-720C7314-711.3 7260.2-765 7194-765zM6771.6-37.8c0 31.8-25.8 57.6-57.6 57.6h-177.6c-31.8 0-57.6-25.8-57.6-57.6V-582.6c0-31.8 25.8-57.6 57.6-57.6h177.6c31.8 0 57.6 25.8 57.6 57.6V-37.8zM7189.2-277.8c0 31.8-25.8 57.6-57.6 57.6h-177.6c-31.8 0-57.6-25.8-57.6-57.6v-304.7c0-31.8 25.8-57.6 57.6-57.6h177.6c31.8 0 57.6 25.8 57.6 57.6V-277.8z"/></svg>