<?xml version="1.0" encoding="utf-8"?>
<!-- Generator: Adobe Illustrator 16.0.0, SVG Export Plug-In . SVG Version: 6.00 Build 0)  -->
<!DOCTYPE svg PUBLIC "-//W3C//DTD SVG 1.1//EN" "http://www.w3.org/Graphics/SVG/1.1/DTD/svg11.dtd">
<svg version="1.1" xmlns="http://www.w3.org/2000/svg" xmlns:xlink="http://www.w3.org/1999/xlink" x="0px" y="0px" width="960px"
	 height="385px" viewBox="0 0 960 385" enable-background="new 0 0 960 385" xml:space="preserve">
<g id="Layer_1">
	<g>
		<path d="M-111.162-965.676h-275.012c-13.569,0-21.646,1.515-27.551,2.617c-9.232,1.751-11.406,2.13-33.216-10.57
			c-23.104-13.489-24.486-14.292-30.893-9.492c-0.155,0.124-0.311,0.235-0.456,0.369c-1.503-0.311-3.497-0.782-6.104-1.506
			c-24.307-6.604-34.253,8.691-41.528,19.863c-7.274,11.175-13.534,20.832-34.109,20.832c-13.333,0-15.929-6.251-19.962-24.096
			c-0.156-0.689-0.311-1.394-0.466-2.093c19.417-5.793,37.761-15.171,48.244-28.896c9.803-12.834,12.355-23.384,7.576-31.336
			c-1.782-2.964-7.287-9.669-19.94-7.564c-14.057,2.316-34.911,15.773-50.306,39.333c-1.037-0.792-2.151-1.525-3.354-2.195
			c-9.467-5.289-21.577-5.111-38.121,0.559c-3.708,1.27-7.474,2.651-10.939,4.278c-2.36-16.933-7.062-31.504-13.455-42.431
			c0.345-4.936-0.469-8.612-2.484-12.153c-4.412-7.743-12.377-9.469-21.599-11.452c-6.741-1.448-15.128-3.265-25.956-7.598
			c-10.539-4.21-18.36-2.083-23.049,0.469c-15.116,8.176-19.593,30.343-25.253,58.393c-1.525,7.553-3.052,14.826-4.701,21.712
			c-7.44-15.016-16.23-24.653-24.853-30.779c0.636-13.156-1.435-26.914-7.808-40.905c-2.428-5.336-9.925-21.566-24.229-20.074
			c-1.548,0.156-3.029,0.49-4.456,1.024c4-52.377-1.425-64.151-13.267-67.07c-17.399-4.311-32.049,12.197-98.708,187.948
			c-4.667,12.307-8.733,23.614-12.254,33.995c-4.243-15.682-8.198-31.548-11.863-47.319c24.952-71.171,39.166-149.817,9.992-217.879
			c-16.131-37.652-30.489-61.245-48.146-54.005c-28.672,11.787-13.723,144.415,15.195,269.867
			c-14.002,38.91-31.18,75.615-45.673,106.584c-25.319,54.116-38.041,81.285-24.863,95.376c4.177,4.478,9.614,5.938,15.027,5.938
			c7.631,0,15.184-2.919,19.026-4.41c12.198-4.723,21.778-8.098,29.331-10.773c30.935-10.915,35.044-13.399,39.267-41.805
			c0.857-5.771,1.938-13.035,3.776-22.359c3.721,10.908,7.475,21.188,11.229,30.736c2.25,5.727,8.722,8.533,14.448,6.279
			c5.726-2.248,8.544-8.722,6.282-14.447c-7.842-19.927-15.161-41.202-21.911-63.183c5.08-17.454,12.098-38.73,21.956-64.732
			c33.475-88.257,56.946-143.588,70.023-165.131c0.479,12.274-0.412,36.448-6.148,83.991c-0.167,1.349-0.323,2.696-0.469,4.044
			c-0.801,2.897-1.615,5.926-2.428,9.08c-3.309,2.161-6.54,4.645-9.635,7.407c-24.708,22.057-35.825,56.489-28.328,87.724
			c1.748,7.297,5.379,22.456,17.957,22.456c0.022,0,0.045,0,0.078,0c11.107-0.054,16.498-10.102,23.995-39.01
			c0.803,4.925,1.727,9.716,2.762,14.339c-0.902,5.332-0.2,10.18,2.819,14.703c0.478,0.724,1.014,1.403,1.582,2.037
			c9.824,32.218,25.241,55.121,42.051,65.558c12.389,7.697,25.443,8.176,35.826,1.394c18.535-12.144,24.952-44.815,18.068-92.016
			c-0.959-6.536-2.083-12.641-3.344-18.333c6.952-17.413,10.861-36.773,14.249-53.581c3.409-16.877,8.076-39.993,14.013-43.201
			c1.003-0.568,3.251,0.245,4.177,0.624c2.54,1.014,4.958,1.905,7.263,2.706c-6.204,8.589-10.905,21.411-14.079,38.365
			c-6.207,33.185,0.712,58.973,14.125,76.886c-1.615,10.016-2.909,20.117-3.822,29.954c-4.767,51.33,3.487,61.469,12.197,64.608
			c16.01,5.803,27.927-15.327,41.909-51.284c1.748-4.512,3.353-9.036,4.789-13.525c25.253,1.35,51.342-10.971,62.682-39.075
			c5.694,10.146,15.519,18.601,33.976,18.601c32.672,0,44.781-18.635,52.792-30.968c7.307-11.25,8.899-12.755,16.976-10.505
			c9.437,2.562,16.286,3.755,21.444,2.161c2.751,1.594,6.35,3.688,10.649,6.204c26.735,15.575,33.774,15.988,48.558,13.234
			c5.323-1.001,11.939-2.239,23.438-2.239h275.012c6.15,0,11.141-4.978,11.141-11.138C-100-960.718-105.014-965.676-111.162-965.676
			z M-550.16-1011.849c-3.71,4.735-8.991,8.756-15.174,12.131C-559.975-1005.208-554.641-1009.219-550.16-1011.849z
			 M-991.276-1218.499c3.765,5.069,10.137,15.662,19.539,37.596c21.588,50.385,16.476,108.678,0.947,165.043
			C-989.584-1109.476-997.248-1193.211-991.276-1218.499z M-974.144-826.164c-2.406,16.221-2.406,16.221-24.651,24.073
			c-7.709,2.729-17.489,6.183-29.955,10.995c-4.378,1.683-7.241,2.419-9.034,2.708c0.858-11.253,15.25-41.997,28.071-69.401
			c10.905-23.302,23.271-49.726,34.755-77.966c4.367,17,8.935,33.621,13.635,49.482
			C-969.587-856.784-972.34-838.306-974.144-826.164z M-873.409-943.462c0-10.995,2.885-21.155,7.229-29.865
			C-868.44-963.515-870.97-952.73-873.409-943.462z M-819.17-1055.761c0.68,1.136,1.493,2.663,2.417,4.69
			c3.375,7.409,5.125,14.838,5.648,22.18c-3.031-0.523-6.094-0.781-9.191-0.781c-3.019,0-6.06,0.245-9.101,0.736
			C-825.932-1040.666-822.401-1050.647-819.17-1055.761z M-832.416-1005.353c6.628-2.273,13.268-2.708,19.506-1.17
			c-3.599,16.342-11.52,31.747-18.871,45.039C-832.973-974.864-833.285-989.479-832.416-1005.353z M-825.419-923.912
			c-0.101-0.379-0.189-0.736-0.291-1.125c1.861-5.012,6.495-13.289,10.104-19.727c7.519-13.404,16.865-30.066,22.368-48.715
			c7.666,9.045,13.87,22.291,18.326,39.167c-7.821,16.73-18.76,27.716-36.182,29.809
			C-818.536-923.611-822.936-923.677-825.419-923.912z M-778.443-860.641c-2.943,1.95-6.94,1.382-11.865-1.68
			c-9.012-5.595-19.483-18.782-27.782-39.211c3.209-0.146,6.461-0.457,9.647-0.836c17.055-2.049,29.708-9.581,39.3-20.231
			C-764.743-884.456-771.17-865.407-778.443-860.641z M-704.287-967.558c-2.13-10.191-2.251-22.124,0.301-35.78
			c4.701-25.153,11.874-32.416,14.247-33.084c0.078-0.022,0.167-0.033,0.255-0.033c0.959,0,2.875,1.125,5.014,3.475
			c0.078,0.09,0.156,0.167,0.233,0.256c-1.872,7.208-5.648,18.503-10.036,31.637l-2.763,8.278
			C-699.632-985.067-702.07-976.547-704.287-967.558z M-682.253-895.34c-5.213,13.414-9.303,22.248-12.365,28.051
			c-0.435-10.728,0.411-26.734,2.683-44.883c4.267,2.707,8.756,4.946,13.358,6.707C-679.704-902.124-680.928-898.749-682.253-895.34
			z M-672.596-927.053c-5.614-2.384-10.883-5.783-15.485-10.184c2.986-16.274,7.008-33.082,12.165-48.536l2.764-8.251
			c0.767-2.307,1.503-4.502,2.205-6.607C-666.992-981.493-666.169-955.994-672.596-927.053z M-612.02-956.886
			c-5.002,22.981-21.866,33.007-38.698,33.854c3.03-14.004,4.645-27.672,5.045-40.614c8.399,1.637,21.133,1.792,35.29,0.077
			C-610.982-961.388-611.529-959.168-612.02-956.886z"/>
	</g>
	<path d="M294.545-1245c-66.016,0-119.998,53.985-119.998,120c0,66.016,53.982,120,119.998,120
		c58.589,0,107.652-42.472,117.956-98.181h378.407c69.88,0,125.456,55.575,125.456,125.455c0,69.878-55.576,125.454-125.456,125.454
		H169.092C75.794-852.272,0-776.48,0-683.181c0,93.299,75.794,169.09,169.092,169.09h258.409l-61.023,61.024
		c-8.64,8.398-8.835,22.215-0.434,30.854c8.401,8.64,22.216,8.835,30.854,0.434c0.205-0.197,0.404-0.399,0.602-0.606l97.841-97.841
		c8.567-8.478,8.642-22.291,0.164-30.858c-0.055-0.055-0.109-0.109-0.164-0.164l-98.181-98.183c-0.428-0.59-0.882-1.161-1.365-1.703
		c-8.943-8.192-22.833-7.581-31.022,1.362c-8.19,8.944-7.579,22.831,1.364,31.023l61.364,61.022H169.092
		c-69.88,0-125.456-55.576-125.456-125.454c0-69.88,55.576-125.455,125.456-125.455h621.816
		c93.301,0,169.092-75.792,169.092-169.091c0-93.3-75.791-169.091-169.092-169.091H412.501
		C402.197-1202.527,353.134-1245,294.545-1245z M294.545-1201.363c42.434,0,76.364,33.931,76.364,76.363
		c0,42.433-33.931,76.363-76.364,76.363c-42.433,0-76.361-33.93-76.361-76.363C218.184-1167.432,252.112-1201.363,294.545-1201.363z
		 M665.455-655.909c-66.016,0-120.001,53.984-120.001,120s53.985,120.001,120.001,120.001s120-53.985,120-120.001
		S731.471-655.909,665.455-655.909z M665.455-612.273c42.433,0,76.361,33.932,76.361,76.364s-33.929,76.364-76.361,76.364
		c-42.434,0-76.364-33.932-76.364-76.364S623.021-612.273,665.455-612.273z"/>
	<g>
		<path d="M1362.156-751.865c0,23.925,4.715,47.167,14.015,69.078c8.981,21.164,21.831,40.19,38.192,56.551
			c16.361,16.361,35.39,29.21,56.557,38.191c21.915,9.299,45.16,14.014,69.09,14.014c23.925,0,47.166-4.715,69.078-14.014
			c21.164-8.981,40.19-21.83,56.551-38.191c16.361-16.36,29.21-35.387,38.191-56.55c9.299-21.913,14.014-45.154,14.014-69.079
			c0-23.93-4.715-47.175-14.015-69.09c-8.98-21.167-21.829-40.195-38.19-56.557c-16.36-16.362-35.387-29.212-56.551-38.193
			c-21.912-9.3-45.153-14.015-69.078-14.015c-23.93,0-47.176,4.715-69.09,14.015c-21.167,8.981-40.195,21.831-56.557,38.193
			c-16.361,16.361-29.211,35.39-38.192,56.557C1366.871-799.041,1362.156-775.795,1362.156-751.865z M1442.705-849.17
			c25.885-25.886,60.441-40.141,97.305-40.141s71.421,14.255,97.307,40.141c25.885,25.884,40.14,60.44,40.14,97.305
			s-14.255,71.421-40.14,97.307c-25.886,25.885-60.443,40.14-97.307,40.14s-71.42-14.255-97.305-40.14
			c-25.886-25.886-40.141-60.443-40.141-97.307S1416.819-823.286,1442.705-849.17z"/>
		<path d="M1264.125-955.007c14.376,0,28.035-3.478,40.597-10.335l3.964-2.163l3.215,3.171l29.973,29.562l0.045,0.043l0.043,0.045
			c3.839,3.944,8.985,6.116,14.491,6.116c5.286,0,10.282-2.03,14.066-5.717c7.98-7.759,8.174-20.554,0.441-28.541l-0.01-0.01
			c-0.2-0.2-0.4-0.4-0.602-0.593l-0.03-0.029l-0.03-0.03l-29.562-29.14l-3.263-3.218l2.196-4.022
			c6.767-12.391,10.345-26.574,10.345-41.018c0-22.79-8.974-44.316-25.267-60.614c-16.296-16.299-37.821-25.275-60.612-25.275
			s-44.316,8.976-60.612,25.275c-16.294,16.297-25.267,37.824-25.267,60.614c0,22.789,8.973,44.313,25.267,60.608
			C1219.809-963.981,1241.333-955.007,1264.125-955.007z M1264.125-1086.376c25.509,0,45.49,19.981,45.49,45.491
			c0,25.503-19.981,45.481-45.49,45.481c-25.51,0-45.491-19.978-45.491-45.481
			C1218.634-1066.395,1238.615-1086.376,1264.125-1086.376z"/>
		<path d="M1515.584-1076.674l4.416,1.307v4.508v56.243v0.043v0.043c0,11.14,8.682,20.332,19.828,20.489l0.14,0.002
			c10.962,0,20.032-8.911,20.032-19.872v-0.706v-56.243v-4.509l4.418-1.307c36.135-10.937,61.42-44.84,61.42-82.447
			c0-22.793-8.947-44.319-25.242-60.612c-16.293-16.293-37.806-25.267-60.599-25.267c-22.795,0-44.316,8.974-60.616,25.268
			c-16.299,16.295-25.222,37.82-25.222,60.612C1454.159-1121.52,1479.449-1087.616,1515.584-1076.674z M1540.01-1204.612
			c25.51,0,45.491,19.982,45.491,45.491c0,25.509-19.981,45.491-45.491,45.491c-25.508,0-45.49-19.982-45.49-45.491
			C1494.52-1184.63,1514.502-1204.612,1540.01-1204.612z"/>
		<path d="M1723.567-928.567c5.187,0,10.113-1.962,13.879-5.525l0.212-0.209c0.117-0.115,0.231-0.227,0.338-0.339l0.05-0.052
			l0.052-0.051l29.561-29.562l3.228-3.228l3.999,2.201c12.45,6.851,26.248,10.325,41.012,10.325
			c22.783,0,44.307-8.975,60.604-25.271c16.299-16.297,25.275-37.821,25.275-60.608c0-22.787-8.977-44.313-25.275-60.613
			c-16.298-16.3-37.821-25.276-60.604-25.276c-22.793,0-44.322,8.976-60.623,25.276c-16.3,16.299-25.277,37.825-25.277,60.613
			c0,14.408,3.579,28.593,10.349,41.025l2.188,4.019l-3.259,3.214l-29.562,29.14l-0.037,0.037l-0.039,0.036
			c-8.063,7.678-8.382,20.492-0.71,28.567C1712.773-930.798,1717.974-928.567,1723.567-928.567z M1815.896-1086.376
			c25.497,0,45.471,19.981,45.471,45.491c0,25.503-19.974,45.481-45.471,45.481c-25.51,0-45.492-19.978-45.492-45.481
			C1770.404-1066.395,1790.387-1086.376,1815.896-1086.376z"/>
		<path d="M1228.33-727.498l1.295-4.502h4.526h56.243h0.045h0.045l0.29,0.167c10.974,0,20.029-8.851,20.186-19.83
			c0.076-5.398-1.951-10.426-5.71-14.294c-3.759-3.869-8.801-6.043-14.201-6.043h-0.091l-0.091-0.039l-0.102-0.02l-0.104,0.027
			l-0.134,0.031h-0.134h-56.654h-4.506l-1.309-4.346c-5.251-17.295-16.12-32.913-30.604-43.942
			c-14.99-11.415-32.779-17.458-51.443-17.458c-22.783,0-44.307,8.973-60.604,25.269c-16.3,16.299-25.275,37.823-25.275,60.614
			c0,22.787,8.976,44.31,25.275,60.607c16.297,16.296,37.82,25.271,60.604,25.271c18.803,0,36.704-6.116,51.77-17.488
			C1212.261-694.503,1223.156-710.177,1228.33-727.498z M1145.879-706.385c-25.497,0-45.471-19.977-45.471-45.48
			c0-25.509,19.974-45.491,45.471-45.491c25.51,0,45.492,19.982,45.492,45.491C1191.371-726.361,1171.389-706.385,1145.879-706.385z
			"/>
		<path d="M1814.357-400.143c-35.629-34.251-77.135-61.138-123.363-79.913c-47.813-19.417-98.611-29.263-150.984-29.263
			c-52.377,0-103.18,9.846-150.995,29.263c-46.231,18.775-87.739,45.662-123.369,79.913
			c-35.657,34.279-63.623,74.224-83.164,118.725C1162.24-235.322,1152-186.279,1152-135.652v14.369
			c0,11.135,9.023,20.283,20.17,20.283h630.581h0.045h0.045l0.29-0.041c10.975,0,20.028-8.957,20.184-19.938
			c0.077-5.397-1.949-10.27-5.707-14.135c-3.758-3.867-8.802-5.887-14.202-5.887h-0.093l-0.091-0.244l-0.101-0.121l-0.101,0.18
			l-0.135,0.186h-0.135h-603.077h-6.31l0.237-6.543c3.268-86.893,40.502-167.891,104.844-227.859
			c64.629-60.235,150.418-93.469,241.564-93.469c47.28,0,93.002,8.739,135.895,26.035c41.447,16.712,78.603,40.662,110.433,71.211
			c31.815,30.535,56.449,66.164,73.86,105.914c18.004,41.096,26.803,84.85,26.803,130.059v14.369v0.043v0.043
			c0,5.394,2.279,10.493,6.036,14.361c3.76,3.867,8.968,6.04,14.366,6.117l0.354,0.002c10.961,0,20.244-8.91,20.244-19.871v-0.695
			v-14.369c0-50.627-10.24-99.669-30.481-145.766C1877.978-325.919,1850.014-365.863,1814.357-400.143z"/>
		<path d="M1994.733-812.482c-16.295-16.297-37.821-25.271-60.612-25.271c-18.654,0-36.438,6.033-51.428,17.448
			c-14.485,11.029-25.359,26.665-30.62,43.964l-1.311,4.342h-4.503h-56.654h-0.12l-0.12-0.039c-0.322-0.014-0.647-0.036-0.976-0.036
			c-0.331,0-0.664-0.003-0.997,0.009c-5.354,0.252-10.334,2.588-13.973,6.582c-3.638,3.994-5.502,9.163-5.249,14.562
			c0.505,10.813,9.372,19.282,20.185,19.282c0.321,0,0.642-0.173,0.966-0.188l0.142-0.172h0.143h56.243h4.526l1.295,4.502
			c5.174,17.321,16.069,33.017,30.682,44.047c15.065,11.373,32.967,17.424,51.77,17.424c22.791,0,44.317-8.953,60.612-25.25
			c16.293-16.295,25.267-37.809,25.267-60.598C2020-774.669,2011.026-796.187,1994.733-812.482z M1934.121-706.385
			c-25.51,0-45.492-19.977-45.492-45.48c0-25.509,19.982-45.491,45.492-45.491c25.509,0,45.491,19.982,45.491,45.491
			C1979.612-726.361,1959.63-706.385,1934.121-706.385z"/>
	</g>
	<g>
		<linearGradient id="SVGID_1_" gradientUnits="userSpaceOnUse" x1="2778.7256" y1="-462.915" x2="2560.186" y2="-151.496">
			<stop  offset="0" style="stop-color:#1FE3A9"/>
			<stop  offset="1" style="stop-color:#1FD0E7"/>
		</linearGradient>
		<circle fill-rule="evenodd" clip-rule="evenodd" fill="url(#SVGID_1_)" cx="2668.175" cy="-305.382" r="193.954"/>
		<linearGradient id="SVGID_2_" gradientUnits="userSpaceOnUse" x1="2423.2422" y1="-791.9424" x2="2423.2422" y2="-185.457">
			<stop  offset="0" style="stop-color:#FDD603"/>
			<stop  offset="1" style="stop-color:#FC71C8"/>
		</linearGradient>
		<circle fill-rule="evenodd" clip-rule="evenodd" fill="url(#SVGID_2_)" cx="2423.243" cy="-496.486" r="303.243"/>
		<linearGradient id="SVGID_3_" gradientUnits="userSpaceOnUse" x1="2831.8643" y1="-1182.0054" x2="2409.2693" y2="-390.3821">
			<stop  offset="0" style="stop-color:#15BAFE"/>
			<stop  offset="1" style="stop-color:#046AFE"/>
		</linearGradient>
		<circle fill="url(#SVGID_3_)" cx="2619.851" cy="-784.852" r="460.149"/>
		<g>
			<path fill-rule="evenodd" clip-rule="evenodd" fill="#FEFEFE" d="M2767.591-655.018c0.618,9.272,2.333,18.439,2.245,27.789
				c-0.223,23.485-11.246,34.922-34.751,36.29c-29.025,1.691-58.083,1.411-87.128,1.845c-18.144,0.271-36.286,0.466-54.429,0.693
				c-24.027-0.392-48.055-0.78-72.081-1.18c-12.468-0.209-24.909-0.568-37.258-2.7c-21.425-3.696-29.056-21.786-24.794-40.484
				c1.15-5.044,1.32-10.312,1.939-15.478c2.628-12.135,4.81-24.389,7.987-36.379c4.983-18.808,13.013-35.791,31.41-45.462
				c16.429-5.819,32.753-11.965,49.315-17.377c20.904-6.832,29.415-21.971,30.18-42.788c0.321-1.532,0.661-3.062,0.96-4.601
				c0.881-4.529-0.709-5.765-5.411-5.225c-5.712,0.655-11.596,1.896-17.453,0.075c0.953-2.964,4.401-3.698,4.911-7.115
				c-9.913-1.896-19.806-3.787-29.528-5.646c-0.081-1.022-0.3-1.658-0.118-1.812c11.134-9.326,11.799-20.26,7.624-33.72
				c-6.72-21.656-7.628-44.116-0.488-65.895c4.202-12.816,10.794-24.851,16.312-37.237c7.88-12.912,18.121-22.102,34.358-21.995
				c2.541,0.016,5.05,0.159,7.246,1.433c2.572,1.493,4.209,0.352,5.676-1.582c6.196-8.163,15.398-8.162,23.923-7.445
				c23.131,1.943,38.942,15.114,49.871,34.905c1.074,1.949,2.334,3.797,3.509,5.69c6.452,14.082,11.408,28.499,13.344,44.071
				c2.189,17.612-2.636,34.295-5.123,51.284c-1.658,11.313-3.736,22.326,9.328,29.899c-10.286,4.848-20.044,6.484-29.811,8.829
				c1.087,3.552,5.033,4.475,6.733,8.179c-5.144-0.442-9.456-0.613-13.706-1.219c-11.188-1.593-11.404-1.642-10.096,9.636
				c1.229,10.591,2.774,21.2,10.362,29.627c3.286,5.068,8.541,7.459,13.808,9.462c11.23,4.275,22.479,8.603,33.979,12.05
				c29.388,8.813,46.435,28.485,52.494,58.158C2764.654-672.001,2766.047-663.494,2767.591-655.018z"/>
			<path fill-rule="evenodd" clip-rule="evenodd" fill="#FEFEFE" d="M2281.907-689.287c10.824-13.513,26.495-19.68,41.223-27.324
				c14.07-7.304,28.439-14.042,41.74-22.813c4.65-3.065,7.091-7.131,8.882-11.992c3.467-8.622,2.116-17.895,3.605-26.785
				c0.248-1.478-0.522-2.633-1.496-3.638c-7.291-7.519-10.172-16.977-11.917-26.95c-0.348-1.993-0.816-3.825-2.574-5.331
				c-10.129-8.68-9.412-20.302-8.396-31.962c0.04-0.45,0.007-1.13,0.271-1.305c10.541-6.962,1.903-16.693,3.622-24.911
				c0.029-4.087,0.361-8.199,0.038-12.26c-1.95-24.5,24.067-55.419,57.729-49.557c12.307,2.144,23.861,5.097,33.493,12.937
				c11.617,9.457,15.343,23.064,16.876,37.2c1.028,9.479,0.887,19.081-0.786,28.552c-0.506,2.859-0.901,5.068,2.975,6.151
				c2.986,0.835,3.343,4.17,3.226,6.909c-0.414,9.558-1.058,19.097-7.067,27.219c-4.557,0.747-4.444,4.728-4.964,7.829
				c-1.622,9.648-5.096,18.323-12.099,25.334c-1.702,1.704-2.651,3.369-2.309,5.983c0.767,5.842,1.276,11.728,1.666,17.609
				c0.799,12.005,7.468,19.507,18.091,24.083c1.522,0.95,2.984,2.019,4.579,2.82c2.482,1.248,2.527,2.394,0.729,4.565
				c-17.569,21.2-22.574,47.065-26.912,73.159c-1.447,8.961-3.12,17.895-4.237,26.896c-0.472,3.791-1.373,5.643-5.66,5.634
				c-45.695-0.081-91.401,1.201-137.07-1.26c-3.38-0.182-6.782-0.829-10.067-1.671c-12.354-3.166-16.226-9.362-14.35-22.017
				c1.815-12.243,2.342-24.68,7.071-36.425C2278.874-685.224,2281.671-686.42,2281.907-689.287z"/>
			<path fill-rule="evenodd" clip-rule="evenodd" fill="#FEFEFE" d="M2866.796-763.041c0.608,9.326,6.983,14.055,14.327,18.062
				c15.998,8.736,32.986,15.35,49.423,23.142c16.776,7.952,31.881,17.934,36.154,37.719c3.079,14.255,3.706,28.778,0.948,43.198
				c-2.036,10.652-10.486,16.813-23.884,18.589c-9.728,1.29-19.516,0.976-29.269,1.524c-37.412-0.205-74.826-0.618-112.236-0.428
				c-7.105,0.036-9.971-1.837-10.393-9.015c-0.409-6.969-2.092-13.865-3.215-20.793c-5.298-31.338-10.715-62.625-36.61-85.18
				c2.055-1.27,3.759-2.324,5.465-3.38c23.581-8.487,33.806-25.305,30.759-50.756c-0.152-1.261-0.865-2.62-1.703-3.605
				c-8.186-9.633-7.226-23.439-16.078-33.265c-4.772-5.297-4.752-14.435-5.941-22.044c-0.531-3.402-0.171-8.039,3.289-8.867
				c6.056-1.45,4.23-5.281,4.042-8.815c-0.938-17.674-2.216-35.353,1.473-52.897c2.395-8.201,7.161-13.245,16.172-14.763
				c5.997-1.012,10.326-6.48,16.307-8.475c21.316-7.107,56.539-3.004,70.599,21.352c4.978,8.622,6.554,18.093,7.562,27.741
				c0.107,1.023-0.24,2.556-0.955,3.131c-7.229,5.814-4.446,13.96-5.149,21.287c-0.487,4.749-1.935,9.445,3.999,12.613
				c2.328,1.243,2.238,5.232,1.773,8.236c-1.11,7.172-1.282,15.406-5.476,20.81c-6.498,8.368-6.601,18.747-11.464,27.299
				C2859.497-787.927,2863.366-775.552,2866.796-763.041z"/>
		</g>
	</g>
	<g>
		<path fill-rule="evenodd" clip-rule="evenodd" fill="#F32C4C" d="M-579.589,0.002C-315.153,0.623-100.07,216.23-100,479.904
			c0.071,262.81-215.164,483.479-486.219,480.057c-262.077-3.309-474.509-217.681-473.779-481.16
			C-1059.264,214.137-843.566-0.617-579.589,0.002z M-579.58,339.744c-0.846-0.345-1.11-0.365-1.184-0.493
			c-1.017-1.812-2.046-3.617-3-5.461c-11.731-22.68-25.843-43.663-47.913-57.396c-34.269-21.318-72.052-25.648-110.814-17.769
			c-75.703,15.388-126.893,92.415-113.806,168.67c5.689,33.159,18.217,63.516,35.198,92.204
			c30.604,51.705,70.676,95.371,115.969,134.354c34.084,29.336,70.982,54.554,111.877,73.751c8.994,4.221,16.83,5.398,25.566,0.063
			c5.3-3.237,11.312-5.283,16.845-8.167c40.183-20.94,76.316-47.614,109.759-78.029c45.686-41.549,85.515-87.84,113.411-143.384
			c17.328-34.499,29.237-70.565,24.348-109.993c-6.933-55.921-36.333-96.323-86.876-120.581
			c-30.634-14.702-63.243-14.899-96.068-8.187c-29.796,6.094-54.069,20.938-72.363,45.447
			C-566.765,315.67-573.521,327.344-579.58,339.744z"/>
		<path fill-rule="evenodd" clip-rule="evenodd" fill="#FEFEFE" d="M-579.58,339.744c6.06-12.4,12.815-24.074,20.948-34.969
			c18.294-24.51,42.567-39.354,72.363-45.447c32.825-6.713,65.435-6.516,96.068,8.187c50.543,24.258,79.943,64.66,86.876,120.581
			c4.89,39.428-7.02,75.494-24.348,109.993c-27.896,55.544-67.726,101.835-113.411,143.384
			c-33.442,30.415-69.576,57.089-109.759,78.029c-5.533,2.884-11.545,4.93-16.845,8.167c-8.736,5.335-16.572,4.157-25.566-0.063
			c-40.895-19.197-77.793-44.415-111.877-73.751c-45.293-38.983-85.365-82.649-115.969-134.354
			c-16.981-28.688-29.509-59.045-35.198-92.204c-13.087-76.255,38.103-153.282,113.806-168.67
			c38.763-7.88,76.546-3.55,110.814,17.769c22.07,13.732,36.182,34.716,47.913,57.396c0.954,1.844,1.983,3.649,3,5.461
			C-580.69,339.379-580.426,339.399-579.58,339.744z"/>
	</g>
	<g>
		<g>
			<path fill="#FFFFFF" d="M302.065,182.146c-55.692,0-101.017,45.324-101.017,101.014c0,55.694,45.324,101.041,101.017,101.041
				c53.437,0,98.579-46.284,98.579-101.041C400.645,228.407,355.502,182.146,302.065,182.146z M346.976,329.481
				c-12.054,12.652-27.997,19.602-44.91,19.602c-36.368,0-65.949-29.556-65.949-65.924c0-36.367,29.581-65.947,65.949-65.947
				c16.913,0,32.856,6.975,44.91,19.627c11.996,12.567,18.604,29.02,18.604,46.32C365.58,300.487,358.972,316.914,346.976,329.481z"
				/>
			<path fill="#FFFFFF" d="M671.513,183.228l-78.992,199.487h189.272L708.01,183.228H671.513z M673.854,351.87H640.88l48.449-127.07
				l17.924,51.506L673.854,351.87z M725.354,323.28l10.771,28.59h-23.178L725.354,323.28z"/>
			<path fill="#FFFFFF" d="M154.023,326.833c-0.217,0.203-20.888,22.159-52.766,22.159c-35.734,0-62.689-28.872-62.689-67.143
				c0-37.549,26.254-64.791,62.439-64.791c29.075,0,49.183,18.383,49.371,18.562l5.114,4.791l19.301-29.118l-3.188-3.42
				c-1.021-1.075-25.082-26.242-71.658-26.242C42.977,181.632,0,224.84,0,282.12c0,28.041,9.983,53.9,28.116,72.758
				c18.468,19.221,44.159,29.812,72.373,29.812c48.486,0,75.113-30.098,76.233-31.396l3.131-3.579l-20.996-28.121L154.023,326.833z"
				/>
			<polygon fill="#FFFFFF" points="474.332,183.228 433.213,183.228 433.213,382.715 554.536,382.715 554.536,345.69 
				474.332,345.69 			"/>
			<path fill="#FFFFFF" d="M935.449,277.153c10.95-9.319,17.229-24.178,17.229-39.932c0-31.738-23.984-53.994-59.621-53.994h-70.022
				v199.487h71.603c39.101,0,65.362-23.984,65.362-59.032C960,303.486,950.635,285.961,935.449,277.153z M858.001,220.254h34.511
				c13.882,0,21.845,8.673,21.845,22.223c0,13.418-8.356,23.012-21.299,23.012h-35.057V220.254z M895.953,345.69h-37.952v-49.382
				h37.677c15.837,0,26.051,9.17,26.051,24.826C921.729,337.143,912.083,345.69,895.953,345.69z"/>
		</g>
		<g>
			<g>
				<path fill="#FFFFFF" d="M321.435,85.105c0.335,1.684-0.883,2.609-3.663,2.777c-1.854,0.083-3.747-0.715-5.685-2.399
					c-1.602-1.433-2.863-3.746-3.788-6.946c-0.844-2.947-1.349-7.115-1.517-12.505c-0.17-6.063-0.464-10.232-0.885-12.506
					c-1.096,3.788-2.905,9.432-5.431,16.926c-1.517,4.126-2.443,6.486-2.779,7.074c-1.348,2.611-3.031,3.788-5.054,3.536
					c-4.041-0.925-7.157-3.198-9.346-6.82c-1.434-2.356-2.78-6.105-4.042-11.243c-1.348-5.641-2.485-9.429-3.411-11.368
					c-3.622,17.602-7.497,30.738-11.621,39.412c-0.59,1.262-2.359,1.177-5.305-0.253c-2.444-1.182-3.665-2.865-3.665-5.054
					c0-0.757,0.885-3.452,2.654-8.084c0.758-2.021,3.703-11.747,8.842-29.178c1.768-6.064,3.619-16.717,5.558-31.959
					c0.168-0.167,0.588-1.052,1.263-2.653c0.42-1.178,1.179-1.769,2.274-1.769c2.862,0,4.841,0.549,5.937,1.642
					c0,2.445,0.398,6.381,1.199,11.812c0.8,5.432,1.201,9.537,1.201,12.315c0.758,4.718,1.472,9.475,2.146,14.274
					c0.926,5.39,2.61,9.81,5.054,13.264c8.084-22.485,13.22-40.253,15.41-53.307c0.335-1.345,1.6-2.021,3.789-2.021
					c3.115,0,4.884,1.012,5.306,3.032c0.588,3.031,0.884,6.525,0.884,10.484c0,1.263-0.085,4.041-0.253,8.335
					c-0.084,3.455-0.084,6.275,0,8.465C317.266,58.158,318.908,73.063,321.435,85.105z"/>
				<path fill="#FFFFFF" d="M373.224,76.895c0.506,1.349,0.758,2.526,0.758,3.537c0,1.686-0.716,3.158-2.147,4.422
					c-1.434,1.262-2.401,1.85-2.905,1.768c-4.128-0.759-6.737-4.084-7.831-9.979c-1.181-6.398-2.571-11.747-4.169-16.041
					c-2.863,0.251-5.728,0.504-8.589,0.757c-3.286,0.422-5.854,1.433-7.706,3.031c-0.929,2.611-2.147,7.244-3.662,13.896
					c-1.434,6.146-2.824,10.819-4.17,14.021c-0.675,1.516-2.104,1.936-4.294,1.263c-2.779-0.927-4.253-2.189-4.421-3.788
					c-0.253-3.202,0.674-7.495,2.778-12.885c2.527-6.146,3.917-10.524,4.168-13.138c0.084-0.758-0.463-1.599-1.641-2.525
					c-1.182-0.926-1.77-1.642-1.77-2.147c0-0.42,0.19-0.862,0.568-1.327c0.379-0.461,1.263-0.841,2.652-1.136
					c1.391-0.294,2.168-0.737,2.337-1.327c1.517-4.21,3.917-12.041,7.2-23.495c2.78-9.935,5.263-17.558,7.453-22.862
					c0.506-1.179,1.558-1.769,3.157-1.769c1.179,0,2.23,0.378,3.159,1.137c2.355,2.021,3.871,5.052,4.547,9.096
					c0.505,3.453,0.967,6.905,1.39,10.357C364.296,47.632,368.676,64.01,373.224,76.895z M354.782,52.769
					c-0.253-3.115-0.803-6.61-1.644-10.483c-0.843-3.368-1.643-6.736-2.399-10.107c-2.526,6.991-4.718,13.98-6.568,20.97
					C345.517,52.895,349.054,52.769,354.782,52.769z"/>
				<path fill="#FFFFFF" d="M414.275,55.042c-0.843,1.938-1.643,3.874-2.4,5.81c-1.011,2.273-2.105,4.087-3.284,5.433
					c-2.611,3.283-5.222,6.526-7.831,9.726c-3.117,3.875-5.937,6.568-8.464,8.085c-0.843,1.011-1.769,2.062-2.778,3.157
					c-1.011,1.093-2.021,1.643-3.032,1.643c-0.506,0-1.095-0.127-1.769-0.379c-0.674-0.253-1.411-0.55-2.21-0.885
					c-0.801-0.338-1.37-0.884-1.706-1.642c-0.253-3.537-0.379-7.325-0.379-11.369c0-4.124,0.168-10.272,0.506-18.442
					c0.335-8.166,0.505-14.313,0.505-18.441c0-5.474-0.211-10.484-0.632-15.031c-0.085-0.082-1.011-1.052-2.778-2.906
					c-1.095-1.094-1.642-2.104-1.642-3.03c0-0.42,0.082-0.841,0.253-1.264c0.42-1.011,1.346-1.599,2.778-1.77
					c1.093-0.167,2.188-0.294,3.284-0.379c7.074,1.517,14.483,5.476,22.231,11.875c2.021,1.686,3.663,3.454,4.927,5.305
					c4.042,5.98,6.063,11.58,6.063,16.801C415.918,50.032,415.369,52.601,414.275,55.042z M405.18,41.526
					c-0.758-5.305-5.264-9.979-13.515-14.021c-0.591,14.064-0.759,28.97-0.506,44.717c9.516-9.517,14.273-18.569,14.273-27.159
					C405.433,43.884,405.348,42.706,405.18,41.526z"/>
				<path fill="#FFFFFF" d="M465.306,19.799c-3.115,1.264-7.706,2.739-13.769,4.422c-6.063,1.686-10.654,3.158-13.769,4.422
					c-0.757,2.189-1.306,7.073-1.642,14.652c1.347,0.505,2.904,0.757,4.674,0.757c1.264,0,3.241-0.209,5.937-0.631
					c2.695-0.421,4.673-0.632,5.937-0.632c2.357,0,4.378,0.506,6.063,1.515c1.179,1.688,1.769,2.78,1.769,3.286
					c0,0.589-0.296,1.054-0.884,1.389c-0.171,0.085-0.759,0.675-1.77,1.768c-0.675,0.759-1.515,1.097-2.524,1.011
					c-1.77,0.424-5.013,0.676-9.729,0.759c-3.958,0.085-7.116,0.591-9.473,1.517c-1.602,6.231-2.4,11.159-2.4,14.777
					c0,2.444,0.335,4.38,1.011,5.811c3.958,2.779,10.82,3.96,20.591,3.538c0.673,0,1.389-0.317,2.146-0.948
					c0.758-0.632,1.39-0.947,1.896-0.947c2.357-0.506,3.916,1.264,4.673,5.305c0.253,1.349,0.021,2.589-0.693,3.727
					c-0.718,1.138-1.749,1.747-3.095,1.831c-10.189,0.337-19.033-0.463-26.527-2.398c-2.357-0.591-4.506-1.896-6.442-3.917
					c-1.937-2.02-3.03-4.294-3.283-6.82c-0.758-7.325-0.758-13.895,0-19.704c-2.359-1.6-3.41-3.16-3.159-4.675
					c0.084-0.758,0.737-1.453,1.959-2.085c1.22-0.631,1.915-1.282,2.085-1.958c0.168-0.673,0.504-4.673,1.01-11.999
					c-4.717-0.927-7.031-2.694-6.946-5.306c0.082-2.442,1.557-4.378,4.42-5.811c2.693-1.093,5.388-2.189,8.084-3.284
					c3.114-1.599,7.03-3.031,11.748-4.295c4.124-1.094,8.252-2.146,12.379-3.156c0.421-0.084,0.925-0.127,1.516-0.127
					c2.273,0,4.926,0.884,7.957,2.651c0.083,0.338,0.294,0.97,0.632,1.896c0.336,0.927,0.506,1.601,0.506,2.021
					C466.19,18.832,465.894,19.379,465.306,19.799z"/>
				<path fill="#FFFFFF" d="M586.062,17.904c1.936,0.928,2.905,2.273,2.905,4.043c0,1.18-0.505,2.778-1.517,4.799
					c-1.262,2.697-1.938,4.212-2.021,4.549c-2.021,6.231-3.937,15.707-5.747,28.421c-1.812,12.717-3.643,22.063-5.494,28.041
					c-0.506,1.685-1.938,2.527-4.295,2.527c-1.096,0-2.064-0.211-2.905-0.632c-3.117-1.602-5.349-4.717-6.695-9.348
					c-0.084-0.42-0.884-4.63-2.399-12.631c-0.759-4.211-1.475-8.716-2.147-13.516c-1.18,2.357-2.737,8.209-4.674,17.558
					c-1.686,8.084-3.662,13.22-5.938,15.409c-0.674,0.673-1.853,0.758-3.537,0.253c-2.525-0.337-4.211-1.852-5.052-4.547
					c-0.506-2.357-1.011-4.714-1.516-7.074c-1.516-6.062-2.717-15.493-3.6-28.294c-0.885-12.799-2.085-22.147-3.601-28.042
					c-0.253-1.011-0.126-1.978,0.379-2.905c0.506-0.926,1.22-1.431,2.147-1.517c0.673-0.167,1.346-0.252,2.021-0.252
					c2.357,0,4.169,1.055,5.433,3.157c1.346,7.074,2.946,20.842,4.8,41.307c0.673-1.432,1.453-4.106,2.336-8.021
					c0.885-3.917,1.747-6.759,2.591-8.527c0.757-3.198,1.472-6.397,2.146-9.6c1.01-3.872,3.114-5.811,6.316-5.811
					c0.841,0,1.768,0.127,2.779,0.379c0.082,0.506,0.461,0.803,1.136,0.885c0.673,0.085,1.052,0.212,1.137,0.379
					c1.853,4.127,3.241,9.643,4.169,16.547c1.431,9.77,2.314,15.41,2.652,16.926c1.347-7.493,2.735-14.945,4.169-22.357
					c1.769-8.673,4.042-15.745,6.82-21.221c0.588-1.094,1.811-1.642,3.663-1.642C583.872,17.147,585.052,17.4,586.062,17.904z"/>
				<path fill="#FFFFFF" d="M608.673,19.042c0.167,2.443,0.253,4.97,0.253,7.578c0,5.728-0.591,14.359-1.769,25.896
					c-1.181,11.538-1.769,20.254-1.769,26.148c0,2.189,0.041,4.335,0.126,6.441c-0.759,2.356-2.399,3.492-4.926,3.41
					c-3.622-0.171-5.602-1.727-5.937-4.674c-0.338-2.947-0.506-6.062-0.506-9.347c0-5.727,0.695-14.273,2.084-25.643
					c1.39-11.368,2.085-19.873,2.085-25.516c0-2.189-0.085-4.338-0.253-6.442c0.841-1.599,2.273-2.4,4.294-2.4
					c1.6,0,3.199,0.464,4.801,1.39c0.335-0.253,0.588-0.379,0.757-0.379c0.253,0,0.379,0.423,0.379,1.264
					c-0.085,1.011-0.085,1.601,0,1.768C608.377,18.789,608.504,18.958,608.673,19.042z"/>
				<path fill="#FFFFFF" d="M679.409,4.264c-0.758,3.03-2.19,4.799-4.295,5.305c-5.474,1.349-14.989,3.116-28.547,5.305
					c-1.685,20.97-2.525,38.444-2.525,52.421c0,5.307,0.082,10.529,0.253,15.663c0.082,1.6,0,2.82-0.253,3.664
					c-0.423,1.345-1.264,1.977-2.527,1.895c-2.442-0.086-4.465-1.117-6.063-3.096c-1.601-1.979-2.484-4.188-2.652-6.63
					c-0.169-3.115-0.253-6.399-0.253-9.854c0-5.558,0.379-14.355,1.138-26.399c0.758-11.535,1.093-20.336,1.011-26.399
					c-2.274-0.168-5.433,0.044-9.474,0.632c-4.634,0.675-7.832,1.011-9.601,1.011c-4.125,0-7.494-1.104-10.105-3.312
					c-1.01-2.206-1.515-3.354-1.515-3.439c0-0.593,0.295-1.229,0.883-1.909c2.696-0.934,8.211-1.782,16.548-2.548
					c7.327-0.765,12.8-2.121,16.422-4.076c2.946,1.011,6.315,1.517,10.104,1.517s7.409-0.462,10.863-1.391
					c1.01-0.082,3.578-0.673,7.705-1.768c3.031-0.758,5.558-1.011,7.579-0.758c1.515,0,2.147,0.632,1.895,1.894
					C678.272,1.988,679.409,2.747,679.409,4.264z"/>
				<path fill="#FFFFFF" d="M705.809,12.347c-0.17,7.496-1.39,19.369-3.663,35.622c-2.105,15.409-3.158,27.241-3.158,35.494
					c0,2.61,0.083,5.094,0.253,7.453c0,0.588-0.253,1.155-0.758,1.705c-0.506,0.547-1.095,0.82-1.769,0.82
					c-2.358,0-3.916-0.211-4.674-0.631c-3.2-1.854-4.8-5.349-4.8-10.484c0-1.012,0.063-2.59,0.189-4.736
					c0.127-2.147,0.189-3.727,0.189-4.736c0-1.685,0.209-4.253,0.631-7.706c0.421-3.452,0.632-6.104,0.632-7.959
					c-1.18,0.085-2.801-0.082-4.862-0.505c-2.064-0.421-3.56-0.631-4.485-0.631c-1.095,0-2.146,0.169-3.157,0.504
					c-2.021,6.654-3.201,16.466-3.537,29.433c-2.863,1.179-5.643,1.052-8.337-0.379c-1.938-1.01-2.905-3.032-2.905-6.063
					c0-0.673,0.063-1.58,0.189-2.716c0.127-1.136,0.189-1.832,0.189-2.085c0.253-4.547,1.221-13.557,2.905-27.03
					c1.432-11.284,2.104-20.252,2.021-26.906c0-0.926,0.653-1.515,1.959-1.768c1.304-0.253,2.04-0.506,2.21-0.758
					c0.506,0.59,1.726,1.095,3.664,1.515c1.599,0.338,2.567,1.096,2.905,2.274c0.673,2.106,1.011,4.465,1.011,7.074
					c0,1.854-0.274,4.779-0.821,8.779c-0.55,4-0.821,7.053-0.821,9.157c1.011,0.759,2.273,1.222,3.789,1.391
					c1.012,0.169,2.441,0.21,4.294,0.125c2.442-0.168,3.916-0.252,4.422-0.252c2.104-8.843,3.957-20.294,5.558-34.359
					c0.335-2.945,1.391-4.42,3.158-4.42C702.692,9.147,705.219,10.073,705.809,12.347z"/>
			</g>
			<g>
				<path fill="#FFFFFF" d="M237.4,127.395c0,0,1.885-0.146,5.416-0.421c3.533-0.262,8.712-0.704,15.309-1.152
					c6.596-0.453,14.604-1.001,23.792-1.632c9.188-0.602,19.554-1.285,30.866-1.932c11.312-0.677,23.564-1.41,36.528-2.073
					c12.965-0.686,26.634-1.452,40.781-2.085c14.146-0.643,28.761-1.421,43.617-2.003c14.855-0.61,29.948-1.232,45.04-1.853
					c15.096-0.53,30.191-1.06,45.051-1.581c14.858-0.563,29.488-0.887,43.644-1.324c14.154-0.442,27.841-0.728,40.82-1.022
					c12.978-0.323,25.251-0.53,36.58-0.709c11.329-0.214,21.718-0.325,30.925-0.419c9.208-0.068,17.236-0.129,23.848-0.18
					c6.611-0.053,11.809-0.005,15.351-0.012c3.543,0.007,5.433,0.009,5.433,0.009s-1.884,0.147-5.416,0.422
					c-3.533,0.264-8.711,0.705-15.309,1.155c-6.594,0.454-14.604,1.004-23.79,1.636c-9.189,0.605-19.556,1.285-30.868,1.934
					c-11.31,0.683-23.563,1.41-36.528,2.074c-12.964,0.692-26.633,1.449-40.781,2.083c-14.146,0.64-28.758,1.431-43.616,1.998
					c-14.856,0.609-29.948,1.229-45.04,1.849c-15.096,0.529-30.192,1.058-45.052,1.577c-14.857,0.55-29.488,0.885-43.643,1.319
					c-14.154,0.444-27.843,0.72-40.821,1.021c-12.978,0.324-25.25,0.524-36.58,0.71c-11.329,0.216-21.717,0.322-30.924,0.421
					c-9.21,0.069-17.236,0.131-23.848,0.183c-6.611,0.053-11.81,0.007-15.352,0.013C239.291,127.396,237.4,127.395,237.4,127.395z"
					/>
			</g>
		</g>
	</g>
	<g>
		<path d="M3080,0l-102.339,76.754L2874.74,316.915h-82.771l-32.502-70.437h21.227c38.836,0,70.42-31.584,70.42-70.42v-70.42h35.219
			V0h-105.639v105.639h35.219v70.42c0,19.426-15.792,35.219-35.219,35.219h-37.478l-45.011-97.522l53.922-26.943l-176.534-75.669
			l-41.492,145.215C2532.973,69.943,2462.421,0,2375.751,0c-87.377,0-158.458,71.072-158.458,158.449
			c0,52.811,26.74,102.33,70.429,131.611v26.846h-42.648l-2.743,14.283c-8.558,44.385-9.343,89.917-2.355,135.404L2120,680.642
			l132.785,30.278v221.872h176.066v158.458h422.545V845.9c121.378-87.181,193.49-227.359,193.403-376.906l-0.036-64.227
			c0-24.208-2.275-48.91-6.792-73.437l-2.63-14.425h-34.565L3080,126.76V0z M2815.913,35.21h35.201v35.21h-35.201V35.21z
			 M3044.8,94.734l-19.479-9.74L3044.8,70.42V94.734z M2753.187,316.906h-66.785l-32.007-70.428h66.29L2753.187,316.906z
			 M2615.717,246.479l32.008,70.437h-78.307v-35.219c0-19.418,15.792-35.218,35.218-35.218H2615.717z M2598.452,59.26l69.987,29.986
			l-16.515,8.275l52.51,113.756h-66.044l-42.911-94.364l-15.758,7.87L2598.452,59.26z M2578.575,164.756l21.35,46.988
			c-36.612,2.462-65.718,32.714-65.718,69.952v35.21h-70.428v-26.846c35.236-23.609,59.145-60.46,67.208-101.502L2578.575,164.756z
			 M2314.152,265.058c-38.023-22.021-61.65-62.868-61.65-106.608c0-67.941,55.308-123.239,123.249-123.239
			c67.948,0,123.247,55.298,123.247,123.239c0,43.74-23.626,84.605-61.642,106.626l-8.787,5.073v46.749h-35.21V208.013
			c20.433-7.288,35.21-26.652,35.21-49.581c0-29.114-23.697-52.811-52.818-52.811c-29.114,0-52.82,23.696-52.82,52.811
			c0,22.929,14.777,42.293,35.21,49.581v108.885h-35.21v-46.749L2314.152,265.058z M2358.141,158.449
			c0-9.714,7.887-17.602,17.61-17.602c9.722,0,17.608,7.888,17.608,17.602c0,9.722-7.887,17.609-17.608,17.609
			C2366.027,176.059,2358.141,168.153,2358.141,158.449z M3009.546,404.785l0.034,64.244
			c0.106,141.042-69.361,273.086-185.78,353.228l-7.622,5.25v228.524h-352.134V897.583h-176.059V682.82l-114.249-26.034
			l102.992-183.77l-1.032-6.122c-6.537-38.519-6.96-77.063-1.252-114.796h13.277h176.058h541.92
			C3008.257,369.761,3009.546,387.405,3009.546,404.785z M2913.029,316.906l87.765-204.774l39.029,19.506l-77.177,185.269H2913.029z
			"/>
		<path d="M2410.969,457.755c-29.132,0-52.828-23.697-52.828-52.812h-35.21c0,48.541,39.498,88.029,88.038,88.029
			s88.029-39.488,88.029-88.029h-35.219C2463.779,434.058,2440.083,457.755,2410.969,457.755z"/>
	</g>
	<g id="Layer_3">
		<path d="M1448.709,1023.186c-7.908,0-15.023-3.747-19.498-10.324c-6.057-8.873-14.323-20.991,46.776-178.552l-28.943-2.638
			c-10.531-0.95-19.553-6.428-24.728-15.022c-5.175-8.608-5.806-19.15-1.728-28.896l78.424-187.438
			c6.188-14.813,22.394-25.564,38.508-25.564l75.761,1.604c10.777,0.22,20.192,5.175,25.839,13.59
			c5.643,8.379,6.685,18.963,2.857,29.015l-36.866,96.767l29.217,2.635c11.534,1.024,20.677,7.137,25.121,16.736
			c4.437,9.539,3.175,20.474-3.469,29.957c-10.953,15.561-49.728,70.499-89.396,124.732
			C1469.03,1023.186,1462.219,1023.186,1448.709,1023.186z M1495.83,791.949c10.462,0.951,19.456,6.385,24.686,14.885
			c5.244,8.487,6.04,18.961,2.21,28.721c-10.572,26.927-20.977,54.809-29.806,79.799c30.713-40.699,71.254-96.467,112.884-155.39
			l-20.236-1.871c-10.394-0.931-19.374-6.329-24.659-14.771c-5.285-8.446-6.164-18.905-2.43-28.677l36.053-94.655l-55.592-1.234
			l-71.354,170.588L1495.83,791.949z"/>
		<path d="M1913.702,235.67c1.017-7.347,1.552-14.73,1.552-22.132c0-85.098-65.159-154.323-145.229-154.323
			c-18.98,0-37.621,3.957-55.019,11.546C1684.706,27.119,1632.823,0,1576.436,0c-52.241,0-100.704,23.146-131.777,61.659
			c-15.951-7.608-33.033-11.546-50.414-11.546c-54.013,0-101.518,37.317-122.467,93.502c-7.674-1.596-15.45-2.405-23.284-2.405
			c-73.797,0-133.839,70.239-133.839,156.588c0,4.764,0.18,9.528,0.552,14.265c-34.422,24.576-55.206,64.01-55.206,106.443
			c0,72.535,60.053,131.561,133.85,131.561l695.21-0.138c73.426-1.868,130.94-71.585,130.94-158.743
			C2019.997,314.766,1974.328,250.786,1913.702,235.67z M1576.144,325.862c11.298,0,20.457,9.159,20.457,20.456
			c0,11.298-9.159,20.457-20.457,20.457s-20.457-9.159-20.457-20.457C1555.687,335.021,1564.849,325.862,1576.144,325.862z
			 M1459.284,390.521c11.297,0,20.456,9.159,20.456,20.457c0,11.297-9.159,20.456-20.456,20.456
			c-11.298,0-20.457-9.159-20.457-20.456C1438.827,399.681,1447.986,390.521,1459.284,390.521z M1153.044,346.164l15.568-8.332
			l-2.992-17.439c-1.278-7.385-1.921-14.993-1.921-22.614c0-59.298,38.042-107.544,84.794-107.544
			c9.884,0,19.743,2.279,29.297,6.798l28.216,13.317l6.271-30.574c9.748-47.477,43.453-80.634,81.967-80.634
			c14.921,0,29.737,5.188,42.809,15.021l2.824,2.116v147.261h-125.445c-7.853-17.807-25.617-30.272-46.336-30.272
			c-27.995,0-50.689,22.708-50.689,50.688c0,27.995,22.694,50.703,50.689,50.703c20.719,0,38.455-12.449,46.325-30.258h125.459
			v59.322c-11.545,5.111-20.812,14.361-25.907,25.896H1114.6C1121.602,371.454,1134.963,355.869,1153.044,346.164z
			 M1288.812,284.948c0,11.298-9.159,20.457-20.457,20.457c-11.297,0-20.456-9.159-20.456-20.457
			c0-11.297,9.159-20.456,20.456-20.456C1279.652,264.492,1288.812,273.651,1288.812,284.948z M1689.44,500.922l-495.597,0.083
			c-42.533,0-77.503-30.727-83.543-70.484h303.7c7.853,17.792,25.62,30.246,46.309,30.246c28.022,0,50.703-22.696,50.703-50.689
			c0-20.702-12.441-38.458-30.25-46.312V98.58h-2.207c17.71-25.4,45.788-42.562,77.641-47.725v247.929
			c-17.806,7.869-30.26,25.62-30.26,46.324c0,27.982,22.693,50.688,50.689,50.688c27.995,0,50.7-22.708,50.7-50.688
			c0-20.704-12.463-38.455-30.271-46.324V50.938c38.045,6.305,70.818,29.616,86.524,63.211l12.19,26.044l23.782-16.144
			c15.225-10.325,32.691-15.775,50.473-15.775c53.021,0,96.188,47.229,96.188,105.265c0,11.752-1.965,23.49-5.657,34.956h-104.372
			c-7.853-17.795-25.604-30.264-46.324-30.264c-27.979,0-50.689,22.711-50.689,50.689c0,20.705,12.466,38.455,30.271,46.339V500.922
			L1689.44,500.922z M1709.704,289.649c-11.298,0-20.457-9.159-20.457-20.457c0-11.297,9.159-20.456,20.457-20.456
			c11.297,0,20.456,9.159,20.456,20.456C1730.16,280.49,1721.001,289.649,1709.704,289.649z M1842.062,343.75
			c-28.028,0-50.694,22.684-50.694,50.69c0,27.992,22.666,50.689,50.694,50.689c20.702,0,38.47-12.455,46.337-30.261h80.492
			c-8.36,48.193-41.434,85.028-80.479,85.998l-158.099,0.027V315.259c11.534-5.078,20.788-14.348,25.894-25.894h160.887v-0.355
			c27.529,14.018,47.986,46.121,52.733,84.987h-81.427C1880.519,356.199,1862.765,343.75,1842.062,343.75z M1861.836,396.165
			c0,11.297-9.159,20.456-20.456,20.456c-11.298,0-20.457-9.159-20.457-20.456c0-11.298,9.159-20.457,20.457-20.457
			C1852.677,375.708,1861.836,384.867,1861.836,396.165z"/>
	</g>
	<g>
		<polygon points="-646.682,2019.376 -670.629,2040.62 -578.437,2144.304 -578.436,2144.303 -670.627,2040.62 		"/>
		<path d="M-500,1271.998c0,35.061-22.175,64.867-53.871,75.676c31.697-10.809,53.873-40.615,53.873-75.676
			c0-44.184-35.804-79.998-80-79.998l0,0C-535.803,1192-500,1227.814-500,1271.998z"/>
		<path d="M-500,1822.663c0,35.062-22.175,64.868-53.871,75.677c31.697-10.809,53.873-40.614,53.873-75.677
			c0-44.184-35.804-79.997-80-79.997l0,0C-535.803,1742.666-500,1778.479-500,1822.663z"/>
		<polygon points="-513.469,2019.562 -489.215,2040.427 -533.825,2092.365 -489.214,2040.427 		"/>
		<polygon points="-980,1736 -1012,1736 -1012,1832 -756,1832 -756,1800 -980,1800 		"/>
		<path d="M-980,1448h383.993h32.002H-284v-32h-280v-65.598c3.469-0.696,6.85-1.611,10.129-2.729
			c31.696-10.809,53.871-40.615,53.871-75.676c0-44.184-35.803-79.998-79.998-79.998h-0.001c-41.435,0-75.487,31.477-79.582,71.818
			c-0.273,2.689-0.413,5.418-0.413,8.18c0,38.688,26.994,70.979,63.994,78.404V1416h-416v96h32V1448z M-627.996,1271.998
			c0-26.457,21.526-47.996,47.996-47.996c26.458,0,47.996,21.539,47.996,47.996c0,26.47-21.538,48.002-47.996,48.002
			C-606.47,1320-627.996,1298.468-627.996,1271.998z"/>
		<polygon points="-180,1800 -420,1800 -420,1832 -148,1832 -148,1544 -180,1544 		"/>
		<path d="M-164.003,1362.663c-35.357,0-64.004,28.646-64.004,64.003c0,35.357,28.646,64.004,64.004,64.004
			c35.356,0,64.003-28.646,64.003-64.004C-100,1391.31-128.646,1362.663-164.003,1362.663z"/>
		<path d="M-932.006,1622.669c0-35.363-28.634-64.003-63.991-64.003c-35.368,0-64.003,28.64-64.003,64.003
			c0,35.356,28.635,63.997,64.003,63.997C-960.64,1686.666-932.006,1658.025-932.006,1622.669z"/>
		<path d="M-513.469,2019.562L-564,2078.376v-177.308c3.469-0.696,6.85-1.611,10.129-2.729
			c31.696-10.809,53.871-40.614,53.871-75.677c0-44.184-35.803-79.997-79.998-79.997h-0.001c-41.435,0-75.487,31.477-79.582,71.817
			c-0.273,2.689-0.413,5.418-0.413,8.18c0,38.689,26.994,70.979,63.994,78.405v175.359l-50.682-57.052l-23.945,21.244
			l92.191,103.683v0.001l44.61-51.938l44.61-51.938L-513.469,2019.562z M-627.996,1822.663c0-26.457,21.526-47.995,47.996-47.995
			c26.458,0,47.996,21.538,47.996,47.995c0,26.471-21.538,48.003-47.996,48.003C-606.47,1870.666-627.996,1849.134-627.996,1822.663
			z"/>
	</g>
	<g>
		<g>
			<path d="M630.263,1546.822c5.924-8.457,7.094-18.114,3.202-26.483c-3.913-8.438-12.04-13.8-22.298-14.712l-37.086-3.347
				l40.941-107.452c3.434-9.025,2.53-18.464-2.479-25.895c-5.021-7.477-13.434-11.871-23.09-12.067l-79.382-1.687
				c-14.879,0.001-29.938,9.996-35.698,23.765l-82.157,196.39c-3.665,8.749-3.125,18.165,1.48,25.838
				c4.607,7.648,12.675,12.524,22.128,13.371l36.832,3.35l-2.359,6.086c-63.075,162.668-54.595,175.098-49.526,182.525
				c3.745,5.506,9.709,8.66,16.361,8.66c11.719,0,18.793,0,119.526-137.733C576.182,1623.393,615.286,1568.091,630.263,1546.822z
				 M448.217,1735.469l10.596-29.988c9.401-26.6,20.221-55.567,31.289-83.768c3.445-8.785,2.744-18.153-1.921-25.701
				c-4.677-7.59-12.74-12.432-22.13-13.289l-36.266-3.35l78.629-187.994l68.582,1.521l-40.27,105.68
				c-3.362,8.814-2.588,18.178,2.123,25.693c4.725,7.545,12.777,12.348,22.092,13.178l29.698,2.75l-4.909,6.951
				c-42.855,60.67-85.996,120.056-118.354,162.93L448.217,1735.469z"/>
		</g>
		<g>
			<path d="M959.814,1612.709c0-229.039-186.299-417.744-415.248-420.672c-1.791-0.018-3.561-0.037-5.336-0.037
				c-197.689,0-370.482,140.815-412.077,336.676c-10.285,48.332-11.568,98.179-3.845,148.301L0.268,1898.275L138,1937.436V2162h183
				v128h35v-165H173v-215.158l-119.039-34.041l107.494-192.146l-1.053-6.367c-8.068-47.708-7.231-95.141,2.54-140.998
				c38.339-180.617,198.632-310.09,381.116-307.655c209.041,2.672,379.103,174.981,379.103,384.091l0.054,66.776
				c0.092,146.614-72.189,283.864-193.202,367.145l-8.013,5.472V2290h0.214h36.6H759v-218.774
				c126-90.603,201.002-236.303,200.911-391.757L959.814,1612.709z"/>
			<polygon points="722.214,2290 721.63,2290 356.224,2290 355.686,2290 321,2290 321,2326.23 321,2327 759,2327 759,2290 
				758.813,2290 			"/>
		</g>
	</g>
	<g>
		<path d="M1105.812,1587.195c13.82,7.977,29.495,12.193,45.329,12.193c26.947,0,52.704-12.098,70.049-32.636l59.82,34.533
			l-41.982,7.099l5.365,31.871l105.529-17.854l-37.305-100.307l-30.296,11.254l14.85,39.941l-59.817-34.525
			c15.014-41.449-1.504-87.951-39.981-110.15c-13.91-8.037-29.712-12.284-45.697-12.284c-32.652,0-63.063,17.548-79.363,45.793
			c-12.23,21.177-15.484,45.851-9.15,69.479C1069.488,1555.227,1084.635,1574.969,1105.812,1587.195z M1151.566,1554.812
			c-25.354,0-45.98-20.983-45.98-46.774s20.626-46.774,45.98-46.774c25.358,0,45.985,20.983,45.985,46.774
			S1176.925,1554.812,1151.566,1554.812z"/>
		<path d="M1524.016,1373.254l0.004,69.066l-27.14-32.805l-24.919,20.578l68.229,82.463l68.216-82.458l-24.9-20.61l-27.164,32.83
			l-0.006-69.064c43.401-7.721,75.411-45.277,75.398-89.701c0.01-24.447-9.512-47.436-26.805-64.732
			c-17.293-17.295-40.281-26.82-64.755-26.82c-50.482,0-91.553,41.068-91.553,91.549
			C1448.625,1327.977,1480.632,1365.535,1524.016,1373.254z M1495.135,1272.029c3.304-11.962,11.09-21.995,21.926-28.252
			c7.219-4.166,15.393-6.369,23.634-6.369c16.474,0,31.75,8.737,39.87,22.805c6.133,10.621,7.697,23.037,4.407,34.961
			c-3.3,11.961-11.087,21.994-21.923,28.25c-7.218,4.166-15.391,6.369-23.635,6.369c-16.471,0-31.748-8.738-39.869-22.803
			C1493.41,1296.369,1491.845,1283.953,1495.135,1272.029z"/>
		<path d="M1841.921,1608.864l-42.094-6.583l59.374-35.289c17.33,19.998,42.815,31.773,69.323,31.773
			c16.238,0,32.254-4.419,46.31-12.775c21.018-12.486,35.918-32.416,41.951-56.115c6.037-23.704,2.478-48.336-10.013-69.355
			c-16.421-27.637-46.615-44.804-78.802-44.804c-16.385,0-32.523,4.443-46.677,12.854c-38.194,22.702-54.13,69.405-38.603,110.643
			l-59.373,35.283l14.341-40.087l-30.423-10.916l-36.039,100.778l105.732,16.528L1841.921,1608.864z M1887.157,1484.321
			c8.059-14.375,23.45-23.304,40.164-23.304c8.037,0,16.03,2.1,23.119,6.074c10.916,6.12,18.827,16.053,22.278,27.971
			c3.441,11.881,2.031,24.316-3.965,35.013c-8.059,14.378-23.451,23.31-40.168,23.31c-8.037,0-16.034-2.102-23.122-6.075
			c-10.916-6.12-18.826-16.053-22.278-27.972C1879.748,1507.455,1881.158,1495.021,1887.157,1484.321z"/>
		<path d="M1239.38,1856.73l41.982,7.1l-59.82,34.536c-17.343-20.539-43.102-32.641-70.049-32.641
			c-15.834,0-31.509,4.219-45.329,12.197c-21.177,12.224-36.323,31.966-42.654,55.589c-6.33,23.627-3.083,48.301,9.15,69.479
			c16.304,28.246,46.718,45.792,79.371,45.792c15.981,0,31.783-4.245,45.69-12.276c38.485-22.207,55.002-68.711,39.981-110.152
			l59.82-34.53l-14.847,39.936l30.29,11.269l37.307-100.318l-105.531-17.85L1239.38,1856.73z M1197.907,1957.08
			c0,25.791-20.63,46.772-45.984,46.772c-25.356,0-45.984-20.981-45.984-46.772s20.628-46.776,45.984-46.776
			C1177.277,1910.304,1197.907,1931.289,1197.907,1957.08z"/>
		<path d="M1556.685,2091.857l0.007-69.063l27.16,32.823l24.903-20.605l-68.22-82.459l-68.228,82.463l24.918,20.58l27.144-32.805
			l-0.004,69.066c-43.384,7.721-75.394,45.278-75.396,89.708c0,50.478,41.066,91.545,91.564,91.545h0.019
			c24.452,0,47.441-9.525,64.73-26.817c17.29-17.296,26.809-40.282,26.804-64.728
			C1632.097,2137.136,1600.086,2099.578,1556.685,2091.857z M1580.918,2204.9c-8.121,14.064-23.397,22.804-39.869,22.804
			c-8.243,0-16.418-2.205-23.635-6.37c-22.334-12.896-30.195-41.25-17.517-63.21c8.122-14.067,23.397-22.807,39.875-22.807
			c8.241,0,16.412,2.202,23.626,6.368C1585.734,2154.584,1593.593,2182.941,1580.918,2204.9z"/>
		<path d="M2017.132,1935.234c-6.034-23.703-20.936-43.634-41.952-56.118c-14.058-8.358-30.07-12.774-46.305-12.774
			c-26.506,0-51.994,11.775-69.327,31.771l-59.374-35.288l42.094-6.58l-4.991-31.939l-105.733,16.535l36.039,100.776l30.424-10.91
			l-14.343-40.093l59.374,35.288c-15.526,41.234,0.408,87.933,38.604,110.637c14.153,8.412,30.295,12.855,46.68,12.855
			c32.187,0,62.378-17.169,78.792-44.807C2019.608,1983.569,2023.168,1958.938,2017.132,1935.234z M1973.071,1970.053
			c-3.452,11.918-11.362,21.851-22.278,27.968c-7.088,3.974-15.082,6.076-23.119,6.076c-16.718,0-32.108-8.931-40.164-23.311
			c-5.999-10.696-7.413-23.128-3.971-35.009c3.447-11.916,11.358-21.849,22.278-27.969c7.087-3.977,15.084-6.076,23.121-6.076
			c16.718,0,32.109,8.931,40.168,23.308C1975.102,1945.736,1976.513,1958.172,1973.071,1970.053z"/>
		<path d="M1540.178,1565.834c-91.763,0-166.417,74.653-166.417,166.415c0,91.76,74.654,166.414,166.417,166.414
			c91.758,0,166.408-74.654,166.408-166.414C1706.586,1640.487,1631.936,1565.834,1540.178,1565.834z M1540.172,1854.671
			c-64.988,0-117.857-52.872-117.857-117.856s52.869-117.852,117.857-117.852c64.983,0,117.852,52.867,117.852,117.852
			S1605.155,1854.671,1540.172,1854.671z"/>
	</g>
	<g>
		<path d="M3718.543-860.143l-3.125,12.773l3.125-12.767l83.405-360.561c0.267-1.282,0.407-2.51,0.454-3.792
			c-0.054,1.155-0.221,2.29-0.454,3.405L3718.543-860.143z"/>
		<path d="M3648.501-698.495c0.367-1.548,0.501-3.118,0.48-4.607c-0.026,1.289-0.153,2.564-0.48,3.953l-52.733,228.507
			l-14.11,60.956l0.127-0.261l13.983-60.255L3648.501-698.495z"/>
		<path d="M3874.814-847.369c7.192,0,13.83,4.687,17.289,10.997c1.75,3.179,2.537,6.857,2.397,10.517
			c0.14-3.66-0.647-7.338-2.397-10.524C3888.645-842.708,3882.007-847.369,3874.814-847.369z"/>
		<path d="M3427.91-693.366c-1.724-3.125-2.498-6.731-2.391-10.343c-0.147,3.572,0.634,7.171,2.391,10.356
			c3.445,6.35,10.062,11.051,17.262,11.051C3437.973-682.303,3431.355-687.023,3427.91-693.366z"/>
		<path d="M3601.457-669.596l-83.405,360.574c-0.253,1.256-0.4,2.518-0.447,3.799c0.061-1.136,0.221-2.291,0.447-3.439
			L3601.457-669.596z"/>
		<path d="M3671.485-831.237c-0.354,1.549-0.501,3.085-0.468,4.607c0.021-1.289,0.161-2.611,0.468-3.973l52.761-228.474
			l14.083-60.942l-0.146,0.207l-13.937,60.281L3671.485-831.237z"/>
		<path d="M3952.356-913.974c3.426,0,6.831-0.895,9.796-2.611l106.316-61.403c9.396-5.429,12.634-17.48,7.225-26.875
			c-3.539-6.083-10.076-9.869-17.107-9.869c-3.433,0-6.812,0.908-9.797,2.671L3942.5-950.705
			c-9.408,5.422-12.654,17.48-7.252,26.875C3938.787-917.74,3945.338-913.974,3952.356-913.974z"/>
		<path d="M3370.041-617.234c-3.419,0-6.818,0.929-9.81,2.671l-108.7,62.786c-9.396,5.402-12.641,17.48-7.225,26.888
			c3.512,6.037,10.05,9.809,17.081,9.809c3.452,0,6.845-0.915,9.81-2.61l108.713-62.799c9.396-5.408,12.602-17.48,7.192-26.902
			C3383.597-613.448,3377.059-617.234,3370.041-617.234z"/>
		<path d="M3342.107-767.5c0-10.83-8.841-20.5-19.665-20.5h-122.771c-10.838,0-19.672,9.67-19.672,20.5
			c0,10.857,8.834,20.5,19.672,20.5h122.771C3333.267-747,3342.107-756.643,3342.107-767.5z"/>
		<path d="M3379.91-949.29l-108.706-62.772c-3.005-1.776-6.391-2.684-9.843-2.684c-7.005,0-13.522,3.779-17.068,9.889
			c-2.604,4.534-3.312,9.829-1.95,14.93c1.362,5.068,4.614,9.315,9.188,11.939l108.7,62.752c2.972,1.716,6.356,2.624,9.789,2.624
			c7.065,0,13.603-3.779,17.082-9.809c2.617-4.56,3.339-9.889,1.977-14.943C3387.703-942.459,3384.471-946.679,3379.91-949.29z"/>
		<path d="M4120.301-788h-122.743c-10.845,0-19.679,9.67-19.679,20.5c0,10.857,8.834,20.5,19.679,20.5h122.743
			c10.852,0,19.699-9.643,19.699-20.5C4140-778.33,4131.152-788,4120.301-788z"/>
		<path d="M4068.469-551.777l-106.296-61.39c-3.005-1.75-6.404-2.665-9.79-2.665c-7.038,0-13.575,3.786-17.121,9.87
			c-5.402,9.401-2.157,21.44,7.238,26.915l106.275,61.343c3.025,1.736,6.338,2.624,9.837,2.624c7.019,0,13.556-3.772,17.081-9.815
			c2.638-4.547,3.312-9.869,1.957-14.93C4076.301-544.919,4073.036-549.153,4068.469-551.777z"/>
		<path d="M3874.814-856h-145.573h-13.823l3.125-8.458l83.405-358.757c0.233-1.148,0.4-1.198,0.454-2.346
			c0.28-7.993-4.348-14.955-11.974-18.187c-2.464-1.028-5.028-1.251-7.646-1.251c-6.711,0-12.901,3.581-16.541,9.23
			l-337.558,521.866c-1.964,3.031-3.025,6.603-3.165,10.167c-0.107,3.606,0.667,5.893,2.391,9.004
			c3.445,6.343,10.062,9.731,17.262,9.731h145.566h13.816l-3.098,14.045l-83.405,361.634c-0.227,1.122-0.387,2.621-0.447,3.729
			c-0.28,8.032,4.334,15.709,11.967,18.941c2.45,1.035,5.015,1.651,7.679,1.651c6.711,0,12.889-3.338,16.521-8.973l337.57-521.611
			c1.95-3.039,3.019-6.666,3.159-10.305c0.14-3.653-0.647-11.62-2.397-14.772C3888.645-847.023,3882.007-856,3874.814-856z
			 M3827.631-790.266l-211.938,328.491l-34.036,52.616l0.127-0.742l-0.127,0.247l14.11-60.982l52.733-228.484
			c0.327-1.381,0.454-2.691,0.48-3.974c-0.073-4.133-1.522-10.622-4.28-14.087c-3.746-4.72-9.362-8.819-15.392-8.819h-127.725
			h-20.214l10.979-15.627l211.943-327.417l34.036-52.075l-0.146,1.024l0.146-0.093l-14.083,61.03l-52.761,228.504
			c-0.307,1.375-0.447,2.702-0.468,4.004c0.041,4.12,1.523,8.487,4.268,11.959c3.746,4.694,9.369,6.69,15.393,6.69h127.725h20.213
			L3827.631-790.266z"/>
	</g>
	<polyline fill="none" stroke="#1EE29C" stroke-width="16" stroke-linecap="round" stroke-miterlimit="10" points="3334,106 3458,0 
		3582,106 	"/>
	<polyline fill="none" stroke="#1EE29C" stroke-width="16" stroke-linecap="round" stroke-miterlimit="10" points="3582,106 3706,0 
		3830,106 	"/>
	<polyline fill="none" stroke="#1EE29C" stroke-width="16" stroke-linecap="round" stroke-miterlimit="10" points="3830,106 3954,0 
		4078,106 	"/>
	<polyline fill="none" stroke="#1EE29C" stroke-width="16" stroke-linecap="round" stroke-miterlimit="10" points="4078,106 4202,0 
		4326,106 	"/>
	<polyline fill="none" stroke="#1EE29C" stroke-width="16" stroke-linecap="round" stroke-miterlimit="10" points="4326,106 4450,0 
		4574,106 	"/>
	<polyline fill="none" stroke="#1EE29C" stroke-width="16" stroke-linecap="round" stroke-miterlimit="10" points="4574,106 4698,0 
		4822,106 	"/>
	<polyline fill="none" stroke="#1EE29C" stroke-width="16" stroke-linecap="round" stroke-miterlimit="10" points="4822,106 4946,0 
		5070,106 	"/>
	<polyline fill="none" stroke="#1EE29C" stroke-width="16" stroke-linecap="round" stroke-miterlimit="10" points="5070,106 5194,0 
		5318,106 	"/>
	<g>
		<path fill="#1EE29C" d="M3327.919,344.277c-2.871,3.358-2.476,8.408,0.883,11.279l4.198,3.589v-17.601
			C3331.094,341.785,3329.266,342.702,3327.919,344.277z"/>
		<path fill="#1EE29C" d="M5324.081,344.277c-2.872-3.359-7.923-3.754-11.28-0.883L5194,444.951l-118.802-101.557
			c-0.046-0.039-0.095-0.071-0.141-0.109c-0.102-0.083-0.204-0.164-0.31-0.241c-0.1-0.073-0.199-0.144-0.301-0.211
			c-0.107-0.072-0.214-0.143-0.323-0.208c-0.112-0.067-0.226-0.129-0.339-0.19c-0.104-0.056-0.204-0.111-0.309-0.161
			c-0.133-0.064-0.268-0.121-0.402-0.177c-0.09-0.038-0.18-0.078-0.271-0.112c-0.165-0.062-0.332-0.114-0.5-0.165
			c-0.066-0.02-0.131-0.043-0.197-0.062c-0.477-0.13-0.962-0.215-1.45-0.254c-0.081-0.007-0.163-0.007-0.245-0.011
			c-0.136-0.007-0.271-0.018-0.406-0.018c-0.021,0-0.041,0.003-0.062,0.003c-0.217,0.002-0.435,0.016-0.65,0.034
			c-0.051,0.005-0.101,0.005-0.151,0.01c-0.547,0.059-1.089,0.174-1.619,0.347c-0.049,0.016-0.096,0.037-0.145,0.054
			c-0.206,0.072-0.412,0.148-0.612,0.237c-0.092,0.041-0.181,0.089-0.271,0.133c-0.153,0.075-0.307,0.15-0.455,0.235
			c-0.111,0.063-0.217,0.134-0.325,0.202c-0.124,0.079-0.249,0.158-0.369,0.245c-0.112,0.081-0.222,0.168-0.331,0.255
			c-0.07,0.057-0.144,0.105-0.213,0.164L4946,444.951l-118.802-101.557c-0.046-0.04-0.097-0.073-0.143-0.111
			c-0.101-0.082-0.202-0.161-0.306-0.237c-0.101-0.075-0.203-0.146-0.307-0.216c-0.104-0.07-0.21-0.139-0.316-0.203
			c-0.115-0.069-0.23-0.133-0.347-0.195c-0.101-0.054-0.2-0.108-0.302-0.157c-0.136-0.065-0.273-0.124-0.412-0.181
			c-0.086-0.036-0.173-0.076-0.262-0.108c-0.168-0.063-0.34-0.117-0.511-0.168c-0.063-0.02-0.124-0.042-0.187-0.059
			c-0.479-0.131-0.964-0.216-1.453-0.255c-0.08-0.007-0.162-0.007-0.243-0.011c-0.136-0.007-0.271-0.018-0.407-0.018
			c-0.021,0-0.041,0.003-0.062,0.003c-0.218,0.002-0.435,0.016-0.652,0.034c-0.05,0.005-0.099,0.005-0.148,0.01
			c-0.548,0.059-1.09,0.175-1.62,0.347c-0.048,0.016-0.094,0.036-0.142,0.053c-0.208,0.072-0.413,0.149-0.615,0.239
			c-0.092,0.04-0.18,0.088-0.27,0.132c-0.153,0.075-0.308,0.15-0.457,0.236c-0.11,0.062-0.216,0.133-0.323,0.201
			c-0.125,0.079-0.25,0.158-0.37,0.245c-0.112,0.081-0.222,0.168-0.331,0.255c-0.07,0.057-0.144,0.105-0.213,0.164L4698,444.951
			l-118.802-101.557c-0.046-0.039-0.095-0.071-0.141-0.109c-0.102-0.083-0.204-0.163-0.31-0.241c-0.1-0.073-0.2-0.144-0.302-0.212
			c-0.106-0.071-0.213-0.141-0.321-0.206c-0.113-0.068-0.227-0.131-0.342-0.192c-0.102-0.055-0.203-0.11-0.307-0.16
			c-0.133-0.064-0.27-0.122-0.405-0.179c-0.089-0.037-0.177-0.076-0.268-0.11c-0.167-0.062-0.336-0.115-0.506-0.166
			c-0.064-0.02-0.127-0.043-0.191-0.061c-0.478-0.13-0.963-0.215-1.452-0.254c-0.08-0.007-0.162-0.007-0.243-0.011
			c-0.136-0.007-0.271-0.018-0.407-0.018c-0.021,0-0.041,0.003-0.062,0.003c-0.218,0.002-0.436,0.016-0.653,0.035
			c-0.049,0.004-0.099,0.004-0.147,0.009c-0.548,0.059-1.091,0.175-1.621,0.347c-0.045,0.015-0.089,0.034-0.134,0.05
			c-0.21,0.073-0.418,0.151-0.623,0.242c-0.09,0.039-0.176,0.086-0.265,0.129c-0.155,0.076-0.311,0.152-0.462,0.239
			c-0.109,0.062-0.214,0.132-0.32,0.199c-0.125,0.08-0.251,0.16-0.373,0.248c-0.112,0.08-0.221,0.167-0.329,0.254
			c-0.07,0.056-0.144,0.105-0.213,0.164L4450,444.951l-118.802-101.557c-0.046-0.039-0.095-0.071-0.141-0.109
			c-0.102-0.083-0.204-0.164-0.31-0.241c-0.1-0.073-0.199-0.144-0.301-0.211c-0.107-0.072-0.214-0.143-0.323-0.208
			c-0.112-0.067-0.225-0.129-0.339-0.19c-0.103-0.056-0.204-0.111-0.309-0.161c-0.133-0.064-0.268-0.121-0.402-0.177
			c-0.09-0.038-0.18-0.078-0.271-0.112c-0.165-0.062-0.332-0.114-0.5-0.165c-0.066-0.02-0.131-0.043-0.197-0.062
			c-0.477-0.13-0.962-0.215-1.45-0.254c-0.081-0.007-0.163-0.007-0.245-0.011c-0.136-0.007-0.271-0.018-0.406-0.018
			c-0.021,0-0.041,0.003-0.062,0.003c-0.217,0.002-0.435,0.016-0.65,0.034c-0.051,0.005-0.101,0.005-0.151,0.01
			c-0.547,0.059-1.089,0.174-1.619,0.347c-0.049,0.016-0.096,0.037-0.145,0.054c-0.206,0.072-0.411,0.148-0.612,0.237
			c-0.092,0.041-0.181,0.089-0.271,0.133c-0.153,0.075-0.307,0.15-0.455,0.235c-0.111,0.063-0.217,0.134-0.325,0.202
			c-0.124,0.079-0.248,0.158-0.369,0.245c-0.112,0.081-0.222,0.168-0.331,0.255c-0.07,0.057-0.144,0.105-0.212,0.164L4202,444.951
			l-118.802-101.557c-0.046-0.04-0.096-0.073-0.143-0.111c-0.101-0.082-0.202-0.161-0.306-0.237
			c-0.101-0.075-0.203-0.146-0.307-0.216c-0.104-0.07-0.21-0.139-0.316-0.203c-0.115-0.069-0.23-0.133-0.347-0.195
			c-0.101-0.054-0.2-0.108-0.302-0.157c-0.136-0.065-0.273-0.124-0.411-0.181c-0.087-0.036-0.174-0.076-0.263-0.108
			c-0.168-0.063-0.34-0.117-0.511-0.168c-0.063-0.02-0.124-0.042-0.187-0.059c-0.035-0.01-0.072-0.015-0.107-0.024v19.976L4202,466
			l124-106l124,106l124-106l124,106l124-106l124,106l124-106l124,106l129.198-110.443
			C5326.557,352.686,5326.951,347.637,5324.081,344.277z"/>
		<path fill="#1EE29C" d="M3830.654,341.504c-0.08-0.007-0.162-0.007-0.243-0.011c-0.136-0.007-0.271-0.018-0.407-0.018
			c-0.021,0-0.041,0.003-0.062,0.003c-0.218,0.002-0.436,0.016-0.653,0.035c-0.049,0.004-0.099,0.004-0.147,0.009
			c-0.548,0.059-1.091,0.175-1.621,0.347c-0.045,0.015-0.089,0.034-0.134,0.05c-0.21,0.073-0.418,0.151-0.623,0.242
			c-0.09,0.039-0.176,0.086-0.265,0.129c-0.155,0.076-0.311,0.152-0.462,0.239c-0.109,0.062-0.214,0.132-0.32,0.199
			c-0.125,0.08-0.251,0.16-0.373,0.248c-0.112,0.08-0.221,0.167-0.33,0.254c-0.069,0.056-0.143,0.105-0.212,0.164L3706,444.951
			l-118.802-101.557c-0.046-0.039-0.095-0.071-0.141-0.109c-0.102-0.083-0.204-0.164-0.31-0.241c-0.1-0.073-0.199-0.144-0.301-0.211
			c-0.107-0.072-0.214-0.143-0.324-0.208c-0.111-0.067-0.224-0.129-0.338-0.19c-0.102-0.056-0.205-0.111-0.309-0.161
			c-0.133-0.064-0.268-0.121-0.402-0.177c-0.09-0.038-0.18-0.078-0.271-0.112c-0.165-0.062-0.332-0.114-0.5-0.165
			c-0.066-0.02-0.131-0.043-0.197-0.062c-0.477-0.13-0.962-0.215-1.45-0.254c-0.081-0.007-0.163-0.244-0.245-0.248
			c-0.135-0.008-0.271-0.256-0.406-0.256H3582v19l124,106l124-106l1,0.854v-19.307
			C3830.885,341.533,3830.77,341.513,3830.654,341.504z"/>
		<path fill="#FF0000" d="M4080,303h-249h-249h-249v38.545v17.601V567h249h249h249V361.71v-19.976V303z M3830,360l-124,106l-124-106
			v-19h0.004c0.136,0,0.271,0.248,0.406,0.256c0.082,0.004,0.164,0.122,0.245,0.129c0.488,0.039,0.974,0.184,1.45,0.313
			c0.066,0.019,0.131,0.072,0.197,0.092c0.168,0.051,0.335,0.118,0.5,0.18c0.092,0.034,0.182,0.081,0.271,0.119
			c0.135,0.056,0.27,0.116,0.402,0.181c0.104,0.05,0.207,0.107,0.309,0.163c0.114,0.062,0.227,0.124,0.338,0.191
			c0.11,0.065,0.217,0.137,0.324,0.209c0.102,0.067,0.201,0.138,0.301,0.211c0.105,0.077,0.208,0.158,0.31,0.241
			c0.046,0.038,0.095,0.07,0.141,0.109L3706,444.951l118.802-101.557c0.069-0.059,0.143-0.108,0.212-0.164
			c0.109-0.087,0.218-0.174,0.33-0.254c0.122-0.088,0.248-0.168,0.373-0.248c0.106-0.067,0.211-0.137,0.32-0.199
			c0.151-0.087,0.307-0.163,0.462-0.239c0.089-0.043,0.175-0.09,0.265-0.129c0.205-0.091,0.413-0.169,0.623-0.242
			c0.045-0.016,0.089-0.035,0.134-0.05c0.53-0.172,1.073-0.288,1.621-0.347c0.049-0.005,0.099-0.005,0.147-0.009
			c0.218-0.02,0.436-0.033,0.653-0.035c0.021,0,0.041-0.003,0.062-0.003c0.136,0,0.271,0.011,0.407,0.018
			c0.081,0.004,0.163,0.004,0.243,0.011c0.115,0.009,0.23,0.029,0.346,0.044v19.307L3830,360z"/>
	</g>
	<polygon fill="#24C398" points="4718.982,-296.083 4240,-662 4240,-547 4711.265,-188.012 4718.91,-181.637 4726.588,-187.974 
		5200,-547 5200,-662 	"/>
	<g>
		<polygon fill="#24C398" points="4717.949,-104.486 4240,-503 4240,-419.741 4717.949,-21.229 5200,-419.122 5200,-503 		"/>
	</g>
	<polygon fill="#FB4D5B" points="4718.982,-956.083 4240,-1245 4240,-1053 4711.265,-771.012 4718.91,-764.637 4726.588,-770.974 
		5200,-1053 5200,-1245 	"/>
	<g>
		<path fill-rule="evenodd" clip-rule="evenodd" d="M1766.551-2353.09c0-10.49,0-20.246,0-30.385
			c3.366-0.159,6.472-0.305,10.111-0.477c0.51-3.869,1.016-7.709,1.592-12.084c-4.178,0-7.772,0-12.393,0
			c0.535-4.226-0.221-8.987,1.809-11.25c2.035-2.27,6.849-2.048,10.821-3.01c-0.105,0.157,0.255-0.132,0.222-0.366
			c-0.463-3.325,2.45-7.828-1.797-9.771c-6.412-2.934-17.756,0.512-20.525,6.177c-1.678,3.435-1.951,7.597-2.597,11.476
			c-0.321,1.927-0.056,3.952-0.056,6.428c-3.525,0.173-6.758,0.332-10.325,0.507c0,3.89,0,7.622,0,11.807
			c3.29,0.198,6.513,0.393,10.017,0.604c0,10.055,0,19.811,0,29.884c-0.723,0.148-1.486,0.44-2.252,0.442
			c-11.33,0.032-22.66-0.02-33.99,0.053c-4.126,0.026-6.145-1.684-6.135-5.955c0.056-22.66,0.043-45.321,0.012-67.981
			c-0.006-4.214,2.006-5.969,6.162-5.958c22.494,0.059,44.988,0.068,67.481-0.006c4.503-0.015,6.255,2.041,6.243,6.399
			c-0.064,22.494-0.051,44.987-0.009,67.481c0.007,3.548-1.245,5.904-5.069,5.96
			C1779.565-2353.023,1773.256-2353.09,1766.551-2353.09z"/>
		<path fill-rule="evenodd" clip-rule="evenodd" d="M2222.923-2353.219c-26.841,0-52.968,0-79.536,0
			c-0.106-1.498-0.295-2.925-0.297-4.353c-0.019-20.494-0.025-40.988-0.005-61.482c0.007-6.422,1.565-7.997,7.894-8.002
			c21.328-0.018,42.655-0.017,63.982,0c6.334,0.005,7.947,1.606,7.953,7.95c0.022,20.661,0.009,41.322,0.009,61.982
			C2222.923-2355.983,2222.923-2354.843,2222.923-2353.219z M2174.447-2397.282c0,13.032,0,25.394,0,37.926
			c3.955,0,7.529,0,11.631,0c0-6.563-0.21-12.853,0.104-19.115c0.125-2.51,0.752-5.584,2.351-7.25
			c1.351-1.406,4.827-2.1,6.639-1.353c1.752,0.723,3.52,3.632,3.644,5.679c0.436,7.238,0.169,14.518,0.169,21.954
			c4.464,0,8.172,0,11.934,0c0-9.169,0.536-18.004-0.143-26.745c-0.766-9.867-9.721-14.854-18.941-11.205
			c-1.963,0.777-3.732,2.044-5.342,2.946C2183.25-2399.756,2178.544-2396.204,2174.447-2397.282z M2166.609-2359.251
			c0-12.814,0-25.152,0-37.613c-4.015,0-7.699,0-11.309,0c0,12.746,0,25.089,0,37.613
			C2159.124-2359.251,2162.57-2359.251,2166.609-2359.251z M2167.846-2409.487c-0.023-3.602-3.447-6.968-7.056-6.938
			c-3.869,0.032-6.86,3.074-6.857,6.973c0.003,3.832,3.112,6.975,6.892,6.969C2164.455-2402.489,2167.87-2405.896,2167.846-2409.487
			z"/>
		<path fill-rule="evenodd" clip-rule="evenodd" d="M2460.278-2355.096c2.147-6.029,4.294-12.058,6.437-18.075
			c10.171,4.709,18.169,3.254,24.192-4.489c7.21-9.27,7.519-23.199,0.699-31.575c-6.58-8.082-17.958-11.08-29.137-7.675
			c-9.849,3-15.977,10.66-16.958,21.199c-0.683,7.329,2.7,14.142,9.639,17.688c0-2.917,0.696-5.582-0.121-7.648
			c-3.437-8.694-2.426-15.677,3.608-20.945c5.853-5.11,15.496-5.824,21.897-1.621c6.126,4.022,8.468,11.959,5.926,20.594
			c-1.524,5.176-4.064,9.628-9.979,10.638c-5.342,0.912-8.388-2.402-7.157-7.665c0.869-3.717,2.15-7.345,2.871-11.086
			c0.571-2.967-0.026-6.369-3.542-6.525c-2.3-0.102-5.155,1.583-6.904,3.328c-1.308,1.305-2.104,4.204-1.642,6.011
			c1.768,6.887-0.93,13.086-2.146,19.537c-1.01,5.357-1.787,10.759-2.673,16.172c-14.383-1.676-26.881-24.223-23.399-43.078
			c4.195-22.717,26.77-37.088,49.156-31.294c22.064,5.71,34.936,29.167,27.892,50.833
			C2502.232-2360.153,2478.52-2347.667,2460.278-2355.096z"/>
		<path fill-rule="evenodd" clip-rule="evenodd" d="M1893.877-2405.423c0.119-2.253,0.092-4.06,0.328-5.831
			c1.446-10.802,13.457-17.737,22.873-12.357c5.154,2.945,9.312,3.316,14.849,1.068c-1.488,2.129-2.978,4.257-4.847,6.932
			c2.28-0.395,4.209-0.729,6.229-1.08c0,0.283,0.102,0.657-0.014,0.745c-5.763,4.383-6.454,10.666-7.545,17.319
			c-4.99,30.416-38.928,47.15-66.493,33.148c-0.702-0.356-1.319-0.877-2.483-1.664c4.257-0.677,8.022-0.879,11.525-1.945
			c3.529-1.074,6.797-3.007,10.076-5.041c-6.457-1.898-11.58-4.783-13.932-11.436c1.777-0.157,3.378-0.298,6.059-0.534
			c-7.059-3.482-11.656-7.857-11.885-15.666c2.004,0.309,3.687,0.568,6.295,0.97c-6.276-6.525-8.413-13.1-4.312-21.339
			C1869.555-2412.246,1880.111-2406.265,1893.877-2405.423z"/>
		<path fill-rule="evenodd" clip-rule="evenodd" d="M2038.647-2352.706c-7.413-0.432-14.455-0.319-21.319-1.367
			c-9.947-1.519-16.604-7.912-17.279-17.889c-0.908-13.405-1.164-26.951-0.314-40.348c0.783-12.359,8.031-19.315,20.821-20.078
			c13.073-0.78,26.278-0.39,39.364,0.454c9.912,0.639,17.241,7.351,17.835,17.194c0.888,14.719,0.771,29.57-0.093,44.296
			c-0.514,8.779-7.763,15.101-17.051,16.374C2053.229-2353.057,2045.701-2353.105,2038.647-2352.706z M2037.974-2359.781
			c6.756-0.332,13.241-0.462,19.691-1.013c8.192-0.7,13.097-5.107,13.423-13.29c0.501-12.597,0.438-25.238,0.03-37.842
			c-0.251-7.76-5.187-12.863-12.979-13.168c-12.6-0.494-25.24-0.445-37.845-0.042c-8.089,0.259-13.11,5.089-13.405,13.265
			c-0.465,12.929-0.327,25.901,0.135,38.834c0.242,6.805,4.939,11.31,11.814,12.092
			C2025.264-2360.214,2031.763-2360.133,2037.974-2359.781z"/>
		<path fill-rule="evenodd" clip-rule="evenodd" d="M2575.077-2427.551c8.923,4.444,17.062,8.416,25.084,12.613
			c0.871,0.456,1.496,2.21,1.501,3.365c0.076,16.79,0.034,33.581-0.018,50.371c-0.002,0.608-0.394,1.214-0.925,2.754
			c-3.999-1.974-7.585-4.396-11.542-5.573c-11.676-3.472-15.753-10.576-14.377-22.833c1.29-11.492,0.276-23.244,0.276-34.881
			C2575.077-2423.334,2575.077-2424.934,2575.077-2427.551z"/>
		<path fill-rule="evenodd" clip-rule="evenodd" d="M2319.659-2395.878c6.919,4.209,9.327,8.873,8.227,15.104
			c-1.05,5.945-5.345,10.253-12.646,10.743c-9.07,0.608-18.212,0.146-27.745,0.146c0-15.646,0-31.631,0-47.822
			c9.156,0,18.262-0.354,27.318,0.151c4.423,0.247,8.719,1.916,10.316,7.195C2326.982-2404.242,2324.891-2399.724,2319.659-2395.878
			z M2298.158-2390.933c0,4.773,0,9.131,0,14.052c4.886-0.255,9.358-0.275,13.775-0.786c3.736-0.433,5.252-2.999,5.197-6.71
			c-0.056-3.799-1.979-6.162-5.566-6.467C2307.151-2391.218,2302.682-2390.933,2298.158-2390.933z M2297.973-2397.824
			c4.918-0.306,9.338-0.01,13.388-1.095c1.764-0.473,3.817-3.789,3.797-5.794c-0.018-1.717-2.601-4.552-4.41-4.876
			c-4.113-0.736-8.449-0.232-12.774-0.232C2297.973-2405.644,2297.973-2402.196,2297.973-2397.824z"/>
		<path fill-rule="evenodd" clip-rule="evenodd" d="M2629.699-2373.639c-5.479-8.914-10.712-17.176-15.596-25.639
			c-0.771-1.335-0.578-3.931,0.223-5.349c3.759-6.654,7.897-13.092,11.872-19.624c1.216-1.999,2.345-3.467,5.126-2.012
			c7.493,3.921,15.105,7.612,23.488,11.803C2646.396-2400.779,2638.198-2387.454,2629.699-2373.639z"/>
		<path fill-rule="evenodd" clip-rule="evenodd" d="M2366.408-2384.604c-8.243,0-16.6,0-24.955,0c-0.355,0.52-0.711,1.04-1.066,1.56
			c1.747,2.307,3.083,5.862,5.346,6.61c2.907,0.96,6.653,0.043,9.865-0.76c3.229-0.807,6.246-2.464,10.102-4.058
			c-1.436,9.414-9.264,14.347-18.563,13.106c-10.553-1.408-16.56-10.169-15.044-21.94c1.278-9.923,9.819-16.495,19.825-15.253
			C2361.831-2404.11,2367.682-2396.097,2366.408-2384.604z M2356.726-2390.271c-0.22-5.443-2.698-7.954-7.508-7.868
			c-4.885,0.087-7.391,2.738-7.201,8.076c3.432,0,6.885,0.02,10.338-0.009C2353.813-2390.085,2355.271-2390.202,2356.726-2390.271z"
			/>
		<path fill-rule="evenodd" clip-rule="evenodd" d="M2654.723-2407.817c0,16.078,0,32.156,0,49.727
			c-8.311-4.113-15.889-7.864-24.062-11.91c7.878-12.908,15.545-25.472,23.213-38.035
			C2654.156-2407.963,2654.439-2407.89,2654.723-2407.817z"/>
		<path fill-rule="evenodd" clip-rule="evenodd" d="M2605.062-2408.746c7.322,11.929,14.644,23.857,21.965,35.786
			c-0.225,0.255-0.45,0.511-0.676,0.767c-6.854-3.47-13.743-6.875-20.519-10.492c-0.884-0.472-1.653-2.033-1.674-3.104
			c-0.143-7.581-0.076-15.166-0.076-22.749C2604.41-2408.608,2604.736-2408.677,2605.062-2408.746z"/>
		<path fill-rule="evenodd" clip-rule="evenodd" d="M2339.723-2414.761c6.405,0,12.49,0,18.551,0
			c0.666,4.351,0.667,4.415-2.957,4.478c-4.135,0.073-8.277-0.098-12.408,0.054
			C2339.716-2410.111,2338.652-2411.352,2339.723-2414.761z"/>
		<path fill-rule="evenodd" clip-rule="evenodd" d="M2059.341-2392.863c-0.056,11.443-8.797,20.196-20.175,20.202
			c-11.65,0.006-20.619-8.934-20.504-20.439c0.115-11.606,9.107-20.388,20.72-20.233
			C2050.703-2413.182,2059.396-2404.266,2059.341-2392.863z M2052.244-2392.697c0.084-7.514-5.556-13.404-12.965-13.541
			c-7.482-0.139-13.435,5.552-13.523,12.93c-0.09,7.518,5.592,13.47,12.939,13.557
			C2046.21-2379.664,2052.163-2385.351,2052.244-2392.697z"/>
		<path fill-rule="evenodd" clip-rule="evenodd" d="M2067.169-2414.512c-3.175,2.286-5.062,4.663-6.466,4.404
			c-1.836-0.338-3.287-2.758-4.904-4.282c1.456-1.502,2.846-4.119,4.388-4.212
			C2061.957-2418.709,2063.864-2416.582,2067.169-2414.512z"/>
	</g>
</g>
<g id="Layer_2">
	<g>
		<path d="M7813.04-2160h-853.693c-29.256,0-53.347,24.424-53.347,53.68v853.694c0,29.249,24.091,52.626,53.347,52.626H7420v-370
			h-126v-148h126v-104.909c0-123.946,76.189-191.438,186.762-191.438c52.959,0,97.238,3.943,112.238,5.706v129.531l-77.957,0.035
			c-60.131,0-73.043,28.574-73.043,70.505V-1718h143.916l-18.676,148H7568v370h245.04c29.245,0,52.96-23.378,52.96-52.626v-853.694
			C7866-2135.576,7842.285-2160,7813.04-2160z"/>
	</g>
	<g>
		<path fill-rule="evenodd" clip-rule="evenodd" d="M5779.855-1245C5514.871-1245,5300-1030.176,5300-765.152
			c0,212.008,137.489,391.874,328.149,455.327c23.979,4.438,32.794-10.414,32.794-23.086c0-11.438-0.45-49.244-0.652-89.339
			c-133.501,29.03-161.67-56.616-161.67-56.616c-21.819-55.46-53.278-70.211-53.278-70.211c-43.533-29.783,3.29-29.169,3.29-29.169
			c48.173,3.383,73.548,49.454,73.548,49.454c42.804,73.354,112.254,52.146,139.646,39.886c4.3-31.008,16.73-52.186,30.466-64.167
			c-106.59-12.129-218.626-53.279-218.626-237.142c0-52.387,18.746-95.194,49.444-128.798c-4.981-12.09-21.417-60.892,4.642-126.99
			c0,0,40.305-12.89,131.995,49.194c38.272-10.635,79.321-15.966,120.107-16.153c40.771,0.187,81.851,5.518,120.2,16.153
			c91.598-62.083,131.825-49.194,131.825-49.194c26.12,66.099,9.7,114.9,4.719,126.99c30.76,33.604,49.384,76.411,49.384,128.798
			c0,184.305-112.255,224.881-219.108,236.762c17.211,14.892,32.545,44.092,32.545,88.858c0,64.206-0.56,115.878-0.56,131.685
			c0,12.773,8.646,27.734,32.965,23.024c190.552-63.522,327.87-243.327,327.87-455.265
			C6259.695-1030.176,6044.855-1245,5779.855-1245z"/>
		<path d="M5481.752-556.047c-1.056,2.39-4.811,3.104-8.226,1.467c-3.491-1.568-5.433-4.819-4.314-7.209
			c1.04-2.452,4.795-3.135,8.271-1.498C5480.96-561.719,5482.947-558.437,5481.752-556.047L5481.752-556.047z M5475.839-560.423"/>
		<path d="M5501.183-534.366c-2.281,2.119-6.767,1.133-9.793-2.219c-3.15-3.344-3.725-7.822-1.412-9.972
			c2.358-2.119,6.704-1.125,9.839,2.22C5502.968-540.954,5503.573-536.515,5501.183-534.366L5501.183-534.366z M5496.604-539.278"/>
		<path d="M5520.101-506.733c-2.933,2.049-7.744,0.132-10.724-4.136c-2.933-4.268-2.933-9.39,0.078-11.438
			c2.964-2.048,7.713-0.202,10.724,4.028C5523.111-513.941,5523.111-508.82,5520.101-506.733L5520.101-506.733z M5520.101-506.733"
			/>
		<path d="M5546.02-480.031c-2.623,2.902-8.226,2.118-12.323-1.839c-4.206-3.864-5.369-9.358-2.731-12.261
			c2.67-2.902,8.303-2.087,12.432,1.839C5547.557-488.427,5548.828-482.902,5546.02-480.031L5546.02-480.031z M5546.02-480.031"/>
		<path d="M5581.776-464.527c-1.163,3.756-6.549,5.463-11.981,3.864c-5.432-1.645-8.985-6.045-7.884-9.839
			c1.118-3.787,6.55-5.564,12.013-3.857C5579.355-472.721,5582.91-468.353,5581.776-464.527L5581.776-464.527z M5581.776-464.527"/>
		<path d="M5621.058-461.656c0.124,3.958-4.485,7.24-10.182,7.31c-5.742,0.132-10.383-3.073-10.444-6.968
			c0-3.997,4.501-7.24,10.243-7.341C5616.37-468.764,5621.058-465.583,5621.058-461.656L5621.058-461.656z M5621.058-461.656"/>
		<path d="M5657.591-467.871c0.684,3.856-3.274,7.822-8.939,8.877c-5.571,1.024-10.725-1.366-11.438-5.191
			c-0.697-3.958,3.337-7.922,8.908-8.947C5651.787-474.118,5656.877-471.798,5657.591-467.871L5657.591-467.871z M5657.591-467.871"
			/>
	</g>
	<g>
		<path d="M7220-911.316c0-105.408,0-210.816,0-316.227c0.529-2.996,1.44-5.982,1.53-8.994c1.105-37.104,2.775-74.143,11.87-110.38
			c20.514-81.75,67.922-141.23,145.893-174.946c42.277-18.282,87.205-23.594,132.733-25.456c9.983-0.409,19.941-1.427,29.914-2.166
			c105.408,0,210.819,0,316.228,0c2.999,0.529,5.977,1.289,8.997,1.554c30.602,2.662,61.693,2.68,91.737,8.309
			c109.703,20.55,180.092,84.753,207.969,193.747c12.061,47.158,12.176,95.576,12.615,143.673
			c0.856,94.228,0.654,188.482-0.699,282.704c-0.525,36.66-2.105,73.855-8.791,109.77
			c-20.346,109.307-84.844,179.332-193.431,207.111c-46.85,11.983-94.949,12.271-142.717,12.597
			c-99.936,0.679-199.879-0.315-299.817-1.042c-37.767-0.275-75.461-2.538-112.295-11.886
			c-80.207-20.361-139.07-66.802-172.978-143.057c-19.132-43.028-24.697-88.875-26.592-135.385
			C7221.761-891.379,7220.738-901.341,7220-911.316z M7700.07-675.216c0.004-0.49,0.008-0.983,0.015-1.476
			c39.988,0,79.994,0.781,119.956-0.223c37.695-0.952,75.494-2.349,112.973-6.196c36.182-3.714,69.452-16.521,97.479-41.129
			c38.545-33.842,54.749-78.273,57.755-127.391c3.449-56.315,4.292-112.824,4.976-169.265c0.688-56.164,0.458-112.362-0.669-168.517
			c-0.756-37.696-2.358-75.488-6.179-112.974c-3.653-35.856-16.283-68.905-40.48-96.778c-33.856-39-78.547-55.438-128.035-58.46
			c-56.315-3.44-112.825-4.286-169.266-4.974c-56.167-0.686-112.367-0.454-168.523,0.669c-37.698,0.756-75.49,2.36-112.973,6.178
			c-35.858,3.654-68.904,16.284-96.781,40.484c-38.998,33.853-55.437,78.547-58.461,128.032
			c-3.438,56.318-4.284,112.828-4.972,169.267c-0.685,56.167-0.702,112.376,0.741,168.521c1.062,41.464,1.861,83.335,8.263,124.167
			c10.945,69.774,51.368,117.037,120.645,135.787c22.739,6.155,46.788,9.294,70.374,10.176
			C7571.258-676.912,7635.677-676.447,7700.07-675.216z"/>
		<path fill-rule="evenodd" clip-rule="evenodd" d="M7946.759-1069.021c-0.107,136.451-110.786,246.556-247.588,246.3
			c-135.931-0.254-245.973-110.873-245.821-247.115c0.147-136.49,110.812-246.581,247.589-246.298
			C7836.901-1315.857,7946.871-1205.31,7946.759-1069.021z M7700.859-1229.127c-88.159-0.029-160.438,71.206-160.503,158.177
			c-0.064,88.886,70.965,161.174,158.418,161.221c88.774,0.048,160.945-71.076,160.981-158.655
			C7859.792-1157.078,7788.594-1229.102,7700.859-1229.127z"/>
		<path fill-rule="evenodd" clip-rule="evenodd" d="M8014.065-1325.74c0.051,32.083-25.875,58.086-57.945,58.113
			c-31.787,0.027-58.025-26.41-57.863-58.299c0.154-31.556,26.029-57.393,57.597-57.512
			C7988.09-1383.558,8014.012-1357.865,8014.065-1325.74z"/>
	</g>
	<g>
		<g>
			<path d="M7840.951-889.66h-818.147c-39.065,0-70.804,30.99-70.804,69.219V1.07c0,38.229,31.738,69.27,70.804,69.27h818.147
				c39.144,0,71.016-31.041,71.016-69.27v-821.512C7911.967-858.67,7880.095-889.66,7840.951-889.66z M7236.76-71.64h-142.528
				v-458.125h142.528V-71.64z M7165.533-592.355c-45.722,0-82.602-36.992-82.602-82.577c0-45.574,36.88-82.566,82.602-82.566
				c45.551,0,82.534,36.992,82.534,82.566C7248.067-629.347,7211.084-592.355,7165.533-592.355z M7770.043-71.64h-142.366v-222.785
				c0-53.127-0.911-121.473-73.988-121.473c-74.084,0-85.393,57.903-85.393,117.669V-71.64h-142.211v-458.125h136.485v62.63h1.947
				c18.991-36.016,65.451-73.996,134.721-73.996c144.159,0,170.805,94.857,170.805,218.241V-71.64z"/>
		</g>
	</g>
	<g>
		<path fill-rule="evenodd" clip-rule="evenodd" d="M6813.26-1765.317c0,102.944,0.013,205.888-0.025,308.834
			c-0.003,5.854,0.488,11.912-0.8,17.523c-2.738,11.947-10.184,17.198-22.493,12.6c-4.476-1.669-8.762-3.879-13.044-6.021
			c-84.799-42.404-169.432-85.146-254.489-127.027c-20.08-9.887-29.113-23.5-29.058-46.318
			c0.513-205.888,0.294-411.777,0.307-617.666c0.003-25.849,4.667-28.743,27.763-17.189
			c91.954,45.999,183.761,92.287,275.974,137.754c12.509,6.169,16.235,13.61,16.166,27.077
			C6813.02-1972.274,6813.26-1868.794,6813.26-1765.317z"/>
		<path fill-rule="evenodd" clip-rule="evenodd" d="M7149.979-1602.894c-3.789-5.711-6.799-9.978-9.527-14.419
			c-63.885-103.9-127.6-207.902-191.807-311.603c-5.857-9.46-5.623-16.137,0.153-25.462
			c58.064-93.725,115.882-187.602,173.111-281.837c8.396-13.827,16.041-16.726,30.77-9.249
			c94.467,47.956,189.277,95.236,284.044,142.596c9.24,4.617,16.998,7.597,8.834,20.827
			c-97.361,157.713-194.26,315.711-291.303,473.625C7153.427-1607.07,7152.317-1605.897,7149.979-1602.894z"/>
		<path fill-rule="evenodd" clip-rule="evenodd" d="M7453.271-2033.898c0,5.072,0,10.142,0,15.213
			c0,187.741,0.003,375.481-0.021,563.221c0,5.326,0.475,10.824-0.647,15.941c-2.601,11.859-9.574,17.61-22.148,13.141
			c-2.998-1.066-5.902-2.441-8.753-3.87c-83.836-41.92-167.662-83.855-251.467-125.84c-3.21-1.607-6.164-3.726-10.271-6.236
			c97.077-158.013,193.675-315.245,290.271-472.477C7451.246-2034.503,7452.259-2034.2,7453.271-2033.898z"/>
		<path fill-rule="evenodd" clip-rule="evenodd" d="M6843.705-2045.053c96.448,156.991,190.965,310.836,287.319,467.671
			c-6.354-2.26-10.021-3.147-13.312-4.795c-88.112-44.079-176.158-88.293-264.317-132.276c-7.195-3.588-11.428-7.083-11.391-16.432
			c0.413-101.865,0.263-203.734,0.307-305.602C6842.311-2037.993,6842.779-2039.498,6843.705-2045.053z"/>
	</g>
	<path d="M6705.996-262.114c-265.095,0-479.996,214.905-479.996,480c0,203.351,126.517,377.191,305.072,447.128
		c-4.192-37.975-7.988-96.385,1.663-137.845c8.723-37.46,56.285-238.59,56.285-238.59s-14.355-28.753-14.355-71.264
		c0-66.743,38.686-116.572,86.854-116.572c40.953,0,60.734,30.746,60.734,67.614c0,41.184-26.222,102.759-39.754,159.819
		c-11.309,47.773,23.957,86.736,71.077,86.736c85.314,0,150.894-89.956,150.894-219.805c0-114.928-82.582-195.281-200.5-195.281
		c-136.576,0-216.741,102.438-216.741,208.306c0,41.254,15.889,85.493,35.724,109.542c3.919,4.754,4.495,8.915,3.327,13.768
		c-3.643,15.159-11.742,47.762-13.333,54.437c-2.091,8.784-6.955,10.651-16.05,6.417c-59.95-27.904-97.434-115.555-97.434-185.954
		c0-151.414,110.018-290.471,317.156-290.471c166.51,0,295.912,118.655,295.912,277.226c0,165.427-104.304,298.561-249.08,298.561
		c-48.638,0-94.363-25.269-110.017-55.116c0,0-24.065,91.646-29.902,114.105c-10.836,41.691-40.092,93.952-59.658,125.833
		c44.911,13.905,92.642,21.406,142.121,21.406c265.099,0,480.004-214.905,480.004-480
		C7186-47.209,6971.095-262.114,6705.996-262.114"/>
	<path d="M8157.784-735.637c-35.312,15.661-73.258,26.248-113.097,31.006c40.661-24.369,71.881-62.959,86.581-108.941
		c-38.041,22.566-80.183,38.954-125.041,47.786c-35.916-38.271-87.095-62.185-143.726-62.185
		c-108.756,0-196.922,88.165-196.922,196.907c0,15.435,1.742,30.461,5.102,44.875c-163.651-8.211-308.749-86.605-405.868-205.74
		c-16.95,29.083-26.659,62.908-26.659,98.996c0,68.314,34.764,128.586,87.603,163.898c-32.282-1.021-62.645-9.881-89.194-24.629
		c-0.014,0.822-0.014,1.646-0.014,2.475c0,95.408,67.876,174.995,157.954,193.083c-16.524,4.498-33.92,6.905-51.879,6.905
		c-12.685,0-25.021-1.235-37.048-3.532c25.062,78.229,97.779,135.162,183.949,136.752c-67.396,52.812-152.298,84.291-244.557,84.291
		c-15.894,0-31.568-0.933-46.969-2.75c87.144,55.87,190.647,88.467,301.845,88.467c362.197,0,560.258-300.048,560.258-560.259
		c0-8.537-0.192-17.029-0.569-25.473C8098-661.467,8131.386-696.149,8157.784-735.637z"/>
	<path d="M5498.274-1478.478c8.187,0,15.744,0.636,22.672,2.519c6.928,1.26,12.595,3.779,17.633,6.928
		c5.039,3.149,8.817,7.557,11.337,13.231c2.519,5.662,3.778,12.596,3.778,20.153c0,8.811-1.89,16.374-6.298,22.042
		c-3.778,5.662-10.077,10.7-17.634,14.479c10.706,3.149,18.894,8.811,23.932,16.375c5.038,7.557,8.187,17.003,8.187,27.71
		c0,8.81-1.889,16.374-5.038,22.672c-3.148,6.298-8.187,11.965-13.854,15.744c-5.669,3.785-12.596,6.934-20.153,8.817
		c-7.557,1.883-15.114,3.149-22.672,3.149h-84.39v-173.818H5498.274z M5493.235-1407.943c6.928,0,12.596-1.889,17.004-5.038
		c4.409-3.149,6.298-8.817,6.298-15.744c0-3.779-0.63-7.558-1.889-10.077c-1.26-2.519-3.149-4.408-5.668-6.298
		c-2.52-1.259-5.039-2.519-8.188-3.149s-6.298-0.63-10.076-0.63h-36.527v40.936H5493.235L5493.235-1407.943z M5495.125-1333.629
		c3.779,0,7.558-0.63,10.706-1.254c3.149-0.636,6.298-1.896,8.817-3.785c2.519-1.889,4.408-3.779,6.298-6.928
		c1.259-3.149,2.519-6.934,2.519-11.336c0-8.817-2.519-15.115-7.558-19.529c-5.038-3.779-11.966-5.662-20.152-5.662h-41.565v48.493
		H5495.125z M5616.672-1334.26c5.038,5.039,12.596,7.558,22.672,7.558c6.927,0,13.225-1.89,18.264-5.039
		c5.038-3.785,8.187-7.557,9.446-11.342h30.858c-5.038,15.114-12.595,25.827-22.672,32.748
		c-10.076,6.298-22.042,10.083-36.526,10.083c-10.076,0-18.894-1.896-27.08-5.044c-8.188-3.149-14.485-7.551-20.153-13.849
		c-5.668-5.668-10.076-12.596-12.595-20.789c-3.149-8.187-4.409-16.998-4.409-27.081c0-9.446,1.26-18.257,4.409-26.45
		c3.148-8.187,7.557-15.108,13.225-21.406c5.668-5.668,12.596-10.706,20.153-13.855c8.187-3.149,16.374-5.039,26.45-5.039
		c10.706,0,20.152,1.89,28.34,6.298c8.187,4.408,14.484,9.447,19.523,17.004c5.038,6.928,8.816,15.108,11.335,23.931
		c1.26,8.817,1.89,17.634,1.26,27.71h-91.317C5607.854-1348.745,5611.634-1339.298,5616.672-1334.26L5616.672-1334.26z
		 M5656.348-1400.386c-4.409-4.409-11.336-6.928-19.523-6.928c-5.668,0-10.076,1.253-13.854,3.149
		c-3.779,1.889-6.298,4.402-8.817,6.928c-2.519,2.525-3.778,5.667-4.408,8.816s-1.26,5.662-1.26,8.187h56.68
		C5663.905-1389.68,5660.756-1395.978,5656.348-1400.386L5656.348-1400.386z M5748.295-1478.478v65.497h0.63
		c4.408-7.558,10.076-12.595,17.003-15.744c6.928-3.149,13.226-5.039,20.153-5.039c9.446,0,17.004,1.26,22.672,3.779
		s10.706,6.298,13.854,10.706c3.149,4.409,5.669,10.077,6.928,16.374c1.26,6.298,1.89,13.232,1.89,21.413v77.462h-34.638v-71.165
		c0-10.706-1.89-18.264-5.038-23.302c-3.149-5.038-8.817-7.558-17.004-7.558c-9.447,0-16.374,3.149-20.153,8.193
		c-4.408,5.662-6.297,15.109-6.297,27.704v66.126h-34.638v-174.448H5748.295z M5856.616-1411.722
		c3.778-5.668,8.187-9.447,13.854-13.232c5.668-3.149,11.966-5.662,18.894-6.927c6.927-1.26,13.849-1.889,20.782-1.889
		c6.298,0,12.596,0.629,19.529,1.259c6.298,0.63,12.596,2.513,17.627,5.038c5.668,2.513,9.447,6.298,13.232,10.706
		c3.143,4.415,5.031,10.712,5.031,18.27v66.126c0,5.668,0.63,11.336,1.26,16.38c0.636,5.039,2.513,9.447,4.408,11.96h-35.267
		c-1.267-1.26-1.896-3.779-2.52-5.662c-0.63-1.896-0.63-4.409-0.63-6.298c-5.668,5.662-11.966,9.447-19.522,11.96
		c-7.558,2.519-15.115,3.148-22.673,3.148c-6.297,0-11.335-0.63-17.004-2.512c-5.038-1.26-9.446-3.785-13.854-6.934
		c-3.778-3.149-6.928-6.928-9.446-11.959c-1.89-5.044-3.149-10.083-3.149-17.01c0-6.934,1.26-13.232,3.779-17.634
		c2.519-4.408,5.668-8.187,9.446-11.335c3.778-2.513,8.816-5.039,13.854-6.298c5.039-1.253,10.077-2.513,15.745-3.149l15.114-1.889
		c5.038-0.63,9.447-1.26,13.226-1.889c3.778-1.259,6.927-2.519,9.446-4.408c2.519-1.89,3.148-4.409,3.148-8.188
		c0-3.778-0.63-6.927-1.889-8.817c-1.26-1.889-3.149-3.778-5.039-5.038c-1.895-1.259-4.408-1.889-6.927-2.513
		c-2.52-0.636-5.668-0.636-8.817-0.636c-6.927,0-11.966,1.26-15.744,4.409s-6.298,8.187-6.927,14.484h-34.638
		C5850.948-1399.756,5853.467-1406.684,5856.616-1411.722L5856.616-1411.722z M5925.255-1362.599
		c-1.883,0.629-4.402,1.259-6.928,1.889c-2.52,0.636-5.038,0.636-8.187,1.259c-2.513,0.629-5.662,0.629-8.188,1.26l-7.558,1.889
		c-2.519,0.63-5.038,1.889-6.298,3.149c-1.889,1.259-3.148,3.149-4.408,5.039c-1.883,2.519-1.883,5.038-1.883,8.187
		s0.63,5.668,1.89,7.558c1.26,1.889,2.519,3.785,4.408,5.038c1.89,1.26,4.408,1.896,6.928,2.519
		c2.519,0.623,5.031,0.629,8.181,0.629c6.934,0,11.966-1.253,15.744-3.148c3.785-2.513,6.298-5.038,8.193-8.188
		c1.89-3.148,3.148-6.297,3.148-9.446c0.63-3.148,0.63-5.662,0.63-7.557v-13.226
		C5929.04-1364.489,5927.15-1363.223,5925.255-1362.599L5925.255-1362.599z M6017.844-1430.615v17.634h0.63
		c4.402-7.558,10.077-12.595,16.998-15.744c6.934-3.149,14.491-5.039,21.412-5.039c9.446,0,17.004,1.26,22.672,3.779
		c6.298,2.519,10.713,6.298,13.861,10.706c3.148,4.409,5.662,10.077,7.551,16.374c1.26,6.298,1.896,13.232,1.896,21.413v77.462
		h-34.637v-71.165c0-10.706-1.896-18.264-5.045-23.302s-8.816-8.187-17.634-8.187c-9.446,0-16.38,3.778-20.782,9.447
		c-4.408,5.667-6.298,15.114-6.298,27.71v66.126h-34.638v-127.214H6017.844z M6180.313-1407.943c-5.662,0-10.076,1.26-13.849,3.785
		c-3.778,2.513-6.928,5.662-9.446,10.076c-2.52,3.779-3.779,8.187-5.045,13.225c-1.253,5.045-1.253,9.447-1.253,14.491
		c0,4.402,0.63,9.447,1.253,13.849c1.266,5.045,2.52,8.817,5.045,12.596c2.519,3.785,5.038,6.934,8.816,9.446
		c3.778,2.52,8.181,3.785,13.849,3.785c8.193,0,14.491-2.519,19.523-6.934c4.414-4.402,7.563-10.7,8.193-18.894h33.378
		c-2.513,17.004-8.811,29.6-19.529,38.423c-10.7,8.811-24.555,13.225-41.565,13.225c-9.446,0-18.264-1.889-25.82-5.038
		c-8.193-3.149-14.491-7.557-20.153-13.225c-5.661-5.668-10.082-12.595-13.231-20.153c-3.148-8.187-4.402-16.38-4.402-25.828
		c0-10.076,1.254-18.893,4.402-27.08c3.149-8.188,6.935-15.745,12.596-22.042c5.668-6.298,12.596-10.706,20.159-14.485
		c8.181-3.148,16.998-5.038,27.074-5.038c7.563,0,14.49,1.26,21.412,3.149c6.921,1.889,13.225,5.038,18.264,8.811
		c5.668,3.785,10.076,8.817,13.225,15.115c3.149,5.668,5.045,13.225,5.668,21.412h-34.007
		C6203.628-1400.386,6195.435-1407.943,6180.313-1407.943L6180.313-1407.943z M5600.927-1466.512h70.535v17.004h-70.535V-1466.512z
		 M6293.05-1334.26c5.044,5.039,13.225,7.558,22.672,7.558c6.934,0,13.231-1.89,18.263-5.039c5.045-3.785,8.193-7.557,9.447-11.342
		h30.235c-5.045,15.114-12.596,25.827-22.678,32.748c-10.083,6.298-22.043,10.083-36.527,10.083
		c-10.076,0-18.894-1.896-27.087-5.044c-7.751-2.89-14.671-7.646-20.146-13.849c-5.668-5.668-10.076-12.596-12.596-20.789
		c-3.148-8.187-4.408-16.998-4.408-27.081c0-9.446,1.26-18.257,4.408-26.45c3.034-7.898,7.52-15.159,13.226-21.406
		c5.668-5.668,12.596-10.706,20.152-13.855c8.188-3.149,17.004-5.039,26.451-5.039c10.7,0,20.146,1.89,27.71,6.298
		c8.181,4.408,14.479,9.447,19.522,17.004c5.039,6.928,8.817,15.108,11.336,23.931c2.514,8.811,3.149,18.257,2.514,28.34h-91.317
		C6284.227-1348.745,6288.011-1339.298,6293.05-1334.26L6293.05-1334.26z M6333.355-1400.386
		c-4.409-4.409-11.343-6.928-19.523-6.928c-5.668,0-10.083,1.253-13.861,3.149c-3.779,1.889-6.928,4.402-8.811,6.928
		c-1.883,2.525-3.785,5.667-4.408,8.816c-0.624,3.149-1.254,5.662-1.254,8.187h56.68
		C6340.282-1389.68,6337.134-1395.978,6333.355-1400.386L6333.355-1400.386z"/>
	<g>
		<path d="M5724.104-2046.27c2.276,4.558,3.927,10.343,4.987,16.676c-1.061-6.347-2.711-12.145-4.987-16.703
			c-4.266-8.532-10.666-14.981-19.196-21.381c-7.229-3.613-14.473-7.286-23-9.626c8.527,2.361,15.771,6.104,23,9.717
			C5713.438-2061.186,5719.838-2054.799,5724.104-2046.27z"/>
		<path d="M5732-2012.143c0-0.003,0-0.007,0-0.01c0,13.835-2.25,26.149-7.138,36.127C5729.75-1985.998,5732-1998.303,5732-2012.143z
			"/>
		<path d="M5724.104-1707.422c-8.533,6.398-19.196,10.349-29.862,12.505c10.666-2.156,21.329-5.793,29.862-12.191
			c8.53-6.398,13.947-12.798,20.348-23.463c4.264-10.665,7.549-23.38,7.549-38.289c0-0.018,0-0.035,0-0.051
			c0,14.895-3.289,27.524-7.549,38.183C5738.051-1720.063,5732.634-1713.82,5724.104-1707.422z"/>
		<path d="M5775.293-1911.87c25.593-12.798,46.926-29.861,59.724-49.036c14.93-19.197,21.329-44.812,21.329-74.652
			c0-25.595-4.267-49.079-12.797-68.254c-8.532-19.218-21.33-34.148-38.396-44.812c-17.063-10.665-36.256-18.386-59.719-22.653
			c-23.463-6.376-49.06-7.723-76.785-7.723H5390v586h285.045c25.597,0,51.192-3.751,76.785-10.13
			c25.597-6.376,49.056-16.773,68.256-29.593c19.197-12.798,36.26-31.859,46.924-53.189c10.666-21.33,17.062-46.879,17.062-76.719
			c0-36.259-10.663-68.22-27.727-93.814C5839.283-1882.064,5811.553-1901.205,5775.293-1911.87z M5519-2081h124.052
			c12.797,0,23.463,0.308,34.127,2.44c1.626,0.326,3.194,0.776,4.729,1.203c8.527,2.34,15.771,6.04,23,9.653
			c8.53,6.4,14.931,12.863,19.196,21.395c2.276,4.558,4.676,10.363,5.738,16.709c0.926,5.527,2.158,11.474,2.158,17.436
			c0,0.005,0,0.008,0,0.011c0,0.003,0,0.007,0,0.01c0,13.84-2.998,26.145-7.889,36.117c-3.4,6.941-8.439,12.723-14.564,17.098
			c-14.93,10.666-34.502,16.929-57.965,16.929H5519V-2081z M5752-1768.859c0,14.908-3.285,27.624-7.549,38.289
			c-6.4,10.665-12.309,17.065-20.839,23.463c-8.532,6.398-18.952,10.184-29.614,12.34c-10.664,2.11-23.217,3.768-36.017,3.768H5519
			v-163h141.115c27.726,0,50.207,6.236,67.27,19.036c17.066,14.949,24.615,36.165,24.615,66.026c0,0.008,0,0.018,0,0.028
			C5752-1768.894,5752-1768.877,5752-1768.859z"/>
		<path d="M6344.785-1869.53c-8.53-29.881-21.327-57.427-38.39-80.891c-17.066-25.596-38.396-42.581-66.123-57.51
			c-27.729-14.93-59.722-21.29-95.98-21.29c-34.127,0-61.856,6.421-89.583,17.084c-25.596,10.667-49.059,27.738-68.255,46.935
			c-19.196,21.328-34.126,44.775-44.789,72.503c-10.667,27.75-14.934,57.594-14.934,89.583c0,34.149,4.267,63.991,14.934,91.719
			c8.529,27.749,23.459,51.212,42.655,70.408c19.197,21.33,40.526,36.24,68.256,46.905c27.726,10.665,57.589,17.084,91.716,17.084
			c49.056,0,89.581-12.787,123.707-34.117c34.13-23.443,59.723-59.883,76.786-110.883h-104.513
			c-4.266,14-14.929,25.564-31.992,38.384c-17.066,10.663-38.396,17.048-61.855,17.048c-34.126,0-59.722-8.856-76.785-25.921
			c-17.063-17.063-29.863-49.511-29.863-83.511h309.274C6351.185-1810,6349.051-1839.669,6344.785-1869.53z M6041.91-1847
			c0-10,2.133-17.504,4.267-28.169c2.133-10.664,6.399-21.726,14.93-30.277c8.533-8.555,17.063-17.076,29.862-23.475
			c12.797-6.419,27.727-10.67,46.923-10.67c27.729,0,51.188,8.97,66.122,23.9c14.93,14.93,25.597,34.691,29.859,68.691H6041.91z"/>
		<rect x="6017" y="-2142" width="237" height="58"/>
	</g>
	<g>
		<path d="M7193.99-765h-719.98c-66.281,0-120.01,53.756-120.01,120.007V74.991C6354,141.272,6407.756,195,6474.01,195h719.98
			c66.281,0,120.01-53.756,120.01-120.009v-719.984C7314-711.272,7260.244-765,7193.99-765z M6771.6-37.763
			c0,31.791-25.781,57.562-57.586,57.562h-177.628c-31.795,0-57.586-25.771-57.586-57.562V-582.64
			c0-31.789,25.781-57.561,57.586-57.561h177.628c31.796,0,57.586,25.77,57.586,57.561V-37.763z M7189.2-277.828
			c0,31.828-25.781,57.628-57.586,57.628h-177.628c-31.796,0-57.586-25.8-57.586-57.628v-304.744
			c0-31.831,25.781-57.628,57.586-57.628h177.628c31.795,0,57.586,25.8,57.586,57.628V-277.828z"/>
	</g>
</g>
</svg>
