<svg xmlns="http://www.w3.org/2000/svg" width="960" height="385" viewBox="0 0 960 385"><style>.a{fill:#FF7546;}</style><path d="M302.1 182.1c-55.7 0-101 45.3-101 101 0 55.7 45.3 101 101 101 53.4 0 98.6-46.3 98.6-101C400.6 228.4 355.5 182.1 302.1 182.1zM347 329.5c-12.1 12.7-28 19.6-44.9 19.6 -36.4 0-65.9-29.6-65.9-65.9 0-36.4 29.6-65.9 65.9-65.9 16.9 0 32.9 7 44.9 19.6 12 12.6 18.6 29 18.6 46.3C365.6 300.5 359 316.9 347 329.5z" class="a"/><path d="M671.5 183.2l-79 199.5h189.3L708 183.2H671.5zM673.9 351.9H640.9l48.4-127.1 17.9 51.5L673.9 351.9zM725.4 323.3l10.8 28.6h-23.2L725.4 323.3z" class="a"/><path d="M154 326.8c-0.2 0.2-20.9 22.2-52.8 22.2 -35.7 0-62.7-28.9-62.7-67.1 0-37.5 26.3-64.8 62.4-64.8 29.1 0 49.2 18.4 49.4 18.6l5.1 4.8 19.3-29.1 -3.2-3.4c-1-1.1-25.1-26.2-71.7-26.2C43 181.6 0 224.8 0 282.1c0 28 10 53.9 28.1 72.8 18.5 19.2 44.2 29.8 72.4 29.8 48.5 0 75.1-30.1 76.2-31.4l3.1-3.6 -21-28.1L154 326.8z" class="a"/><polygon points="474.3 183.2 433.2 183.2 433.2 382.7 554.5 382.7 554.5 345.7 474.3 345.7 " class="a"/><path d="M935.4 277.2c11-9.3 17.2-24.2 17.2-39.9 0-31.7-24-54-59.6-54h-70v199.5h71.6c39.1 0 65.4-24 65.4-59C960 303.5 950.6 286 935.4 277.2zM858 220.3h34.5c13.9 0 21.8 8.7 21.8 22.2 0 13.4-8.4 23-21.3 23h-35.1V220.3zM896 345.7h-38v-49.4h37.7c15.8 0 26.1 9.2 26.1 24.8C921.7 337.1 912.1 345.7 896 345.7z" class="a"/><path d="M321.4 85.1c0.3 1.7-0.9 2.6-3.7 2.8 -1.9 0.1-3.7-0.7-5.7-2.4 -1.6-1.4-2.9-3.7-3.8-6.9 -0.8-2.9-1.3-7.1-1.5-12.5 -0.2-6.1-0.5-10.2-0.9-12.5 -1.1 3.8-2.9 9.4-5.4 16.9 -1.5 4.1-2.4 6.5-2.8 7.1 -1.3 2.6-3 3.8-5.1 3.5 -4-0.9-7.2-3.2-9.3-6.8 -1.4-2.4-2.8-6.1-4-11.2 -1.3-5.6-2.5-9.4-3.4-11.4 -3.6 17.6-7.5 30.7-11.6 39.4 -0.6 1.3-2.4 1.2-5.3-0.3 -2.4-1.2-3.7-2.9-3.7-5.1 0-0.8 0.9-3.5 2.7-8.1 0.8-2 3.7-11.7 8.8-29.2 1.8-6.1 3.6-16.7 5.6-32 0.2-0.2 0.6-1.1 1.3-2.7 0.4-1.2 1.2-1.8 2.3-1.8 2.9 0 4.8 0.5 5.9 1.6 0 2.4 0.4 6.4 1.2 11.8 0.8 5.4 1.2 9.5 1.2 12.3 0.8 4.7 1.5 9.5 2.1 14.3 0.9 5.4 2.6 9.8 5.1 13.3 8.1-22.5 13.2-40.3 15.4-53.3 0.3-1.3 1.6-2 3.8-2 3.1 0 4.9 1 5.3 3 0.6 3 0.9 6.5 0.9 10.5 0 1.3-0.1 4-0.3 8.3 -0.1 3.5-0.1 6.3 0 8.5C317.3 58.2 318.9 73.1 321.4 85.1z"/><path d="M373.2 76.9c0.5 1.3 0.8 2.5 0.8 3.5 0 1.7-0.7 3.2-2.1 4.4 -1.4 1.3-2.4 1.9-2.9 1.8 -4.1-0.8-6.7-4.1-7.8-10 -1.2-6.4-2.6-11.7-4.2-16 -2.9 0.3-5.7 0.5-8.6 0.8 -3.3 0.4-5.9 1.4-7.7 3 -0.9 2.6-2.1 7.2-3.7 13.9 -1.4 6.1-2.8 10.8-4.2 14 -0.7 1.5-2.1 1.9-4.3 1.3 -2.8-0.9-4.3-2.2-4.4-3.8 -0.3-3.2 0.7-7.5 2.8-12.9 2.5-6.1 3.9-10.5 4.2-13.1 0.1-0.8-0.5-1.6-1.6-2.5 -1.2-0.9-1.8-1.6-1.8-2.1 0-0.4 0.2-0.9 0.6-1.3 0.4-0.5 1.3-0.8 2.7-1.1 1.4-0.3 2.2-0.7 2.3-1.3 1.5-4.2 3.9-12 7.2-23.5 2.8-9.9 5.3-17.6 7.5-22.9 0.5-1.2 1.6-1.8 3.2-1.8 1.2 0 2.2 0.4 3.2 1.1 2.4 2 3.9 5.1 4.5 9.1 0.5 3.5 1 6.9 1.4 10.4C364.3 47.6 368.7 64 373.2 76.9zM354.8 52.8c-0.3-3.1-0.8-6.6-1.6-10.5 -0.8-3.4-1.6-6.7-2.4-10.1 -2.5 7-4.7 14-6.6 21C345.5 52.9 349.1 52.8 354.8 52.8z"/><path d="M414.3 55c-0.8 1.9-1.6 3.9-2.4 5.8 -1 2.3-2.1 4.1-3.3 5.4 -2.6 3.3-5.2 6.5-7.8 9.7 -3.1 3.9-5.9 6.6-8.5 8.1 -0.8 1-1.8 2.1-2.8 3.2 -1 1.1-2 1.6-3 1.6 -0.5 0-1.1-0.1-1.8-0.4 -0.7-0.3-1.4-0.5-2.2-0.9 -0.8-0.3-1.4-0.9-1.7-1.6 -0.3-3.5-0.4-7.3-0.4-11.4 0-4.1 0.2-10.3 0.5-18.4 0.3-8.2 0.5-14.3 0.5-18.4 0-5.5-0.2-10.5-0.6-15 -0.1-0.1-1-1.1-2.8-2.9 -1.1-1.1-1.6-2.1-1.6-3 0-0.4 0.1-0.8 0.3-1.3 0.4-1 1.3-1.6 2.8-1.8 1.1-0.2 2.2-0.3 3.3-0.4 7.1 1.5 14.5 5.5 22.2 11.9 2 1.7 3.7 3.5 4.9 5.3 4 6 6.1 11.6 6.1 16.8C415.9 50 415.4 52.6 414.3 55zM405.2 41.5c-0.8-5.3-5.3-10-13.5-14 -0.6 14.1-0.8 29-0.5 44.7 9.5-9.5 14.3-18.6 14.3-27.2C405.4 43.9 405.3 42.7 405.2 41.5z"/><path d="M465.3 19.8c-3.1 1.3-7.7 2.7-13.8 4.4 -6.1 1.7-10.7 3.2-13.8 4.4 -0.8 2.2-1.3 7.1-1.6 14.7 1.3 0.5 2.9 0.8 4.7 0.8 1.3 0 3.2-0.2 5.9-0.6 2.7-0.4 4.7-0.6 5.9-0.6 2.4 0 4.4 0.5 6.1 1.5 1.2 1.7 1.8 2.8 1.8 3.3 0 0.6-0.3 1.1-0.9 1.4 -0.2 0.1-0.8 0.7-1.8 1.8 -0.7 0.8-1.5 1.1-2.5 1 -1.8 0.4-5 0.7-9.7 0.8 -4 0.1-7.1 0.6-9.5 1.5 -1.6 6.2-2.4 11.2-2.4 14.8 0 2.4 0.3 4.4 1 5.8 4 2.8 10.8 4 20.6 3.5 0.7 0 1.4-0.3 2.1-0.9 0.8-0.6 1.4-0.9 1.9-0.9 2.4-0.5 3.9 1.3 4.7 5.3 0.3 1.3 0 2.6-0.7 3.7 -0.7 1.1-1.7 1.7-3.1 1.8 -10.2 0.3-19-0.5-26.5-2.4 -2.4-0.6-4.5-1.9-6.4-3.9 -1.9-2-3-4.3-3.3-6.8 -0.8-7.3-0.8-13.9 0-19.7 -2.4-1.6-3.4-3.2-3.2-4.7 0.1-0.8 0.7-1.5 2-2.1 1.2-0.6 1.9-1.3 2.1-2 0.2-0.7 0.5-4.7 1-12 -4.7-0.9-7-2.7-6.9-5.3 0.1-2.4 1.6-4.4 4.4-5.8 2.7-1.1 5.4-2.2 8.1-3.3 3.1-1.6 7-3 11.7-4.3 4.1-1.1 8.3-2.1 12.4-3.2 0.4-0.1 0.9-0.1 1.5-0.1 2.3 0 4.9 0.9 8 2.7 0.1 0.3 0.3 1 0.6 1.9 0.3 0.9 0.5 1.6 0.5 2C466.2 18.8 465.9 19.4 465.3 19.8z"/><path d="M586.1 17.9c1.9 0.9 2.9 2.3 2.9 4 0 1.2-0.5 2.8-1.5 4.8 -1.3 2.7-1.9 4.2-2 4.5 -2 6.2-3.9 15.7-5.7 28.4 -1.8 12.7-3.6 22.1-5.5 28 -0.5 1.7-1.9 2.5-4.3 2.5 -1.1 0-2.1-0.2-2.9-0.6 -3.1-1.6-5.3-4.7-6.7-9.3 -0.1-0.4-0.9-4.6-2.4-12.6 -0.8-4.2-1.5-8.7-2.1-13.5 -1.2 2.4-2.7 8.2-4.7 17.6 -1.7 8.1-3.7 13.2-5.9 15.4 -0.7 0.7-1.9 0.8-3.5 0.3 -2.5-0.3-4.2-1.9-5.1-4.5 -0.5-2.4-1-4.7-1.5-7.1 -1.5-6.1-2.7-15.5-3.6-28.3 -0.9-12.8-2.1-22.1-3.6-28 -0.3-1-0.1-2 0.4-2.9 0.5-0.9 1.2-1.4 2.1-1.5 0.7-0.2 1.3-0.3 2-0.3 2.4 0 4.2 1.1 5.4 3.2 1.3 7.1 2.9 20.8 4.8 41.3 0.7-1.4 1.5-4.1 2.3-8 0.9-3.9 1.7-6.8 2.6-8.5 0.8-3.2 1.5-6.4 2.1-9.6 1-3.9 3.1-5.8 6.3-5.8 0.8 0 1.8 0.1 2.8 0.4 0.1 0.5 0.5 0.8 1.1 0.9 0.7 0.1 1.1 0.2 1.1 0.4 1.9 4.1 3.2 9.6 4.2 16.5 1.4 9.8 2.3 15.4 2.7 16.9 1.3-7.5 2.7-14.9 4.2-22.4 1.8-8.7 4-15.7 6.8-21.2 0.6-1.1 1.8-1.6 3.7-1.6C583.9 17.1 585.1 17.4 586.1 17.9z"/><path d="M608.7 19c0.2 2.4 0.3 5 0.3 7.6 0 5.7-0.6 14.4-1.8 25.9 -1.2 11.5-1.8 20.3-1.8 26.1 0 2.2 0 4.3 0.1 6.4 -0.8 2.4-2.4 3.5-4.9 3.4 -3.6-0.2-5.6-1.7-5.9-4.7 -0.3-2.9-0.5-6.1-0.5-9.3 0-5.7 0.7-14.3 2.1-25.6 1.4-11.4 2.1-19.9 2.1-25.5 0-2.2-0.1-4.3-0.3-6.4 0.8-1.6 2.3-2.4 4.3-2.4 1.6 0 3.2 0.5 4.8 1.4 0.3-0.3 0.6-0.4 0.8-0.4 0.3 0 0.4 0.4 0.4 1.3 -0.1 1-0.1 1.6 0 1.8C608.4 18.8 608.5 19 608.7 19z"/><path d="M679.4 4.3c-0.8 3-2.2 4.8-4.3 5.3 -5.5 1.3-15 3.1-28.5 5.3 -1.7 21-2.5 38.4-2.5 52.4 0 5.3 0.1 10.5 0.3 15.7 0.1 1.6 0 2.8-0.3 3.7 -0.4 1.3-1.3 2-2.5 1.9 -2.4-0.1-4.5-1.1-6.1-3.1 -1.6-2-2.5-4.2-2.7-6.6 -0.2-3.1-0.3-6.4-0.3-9.9 0-5.6 0.4-14.4 1.1-26.4 0.8-11.5 1.1-20.3 1-26.4 -2.3-0.2-5.4 0-9.5 0.6 -4.6 0.7-7.8 1-9.6 1 -4.1 0-7.5-1.1-10.1-3.3 -1-2.2-1.5-3.4-1.5-3.4 0-0.6 0.3-1.2 0.9-1.9 2.7-0.9 8.2-1.8 16.5-2.5 7.3-0.8 12.8-2.1 16.4-4.1 2.9 1 6.3 1.5 10.1 1.5s7.4-0.5 10.9-1.4c1-0.1 3.6-0.7 7.7-1.8 3-0.8 5.6-1 7.6-0.8 1.5 0 2.1 0.6 1.9 1.9C678.3 2 679.4 2.7 679.4 4.3z"/><path d="M705.8 12.3c-0.2 7.5-1.4 19.4-3.7 35.6 -2.1 15.4-3.2 27.2-3.2 35.5 0 2.6 0.1 5.1 0.3 7.5 0 0.6-0.3 1.2-0.8 1.7 -0.5 0.5-1.1 0.8-1.8 0.8 -2.4 0-3.9-0.2-4.7-0.6 -3.2-1.9-4.8-5.3-4.8-10.5 0-1 0.1-2.6 0.2-4.7 0.1-2.1 0.2-3.7 0.2-4.7 0-1.7 0.2-4.3 0.6-7.7 0.4-3.5 0.6-6.1 0.6-8 -1.2 0.1-2.8-0.1-4.9-0.5 -2.1-0.4-3.6-0.6-4.5-0.6 -1.1 0-2.1 0.2-3.2 0.5 -2 6.7-3.2 16.5-3.5 29.4 -2.9 1.2-5.6 1.1-8.3-0.4 -1.9-1-2.9-3-2.9-6.1 0-0.7 0.1-1.6 0.2-2.7 0.1-1.1 0.2-1.8 0.2-2.1 0.3-4.5 1.2-13.6 2.9-27 1.4-11.3 2.1-20.3 2-26.9 0-0.9 0.7-1.5 2-1.8 1.3-0.3 2-0.5 2.2-0.8 0.5 0.6 1.7 1.1 3.7 1.5 1.6 0.3 2.6 1.1 2.9 2.3 0.7 2.1 1 4.5 1 7.1 0 1.9-0.3 4.8-0.8 8.8 -0.5 4-0.8 7.1-0.8 9.2 1 0.8 2.3 1.2 3.8 1.4 1 0.2 2.4 0.2 4.3 0.1 2.4-0.2 3.9-0.3 4.4-0.3 2.1-8.8 4-20.3 5.6-34.4 0.3-2.9 1.4-4.4 3.2-4.4C702.7 9.1 705.2 10.1 705.8 12.3z"/><path d="M237.4 127.4c0 0 1.9-0.1 5.4-0.4 3.5-0.3 8.7-0.7 15.3-1.2 6.6-0.5 14.6-1 23.8-1.6 9.2-0.6 19.6-1.3 30.9-1.9 11.3-0.7 23.6-1.4 36.5-2.1 13-0.7 26.6-1.5 40.8-2.1 14.1-0.6 28.8-1.4 43.6-2 14.9-0.6 29.9-1.2 45-1.9 15.1-0.5 30.2-1.1 45.1-1.6 14.9-0.6 29.5-0.9 43.6-1.3 14.2-0.4 27.8-0.7 40.8-1 13-0.3 25.3-0.5 36.6-0.7 11.3-0.2 21.7-0.3 30.9-0.4 9.2-0.1 17.2-0.1 23.8-0.2 6.6-0.1 11.8 0 15.4 0 3.5 0 5.4 0 5.4 0s-1.9 0.1-5.4 0.4c-3.5 0.3-8.7 0.7-15.3 1.2 -6.6 0.5-14.6 1-23.8 1.6 -9.2 0.6-19.6 1.3-30.9 1.9 -11.3 0.7-23.6 1.4-36.5 2.1 -13 0.7-26.6 1.4-40.8 2.1 -14.1 0.6-28.8 1.4-43.6 2 -14.9 0.6-29.9 1.2-45 1.8 -15.1 0.5-30.2 1.1-45.1 1.6 -14.9 0.6-29.5 0.9-43.6 1.3 -14.2 0.4-27.8 0.7-40.8 1 -13 0.3-25.2 0.5-36.6 0.7 -11.3 0.2-21.7 0.3-30.9 0.4 -9.2 0.1-17.2 0.1-23.8 0.2 -6.6 0.1-11.8 0-15.4 0C239.3 127.4 237.4 127.4 237.4 127.4z"/></svg>